<svg xmlns="http://www.w3.org/2000/svg" id="Layer_2" data-name="Layer 2" viewBox="0 0 557 578"><defs><style>.cls-2{fill:#fecb39}.cls-3{fill:#536582}.cls-4{fill:#37474f}.cls-14,.cls-24,.cls-25,.cls-27{fill:#fff}.cls-11,.cls-19,.cls-24,.cls-25,.cls-27,.cls-6,.cls-8{isolation:isolate}.cls-11{opacity:.1}.cls-11,.cls-16,.cls-19,.cls-6,.cls-8{fill:#010101}.cls-6{opacity:.15}.cls-7{fill:#e0e0e0}.cls-8{opacity:.2}.cls-9{fill:#f0f0f0}.cls-19,.cls-24{opacity:.3}.cls-20{fill:#263339}.cls-25{opacity:.4}.cls-22{fill:#465b65}.cls-27{opacity:.5}.cls-28{fill:#fbfbfb}.cls-29{fill:#f5f5f5}.cls-30{fill:#ebebeb}</style></defs><path fill="#ecf2fb" d="M407 536c112-41 149-188 104-299C461 115 324 75 301 69 219 47 77 42 21 129c-62 96 28 234 90 297 16 17 160 161 296 110Z"/><g id="freepik--Earth--inject-79"><g id="freepik--World--inject-79"><path d="M104 414a200 200 0 1 0 268-298 200 200 0 0 0-268 298Z" class="cls-2"/><path d="M104 414a200 200 0 1 0 268-298 200 200 0 0 0-268 298Z" class="cls-3"/><path d="M72 156a6 6 0 0 0 4 0 10 10 0 0 0 2-1l3-2-1 3a18 18 0 0 1-3 5c-3 3-4 3-6 3-1 0-3 0-4 2v2a7 7 0 0 0 3-1 2 2 0 0 1 1 0l1 5 2-1a16 16 0 0 0 4-1 11 11 0 0 0 2-1 42 42 0 0 1 5-3 3 3 0 0 0 2-4c0-2-1-1-3 0l-4 3-1-1 3-2 2-2 4-3a10 10 0 0 0 3-3v-3a11 11 0 0 1 3-3 31 31 0 0 0 2-3c2-2 1-4 2-6a12 12 0 0 1 2-3l4-5 1-2a14 14 0 0 0 2-3l1-2a5 5 0 0 1 1-1 10 10 0 0 0 3-5c0-3-1-2-2-2h-3l-8 5-10 10-8 10a6 6 0 0 0 3 0l6-4 4-2c1 1-2 4-3 5a4 4 0 0 0-1 1c-1 2-2 4-3 3a5 5 0 0 0-2 0 1 1 0 0 0-1 1c-1 1-2 3-3 2l-1-2h-2l-7 10a4 4 0 0 0 1 1Zm210-52a25 25 0 0 1 4-5l3-2 2-1a11 11 0 0 0 1-1 2 2 0 0 0 0-2 2 2 0 0 0-1-1 2 2 0 0 0-2 1 13 13 0 0 1-3 2c-6 2-10 5-11 11a29 29 0 0 0 0 6l-1 1v1l4 3a27 27 0 0 0 3 1l4-1-2-2v-1a10 10 0 0 1-2-3 8 8 0 0 1-1-3 9 9 0 0 1 2-4Zm-90-1 2 2a10 10 0 0 0 2 1 24 24 0 0 1 3 1l1 1 1 1a20 20 0 0 1 2 1l3-1a8 8 0 0 0 0-2 16 16 0 0 1-1-3 4 4 0 0 0 0-1h3a5 5 0 0 1 1 0v1a1 1 0 0 0 1 0 2 2 0 0 0 0 1 9 9 0 0 0 3 0 3 3 0 0 0 1 0 1 1 0 0 0 0-2 29 29 0 0 1-4-1 9 9 0 0 1-3-2c-1-1 0-2 1-2a12 12 0 0 0 2-1 5 5 0 0 0 2-2 2 2 0 0 0 0-2 3 3 0 0 0-4 0l-3 1a9 9 0 0 1-2 1 4 4 0 0 0-1 0 6 6 0 0 0-2 1 4 4 0 0 1-3 1l-1 1 2 2-1 1-2-2c-1 0 0 0 0 0 0 1 0 2-1 1l-2-1c-1 0-3 2-2 3a5 5 0 0 0 2 1Zm24 89-5-4 1-3h-2l-2-2c0-1-4 0-3 1 1 2-2 3 0 4l1 3 3 3c1 2 2-1 3 0v8l-1 1h2v3h2c2-1 6-3 7-5 0-1 1-4-1-4l-1-1a7 7 0 0 1-2-1 27 27 0 0 0-2-3ZM48 319l5 3c1-1-2-4-2-4l-6-6-2-2 2 7 3 2Zm299 24a65 65 0 0 0-1-15v-3a9 9 0 0 0-2-3 7 7 0 0 1-1-1 3 3 0 0 0-1-1s-2 0-1 2a20 20 0 0 0 0 2c0 4-2 6-3 9-2 4 0 8 1 11l1 8c5 6 6-6 7-9Z" class="cls-4"/><path d="M436 275a2 2 0 0 0-2-1 33 33 0 0 0-5 2 6 6 0 0 1-3 0 3 3 0 0 1-1-1l-1-3a5 5 0 0 0-2-4l-2-1-2-2a4 4 0 0 1-2-2 3 3 0 0 1 1-2 5 5 0 0 0-1-4l-1-2a23 23 0 0 0-2-2l-1-1-5-10 1-2a2 2 0 0 1 1 0 9 9 0 0 1 2 1 6 6 0 0 0 1 1c2 0 4 6 6 3l2-3a10 10 0 0 0 1-5 9 9 0 0 0 0-3 14 14 0 0 0-4-4 13 13 0 0 0-2-2l-2-2c0-3 1-6 4-6a4 4 0 0 0 3-2l4-5 6-5v-1a199 199 0 0 0-9-23l-1-3a201 201 0 0 0-83-90l-1 1a30 30 0 0 0-5 1 5 5 0 0 0-3 4 5 5 0 0 1-1 3 5 5 0 0 1-3 1s-2 0-1 2l4 3c2 2-2 1-3 1a10 10 0 0 0-4-1l-2 1 2 2v1l-2 2a8 8 0 0 1-4 1c-2 0-3-2-5-3a5 5 0 0 0-2-2 5 5 0 0 0-3-1v7l4 4 3 2c0 2-3 2-5 1l-7-2a13 13 0 0 0-6-1c-1 0-2 1 0 2l3 2-3 2a26 26 0 0 1-6 2h-6a8 8 0 0 0-1 2 5 5 0 0 0-2 2 1 1 0 0 1 0 1 3 3 0 0 1-1 1 3 3 0 0 1-3-2l-1-2a4 4 0 0 0-4 0 1 1 0 0 0 0 1l1 5a3 3 0 0 1 0 2 8 8 0 0 1-2 1 4 4 0 0 0-1 3c0 2 0 3-2 4s-3 0-5-1a40 40 0 0 1-4-3c-2-2 1-1 2-1l4-1a13 13 0 0 0 3-1s2-1 1-2c-1-3-7-4-9-5l-3-1-6-1a8 8 0 0 0-2 0c-2 0-2 2-5 0l-3-2a14 14 0 0 0-8 3 8 8 0 0 0-2 1l-2 4a3 3 0 0 1-1 1c-3 0-4 3-3 8l1 3a7 7 0 0 1 0 2l-1 5-1 3-2 10v8a8 8 0 0 0 5 4c2 1 4 0 5-1 2-2 4-1 6 2l3 3a5 5 0 0 0 4-1v-4a5 5 0 0 1 0-4c1-1 0-3-1-4l-4-6a7 7 0 0 1-1-3 11 11 0 0 1 0-2l2-6a12 12 0 0 0 0-4 7 7 0 0 1 0-2 3 3 0 0 1 3-1 3 3 0 0 1 2 1l1 4-2 4 1 5 2 5c2 2 4 1 6 0l2-1a8 8 0 0 1 3 0l2 2a3 3 0 0 1-1 1l-5 1-2 2 2 3 2 2a1 1 0 0 1-1 1 5 5 0 0 1-2-1l-2-1c-1 1 1 4 1 5a9 9 0 0 1 1 4c-1 3-5 4-7 5a28 28 0 0 1-5 0 8 8 0 0 1-3 0c-3-1-3-5-4-7-1-3-3 0-3 2l3 7c0 2-2 3-4 4-1 1-2 3-1 6l-1 3-2 3a4 4 0 0 1-2 2l-2 1-1 2-3 1c-1 0-2 1-1 2l4 1c2 0 3 2 4 4 1 3 1 5-2 6l-8 4c-2 1 0 6 1 8a5 5 0 0 0 1 3l2 2a4 4 0 0 0 3 0 4 4 0 0 1 3 0 5 5 0 0 0 1 1l1-2a5 5 0 0 1 2 0 5 5 0 0 0 1-1l1-1 1-4v-2a17 17 0 0 1 1-2 14 14 0 0 1 0-2l2-2a3 3 0 0 0 1-3l1-3h2l4-3c2-2 4-2 6 0a21 21 0 0 0 3 3l3 1 3 2c2 1 2 2 2 4l1 2c1 1 1-1 1-1l-1-4v-2h1l-1-2a4 4 0 0 0-2-1l-3-1a31 31 0 0 1-4-3 7 7 0 0 1-2-3c-1-1 1-2 2-1l2 2c2 2 4 1 6 2l2 2a19 19 0 0 1 2 3l1 1a11 11 0 0 0 2 1 9 9 0 0 1 2 1v1l2 3c2 1 1-2 1-3a2 2 0 0 0 0-2l-2-2c-1-1 1-1 1-2 1-1 2-3 4-2l1 2a8 8 0 0 0 1 2 11 11 0 0 0 2 3 7 7 0 0 0 6 2l2-2a8 8 0 0 1 1 1 4 4 0 0 0 2-1l3-1c1 0 2 0 2 2a61 61 0 0 0 1 8v4c-1 1-2 0-3-1a13 13 0 0 0-6 1 28 28 0 0 1-4 1l-3 1c-2-1-7-4-8 0-1 2 1 5-2 5h-4a31 31 0 0 0-7-1 7 7 0 0 1-4-1c-2-2 0-3 0-4a5 5 0 0 0-3-4 5 5 0 0 0-3 0l-2 1a8 8 0 0 0-2 1 20 20 0 0 1-4 1l-3 1-2 1c-1 2-3 5-6 5-1 1-3 0-4 2a16 16 0 0 0-4 4l-2 4c-1 2 0 3 1 5a5 5 0 0 1 0 3 11 11 0 0 1-3 5c-1 1-3 3-3 5a29 29 0 0 0-1 5c0 4 1 8 4 11v5a10 10 0 0 0 2 6 9 9 0 0 0 3 2l6 5a36 36 0 0 0 7 4 14 14 0 0 0 8 2 8 8 0 0 0 4-2 6 6 0 0 1 2-1 13 13 0 0 0 5-3l1-2 5-2a8 8 0 0 1 2 1 20 20 0 0 0 5 1 6 6 0 0 0 2 0 5 5 0 0 1 3 1c4 1 3 5 3 8-1 3 1 5 3 7l2 3a11 11 0 0 1 3 2l1 3a27 27 0 0 1 3 7 40 40 0 0 1 0 5 19 19 0 0 1 0 4 9 9 0 0 0 0 1 17 17 0 0 0 1 4l1 7a16 16 0 0 0 1 3l8 13 4 6 2 3a17 17 0 0 1 2 4c1 2 2 3 5 3l5-2a23 23 0 0 0 7-9 29 29 0 0 0 2-8 17 17 0 0 0 0-4v-11l1-9 3-4c1-2 4-6 3-9-4-15-12-25-2-40 3-5 6-13 5-20 0-3-2-4-4-3a32 32 0 0 1-3 2l-3 2h-3a3 3 0 0 1-3-2l-1-3a6 6 0 0 0-3-2 22 22 0 0 1-6-4l-3-7a12 12 0 0 0-4-4 30 30 0 0 1-3-3c-1-2-5-6-3-8 1-1 4 3 5 4l5 6 3 3 5 4 1 2a15 15 0 0 1 3 3c2 4 4 6 6 6 3-1 6-5 7-7a77 77 0 0 0 9-10 17 17 0 0 0 1-4 13 13 0 0 0 1-5 3 3 0 0 0-2-2h-2l-2-3c-2-1-2 1-3 2s-3 3-5 2l-1-2h-2l-4-3-2-5c0-2 3 0 4 1a37 37 0 0 1 3 2 5 5 0 0 0 3 1 19 19 0 0 0 3 0h2a3 3 0 0 1 2 0 8 8 0 0 0 5 1l6-2 5-1a9 9 0 0 1 5 3c1 1 2 3 4 3s1-3 2-2l2 2a20 20 0 0 0 1 2l2 5a91 91 0 0 0 6 11l4 4 2-2a8 8 0 0 0 0-3 27 27 0 0 0 0-3 35 35 0 0 1 0-7 20 20 0 0 1 1-2 22 22 0 0 1 1-5 17 17 0 0 0 2-4l1-1a29 29 0 0 1 1-3 3 3 0 0 1 1-1 8 8 0 0 1 1-1l2-2h2c2 1 3 4 4 7l2 2h3l3 3 3 3-1 2a3 3 0 0 0 1 2 5 5 0 0 1 1 3 8 8 0 0 0 0 2 1 1 0 0 0 1 1 3 3 0 0 1 2 2l1 2a9 9 0 0 0 1 1v1a4 4 0 0 1 1 2 2 2 0 0 1 0 1h-1l-3-1a3 3 0 0 0-1 0c-2 1 1 5 2 5l2 2a6 6 0 0 1 1 2 25 25 0 0 0 3 4 19 19 0 0 0 4 3 10 10 0 0 0 1 1l2 1c2 6 6 1 8 2s4 0 6-1a10 10 0 0 0 1 0v-2a2 2 0 0 1-2-1Zm-142-66a21 21 0 0 1-6 0c-3 0-6 2-8 3a8 8 0 0 1-4 1c-2 0-2-6-2-8a11 11 0 0 1 1-5c1-2 6-1 5 0s1 1 1 2h2v-5l1-1c2-1 4 0 4 3a6 6 0 0 0 1 2c1 2 4 2 4 2l3 1c1 0 0 5-2 5Zm28 2c0 2-3 3-5 3-3-1-4-5-5-7s-6-4-7-7c-2-5 1-10 4-11 3 0 2 4 2 7l1 2 6 3v3l4 7ZM199 395c0-2 2-4 4-6l3-3a13 13 0 0 0-1-8l-1-4c0-1-3-4-3-7-1-5 2-9 1-14 0-3-4-6-7-6s-6-4-8-3h-1c-3 1-7-1-10-2a15 15 0 0 0-2 0c-3 0-7-2-9-4-2-3-4-5-6-5-3-1-6 2-10 0a13 13 0 0 0-4-3 14 14 0 0 1-5-2h-8l-4 1h-3c-3-2-6 1-7 3l-1 4c-1 2-5 1-7 1a12 12 0 0 1-4-2l-4-4c0-2 0-4-2-5h-4l-3 1a4 4 0 0 1-3-3l1-3a3 3 0 0 0 1-1l-1-1c1-2 0-3-1-3-2-1-4 2-4 4s-3 5-6 4c-5 0-9-8-9-14 0-3 2-7 4-8l6-1 1-1c-1-1 1-2 3-2s4-1 7 1a19 19 0 0 1 2 3c2 2 5 3 4 0l-3-5c-2-2-1-7 1-8a35 35 0 0 0 2-4l1-4-2-4a8 8 0 0 1 0-3 10 10 0 0 1 3-5l4-4 1-5a15 15 0 0 1 2-4c2-1 2 3 4 2l6-5c2-2 2-5 1-6s-2 4-4 5a3 3 0 0 1-1-1c-2 0-3-4-3-4s0-5-2-3l-1 1c-2 1-3 0-1-2 3-3 8-4 11-6 2-2 4-1 3 2s-1 5 1 5l5-1 1 1c1-2 3 0 3-2a3 3 0 0 0-1-2l-3-3c-1 0-3-3-3-6v-1c0-3-4-5-6-6-6-3-5-4-9-10-1-2-3-1-4 2l-3 2c-2 0-2-6-4-6l-2-2c-1-2-4-2-6-1s-3 5-2 7v8c1 2 3 5 2 8l-2 4c-1 3 2 7 1 8a2 2 0 0 1-2 1 6 6 0 0 1-4-3c-1-3 0-5-3-6a31 31 0 0 1-12-2l-3-4c-1-2-2-2-1-5l4-7c0-3-2-2-1-5s4-2 6-3a4 4 0 0 0 1-3c1-2-1-1-1-2l1-1a5 5 0 0 0 2-1 3 3 0 0 0 0-1 9 9 0 0 1 1-2 3 3 0 0 1 1-1 7 7 0 0 0 2-2c1-1 3-2 3-4a8 8 0 0 0 0-3l-1-2c-1-3 3-4 4-4 2-1 3-2 4 1 0 2 0 5 1 3s1-2 2-1a3 3 0 0 1 2 2 4 4 0 0 1-2 3c-1 1-1 6-3 7h-1c-2 1-1 6 1 5h6c2 2 6 4 7 3 2 0 0-4 1-5a6 6 0 0 1 1-1v-3a4 4 0 0 0-1-2l-3-2c-1-2 1-4 2-4l1 2 3 1a3 3 0 0 0 0-1l1-3c0-1 2-1 2-3a2 2 0 0 0 0-2 1 1 0 0 0-1 0l-5-2a8 8 0 0 1-1 0l-1-3a11 11 0 0 0 0-2 3 3 0 0 0-2-2 10 10 0 0 0-2-2l-5-1c-1-1-2-3-4-3l-1 1h-2a4 4 0 0 0-4 1 17 17 0 0 1-1 1 15 15 0 0 1-3 1 14 14 0 0 0-3 4 11 11 0 0 0-2 3v5l4-1c1 0 4-1 4 2-1 2-3 2-3 4v3a10 10 0 0 1-1 2 16 16 0 0 1-1 2h-2v-3a1 1 0 0 0-1-2 3 3 0 0 0-1 0 3 3 0 0 1-1 0 6 6 0 0 1-1-1l-1-2a6 6 0 0 1 0-4l1-2a23 23 0 0 0 2-3c1-3 1-6-1-5s-4 3-5 6l-1 6-2 5-1 4-1 2-2 6a4 4 0 0 1-2 1 6 6 0 0 1-3 1l-1-1 2-2 2-6-2-1a4 4 0 0 1-2-4l-5 15a1 1 0 0 1 1 0v2a14 14 0 0 0-1 2l-1 4a5 5 0 0 1-1-1 200 200 0 0 0-2 94 2 2 0 0 1 2 0l6 6 10 8 6 6c5 2 10 3 14 2s11 5 14 2c1-1 4 2 4 3a15 15 0 0 0 5 3 31 31 0 0 0 7 1c3 1 8 2 8 7v11c-1 3 0 7 2 9l8 8c2 3 2 7 5 9 3 4 7 4 11 5a15 15 0 0 1 9 5 127 127 0 0 1 15 20c5 8 10 18 17 25a42 42 0 0 0 12 9c3 1 6 1 5-3l-4-6-1-6c-1-2-3-4-2-6l4-3c0-3-3-3-4-5s3-3 3-5v-3l1-2a10 10 0 0 0 1-5c0-3-3-5-2-8ZM71 262c1-2 4-7 6-6a7 7 0 0 1 3 2c1 2 5 2 7 2s-1 3 0 5-1 3-2 2l-1-1v-1c0-2-4-2-4 1a24 24 0 0 0 0 2c0 3-3 4-3 1v-1c0-3-1-6-3-6-3 1-5 2-3 0Zm-10-87c1 1 2 0 2-1l1-4h-2l-2 3a8 8 0 0 0 1 2Zm142 30c1 2 3 0 4 0a6 6 0 0 0 2-4 5 5 0 0 0-2-4c0-1-2-2-3-1l-1 1-2 1c-1 1 1 2 1 3a4 4 0 0 1 1 2v2Z" class="cls-4"/><path d="M247 225c0-3-4-10-4-7a9 9 0 0 0 0 1c0 3 3 8 4 6Zm190 24c1-2 1-4-1-4s-3 2-4 4a42 42 0 0 1-4 6c-1 1-3 1-3 3a11 11 0 0 0 2 6l3 3c2 1 5 2 7-1a5 5 0 0 0 1-2v-12a3 3 0 0 1-1-3Zm-326 63a12 12 0 0 1-5-1h-6c-1 1 1 2 2 2a18 18 0 0 0 2 1l4 1a3 3 0 0 0 2 0c2 0 4-2 6-1l3 1v-1l-1-2c-2-2-5-1-7 0Zm146-83a2 2 0 0 0-2-2l-1 2c1 1 3 2 3 0Zm-21-1c0-1 0-2-3-1l-1 2c0 1 3 1 4-1Zm-53-61c0-3-4-7-5-6l-2 2a15 15 0 0 1-3 1c-2 0-2 3-4 2s-1 4 1 6c5 5 12-1 13-5ZM75 206c0 3 0 6 2 6s3-2 5-4c3-1 0-2-2-3s-4-1-5 1Zm82-64c1-2 3-5 2-8l-3-4a8 8 0 0 1 0-2 24 24 0 0 1 1-4 2 2 0 0 0 0-2l-3-2c-5-3 4-15 3-17a2 2 0 0 0-2 0 10 10 0 0 0-2 0 4 4 0 0 0-2 1 5 5 0 0 0-1 2c0 1-1 3-2 2h-5c-1-1 1-3 1-4a4 4 0 0 1 1-2c1-1 0-3-1-4a9 9 0 0 0-5 0 13 13 0 0 0-8 3 19 19 0 0 0-4 4l-4 8a3 3 0 0 1-3 2c-2 0-5 0-7 4-2 3 0 3-1 5l-3 3a7 7 0 0 0-2 2 7 7 0 0 0 0 4l-1 2a37 37 0 0 1-4 5 9 9 0 0 0-3 5l1 2a2 2 0 0 1 1 1l1 3 5-3c3-2 6-4 8-2a7 7 0 0 1 2 3v8a6 6 0 0 0 0 4c2 1 4 1 5 3l1 6-3 6c-1 2 0 5 1 7a20 20 0 0 0 2 7 59 59 0 0 0 4 7 9 9 0 0 0 3 2h6a7 7 0 0 0 2-3c2-4 0-7 0-11a8 8 0 0 1 3-6c2-2 4-3 5-6l2-6 6-5c1-1 4-3 4-5l-1-3a4 4 0 0 1 1-2h1v-3l-1-1c-2-2-3-4-1-6Zm-95 40 1-2-3 2-4 5c-2 1 1 3 2 4 3 0 5-3 6-5 1-3-2-3-2-4Z" class="cls-4"/><path fill="#fff" d="M262 82c-131-17-141 73-66 116s192 44 202 6S360 94 262 82Z" opacity=".1" style="isolation:isolate"/><path d="M200 373C90 308 68 151 146 87a199 199 0 0 0-80 280c57 95 180 127 275 70a200 200 0 0 0 92-124c-22 42-122 124-233 60Z" class="cls-6"/></g></g><g id="freepik--Shadows--inject-79"><path id="freepik--Shadow--inject-79" d="m299 488 27 16a9 9 0 0 0 9 0l40-23 32 19a9 9 0 0 0 8 0l48-28c2-1 2-3 0-5l-28-16a9 9 0 0 0-8 0l-16 9-32-18a9 9 0 0 0-8 0l-72 41c-2 2-2 4 0 5Z" class="cls-7"/><path id="freepik--shadow--inject-79-2" d="M371 204s-3-4-10-4-14 4-25 10l-54 32a12 12 0 0 0-3-3 6 6 0 0 0-4-1c-4 0-11 5-15 9l-106-7a10 10 0 0 0-8 3l-3 4 33 7a2 2 0 0 0 1 1h1l1-1 7 1v1l4 17 5 20-38-1a18 18 0 0 0-8 2l-3 2 40 9v1h-1a4 4 0 0 0-1 1 6 6 0 0 0-1 2h-1a1 1 0 0 0 0 1 3 3 0 0 0 0 1l2 2 24-3 25 8 2-1v-1a2 2 0 0 0 1-1 5 5 0 0 0-2-3l-6-6c16-4 25-8 36-15l29-17 12 5a2 2 0 0 0 1 1 4 4 0 0 0 1 0 5 5 0 0 0 1 1h1l15 5a1 1 0 0 0 0 1 3 3 0 0 0 2 0l16 7a2 2 0 0 0 1 0h1l17 7 5-3c3-2 3-4 1-6l-32-25a6 6 0 0 0 0-3 15 15 0 0 0-5-11l33-19 2-1 1-1 1-1h1l1-1 1-1 2-1v-1l1-1 2-1v-1l1-1c3-4 5-7 6-11 1-7-5-8-11-8Zm-153 75-16-20a3 3 0 0 0 1 1h1l1-1 21 4a1 1 0 0 0 0 1h1a5 5 0 0 0 2 1l2-1 9 2-22 13Zm-17-21a1 1 0 0 0 0 1Z" class="cls-8" data-name="freepik--shadow--inject-79"/></g><g id="freepik--Clouds--inject-79"><path id="freepik--Cloud--inject-79" d="m431 141-1 1c0-7-9-16-16-11-5-11-20-13-24 2-13-5-19 2-20 14-5-3-17-2-18 9-4-4-17-6-20 4a5 5 0 0 0-5-1 51 51 0 0 0-6 2 20 20 0 0 1-6 1l-4 1c-2 3 5 3 7 3l8-1a24 24 0 0 1 8 1l7 3c4 2 9 3 15 2l7-5 12 6c12 3 20-3 23-9 7 9 25 10 28-3 4 4 15 7 20 0 2-3 1-10-4-10 1-7-5-10-11-9Z" class="cls-9"/><path id="freepik--cloud--inject-79-2" d="M76 403a19 19 0 0 1 5-10 13 13 0 0 1 10-4c6 0 15 5 17 11 1-3 10-1 13 1 4 3 6 8 8 12a13 13 0 0 1 6-4 10 10 0 0 1 9 1 15 15 0 0 1 5 6 10 10 0 0 1 5-1 11 11 0 0 1 7 3l2 2h3a11 11 0 0 1 7 1 29 29 0 0 0 8 2l6 1c1 3-4 3-5 3l-8-1c-1 3-6 3-9 2l-4-1-3 2a19 19 0 0 1-10 3 17 17 0 0 1-5-1 28 28 0 0 1-6-2l-2-1a44 44 0 0 1-4 3 34 34 0 0 1-4 3c-8 4-22 3-26-7a15 15 0 0 1-14 7c-4 0-8-4-7-8-3 4-12 5-16 3-2-1-5-7-1-8-5 1-15 0-14-7 1-5 6-6 10-5 0-9 11-12 17-6Z" class="cls-9" data-name="freepik--cloud--inject-79"/></g><g id="freepik--Locators--inject-79"><path id="freepik--Pin--inject-79" d="M316 318a4 4 0 0 0-6 3c-1 4 2 9 2 9s5-3 6-6a4 4 0 0 0-2-6Zm-2 6a2 2 0 0 1 1-4 2 2 0 0 1-1 4Z" class="cls-2"/><path id="freepik--pin--inject-79-2" d="M286 151a4 4 0 0 0-4 3c0 4 3 8 3 8s5-3 5-7a4 4 0 0 0-4-4Zm0 5Z" class="cls-2" data-name="freepik--pin--inject-79"/><path id="freepik--pin--inject-79-3" d="M233 202a4 4 0 0 0-3 5c1 4 6 7 6 7s3-5 2-9a4 4 0 0 0-5-3Zm1 6a2 2 0 0 1 0-4 2 2 0 0 1 0 4Z" class="cls-2" data-name="freepik--pin--inject-79"/><path id="freepik--pin--inject-79-4" d="M413 190a4 4 0 0 0-6 2c-1 4 1 9 1 9s6-2 7-6a4 4 0 0 0-2-5Zm-3 5Z" class="cls-2" data-name="freepik--pin--inject-79"/><path id="freepik--pin--inject-79-5" d="M177 353a4 4 0 0 0-2 6c2 3 8 4 8 4v-8a4 4 0 0 0-6-2Zm3 5Z" class="cls-2" data-name="freepik--pin--inject-79"/><path id="freepik--pin--inject-79-6" d="M95 243a4 4 0 0 0-3 5c2 4 7 6 7 6s2-5 1-9a4 4 0 0 0-5-2Zm2 5Z" class="cls-2" data-name="freepik--pin--inject-79"/><path id="freepik--pin--inject-79-7" d="M132 144a4 4 0 0 0-3 6c1 3 6 6 6 6s3-5 2-9a4 4 0 0 0-5-3Zm2 6Z" class="cls-2" data-name="freepik--pin--inject-79"/><path id="freepik--pin--inject-79-8" d="M58 292a4 4 0 0 0-1 6c3 3 8 4 8 4s1-6-1-9a4 4 0 0 0-6-1Zm4 5Z" class="cls-2" data-name="freepik--pin--inject-79"/></g><g id="freepik--Luggage--inject-79"><g id="freepik--Suitcase--inject-79"><path d="m370 394-63 37a4 4 0 0 0-2 3v51a4 4 0 0 0 2 3l20 12a4 4 0 0 0 4 0l63-36a4 4 0 0 0 1-4v-51a4 4 0 0 0-1-3l-21-12a4 4 0 0 0-3 0Z" class="cls-2"/><path fill="#fff" d="m330 446-24-14a3 3 0 0 0-1 2v51a4 4 0 0 0 2 3l20 12a4 4 0 0 0 4 0l-2-1v-52a4 4 0 0 1 1-1Z" opacity=".5" style="isolation:isolate"/><path d="m330 446-24-14a3 3 0 0 0-1 2v51a4 4 0 0 0 2 3l20 12a4 4 0 0 0 4 0l-2-1v-52a4 4 0 0 1 1-1Z" class="cls-11"/><path fill="#fff" d="m394 406-21-12a4 4 0 0 0-3 0l-63 37a3 3 0 0 0-1 1l24 14a4 4 0 0 1 1-2l63-36 1 1a4 4 0 0 0-1-3Z" opacity=".6" style="isolation:isolate"/><path d="m331 500 63-37a4 4 0 0 0 1-3v-51l-1-1-63 36a4 4 0 0 0-2 3v52l2 1Z" class="cls-2"/><path fill="#fff" d="m331 500 63-37a4 4 0 0 0 1-3v-51l-1-1-63 36a4 4 0 0 0-2 3v52l2 1Z" opacity=".7" style="isolation:isolate"/><path d="M332 495v1h1v-1h-1v1-1Zm2 0 1-1-1 1Zm3-2 1-1v1h-2 1Zm2-2h2l-1 1h-1v-1Zm3-1 2-1-2 1Zm3-2 1-1h1v1l-2 1v-1Zm3-1 1-1-1 1v-1Zm3-2 1-1v1h-2 1Zm42-71v2h-1v-2h1Zm-40 69h2l-1 1h-1v-1Zm40-66v2h-1v-2h1Zm-37 65 1-1h1l-2 1Zm37-62v2h-1v-2h1Zm-34 60 1-1h1l-1 1-1 1v-1Zm34-56v2l-1-1v-1h1Zm-31 54h1l-1 1v-1Zm31-51v2h-1v-2h1Zm-29 50 2-1v1h-2Zm29-47v2h-1v-2h1Zm-26 45 2-1v1l-2 1v-1Zm26-42v2h-1v-2h1Zm-23 41 1-1h1l-2 1Zm23-38v2l-1 1v-2l1-1Zm-20 36 1-1h1l-1 1h-1Zm20-32v2h-1v-2h1Zm-17 30h1l-1 1h-1v-1h1Zm17-27v2h-1v-2h1Zm-15 26 2-1-1 1h-1Zm15-23v2h-1v-2h1Zm-12 21 2-1v1l-2 1v-1Zm12-18v2h-1v-2h1Zm-9 17 1-1h1l-2 1Zm9-13v2l-1-1v-1h1Zm-6 11 1-1v1h-1Zm6-8v2h-1v-2h1Zm-3 6h1l-1 1h-1v-1h1Zm3-3v1a2 2 0 0 1 0 1h-1a2 2 0 0 0 0-1v-1h1Zm-1-47v1h1v-2l-1 1Zm-60 35v2-2Zm1-1 2-1-2 1Zm-1 4v2-2Zm4-6 1-1h1v1l-2 1v-1Zm-4 9v2-2Zm7-11h1l-1 1Zm-7 14v2-2Zm9-15 2-1v1h-2Zm-9 18v2-2Zm12-20 2-1v1l-1 1h-1v-1Zm-12 24v2-2Zm15-25 1-1h1l-2 1Zm-15 28v2-2Zm18-30 1-1h1v1l-2 1v-1Zm-18 33v2-2Zm21-35h1l-1 1v-1Zm-21 38v2-2Zm23-39 2-1v1h-2Zm-23 43v2-2Zm26-45 2-1v1l-1 1h-1v-1Zm-26 48v2-2Zm29-49 1-1h1l-2 1Zm-29 52v2-2Zm32-54 1-1h1l-1 1h-1Zm-32 57v2-2Zm35-59h1l-1 1v-1Zm-35 62v2-2Zm37-63 2-1-1 1h-1Zm-37 67v2-2Zm40-69 2-1v1l-2 1v-1Zm3-1 1-1h1l-2 1Zm3-2 1-1h1l-1 1h-1Zm3-2 1-1v1l-1 1h-1v-1h1Zm2-1 2-1-1 1h-1Zm3-2 2-1v1l-2 1v-1Zm3-2h2l-2 1v-1Z" class="cls-14"/><path d="M319 495v-55a2 2 0 0 1 1-1l65-38-2-1-66 37a2 2 0 0 0-1 2v54Z" class="cls-11"/><path d="M329 455a21 21 0 0 0 9-14h-1l-6 3a4 4 0 0 0-2 3v8Zm66-46v7c-4 2-7 0-7-5l6-3c1-1 1 0 1 1Zm-64 91 6-4c0-4-4-6-8-4v7l2 1Zm64-47v7a4 4 0 0 1-1 3l-7 4v-1a16 16 0 0 1 8-12v-1Z" class="cls-2"/><path d="M329 455a21 21 0 0 0 9-14h-1l-6 3a4 4 0 0 0-2 3v8Zm66-46v7c-4 2-7 0-7-5l6-3c1-1 1 0 1 1Zm-64 91 6-4c0-4-4-6-8-4v7l2 1Zm64-47v7a4 4 0 0 1-1 3l-7 4v-1a16 16 0 0 1 8-12v-1Z" class="cls-16" opacity=".1"/><path d="M337 440c-4-2-10-1-15 1l8 5a4 4 0 0 1 1-2Zm57-32-6 3c-4-2-4-6 0-8l6 3a4 4 0 0 1 1 3v1-1c0-1 0-2-1-1Zm-21-14 6 4a16 16 0 0 1-15 0l6-4a4 4 0 0 1 3 0Zm-60 33c4 3 4 6 0 9l-7-4a4 4 0 0 1 1-1Z" class="cls-2"/><path d="M337 440c-4-2-10-1-15 1l8 5a4 4 0 0 1 1-2Zm57-32-6 3c-4-2-4-6 0-8l6 3a4 4 0 0 1 1 3v1-1c0-1 0-2-1-1Zm-21-14 6 4a16 16 0 0 1-15 0l6-4a4 4 0 0 1 3 0Zm-60 33c4 3 4 6 0 9l-7-4a4 4 0 0 1 1-1Z" class="cls-16" opacity=".3"/><path d="m330 446-8-5c1 6 3 11 7 14v-8a4 4 0 0 1 1-1Zm-25-6v-6a4 4 0 0 1 1-2l7 4c0 4-4 6-8 4Zm8 51-6-3a4 4 0 0 1-2-3v-7a16 16 0 0 1 8 13Zm16 8v-7c-4-2-7 0-7 4l5 4a4 4 0 0 0 4 0l-2-1Z" class="cls-2"/><path d="m330 446-8-5c1 6 3 11 7 14v-8a4 4 0 0 1 1-1Zm-25-6v-6a4 4 0 0 1 1-2l7 4c0 4-4 6-8 4Zm8 51-6-3a4 4 0 0 1-2-3v-7a16 16 0 0 1 8 13Zm16 8v-7c-4-2-7 0-7 4l5 4a4 4 0 0 0 4 0l-2-1Z" class="cls-16" opacity=".5"/><path d="m338 431-3 2a1 1 0 0 1-1 0l-6-4a1 1 0 0 1-1-1 1 1 0 0 1 1-1l3-2a1 1 0 0 1 1 0l6 4v1a1 1 0 0 1 0 1Z" class="cls-2"/><path d="m338 431-3 2a1 1 0 0 1-1 0l-6-4a1 1 0 0 1-1-1 1 1 0 0 1 1-1l3-2a1 1 0 0 1 1 0l6 4v1a1 1 0 0 1 0 1Z" class="cls-19"/><path d="M328 427a1 1 0 0 0-1 1 1 1 0 0 0 1 1l6 4v-2l-6-3v-1Z" class="cls-11"/><path d="m334 431-6-3v-1l3-2a1 1 0 0 1 1 0l6 4-3 2a1 1 0 0 1-1 0Z" class="cls-2"/><path d="m334 431-6-3v-1l3-2a1 1 0 0 1 1 0l6 4-3 2a1 1 0 0 1-1 0Z" class="cls-8"/><path d="m373 410-3 2a1 1 0 0 1-1 0l-6-3a1 1 0 0 1 0-1 1 1 0 0 1 0-1l4-2a1 1 0 0 1 1 0l5 3a1 1 0 0 1 1 1 1 1 0 0 1-1 1Z" class="cls-2"/><path d="m373 410-3 2a1 1 0 0 1-1 0l-6-3a1 1 0 0 1 0-1 1 1 0 0 1 0-1l4-2a1 1 0 0 1 1 0l5 3a1 1 0 0 1 1 1 1 1 0 0 1-1 1Z" class="cls-19"/><path d="M363 407a1 1 0 0 0 0 1 1 1 0 0 0 0 1l6 3v-1l-6-4Z" class="cls-11"/><path d="m369 411-6-4 4-2a1 1 0 0 1 1 0l5 3v1l-3 2a1 1 0 0 1-1 0Z" class="cls-2"/><path d="m369 411-6-4 4-2a1 1 0 0 1 1 0l5 3v1l-3 2a1 1 0 0 1-1 0Z" class="cls-8"/><path d="m340 420-2-1a1 1 0 0 0-1 0l-3 2a1 1 0 0 0-1 1 1 1 0 0 0 1 0l2 2a1 1 0 0 0 1 0l3-2a1 1 0 0 0 1-1 1 1 0 0 0-1-1Z" class="cls-20"/><path d="m337 419-3 2 2 2a1 1 0 0 0 1 0l3-2v-1l-2-1a1 1 0 0 0-1 0Z" class="cls-4"/><path d="m359 409-2-1a1 1 0 0 0-1 0l-3 2a1 1 0 0 0-1 1 1 1 0 0 0 1 0l2 2a1 1 0 0 0 1 0l3-2a1 1 0 0 0 1-1 1 1 0 0 0-1-1Z" class="cls-20"/><path d="m356 408-3 2 2 2a1 1 0 0 0 1 0l3-2v-1l-2-1a1 1 0 0 0-1 0Z" class="cls-4"/><path d="m357 409-2 2v-2 2l-1-1v-1l-1-1a3 3 0 0 0-3 0l-14 8a1 1 0 0 0 0 1l2 1v2l-2 2-1-1v-1l-2-1a1 1 0 0 1-1-2v-1l3-3 12-7c2-1 6-2 7-1l3 2Z" class="cls-2"/><path fill="#010101" d="m357 409-2 2v-2 2l-1-1v-1l-1-1a3 3 0 0 0-3 0l-14 8a1 1 0 0 0 0 1l2 1v2l-2 2-1-1v-1l-2-1a1 1 0 0 1-1-2v-1l3-3 12-7c2-1 6-2 7-1l3 2Z" opacity=".4" style="isolation:isolate"/><path d="M333 417c-2-1-1-2 2-4l12-7c2-1 6-2 7-1l3 2v2l-2 2v-3l-2-1a3 3 0 0 0-3 0l-14 8a1 1 0 0 0-1 1 1 1 0 0 0 1 1l2 1v2l-2 2v-3Z" class="cls-2"/><path d="M333 417c-2-1-1-2 2-4l12-7c2-1 6-2 7-1l3 2v2l-2 2v-3l-2-1a3 3 0 0 0-3 0l-14 8a1 1 0 0 0-1 1 1 1 0 0 0 1 1l2 1v2l-2 2v-3Z" class="cls-8"/><path d="m357 409-2 2v-3l2-1v2z" class="cls-2"/><path d="m357 409-2 2v-3l2-1v2z" class="cls-19"/><path d="m338 420-2 2v-3l2-1v2z" class="cls-2"/><path d="m338 420-2 2v-3l2-1v2z" class="cls-19"/></g><g id="freepik--luggage--inject-79-2" data-name="freepik--luggage--inject-79"><path d="M426 364v-62l2-1v61l-2 2z" class="cls-22"/><path d="M424 301v64l2-1v-62l-2-1z" class="cls-20"/><path d="m396 381-2-1 30-18 2 2-30 17z" class="cls-4"/><path d="M394 382v-61l2-1v61l-2 1z" class="cls-22"/><path d="M392 320v63l2-1v-61l-2-1z" class="cls-4"/><path d="M426 298a2 2 0 0 0-2 1l-30 17a5 5 0 0 0-2 4v2l2 1 34-20v-2a1 1 0 0 0 0-1l-2-2Z" class="cls-2"/><path fill="#fff" d="M426 298a2 2 0 0 0-2 1l-30 17a5 5 0 0 0-2 4v2l2 1 34-20v-2a1 1 0 0 0 0-1l-2-2Z" opacity=".6" style="isolation:isolate"/><path d="M394 321a5 5 0 0 1 2-4l30-17c1-1 2 0 2 1v2l-34 20Z" class="cls-2"/><path d="M394 321a5 5 0 0 1 2-4l30-17c1-1 2 0 2 1v2l-34 20Z" class="cls-24"/><path d="M395 319a4 4 0 0 0-1 2v2l-2-1v-2a4 4 0 0 1 1-3Z" class="cls-11"/><path d="M458 381v81a3 3 0 0 1-1 2l-45 27a3 3 0 0 0 1-3v-81a12 12 0 0 0-5-9l-19-11a3 3 0 0 0-3 0l45-26a3 3 0 0 1 3 0l19 11a12 12 0 0 1 5 9Z" class="cls-2"/><path d="M458 381v81a3 3 0 0 1-1 2l-45 27a3 3 0 0 0 1-3v-81a12 12 0 0 0-5-9l-19-11a3 3 0 0 0-3 0l45-26a3 3 0 0 1 3 0l19 11a12 12 0 0 1 5 9Z" class="cls-24"/><path d="m389 479 20 11c2 2 4 1 4-2v-81a12 12 0 0 0-5-9l-19-11c-2-1-4 0-4 2v83a8 8 0 0 0 4 7Z" class="cls-2"/><path d="m389 479 20 11c2 2 4 1 4-2v-81a12 12 0 0 0-5-9l-19-11c-2-1-4 0-4 2v83a8 8 0 0 0 4 7Z" class="cls-6"/><path d="M397 478a15 15 0 0 0-6-11c-2-1-4-2-5-1l-5 3 10 16 4-2c2-1 2-3 2-5Z" class="cls-4"/><path d="M386 469a15 15 0 0 1 7 12c0 4-3 6-7 4a15 15 0 0 1-7-12c0-4 3-6 7-4Z" class="cls-22"/><path d="M386 474a6 6 0 0 1 3 5c0 1-1 2-3 1a6 6 0 0 1-2-4c0-2 1-3 2-2Z" class="cls-20"/><path d="m406 488 4 3a2 2 0 0 0 2 0l6-4v-4a1 1 0 0 0-1-1 1 1 0 0 0-1 0l-3 2-6-3a1 1 0 0 0-1 0 1 1 0 0 0 0 1Z" class="cls-4"/><path d="M413 488v-4l-6-3a1 1 0 0 0-1 0 1 1 0 0 0 0 1v6l3 2a3 3 0 0 0 2 1 3 3 0 0 0 1 0 3 3 0 0 0 1-3Z" class="cls-20"/><path d="M457 464a3 3 0 0 0 1-2v-4l-3 2a2 2 0 0 0-1 2v4Z" class="cls-4"/><path d="m456 375-45 26a10 10 0 0 0-3-3l-19-11a3 3 0 0 0-3 0l46-26a3 3 0 0 1 2 0l19 11a10 10 0 0 1 3 3Z" class="cls-25"/><path d="M437 371a5 5 0 0 0-4 0l-2 1 4 3 2-1a2 2 0 0 0 1-2 2 2 0 0 0-1-1Z" class="cls-20"/><path d="m431 372 2-1a5 5 0 0 1 4 0 1 1 0 0 1 1 1 1 1 0 0 1-1 1l-2 1Z" class="cls-22"/><path d="M435 371v3l-4-2v-4l4 3z" class="cls-4"/><path d="m413 384 22-13-4-3-22 13 4 3z" class="cls-22"/><path d="M409 384v-3l4 3v3l-4-3z" class="cls-4"/><path d="m413 387-4-3-2 2a1 1 0 0 0-1 1v1a2 2 0 0 0 1 1 5 5 0 0 0 4 0l2-1Z" class="cls-20"/><path d="m409 384-2 2a1 1 0 0 0-1 1 1 1 0 0 0 1 1 5 5 0 0 0 4 0l2-1Z" class="cls-22"/><path d="M414 383v4l-1 1v-4l1-1zm21-12v4h-1v-4h1z" class="cls-20"/><path d="m413 384 22-12v-1l-22 13z" class="cls-20"/><path d="M434 375v-3l-2 2 2 1z" class="cls-4"/></g></g><g id="freepik--Airplane--inject-79"><g id="freepik--Trail--inject-79"><path fill="#e7e6e6" d="M42 302a70 70 0 0 1-33-41c0-44 31-90 67-114a199 199 0 0 0-36 93 201 201 0 0 0 2 62Z"/><path d="M206 302c-39 43-93 73-144 63-37-14-51-60-53-104 0 0 9 38 55 50 56 15 116-15 116-15l23 4Z" class="cls-27"/><path d="M42 302a199 199 0 0 0 23 64l-3-1c-37-14-51-60-53-104 0 0 6 25 33 41Z" class="cls-9"/><path d="M18 289s17 33 69 38 91-23 91-23-37 24-90 20c-54-4-70-35-70-35Z" class="cls-28"/><path d="M157 321c-32 18-92 27-127 7 0 0 19 16 57 14 46-2 70-21 70-21Z" class="cls-28"/><path d="M189 311c-14 14-41 32-68 39s-56 9-71 0c0 0 26 11 71-2 42-12 68-37 68-37Z" class="cls-29"/></g><g id="freepik--Plane--inject-79"><g id="freepik--little-wing--inject-79"><path id="freepik--lttle-wing--inject-79" d="M234 304c2 1 3 3 1 4l-3 2-35-11 17-13Z" class="cls-30"/><path d="m222 302 9-1-18-15-16 13 35 11s-15-7-10-8Z" class="cls-7"/><path d="m232 310 3-2c2-1 1-3-1-4l-21-18 19 17c1 1 5 4 0 7Z" class="cls-28"/></g><g id="freepik--Wing--inject-79"><g id="freepik--wing--inject-79-2" data-name="freepik--wing--inject-79"><path id="freepik--wing--inject-79-3" d="m367 284-53-42c-2-1-8 1-15 5l-10 6c-7 3-11 7-9 8l81 32 5-4c2-1 3-3 1-5Z" class="cls-30" data-name="freepik--wing--inject-79"/><path d="m308 262 18-11-12-9c-2-1-8 1-15 5l-10 6c-7 3-11 7-9 8l81 32-53-27c-2-1-2-3 0-4Z" class="cls-7"/><path d="m365 290 1-1c2-1 3-3 1-5l-53-42 49 41c2 2 6 5 2 7Z" class="cls-28"/></g><path d="M318 264a101 101 0 0 0-13 6s0 1 1 2a5 5 0 0 0 2 0 75 75 0 0 0 11-7 1 1 0 0 0 0-1 1 1 0 0 0-1 0Z" class="cls-2"/><path d="M318 264a101 101 0 0 0-13 6s0 1 1 2a5 5 0 0 0 2 0 75 75 0 0 0 11-7 1 1 0 0 0 0-1 1 1 0 0 0-1 0Z" class="cls-2"/><path d="M318 264a101 101 0 0 0-13 6s0 1 1 2a5 5 0 0 0 2 0 75 75 0 0 0 11-7 1 1 0 0 0 0-1 1 1 0 0 0-1 0Z" class="cls-2"/><path d="M318 264a101 101 0 0 0-13 6s0 1 1 2a5 5 0 0 0 2 0 75 75 0 0 0 11-7 1 1 0 0 0 0-1 1 1 0 0 0-1 0Z" class="cls-2"/><path d="M318 264a101 101 0 0 0-13 6s0 1 1 2a5 5 0 0 0 2 0 75 75 0 0 0 11-7 1 1 0 0 0 0-1 1 1 0 0 0-1 0Z" class="cls-2"/><path d="M318 264a101 101 0 0 0-13 6s0 1 1 2a5 5 0 0 0 2 0 75 75 0 0 0 11-7 1 1 0 0 0 0-1 1 1 0 0 0-1 0Z" class="cls-6"/><path d="m307 270 12-6a1 1 0 0 0-1 0 101 101 0 0 0-13 6s0 1 1 2a5 5 0 0 0 2 0l-1-2Z" class="cls-6"/><path d="M334 273a78 78 0 0 0-11 5s0 0 1 1a4 4 0 0 0 2 0 59 59 0 0 0 8-5v-1Z" class="cls-2"/><path d="M334 273a78 78 0 0 0-11 5s0 0 1 1a4 4 0 0 0 2 0 59 59 0 0 0 8-5v-1Z" class="cls-6"/><path d="M325 278a31 31 0 0 1 5-3l4-2a78 78 0 0 0-11 5s0 0 1 1a4 4 0 0 0 2 0s-1-1-1-1Z" class="cls-6"/><path d="M350 282v-1h-1a57 57 0 0 0-7 4s0 0 0 1a3 3 0 0 0 2 0 43 43 0 0 0 6-4Z" class="cls-2"/><path d="M350 282v-1h-1a57 57 0 0 0-7 4s0 0 0 1a3 3 0 0 0 2 0 43 43 0 0 0 6-4Z" class="cls-6"/><path d="M343 285a27 27 0 0 1 5-3h2l-1-1a57 57 0 0 0-7 4s0 0 0 1a3 3 0 0 0 2 0l-1-1Z" class="cls-6"/></g><g id="freepik--Tail--inject-79"><path id="freepik--tail--inject-79-2" d="m223 276-29-35c-2-2-5-2-6-1l-3 1 11 50Z" class="cls-29" data-name="freepik--tail--inject-79"/><path d="m223 276-6-7c-3 2-12 7-18 5s-13-26-13-26l10 43Z" class="cls-7"/><path d="m199 290 24-14c-9 2-16 0-21-5-7-6-17-30-17-30l11 50Z" class="cls-2"/><path d="M223 276c-7 2-12 1-17-2a12 12 0 0 1-7 0c-6-2-12-23-13-26l10 43 3-1Z" class="cls-11"/><path d="M193 243c-2-2-4-3-6-2h-2l3-1c1-1 4 0 6 2l29 34Z" class="cls-14"/></g><g id="freepik--Turbine--inject-79"><path d="M318 262a6 6 0 1 1-7-6 6 6 0 0 1 7 6Z" class="cls-7"/><path d="M318 262a6 6 0 1 1-7-6 6 6 0 0 1 7 6Z" class="cls-11"/><path d="M318 262a6 6 0 0 0-10-5 11 11 0 0 0 2 10c1 0-2 0-4-3a6 6 0 0 0 12-2Z" class="cls-11"/><path d="M326 244c-6 0-17 10-17 11a5 5 0 0 0-1 3 13 13 0 0 0 6 9 5 5 0 0 0 3 1c1 0 15-4 18-9Z" class="cls-7"/><path d="m335 259-9-15-3 2c-1 2-2 6 0 9s1 4-5 6-8 1-10-1a13 13 0 0 0 6 7 5 5 0 0 0 3 1c1 0 15-4 18-9Z" class="cls-11"/><path d="M326 244c-6 0-17 10-17 11a4 4 0 0 0-1 2l4-5a95 95 0 0 1 9-6c2-1 0 2 2 5l3-7Z" class="cls-28"/><path d="M335 256c0 4-3 6-6 4a14 14 0 0 1-7-12c0-4 3-5 7-3a14 14 0 0 1 6 11Z" class="cls-22"/><path d="m328 252 4-3-4 3Zm0 0 2-4-2 4Zm0-1 1-4-2 5Zm-1 0v-4 5Zm6-1-5 3h1Zm-6 6 3 4-3-5Zm6-4-5 1h1Zm-5 3 3 3-3-3Zm-2-4-1-4 1 5Zm3 3h4-5Zm-1 1 4 2-4-3Zm1-1 4 1-5-1Zm-4 0Zm1 1v1-1Zm-1 0v-1Zm0 0 1-1Zm2 1 1 2-1-3Zm-1 0v1-2Zm-1-4-2-1 2 2Zm-1 2h1Zm2-3-3-4 3 5Zm-1 1-2-3 3 3Zm0 1-1-1 1 1Zm0 0h-1 1Z" class="cls-27"/><path d="m328 255 5 5-5-6 6 4-6-4 7 2h-1l-6-2h6v-1h-6l6-1-6 1 5-3-5 3 4-4-4 4 3-6-4 5 2-6-2 6v-7 7l-3-7 2 7-3-5 3 5-3-3v1l2 2c1 0 1 0 0 0l-2-1a1 1 0 0 0 1 1l1 1-1-1v1h1-1 1l-1 1h1v1l1-1-1 1 1-1v2-1c0-1 0-1 0 0v2h1v-2l1 3-1-3 3 4v1-1l-3-5 1 1Z" class="cls-4"/><path d="M331 251a1 1 0 0 0-1 0h-5a1 1 0 0 0 0 1 4 4 0 0 0 2 4 1 1 0 0 0 1 0l3-4a1 1 0 0 0 0-1Z" class="cls-30"/><path d="M328 254c-1 1-2 0-3-1a1 1 0 0 1 1-2 3 3 0 0 0-1 0 1 1 0 0 0 0 1 4 4 0 0 0 2 4 1 1 0 0 0 1 0l3-4a1 1 0 0 0 0-1l-3 3Z" class="cls-11"/><path d="M331 252a1 1 0 0 0 0-1 1 1 0 0 0-1 0h-5a1 1 0 0 0 0 1l2-1a11 11 0 0 1 3 0l1 1Z" class="cls-28"/></g><g id="freepik--Body--inject-79"><path id="freepik--body--inject-79-2" d="M371 196s-3-5-10-4-14 3-25 10l-72 41-53 33-26 22a6 6 0 0 0-3 5l2 2 35-5c23-4 32-9 45-17l99-57c9-5 17-15 19-22s-5-8-11-8Z" class="cls-29" data-name="freepik--body--inject-79"/><path d="M350 200c-4 5-6 11-14 15l-112 61c-16 8-20 9-18 4l-21 18a6 6 0 0 0-3 5l2 2 35-5c23-4 32-9 45-17l99-57c9-5 17-15 19-22s-5-8-11-8c-4-1-16-1-21 4Z" class="cls-2"/><path d="M350 200c-4 5-6 11-14 15l-112 61c-16 8-20 9-18 4l-21 18a6 6 0 0 0-3 5l2 2 35-5c23-4 32-9 45-17l99-57c9-5 17-15 19-22s-5-8-11-8c-4-1-16-1-21 4Z" class="cls-25"/><path fill="#fbfbfb" d="M378 198c3 2 4 5 3 8a10 10 0 0 0 1-2c1-7-5-8-11-8-4-1-16-1-21 4 12-4 24-3 28-2Z" opacity=".5" style="isolation:isolate"/><path d="m359 212-73 40 4-10-33 18-4 11-19 10a280 280 0 0 1-31 14l3-10-16 11-2 4-3 1-1-2a6 6 0 0 0-2 4l2 2 35-5c23-4 32-9 45-17l99-57a51 51 0 0 0 13-11c4-8 5-14-17-3Z" class="cls-11"/></g><path id="freepik--Windows--inject-79" d="M275 241a8 8 0 0 1 1-2l-1-1v1a1 1 0 0 0-1 1 9 9 0 0 0 0 2h1a1 1 0 0 0 0-1Zm4-2a10 10 0 0 1 0-2s0-1 0 0h-1a1 1 0 0 0-1 1 8 8 0 0 0 0 2h1a1 1 0 0 0 1-1Zm3-2a9 9 0 0 1 0-2h-1a1 1 0 0 0-1 1 8 8 0 0 0 0 2h1a1 1 0 0 0 1-1Zm3-2a8 8 0 0 1 0-2h-1a1 1 0 0 0 0 1 8 8 0 0 0-1 2l1 1 1-1a1 1 0 0 0 0-1Zm3-2a9 9 0 0 1 0-2c1 0 0 0 0 0l-1 1a8 8 0 0 0 0 2v1l1-1a1 1 0 0 0 0-1Zm3-1a9 9 0 0 1 1-3h-1l-1 1a8 8 0 0 0 0 3l1-1Zm4-2a9 9 0 0 1 0-2v-1l-1 1a1 1 0 0 0-1 1 9 9 0 0 0 0 2l1-1a1 1 0 0 0 1 0Zm3-2a9 9 0 0 1 0-2s0-1 0 0h-1a1 1 0 0 0-1 1 8 8 0 0 0 0 2h1a1 1 0 0 0 1-1Zm3-2a9 9 0 0 1 0-2h-1a1 1 0 0 0 0 1 8 8 0 0 0-1 2h2a1 1 0 0 0 0-1Zm3-2a9 9 0 0 1 0-2h-1a1 1 0 0 0 0 1 8 8 0 0 0-1 2h2a1 1 0 0 0 0-1Zm3-2a8 8 0 0 1 1-2h-1l-1 1a8 8 0 0 0 0 2v1l1-1a1 1 0 0 0 0-1Zm4-1a8 8 0 0 1 0-3l-1 1a1 1 0 0 0-1 0 8 8 0 0 0 0 3l1-1a1 1 0 0 0 1 0Zm3-2a9 9 0 0 1 0-2v-1l-1 1a1 1 0 0 0-1 1 9 9 0 0 0 0 2l1-1a1 1 0 0 0 1 0Zm3-2a9 9 0 0 1 0-2c0-1 0-1 0 0h-1a1 1 0 0 0-1 1 9 9 0 0 0 0 2h2a1 1 0 0 0 0-1Zm3-2a9 9 0 0 1 0-2h-1a1 1 0 0 0 0 1 8 8 0 0 0-1 2h2a1 1 0 0 0 0-1Zm3-2a8 8 0 0 1 1-2h-2a1 1 0 0 0 0 1 8 8 0 0 0 0 2s0 1 0 0h1a1 1 0 0 0 0-1Zm3-2a9 9 0 0 1 1-2h-1v1a1 1 0 0 0-1 0 8 8 0 0 0 0 2v1l1-1a1 1 0 0 0 0-1Zm-102 60a8 8 0 0 1 1-2h-1a1 1 0 0 0-1 1 8 8 0 0 0 0 2c0 1 0 1 0 0h1a1 1 0 0 0 0-1Zm4-2a9 9 0 0 1 0-2l-1 1a1 1 0 0 0-1 0 8 8 0 0 0 0 2v1l1-1a1 1 0 0 0 1-1Zm3-2a9 9 0 0 1 0-2l-1 1a1 1 0 0 0-1 0 8 8 0 0 0 0 2v1l1-1a1 1 0 0 0 1-1Zm3-2a8 8 0 0 1 0-2l-1 1a1 1 0 0 0-1 0 8 8 0 0 0 0 2l1 1 1-1a1 1 0 0 0 0-1Zm3-1a9 9 0 0 1 0-3l-1 1a8 8 0 0 0-1 3h1l1-1Zm3-2a9 9 0 0 1 1-3h-1l-1 1a8 8 0 0 0 0 3l1-1Zm3-2a9 9 0 0 1 1-2l-1-1v1a1 1 0 0 0-1 1 8 8 0 0 0 0 2l1-1Zm4-2a8 8 0 0 1 0-2v-1l-1 1a1 1 0 0 0-1 1 8 8 0 0 0 0 2l1-1a1 1 0 0 0 1 0Zm3-2a8 8 0 0 1 0-2v-1l-1 1a1 1 0 0 0-1 1 8 8 0 0 0 0 2h1a1 1 0 0 0 1-1Zm3-2a8 8 0 0 1 0-2s0-1 0 0h-1a1 1 0 0 0 0 1 8 8 0 0 0-1 2h2a1 1 0 0 0 0-1Zm3-2a9 9 0 0 1 0-2c1 0 0 0 0 0h-1a1 1 0 0 0 0 1 8 8 0 0 0 0 2h1a1 1 0 0 0 0-1Zm3-2a8 8 0 0 1 1-2h-1a1 1 0 0 0-1 1 8 8 0 0 0 0 2s0 1 0 0h1a1 1 0 0 0 0-1Zm4-2a8 8 0 0 1 0-2h-1a1 1 0 0 0-1 1 8 8 0 0 0 0 2v1l1-1a1 1 0 0 0 1-1Zm3-2a9 9 0 0 1 0-2l-1 1a1 1 0 0 0-1 0 8 8 0 0 0 0 2v1h1v-1a1 1 0 0 0 1-1Zm3-1a8 8 0 0 1 0-3l-1 1a8 8 0 0 0-1 3h1l1-1Zm3-2a8 8 0 0 1 1-2l-1-1-1 1a1 1 0 0 0 0 1 8 8 0 0 0 0 2l1-1Z" class="cls-22"/><g id="freepik--little-wign--inject-79"><path id="freepik--lttle-wing--inject-79-2" d="m206 285-49-1a18 18 0 0 0-8 2l-3 2 42 10a4 4 0 0 0 4-1Z" class="cls-9" data-name="freepik--lttle-wing--inject-79"/><path d="m192 297 14-11c-3 2-11 7-16 8s-44-6-44-6l43 10a4 4 0 0 0 3-1Z" class="cls-7"/><path d="m206 285-49-1a18 18 0 0 0-8 2l-3 2c3-2 7-3 19-2h40Z" class="cls-28"/></g><g id="freepik--wing--inject-79-4" data-name="freepik--wing--inject-79"><g id="freepik--wing--inject-79-5" data-name="freepik--wing--inject-79"><path id="freepik--wing--inject-79-6" d="M290 241a2 2 0 0 0-1-1l-135-8a10 10 0 0 0-8 3l-3 4 113 22c2 0 8-2 15-6l10-6c6-4 10-7 9-8Z" class="cls-9" data-name="freepik--wing--inject-79"/><path d="m271 255 10-6a51 51 0 0 0 6-4c-5 4-29 9-42 8l-102-14 113 22c2 0 8-2 15-6Z" class="cls-7"/><path d="M290 241a2 2 0 0 0-1-1l-135-8a10 10 0 0 0-8 3l-2 3c2-3 5-5 11-4l90 5 40 3c2 0 4 1 3 2 2-1 3-3 2-3Z" class="cls-28"/></g><path d="M239 248a101 101 0 0 0-13 7s0 1 1 1a5 5 0 0 0 2 1 74 74 0 0 0 11-7 1 1 0 0 0 0-1 1 1 0 0 0-1-1Z" class="cls-2"/><path d="M239 248a101 101 0 0 0-13 7s0 1 1 1a5 5 0 0 0 2 1 74 74 0 0 0 11-7 1 1 0 0 0 0-1 1 1 0 0 0-1-1Z" class="cls-11"/><path d="M227 256a5 5 0 0 0 2 1 74 74 0 0 0 11-7 1 1 0 0 0 0-1l-4 3-8 4a3 3 0 0 1-2-1l1 1Z" class="cls-6"/><path d="M211 245a77 77 0 0 0-10 5s0 1 1 1a4 4 0 0 0 2 1 58 58 0 0 0 8-6v-1h-1Z" class="cls-2"/><path d="M211 245a77 77 0 0 0-10 5s0 1 1 1a4 4 0 0 0 2 1 58 58 0 0 0 8-6v-1h-1Z" class="cls-11"/><path d="M202 251a4 4 0 0 0 2 1 58 58 0 0 0 8-6v-1l-3 2-6 4a4 4 0 0 1-2-1l1 1Z" class="cls-6"/><path d="M184 242h-1a58 58 0 0 0-7 3s0 1 0 1a3 3 0 0 0 2 0 43 43 0 0 0 6-4Z" class="cls-2"/><path d="M184 242h-1a58 58 0 0 0-7 3s0 1 0 1a3 3 0 0 0 2 0 43 43 0 0 0 6-4Z" class="cls-11"/><path d="M176 246a3 3 0 0 0 2 0 43 43 0 0 0 6-4l-2 2c-1 2-4 2-6 1v1Z" class="cls-6"/></g><path id="freepik--Window--inject-79" d="M353 197a5 5 0 0 0-3 3 54 54 0 0 1 21-4 10 10 0 0 0-3-2c-6-1-13 1-15 3Z" class="cls-22"/><g id="freepik--turbine--inject-79-2" data-name="freepik--turbine--inject-79"><circle cx="259.6" cy="250.2" r="6.9" class="cls-7"/><path d="M266 250a7 7 0 0 0-10-5 12 12 0 0 0 3 10l-6-2a7 7 0 0 0 13-3Z" class="cls-11"/><path d="M275 230c-6 0-18 11-18 12a5 5 0 0 0-1 3 14 14 0 0 0 6 11 5 5 0 0 0 4 1c1 0 16-5 19-11Z" class="cls-30"/><path d="m285 246-9-15-4 1v10c1 3 2 4-5 6s-9 2-11-1a14 14 0 0 0 6 9 5 5 0 0 0 4 1c1 0 16-5 19-11Z" class="cls-11"/><path d="M275 230c-6 0-18 11-18 12a5 5 0 0 0-1 2l4-5a100 100 0 0 1 11-7c1-1-1 3 1 6l4-7Z" class="cls-28"/><path d="M286 243c0 5-3 7-7 4a16 16 0 0 1-7-12c0-5 3-7 7-4a16 16 0 0 1 7 12Z" class="cls-22"/><path d="m278 239 4-4-4 4Zm0 0 2-5-3 5Zm-1-1 1-5-1 6Zm0 0v-5 6Zm6-1-5 3h1Zm-6 6 3 4-3-5Zm7-4-6 1h1Zm-6 3 4 4-5-4Zm-2-4-1-5 1 6Zm3 3h5-6Zm-1 1 5 2-5-2Zm1 0 5 1-6-2Zm-5-1h1Zm1 2 1-1Zm0-1h-1l1-1Zm0 0v1-1Zm2 1 1 3-1-4Zm-1 0v1-2Zm-2-4-1-1 2 1Zm0 2h1-1Zm1-3-2-4 3 5Zm0 0-3-2 3 3Zm-1 1h-1l2 1Zm1 1h-1 1Z" class="cls-27"/><path d="m277 242 6 5-5-5c0-1 0-1 0 0l7 4v-1l-7-4 7 2-7-2h7v-1h-7l6-1v-1l-6 2 5-3v-1l-5 3 4-4-5 4 4-6-4 6 2-7v-1 1l-2 7v-9l-1 1v8l-2-8 2 8-3-6h-1a1 1 0 0 0 0 1l3 5c1 0 0 0 0 0l-3-3a1 1 0 0 0 1 1l2 2-2-1a1 1 0 0 0 0 1l2 1-2-1v1h2-1 1l-1 1h1-1c0 1 0 1 0 0h1v1-1 2l1-1c0-1 0 0 0 0l-1 1h1v-1 2h1v-2l1 3a1 1 0 0 0 0 1l-1-4 3 5h1l-4-5Z" class="cls-4"/><path d="M281 238a1 1 0 0 0-1 0h-5a1 1 0 0 0-1 1 5 5 0 0 0 2 4 1 1 0 0 0 2 0c2-1 3-5 3-5Z" class="cls-30"/><path d="M278 241c-2 1-3 0-3-1a2 2 0 0 1 1-3 3 3 0 0 0-1 1 1 1 0 0 0-1 1 5 5 0 0 0 2 4 1 1 0 0 0 2 0c2-1 3-5 3-5l-3 3Z" class="cls-11"/><path d="M281 238a1 1 0 0 0-1 0h-5a1 1 0 0 0-1 1l3-1a12 12 0 0 1 3 0h1Z" class="cls-28"/></g></g></g><circle cx="128.6" cy="59.8" r="14.1" class="cls-2" transform="rotate(-81 129 60)"/><circle cx="474.4" cy="225.8" r="8.1" class="cls-2"/><circle cx="60.5" cy="457.6" r="18.4" class="cls-3" transform="rotate(-45 60 458)"/></svg>