<svg id="Layer_2" data-name="Layer 2" xmlns="http://www.w3.org/2000/svg" viewBox="0 0 556.81 577.83"><defs><style>.cls-1{fill:#ecf2fb;}.cls-2{fill:#fecb39;}.cls-3{fill:#536582;}.cls-4{fill:#37474f;}.cls-10,.cls-12,.cls-13,.cls-14,.cls-23,.cls-24,.cls-25,.cls-27,.cls-5{fill:#fff;}.cls-10,.cls-11,.cls-12,.cls-13,.cls-19,.cls-21,.cls-23,.cls-24,.cls-25,.cls-27,.cls-31,.cls-5,.cls-6,.cls-8{isolation:isolate;}.cls-11,.cls-5{opacity:0.1;}.cls-11,.cls-16,.cls-19,.cls-21,.cls-6,.cls-8{fill:#010101;}.cls-15,.cls-6{opacity:0.15;}.cls-7{fill:#e0e0e0;}.cls-8{opacity:0.2;}.cls-9{fill:#f0f0f0;}.cls-10,.cls-18{opacity:0.45;}.cls-12{opacity:0.55;}.cls-13{opacity:0.65;}.cls-17,.cls-19,.cls-24{opacity:0.3;}.cls-20{fill:#263339;}.cls-21,.cls-25{opacity:0.4;}.cls-22{fill:#465b65;}.cls-23{opacity:0.6;}.cls-26{fill:#e7e6e6;}.cls-27,.cls-31{opacity:0.5;}.cls-28,.cls-31{fill:#fbfbfb;}.cls-29{fill:#f5f5f5;}.cls-30{fill:#ebebeb;}</style></defs><path class="cls-1" d="M407.25,536.12C518.86,494.6,556.19,347.51,510.89,237.06c-50.24-122.49-186.54-161.92-210-168.22C219.44,46.93,77.21,42.12,21.08,128.65c-62.38,96.17,27.6,234.22,89.58,297.6C126.91,442.86,271.34,586.67,407.25,536.12Z"/><g id="freepik--Earth--inject-79"><g id="freepik--World--inject-79"><path class="cls-2" d="M104.48,414c82.23,73.88,208.79,67.07,282.68-15.16s67.13-208.79-15.1-282.69S163.22,49.05,89.34,131.28,22.2,340.05,104.41,413.94Z"/><path class="cls-3" d="M104.48,414c82.23,73.88,208.79,67.07,282.68-15.16s67.13-208.79-15.1-282.69S163.22,49.05,89.34,131.28,22.2,340.05,104.41,413.94Z"/><path class="cls-4" d="M72.09,155.58a5.83,5.83,0,0,0,3.78.19,10.38,10.38,0,0,0,2-1c.78-.45,2.41-2.25,3-2.15s.1,2.25-.43,3.51a18.13,18.13,0,0,1-3.7,5.34c-2.39,2.28-4,2.89-5.86,3-.64,0-3.32,0-4.1,1.22s-.36,1.62.2,1.84a6.59,6.59,0,0,0,2.86-.2,2,2,0,0,1,1.24,0c1.12.5-.21,3.69.75,4.41.58.44,1.63-.05,2.44-.27a15.92,15.92,0,0,0,3.64-1.16,10.76,10.76,0,0,0,2.1-1.51,41.68,41.68,0,0,1,5.38-3.2,3.26,3.26,0,0,0,1.81-3.84c-.34-1.4-1.56-1.07-3-.26-1.85,1.09-3.9,2.68-4.45,3s-.84.32-.73-.14c.22-.9,2.43-2.26,2.83-2.56.85-.65,1.7-1.35,2.54-2,1.4-1.09,3-2.14,3.72-2.64a9.6,9.6,0,0,0,2.84-3c.71-1.61-.26-2.08.42-3.54a11.38,11.38,0,0,1,2.38-2.8A30.54,30.54,0,0,0,96.29,145c1.46-2,.91-3.81,1.78-6a12.12,12.12,0,0,1,2-3.38c1.21-1.46,2.9-3.24,3.79-4.39.54-.69,1.07-1.4,1.59-2.06a13.94,13.94,0,0,0,1.67-2.74c.31-.64.54-1.39.81-2a4.61,4.61,0,0,1,1.08-1.7,9.69,9.69,0,0,0,2.63-4.94c.4-2.41-1.12-1.43-1.6-1.8-.81-.61-1.83-.24-3,.26-2.4,1.06-5.1,3.12-7.9,4.71q-5.1,4.94-9.88,10.28c-2.75,3.07-5.36,6.22-7.9,9.41a5.9,5.9,0,0,0,2.25.19c1.85,0,4.24-2.59,6.33-3.95.93-.6,3.69-2.8,4.12-1.9.68,1.4-2.34,4.08-3,4.62a4.45,4.45,0,0,0-1.34,1.64c-.58,1.36-1.61,3.25-2.71,2.88a4.68,4.68,0,0,0-2-.56,1.28,1.28,0,0,0-1.14,1c-.4,1.21-1.91,3.45-2.55,2.31-.37-.67-.59-1.7-1.23-1.86s-1.19.08-1.67-.12a1.17,1.17,0,0,1-.27-.15c-2.48,3.3-4.86,6.65-7.11,10.07A3.85,3.85,0,0,0,72.09,155.58Z"/><path class="cls-4" d="M281.68,104.16a25.33,25.33,0,0,1,4.72-5.3c.86-.72,1.75-1.41,2.66-2.07.57-.41,1.14-.79,1.71-1.18a10.86,10.86,0,0,0,1.44-.74,1.57,1.57,0,0,0,0-2.22,1.59,1.59,0,0,0-.74-.41,2.52,2.52,0,0,0-.67-.16,2,2,0,0,0-1.48.57,13.09,13.09,0,0,1-3.8,2c-5.64,2-9.78,5.32-10.36,11a28.67,28.67,0,0,0-.27,6.07c.15.72.27,1.47-.46,1.77-.46.2-.63.42-.28,1,.89,1.49,2.77,2.27,4.22,2.72a26.88,26.88,0,0,0,2.91,1c1.36.23,2.83-.09,3.41-1,.44-.67-.65-1.72-1.35-2.52-.26-.31-.55-.58-.82-.85a9.7,9.7,0,0,1-1.71-3.24,7.88,7.88,0,0,1-.32-2.21A8.53,8.53,0,0,1,281.68,104.16Z"/><path class="cls-4" d="M192,103.34c.63.38,1.25,1,1.88,1.4a10,10,0,0,0,2.34,1.14A24,24,0,0,1,199,107a1.85,1.85,0,0,1,.37.31c.4.44.17.37.24.76.13.71.69,1,1.47,1.19a19.65,19.65,0,0,1,2,.7c1.1.39,3,.2,3-.85a8.14,8.14,0,0,0-.33-2.08,15.91,15.91,0,0,1-.73-3.42,4.1,4.1,0,0,0-.06-.49c0-.27.49-.77,1.44-.54.64.15,1.34.41,1.73.5a5,5,0,0,1,.67.16c.39.13.51.65.55.83a.5.5,0,0,0,.22.31,1.61,1.61,0,0,0,.76.26,9.11,9.11,0,0,0,2.65.26,3.13,3.13,0,0,0,1-.29,1,1,0,0,0,.17-1.39,1.08,1.08,0,0,0-.4-.3,28.54,28.54,0,0,1-4.08-1,9.13,9.13,0,0,1-2.51-1.57c-1.42-1.27-.36-1.87.58-2.12a12.38,12.38,0,0,0,2.21-.79A5.05,5.05,0,0,0,212.4,95a2.31,2.31,0,0,0-.56-1.74l-.15-.12a3.35,3.35,0,0,0-3.26-.14c-1.18.42-2.5.8-3.77,1.11a8.84,8.84,0,0,1-1.69.4,4,4,0,0,0-1.34.08,5.55,5.55,0,0,0-1.87,1.46,4.24,4.24,0,0,1-2.32,1.36c-.53.11-1.48,0-1.35.7.18,1,1.59,1.52,2,2.38.35.65-.53.59-1.18.18s-.85-1.23-1.45-1.61-.87-.06-.89.24c0,.53.3,1.23-.79.85-.62-.22-1-.64-1.61-.66-1.09,0-3.12,1.26-1.77,2.81A5.26,5.26,0,0,0,192,103.34Z"/><path class="cls-4" d="M215.55,191.6c-1.36-1.27-3.83-1.49-4.12-3.95-.1-.79.68-1.73.18-2.52-.28-.44-.79-.41-1.18-.53s-2.24-1.08-2.28-1.78c0-.48-4,.17-3.2,1.39,1,1.81-2,3.26-.18,4.13l.22.11c.13.06.06,1.23.52,2.58s2.54,1.37,3,2.52,2.06-.26,3,.62,1.45,3.14.5,3.85.09,2.85-.49,3.58c-.39.46-.78.92-.15,1.57.38.39,1.47-.83,1.79.27.26.92-1.08,1.56-.42,2.41s1.59.19,2.17,0c2.44-.87,5.6-2.48,6.7-5.19.43-1,1.18-3.54-.22-4.08-.55-.21-1.12-.08-1.68-.4a7.11,7.11,0,0,1-1.66-1.67A27,27,0,0,0,215.55,191.6Z"/><path class="cls-4" d="M48.33,319.25c1,.61,3.18,3.1,4.24,2.76,1.84-.57-1.33-3.74-1.91-4.18s-5.36-5.3-5.32-5.37a.72.72,0,0,0,.12-.8c-.12-.22-1.29-.68-2.19-1.3.54,2.39,1.15,4.77,1.79,7.14C46.08,318.21,47.57,318.79,48.33,319.25Z"/><path class="cls-4" d="M346.6,342.71a65.38,65.38,0,0,0-.42-14.53c-.15-.93-.32-1.9-.54-2.84a8.58,8.58,0,0,0-1.59-3.5,7.46,7.46,0,0,1-.8-.67,8.38,8.38,0,0,1-.54-.66,3.23,3.23,0,0,0-.67-.71c-.41-.3-1.57.56-1.52,2a20.36,20.36,0,0,0,.3,2.51c.45,3.53-1.91,5.85-3,8.78-1.41,4.07.21,7.57,1,11.28.53,2.41.2,5.93,1.58,7.9C345,358.4,346.35,346.45,346.6,342.71Z"/><path class="cls-4" d="M436.2,275.25a2.4,2.4,0,0,0-2.09-.81,32.8,32.8,0,0,0-4.89,1.26,6.16,6.16,0,0,1-2.73.25,2.8,2.8,0,0,1-1.34-.62c-.93-.85-1-2.32-1.18-3.75a5.44,5.44,0,0,0-2.13-3.64c-.47-.41-.94-.85-1.4-1.23-.76-.61-1.65-.74-2.4-1.38a4.43,4.43,0,0,1-1.65-2.55,2.73,2.73,0,0,1,.34-1.79,5.08,5.08,0,0,0-.32-3.84c-.4-.67-.86-1.28-1.17-1.76a23.06,23.06,0,0,0-2-2.45c-.34-.39-.77-.58-1.1-1-2-2.35-4.44-6.41-4.89-9.93-.15-1.1,0-2.26.88-2.45a1.64,1.64,0,0,1,.87.12,9,9,0,0,1,2.09,1.48,5.84,5.84,0,0,0,1.3,1c1.81-.63,3.62,6.1,5.37,2.7.54-1,1.47-1.8,2.06-2.86a9.82,9.82,0,0,0,1.31-5.43,8.83,8.83,0,0,0-.62-2.54,13.73,13.73,0,0,0-3.12-4.46,13.13,13.13,0,0,0-2.24-2c-.82-.53-1.33-.74-1.67-1.92-.72-2.51.68-5.93,3.07-5.71a3.6,3.6,0,0,0,3.77-1.77c1.08-1.69,1.87-3.49,3.4-4.69,2-1.54,4.63-3.28,5.85-5.6l.34-.64a198.85,198.85,0,0,0-8.64-23.4c-.35-.81-1-2.14-1.49-3.28a200.9,200.9,0,0,0-82.33-89.4c-.39.15-.79.28-1.19.39a29.69,29.69,0,0,0-5.53,1.77A5.13,5.13,0,0,0,328.34,97a4.73,4.73,0,0,1-1.06,2.53,5.12,5.12,0,0,1-2.82,1.33c-.79.18-2.34.48-1.71,1.71s3,2.37,3.95,3.35c2.21,2.23-1.93,1-3,.67a10.17,10.17,0,0,0-3.58-.61c-.66,0-2.2,0-2.06.76s1.16,1.6,1.69,2.17c.79.83,1,1.13.3,1.53s-1.47.72-2.17,1.11a7.58,7.58,0,0,1-3.79,1.12c-1.81-.09-3.48-1.58-4.77-3.14a5.37,5.37,0,0,0-2.24-2,5,5,0,0,0-2.58-.5c-1.68.26-1.52,1.9-.78,3.47s-.63,2.4.23,3.83,2.54,2.36,3.95,3.21c1.21.72,3.24,1.66,3.09,2.91-.21,1.78-2.76,1.08-4.54.48-2.42-.8-4.81-1.28-7.24-2.1a13.48,13.48,0,0,0-6.21-.51c-1.06.16-1.58.87,0,1.86.73.45,3,1,3,2.15s-2.35,1.4-3.09,1.68a26.46,26.46,0,0,1-6.37,1.85c-1.73.19-3.68-.07-5.12.63a8.45,8.45,0,0,0-1.89,1.24,5.08,5.08,0,0,0-1.33,2.76,1.08,1.08,0,0,1-.43.69,3.14,3.14,0,0,1-.77.46,2.57,2.57,0,0,1-2.81-1.57c-.3-1-.55-2-1.57-2.38a4.19,4.19,0,0,0-3.36.55,1.33,1.33,0,0,0-.38,1.17c.08.8,1.08,2.77,1.28,4.26a3.38,3.38,0,0,1-.4,2.37,8.08,8.08,0,0,1-1.47,1.27,3.89,3.89,0,0,0-1.17,2.41c-.36,1.82-.6,3.45-2.16,4.24s-3,.44-5-.91a40.17,40.17,0,0,1-4.29-3c-2-1.76,1.35-1.51,2.23-1.55,1.31-.06,2.49-.43,3.76-.57a12.65,12.65,0,0,0,3-.69c.77-.3,2.14-.84,1.68-2.11-1-2.84-7.53-4.51-9.43-5.06-.92-.28-1.84-.52-2.75-.73-1.51-.37-4.08-.92-5.73-1.24a7.92,7.92,0,0,0-2.83-.18c-1.4.3-2,2.39-4.21.09-1.33-1.36-2-1.79-3.61-1.77a13.92,13.92,0,0,0-7.79,2.52,7.91,7.91,0,0,0-1.59,1.68c-.75,1.05-1.34,2.89-2,3.49a2.7,2.7,0,0,1-1.47.7c-3.38.55-3.72,3.8-3,7.9.2,1.09.57,2.3.68,3.38a7,7,0,0,1-.1,1.83c-.17,1-.63,3.18-.94,5-.19,1.09-.4,2.22-.6,3.4-.53,3.26-1.26,6.63-2,10.16-.53,2.5-.8,5.25.35,7.7a7.67,7.67,0,0,0,4.44,3.69c2.19.85,3.82,0,5.32-1.11,2.2-1.59,3.63-.65,5.64,2,.88,1.16,1.81,2.6,3.11,3.08a4.58,4.58,0,0,0,3.95-.41c1.2-.84,1.26-2.43.61-4.1a5.08,5.08,0,0,1-.16-4.26c.58-1.33.07-2.71-.81-4-1.42-2.07-3.89-4.51-4.65-5.93a6.53,6.53,0,0,1-.82-2.62,10.86,10.86,0,0,1,0-2.28c.14-1.17,1.16-3.52,1.78-5.63a12.36,12.36,0,0,0,.54-4.19,6.87,6.87,0,0,1,.13-2,2.77,2.77,0,0,1,2.65-1.49,2.56,2.56,0,0,1,1.88,1c1,1.2.92,3.3.76,4.33-.24,1.55-1.35,2.21-1.72,3.66s.36,3.58,1,5.37,1.13,3.95,2.5,5.1c1.7,1.45,3.88.34,5.37-.21.67-.25,1.42-.53,2.2-.75a8.27,8.27,0,0,1,3.46-.27c.61.18,1.56,1.49,1.11,2a3.34,3.34,0,0,1-1,.56c-1.46.63-3.09.9-4.56,1.47-.94.37-2.5.72-2.22,2.26.21,1.19,1.57,1.83,2.39,2.37s1.75,1.13,1.84,2.21a.92.92,0,0,1-.78,1h-.08a4.72,4.72,0,0,1-2.49-.81c-.51-.3-1.25-1-1.68-.56-.68.66.62,3.38.93,4.27a8.67,8.67,0,0,1,.62,4.71c-.89,3-4.21,3.87-6.82,4.53a28.18,28.18,0,0,1-4.94.44,8.38,8.38,0,0,1-3.27-.14c-2.54-.92-2.55-5.18-3.69-7.39-1.34-2.58-3.1,0-3.05,1.75.09,2.77,3,5.18,2.88,7.84-.09,1.84-2.1,2.47-3.25,3.36-1.59,1.24-2,3.42-1.58,5.65.19,1.23-.45,2.11-.88,3.08-.59,1.31-1.36,2.46-2,3.67a3.65,3.65,0,0,1-2.15,2c-.63.19-1.68,0-2,.55-.43.74.24,1.49-.6,2.13s-2.32.61-3.34,1.07c-.69.31-1.59,1.12-.63,1.82s2.4.65,3.35.93c2,.56,3.12,2.33,4,4.37,1.11,2.8,1.08,5.3-1.55,6.34s-5.33,1.22-7.63,3.23c-2,1.73-.62,6.18.13,8.68a5,5,0,0,0,1.62,2.65c.63.6,1.09,1.52,1.84,2a3.9,3.9,0,0,0,3.07,0,3.59,3.59,0,0,1,3.1.21,5.1,5.1,0,0,0,.73.3c.43.07.66-1.09,1.36-1.48a5.25,5.25,0,0,1,1.41-.38,4.72,4.72,0,0,0,1.38-.33c.42-.23.48-.75.76-1,1.15-.86,1.35-2.39,1.36-3.89,0-.73-.07-1.48,0-2.21a17.3,17.3,0,0,1,.5-2.46A13.66,13.66,0,0,1,231,228c.34-1.16,1.27-1.26,2.09-1.83a3.08,3.08,0,0,0,1.26-3.2c-.12-1.09-.53-2.28.33-3,.69-.57,1.8-.25,2.64-.46,1.45-.38,2.29-1.73,3.3-2.75,2-2.05,4.17-1.86,6.42.25a21.3,21.3,0,0,0,3.21,2.63c.89.56,1.86.74,2.75,1.3,1.12.71,2.37,1.12,3.44,1.81,1.28.81,1.61,2.68,1.69,4.12,0,.57-.12,1.55.4,1.91s1-.3,1.2-.74c.7-1.43.09-2.76-.38-4.34-.23-.73-.59-1.58-.06-2,.23-.16.58-.09.91-.08.5,0,0-1.54-1.25-2a4.16,4.16,0,0,0-2.15-.33c-.51.12-2.34-1.3-2.86-1.59a31,31,0,0,1-3.88-2.52,6.51,6.51,0,0,1-2.37-2.82c-.52-1.77,1.29-2.16,2.48-1.67,1,.41,1.35,1.42,2.08,2.18,1.61,1.68,3.77,1.47,5.61,2.06,1.29.41,1.57,1.38,2.41,2.54a18.6,18.6,0,0,1,2,2.61c.35.72.34.84,1,1.26a10.87,10.87,0,0,0,1.88,1,8.63,8.63,0,0,1,1.79.79c.58.46.39.45.48,1.07.19,1.35.53,2.68,1.92,3,1.57.4,1-2.06,1.12-3.14a2.47,2.47,0,0,0-.26-2.18c-.44-.63-1.28-.85-1.75-1.44-1.23-1.49.4-1.79,1-2.57.76-1,1.44-2.51,3.07-1.91.94.35,1,1,1.14,1.87a8.16,8.16,0,0,0,1.45,2.61,11,11,0,0,0,1.5,2.54,7,7,0,0,0,6.27,1.62c.86-.24,1.44-1.16,2.36-1.2a8.31,8.31,0,0,1,1.12.27,4.17,4.17,0,0,0,2-.34c.83-.3,1.56-.82,2.42-1.08,1.39-.41,1.92-.14,2,1.57a60.88,60.88,0,0,0,.86,7.74c.19,1,1.12,3.2.75,4s-2.25,0-3-.18a13,13,0,0,0-6.67.83,28.25,28.25,0,0,1-3.34,1.08c-.9.2-2.37.66-3.32.28-2-.81-7.28-3.25-8.2,0-.62,2.2,1,5.49-2,5.79-1.45.14-2.84-.47-4.25-.79a30.53,30.53,0,0,0-6.39-.65,7.42,7.42,0,0,1-4.3-1.16c-1.85-1.3.16-2.48-.09-4.24a4.89,4.89,0,0,0-2.65-3.71,5.45,5.45,0,0,0-3.65.42c-.6.2-1.2.2-1.81.37a8.25,8.25,0,0,0-1.82,1.1,20.3,20.3,0,0,1-4.4,1.59c-.76.25-1.51.48-2.25.74-.43.16-1.64.36-1.89.79-1.39,2.26-3.22,4.8-5.93,5.39-1.68.37-3.21.26-4.65,1.43a15.94,15.94,0,0,0-3.34,4.31c-.79,1.32-1.49,2.69-2.18,4.07-.81,1.62-.24,3.28.31,5.07a4.75,4.75,0,0,1,0,3.2,10.73,10.73,0,0,1-2.68,4.62c-1.29,1.38-2.72,2.86-3.13,4.88a28.72,28.72,0,0,0-.75,5.68c0,3.75,1.06,8,3.78,10.93.72.78.36,4,.45,5a9.68,9.68,0,0,0,1.88,5.3,8.73,8.73,0,0,0,3,2.47c2.25,1.21,4,3.34,6.12,5a36.18,36.18,0,0,0,6.31,4.15,13.65,13.65,0,0,0,8.89,1.43,8,8,0,0,0,4-1.82,6.1,6.1,0,0,1,2-1.17,13.23,13.23,0,0,0,4.18-2.48c.63-.64,1.22-1.34,1.78-2,1.26-1.39,2.63-2.32,4.58-2.11a7.86,7.86,0,0,1,2.26.68,19.56,19.56,0,0,0,4.43,1.6,6.14,6.14,0,0,0,2.18-.12,5.21,5.21,0,0,1,3.61.52c3.05,1.63,2.69,5.15,2.16,8.27-.5,2.91,1.3,5.19,3.06,6.92.84.83,1.54,1.74,2.37,2.52a10.56,10.56,0,0,1,2.54,2.83c.56,1.1,1.16,2.08,1.73,3.08a26.75,26.75,0,0,1,2.3,6.67c.21,1.15.36,2.31.47,3.48.05.57.1,1.15.14,1.72a18.88,18.88,0,0,1,0,3.19,8.9,8.9,0,0,0-.12,1.46,17.39,17.39,0,0,0,.44,3.52c.39,2,1,5.32,1.45,7.25a15.66,15.66,0,0,0,1,3.41c2.21,4.77,5.21,8.89,8.08,13,1.38,2,2.66,4.08,4,6,.68,1,1.26,2.13,2,3.07a16.6,16.6,0,0,1,1.75,3.5c1.21,2.42,2.49,3.74,4.68,3.74,1.84,0,3.51-1.16,5-2.19a22.51,22.51,0,0,0,7.74-9.35,28.65,28.65,0,0,0,2-8.15,17.45,17.45,0,0,0,.24-3.95c-.12-1.41-.36-2.82-.38-4.24,0-2.16-.17-4.5-.07-6.65.14-3.38-.15-6.16,1.35-9.15q1.09-2,2.38-3.86c1.32-2.06,3.81-5.52,3-8.71-3.9-15.14-11.57-25.56-1.32-40.5,2.45-5,5.21-13,4.77-19.56-.21-3.1-2.68-4.4-4.31-3.12a31.8,31.8,0,0,1-3,2.14c-1,.59-2,1-3,1.56s-2.11.26-3.27.15a3.22,3.22,0,0,1-2.59-1.61c-.72-1-.9-2.21-1.52-3.27a5.62,5.62,0,0,0-2.56-2,21.75,21.75,0,0,1-5.66-4.48c-1.73-1.92-2.64-4.12-3.78-6.44a12,12,0,0,0-3.22-3.78,30.31,30.31,0,0,1-3.46-3.7c-1.07-1.32-4.94-5.82-3.15-7.51,1.37-1.33,3.95,3,4.94,4.1,1.84,2.14,3.71,4,5.6,5.93l3,2.84c1.62,1.58,3.57,3.54,4.35,4.35.47.49,1,1,1.4,1.48a14.54,14.54,0,0,1,2.62,3c2.06,4.53,4.24,6.68,6.81,5.74,2.35-.85,5.13-4.38,6.92-6.24A77,77,0,0,0,339,249.82a16.67,16.67,0,0,0,1.28-3.84,12.65,12.65,0,0,0,.84-4.55,2.69,2.69,0,0,0-2-2.68c-.79-.23-1.5.28-2.21-.06-.86-.41-1.34-1.63-2.09-2.23-1.43-1.17-2.26.2-3.19,1.18s-2.88,3.15-4.27,2.54c-1-.42-.78-1.34-1.4-2s-1-.17-1.64-.19c-1.62,0-2.85-2-3.95-3.25-.85-.92-2.75-3-2.73-4.42,0-2.4,3.17-.12,4.06.46a37.46,37.46,0,0,1,3.33,1.88,5.21,5.21,0,0,0,2.83,1.07,18.84,18.84,0,0,0,3.09.43c.76-.05,1.41-.55,2.23-.5a2.65,2.65,0,0,1,1.33.48,7.57,7.57,0,0,0,5.57,1c2.06-.59,4-1.69,5.93-2.42,1.36-.51,3.18-1.18,4.67-.89a8.89,8.89,0,0,1,5.15,3c1,1.29,2.14,3.2,3.83,3.52s1.63-3.41,2.73-2.84c.59.31.94,1.7,1.17,2.31a19.82,19.82,0,0,0,1,2.24c.86,1.7,1.71,3.42,2.6,5.14a90.7,90.7,0,0,0,5.86,10.34c1.07,1.55,2.66,4,4.36,4,.77.06,1.59-1.2,1.85-2a8.46,8.46,0,0,0,.26-2.6,27.23,27.23,0,0,0-.17-3.38,35.38,35.38,0,0,1-.16-6.26,20.31,20.31,0,0,1,.52-2.78,21.82,21.82,0,0,1,1.75-4.81,16.89,16.89,0,0,0,1.82-3.34c.17-.52.32-1,.47-1.58a29,29,0,0,1,1.06-3,3.12,3.12,0,0,1,.83-1.22,8.21,8.21,0,0,1,1.5-.63c1-.48,1.07-1.42,1.8-2.16s1.78-.25,2.5.22c2.05,1.33,2.86,4.17,3.78,6.51.45,1.14,1,2.64,2.15,2.46s1.65-1.1,2.8-.41,1.82,2.63,2.73,3.83,2.12,1.41,2.7,2.85c.36.94,0,1.19-.15,2a2.64,2.64,0,0,0,.62,2,4.73,4.73,0,0,1,.8,2.58,7.71,7.71,0,0,0,.08,2.58,1.18,1.18,0,0,0,1.08.82A3.38,3.38,0,0,1,410.2,253c.3.56.56,1.14.76,1.55a9,9,0,0,0,1,1.79c.16.18.31.31.44.45a4.38,4.38,0,0,1,.9,2,1.55,1.55,0,0,1-.28,1.42c-.31.25-.81.14-1.33,0-.74-.28-1.87-.73-2.54-.91a2.88,2.88,0,0,0-1.2-.11c-2,.4,1.45,4.53,2.15,5.16s1.2.86,1.77,1.38a6,6,0,0,1,1.28,2,24.7,24.7,0,0,0,3.11,4.15,18.64,18.64,0,0,0,3.36,3.34,9.5,9.5,0,0,0,1.88,1.09c.19.08,2,.44,2,.51,1.27,5.82,5.1.94,7.58,2.14,2,1.16,3.79,0,5.64-.66a9.52,9.52,0,0,0,1.44-.69c0-.53.05-1.06.08-1.59A2.37,2.37,0,0,1,436.2,275.25ZM293.56,209.19a21,21,0,0,1-5.48.06c-2.61-.14-6.11,1.79-8.31,3a8,8,0,0,1-3.47,1.05c-2.57,0-2.66-5.82-2.38-8.66a11.22,11.22,0,0,1,1-4.34c1.3-2.23,5.65-1,5.22-.16s.64,1.26,1,1.9,1.19,1.11,1.68.3-1.16-3.65.65-5.37c.23-.21.47-.41.71-.6,2-1.52,3.43-.6,3.9,2.34a6,6,0,0,0,.63,2c1.51,2.69,4.49,2.22,4.61,2.55s1.31.39,2.47,1.2.26,4.24-2.21,4.78Zm28,1.52c.15,2.29-2.24,3.46-5,3-2.58-.48-4-4.44-4.72-7s-5.41-3.84-6.67-6.61c-2.24-4.94,1-10,4.21-10.66,2.49-.48,1.85,3.57,1.34,6.28-.18,1,.43,1.58,1.54,2.44,2.32,1.8,4.76,2.22,6.09,3s.42,2.39-.77,3.16,3.79,3.58,4,6.47Z"/><path class="cls-4" d="M198.63,395c.35-1.91,2.54-4.29,4.25-5.63,1.35-1,2.35-1.36,2.88-3.52a13.4,13.4,0,0,0-.94-7.5c-.76-1.5-.48-3.28-1-4.37s-2.59-4.15-3.18-7.31c-.91-4.81,2.49-8.89,1.68-14-.5-3.17-4.49-5.27-7-5.69s-6.13-3.71-8.65-3l-.81.24c-2.53.73-7.17-1.57-10-1.84a15.08,15.08,0,0,0-1.9-.06c-2.73.07-6.51-2.19-8.61-4.72-2-2.35-4.16-4.47-6.53-5.05-3.19-.78-6.3,2.5-9.47.17a12.91,12.91,0,0,0-4.45-2.33,13.92,13.92,0,0,1-4.64-2c-2.07-1.55-3,.29-4.93,0-1.15-.18-1.66-.62-2.87-.29-1.54.4-3,1-4.62,1.26-1.29.2-1.91-.32-3.13-.82-2.78-1.14-6.1,1.16-7,3.53-.44,1.16-.29,2.74-.77,3.8-1,2.17-4.52,1.58-6.71,1.07a11.8,11.8,0,0,1-4.69-2.25c-1.65-1.36-2.67-1.54-3.2-3.72-.37-1.57-.61-3.66-2.1-4.73-1.25-.89-2.87-.55-4-.31s-2.2,1-3.31.69a3.75,3.75,0,0,1-2.44-3c0-.88.75-1.61,1-2.39a3,3,0,0,0,.17-1.35c0-.23-.53-1.12-.51-1.21.45-2-.21-2.83-1.27-3-1.9-.27-4.35,2.1-4.18,4.38s-3,4.66-5.44,4.27c-4.94-.74-9.21-8.39-9.33-14.33,0-2.72,1.75-6.91,4-7.9,1.78-.75,4-.52,6.1-.91.9-.09.72-.69.54-1.3-.3-1,1.68-1.49,3.09-2s4.77-.76,6.86,1.08A19.43,19.43,0,0,1,94,302.16c1.63,2.27,5.42,2.82,4,.27-.88-1.61-2.33-3.54-3.35-5.36-1.44-2.53-.33-6.67,1-8.56a34.67,34.67,0,0,0,2.43-3.46c.49-1,1.27-2.41,1-3.71-.29-1.49-1.65-2.58-2-4.23a8.26,8.26,0,0,1,0-3.43,10.2,10.2,0,0,1,2.57-4.94c1.18-1.19,3.71-1.6,4-3.76s-.06-3.37,1.11-5.35a15,15,0,0,1,2.69-3.21c1.65-1.54,1.53,2.16,3.79,1.25,1.48-.6,3.88-2.79,5.75-5s2-4.94,1.14-5.57-1.71,4.29-4.09,4.4a3.17,3.17,0,0,1-.75-.06c-2.33-.46-2.89-4.09-3.26-3.95s-.51-.43,0-.82.21-4.37-1.84-2.87c-.33.25-.69.56-1.06.89-2,1.74-2.65,0-.74-1.75,3-2.81,7.11-4.29,10.8-6.32,2.21-1.23,3.38-.19,2.66,2.78s-1,4.89.83,4.78c2.43-.14,4.94-2,5.22-1,.18.59.37,1.13,1,.34,1-1.18,2.74.48,3.37-1.29a2.64,2.64,0,0,0-.85-2.5c-1-1.07-2.32-3.1-3.72-2.8s-2.6-3.16-2.55-6.26v-1c-.08-3.09-4.2-4.49-6.33-5.6-6.27-3.24-4.4-3.95-8.37-9.75-1.46-2.13-3.46-1.21-4.86,1.34-.75,1.35-1.58,2.4-2.4,2.5-2.12.26-2.24-6.26-3.74-6.54-.83-.15-1.84,0-2.53-1.16-1.14-2.06-3.47-2.26-5.5-1.32s-3.18,5.09-2.57,7.26-.62,6,.45,7.41,3,5.06,1.85,7.79c-.67,1.63-1.81,3.06-2.32,4.68-.89,2.85,1.8,6.29,1.18,7.9a1.66,1.66,0,0,1-2,1.24,6.35,6.35,0,0,1-3.61-3.16c-1.2-3.37-.31-5.76-3.41-5.78A31.07,31.07,0,0,1,67,234.16c-1.75-.78-1.87-2.37-2.68-4.24s-2.64-2-1-5.33c1-2.07,3-3.84,3.27-6.63.34-2.62-2-2.34-.91-4.73s4.63-2.44,6.08-3.55a3.58,3.58,0,0,0,1.62-2.27c.36-2-1-1.69-1.51-2.5-.16-.26.32-.57.83-.8a5.32,5.32,0,0,0,2-1.1,3.4,3.4,0,0,0,.73-1.31,9.39,9.39,0,0,1,.31-1.49,2.59,2.59,0,0,1,1.06-1,7,7,0,0,0,2.5-1.72c1-1.23,2.23-2.33,2.72-4.44a8.24,8.24,0,0,0,.08-3.53c-.3-.58-1.06-.31-1.18-1.3-.43-3.24,3-4.11,4-4.62,1.61-.78,3.5-1.76,3.61,1.54,0,1.45.38,4.94,1.8,2.61.8-1.31,1.09-1.91,1.92-1.11a3,3,0,0,1,1.34,2.63,3.93,3.93,0,0,1-1.24,2.87c-1,1.16-1.45,6-3.32,6.85l-.92.41c-1.87.9-.88,5.52.87,4.14s4.23-.66,5.92.64c2.34,1.82,5.65,3.59,7,3.24,2.06-.53-.18-4.73.75-5.36a5.6,5.6,0,0,1,1.73-.9c.33-.08,0-2.8-.09-3.07a4.06,4.06,0,0,0-1.24-2c-1.09-.9-2.42-.7-3.24-2.37-.92-1.86.7-4.12,1.91-3.68.57.21,1,1,1.48,1.66.74,1.13,2,1.59,2.38,1.23a2.9,2.9,0,0,0,.71-.88c.48-1,.25-1.91.6-2.86.55-1.53,1.8-1.43,2.35-2.89a1.74,1.74,0,0,0-.65-2.35,1.43,1.43,0,0,0-.34-.14c-1.81-.82-3.72-1.09-5.42-1.82a8.48,8.48,0,0,1-1-.39c-.53-.28-1-1.82-1-3a11.09,11.09,0,0,0-.17-2.08,3.11,3.11,0,0,0-1.57-1.84,9.62,9.62,0,0,0-2.2-1.27c-1.26-.51-4,0-5.1-1.36s-2.2-3.18-3.56-2.75c-.16.06-.59.7-.79.84a1.4,1.4,0,0,1-.92.28c-.61,0-1.06-.45-1.61-.6a3.54,3.54,0,0,0-3.57,1.15A16.88,16.88,0,0,1,80,172.2a14.64,14.64,0,0,1-2.84,1.24,14.49,14.49,0,0,0-3.51,3.69A11.42,11.42,0,0,0,72,180.21c-.56,1.77-.73,4.44.35,4.48s2.75-.93,4-1.12,3.8-.92,3.31,2c-.37,2.24-2.73,2.16-2.51,4.68.07.82.52,1.42.24,2.53a10.2,10.2,0,0,1-1.27,2.56,16.41,16.41,0,0,1-1.49,1.92c-.7.73-1.85.75-2-.46-.08-1,.68-2,.71-3a1.14,1.14,0,0,0-1-1.31,2.72,2.72,0,0,0-.9,0,2.61,2.61,0,0,1-1.72-.77,6,6,0,0,1-.68-1c-.33-.6-.83-1.14-1.19-1.8a5.54,5.54,0,0,1,.13-4.25c.26-.42.59-.82,1-1.38a23.06,23.06,0,0,0,1.73-3.7c1-2.76,1-5.17-.79-4.6s-4.1,3.26-4.74,6.42c-.37,1.83-.3,3.59-1,5.51-.63,1.66-1.69,3-2.24,4.66s-.22,2.81-.53,4.36-.65,1.24-1.34,1.91c-1.56,1.51-.75,4.59-2.19,6.39a4.38,4.38,0,0,1-1.71,1.1,6.37,6.37,0,0,1-3.14.76c-.31,0-.72,0-.63-.73.12-1,1-1.44,1.4-2,1.41-1.61,2.33-5.11,1.87-6.7-.31-1.06-1.28-.79-1.91-1.14a4.32,4.32,0,0,1-1.73-4q-3,7.47-5.24,15.08a.93.93,0,0,1,1,.42c.31.47.19,1.13,0,2a14,14,0,0,0-.32,1.69c-.13.92-.78,4.41-1.91,3.95a4.59,4.59,0,0,1-.83-.48,199.7,199.7,0,0,0-1.84,93.84,1.69,1.69,0,0,1,1.71.09c2.09,1.15,3.95,4.94,6.08,6.14,3.49,2,7.59,4.4,10,7.72,1.63,2.18,4,5.43,6.38,6.3,4.73,1.71,10.08,2.67,14.28,1.42s10.3,5.13,13.88,2.08c.43-.36,3.35,2.63,3.76,3a15.39,15.39,0,0,0,5.35,3,31.38,31.38,0,0,0,6.21,1.33c3.84.57,8.59,1.75,8.89,7.31.21,3.36-.56,6.76-.78,10.1-.23,3.53-.12,7,2.3,9.88s5.57,4.5,7.91,7.23,2.62,6.91,5.13,9.87c3.14,3.78,6.57,3.84,11.11,4.66a14.63,14.63,0,0,1,9,4.86,127.38,127.38,0,0,1,14.81,19.61c5.45,8.63,10.35,18,17.57,25.25a41.83,41.83,0,0,0,11.85,8.9c3,1.37,5.49,1,4.66-2.84-.51-2.32-2.73-3.89-4-5.81s-.78-3.89-1.25-6.08c-.4-1.81-2.56-4.23-1.59-5.93s3.06-1.11,3.38-3.2c.39-2.63-2.47-3.23-3.28-5.07s2.44-2.52,3.11-4.43c.42-1.23-.19-2.58,0-3.81.18-1,.64-1.25,1.07-2a10.34,10.34,0,0,0,.82-4.94C201.25,400.16,198.11,397.67,198.63,395Zm-128-132.91c1.6-2.24,4.27-7.1,6.36-6.47a7.38,7.38,0,0,1,2.74,2.31c1.63,1.84,4.94,1.93,6.92,2.44s-.18,2.78-.09,4.6-1.05,2.75-1.19,1.75c-.09-.6-.23-1.06-1-.54-1.08.73-1-.22-.86-1.27.19-1.44-3.19-2-3.45,1a23.62,23.62,0,0,0,0,2.38c.08,3-2.64,3.41-2.69.5v-1.13c.12-3-1.43-6.05-3.63-5.34C71.18,263.11,68.9,264.46,70.61,262.07Z"/><path class="cls-4" d="M61.42,175c.58,1,1.79-.24,2-.76s1.19-3.56.3-4.56c-.44-.49-1-.25-1.61.28-.6,1.1-1.17,2.22-1.75,3.34A7.81,7.81,0,0,0,61.42,175Z"/><path class="cls-4" d="M202.67,205.45c1.16,1.73,2.9,0,4-.62a5.51,5.51,0,0,0,2.07-4.27,5.15,5.15,0,0,0-1.39-3.34c-.81-.84-2.74-2.17-3.59-1.17-.34.4-.07,1-.33,1.33-.39.56-1.45.45-2,.74-1.52.82.21,2.22.72,3.13a3.58,3.58,0,0,1,.43,2.08C202.49,204,202.22,204.8,202.67,205.45Z"/><path class="cls-4" d="M246.56,224.53c.32-2.77-3.69-9.65-3.95-6.7a8.87,8.87,0,0,0,0,1.63C242.76,222.47,246.23,227.3,246.56,224.53Z"/><path class="cls-4" d="M437.3,248.9c.6-2,.2-4.4-1.75-4.19s-2.32,2.4-3.31,4.25a42.07,42.07,0,0,1-4.22,6.2c-1,1.17-3.19.76-3,3.07a10.52,10.52,0,0,0,2.24,5.56c1,1.33,1.58,2.51,2.84,3.25,2.29,1.35,5.3,1.47,7.1-1.42a5,5,0,0,0,.61-1.5c.22-.88.29-2.56.6-3.65-.05-2.73-.19-5.46-.36-8.19A3.14,3.14,0,0,1,437.3,248.9Z"/><path class="cls-4" d="M111.29,311.68a11.69,11.69,0,0,1-5.63-.4c-1.78-.5-3.88-1.1-5.29,0-1.08.86.81,1.79,1.77,2.17a18.17,18.17,0,0,0,2.18.64c1.2.31,3,1.05,3.84,1.28a2.57,2.57,0,0,0,1.62-.08c2-.75,3.82-2.65,6.39-1.64.6.22,1.74,1.11,2.37.85l.11-.06c.6-.45.13-1.64-.34-2.22C116.44,310.07,113.16,311.33,111.29,311.68Z"/><path class="cls-4" d="M256.72,229.35a2.1,2.1,0,0,0-1.9-2.29h-.07c-.76-.13-.66.67-.45,1.55C254.54,229.75,256.51,231.23,256.72,229.35Z"/><path class="cls-4" d="M235.77,227.91c.61-1.11.18-2-2.32-1.18-.41.08-.82.93-1,1.78C232.17,229.72,234.75,229.81,235.77,227.91Z"/><path class="cls-4" d="M182.55,166.77c.62-3-3.73-6.31-5-5.73-.8.34-1.4,1.33-2,1.8a14.74,14.74,0,0,1-2.64,1c-1.45.56-2.36,3.07-3.82,2s-1.26,3.68,1,5.92C175.22,176.81,181.63,171.35,182.55,166.77Z"/><path class="cls-4" d="M75.29,206.37c-.42,2.79-.06,5.19,1.23,5.42s3.79-2.28,5.72-3.41c2.77-1.61,0-2.35-2.52-3.83C78.06,203.57,75.71,203.56,75.29,206.37Z"/><path class="cls-4" d="M156.81,142c1.28-1.6,3.45-4.72,2-7.62-.87-1.72-2.09-2.12-2.59-4.16a8.09,8.09,0,0,1-.22-2.35,23.86,23.86,0,0,1,1-3.89,2.47,2.47,0,0,0-.34-2.11c-.85-1.26-2.2-1-3.1-1.69-4.61-3.43,4.62-15,3-16.73a1.68,1.68,0,0,0-1.18-.38,10.33,10.33,0,0,0-2.6.3,4.48,4.48,0,0,0-1.35.62,4.68,4.68,0,0,0-1.28,1.91c-.57,1.29-1.34,2.75-1.75,2.48-.17-.1-.33-.41-.72-.78-1.13-1-1,0-1.78.74-.41.39-2,1-2.5-.45s.63-3.39.87-4.31a3.66,3.66,0,0,1,1-1.77c.7-.68.08-2.63-1.48-3.43a8.76,8.76,0,0,0-4.6-.78,13.39,13.39,0,0,0-8.24,3.35,19.44,19.44,0,0,0-3.56,3.8c-1.5,2.07-2.4,6.12-4.07,8.46a3.21,3.21,0,0,1-3.3,1.45c-2.12,0-4.83,0-7.36,4.6-1.55,2.87,0,2.68-.41,5s-3,2.59-3.75,3.23a6.83,6.83,0,0,0-1.12,1.16,6.55,6.55,0,0,0-.63,4.19c.14.46.12.88-.87,2.36a37.19,37.19,0,0,1-4.28,5.17A9.26,9.26,0,0,0,99,145.26c-.38,1.91.21,1.7.84,2.1a2.44,2.44,0,0,1,.79.81c.37.6.9,2.33,1.76,2.37s3.08-1.72,4.76-3c2.85-2,5.62-3.66,7.82-1.44a6.58,6.58,0,0,1,1.54,2.78c.6,2,.41,6,.29,8.23a6.06,6.06,0,0,0,.5,3.56c1.22,1.68,3.48,1.05,4.79,3,1,1.51,1,4,.56,6.4-.54,2.64-1.73,3.87-2.54,6.2s.22,4.38.46,6.48A20.07,20.07,0,0,0,123,190a58.76,58.76,0,0,0,4.37,6.92,9,9,0,0,0,2.13,2.26c1.32.91,4.2.41,6.05-.61a6.69,6.69,0,0,0,2.92-3c1.47-3.12,0-6.91,0-10.3a8.47,8.47,0,0,1,2.83-6.69c1.61-1.46,3.95-2.79,4.94-5.14.86-2,1-4.62,2-6.46,1.32-2.45,4.2-3.15,6-4.59,1.25-1,3.67-3.21,3.36-5.37-.17-1.17-.74-1.64-.5-2.87a4.41,4.41,0,0,1,1.16-1.89c.2-.2.61-.43,1-.72s.35-1.9-.26-2.5c-.43-.4-.9-.76-1.13-1C156,145.92,155.29,144,156.81,142Z"/><path class="cls-4" d="M62.49,182c.67-.89,1.48-2,1-2.31-.15-.12-.42-.05-.58-.15s-1.49.21-3.38,2-2,4-3.31,5.09.57,3.68,2.13,4.09c2.35.62,4.3-2.32,5.18-4.85C64.59,182.6,61.54,183.27,62.49,182Z"/><path class="cls-5" d="M262.24,81.71c-131.66-16.56-141.68,73-66.44,116.57s192.45,43.46,202.26,5.38S360.11,94,262.24,81.71Z"/><path class="cls-6" d="M200.24,372.55C89.76,307.61,68.3,151.22,146.19,87.35h0C142.75,89.14,139.35,91,136,93,41,149.51,9.74,272.37,66.26,367.4s179.33,126.27,274.35,69.78a200.16,200.16,0,0,0,92.13-124.42C411.07,355.47,310.67,437.45,200.24,372.55Z"/></g></g><g id="freepik--Shadows--inject-79"><path id="freepik--Shadow--inject-79" class="cls-7" d="M298.89,488.27l27.56,15.91a9.49,9.49,0,0,0,8.56,0l39.86-23,31.83,18.41a9.49,9.49,0,0,0,8.56,0l47.62-27.5c2.36-1.37,2.36-3.58,0-4.94l-27.56-16a9.47,9.47,0,0,0-8.55,0L411,460.27,379.12,441.9a9.35,9.35,0,0,0-8.55,0l-71.7,41.39C296.53,484.69,296.53,486.9,298.89,488.27Z"/><path id="freepik--shadow--inject-79-2" data-name="freepik--shadow--inject-79" class="cls-8" d="M371,204.11s-3.19-4.49-10.1-3.86-13.44,3.38-24.79,9.94l-54.4,31.41a12.34,12.34,0,0,0-3.06-2.56,6.26,6.26,0,0,0-3.33-1h-.22c-4.54.16-11.13,5.27-15.06,8.77l-106.2-7a9.72,9.72,0,0,0-7.49,3.38l-3.22,4.17,32.74,6.22h0a.72.72,0,0,0,.39.73l.11.08h0a2,2,0,0,0,.36.16l.17,0a1.61,1.61,0,0,0,.37.07h.5l.75-.41.22-.14,7.36,1.4.12.51h0l4,17.32,4.47,19.76-37.54-.85a17.54,17.54,0,0,0-7.9,1.75L146,295.81l40,9.41-.35.3-.1.08-.45.35-.14.14-.16.13h0a4.27,4.27,0,0,0-.79.61h0a6.25,6.25,0,0,0-1.32,1.78c0,.05-.05.11-.08.17s-.09.22-.14.34a1.63,1.63,0,0,0-.11.31,1.4,1.4,0,0,0-.09.29,2,2,0,0,1-.1.38.58.58,0,0,0,0,.23,3,3,0,0,0,0,.6c0,1.24.62,2,1.52,1.93h.14c1.17-.06,9.72-.58,23.71-2.76l25,7.9,2-1.11.72-.42a1.68,1.68,0,0,0,.88-1.37,2.91,2.91,0,0,0,0-.59,4.88,4.88,0,0,0-1.72-2.6l-6.49-5.59c16.52-3.88,24.69-8.61,36.55-15.4L293,274.42l12.25,4.76a1.56,1.56,0,0,0,.45.57,2.62,2.62,0,0,0,.34.24,3.83,3.83,0,0,0,.84.35,5.44,5.44,0,0,0,1.6.16h.06l15.1,5.92a1.37,1.37,0,0,0,.33.43l.28.18a3.23,3.23,0,0,0,1.28.39h.67l15.8,6.16h0a.42.42,0,0,0,.09.14,1.35,1.35,0,0,0,.35.28,2.29,2.29,0,0,0,.92.28h.45l16.95,6.6,5.54-3.2c2.23-1.28,2.41-3.64.42-5.26L335,266.68a6.34,6.34,0,0,0,.46-2.5,14.54,14.54,0,0,0-5.81-10.87l33.17-19.15c.6-.35,1.19-.71,1.78-1.09l.52-.34,1.25-.85.54-.39c.41-.3.81-.59,1.21-.9l.49-.4,1.23-1,.42-.36c.43-.36.84-.74,1.26-1.12l.32-.29c.44-.42.87-.82,1.29-1.25l.23-.22c.45-.46.89-.92,1.32-1.4l.12-.12c.46-.52.92-1,1.34-1.56h0c3-3.57,5-7.29,5.58-10.58C382.78,205.07,377,204.05,371,204.11ZM218.43,279.36l-16.73-20a3.4,3.4,0,0,0,1,.33h.94c.43-.23.88-.48,1.34-.76l21.15,4h0a.92.92,0,0,0,.08.59,1.77,1.77,0,0,0,.19.33l.25.25.35.23a4.58,4.58,0,0,0,2.44.51c.55-.29,1.12-.63,1.71-1l9.14,1.74C232.52,270.39,224.56,275.27,218.43,279.36Zm-17.72-21.14h.3a.71.71,0,0,0,0,.29Z"/></g><g id="freepik--Clouds--inject-79"><path id="freepik--Cloud--inject-79" class="cls-9" d="M430.51,141.4l-.58.17c0-6.72-9.19-15.73-15.62-10.35-5.18-11.44-20.54-13.21-24.61,1.35-12.92-4.55-18.42,2.06-19.4,14.81-4.88-3.2-17.71-2.28-18.08,9-3.91-3.95-17-6.08-20.65,3.2a4.86,4.86,0,0,0-4.94-.9,50.9,50.9,0,0,0-5.47,2.09,20.12,20.12,0,0,1-6.21,1.47c-1,.09-3.22,0-3.89,1-1.7,2.36,5.27,2.8,6.53,2.75,3-.13,5.68-1.14,8.6-1.24a23.64,23.64,0,0,1,7.46,1.21c2.36.66,4.64,2.34,6.92,3.27,4.88,2,9.76,2.9,15,1.55,3.9-1,7.91-4.53,7.91-4.53s8.15,4.89,11.34,5.65c12.28,3,20.57-3,23.1-8.89,7.34,8.72,24.87,9.75,28.19-3,4.35,4.43,14.73,7.47,19.76.18,2.51-3.64,1.16-10.15-4.36-10.26C442.52,142.74,436.6,139.85,430.51,141.4Z"/><path id="freepik--cloud--inject-79-2" data-name="freepik--cloud--inject-79" class="cls-9" d="M76,403.45a19.37,19.37,0,0,1,4.77-10.34,13.12,13.12,0,0,1,10.18-4.32c6.55.09,15.11,4.89,16.86,11.54,1.6-3.32,10.46-1,13.06.88,3.74,2.61,5.93,7.69,8.54,11.38a13.49,13.49,0,0,1,5.49-3.23,10.45,10.45,0,0,1,8.82.62,15,15,0,0,1,5.75,6.15,9.74,9.74,0,0,1,4.94-1.08,10.65,10.65,0,0,1,6.81,3.23c.42.4,1.8,2.13,1.8,2.13s2.15-.58,2.85-.73a11.23,11.23,0,0,1,7.21,1,29.16,29.16,0,0,0,8.39,2c1.27.15,4.83-.16,5.51,1.27,1.34,2.83-4.07,3.06-5.46,3.13-2.91.14-5.09-.89-7.82-1.39-1.09,3.47-5.48,3.31-8.33,2.49l-4.85-1.43s-1.72,1.09-2.85,1.88a19.12,19.12,0,0,1-9.57,3,17.36,17.36,0,0,1-4.88-.33,27.89,27.89,0,0,1-6.47-2.19c-.75-.39-2-.87-2-.87a44.08,44.08,0,0,1-3.39,3,34.43,34.43,0,0,1-4.56,2.74c-8.13,4.12-21.8,3-25.41-6.92A14.59,14.59,0,0,1,86.86,434c-3.85-.48-7.46-3.73-7.32-7.78-2.61,3.6-11.47,5.16-15.29,3-2.48-1.38-4.77-6.81-1.55-8.51-4.66,1.28-14.58.11-13.6-6.31.79-5.17,6.22-5.93,9.78-4.94C58.58,400.06,70,397,76,403.45Z"/></g><g id="freepik--Locators--inject-79"><path id="freepik--Pin--inject-79" class="cls-2" d="M315.61,318.35a4.16,4.16,0,0,0-5.15,2.81c-1.11,3.78,1.83,8.52,1.83,8.52s5-2.4,6.13-6.18A4.16,4.16,0,0,0,315.61,318.35ZM314,324a2,2,0,0,1,1.17-3.77A2,2,0,0,1,314,324Z"/><path id="freepik--pin--inject-79-2" data-name="freepik--pin--inject-79" class="cls-2" d="M286.47,150.58a4.14,4.14,0,0,0-4.55,3.68c-.41,4,3.32,8.05,3.32,8.05s4.51-3.26,4.94-7.17A4.15,4.15,0,0,0,286.47,150.58Zm-.62,5.86a1.92,1.92,0,1,1,.07,0h-.07Z"/><path id="freepik--pin--inject-79-3" data-name="freepik--pin--inject-79" class="cls-2" d="M233,202.06a4.14,4.14,0,0,0-3.07,5v0c.91,3.82,5.81,6.48,5.81,6.48s3.17-4.58,2.26-8.42A4.15,4.15,0,0,0,233,202.06Zm1.38,5.74a2,2,0,0,1-.87-3.86,2,2,0,0,1,.93,3.85Z"/><path id="freepik--pin--inject-79-4" data-name="freepik--pin--inject-79" class="cls-2" d="M412.55,189.62a4.15,4.15,0,0,0-5.36,2.36v0c-1.42,3.67,1.11,8.64,1.11,8.64s5.21-2,6.62-5.65a4.14,4.14,0,0,0-2.35-5.36Zm-2.12,5.51a2.08,2.08,0,1,1,.06,0l-.06,0Z"/><path id="freepik--pin--inject-79-5" data-name="freepik--pin--inject-79" class="cls-2" d="M177,353a4.17,4.17,0,0,0-1.7,5.62c1.86,3.47,7.27,4.78,7.27,4.78s1.9-5.23,0-8.7A4.15,4.15,0,0,0,177,353Zm2.79,5.21a2,2,0,1,1,.07,0l-.07,0Z"/><path id="freepik--pin--inject-79-6" data-name="freepik--pin--inject-79" class="cls-2" d="M95,242.86a4.14,4.14,0,0,0-2.64,5.23c1.23,3.74,6.33,5.93,6.33,5.93s2.78-4.83,1.55-8.56A4.14,4.14,0,0,0,95,242.86Zm1.85,5.6a2,2,0,1,1,.06,0Z"/><path id="freepik--pin--inject-79-7" data-name="freepik--pin--inject-79" class="cls-2" d="M132.29,144.43a4.15,4.15,0,0,0-2.91,5.09c1,3.8,6,6.3,6,6.3s3-4.68,2-8.48a4.14,4.14,0,0,0-5.08-2.91Zm1.55,5.69a2,2,0,1,1,.07,0Z"/><path id="freepik--pin--inject-79-8" data-name="freepik--pin--inject-79" class="cls-2" d="M58.3,292.38a4.15,4.15,0,0,0-.92,5.79h0c2.31,3.18,7.9,3.74,7.9,3.74s1.16-5.44-1.15-8.62a4.13,4.13,0,0,0-5.77-1Zm3.47,4.77a1.91,1.91,0,1,1,.06,0Z"/></g><g id="freepik--Luggage--inject-79"><g id="freepik--Suitcase--inject-79"><path class="cls-2" d="M369.83,394.32l-62.72,36.21a4,4,0,0,0-1.77,3.06V485a3.91,3.91,0,0,0,1.77,3.05l20.24,11.7a3.92,3.92,0,0,0,3.53,0l62.66-36.22a3.86,3.86,0,0,0,1.76-3.05V409.07a3.87,3.87,0,0,0-1.76-3.05l-20.22-11.68A3.93,3.93,0,0,0,369.83,394.32Z"/><path class="cls-10" d="M329.58,445.56l-23.7-13.71a3.48,3.48,0,0,0-.53,1.74V485a3.91,3.91,0,0,0,1.77,3.05l20.23,11.7a4,4,0,0,0,3.17.16c-.81.28-1.41-.19-1.41-1.18V447.32A3.62,3.62,0,0,1,329.58,445.56Z"/><path class="cls-11" d="M329.58,445.56l-23.7-13.71a3.48,3.48,0,0,0-.53,1.74V485a3.91,3.91,0,0,0,1.77,3.05l20.23,11.7a4,4,0,0,0,3.17.16c-.81.28-1.41-.19-1.41-1.18V447.32A3.62,3.62,0,0,1,329.58,445.56Z"/><path class="cls-12" d="M393.54,406l-20.22-11.68a4,4,0,0,0-3.53,0l-62.72,36.21a3.49,3.49,0,0,0-1.24,1.32l23.7,13.71a3.57,3.57,0,0,1,1.25-1.31L393.54,408c.91-.52,1.65-.15,1.75.8A3.94,3.94,0,0,0,393.54,406Z"/><path class="cls-2" d="M330.83,499.71l62.71-36.21a3.92,3.92,0,0,0,1.76-3.06V409.07c0-1.12-.8-1.59-1.76-1l-62.71,36.17a3.91,3.91,0,0,0-1.77,3.05v51.37C329.06,499.81,329.85,500.27,330.83,499.71Z"/><path class="cls-13" d="M330.83,499.71l62.71-36.21a3.92,3.92,0,0,0,1.76-3.06V409.07c0-1.12-.8-1.59-1.76-1l-62.71,36.17a3.91,3.91,0,0,0-1.77,3.05v51.37C329.06,499.81,329.85,500.27,330.83,499.71Z"/><path class="cls-14" d="M331.54,495.07a.29.29,0,0,0,0,.13v1.3l1.11-.66a.27.27,0,0,0,.11-.36h0a.28.28,0,0,0-.38-.1l-.3.17v-.35a.27.27,0,0,0-.27-.27A.29.29,0,0,0,331.54,495.07Z"/><path class="cls-14" d="M333.74,494.57l1.41-.8a.26.26,0,1,1,.26.46L334,495a.29.29,0,0,1-.38-.1.26.26,0,0,1,0-.27Zm2.8-1.61,1.39-.8a.27.27,0,0,1,.37.08v0a.26.26,0,0,1-.1.36h0l-1.4.81a.27.27,0,0,1-.37-.09h0a.26.26,0,0,1,0-.27A.24.24,0,0,1,336.54,493Zm2.79-1.61,1.4-.81a.26.26,0,0,1,.36.1h0a.27.27,0,0,1-.1.37l-1.39.81a.26.26,0,0,1-.37-.11.24.24,0,0,1,0-.26.19.19,0,0,1,.1-.1Zm2.79-1.61,1.39-.81a.29.29,0,0,1,.38.1.27.27,0,0,1-.1.37l-1.39.8a.27.27,0,0,1-.37-.08v0a.24.24,0,0,1,0-.26.25.25,0,0,1,.15-.1Zm2.8-1.61,1.39-.81a.27.27,0,0,1,.37.1.26.26,0,0,1-.11.37l-1.39.8a.26.26,0,0,1-.36-.09h0a.21.21,0,0,1,0-.26.17.17,0,0,1,.1-.1Zm2.78-1.62,1.38-.77a.27.27,0,1,1,.27.46h0L348,487a.28.28,0,0,1-.38-.1.24.24,0,0,1,0-.26.33.33,0,0,1,.12-.14Zm2.8-1.61,1.39-.8a.27.27,0,0,1,.37.1.25.25,0,0,1-.09.36h0l-1.41.81a.26.26,0,0,1-.36-.09h0a.26.26,0,0,1,0-.27.24.24,0,0,1,.1-.1Zm42.05-71a.28.28,0,0,1,.28.26v1.63a.28.28,0,0,1-.33.22.28.28,0,0,1-.22-.22v-1.61a.33.33,0,0,1,0-.14A.27.27,0,0,1,392.55,413.88Zm-39.31,69.41,1.41-.8a.25.25,0,0,1,.35.08v0a.26.26,0,0,1-.1.36h0l-1.39.81a.29.29,0,0,1-.38-.1.32.32,0,0,1,0-.27Zm39.31-66.19a.29.29,0,0,1,.28.28V419a.28.28,0,0,1-.55.1v-1.71a.33.33,0,0,1,0-.14.27.27,0,0,1,.27-.14ZM356,481.68l1.39-.81a.29.29,0,0,1,.38.1.25.25,0,0,1-.09.36h0l-1.39.81a.29.29,0,0,1-.38-.1.26.26,0,0,1,0-.27.22.22,0,0,1,.18-.1Zm36.55-61.35a.28.28,0,0,1,.28.26h0v1.61a.28.28,0,0,1-.55.1V420.6a.33.33,0,0,1,0-.14A.25.25,0,0,1,392.55,420.33Zm-33.72,59.74,1.4-.81a.28.28,0,0,1,.37.1.26.26,0,0,1-.11.37l-1.39.8a.25.25,0,0,1-.35-.08v0a.24.24,0,0,1,0-.26.15.15,0,0,1,.13-.1Zm33.72-56.52a.28.28,0,0,1,.28.26h0v1.66a.28.28,0,0,1-.33.22.28.28,0,0,1-.22-.22v-1.61a.33.33,0,0,1,0-.14A.27.27,0,0,1,392.55,423.55Zm-30.93,54.91,1.4-.81a.27.27,0,0,1,.37.09h0a.28.28,0,0,1-.1.37l-1.39.8a.28.28,0,0,1-.38-.1.24.24,0,0,1,0-.26.28.28,0,0,1,.14-.1Zm30.93-51.69a.29.29,0,0,1,.28.28v1.61a.28.28,0,0,1-.22.32.28.28,0,0,1-.33-.22v-1.71a.33.33,0,0,1,0-.14A.27.27,0,0,1,392.55,426.77Zm-28.1,50.08,1.4-.8a.27.27,0,0,1,.37.1.28.28,0,0,1-.1.37l-1.4.8a.25.25,0,0,1-.36-.1h0a.24.24,0,0,1,0-.26A.17.17,0,0,1,364.45,476.85ZM392.55,430a.28.28,0,0,1,.28.26h0v1.61a.28.28,0,0,1-.55.11v-1.72a.33.33,0,0,1,0-.14A.26.26,0,0,1,392.55,430ZM367.2,475.23l1.4-.8a.27.27,0,1,1,.27.46h0l-1.39.81a.28.28,0,0,1-.38-.1.32.32,0,0,1,0-.27.33.33,0,0,1,.14-.1Zm25.35-42a.28.28,0,0,1,.28.26h0v1.62a.28.28,0,0,1-.33.22.28.28,0,0,1-.22-.22v-1.62a.29.29,0,0,1,0-.13A.27.27,0,0,1,392.55,433.22ZM370,473.62l1.39-.8a.27.27,0,0,1,.37.08v0a.25.25,0,0,1-.09.36h0l-1.4.81a.28.28,0,0,1-.37-.1.26.26,0,0,1,0-.27.24.24,0,0,1,.14-.1Zm22.55-37.18a.29.29,0,0,1,.28.28v1.6a.28.28,0,0,1-.33.22.28.28,0,0,1-.22-.22v-1.61a.33.33,0,0,1,0-.14A.28.28,0,0,1,392.55,436.44ZM372.79,472l1.39-.81a.27.27,0,0,1,.38.11.26.26,0,0,1-.1.36h0l-1.39.81a.28.28,0,0,1-.37-.1h0a.26.26,0,0,1,0-.27A.24.24,0,0,1,372.79,472Zm19.76-32.34a.28.28,0,0,1,.28.26h0v1.61a.28.28,0,0,1-.55.11v-1.72a.33.33,0,0,1,0-.14A.26.26,0,0,1,392.55,439.67Zm-17,30.73,1.4-.81a.26.26,0,0,1,.36.09h0a.28.28,0,0,1-.1.37l-1.4.8a.26.26,0,0,1-.36-.08v0a.24.24,0,0,1,0-.26.28.28,0,0,1,.14-.1Zm17-27.5a.26.26,0,0,1,.28.25h0v1.62a.28.28,0,0,1-.33.22.28.28,0,0,1-.22-.22v-1.62a.28.28,0,0,1,0-.13A.24.24,0,0,1,392.55,442.9Zm-14.18,25.89,1.4-.81a.27.27,0,0,1,.37.1.28.28,0,0,1-.1.37l-1.4.8a.26.26,0,0,1-.36-.1h0a.24.24,0,0,1,0-.26.26.26,0,0,1,.14-.1Zm14.18-22.67a.28.28,0,0,1,.28.27V448a.28.28,0,0,1-.33.22.28.28,0,0,1-.22-.22v-1.61a.33.33,0,0,1,0-.14A.26.26,0,0,1,392.55,446.12Zm-11.39,21.06,1.4-.81a.27.27,0,0,1,.37.09h0a.28.28,0,0,1-.1.37l-1.39.8a.28.28,0,0,1-.38-.1.3.3,0,0,1,0-.26.28.28,0,0,1,.14-.1Zm11.39-17.78a.26.26,0,0,1,.28.25h0v1.61a.28.28,0,0,1-.55.11v-1.72a.33.33,0,0,1,0-.14.25.25,0,0,1,.27-.17ZM384,465.61l1.4-.8a.26.26,0,0,1,.37.09.27.27,0,0,1-.09.37h0l-1.39.81a.27.27,0,0,1-.37-.1.28.28,0,0,1,0-.28.25.25,0,0,1,.13-.14Zm8.6-13a.27.27,0,0,1,.28.25h0v1.62a.28.28,0,0,1-.33.22.28.28,0,0,1-.22-.22v-1.62a.28.28,0,0,1,0-.13.24.24,0,0,1,.27-.18ZM386.75,464l1.39-.8a.27.27,0,1,1,.27.46h0l-1.39.81a.28.28,0,0,1-.37-.1h0a.28.28,0,0,1,0-.28.22.22,0,0,1,.14-.14Zm5.8-8.16a.28.28,0,0,1,.28.27v1.61a.28.28,0,0,1-.33.22.28.28,0,0,1-.22-.22V456.1a.33.33,0,0,1,0-.14.26.26,0,0,1,.27-.17Zm-3,6.5,1.4-.81a.25.25,0,0,1,.36.1h0a.27.27,0,0,1-.09.37h0l-1.39.81a.28.28,0,0,1-.37-.1.28.28,0,0,1,0-.28A.29.29,0,0,1,389.59,462.34Zm3-3.27a.27.27,0,0,1,.28.25h0v1.17a1.67,1.67,0,0,1-.19.5h0a.25.25,0,0,1-.34.08h0a.3.3,0,0,1-.09-.38,1.51,1.51,0,0,0,.12-.26v-1.15a.29.29,0,0,1,0-.13A.24.24,0,0,1,392.55,459.07Z"/><path class="cls-14" d="M391.65,412a.26.26,0,0,0,0,.27.29.29,0,0,0,.38.1l.29-.18v.35a.27.27,0,0,0,.22.32.27.27,0,0,0,.32-.22.17.17,0,0,0,0-.1v-1.29l-1.11.65A.24.24,0,0,0,391.65,412Z"/><path class="cls-14" d="M331.73,446.74a.26.26,0,0,1,.35-.07.29.29,0,0,1,.09.39l-.12.26v1.15a.26.26,0,0,1-.27.26.27.27,0,0,1-.27-.26v-1.18a1.13,1.13,0,0,1,.19-.5Zm1.4-1,1.39-.81a.28.28,0,0,1,.37.1h0a.27.27,0,0,1-.09.37h0l-1.39.8a.28.28,0,0,1-.38-.09.32.32,0,0,1,0-.27A.35.35,0,0,1,333.13,445.75Zm-1.35,4.05a.28.28,0,0,1,.27.28v1.61a.26.26,0,0,1-.27.26.27.27,0,0,1-.27-.26v-1.61a.33.33,0,0,1,0-.14A.3.3,0,0,1,331.78,449.8Zm4.14-5.67,1.39-.8a.27.27,0,0,1,.37.1.26.26,0,0,1-.09.36h0l-1.4.81a.26.26,0,0,1-.37-.09.28.28,0,0,1,0-.28A.32.32,0,0,1,335.92,444.13ZM331.78,453a.27.27,0,0,1,.27.27v1.61a.27.27,0,1,1-.54,0v-1.61a.33.33,0,0,1,0-.14.28.28,0,0,1,.27-.12Zm6.91-10.51,1.39-.8a.26.26,0,0,1,.37.09h0a.26.26,0,0,1-.1.36h0L339,443a.27.27,0,0,1-.37-.09h0a.28.28,0,0,1,0-.28.27.27,0,0,1,.12-.09Zm-6.91,13.73a.27.27,0,0,1,.27.27v1.62a.27.27,0,0,1-.54,0v-1.62a.29.29,0,0,1,0-.13.29.29,0,0,1,.27-.13Zm9.72-15.34,1.4-.81a.26.26,0,0,1,.36.1h0a.26.26,0,0,1-.1.36h0l-1.4.81a.27.27,0,1,1-.27-.46Zm-9.72,18.56a.28.28,0,0,1,.27.28v1.61a.27.27,0,0,1-.54,0v-1.61a.33.33,0,0,1,0-.14.29.29,0,0,1,.27-.13Zm12.51-20.15,1.4-.81a.27.27,0,0,1,.38.05.27.27,0,0,1-.05.39l-.06,0-1.4.81a.25.25,0,0,1-.36-.1h0a.24.24,0,0,1,0-.26A.32.32,0,0,1,344.29,439.31Zm-12.51,23.4a.27.27,0,0,1,.27.27v1.61a.27.27,0,1,1-.54,0V463a.33.33,0,0,1,0-.14.26.26,0,0,1,.27-.18Zm15.33-25,1.39-.81a.28.28,0,0,1,.37.1h0a.28.28,0,0,1-.09.37h0l-1.39.8a.28.28,0,0,1-.38-.1.3.3,0,0,1,0-.26A.27.27,0,0,1,347.11,437.69ZM331.8,465.92a.27.27,0,0,1,.27.27v1.61a.28.28,0,0,1-.27.28.27.27,0,0,1-.27-.27v-1.62a.21.21,0,0,1,.25-.27Zm18.09-29.84,1.4-.81a.27.27,0,0,1,.36.14.28.28,0,0,1-.09.33l-1.39.8a.27.27,0,0,1-.37-.1.24.24,0,0,1,0-.26.18.18,0,0,1,.07-.1Zm-18.11,33.06a.28.28,0,0,1,.27.28V471a.27.27,0,1,1-.54,0v-1.61a.33.33,0,0,1,0-.14A.3.3,0,0,1,331.78,469.14Zm20.89-34.68,1.39-.8a.28.28,0,0,1,.38.1.26.26,0,0,1-.1.36h0l-1.4.81a.27.27,0,0,1-.37-.09h0a.26.26,0,0,1,0-.27.24.24,0,0,1,.1-.1Zm-20.89,37.91a.27.27,0,0,1,.27.26h0v1.61a.27.27,0,1,1-.54,0v-1.61a.33.33,0,0,1,0-.14.26.26,0,0,1,.27-.13Zm23.71-39.51,1.4-.8a.26.26,0,0,1,.36.1.25.25,0,0,1-.1.36l-1.39.81a.27.27,0,0,1-.37-.1.26.26,0,0,1,0-.27.26.26,0,0,1,.07-.11ZM331.78,475.6a.27.27,0,0,1,.27.27v1.61a.28.28,0,0,1-.27.28.27.27,0,0,1-.27-.27h0v-1.62a.29.29,0,0,1,0-.13.27.27,0,0,1,.27-.14Zm26.47-44.35,1.39-.81a.28.28,0,0,1,.38.11.26.26,0,0,1-.1.36h0l-1.4.81a.27.27,0,0,1-.37-.09h0a.26.26,0,0,1,0-.27.36.36,0,0,1,.1-.11Zm-26.47,47.57a.28.28,0,0,1,.27.28v1.61a.27.27,0,1,1-.54,0V479.1a.33.33,0,0,1,0-.14A.3.3,0,0,1,331.78,478.82Zm29.27-49.18,1.39-.81a.25.25,0,0,1,.36.1h0a.27.27,0,0,1-.1.37l-1.4.81a.26.26,0,0,1-.37-.11.24.24,0,0,1,0-.26.2.2,0,0,1,.11-.11ZM331.78,482a.28.28,0,0,1,.27.28v1.61a.27.27,0,1,1-.54,0v-1.61a.33.33,0,0,1,0-.14.29.29,0,0,1,.27-.15Zm32.05-54,1.4-.81a.28.28,0,0,1,.37.1.27.27,0,0,1-.1.37l-1.39.8a.27.27,0,0,1-.37-.08v0a.24.24,0,0,1,0-.26.22.22,0,0,1,.1-.11Zm-32.05,57.24a.27.27,0,0,1,.27.27v1.61a.28.28,0,0,1-.27.28.27.27,0,0,1-.27-.27h0v-1.61a.33.33,0,0,1,0-.14.29.29,0,0,1,.27-.14Zm34.85-58.85,1.39-.81a.28.28,0,0,1,.38.1.29.29,0,0,1-.1.37l-1.41.8a.26.26,0,0,1-.36-.09h0a.24.24,0,0,1,0-.26.18.18,0,0,1,.1-.11Zm-34.85,62.07a.28.28,0,0,1,.27.28v1.61a.27.27,0,0,1-.54,0v-1.61a.33.33,0,0,1,0-.14.32.32,0,0,1,.27-.15Zm37.63-63.69,1.41-.8a.26.26,0,0,1,.36.1h0a.27.27,0,0,1-.1.37l-1.39.8a.28.28,0,0,1-.38-.1.32.32,0,0,1,0-.27Zm-37.63,66.86a.28.28,0,0,1,.27.28v1.7a.27.27,0,1,1-.54,0V492a.33.33,0,0,1,0-.14A.3.3,0,0,1,331.78,491.66Zm40.43-68.52,1.39-.8a.28.28,0,0,1,.38.1.26.26,0,0,1-.1.36h0l-1.4.81a.27.27,0,0,1-.37-.09h0a.26.26,0,0,1,0-.27.21.21,0,0,1,.1-.06Zm2.79-1.61,1.4-.8a.26.26,0,1,1,.26.46l-1.39.81a.28.28,0,0,1-.37-.1.26.26,0,0,1,0-.27A.32.32,0,0,1,375,421.53Zm2.79-1.61,1.39-.81a.29.29,0,0,1,.38.1.25.25,0,0,1-.09.36h0l-1.39.81a.29.29,0,0,1-.38-.1.26.26,0,0,1,0-.27.21.21,0,0,1,.1-.06Zm2.8-1.61,1.39-.81a.28.28,0,0,1,.39.05.28.28,0,0,1-.06.39l-.05,0-1.41.8a.25.25,0,0,1-.35-.08v0a.24.24,0,0,1,0-.26.17.17,0,0,1,.1-.06Zm2.78-1.61,1.4-.81a.27.27,0,0,1,.37.09h0a.27.27,0,0,1-.1.37l-1.39.8a.28.28,0,0,1-.38-.1.3.3,0,0,1,0-.26.27.27,0,0,1,.1-.06Zm2.8-1.62,1.39-.8a.28.28,0,0,1,.38.1.29.29,0,0,1-.1.37l-1.41.8a.26.26,0,0,1-.36-.1h0a.24.24,0,0,1,0-.26.23.23,0,0,1,.1-.07Zm2.79-1.61,1.4-.8a.26.26,0,0,1,.36.09h0a.25.25,0,0,1-.08.35h0l-1.39.81a.28.28,0,0,1-.38-.1.32.32,0,0,1,0-.27.3.3,0,0,1,.11-.06Z"/><path class="cls-11" d="M318.57,494.63V440.3a1.88,1.88,0,0,1,.94-1.63L384.81,401l-2.2-1.26-65.31,37.7a1.89,1.89,0,0,0-.94,1.63V493.4Z"/><path class="cls-2" d="M329.07,455l.06.05a21.49,21.49,0,0,0,8.4-14.54h-.07l-6.63,3.79a3.93,3.93,0,0,0-1.77,3.06v7.63Z"/><path class="cls-2" d="M395.3,409.05v6.55c-4.05,2.31-7.33.41-7.33-4.29h0l5.56-3.22C394.52,407.47,395.3,407.93,395.3,409.05Z"/><path class="cls-2" d="M330.85,499.7l5.65-3.25c0-4.68-3.32-6.56-7.38-4.22h0v6.43C329.08,499.8,329.87,500.26,330.85,499.7Z"/><path class="cls-2" d="M395.31,453.34v7.1a3.92,3.92,0,0,1-1.76,3.06L387.48,467v-.62a16.34,16.34,0,0,1,7.38-12.8C395,453.48,395.16,453.42,395.31,453.34Z"/><g class="cls-15"><path class="cls-16" d="M329.07,455l.06.05a21.49,21.49,0,0,0,8.4-14.54h-.07l-6.63,3.79a3.93,3.93,0,0,0-1.77,3.06v7.63Z"/><path class="cls-16" d="M395.3,409.05v6.55c-4.05,2.31-7.33.41-7.33-4.29h0l5.56-3.22C394.52,407.47,395.3,407.93,395.3,409.05Z"/><path class="cls-16" d="M330.85,499.7l5.65-3.25c0-4.68-3.32-6.56-7.38-4.22h0v6.43C329.08,499.8,329.87,500.26,330.85,499.7Z"/><path class="cls-16" d="M395.31,453.34v7.1a3.92,3.92,0,0,1-1.76,3.06L387.48,467v-.62a16.34,16.34,0,0,1,7.38-12.8C395,453.48,395.16,453.42,395.31,453.34Z"/></g><path class="cls-2" d="M337.46,440.43c-4.73-2-10.34-1.34-15.17.92l7.29,4.21a3.57,3.57,0,0,1,1.25-1.31Z"/><path class="cls-2" d="M393.54,408l-5.6,3.24c-4.05-2.36-3.57-5.92.49-8.23l5.12,3a3.85,3.85,0,0,1,1.75,3.06v.46h0v-.47C395.31,407.94,394.52,407.48,393.54,408Z"/><path class="cls-2" d="M373.33,394.32l5.7,3.29a16.27,16.27,0,0,1-14.76,0h-.07l5.83-3.34A4,4,0,0,1,373.33,394.32Z"/><path class="cls-2" d="M312.7,427.29c4.05,2.36,4,6.16,0,8.51h0l-6.84-3.95a3.62,3.62,0,0,1,1.25-1.3Z"/><g class="cls-17"><path class="cls-16" d="M337.46,440.43c-4.73-2-10.34-1.34-15.17.92l7.29,4.21a3.57,3.57,0,0,1,1.25-1.31Z"/><path class="cls-16" d="M393.54,408l-5.6,3.24c-4.05-2.36-3.57-5.92.49-8.23l5.12,3a3.85,3.85,0,0,1,1.75,3.06v.46h0v-.47C395.31,407.94,394.52,407.48,393.54,408Z"/><path class="cls-16" d="M373.33,394.32l5.7,3.29a16.27,16.27,0,0,1-14.76,0h-.07l5.83-3.34A4,4,0,0,1,373.33,394.32Z"/><path class="cls-16" d="M312.7,427.29c4.05,2.36,4,6.16,0,8.51h0l-6.84-3.95a3.62,3.62,0,0,1,1.25-1.3Z"/></g><path class="cls-2" d="M329.58,445.56l-7.29-4.21c.48,5.33,2.67,10.51,6.78,13.6v-7.66A3.66,3.66,0,0,1,329.58,445.56Z"/><path class="cls-2" d="M305.32,440.08v-6.5a3.59,3.59,0,0,1,.51-1.74l6.85,4C312.68,440.49,309.38,442.41,305.32,440.08Z"/><path class="cls-2" d="M312.69,491a1,1,0,0,1,0,.24L307.08,488a4,4,0,0,1-1.75-2.82v-7h0A16.31,16.31,0,0,1,312.69,491Z"/><path class="cls-2" d="M329.09,498.69v-6.47c-4.07-2.33-7.36-.43-7.36,4.27l5.59,3.23a3.92,3.92,0,0,0,3.53,0h0C329.88,500.26,329.09,499.81,329.09,498.69Z"/><g class="cls-18"><path class="cls-16" d="M329.58,445.56l-7.29-4.21c.48,5.33,2.67,10.51,6.78,13.6v-7.66A3.66,3.66,0,0,1,329.58,445.56Z"/><path class="cls-16" d="M305.32,440.08v-6.5a3.59,3.59,0,0,1,.51-1.74l6.85,4C312.68,440.49,309.38,442.41,305.32,440.08Z"/><path class="cls-16" d="M312.69,491a1,1,0,0,1,0,.24L307.08,488a4,4,0,0,1-1.75-2.82v-7h0A16.31,16.31,0,0,1,312.69,491Z"/><path class="cls-16" d="M329.09,498.69v-6.47c-4.07-2.33-7.36-.43-7.36,4.27l5.59,3.23a3.92,3.92,0,0,0,3.53,0h0C329.88,500.26,329.09,499.81,329.09,498.69Z"/></g><path class="cls-2" d="M338,430.55l-3.47,2a1.06,1.06,0,0,1-1,0l-5.68-3.28a1,1,0,0,1-.48-.82v-.35a1,1,0,0,1,.48-.82l3.47-2a1,1,0,0,1,.94,0l5.68,3.28a1,1,0,0,1,.48.82v.37A1,1,0,0,1,338,430.55Z"/><path class="cls-19" d="M338,430.55l-3.47,2a1.06,1.06,0,0,1-1,0l-5.68-3.28a1,1,0,0,1-.48-.82v-.35a1,1,0,0,1,.48-.82l3.47-2a1,1,0,0,1,.94,0l5.68,3.28a1,1,0,0,1,.48.82v.37A1,1,0,0,1,338,430.55Z"/><path class="cls-11" d="M327.78,427.35a1,1,0,0,0-.37.75v.34a1,1,0,0,0,.48.82l5.68,3.28a1,1,0,0,0,.48.12v-1.45a1.13,1.13,0,0,1-.48-.11l-5.68-3.29C327.65,427.69,327.62,427.5,327.78,427.35Z"/><path class="cls-2" d="M333.56,431.1l-5.68-3.28a.29.29,0,0,1-.19-.36.29.29,0,0,1,.19-.18l3.47-2a1,1,0,0,1,.94,0l5.68,3.28c.27.15.27.4,0,.54l-3.47,2A1,1,0,0,1,333.56,431.1Z"/><path class="cls-8" d="M333.56,431.1l-5.68-3.28a.29.29,0,0,1-.19-.36.29.29,0,0,1,.19-.18l3.47-2a1,1,0,0,1,.94,0l5.68,3.28c.27.15.27.4,0,.54l-3.47,2A1,1,0,0,1,333.56,431.1Z"/><path class="cls-2" d="M373.31,410.15l-3.47,2a1,1,0,0,1-1,0l-5.68-3.28a1,1,0,0,1-.47-.81v-.33a1,1,0,0,1,.47-.82l3.48-2a1.1,1.1,0,0,1,.94,0l5.68,3.28a1,1,0,0,1,.47.82v.37A1,1,0,0,1,373.31,410.15Z"/><path class="cls-19" d="M373.31,410.15l-3.47,2a1,1,0,0,1-1,0l-5.68-3.28a1,1,0,0,1-.47-.81v-.33a1,1,0,0,1,.47-.82l3.48-2a1.1,1.1,0,0,1,.94,0l5.68,3.28a1,1,0,0,1,.47.82v.37A1,1,0,0,1,373.31,410.15Z"/><path class="cls-11" d="M363.11,407a1,1,0,0,0-.36.74v.36a1,1,0,0,0,.47.81l5.68,3.28a1,1,0,0,0,.47.12v-1.45h0a.93.93,0,0,1-.46-.12l-5.69-3.28C363,407.29,362.91,407.1,363.11,407Z"/><path class="cls-2" d="M368.89,410.66l-5.68-3.28A.28.28,0,0,1,363,407a.27.27,0,0,1,.18-.18l3.48-2a1.1,1.1,0,0,1,.94,0l5.68,3.28c.26.16.26.4,0,.55l-3.48,2A1,1,0,0,1,368.89,410.66Z"/><path class="cls-8" d="M368.89,410.66l-5.68-3.28A.28.28,0,0,1,363,407a.27.27,0,0,1,.18-.18l3.48-2a1.1,1.1,0,0,1,.94,0l5.68,3.28c.26.16.26.4,0,.55l-3.48,2A1,1,0,0,1,368.89,410.66Z"/><path class="cls-20" d="M340.32,420.23l-2.3-1.32a.68.68,0,0,0-.62,0l-3.77,2.16a.71.71,0,0,0-.31.55v.23a.7.7,0,0,0,.31.55l2.31,1.32a.68.68,0,0,0,.62,0l3.76-2.16a.73.73,0,0,0,.31-.55v-.23A.73.73,0,0,0,340.32,420.23Z"/><path class="cls-4" d="M337.37,418.89l-3.77,2.17a.2.2,0,0,0,0,.36l2.31,1.33a.68.68,0,0,0,.62,0l3.76-2.17a.2.2,0,0,0,.11-.26.2.2,0,0,0-.11-.11l-2.3-1.32A.68.68,0,0,0,337.37,418.89Z"/><path class="cls-20" d="M359.39,409.22l-2.3-1.33a.7.7,0,0,0-.63,0l-3.76,2.17a.69.69,0,0,0-.31.54v.24a.69.69,0,0,0,.31.54l2.3,1.33a.68.68,0,0,0,.62,0l3.77-2.18a.66.66,0,0,0,.31-.53v-.25A.69.69,0,0,0,359.39,409.22Z"/><path class="cls-4" d="M356.43,407.88l-3.75,2.17c-.18.1-.18.26,0,.36l2.29,1.32a.62.62,0,0,0,.62,0l3.77-2.16a.19.19,0,0,0,0-.37l-2.3-1.32A.7.7,0,0,0,356.43,407.88Z"/><path class="cls-2" d="M357.22,409.24,355,410.52v-1.43h0v1.42l-1-.55v-1.42l-1.09-.63a3.07,3.07,0,0,0-2.83,0l-14.16,8.16a1.91,1.91,0,0,0-.32.24,1.31,1.31,0,0,0,.32.25l2.07,1.19v1.14h0v1.41l-2.21,1.29-1-.56V419.6l-1.88-1.08a1.44,1.44,0,0,1-.78-1.07v-1.29c0-1,.93-2.14,2.65-3.14l12-6.91c2.6-1.5,6-2,7.55-1.08l2.84,1.65Z"/><path class="cls-21" d="M357.22,409.24,355,410.52v-1.43h0v1.42l-1-.55v-1.42l-1.09-.63a3.07,3.07,0,0,0-2.83,0l-14.16,8.16a1.91,1.91,0,0,0-.32.24,1.31,1.31,0,0,0,.32.25l2.07,1.19v1.14h0v1.41l-2.21,1.29-1-.56V419.6l-1.88-1.08a1.44,1.44,0,0,1-.78-1.07v-1.29c0-1,.93-2.14,2.65-3.14l12-6.91c2.6-1.5,6-2,7.55-1.08l2.84,1.65Z"/><path class="cls-2" d="M333,417.39c-1.57-.91-.73-2.86,1.87-4.36l12-6.91c2.6-1.5,6-2,7.55-1.08l2.84,1.65v2.54L355,410.51V408l-2.06-1.19a3.14,3.14,0,0,0-2.83,0l-14.15,8.17a.87.87,0,0,0-.55,1.09.89.89,0,0,0,.55.54l2.07,1.19v2.56l-2.21,1.29V419Z"/><path class="cls-8" d="M333,417.39c-1.57-.91-.73-2.86,1.87-4.36l12-6.91c2.6-1.5,6-2,7.55-1.08l2.84,1.65v2.54L355,410.51V408l-2.06-1.19a3.14,3.14,0,0,0-2.83,0l-14.15,8.17a.87.87,0,0,0-.55,1.09.89.89,0,0,0,.55.54l2.07,1.19v2.56l-2.21,1.29V419Z"/><polygon class="cls-2" points="357.22 409.24 355 410.51 355 407.96 357.2 406.7 357.22 409.24"/><polygon class="cls-19" points="357.22 409.24 355 410.51 355 407.96 357.2 406.7 357.22 409.24"/><polygon class="cls-2" points="338.03 420.31 335.82 421.6 335.82 419.03 338.03 417.75 338.03 420.31"/><polygon class="cls-19" points="338.03 420.31 335.82 421.6 335.82 419.03 338.03 417.75 338.03 420.31"/></g><g id="freepik--luggage--inject-79-2" data-name="freepik--luggage--inject-79"><polygon class="cls-22" points="426.12 363.67 426.12 302.31 428.26 301.07 428.26 362.43 426.12 363.67"/><polygon class="cls-20" points="423.97 301.06 423.97 364.91 426.12 363.67 426.12 302.3 423.97 301.06"/><polygon class="cls-4" points="396.21 380.94 394.08 379.73 424.02 362.44 426.12 363.67 396.21 380.94"/><polygon class="cls-22" points="394.08 382.17 394.08 320.81 396.21 319.57 396.21 380.94 394.08 382.17"/><polygon class="cls-4" points="391.94 319.57 391.94 383.42 394.08 382.17 394.08 320.81 391.94 319.57"/><path class="cls-2" d="M425.57,298.48a1.66,1.66,0,0,0-1.69.17l-29.63,17.13a4.92,4.92,0,0,0-2.28,3.79V322l2.14,1.25,34.18-19.76v-2.46a1.4,1.4,0,0,0-.55-1.29C427.34,299.49,425.94,298.71,425.57,298.48Z"/><path class="cls-23" d="M425.57,298.48a1.66,1.66,0,0,0-1.69.17l-29.63,17.13a4.92,4.92,0,0,0-2.28,3.79V322l2.14,1.25,34.18-19.76v-2.46a1.4,1.4,0,0,0-.55-1.29C427.34,299.49,425.94,298.71,425.57,298.48Z"/><path class="cls-2" d="M394.08,320.77a4.86,4.86,0,0,1,2.28-3.78L426,299.85c1.25-.72,2.27-.22,2.25,1.14v2.46l-34.18,19.76Z"/><path class="cls-24" d="M394.08,320.77a4.86,4.86,0,0,1,2.28-3.78L426,299.85c1.25-.72,2.27-.22,2.25,1.14v2.46l-34.18,19.76Z"/><path class="cls-11" d="M394.72,318.71a4.37,4.37,0,0,0-.64,2.1v2.48l-2.14-1.24v-2.48a4.11,4.11,0,0,1,.65-2.09Z"/><path class="cls-2" d="M458.4,380.91v81a2.6,2.6,0,0,1-1.1,2.41l-45.44,26.23a2.64,2.64,0,0,0,1.06-2.38v-81a11.7,11.7,0,0,0-5.29-9.15l-19-11a2.71,2.71,0,0,0-2.45-.34l45.27-26.16a2.58,2.58,0,0,1,2.65.25l19,10.95A11.71,11.71,0,0,1,458.4,380.91Z"/><path class="cls-24" d="M458.4,380.91v81a2.6,2.6,0,0,1-1.1,2.41l-45.44,26.23a2.64,2.64,0,0,0,1.06-2.38v-81a11.7,11.7,0,0,0-5.29-9.15l-19-11a2.71,2.71,0,0,0-2.45-.34l45.27-26.16a2.58,2.58,0,0,1,2.65.25l19,10.95A11.71,11.71,0,0,1,458.4,380.91Z"/><path class="cls-2" d="M388.67,478.51l20.52,11.85c2.06,1.19,3.74.21,3.74-2.15v-81a11.7,11.7,0,0,0-5.29-9.14l-19-11c-2.05-1.18-3.73-.21-3.73,2.16v82.83A8.3,8.3,0,0,0,388.67,478.51Z"/><path class="cls-6" d="M388.67,478.51l20.52,11.85c2.06,1.19,3.74.21,3.74-2.15v-81a11.7,11.7,0,0,0-5.29-9.14l-19-11c-2.05-1.18-3.73-.21-3.73,2.16v82.83A8.3,8.3,0,0,0,388.67,478.51Z"/><path class="cls-4" d="M397.49,478.2a14.74,14.74,0,0,0-6.68-11.57c-2-1.11-3.67-1.16-4.94-.34h0l-4.5,2.57L391,485.14l4.46-2.57h0C396.7,481.88,397.49,480.37,397.49,478.2Z"/><path class="cls-22" d="M386.13,469.32a14.82,14.82,0,0,1,6.68,11.58c0,4.25-3,6-6.68,3.85a14.75,14.75,0,0,1-6.69-11.57C379.44,468.94,382.43,467.2,386.13,469.32Z"/><path class="cls-20" d="M386.13,474.1a5.64,5.64,0,0,1,2.54,4.41c0,1.62-1.14,2.28-2.54,1.47a5.62,5.62,0,0,1-2.55-4.41C383.58,473.94,384.72,473.29,386.13,474.1Z"/><path class="cls-4" d="M405.92,488.47l3.62,2.12a2.33,2.33,0,0,0,2.34,0l5.83-3.36v-4.11a.85.85,0,0,0-.85-.83.87.87,0,0,0-.41.11l-3.53,2-5.73-3.31a.84.84,0,0,0-1.15.3.82.82,0,0,0-.12.43Z"/><path class="cls-20" d="M412.93,488.21v-3.78h0l-5.73-3.31a.84.84,0,0,0-1.15.3.82.82,0,0,0-.12.43v6.62h0l3.24,1.88a2.93,2.93,0,0,0,2.25.42,2.66,2.66,0,0,0,.39-.16A2.62,2.62,0,0,0,412.93,488.21Z"/><path class="cls-4" d="M457.3,464.36a2.6,2.6,0,0,0,1.1-2.41v-3.76h0l-3.74,2.15a2.13,2.13,0,0,0-1.05,1.84v4.32Z"/><path class="cls-25" d="M456.17,374.64l-45.45,26.25a9.92,9.92,0,0,0-3-2.87l-19-11a2.78,2.78,0,0,0-2.47-.33l45.3-26.17a2.6,2.6,0,0,1,2.63.26l19,10.95A10.33,10.33,0,0,1,456.17,374.64Z"/><path class="cls-20" d="M437.37,370.5a4.89,4.89,0,0,0-4.38,0l-2.19,1.26v.71l4.37,2.53,2.2-1.26a1.53,1.53,0,0,0,.9-1.27v-.71A1.54,1.54,0,0,0,437.37,370.5Z"/><path class="cls-22" d="M430.8,371.76,433,370.5a4.89,4.89,0,0,1,4.38,0,1.33,1.33,0,0,1,.84,1.69,1.4,1.4,0,0,1-.84.84l-2.2,1.26Z"/><polygon class="cls-4" points="435.17 370.85 435.17 374.29 430.8 371.76 430.8 368.32 435.17 370.85"/><polygon class="cls-22" points="413.29 383.54 435.17 370.85 430.8 368.32 408.92 380.96 413.29 383.54"/><polygon class="cls-4" points="408.92 384.4 408.92 380.96 413.29 383.54 413.29 386.93 408.92 384.4"/><path class="cls-20" d="M413.29,387l-4.37-2.52-2.2,1.26a1.48,1.48,0,0,0-.88,1.25v.75a1.5,1.5,0,0,0,.88,1.25,4.89,4.89,0,0,0,4.38,0l2.19-1.29Z"/><path class="cls-22" d="M408.92,384.4l-2.2,1.26a1.34,1.34,0,0,0-.84,1.69,1.37,1.37,0,0,0,.84.84,5,5,0,0,0,4.39,0l2.18-1.24Z"/><polygon class="cls-20" points="414 383.11 414 387.23 413.28 387.65 413.28 383.53 414 383.11"/><polygon class="cls-20" points="435.17 370.85 435.17 375 434.45 375.42 434.45 371.27 435.17 370.85"/><polygon class="cls-20" points="413.28 384.4 435.17 371.71 435.17 370.85 413.28 383.53 413.28 384.4"/><polygon class="cls-4" points="434.45 375.42 434.45 372.14 431.63 373.78 434.45 375.42"/></g></g><g id="freepik--Airplane--inject-79"><g id="freepik--Trail--inject-79"><path class="cls-26" d="M41.57,302.3C14.82,286.39,9.39,261.08,9.39,261.08c-.77-43.76,31.05-90.46,67.05-113.92a199,199,0,0,0-36.87,93.05A201.47,201.47,0,0,0,41.57,302.3Z"/><path class="cls-27" d="M206.42,301.6c-39.19,43.06-93.84,73-144.54,63.73-37.33-13.94-51.25-60-52.49-104.25,0,0,8.24,38.39,54.38,50.31,56.56,14.62,116.14-15.8,116.14-15.8l22.88,4.64Z"/><path class="cls-9" d="M41.57,302.3a199.18,199.18,0,0,0,23.81,63.6c-1.17-.16-2.33-.35-3.5-.57-37.32-13.94-51.25-60-52.49-104.25C9.39,261.08,14.82,286.39,41.57,302.3Z"/><path class="cls-28" d="M17.74,289s17,33.37,69.3,37.62,90.77-23.05,90.77-23.05-37.07,24.91-90,20.51C34.4,319.57,17.74,289,17.74,289Z"/><path class="cls-28" d="M156.59,320.77c-31.19,18-91.72,27.66-126.81,6.84,0,0,19.52,16.8,57.66,14.82C132.55,340.05,156.59,320.77,156.59,320.77Z"/><path class="cls-29" d="M188.81,310.56c-13.88,14.53-41,32.28-67.46,39.9s-55.95,8.53-71.26,0c0,0,25.68,10.18,71.26-2.54C163.37,336.2,188.81,310.56,188.81,310.56Z"/></g><g id="freepik--Plane--inject-79"><g id="freepik--little-wing--inject-79"><path id="freepik--lttle-wing--inject-79" class="cls-30" d="M234.23,303.73c2,1.68,2.34,3.72.88,4.56l-2.65,1.53-35-11.07,16.05-12.91Z"/><path class="cls-7" d="M221.65,301.92c2.73-.4,6.38-.91,9-1.26l-17.2-14.82-16,12.91,35,11.07S216.93,302.62,221.65,301.92Z"/><path class="cls-28" d="M232.46,309.82h0l2.65-1.53c1.46-.84,1.07-2.88-.88-4.56l-20.75-17.89s17.36,16.07,19,17.56S237.23,307.25,232.46,309.82Z"/></g><g id="freepik--Wing--inject-79"><g id="freepik--wing--inject-79-2" data-name="freepik--wing--inject-79"><path id="freepik--wing--inject-79-3" data-name="freepik--wing--inject-79" class="cls-30" d="M366.57,284.22l-52.5-42.56-.11-.08c-1.57-.9-8.26,1.5-14.94,5.35l-9.88,5.69c-6.68,3.85-10.86,7.71-9.25,8.62l.12.06,80.58,31.39,5.54-3.21C368.39,288.17,368.56,285.79,366.57,284.22Z"/><path class="cls-7" d="M308.24,261.71l17.88-10.33-12.05-9.77-.11-.08c-1.57-.9-8.26,1.5-14.94,5.35l-9.88,5.69c-6.68,3.85-10.86,7.71-9.25,8.62l.12.06,80.58,31.39-52.22-26.5C306.06,265,306,263,308.24,261.71Z"/><path class="cls-28" d="M365,290.15h0l1.2-.7c2.24-1.28,2.41-3.64.42-5.26l-52.5-42.56S360.61,280.52,363,283,369.29,287.63,365,290.15Z"/></g><path class="cls-2" d="M318.15,264.09A100.65,100.65,0,0,0,305,270.41s-.21.78.88,1.4a4.68,4.68,0,0,0,2.44.51,74.75,74.75,0,0,0,10.46-7.21.59.59,0,0,0,.1-.84A.6.6,0,0,0,318.15,264.09Z"/><path class="cls-2" d="M318.15,264.09A100.65,100.65,0,0,0,305,270.41s-.21.78.88,1.4a4.68,4.68,0,0,0,2.44.51,74.75,74.75,0,0,0,10.46-7.21.59.59,0,0,0,.1-.84A.6.6,0,0,0,318.15,264.09Z"/><path class="cls-2" d="M318.15,264.09A100.65,100.65,0,0,0,305,270.41s-.21.78.88,1.4a4.68,4.68,0,0,0,2.44.51,74.75,74.75,0,0,0,10.46-7.21.59.59,0,0,0,.1-.84A.6.6,0,0,0,318.15,264.09Z"/><path class="cls-2" d="M318.15,264.09A100.65,100.65,0,0,0,305,270.41s-.21.78.88,1.4a4.68,4.68,0,0,0,2.44.51,74.75,74.75,0,0,0,10.46-7.21.59.59,0,0,0,.1-.84A.6.6,0,0,0,318.15,264.09Z"/><path class="cls-2" d="M318.15,264.09A100.65,100.65,0,0,0,305,270.41s-.21.78.88,1.4a4.68,4.68,0,0,0,2.44.51,74.75,74.75,0,0,0,10.46-7.21.59.59,0,0,0,.1-.84A.6.6,0,0,0,318.15,264.09Z"/><path class="cls-6" d="M318.15,264.09A100.65,100.65,0,0,0,305,270.41s-.21.78.88,1.4a4.68,4.68,0,0,0,2.44.51,74.75,74.75,0,0,0,10.46-7.21.59.59,0,0,0,.1-.84A.6.6,0,0,0,318.15,264.09Z"/><path class="cls-6" d="M307.32,270.3c.78-.94,10.8-6.19,11.56-6a.59.59,0,0,0-.73-.2A100.65,100.65,0,0,0,305,270.41s-.21.78.88,1.4a4.68,4.68,0,0,0,2.44.51C307.41,272,306.53,271.24,307.32,270.3Z"/><path class="cls-2" d="M333.68,272.72a77.75,77.75,0,0,0-10.29,4.94s-.17.61.68,1.11a3.65,3.65,0,0,0,1.92.39,58.59,58.59,0,0,0,8.19-5.63.48.48,0,0,0,0-.68A.46.46,0,0,0,333.68,272.72Z"/><path class="cls-6" d="M333.68,272.72a77.75,77.75,0,0,0-10.29,4.94s-.17.61.68,1.11a3.65,3.65,0,0,0,1.92.39,58.59,58.59,0,0,0,8.19-5.63.48.48,0,0,0,0-.68A.46.46,0,0,0,333.68,272.72Z"/><path class="cls-6" d="M325.21,277.58a31.2,31.2,0,0,1,5.27-3c2.77-1.42,3.68-1.8,3.88-1.37a.5.5,0,0,0-.45-.52.62.62,0,0,0-.23,0,77.75,77.75,0,0,0-10.29,4.94s-.17.61.68,1.11a3.65,3.65,0,0,0,1.92.39S324.56,278.23,325.21,277.58Z"/><path class="cls-2" d="M349.59,282a.38.38,0,0,0,.05-.52.39.39,0,0,0-.42-.11,57.15,57.15,0,0,0-7.44,3.58s-.11.45.51.81a2.68,2.68,0,0,0,1.39.29A42.61,42.61,0,0,0,349.59,282Z"/><path class="cls-6" d="M349.59,282a.38.38,0,0,0,.05-.52.39.39,0,0,0-.42-.11,57.15,57.15,0,0,0-7.44,3.58s-.11.45.51.81a2.68,2.68,0,0,0,1.39.29A42.61,42.61,0,0,0,349.59,282Z"/><path class="cls-6" d="M343,284.92a27.21,27.21,0,0,1,4.71-2.57c1.81-.8,2-.87,2-.66a.35.35,0,0,0-.35-.36l-.15,0a57.15,57.15,0,0,0-7.44,3.58s-.11.45.51.81a2.68,2.68,0,0,0,1.39.29C343.16,285.82,342.57,285.35,343,284.92Z"/></g><g id="freepik--Tail--inject-79"><path id="freepik--tail--inject-79-2" data-name="freepik--tail--inject-79" class="cls-29" d="M222.64,276.18l-29-34.72c-1.65-2-4.29-2.83-5.93-1.9l-2.9,1.67,11.35,50.24Z"/><path class="cls-7" d="M222.64,276.18l-5.81-6.92c-2.54,1.6-12.1,7.24-17.62,5.2-6.41-2.38-12.94-26.73-12.94-26.73h0l9.88,43.76Z"/><path class="cls-2" d="M198.69,289.94l23.94-13.83c-8.94,2-15.22.15-20.5-4.94-6.65-6.39-17.34-30-17.34-30L196,290.52Z"/><path class="cls-11" d="M222.64,276.14h0c-6.8,1.46-12,.76-16.5-1.89a11.8,11.8,0,0,1-6.91.2c-6-2.21-12.06-23.54-12.84-26.41L196,290.57l2.74-.63Z"/><path class="cls-14" d="M193.07,243.3c-1.72-1.91-4.27-3.17-5.7-2.8l-2.58.66,2.9-1.64c1.6-.9,4.24,0,5.93,2l29,34.62Z"/></g><g id="freepik--Turbine--inject-79"><path class="cls-7" d="M317.61,262.31a6.23,6.23,0,1,1-6.24-6.22h0A6.21,6.21,0,0,1,317.61,262.31Z"/><path class="cls-11" d="M317.61,262.31a6.23,6.23,0,1,1-6.24-6.22h0A6.21,6.21,0,0,1,317.61,262.31Z"/><path class="cls-11" d="M317.61,262.31a6.24,6.24,0,0,0-9.69-5.18,10.56,10.56,0,0,0,2.57,9.48c.44.43-2.55.41-4.94-2.16a6.22,6.22,0,0,0,12.07-2.14Z"/><path class="cls-7" d="M325.7,243.72c-6,0-16.3,10.13-16.86,10.86h0a4.74,4.74,0,0,0-.92,3,12.6,12.6,0,0,0,5.68,9.88,4.54,4.54,0,0,0,3.23.7h0c.9-.13,14.75-4.06,17.78-9.28Z"/><path class="cls-11" d="M334.59,258.87l-8.47-14.43c-1.61.17-3,.51-3.33,1.17-1.27,2.08-1.4,6.07,0,9.08s1.32,4.05-4.8,6-7.71,1.7-9.81-1a12.65,12.65,0,0,0,5.42,7.78,4.54,4.54,0,0,0,3.23.7h0C317.73,268,331.58,264.09,334.59,258.87Z"/><path class="cls-28" d="M325.7,243.72c-6,0-16.3,10.13-16.86,10.86h0A4.38,4.38,0,0,0,308,257c.39-1.47,2-2.86,4.18-4.7a94.52,94.52,0,0,1,9.27-6.62c1.17-.56-.07,2.39,1.26,5.62l3.49-6.91Z"/><path class="cls-22" d="M335.25,255.93c0,4.16-3,5.85-6.53,3.76a14.4,14.4,0,0,1-6.52-11.3c0-4.17,3-5.85,6.52-3.77A14.38,14.38,0,0,1,335.25,255.93Z"/><path class="cls-27" d="M328.43,252.15l3.11-3.4-3.68,3.68Zm-.41-.42,2.13-4.1-2.6,4.51Zm-.49-.31,1-4.52-1.38,5Zm-.56-.16-.18-4.64v5.23Zm5.63-1.07-4.52,2.6.62-.11Zm-5.2,5.38,2.51,3.95L327.29,255Zm5.84-3.72-5,1.34h.63Zm-5.32,3.45,3.43,3.14-3.7-3.72Zm-1.56-4.06L325,246.81l1.3,5.06Zm2.44,2.59,4.62-.2h-5.21Zm-.47,1.06,4.1,2.12-4.52-2.59Zm.31-.5,4.51,1-5-1.35Zm-3.88-.28-.16.26.79-.47Zm.89,1.3v.67l.49-1.54Zm-.64-.86-.13.32.57-.57Zm.3.42-.07.43.53-1Zm1.51.73.87,2.58-.82-3.2Zm-.62-.08.2,1.37v-2.34Zm-1.35-3.56-1.62-.78,2,1.25Zm-.52,1.78,1.05-.24h-.7Zm1.46-2.58-2.49-3.9,2.61,4.64Zm-.51.39-2.38-2.17,2.64,2.74Zm-.47,1-.17-.1-1-.07,1.39.45Zm.12.56-.24-.07-.68.13,1,.08Z"/><path class="cls-4" d="M327.61,254.69l5.07,5.07a.29.29,0,0,0,.28.07l.16-.08h0s0-.07-.12-.15l-5.15-5.15c-.07-.07-.06-.09,0,0l6.36,3.66a.15.15,0,0,0,.21-.06v0h0a.21.21,0,0,0-.09-.26L328,254.13c-.09,0-.08-.07,0,0l6.5,1.75c.11,0,.18,0,.17-.14h0a.28.28,0,0,0-.2-.24l-6.37-1.71h6.14a.13.13,0,0,0,.14-.13.06.06,0,0,0,0,0h0a.23.23,0,0,0-.22-.19h-6l5.49-1.47a.16.16,0,0,0,.13-.19,0,0,0,0,0,0,0h0a.19.19,0,0,0-.24-.12l-5.47,1.46h0l4.8-2.76c.09,0,.14-.14.12-.2l-.06-.1V250h-.19l-4.81,2.78h0l4-4a.24.24,0,0,0,0-.28h0a.16.16,0,0,0-.23,0l0,0-4,4c-.08.08-.09.06,0,0l3-5.23a.21.21,0,0,0,0-.28h0a.14.14,0,0,0-.19,0s0,0,0,0l-3.06,5.29c-.05.09-.07.09,0,0l1.71-6.4a.26.26,0,0,0-.1-.28h0a.13.13,0,0,0-.18,0l0,.06L327,252.19c0,.1-.05.09-.05,0v-7.33a.23.23,0,0,0-.18-.21h0a.15.15,0,0,0-.18.11v7.43c0,.1,0,.11-.05,0l-2.06-7.48a.45.45,0,0,0-.08-.17h0l-.13.09a.27.27,0,0,0-.09.27l1.88,7h0l-3-5.16c-.05-.09-.1-.08-.13,0s0,.12,0,.18a.5.5,0,0,0,.06.34l2.77,4.81c.05.08,0,.09,0,0l-2.73-2.73c-.06-.07-.11,0-.11.06v.2a.52.52,0,0,0,.14.31l2.42,2.42c.07.07.06.09,0,0l-2.06-1.18c-.09-.06-.14,0-.11.08l.05.16a.53.53,0,0,0,.22.27l1.72,1c.09.06.08.08,0,0l-1.43-.39c-.09,0-.14,0-.11.13v.08a.39.39,0,0,0,.24.23l1.17.3h-1c-.11,0-.16.08-.11.17h0a.35.35,0,0,0,.28.17h.78l-.66.18a.15.15,0,0,0-.12.17s0,0,0,0h0a.22.22,0,0,0,.26.12l.59-.15h0l-.52.29c-.08,0-.14.12-.12.16v.06l0,.1c0,.05.13.05.22,0l.51-.29c.08-.06.1,0,0,0l-.43.42a.26.26,0,0,0,0,.29h0a.15.15,0,0,0,.21,0l0,0,.47-.48c.08-.07.09-.06,0,0l-.38.68a.31.31,0,0,0,0,.32h0c0,.08.14.08.19,0l.49-.84c0-.09.07-.08,0,0l-.31,1.14a.38.38,0,0,0,.07.33l.06.07c.06.08.14.06.17,0l.37-1.41c0-.09.05-.09.05,0v2a.6.6,0,0,0,.12.32l.12.12c.07.06.13,0,.13,0V254.6c0-.09,0-.09.05,0l.87,3.25a.59.59,0,0,0,.2.29l.17.11c.08.06.13,0,.1-.07l-1-3.67h0l2.74,4.74a.54.54,0,0,0,.28.21l.16.06c.1,0,.14,0,.08-.12l-3-5.08C327.52,254.63,327.53,254.58,327.61,254.69Z"/><path class="cls-30" d="M330.59,251.13a.66.66,0,0,0-.41-.3h0s-3.32-.71-4.88.19a1.39,1.39,0,0,0-.57,1.26,4.29,4.29,0,0,0,2,3.37,1.38,1.38,0,0,0,1.37.14h0c1.56-.91,2.6-4.14,2.6-4.14h0A.68.68,0,0,0,330.59,251.13Z"/><path class="cls-11" d="M327.88,253.82c-1.27.81-2.24-.15-2.53-1.16a1.48,1.48,0,0,1,.72-2h0a2.89,2.89,0,0,0-.8.31,1.36,1.36,0,0,0-.57,1.25,4.29,4.29,0,0,0,2,3.37,1.38,1.38,0,0,0,1.37.14h0c1.56-.9,2.6-4.14,2.6-4.14h0a.65.65,0,0,0-.05-.51C330.64,251.62,329.14,253,327.88,253.82Z"/><path class="cls-28" d="M330.64,251.62a.65.65,0,0,0-.05-.51.66.66,0,0,0-.41-.3h0s-3.32-.71-4.88.19a1.15,1.15,0,0,0-.48.66c.22-.4.85-.77,2.46-.82a11,11,0,0,1,3,.22.34.34,0,0,0-.1.42c.1.27.41.36.54.15Z"/></g><g id="freepik--Body--inject-79"><path id="freepik--body--inject-79-2" data-name="freepik--body--inject-79" class="cls-29" d="M371,195.85s-3.19-4.49-10.1-3.88-13.44,3.38-24.79,9.94L264.27,243.4c-11.35,6.56-42.23,24.38-53,32.77s-26.5,21.88-26.5,21.88h0a6,6,0,0,0-2.72,4.71c0,1.24.62,2,1.52,1.93h.14c1.48-.08,14.63-.86,35.7-4.8,22.39-4.19,31.23-9.3,44.82-17.14l98.37-56.81c9.08-5.24,17.68-14.57,18.91-21.84S377,195.79,371,195.85Z"/><path class="cls-2" d="M350.31,200.4c-4.74,5-6.61,10.25-14.18,14.62-7.23,4.17-96.07,53-112,61.16s-19.75,8.89-17.72,3.86h0c-10.07,8.13-21.63,18-21.63,18h0a6,6,0,0,0-2.72,4.71c0,1.24.62,2,1.52,1.93h.14c1.48-.08,14.63-.86,35.7-4.8,22.39-4.19,31.23-9.3,44.82-17.14l98.37-56.81c9.08-5.24,17.68-14.57,18.91-21.84S377,195.79,371,195.85C366.77,195,355,195.31,350.31,200.4Z"/><path class="cls-25" d="M350.31,200.4c-4.74,5-6.61,10.25-14.18,14.62-7.23,4.17-96.07,53-112,61.16s-19.75,8.89-17.72,3.86h0c-10.07,8.13-21.63,18-21.63,18h0a6,6,0,0,0-2.72,4.71c0,1.24.62,2,1.52,1.93h.14c1.48-.08,14.63-.86,35.7-4.8,22.39-4.19,31.23-9.3,44.82-17.14l98.37-56.81c9.08-5.24,17.68-14.57,18.91-21.84S377,195.79,371,195.85C366.77,195,355,195.31,350.31,200.4Z"/><path class="cls-31" d="M377.73,198.4c3.54,1.67,4.13,4.45,3.42,7.23a10.29,10.29,0,0,0,.36-1.53c1.25-7.27-4.53-8.31-10.49-8.25-4.27-.9-16-.5-20.74,4.55C361.52,196.44,373.78,196.53,377.73,198.4Z"/><path class="cls-11" d="M358.83,212.16c-14.16,7.32-44.45,24.45-72.56,40.24l3.78-10.87-33.26,18.38L252.9,271c-7.66,4.24-14.2,7.8-18.93,10.26A280.49,280.49,0,0,1,203,294.72l3.38-9.66-16.79,11.12-1.26,3.6c-2,.62-3.25,1-3.62,1.07-1,.21-1.21-.79-.79-2.26A6.1,6.1,0,0,0,182,302.7c0,1.24.62,2,1.52,1.93h.14c1.48-.08,14.63-.86,35.7-4.8,22.4-4.19,31.23-9.3,44.82-17.14l98.41-56.75A50.93,50.93,0,0,0,376,214.68C380.14,207.28,380.69,200.88,358.83,212.16Z"/></g><g id="freepik--Windows--inject-79"><path class="cls-22" d="M275.45,240.84a8.45,8.45,0,0,1,.26-2.18c.06-.25,0-.35-.28-.22l-.89.52a1.34,1.34,0,0,0-.54.68,8.52,8.52,0,0,0-.26,2.19.26.26,0,0,0,.23.28.26.26,0,0,0,.19-.05l.9-.52A.87.87,0,0,0,275.45,240.84Z"/><path class="cls-22" d="M278.64,239a9.58,9.58,0,0,1,.25-2.2c.07-.24-.05-.33-.27-.2l-.9.51a1.33,1.33,0,0,0-.53.68,8.45,8.45,0,0,0-.26,2.18.27.27,0,0,0,.22.3.25.25,0,0,0,.2-.06l.9-.51A.9.9,0,0,0,278.64,239Z"/><path class="cls-22" d="M281.83,237.17a8.92,8.92,0,0,1,.25-2.19c.07-.25-.05-.35-.27-.22l-.9.52a1.4,1.4,0,0,0-.53.67,7.8,7.8,0,0,0-.26,2.2c0,.25.2.35.42.22l.9-.51A.88.88,0,0,0,281.83,237.17Z"/><path class="cls-22" d="M285,235.32a8.44,8.44,0,0,1,.25-2.18c.07-.26,0-.35-.27-.22l-.9.51a1.45,1.45,0,0,0-.53.69,8.06,8.06,0,0,0-.26,2.19c0,.26.19.35.42.23l.89-.52A.86.86,0,0,0,285,235.32Z"/><path class="cls-22" d="M288.21,233.48a8.56,8.56,0,0,1,.25-2.19c.06-.25,0-.34-.28-.22l-.89.53a1.22,1.22,0,0,0-.53.67,8.06,8.06,0,0,0-.26,2.19c0,.26.19.37.42.24l.89-.52A.87.87,0,0,0,288.21,233.48Z"/><path class="cls-22" d="M291.4,231.64a8.51,8.51,0,0,1,.25-2.19c.06-.24,0-.34-.28-.21l-.88.51a1.25,1.25,0,0,0-.54.68,8.15,8.15,0,0,0-.26,2.19c0,.26.19.36.42.23l.89-.51A.88.88,0,0,0,291.4,231.64Z"/><path class="cls-22" d="M294.59,229.8a8.92,8.92,0,0,1,.25-2.19c.06-.25,0-.34-.27-.21l-.89.51a1.31,1.31,0,0,0-.55.68,8.51,8.51,0,0,0-.25,2.19.25.25,0,0,0,.41.23l.9-.51A.94.94,0,0,0,294.59,229.8Z"/><path class="cls-22" d="M297.78,228a9,9,0,0,1,.24-2.19c.07-.25,0-.35-.26-.22l-.9.53a1.28,1.28,0,0,0-.54.67,8.05,8.05,0,0,0-.25,2.19c0,.26.19.36.41.23l.9-.52A.91.91,0,0,0,297.78,228Z"/><path class="cls-22" d="M301,226.11a8.94,8.94,0,0,1,.24-2.18c.07-.26,0-.34-.26-.22l-.9.52a1.34,1.34,0,0,0-.54.68,8.05,8.05,0,0,0-.25,2.19.25.25,0,0,0,.41.23l.9-.51A.91.91,0,0,0,301,226.11Z"/><path class="cls-22" d="M304.16,224.28a8.58,8.58,0,0,1,.24-2.2c.07-.24,0-.33-.26-.2l-.9.51a1.29,1.29,0,0,0-.53.67,7.8,7.8,0,0,0-.26,2.2.25.25,0,0,0,.41.23l.89-.52A.89.89,0,0,0,304.16,224.28Z"/><path class="cls-22" d="M307.35,222.43a8.38,8.38,0,0,1,.24-2.18c.06-.25,0-.35-.27-.22l-.89.51a1.26,1.26,0,0,0-.53.69,7.68,7.68,0,0,0-.26,2.19c0,.25.19.35.41.23l.89-.52A.89.89,0,0,0,307.35,222.43Z"/><path class="cls-22" d="M310.56,220.59a8.1,8.1,0,0,1,.25-2.19c.05-.25-.05-.34-.28-.21l-.89.52a1.17,1.17,0,0,0-.53.68,7.62,7.62,0,0,0-.26,2.18c0,.26.19.37.41.24l.89-.52A.89.89,0,0,0,310.56,220.59Z"/><path class="cls-22" d="M313.72,218.76a8.6,8.6,0,0,1,.26-2.2c.06-.24,0-.34-.28-.21l-.89.52a1.28,1.28,0,0,0-.54.67,8.52,8.52,0,0,0-.26,2.19c0,.26.2.36.43.23l.88-.51A.89.89,0,0,0,313.72,218.76Z"/><path class="cls-22" d="M316.91,216.91a9.35,9.35,0,0,1,.25-2.18c.07-.26-.05-.35-.27-.22l-.9.51a1.33,1.33,0,0,0-.53.68,8.6,8.6,0,0,0-.26,2.2c0,.25.2.35.42.22l.9-.51A.9.9,0,0,0,316.91,216.91Z"/><path class="cls-22" d="M320.1,215.07a8.51,8.51,0,0,1,.25-2.19c.07-.25-.05-.34-.27-.21l-.9.51a1.33,1.33,0,0,0-.53.68,7.68,7.68,0,0,0-.26,2.19.26.26,0,0,0,.22.29.29.29,0,0,0,.2-.05l.9-.53A.87.87,0,0,0,320.1,215.07Z"/><path class="cls-22" d="M323.29,213.22a8.44,8.44,0,0,1,.25-2.18c.07-.25-.05-.35-.27-.22l-.9.52a1.38,1.38,0,0,0-.53.68,7.68,7.68,0,0,0-.26,2.19c0,.26.19.36.42.23l.89-.52A.86.86,0,0,0,323.29,213.22Z"/><path class="cls-22" d="M326.48,211.39a8.59,8.59,0,0,1,.25-2.2c.07-.24-.05-.33-.28-.2l-.89.51a1.24,1.24,0,0,0-.53.68,7.66,7.66,0,0,0-.26,2.18c0,.26.19.37.42.24l.89-.51A.88.88,0,0,0,326.48,211.39Z"/><path class="cls-22" d="M224.43,271.29a8.39,8.39,0,0,1,.25-2.18c.07-.25-.05-.35-.27-.22l-.9.51a1.41,1.41,0,0,0-.53.68,7.8,7.8,0,0,0-.26,2.2c0,.25.19.35.41.22L224,272A.86.86,0,0,0,224.43,271.29Z"/><path class="cls-22" d="M227.58,269.4a8.51,8.51,0,0,1,.25-2.19c.06-.25,0-.34-.28-.21l-.89.52a1.21,1.21,0,0,0-.53.68,7.62,7.62,0,0,0-.26,2.18c0,.26.19.37.42.24l.89-.52A.86.86,0,0,0,227.58,269.4Z"/><path class="cls-22" d="M230.76,267.43a8.59,8.59,0,0,1,.25-2.2c.07-.24,0-.33-.28-.2l-.89.51a1.24,1.24,0,0,0-.53.68,7.66,7.66,0,0,0-.26,2.18c0,.26.19.37.42.24l.89-.51A.88.88,0,0,0,230.76,267.43Z"/><path class="cls-22" d="M233.93,265.45a8.44,8.44,0,0,1,.25-2.18c.06-.26-.05-.35-.28-.22l-.89.51a1.26,1.26,0,0,0-.53.69,7.68,7.68,0,0,0-.26,2.19c0,.26.19.35.42.23l.89-.52A.86.86,0,0,0,233.93,265.45Z"/><path class="cls-22" d="M237.1,263.54a9,9,0,0,1,.25-2.19c.07-.25,0-.33-.27-.21l-.9.52a1.33,1.33,0,0,0-.53.68,8,8,0,0,0-.26,2.18.26.26,0,0,0,.22.29.29.29,0,0,0,.2-.05l.9-.51A.92.92,0,0,0,237.1,263.54Z"/><path class="cls-22" d="M240.28,261.62a8.51,8.51,0,0,1,.25-2.19c.06-.25-.05-.34-.28-.21l-.88.51a1.25,1.25,0,0,0-.54.68,8.18,8.18,0,0,0-.26,2.2c0,.25.19.35.42.22l.89-.51A.88.88,0,0,0,240.28,261.62Z"/><path class="cls-22" d="M243.46,259.7a8.51,8.51,0,0,1,.25-2.19c.06-.25-.05-.34-.27-.21l-.89.51a1.24,1.24,0,0,0-.54.69,7.61,7.61,0,0,0-.25,2.18c0,.26.18.36.41.24l.89-.52A.86.86,0,0,0,243.46,259.7Z"/><path class="cls-22" d="M246.65,257.79a8.13,8.13,0,0,1,.24-2.19c.07-.25,0-.34-.26-.22l-.9.53a1.32,1.32,0,0,0-.54.67,7.68,7.68,0,0,0-.25,2.19c0,.26.19.36.41.23l.9-.51A.94.94,0,0,0,246.65,257.79Z"/><path class="cls-22" d="M249.84,255.89a8,8,0,0,1,.24-2.19c.06-.25,0-.35-.27-.22l-.89.52a1.28,1.28,0,0,0-.54.67,8.17,8.17,0,0,0-.25,2.2c0,.25.18.36.41.23l.89-.52A.89.89,0,0,0,249.84,255.89Z"/><path class="cls-22" d="M253,254a8.43,8.43,0,0,1,.24-2.18c.06-.26-.05-.35-.27-.22l-.89.51a1.33,1.33,0,0,0-.54.69,8.05,8.05,0,0,0-.25,2.19c0,.26.19.36.41.23l.89-.52A.89.89,0,0,0,253,254Z"/><path class="cls-22" d="M256.23,252.09a9,9,0,0,1,.24-2.19c.07-.25,0-.34-.26-.22l-.9.53a1.25,1.25,0,0,0-.53.67,7.73,7.73,0,0,0-.26,2.19.25.25,0,0,0,.41.23l.9-.51A.91.91,0,0,0,256.23,252.09Z"/><path class="cls-22" d="M259.42,250.2a8,8,0,0,1,.25-2.18c.05-.25-.05-.35-.28-.22l-.89.51a1.28,1.28,0,0,0-.53.68,7.8,7.8,0,0,0-.26,2.2c0,.25.19.35.41.22l.89-.51A.92.92,0,0,0,259.42,250.2Z"/><path class="cls-22" d="M262.62,248.32a8.1,8.1,0,0,1,.25-2.19c.05-.25-.05-.34-.28-.21l-.89.51a1.28,1.28,0,0,0-.53.68,7.68,7.68,0,0,0-.26,2.19c0,.26.19.36.41.24l.89-.53A.89.89,0,0,0,262.62,248.32Z"/><path class="cls-22" d="M265.82,246.44a8.56,8.56,0,0,1,.25-2.19c.07-.25,0-.33-.27-.21l-.9.52a1.3,1.3,0,0,0-.53.67,8.1,8.1,0,0,0-.26,2.19.26.26,0,0,0,.22.29.29.29,0,0,0,.2-.05l.89-.52A.91.91,0,0,0,265.82,246.44Z"/><path class="cls-22" d="M269.07,244.57a8.1,8.1,0,0,1,.25-2.19c.07-.24,0-.34-.27-.21l-1,.56a1.33,1.33,0,0,0-.53.68,7.77,7.77,0,0,0-.26,2.19c0,.26.19.36.42.23l.89-.51A.89.89,0,0,0,269.07,244.57Z"/><path class="cls-22" d="M272.27,242.73a8.46,8.46,0,0,1,.25-2.19c.06-.25,0-.34-.28-.21l-.89.51a1.26,1.26,0,0,0-.53.69,8,8,0,0,0-.27,2.18.27.27,0,0,0,.21.3A.29.29,0,0,0,271,244l.88-.52A.92.92,0,0,0,272.27,242.73Z"/></g><g id="freepik--little-wign--inject-79"><path id="freepik--lttle-wing--inject-79-2" data-name="freepik--lttle-wing--inject-79" class="cls-9" d="M206.42,285.1,157.1,284a17.83,17.83,0,0,0-7.9,1.74L146,287.58l42.48,10a4,4,0,0,0,3.49-.8Z"/><path class="cls-7" d="M192,296.77l13.83-11.19c-3,2.32-11.11,7.28-15.61,8.07-4.86.86-44.17-6.07-44.17-6.07l42.48,10A4.05,4.05,0,0,0,192,296.77Z"/><path class="cls-28" d="M206.42,285.1,157.1,284a17.83,17.83,0,0,0-7.9,1.74L146,287.58h0c3.18-1.36,7.2-2.54,18.77-2s40,.83,40,.83Z"/></g><g id="freepik--wing--inject-79-4" data-name="freepik--wing--inject-79"><g id="freepik--wing--inject-79-5" data-name="freepik--wing--inject-79"><path id="freepik--wing--inject-79-6" data-name="freepik--wing--inject-79" class="cls-9" d="M289.81,240.69a1.75,1.75,0,0,0-.71-.19l-135.19-9a9.75,9.75,0,0,0-7.49,3.38l-3.22,4.18,112.93,21.46c2.1.43,8.33-1.9,14.54-5.48l9.88-5.69C287.21,245.45,291.35,241.58,289.81,240.69Z"/><path class="cls-7" d="M270.67,255l9.88-5.69a50.51,50.51,0,0,0,6.91-4.68c-5.65,4.57-29.39,9.14-42.08,7.9S143.22,239,143.22,239l112.91,21.5C258.2,260.91,264.46,258.58,270.67,255Z"/><path class="cls-28" d="M289.81,240.69a1.75,1.75,0,0,0-.71-.19l-135.19-9a9.75,9.75,0,0,0-7.49,3.38l-2.32,3h0c1.89-2.47,5.14-4.53,10.45-4.31s77.47,5.3,90.81,5.93,38.25,2.36,39.81,2.53c2,.21,4.08.85,2.62,2.26C289.81,242.55,290.64,241.18,289.81,240.69Z"/></g><path class="cls-2" d="M239.25,248.47a101.38,101.38,0,0,0-13.16,6.33s-.22.77.87,1.4a4.68,4.68,0,0,0,2.44.51,74.36,74.36,0,0,0,10.46-7.2.63.63,0,0,0,.06-.87A.61.61,0,0,0,239.25,248.47Z"/><path class="cls-11" d="M239.25,248.47a101.38,101.38,0,0,0-13.16,6.33s-.22.77.87,1.4a4.68,4.68,0,0,0,2.44.51,74.36,74.36,0,0,0,10.46-7.2.63.63,0,0,0,.06-.87A.61.61,0,0,0,239.25,248.47Z"/><path class="cls-6" d="M227,256.2a4.68,4.68,0,0,0,2.44.51,74.36,74.36,0,0,0,10.46-7.2.6.6,0,0,0,.12-.81c0,.6-.57.92-3.95,3.13s-6.3,4-7.73,4a3,3,0,0,1-2.22-1.08S225.87,255.57,227,256.2Z"/><path class="cls-2" d="M211.3,245.08A77.28,77.28,0,0,0,201,250s-.17.61.69,1.11a3.63,3.63,0,0,0,1.92.39,57.82,57.82,0,0,0,8.17-5.63.48.48,0,0,0,0-.68A.47.47,0,0,0,211.3,245.08Z"/><path class="cls-11" d="M211.3,245.08A77.28,77.28,0,0,0,201,250s-.17.61.69,1.11a3.63,3.63,0,0,0,1.92.39,57.82,57.82,0,0,0,8.17-5.63.48.48,0,0,0,0-.68A.47.47,0,0,0,211.3,245.08Z"/><path class="cls-6" d="M201.69,251.14a3.63,3.63,0,0,0,1.92.39,57.82,57.82,0,0,0,8.17-5.63.48.48,0,0,0-.25-.86c.35.24.05.56-2.26,2.12s-4.86,3.45-6,3.57A3.52,3.52,0,0,1,201,250S200.83,250.63,201.69,251.14Z"/><path class="cls-2" d="M183.71,242.31a.37.37,0,0,0,0-.52.39.39,0,0,0-.42-.11,58.35,58.35,0,0,0-7.43,3.58s-.12.44.5.81a2.72,2.72,0,0,0,1.4.29A42.52,42.52,0,0,0,183.71,242.31Z"/><path class="cls-11" d="M183.71,242.31a.37.37,0,0,0,0-.52.39.39,0,0,0-.42-.11,58.35,58.35,0,0,0-7.43,3.58s-.12.44.5.81a2.72,2.72,0,0,0,1.4.29A42.52,42.52,0,0,0,183.71,242.31Z"/><path class="cls-6" d="M176.41,246.07a2.72,2.72,0,0,0,1.4.29,42.81,42.81,0,0,0,5.93-4.05.38.38,0,0,0,.07-.52.39.39,0,0,0-.2-.13c.18.18-.17.65-2.08,1.86s-3.65,2.63-5.59,1.74C175.91,245.26,175.79,245.69,176.41,246.07Z"/></g><path id="freepik--Window--inject-79" class="cls-22" d="M352.54,196.81a5.28,5.28,0,0,0-2.23,3.59,53.52,53.52,0,0,1,20.74-4.55,9.77,9.77,0,0,0-2.75-2.33C362.46,192.63,354.69,195.15,352.54,196.81Z"/><g id="freepik--turbine--inject-79-2" data-name="freepik--turbine--inject-79"><circle class="cls-7" cx="259.59" cy="250.22" r="6.86"/><path class="cls-11" d="M266.44,250.22a6.84,6.84,0,0,0-10.66-5.69,11.53,11.53,0,0,0,2.83,10.41c.48.48-2.81.45-5.44-2.36a6.84,6.84,0,0,0,13.27-2.36Z"/><path class="cls-30" d="M275.34,229.78c-6.63,0-17.94,11.14-18.55,11.93h0a5.1,5.1,0,0,0-1,3.33,13.85,13.85,0,0,0,6.25,10.87,5.05,5.05,0,0,0,3.55.77h0c1-.14,16.22-4.48,19.54-10.22Z"/><path class="cls-11" d="M285.12,246.42l-9.32-15.87c-1.77.19-3.22.57-3.67,1.29-1.39,2.3-1.55,6.68,0,10s1.46,4.46-5.27,6.63-8.49,1.86-10.8-1.15a14,14,0,0,0,5.93,8.56,5.05,5.05,0,0,0,3.55.77h0C266.57,256.5,281.8,252.16,285.12,246.42Z"/><path class="cls-28" d="M275.34,229.78c-6.63,0-17.94,11.14-18.55,11.93h0a4.73,4.73,0,0,0-1,2.67c.43-1.62,2.24-3.15,4.61-5.18A100.48,100.48,0,0,1,270.56,232c1.28-.62-.09,2.63,1.38,6.18l3.84-7.58Z"/><path class="cls-22" d="M285.86,243.19c0,4.58-3.21,6.44-7.18,4.14a15.88,15.88,0,0,1-7.18-12.42c0-4.59,3.22-6.44,7.18-4.15A15.78,15.78,0,0,1,285.86,243.19Z"/><path class="cls-27" d="M278.34,239.05l3.42-3.75-4.05,4Zm-.45-.47,2.34-4.51L277.37,239Zm-.54-.33,1.12-5-1.5,5.52Zm-.62-.19-.19-5.1v5.75Zm6.19-1.18L278,239.75l.68-.13Zm-5.71,5.93,2.76,4.36-2.89-5Zm6.42-4.09-5.53,1.48h.69Zm-5.85,3.78,3.77,3.47-4.07-4.09Zm-1.7-4.45-1.49-4.87,1.44,5.56Zm2.69,2.85,5.08-.23h-5.73Zm-.52,1.17,4.51,2.33-4.94-2.87Zm.33-.55,4.94,1.09L278,241.12Zm-4.26-.31-.17.28L275,241Zm1,1.43v.73l.53-1.69Zm-.71-1-.14.35.63-.63Zm.33.46-.08.47.59-1Zm1.66.81,1,2.82-.9-3.51Zm-.69-.09.23,1.5v-2.57Zm-1.48-4-1.77-.85,2.22,1.37Zm-.57,2,1.15-.24h-.76Zm1.61-2.84-2.74-4.28,2.86,5.09Zm-.57.43-2.61-2.39,2.9,3Zm-.51,1.07-.18-.11-1.08-.08,1.53.51Zm.13.61-.26-.07-.76.14,1.06.09Z"/><path class="cls-4" d="M277.44,241.84l5.57,5.57a.3.3,0,0,0,.31.07.56.56,0,0,0,.17-.09h0a1,1,0,0,0-.13-.16l-5.67-5.68c-.08-.07-.07-.09,0,0l7,4a.16.16,0,0,0,.23-.05s0,0,0,0h0a.25.25,0,0,0-.1-.3l-6.92-3.95c-.1-.06-.09-.08,0-.05l7.15,1.92a.15.15,0,0,0,.18-.08.17.17,0,0,0,0-.07h0a.33.33,0,0,0-.22-.26l-7-1.88h6.7a.16.16,0,0,0,.17-.16.06.06,0,0,0,0,0h0a.25.25,0,0,0-.24-.2H278l6-1.62a.2.2,0,0,0,.14-.23v0h0a.22.22,0,0,0-.26-.14l-6,1.35c-.11,0-.12,0,0-.05l5.28-3.06c.1,0,.15-.14.12-.2l-.06-.12v-.07h-.22l-5.29,3c-.1,0-.11,0,0,0l4.41-4.4a.24.24,0,0,0,0-.3h0a.19.19,0,0,0-.27,0h0L277.49,239c-.08.08-.1.07-.05,0l3.32-5.75a.31.31,0,0,0,0-.32h0a.17.17,0,0,0-.24,0l0,0-3.37,5.83c-.05.1-.08.09-.05,0l1.9-7a.32.32,0,0,0-.12-.32h0a.15.15,0,0,0-.2,0s0,.05,0,.08l-1.92,7.18c0,.11,0,.11,0,0v-8.06a.28.28,0,0,0-.2-.25h0a.19.19,0,0,0-.2.14v8.17c0,.11,0,.11-.05,0l-2.2-7.8c0-.11-.07-.2-.09-.19h0l-.15.1a.3.3,0,0,0-.09.3l2.07,7.7c0,.11,0,.12-.05,0l-3.27-5.67c-.06-.1-.13-.09-.16,0v.19a.56.56,0,0,0,.06.38l3.05,5.29c.06.1,0,.11,0,0l-3-3c-.08-.08-.13-.06-.13.06v.22a.58.58,0,0,0,.17.36l2.65,2.65c.08.08.06.1,0,0l-2.27-1.3c-.1-.06-.15,0-.12.09s0,.12,0,.18a.67.67,0,0,0,.25.3l1.88,1.09c.1.05.09.08,0,.05l-1.56-.43c-.11,0-.17,0-.13.15v.08a.44.44,0,0,0,.27.25l1.29.34h-1.08a.13.13,0,0,0-.13.11.19.19,0,0,0,0,.08h0a.4.4,0,0,0,.3.19h.87l-.73.2a.15.15,0,0,0-.13.18.08.08,0,0,0,0,0h0a.24.24,0,0,0,.29.13l.64-.18c.11,0,.12,0,0,0l-.55.33c-.1.06-.16.13-.14.18v.07l.07.09c0,.06.14.06.24,0l.56-.32c.09-.06.1,0,0,0l-.47.47a.27.27,0,0,0,0,.32h0a.17.17,0,0,0,.24,0l0,0,.53-.52c.08-.08.1-.07,0,0l-.42.74a.36.36,0,0,0,0,.35h0a.11.11,0,0,0,.21,0l.54-.92c.06-.1.08-.09.05,0l-.34,1.27a.44.44,0,0,0,.07.35l.06.07c.08.09.16.07.19,0l.41-1.54c0-.11.05-.11.05,0V244a.57.57,0,0,0,.14.36l.12.13c.08.09.15.06.15-.06v-2.58c0-.11,0-.11.05,0l1,3.57a.71.71,0,0,0,.22.32l.19.12c.1.07.15,0,.12-.08l-1.09-4c0-.11,0-.12,0,0l3,5.22a.64.64,0,0,0,.3.24l.19.05c.11,0,.15,0,.1-.11l-3.24-5.6C277.34,241.74,277.36,241.74,277.44,241.84Z"/><path class="cls-30" d="M280.72,237.92a.74.74,0,0,0-.46-.33h0s-3.64-.78-5.36.21a1.48,1.48,0,0,0-.63,1.38,4.7,4.7,0,0,0,2.14,3.71,1.49,1.49,0,0,0,1.51.15h0c1.72-1,2.87-4.55,2.87-4.55h0A.8.8,0,0,0,280.72,237.92Z"/><path class="cls-11" d="M277.73,240.88c-1.39.89-2.46-.17-2.77-1.28a1.6,1.6,0,0,1,.78-2.13h0a2.93,2.93,0,0,0-.87.32,1.48,1.48,0,0,0-.63,1.38,4.7,4.7,0,0,0,2.14,3.71,1.49,1.49,0,0,0,1.51.15h0c1.72-1,2.87-4.55,2.87-4.55h0a.77.77,0,0,0-.06-.56C280.78,238.48,279.13,240,277.73,240.88Z"/><path class="cls-28" d="M280.78,238.48a.77.77,0,0,0-.06-.56.74.74,0,0,0-.46-.33h0s-3.64-.78-5.36.21a1.21,1.21,0,0,0-.53.72c.24-.45.93-.85,2.71-.9a11.52,11.52,0,0,1,3.21.24.39.39,0,0,0-.11.46c.11.3.47.39.61.17Z"/></g></g></g><circle class="cls-2" cx="128.59" cy="59.78" r="14.09" transform="translate(48.98 177.13) rotate(-80.78)"/><circle class="cls-2" cx="474.43" cy="225.82" r="8.11"/><circle class="cls-3" cx="60.49" cy="457.56" r="18.35" transform="translate(-305.82 176.79) rotate(-45)"/></svg>