<svg xmlns="http://www.w3.org/2000/svg" width="96" height="96"><path d="M70.4 13.5A41.6 41.6 0 0 1 88 39c1.3 12.4.3 23.4-7.2 33.8A39.5 39.5 0 0 1 55 88.2c-12.9 1-23.7-.6-33.8-9.2A39.4 39.4 0 0 1 7.5 50.4 40.7 40.7 0 0 1 19 19a42.4 42.4 0 0 1 51.4-5.5Z" fill="#3B86FF"/><path d="M41 27c3.3 1.5 5.5 3.3 8 5.9l2.3 2.3a4438785203.4 4438785203.4 0 0 0 9 9.2A7.8 7.8 0 0 0 64 47a26.1 26.1 0 0 1-6.3 8.5l-2.5 2.6-2.7 2.6-2.7 2.7-2.5 2.6-2.4 2.3C43 70 43 70 41 70c-2.2-2.3-2.2-2.3-4-5 .3-3.2 1.4-4.8 3.7-7l1.7-1.6 1.7-1.6 1.7-1.7A731 731 0 0 1 50 49c-1.7-4.3-4.9-7-8.1-10.3l-1.7-1.6L36 33l5-6Z" fill="#F7FAFF"/></svg>