<svg version="1.1" id="Layer_1" xmlns="http://www.w3.org/2000/svg" x="0" y="0" viewBox="0 0 500 500" style="enable-background:new 0 0 500 500" xml:space="preserve"><style>.st0{fill:#ecf2fb}.st1{opacity:.6}.st2{fill:#c6cbd3}.st3{fill:#407bff}.st4{fill:#f5b646}.st5{fill:#fedca5}.st6{fill:#8f5f18}.st7{fill:#263238}.st10,.st8,.st9{enable-background:new}.st8{opacity:.1}.st9{opacity:.2}.st10{opacity:.3;fill:#fff}.st11{fill:#536582}.st13{fill:#37474f}.st15{fill:#ebebeb}.st16{fill:#e0e0e0}.st17{fill:#fbfbfb}.st18{fill:#fecb39}.st19{opacity:.15;fill:#010101;enable-background:new}.st20{fill:#f5f5f5}.st21{opacity:.1;fill:#010101;enable-background:new}.st23{fill:#465b65}.st24{opacity:.5;fill:#fff;enable-background:new}.st27{fill:#f0f0f0}</style><g id="freepik--background-simple--inject-24"><path class="st0" d="M450 418c15-15 26-34 32-54 38-125-13-283-151-325-63-19-149-21-202 26-43 38-62 95-76 147-9 32-15 66-28 97-17 41-34 94 3 128 51 47 128 56 197 57a307 307 0 0 0 225-76z"/><path class="st0" d="M450 418c15-15 26-34 32-54 38-125-13-283-151-325-63-19-149-21-202 26-43 38-62 95-76 147-9 32-15 66-28 97-17 41-34 94 3 128 51 47 128 56 197 57a307 307 0 0 0 225-76z"/></g><g id="freepik--buildings-4--inject-24" class="st1"><path class="st2" d="m370 338 24 34-6 4 8 12-6 4-5-6-6 5 13 19-6 3-8-11-26 18-4-6-26 19-9-12-4 3-20-28z"/><path transform="rotate(-35 362 368)" class="st2" d="M350 349h25v38h-25z"/><path class="st2" d="m385 377-21 15-23-33 21-15 23 33zm-21 13 19-14-22-30-19 14 22 30z"/><path transform="rotate(-35 360 370)" class="st2" d="M351 351h18v38h-18z"/><path class="st2" d="m379 381-15 11-23-33 15-11 23 33zm-15 9 13-10-21-30-14 10 22 30z"/><path transform="rotate(-35 369 382)" class="st0" d="M361 382h16v1h-16z"/><path transform="rotate(-35 367 380)" class="st0" d="M359 379h16v1h-16z"/><path transform="rotate(-35 365 377)" class="st0" d="M358 376h16v2h-16z"/><path transform="rotate(-35 363 374)" class="st0" d="M356 374h16v1h-16z"/><path transform="rotate(-35 362 371)" class="st0" d="M354 371h16v1h-16z"/><path transform="rotate(-35 360 369)" class="st0" d="M352 368h16v1h-16z"/><path transform="rotate(-35 358 366)" class="st0" d="M350 365h16v2h-16z"/><path transform="rotate(-35 356 363)" class="st2" d="M348 363h16v1h-16z"/><path transform="rotate(-35 354 361)" class="st2" d="M346 360h16v1h-16z"/><path transform="rotate(-35 352 358)" class="st2" d="M344 357h16v2h-16z"/><path transform="rotate(-35 365 406)" class="st2" d="M361 363h8v86h-8z"/><path class="st2" d="m394 439-8 5-50-71 7-6 51 72zm-7 3 5-4-49-69-6 4 50 69z"/><path transform="rotate(-35 358 396)" class="st2" d="M349 365h18v63h-18z"/><path class="st2" d="m384 417-15 11-37-53 15-10 37 52zm-15 9 13-9-35-51-14 10 36 50z"/><path transform="rotate(-35 347 382)" class="st2" d="M335 360h26v43h-26z"/><path class="st2" d="m371 392-22 16-25-36 22-16 25 36zm-21 14 20-14-24-34-21 14 25 34z"/><path transform="rotate(-35 361 408)" class="st2" d="M357 365h8v86h-8z"/><path class="st2" d="m390 441-8 6-50-72 8-5 50 71zm-7 4 5-4-49-70-5 5 49 69z"/><path transform="rotate(-35 354 399)" class="st2" d="M345 368h18v62h-18z"/><path class="st2" d="m380 420-15 11-37-53 15-11 37 53zm-15 9 14-10-36-50-13 10 35 50z"/><path transform="rotate(-35 344 384)" class="st2" d="M331 363h26v43h-26z"/><path class="st2" d="m368 395-23 16-25-37 22-16 26 37zm-22 14 20-15-24-34-20 15 24 34z"/><path transform="rotate(-35 360 391)" class="st0" d="M358 390h4v3h-4z"/><path transform="rotate(-35 355 395)" class="st0" d="M353 393h4v4h-4z"/><path transform="rotate(-35 350 399)" class="st0" d="M348 397h4v3h-4z"/><path transform="rotate(-35 345 402)" class="st2" d="M343 400h4v4h-4z"/><path transform="rotate(-35 362 405)" class="st0" d="M360 403h4v4h-4z"/><path transform="rotate(-35 357 408)" class="st0" d="M355 407h4v3h-4z"/><path transform="rotate(-35 365 410)" class="st0" d="M364 408h3v4h-3z"/><path transform="rotate(-35 360 414)" class="st0" d="M359 412h3v3h-3z"/><path transform="rotate(-35 369 415)" class="st0" d="M367 413h4v4h-4z"/><path transform="rotate(-35 364 419)" class="st0" d="M362 417h4v4h-4z"/><path transform="rotate(-35 355 385)" class="st0" d="M354 383h3v4h-3z"/><path transform="rotate(-35 350 389)" class="st0" d="M349 387h3v4h-3z"/><path transform="rotate(-35 345 392)" class="st0" d="M344 390h3v4h-3z"/><path transform="rotate(-35 340 396)" class="st2" d="M339 394h3v4h-3z"/><path transform="rotate(-35 351 379)" class="st0" d="M349 377h4v4h-4z"/><path transform="rotate(-35 346 382)" class="st0" d="M344 381h4v3h-4z"/><path transform="rotate(-35 341 386)" class="st0" d="M339 384h4v4h-4z"/><path transform="rotate(-35 336 389)" class="st2" d="M334 388h4v3h-4z"/><path transform="rotate(-35 347 373)" class="st2" d="M345 371h3v3h-3z"/><path transform="rotate(-35 342 376)" class="st2" d="M340 374h3v4h-3z"/><path transform="rotate(-35 337 380)" class="st2" d="M335 378h3v4h-3z"/><path transform="rotate(-35 332 383)" class="st2" d="M330 381h3v4h-3z"/><path transform="rotate(-35 383 439)" class="st0" d="M381 437h4v4h-4z"/><path transform="rotate(-35 379 433)" class="st0" d="M377 431h4v4h-4z"/><path transform="rotate(-35 375 427)" class="st0" d="M373 425h4v4h-4z"/><path transform="rotate(-35 327 410)" class="st2" d="M315 377h25v67h-25z"/><path class="st0" d="m358 431-21 15-40-56 21-15 40 56zm-21 13 19-13-38-54-19 13 38 54z"/><path transform="rotate(-35 325 412)" class="st2" d="M316 379h18v67h-18z"/><path class="st2" d="m353 435-16 11-40-56 16-11 40 56zm-16 9 14-10-38-54-14 10 38 54z"/><path transform="rotate(-35 341 434)" class="st0" d="M333 434h16v1h-16z"/><path transform="rotate(-35 338 430)" class="st0" d="M330 429h16v1h-16z"/><path transform="rotate(-35 334 425)" class="st0" d="M326 424h16v2h-16z"/><path transform="rotate(-35 331 420)" class="st0" d="M323 419h16v2h-16z"/><path transform="rotate(-35 328 415)" class="st0" d="M320 415h16v1h-16z"/><path transform="rotate(-35 324 410)" class="st0" d="M316 410h16v1h-16z"/><path transform="rotate(-35 321 406)" class="st0" d="M313 405h16v1h-16z"/><path transform="rotate(-35 317 401)" class="st0" d="M310 400h16v2h-16z"/><path transform="rotate(-35 314 396)" class="st0" d="M306 396h16v1h-16z"/><path transform="rotate(-35 311 391)" class="st2" d="M303 391h16v1h-16z"/></g><g id="freepik--buildings-4--inject-24_00000139252303465600666760000013788551133685272234_" class="st1"><path class="st2" d="m383 222 26-5 1 4 11-2 5 25 5-1 5 24 11-2 1 5-17 3 1 7 6-1 1 5-11 3 1 5-32 6z"/><path transform="rotate(-11 409 278)" class="st2" d="M394 268h30v19h-30z"/><path class="st2" d="m396 290-4-19 30-6 4 19-30 6zm-3-19 4 18 28-5-3-18-29 5z"/><path transform="rotate(-11 409 275)" class="st2" d="M394 268h30v14h-30z"/><path class="st2" d="m395 285-3-14 30-6 3 14-30 6zm-2-14 3 13 28-5-2-13-29 5z"/><path transform="rotate(-11 421 273)" class="st0" d="M420 267h1v12h-1z"/><path transform="rotate(-11 418 274)" class="st0" d="M418 267h1v13h-1z"/><path transform="rotate(-11 416 274)" class="st0" d="M415 268h1v12h-1z"/><path transform="rotate(-11 413 275)" class="st0" d="M413 268h1v13h-1z"/><path transform="rotate(-11 411 275)" class="st0" d="M410 269h1v12h-1z"/><path transform="rotate(-11 408 276)" class="st0" d="M408 269h1v13h-1z"/><path transform="rotate(-11 405 276)" class="st0" d="M405 270h1v12h-1z"/><path transform="rotate(-11 403 277)" class="st2" d="M402 270h1v13h-1z"/><path transform="rotate(-11 400 277)" class="st2" d="M400 271h1v12h-1z"/><path transform="rotate(-11 398 278)" class="st2" d="M397 271h1v13h-1z"/><path transform="rotate(-11 431 258)" class="st2" d="M397 255h67v6h-67z"/><path class="st2" d="m398 268-1-7 66-13 2 7-67 13zm0-7 1 6 64-13v-5l-65 12z"/><path transform="rotate(-11 422 259)" class="st2" d="M397 252h49v14h-49z"/><path class="st2" d="m399 271-3-14 49-10 3 15-49 9zm-2-14 2 13 47-9-2-13-47 9z"/><path transform="rotate(-11 408 262)" class="st2" d="M391 252h34v20h-34z"/><path class="st2" d="m393 275-4-20 34-7 4 21-34 6zm-3-20 4 19 32-6-4-19-32 6z"/><path transform="rotate(-11 430 254)" class="st2" d="M397 251h67v6h-67z"/><path class="st2" d="m397 264-1-7 67-13 1 7-67 13zm0-6 1 5 65-12-1-6-65 13z"/><path transform="rotate(-11 421 256)" class="st2" d="M397 249h49v13h-49z"/><path class="st2" d="m398 268-3-15 49-9 3 14-49 10zm-2-14 3 12 47-9-3-12-47 9z"/><path transform="rotate(-11 408 258)" class="st2" d="M391 248h33v20h-33z"/><path class="st2" d="m393 272-4-21 33-6 4 20-33 7zm-3-20 3 19 32-7-3-18-32 6z"/><path transform="rotate(-11 420 263)" class="st0" d="M419 262h3v2h-3z"/><path transform="rotate(-11 419 258)" class="st0" d="M418 257h3v3h-3z"/><path transform="rotate(-11 419 254)" class="st0" d="M417 252h3v3h-3z"/><path transform="rotate(-11 418 249)" class="st2" d="M416 248h3v2h-3z"/><path transform="rotate(-11 429 257)" class="st0" d="M427 255h3v3h-3z"/><path transform="rotate(-11 428 252)" class="st0" d="M426 250h3v3h-3z"/><path transform="rotate(-11 433 256)" class="st0" d="M432 254h3v3h-3z"/><path transform="rotate(-11 433 251)" class="st0" d="M431 249h3v3h-3z"/><path transform="rotate(-11 438 255)" class="st0" d="M437 253h3v3h-3z"/><path transform="rotate(-11 437 250)" class="st0" d="M436 249h3v2h-3z"/><path transform="rotate(-11 415 264)" class="st0" d="M413 263h3v3h-3z"/><path transform="rotate(-11 414 259)" class="st0" d="M412 258h3v3h-3z"/><path transform="rotate(-11 413 255)" class="st0" d="M411 253h3v3h-3z"/><path transform="rotate(-11 412 250)" class="st2" d="M410 249h3v3h-3z"/><path transform="rotate(-11 409 265)" class="st0" d="M407 264h3v3h-3z"/><path transform="rotate(-11 408 261)" class="st0" d="M406 259h3v3h-3z"/><path transform="rotate(-11 407 256)" class="st0" d="M405 254h3v3h-3z"/><path transform="rotate(-11 406 251)" class="st2" d="M404 250h3v3h-3z"/><path transform="rotate(-11 403 266)" class="st2" d="M401 265h3v3h-3z"/><path transform="rotate(-11 402 262)" class="st2" d="M400 260h3v3h-3z"/><path transform="rotate(-11 401 257)" class="st2" d="M399 256h3v3h-3z"/><path transform="rotate(-11 400 252)" class="st2" d="M399 251h2v3h-2z"/><path transform="rotate(-11 458 249)" class="st0" d="M457 247h3v3h-3z"/><path transform="rotate(-11 453 250)" class="st0" d="M452 248h3v3h-3z"/><path transform="rotate(-11 448 251)" class="st0" d="M446 249h3v3h-3z"/><path transform="rotate(-11 412 235)" class="st2" d="M386 225h52v19h-52z"/><path class="st0" d="m388 250-4-20 52-10 4 20-52 10zm-3-19 4 18 50-10-3-18-51 10z"/><path transform="rotate(-11 412 232)" class="st2" d="M386 225h52v15h-52z"/><path class="st2" d="m387 245-3-15 53-10 2 15-52 10zm-2-14 3 13 50-10-2-13-51 10z"/><path transform="rotate(-11 433 229)" class="st0" d="M432 223h1v12h-1z"/><path transform="rotate(-11 428 230)" class="st0" d="M428 223h1v13h-1z"/><path transform="rotate(-11 424 231)" class="st0" d="M423 224h1v13h-1z"/><path transform="rotate(-11 419 231)" class="st0" d="M419 225h1v13h-1z"/><path transform="rotate(-11 415 232)" class="st0" d="M415 226h1v12h-1z"/><path transform="rotate(-11 411 233)" class="st0" d="M410 227h1v12h-1z"/><path transform="rotate(-11 406 234)" class="st0" d="M406 228h1v12h-1z"/><path transform="rotate(-11 402 235)" class="st0" d="M401 229h1v12h-1z"/><path transform="rotate(-11 397 236)" class="st0" d="M397 230h1v12h-1z"/><path transform="rotate(-11 393 237)" class="st2" d="M392 230h1v13h-1z"/></g><g id="freepik--buildings-2--inject-24" class="st1"><path class="st2" d="m288 134 10-16 7 5 13-21 48 29 5-9 8 5-9 16 5 3-17 29z"/><path class="st2" d="m287 134 10-16 8 4 13-21 48 29 5-8 9 5-9 15 5 3-18 30-71-41zm11-15-9 15 69 40 17-28-5-3 9-15-8-5-5 8-48-28-12 21-8-5z"/><path transform="rotate(-59 307 128)" class="st2" d="M295 121h23v13h-23z"/><path class="st2" d="m307 141-13-7 12-20 13 7-12 20zm-11-7 10 6 12-18-11-7-11 19z"/><path transform="rotate(-59 309 129)" class="st2" d="M298 126h23v7h-23z"/><path class="st0" d="m307 141-7-4 12-20 7 4-12 20zm-6-4 5 3 12-18-6-4-11 19z"/><path class="st2" d="m346 89-8 8-25 42 11 6 31-51z"/><path class="st2" d="m343 87-9 8-25 41 11 7 31-51z"/><path transform="rotate(-59 342 93)" class="st0" d="M342 90h1v6h-1z"/><path transform="rotate(-59 339 97)" class="st0" d="M339 94h1v6h-1z"/><path transform="rotate(-59 337 101)" class="st0" d="M336 98h1v6h-1z"/><path transform="rotate(-59 334 106)" class="st0" d="M334 103h1v6h-1z"/><path transform="rotate(-59 332 110)" class="st0" d="M331 107h1v6h-1z"/><path transform="rotate(-59 329 114)" class="st0" d="M328 111h1v7h-1z"/><path transform="rotate(-59 326 119)" class="st0" d="M326 116h1v6h-1z"/><path transform="rotate(-59 324 123)" class="st0" d="M323 120h1v6h-1z"/><path transform="rotate(-59 321 128)" class="st0" d="M321 125v6z"/><path transform="rotate(-59 318 132)" class="st0" d="M318 129h1v6h-1z"/><path transform="rotate(-59 316 136)" class="st2" d="M315 133h1v6h-1z"/><path transform="rotate(-59 346 126)" class="st2" d="M321 118h50v16h-50z"/><path transform="rotate(-59 351 129)" class="st2" d="M325 120h51v17h-51z"/><path transform="rotate(-59 362 105)" class="st2" d="M360 93h4v24h-4z"/><path transform="rotate(-59 364 106)" class="st2" d="M362 97h4v19h-4z"/><path transform="rotate(-59 356 110)" class="st0" d="M353 108h5v4h-5z"/><path transform="rotate(-59 361 113)" class="st0" d="M358 111h5v3h-5z"/><path transform="rotate(-59 365 116)" class="st0" d="M363 114h5v3h-5z"/><path transform="rotate(-59 350 107)" class="st2" d="M348 106h5v1h-5z"/><path transform="rotate(-59 352 107)" class="st2" d="M349 107h5v1h-5z"/><path transform="rotate(-59 346 113)" class="st2" d="M344 113h5v1h-5z"/><path transform="rotate(-59 347 114)" class="st2" d="M345 114h5v1h-5z"/><path transform="rotate(-59 342 120)" class="st2" d="M339 120h6v1h-6z"/><path transform="rotate(-59 343 121)" class="st2" d="M341 120h5v1h-5z"/><path transform="rotate(-59 338 127)" class="st2" d="M335 126h6v1h-6z"/><path transform="rotate(-59 339 128)" class="st2" d="M337 127h5v1h-5z"/><path transform="rotate(-59 334 133)" class="st2" d="M331 133h5v1h-5z"/><path transform="rotate(-59 335 134)" class="st2" d="M333 134h5v1h-5z"/><path transform="rotate(-59 352 116)" class="st0" d="M349 115h6v3h-6z"/><path transform="rotate(-59 357 119)" class="st0" d="M354 118h5v3h-5z"/><path transform="rotate(-59 362 122)" class="st0" d="M359 121h5v3h-5z"/><path transform="rotate(-59 348 123)" class="st0" d="M345 122h5v3h-5z"/><path transform="rotate(-59 352 126)" class="st0" d="M350 125h5v3h-5z"/><path transform="rotate(-59 357 129)" class="st0" d="M355 128h5v3h-5z"/><path transform="rotate(-59 343 130)" class="st0" d="M341 128h5v4h-5z"/><path transform="rotate(-59 348 133)" class="st0" d="M346 131h5v4h-5z"/><path transform="rotate(-59 353 136)" class="st0" d="M351 134h5v4h-5z"/><path transform="rotate(-59 339 137)" class="st0" d="M337 135h5v3h-5z"/><path transform="rotate(-59 344 140)" class="st0" d="M342 138h5v3h-5z"/><path transform="rotate(-59 349 143)" class="st0" d="M347 141h5v3h-5z"/><path transform="rotate(-59 350 154)" class="st2" d="M345 146h11v16h-11z"/><path transform="rotate(-59 352 155)" class="st2" d="M346 148h11v13h-11z"/><path transform="rotate(-59 354 148)" class="st2" d="M352 138h4v19h-4z"/><path transform="rotate(-59 355 148)" class="st2" d="M354 140h3v17h-3z"/><path transform="rotate(-59 353 152)" class="st0" d="M353 147h1v10h-1z"/><path transform="rotate(-59 352 154)" class="st0" d="M352 148h1v11h-1z"/><path transform="rotate(-59 351 155)" class="st0" d="M351 150h1v11h-1z"/><path transform="rotate(-59 350 157)" class="st0" d="M350 152v10z"/></g><g id="freepik--buildings-2--inject-24_00000122708046770615891310000000282228974687287475_" class="st1"><path class="st2" d="m175 165-8-39 7-2-5-20 12-2 2 11 64-14 6 29 11-2 4 21z"/><path class="st2" d="m175 165-9-40 7-1-4-20 12-3 2 11 65-13 6 28 10-2 5 22-94 18zm78-37-6-28-65 13-2-11-10 2 4 21-7 1 8 38 92-18-4-20-10 2z"/><path transform="rotate(-12 250 132)" class="st2" d="M242 119h16v27h-16z"/><path class="st2" d="m239 121 17-4 5 27-16 4-6-27zm16-3-15 4 5 24 15-3-5-25z"/><path transform="rotate(-12 246 133)" class="st2" d="M242 120h9v26h-9z"/><path class="st0" d="m239 121 9-2 6 27-9 2-6-27zm8-1-7 1 5 25 8-1-6-25z"/><path class="st2" d="m210 77 14 69 15-4-12-56-6-12z"/><path class="st2" d="m215 76 14 68 15-3-12-56-6-12z"/><path transform="rotate(-12 224 80)" class="st0" d="M221 79h7v1h-7z"/><path transform="rotate(-12 226 86)" class="st0" d="M222 85h7v1h-7z"/><path transform="rotate(-12 227 91)" class="st0" d="M223 91h7v1h-7z"/><path transform="rotate(-12 228 97)" class="st0" d="M224 97h8v1h-8z"/><path transform="rotate(-12 229 103)" class="st0" d="M226 103h7v1h-7z"/><path transform="rotate(-12 230 109)" class="st0" d="M227 109h7v1h-7z"/><path transform="rotate(-12 232 115)" class="st0" d="M228 115h7v1h-7z"/><path transform="rotate(-12 233 121)" class="st0" d="M229 120h8v2h-8z"/><path transform="rotate(-12 234 127)" class="st0" d="M231 126h7v1h-7z"/><path transform="rotate(-12 235 133)" class="st0" d="M232 132h7v1h-7z"/><path transform="rotate(-12 237 139)" class="st2" d="M233 138h7v1h-7z"/><path transform="rotate(-12 207 115)" class="st2" d="M197 85h20v60h-20z"/><path transform="rotate(-12 201 116)" class="st2" d="M191 87h20v59h-20z"/><path transform="rotate(-12 197 86)" class="st2" d="M183 84h29v4h-29z"/><path transform="rotate(-12 194 86)" class="st2" d="M183 84h23v5h-23z"/><path transform="rotate(-12 202 94)" class="st0" d="M201 91h3v6h-3z"/><path transform="rotate(-12 196 95)" class="st0" d="M194 92h4v6h-4z"/><path transform="rotate(-12 189 96)" class="st0" d="M187 93h4v6h-4z"/><path transform="rotate(-12 210 92)" class="st2" d="M209 89h1v6h-1z"/><path transform="rotate(-12 208 92)" class="st2" d="M207 90h2v6h-2z"/><path transform="rotate(-12 212 101)" class="st2" d="M211 98h1v6h-1z"/><path transform="rotate(-12 210 102)" class="st2" d="M209 99h1v6h-1z"/><path transform="rotate(-12 214 110)" class="st2" d="M213 107h1v6h-1z"/><path transform="rotate(-12 212 111)" class="st2" d="M211 108h1v6h-1z"/><path transform="rotate(-12 216 119)" class="st2" d="M215 116h1v6h-1z"/><path transform="rotate(-12 214 120)" class="st2" d="M213 117h1v6h-1z"/><path transform="rotate(-12 218 128)" class="st2" d="M217 125h1v6h-1z"/><path transform="rotate(-12 216 129)" class="st2" d="M215 126h1v6h-1z"/><path transform="rotate(-12 204 102)" class="st0" d="M202 99h4v6h-4z"/><path transform="rotate(-12 198 104)" class="st0" d="M196 101h3v6h-3z"/><path transform="rotate(-12 191 105)" class="st0" d="M189 102h4v6h-4z"/><path transform="rotate(-12 206 112)" class="st0" d="M204 109h4v6h-4z"/><path transform="rotate(-12 200 113)" class="st0" d="M198 110h4v6h-4z"/><path transform="rotate(-12 193 115)" class="st0" d="M191 112h4v6h-4z"/><path transform="rotate(-12 208 121)" class="st0" d="M206 118h4v6h-4z"/><path transform="rotate(-12 202 122)" class="st0" d="M200 119h4v6h-4z"/><path transform="rotate(-12 195 124)" class="st0" d="M193 121h4v6h-4z"/><path transform="rotate(-12 210 130)" class="st0" d="M208 127h4v6h-4z"/><path transform="rotate(-12 203 131)" class="st0" d="M202 128h3v6h-3z"/><path transform="rotate(-12 197 133)" class="st0" d="M195 130h4v6h-4z"/><path transform="rotate(-12 191 145)" class="st2" d="M182 138h19v13h-19z"/><path transform="rotate(-12 190 145)" class="st2" d="M182 138h16v14h-16z"/><path transform="rotate(-12 190 136)" class="st2" d="M178 134h23v4h-23z"/><path transform="rotate(-12 188 137)" class="st2" d="M178 135h20v4h-20z"/><path transform="rotate(-12 189 141)" class="st0" d="M183 141h12v1h-12z"/><path transform="rotate(-12 189 144)" class="st0" d="M183 143h13v1h-13z"/><path transform="rotate(-12 190 146)" class="st0" d="M184 145h12v2h-12z"/><path transform="rotate(-12 190 148)" class="st0" d="M184 148h13v1h-13z"/></g><g id="freepik--buildings-2--inject-24_00000021826947916336012910000007808504581812340924_" class="st1"><path class="st2" d="m243 390-13 20-10-6-16 28-63-38-6 11-11-7 12-20-7-4 23-37z"/><path class="st2" d="m244 389-13 22-11-6-16 27-63-37-6 11-12-8 12-19-7-4 23-39 93 53zm-14 20 12-19-90-52-22 36 6 4-11 20 9 6 7-11 62 37 17-27 10 6z"/><path transform="rotate(-59 219 398)" class="st2" d="M204 389h29v18h-29z"/><path class="st2" d="m218 380 16 10-15 26-17-10 16-26zm15 10-14-8-15 24 14 8 15-24z"/><path transform="rotate(-59 215 396)" class="st2" d="M200 391h30v9h-30z"/><path class="st0" d="m218 380 9 5-15 27-9-6 15-26zm8 6-7-4-15 24 7 4 15-24z"/><path class="st2" d="m167 448 11-10 33-55-15-8-40 67z"/><path class="st2" d="m172 451 11-10 33-55-15-8-40 67z"/><path transform="rotate(-59 172 444)" class="st0" d="M172 440h1v8h-1z"/><path transform="rotate(-59 176 438)" class="st0" d="M175 434h1v8h-1z"/><path transform="rotate(-59 179 432)" class="st0" d="M179 428h1v8h-1z"/><path transform="rotate(-59 183 426)" class="st0" d="M182 423h1v8h-1z"/><path transform="rotate(-59 186 421)" class="st0" d="M185 417h2v8h-2z"/><path transform="rotate(-59 189 415)" class="st0" d="M189 411h1v8h-1z"/><path transform="rotate(-59 193 409)" class="st0" d="M192 405h2v8h-2z"/><path transform="rotate(-59 196 404)" class="st0" d="M196 400h1v8h-1z"/><path transform="rotate(-59 200 398)" class="st0" d="M199 394h1v8h-1z"/><path transform="rotate(-59 203 392)" class="st0" d="M203 388h1v8h-1z"/><path transform="rotate(-59 207 387)" class="st2" d="M206 383h1v8h-1z"/><path transform="rotate(-59 167 400)" class="st2" d="M134 389h66v22h-66z"/><path transform="rotate(-59 161 397)" class="st2" d="M128 386h66v21h-66z"/><path transform="rotate(-59 146 427)" class="st2" d="M144 411h5v33h-5z"/><path transform="rotate(-59 143 426)" class="st2" d="M141 413h5v25h-5z"/><path transform="rotate(-59 155 421)" class="st0" d="M151 419h7v4h-7z"/><path transform="rotate(-59 148 417)" class="st0" d="M145 415h7v4h-7z"/><path transform="rotate(-59 142 413)" class="st0" d="M138 411h7v5h-7z"/><path transform="rotate(-59 162 425)" class="st2" d="M158 425h7v1h-7z"/><path transform="rotate(-59 160 424)" class="st2" d="M157 424h6v1h-6z"/><path transform="rotate(-59 167 417)" class="st2" d="M164 416h6v1h-6z"/><path transform="rotate(-59 165 416)" class="st2" d="M162 415h7v1h-7z"/><path transform="rotate(-59 172 408)" class="st2" d="M169 407h7v2h-7z"/><path transform="rotate(-59 170 407)" class="st2" d="M167 406h7v1h-7z"/><path transform="rotate(-59 178 399)" class="st2" d="M174 398h7v2h-7z"/><path transform="rotate(-59 176 398)" class="st2" d="M172 397h7v2h-7z"/><path transform="rotate(-59 183 390)" class="st2" d="M180 390h6v1h-6z"/><path transform="rotate(-59 181 389)" class="st2" d="M178 389h6v1h-6z"/><path transform="rotate(-59 159 413)" class="st0" d="M156 411h7v4h-7z"/><path transform="rotate(-59 153 409)" class="st0" d="M150 407h6v4h-6z"/><path transform="rotate(-59 147 405)" class="st0" d="M143 403h7v4h-7z"/><path transform="rotate(-59 165 404)" class="st0" d="M162 401h7v5h-7z"/><path transform="rotate(-59 159 400)" class="st0" d="M155 398h7v4h-7z"/><path transform="rotate(-59 152 396)" class="st0" d="M149 394h7v4h-7z"/><path transform="rotate(-59 170 395)" class="st0" d="M167 393h7v4h-7z"/><path transform="rotate(-59 164 391)" class="st0" d="M161 389h6v4h-6z"/><path transform="rotate(-59 158 387)" class="st0" d="M154 385h7v4h-7z"/><path transform="rotate(-59 176 386)" class="st0" d="M172 384h7v4h-7z"/><path transform="rotate(-59 169 382)" class="st0" d="M166 380h7v4h-7z"/><path transform="rotate(-59 163 378)" class="st0" d="M160 376h6v4h-6z"/><path transform="rotate(-59 162 364)" class="st2" d="M154 353h15v22h-15z"/><path transform="rotate(-59 160 363)" class="st2" d="M153 354h14v18h-14z"/><path transform="rotate(-59 157 372)" class="st2" d="M155 359h4v26h-4z"/><path transform="rotate(-59 155 371)" class="st2" d="M153 360h4v22h-4z"/><path transform="rotate(-59 158 366)" class="st0" d="M157 360h1v13h-1z"/><path transform="rotate(-59 159 364)" class="st0" d="M159 357h1v14h-1z"/><path transform="rotate(-59 161 362)" class="st0" d="M160 355h1v14h-1z"/><path transform="rotate(-59 162 359)" class="st0" d="M161 353h2v13h-2z"/></g><g id="freepik--buildings-2--inject-24_00000058568838647597617240000001058887112668655005_" class="st1"><path class="st2" d="m129 299-23-8 4-11-30-11 25-69-12-4 4-12 22 8 3-7 41 14z"/><path class="st2" d="m129 300-24-9 4-11-30-11 25-69-12-4 5-13 21 8 3-7 43 15-35 101zm-22-10 22 8 33-98-40-15-3 7-22-7-3 10 11 5-24 68 30 11-4 11z"/><path transform="rotate(-70 116 277)" class="st2" d="M107 262h18v30h-18z"/><path class="st2" d="m134 273-7 18-29-11 7-17 29 10zm-8 16 6-15-26-10-6 16 26 9z"/><path transform="rotate(-70 117 273)" class="st2" d="M113 258h9v30h-9z"/><path class="st0" d="m134 273-4 10-29-10 4-10 29 10zm-5 9 3-8-27-10-2 8 26 10z"/><path class="st2" d="m57 236 12 9 60 21 5-16-73-26z"/><path class="st2" d="m55 241 12 9 60 22 5-16-73-27z"/><path transform="rotate(-70 62 240)" class="st0" d="M58 240h8v1h-8z"/><path transform="rotate(-70 68 243)" class="st0" d="M64 242h8v1h-8z"/><path transform="rotate(-70 75 245)" class="st0" d="M71 244h8v2h-8z"/><path transform="rotate(-70 81 247)" class="st0" d="M77 247h8v1h-8z"/><path transform="rotate(-70 87 249)" class="st0" d="M83 249h8v1h-8z"/><path transform="rotate(-70 93 252)" class="st0" d="M89 251h8v1h-8z"/><path transform="rotate(-70 100 254)" class="st0" d="M96 253h8v2h-8z"/><path transform="rotate(-70 106 256)" class="st0" d="M102 256h8v1h-8z"/><path transform="rotate(-70 112 258)" class="st0" d="M108 258h8v1h-8z"/><path transform="rotate(-70 118 261)" class="st0" d="M115 260h8v1h-8z"/><path transform="rotate(-70 125 263)" class="st2" d="M121 262h8v2h-8z"/><path transform="rotate(-70 104 227)" class="st2" d="M93 194h22v66H93z"/><path transform="rotate(-70 106 220)" class="st2" d="M95 187h22v66H95z"/><path transform="rotate(-70 73 212)" class="st2" d="M57 210h32v4H57z"/><path transform="rotate(-70 74 209)" class="st2" d="M62 206h25v5H62z"/><path transform="rotate(-70 81 219)" class="st0" d="M79 215h4v7h-4z"/><path transform="rotate(-70 83 212)" class="st0" d="M81 208h4v7h-4z"/><path transform="rotate(-70 86 205)" class="st0" d="M84 201h4v7h-4z"/><path transform="rotate(-70 78 227)" class="st2" d="M77 223h2v7h-2z"/><path transform="rotate(-70 79 225)" class="st2" d="M78 221h1v7h-1z"/><path transform="rotate(-70 87 230)" class="st2" d="M87 227h1v6h-1z"/><path transform="rotate(-70 88 228)" class="st2" d="M88 225h1v6h-1z"/><path transform="rotate(-70 97 234)" class="st2" d="M97 230h1v7h-1z"/><path transform="rotate(-70 98 231)" class="st2" d="M97 228h2v7h-2z"/><path transform="rotate(-70 107 237)" class="st2" d="M106 234h1v6h-1z"/><path transform="rotate(-70 108 235)" class="st2" d="M107 232h1v6h-1z"/><path transform="rotate(-70 116 240)" class="st2" d="M116 237h1v7h-1z"/><path transform="rotate(-70 117 238)" class="st2" d="M117 235h1v7h-1z"/><path transform="rotate(-70 90 222)" class="st0" d="M88 218h4v7h-4z"/><path transform="rotate(-70 92 215)" class="st0" d="M90 211h5v7h-5z"/><path transform="rotate(-70 95 208)" class="st0" d="M93 204h4v7h-4z"/><path transform="rotate(-70 100 226)" class="st0" d="M98 222h4v7h-4z"/><path transform="rotate(-70 103 219)" class="st0" d="M100 215h5v7h-5z"/><path transform="rotate(-70 105 212)" class="st0" d="M103 208h4v7h-4z"/><path transform="rotate(-70 110 229)" class="st0" d="M108 226h4v6h-4z"/><path transform="rotate(-70 112 222)" class="st0" d="M110 219h4v6h-4z"/><path transform="rotate(-70 115 215)" class="st0" d="M113 212h4v6h-4z"/><path transform="rotate(-70 119 233)" class="st0" d="M117 229h4v7h-4z"/><path transform="rotate(-70 122 226)" class="st0" d="M120 222h4v7h-4z"/><path transform="rotate(-70 124 218)" class="st0" d="M122 215h5v7h-5z"/><path transform="rotate(-70 138 214)" class="st2" d="M128 207h21v15h-21z"/><path transform="rotate(-70 139 212)" class="st2" d="M130 205h18v15h-18z"/><path transform="rotate(-70 129 211)" class="st2" d="M116 209h26v4h-26z"/><path transform="rotate(-70 130 209)" class="st2" d="M119 207h22v4h-22z"/><path transform="rotate(-70 135 211)" class="st0" d="M128 211h14v1h-14z"/><path transform="rotate(-70 137 212)" class="st0" d="M131 211h13v2h-13z"/><path transform="rotate(-70 140 213)" class="st0" d="M133 212h14v2h-14z"/><path transform="rotate(-70 143 214)" class="st0" d="M136 213h13v2h-13z"/></g><g id="freepik--Landmark--inject-57"><path class="st3" d="M291 137s-8-12-15-32h1c2 1 3-1 3-2v-4h-6l-6-21c2 0 3-1 3-3h-3l-3-17a1971 1971 0 0 1-2-43v-5h-2V0h-1v10h-2v1l1 1h-1v3l1 2a1971 1971 0 0 1-5 58h-4c0 2 1 3 3 3l-6 21h-6v3c0 2 1 3 3 3h1c-7 19-15 32-15 32h10c0-12 9-25 21-25 11 0 20 13 20 25h10zM260 35h1l2 38h-5l2-38zm-6 64c1-5 3-11 3-17h7l3 17h-13z"/><path class="st3" d="M291 137s-8-12-15-32h1c2 1 3-1 3-2v-4h-6l-6-21c2 0 3-1 3-3h-3l-3-17a1971 1971 0 0 1-2-43v-5h-2V0h-1v10h-2v1l1 1h-1v3l1 2a1971 1971 0 0 1-5 58h-4c0 2 1 3 3 3l-6 21h-6v3c0 2 1 3 3 3h1c-7 19-15 32-15 32h10c0-12 9-25 21-25 11 0 20 13 20 25h10zM260 35h1l2 38h-5l2-38zm-6 64c1-5 3-11 3-17h7l3 17h-13z"/><path class="st4" d="M291 137s-8-12-15-32h1c2 1 3-1 3-2v-4h-6l-6-21c2 0 3-1 3-3h-3l-3-17a1971 1971 0 0 1-2-43v-5h-2V0h-1v10h-2v1l1 1h-1v3l1 2a1971 1971 0 0 1-5 58h-4c0 2 1 3 3 3l-6 21h-6v3c0 2 1 3 3 3h1c-7 19-15 32-15 32h10c0-12 9-25 21-25 11 0 20 13 20 25h10zM260 35h1l2 38h-5l2-38zm-6 64c1-5 3-11 3-17h7l3 17h-13z"/></g><g id="freepik--building-5--inject-22"><path transform="rotate(-44 138 188)" class="st3" d="M131 176h15v23h-15z"/><path transform="rotate(-44 138 188)" class="st4" d="M131 176h15v23h-15z"/><path class="st3" d="M132 167c-3-3-16-1-16-1s-2 12 1 15l7 4 11-11-3-7z"/><path class="st5" d="M132 167c-3-3-16-1-16-1s-2 12 1 15l7 4 11-11-3-7z"/><path class="st4" d="m125 185-7-4c-2-3-1-10-1-11l-1-5 2 4 2 10 5 5v1zm1-1-4-8-2-7-4-4 5 3 4 7 2 8-1 1zm3-3-2-10-7-6h2s5 2 7 5 1 10 1 10l-1 1z"/><path class="st4" d="m131 178 1-7-5-5h3c2 1 3 2 3 4v7l-2 1z"/><path class="st3" d="M116 163a2 2 0 1 1-3 3 2 2 0 0 1 3-3z"/><path class="st4" d="M116 163a2 2 0 1 1-3 3 2 2 0 0 1 3-3z"/><path transform="rotate(-44 132 182)" class="st3" d="M124 179h17v7h-17z"/><path transform="rotate(-44 132 182)" class="st6" d="M124 179h17v7h-17z"/><path transform="rotate(-44 144 194)" class="st3" d="M135 190h18v7h-18z"/><path transform="rotate(-44 144 194)" class="st6" d="M135 190h18v7h-18z"/><path class="st7" d="m133 192-1 1h1l3 4 2-2-4-3h-1zm9-9v1l3 4 2-2-3-3h-2zm-5 4v2l3 3 2-2-3-3h-2z"/><path transform="rotate(-44 158 168)" class="st3" d="M150 157h16v23h-16z"/><path transform="rotate(-44 158 168)" class="st4" d="M150 157h16v23h-16z"/><path class="st3" d="M151 148c-3-3-15-2-15-2s-2 13 1 16l7 4 11-11c0-3-2-5-4-7z"/><path class="st5" d="M151 148c-3-3-15-2-15-2s-2 13 1 16l7 4 11-11c0-3-2-5-4-7z"/><path class="st4" d="m144 166-6-5c-2-2-1-10-1-11l-1-4 2 4 2 10 5 5-1 1zm2-2-4-7-2-8-4-3c2 0 4 1 5 3l4 6 2 8-1 1z"/><path class="st4" d="m148 162-1-11c-1-2-7-5-7-5h2s5 1 7 4l1 10-2 2z"/><path class="st4" d="M151 159v-7c0-3-2-5-4-6l3 1 3 3v7l-2 2z"/><path class="st3" d="M136 143a2 2 0 1 1-3 3 2 2 0 0 1 3-3z"/><path class="st4" d="M136 143a2 2 0 1 1-3 3 2 2 0 0 1 3-3z"/><path transform="rotate(-44 152 163)" class="st3" d="M144 159h17v7h-17z"/><path transform="rotate(-44 152 163)" class="st6" d="M144 159h17v7h-17z"/><path transform="rotate(-45 163 174)" class="st6" d="M155 171h17v7h-17z"/><path class="st7" d="m153 172-1 2h1l3 3 1-2-3-3h-1zm9-9-1 2h1l3 3 1-2-3-3h-1zm-5 5v1l3 4 2-2-3-3h-2z"/><path class="st3" d="M147 170c-2-2-11-1-11-1s-1 8 1 11l5 2 8-7c0-2-1-4-3-5z"/><path class="st4" d="M147 170c-2-2-11-1-11-1s-1 8 1 11l5 2 8-7c0-2-1-4-3-5z"/><path transform="rotate(-44 151 183)" class="st3" d="M145 177h11v12h-11z"/><path transform="rotate(-44 151 183)" class="st5" d="M145 177h11v12h-11z"/><path class="st8" d="m142 182-4-3c-2-1-1-7-1-8l-1-2 2 2 2 7 3 4h-1z"/><path class="st8" d="m144 181-4-5v-5l-3-3 3 2 3 5 1 5v1z"/><path class="st8" d="m145 180-1-8-5-4h1l5 4 1 7-1 1z"/><path class="st8" d="M147 178v-6l-3-3h2c1 1 2 1 2 3v4l-1 2z"/><path class="st3" d="M137 167v2h-2v-2h2z"/><path class="st4" d="M137 167v2h-2v-2h2z"/><path transform="rotate(-44 147 180)" class="st3" d="M142 178h11v4h-11z"/><path transform="rotate(-44 147 180)" class="st6" d="M142 178h11v4h-11z"/><path class="st7" d="m147 186 1 2 3 3 1-1-3-4h-2zm7-6v2l4 3 1-1-4-4h-1zm-3 3v2l3 3 2-1-4-4h-1z"/><path transform="rotate(-44 179 148)" class="st3" d="M171 137h15v23h-15z"/><path transform="rotate(-44 179 148)" class="st4" d="M171 137h15v23h-15z"/><path class="st3" d="M172 128c-3-4-16-2-16-2s-1 12 2 16c2 1 4 3 7 3l11-11-4-6z"/><path class="st5" d="M172 128c-3-4-16-2-16-2s-1 12 2 16c2 1 4 3 7 3l11-11-4-6z"/><path class="st4" d="m165 145-6-4c-3-2-1-10-1-11l-2-4 3 3c0 2 0 9 2 10l5 5-1 1z"/><path class="st4" d="m167 144-5-8-1-7-4-4 5 3c2 2 3 7 3 7l3 8-1 1z"/><path class="st4" d="m169 141-1-10c-1-2-8-5-8-5h2s5 1 7 4 1 10 1 10l-1 1z"/><path class="st4" d="M172 139v-8l-4-5h2l4 4v7l-2 2z"/><path class="st3" d="M157 123a2 2 0 1 1-3 3 2 2 0 0 1 3-3z"/><path class="st4" d="M157 123a2 2 0 1 1-3 3 2 2 0 0 1 3-3z"/><path transform="rotate(-44 173 142)" class="st3" d="M165 139h16v7h-16z"/><path transform="rotate(-44 173 142)" class="st6" d="M165 139h16v7h-16z"/><path transform="rotate(-45 184 154)" class="st6" d="M175 151h18v7h-18z"/><path class="st7" d="M173 152v2l3 3 2-2-3-3h-2zm9-9v2l3 3 2-2-3-3h-2zm-4 4v2l3 3 2-1-3-4h-2z"/><path class="st3" d="M168 150c-2-3-11-2-11-2s-1 9 1 11c1 2 3 3 5 3l8-8-3-4z"/><path class="st4" d="M168 150c-2-3-11-2-11-2s-1 9 1 11c1 2 3 3 5 3l8-8-3-4z"/><path transform="rotate(-44 171 163)" class="st3" d="M166 156h11v13h-11z"/><path transform="rotate(-44 171 163)" class="st5" d="M166 156h11v13h-11z"/><path class="st8" d="m163 162-4-3c-2-2-1-7-1-8l-1-3 2 3 1 7 4 3-1 1z"/><path class="st8" d="m164 161-3-5-1-6-3-2 4 2 2 5 2 5-1 1zm2-2-1-7-5-4h1s4 1 5 3l1 7-1 1z"/><path class="st8" d="M168 157v-5l-3-4 2 1 2 2v5l-1 1z"/><path class="st3" d="M157 146v2h-2v-2h2z"/><path class="st4" d="M157 146v2h-2v-2h2z"/><path transform="rotate(-44 168 159)" class="st3" d="M162 158h12v3h-12z"/><path transform="rotate(-44 168 159)" class="st6" d="M162 158h12v3h-12z"/><path class="st7" d="M168 166v2l4 3 1-1-3-4h-2zm7-6v1l3 4 2-2-4-3h-1zm-4 3 1 1 3 4 1-2-3-3h-2z"/></g><g id="freepik--building-4--inject-22"><path class="st4" d="m96 311 6 28s-14 3-17-11c-4-13 11-17 11-17z"/><path class="st6" d="m108 349 2 6c-2 1-4 0-4-2-1-2 0-4 2-4zm-13-56 1 7-4-3c0-2 1-3 3-4z"/><path transform="rotate(-14 107 323)" class="st3" d="M102 297h11v51h-11z"/><path transform="rotate(-14 107 323)" class="st5" d="M102 297h11v51h-11z"/><path transform="rotate(-14 101 325)" class="st3" d="M99 299h3v51h-3z"/><path transform="rotate(-14 101 325)" class="st6" d="M99 299h3v51h-3z"/><path transform="rotate(-14 125 319)" class="st3" d="M112 293h26v51h-26z"/><path transform="rotate(-14 125 319)" class="st4" d="M112 293h26v51h-26z"/><path transform="rotate(-14 122 307)" class="st3" d="M109 305h26v4h-26z"/><path transform="rotate(-14 122 307)" class="st6" d="M109 305h26v4h-26z"/><path transform="rotate(-14 128 331)" class="st3" d="M115 328h26v5h-26z"/><path transform="rotate(-14 128 331)" class="st6" d="M115 328h26v5h-26z"/><path transform="rotate(-14 113 292)" class="st3" d="M95 289h36v6H95z"/><path transform="rotate(-14 113 292)" class="st6" d="M95 289h36v6H95z"/><path transform="rotate(-14 127 348)" class="st3" d="M109 345h36v6h-36z"/><path transform="rotate(-14 127 348)" class="st6" d="M109 345h36v6h-36z"/><path transform="rotate(-14 97 295)" class="st3" d="M95 291h4v8h-4z"/><path transform="rotate(-14 97 295)" class="st4" d="M95 291h4v8h-4z"/><path transform="rotate(-14 111 352)" class="st3" d="M109 348h4v8h-4z"/><path transform="rotate(-14 111 352)" class="st4" d="M109 348h4v8h-4z"/><path class="st3" d="m112 337-6-14-1-14 4-1 7 28z"/><path class="st6" d="m112 337-6-14-1-14 4-1 7 28z"/><path class="st7" d="m121 340 2 2 3-1-1-4-3 1-1 2zm12-3 2 2 3-1v-4l-4 1-1 2zm-22-36 2 2 4-1-1-4-4 1-1 2zm12-2 2 1 4-1-1-3-3 1-2 2zm5 19 4 2 6-1-1-6-7 1-2 4zm-13 3c0 2 2 3 4 2l6-1-2-6-6 2-2 3z"/></g><g id="freepik--building-3--inject-22"><path transform="rotate(-90 285 434) scale(1.00001)" class="st4" d="M285 432h1v4h-1z"/><path class="st4" d="M234 433h4v2h-4z"/><path transform="rotate(-90 262 434) scale(1.00001)" class="st4" d="M261 432h1v4h-1z"/><path transform="rotate(-90 267 434) scale(1.00001)" class="st4" d="M267 432h1v4h-1z"/><path transform="rotate(-90 256 434) scale(1.00001)" class="st4" d="M255 432h2v4h-2z"/><path transform="rotate(-90 279 434) scale(1.00001)" class="st4" d="M279 432h1v4h-1z"/><path class="st4" d="M241 433h3v2h-3z"/><path transform="rotate(-90 249 434) scale(1.00001)" class="st4" d="M249 432h1v4h-1z"/><path transform="rotate(-90 273 434) scale(1.00001)" class="st4" d="M273 432h1v4h-1z"/><path transform="rotate(-90 256 420) scale(1.00001)" class="st4" d="M242 387h28v65h-28z"/><path class="st7" d="m262 415 1-2h1v-7h-4v7l2 2zm6 10 1-2v-3h-3v3l2 2zm-12 0 2-2v-3h-3v3l1 2z"/><path transform="rotate(-90 235 419) scale(1.00001)" class="st9" d="M235 417h1v3h-1z"/><path class="st3" d="M245 441v-1h1v1h1v-1h1v1-1h1v1h1v-1h1v1h1v-5h-8v5z"/><path class="st6" d="M245 441v-1h1v1h1v-1h1v1-1h1v1h1v-1h1v1h1v-5h-8v5z"/><path transform="rotate(-90 248 421) scale(1.00001)" class="st3" d="M233 418h30v6h-30z"/><path transform="rotate(-90 248 421) scale(1.00001)" class="st5" d="M233 418h30v6h-30z"/><path class="st7" d="m248 433 1-2v-2h-2v2l1 2zm0-8 1-1v-2h-2v2l1 1zm0-7 1-1v-2h-2v2l1 1z"/><path transform="rotate(-90 247 419) scale(1.00001)" class="st9" d="M246 418h1v3h-1z"/><path transform="rotate(-90 248 421) scale(1.00001)" class="st9" d="M248 419h1v3h-1z"/><path transform="rotate(-90 247 409) scale(1.00001)" class="st9" d="M246 408h1v3h-1z"/><path transform="rotate(-90 248 411) scale(1.00001)" class="st9" d="M248 410h1v2h-1z"/><path transform="rotate(-90 250 428) scale(1.00001)" class="st9" d="M249 427h1v3h-1z"/><path transform="rotate(-90 250 427) scale(1.00001)" class="st9" d="M250 426h1v2h-1z"/><path class="st3" d="M272 441v-1h1v1h1v-1h1v1h1v-1h1v1h1v-1h1v1-5h-8v5z"/><path class="st6" d="M272 441v-1h1v1h1v-1h1v1h1v-1h1v1h1v-1h1v1-5h-8v5z"/><path transform="rotate(-90 275 421) scale(1.00001)" class="st3" d="M260 418h31v6h-31z"/><path transform="rotate(-90 275 421) scale(1.00001)" class="st5" d="M260 418h31v6h-31z"/><path class="st7" d="m275 433 1-1v-3h-2v3l1 1zm0-7 1-2v-2h-2v2l1 2zm0-8 1-1v-2h-2v2l1 1z"/><path transform="rotate(-90 274 419) scale(1.00001)" class="st9" d="M273 418h2v3h-2z"/><path transform="rotate(-90 275 421) scale(1.00001)" class="st9" d="M275 419h1v3h-1z"/><path transform="rotate(-90 274 410) scale(1.00001)" class="st9" d="M273 408h2v3h-2z"/><path transform="rotate(-90 275 411) scale(1.00001)" class="st9" d="M275 410h1v3h-1z"/><path transform="rotate(-90 277 429) scale(1.00001)" class="st9" d="M276 427h2v3h-2z"/><path transform="rotate(-90 278 427) scale(1.00001)" class="st9" d="M277 426h1v2h-1z"/><path class="st3" d="M224 449v-1h2v1h2v-1h2v1h1v-1h2v1h2v-1h2v1h1v-7h-15v7z"/><path class="st6" d="M224 449v-1h2v1h2v-1h2v1h1v-1h2v1h2v-1h2v1h1v-7h-15v7z"/><path transform="rotate(-90 230 424) scale(1.00001)" class="st3" d="M212 417h37v13h-37z"/><path transform="rotate(-90 230 424) scale(1.00001)" class="st5" d="M212 417h37v13h-37z"/><path class="st7" d="m230 439 1-2v-8h-2v8l1 2zm0-14c1 0 2-1 2-3v-7h-3v7l1 3z"/><path transform="rotate(-90 226 423) scale(1.00001)" class="st9" d="M225 422h2v3h-2z"/><path transform="rotate(-90 227 425) scale(1.00001)" class="st9" d="M227 423h1v3h-1z"/><path transform="rotate(-90 227 422) scale(1.00001)" class="st9" d="M227 420h1v3h-1z"/><path transform="rotate(-90 226 435) scale(1.00001)" class="st9" d="M225 434h2v3h-2z"/><path transform="rotate(-90 227 437) scale(1.00001)" class="st9" d="M227 436h1v3h-1z"/><path transform="rotate(-90 234 417) scale(1.00001)" class="st9" d="M233 416h1v3h-1z"/><path transform="rotate(-90 234 415) scale(1.00001)" class="st9" d="M233 413h1v3h-1z"/><path transform="rotate(-90 234 431) scale(1.00001)" class="st9" d="M233 430h1v3h-1z"/><path class="st3" d="M286 450v-2h2v2h1v-2h3v2h1v-2h2v2h1v-2h3v2h1v-8h-15l-1 6v2z"/><path class="st6" d="M286 450v-2h2v2h1v-2h3v2h1v-2h2v2h1v-2h3v2h1v-8h-15l-1 6v2z"/><path transform="rotate(-90 292 424) scale(1.00001)" class="st3" d="M274 418h36v13h-36z"/><path transform="rotate(-90 292 424) scale(1.00001)" class="st5" d="M274 418h36v13h-36z"/><path class="st7" d="m292 439 1-2v-8h-2v8l1 2zm0-14 1-2v-8h-2v8l1 2z"/><path transform="rotate(-90 288 423) scale(1.00001)" class="st9" d="M287 422h1v3h-1z"/><path transform="rotate(-90 289 425) scale(1.00001)" class="st9" d="M288 424h2v2h-2z"/><path transform="rotate(-90 289 422) scale(1.00001)" class="st9" d="M289 420h1v3h-1z"/><path transform="rotate(-90 288 436) scale(1.00001)" class="st9" d="M287 434h1v3h-1z"/><path transform="rotate(-90 289 437) scale(1.00001)" class="st9" d="M288 436h2v3h-2z"/><path transform="rotate(-90 296 418) scale(1.00001)" class="st9" d="M295 416h1v3h-1z"/><path transform="rotate(-90 296 415) scale(1.00001)" class="st9" d="M295 414h1v3h-1z"/><path transform="rotate(-90 296 432) scale(1.00001)" class="st9" d="M295 430h1v3h-1z"/><path transform="rotate(-90 235 433) scale(1.00001)" class="st9" d="M235 431h1v3h-1z"/></g><g id="freepik--building-2--inject-22"><path transform="rotate(-71 411 316)" class="st3" d="M398 293h27v47h-27z"/><path transform="rotate(-71 415 307)" class="st4" d="M411 283h8v47h-8z"/><path transform="rotate(-71 408 326)" class="st4" d="M405 303h7v47h-7z"/><path transform="rotate(-71 411 316)" class="st5" d="M405 293h13v47h-13z"/><path transform="rotate(-71 399 322)" class="st3" d="M358 309h81v27h-81z"/><path transform="rotate(-71 399 322)" class="st4" d="M358 309h81v27h-81z"/><path transform="rotate(-71 413 327)" class="st3" d="M372 326h81v3h-81z"/><path transform="rotate(-71 413 327)" class="st6" d="M372 326h81v3h-81z"/><path transform="rotate(-71 435 325)" class="st3" d="M421 323h28v3h-28z"/><path transform="rotate(-71 435 325)" class="st6" d="M421 323h28v3h-28z"/><path class="st3" d="m432 338 9-26 14 20z"/><path class="st4" d="m441 312 14 20-16-15zm-9 26 23-6-21 1zm5-15 18 9-19-4z"/><path class="st5" d="m439 317 16 15-18-9zm-5 16 2-5 19 4z"/><path class="st7" d="m404 300-2-3-8-3-1 5 8 3c1 0 2 0 3-2zm-15 41c1-1 0-3-1-3l-8-3-2 5 8 2c2 1 3 0 3-1zm32-50c1-1 0-1-1-1l-5-2-1 1 5 2h2zm-24 69-2-1-5-2v2l5 2 2-1zm13-37-1-1-5-2-1 1 5 2h2zm6-16-2-1-5-2v1l5 2h2zm-13 35-1-2-5-1-1 1 5 2h2zm4-10-2-1-5-2v2l5 1h2zm-7 19-1-1-5-2-1 1 5 2h2zm13-36-1-1-5-2-1 1 5 2h2zm19-2c1-1 0-1-1-1l-5-2-1 1 5 2h2zm-3 9-1-1-5-2-1 2 5 2 2-1zm-4 10-1-1-5-2-1 2 5 1h2zm-7-33-1-1-5-2-1 1 5 2h2z"/></g><g id="freepik--building-1--inject-22"><path transform="rotate(-32 376 167)" class="st3" d="M371 158h11v18h-11z"/><path transform="rotate(-32 376 167)" class="st6" d="M371 158h11v18h-11z"/><path transform="rotate(-32 406 214)" class="st3" d="M401 205h10v19h-10z"/><path transform="rotate(-32 406 214)" class="st6" d="M401 205h10v19h-10z"/><path class="st3" d="m391 171-12-1 26 41 4-12z"/><path class="st6" d="m391 171-12-1 26 41 4-12z"/><path transform="rotate(-32 383 196)" class="st3" d="M373 172h21v48h-21z"/><path transform="rotate(-32 383 196)" class="st5" d="M373 172h21v48h-21z"/><path transform="rotate(-32 388 204)" class="st3" d="M378 200h21v9h-21z"/><path transform="rotate(-32 388 204)" class="st4" d="M378 200h21v9h-21z"/><path transform="rotate(-32 378 188)" class="st3" d="M368 183h20v9h-20z"/><path transform="rotate(-32 378 188)" class="st4" d="M368 183h20v9h-20z"/><path transform="rotate(-32 399 187)" class="st3" d="M390 179h19v16h-19z"/><path transform="rotate(-32 399 187)" class="st5" d="M390 179h19v16h-19z"/><path transform="rotate(-32 412 179)" class="st3" d="M406 175h12v8h-12z"/><path transform="rotate(-32 412 179)" class="st4" d="M406 175h12v8h-12z"/><path transform="rotate(-32 364 172)" class="st3" d="M357 166h15v12h-15z"/><path transform="rotate(-32 364 172)" class="st4" d="M357 166h15v12h-15z"/><path transform="rotate(-32 397 223)" class="st3" d="M390 217h14v13h-14z"/><path transform="rotate(-32 397 223)" class="st4" d="M390 217h14v13h-14z"/><path class="st4" d="M428 169c-2-2-4-2-6-1l-7 4 4 7 7-5c2-1 3-3 2-5z"/><path transform="rotate(-32 419 171)" class="st10" d="M415 170h7v2h-7z"/><path transform="rotate(-32 422 176)" class="st10" d="M418 175h8v2h-8z"/><path transform="rotate(-32 420 173)" class="st10" d="M416 172h8v2h-8z"/><path transform="rotate(-32 421 174)" class="st10" d="M417 174h8v1h-8z"/><path class="st7" d="m385 195-4-1-8 5 3 5 8-5 1-4zm-10-15h-3l-8 5 2 3 8-4c1-1 2-3 1-4zm19 30h-4l-8 4 3 4 8-5 1-3zm-21-33-2-1-3 2 2 2 2-2 1-1zm32 2h-2l-3 2 2 2 2-2 1-2zm3 5-2-1-3 2 1 2 3-1 1-2zm-8-2h-2l-3 2 2 2 3-2v-2zm3 5-2-1-3 2 2 2 2-1 1-2zm-8-2h-2l-2 2 1 2 3-2v-2zm3 5-2-1-2 2 1 2 3-1v-2zm-2 24-2-1-3 2 2 2 3-1v-2z"/></g><g id="freepik--Earth--inject-22"><path class="st11" d="m397 244 2 13c8 71-39 137-109 152l-3 1a139 139 0 0 1-163-108 139 139 0 1 1 273-58z"/><path d="M281 165c3-1 3-4 3-7v-12c-5-1-6-7-4-11a139 139 0 0 1 119 122v1c-4 2-7 0-10-2l-10-1c0-4-1-7-3-11-1-1-1 0-1 1l-1 5-2 4-5 2c-2 0-3 2-4 4l-1 6c-3-4-7 0-11-3l-3-2-3 4-2-2-1-3h-3l-2 4c0 1-2 2-3 1-2-2-1-4 0-6l2-6-3 1v1h-11a547 547 0 0 0 0 14 119 119 0 0 0-13-8v-2l-5-1v-2l2-1v-2c-2-3-6-4-9-2v3c1 3-2 3-4 2-3 0-5-3-5-5-1-3-7-20-13-17l-1 2v5c0 2-2 4-4 4l-1-1h-7l-2-1h-3l1 4h-3v-5l-2-2-4-2 1-2 3-1c4-3 2-9 8-9 0 1 2 3 3 2h1c2-1 3-4 5-4l2 1c2 0 3-3 3-5 1-4-2-4-3-8l1-6-1-5c0-4 6-3 9-3-2-2-1-5 1-8 3-3 3-3 2-7l2-2h5l2-1c3 0 4 3 6 4s4 2 6 1l-1-3-4-2-4-2-1-1h-18l-9-4-1-1h1l1-1h4c-2-1 2-6 3-6l5-1c4 0 6-1 3-5-2-1-3-3-2-4l2-2v-3l-1-2h-1c-1-1 0-3 1-3m-89 201 4-2c1 0 2-2 3-1l1 4 1 1h1l3-1c0-1-2-1-2-3l1-1c4-3 0-7-2-10-3-2-4-6-5-10l1-4 3-2c3-1 4-4 6-5 6-5 13 2 11 8 0 4-1 3 1 7 0 1 0 3 2 3 1 1 3 0 3-1v-1l-1-6 7-1a3 3 0 0 1 4-4c0 1 0 3 1 2h1l3-3c2-1 7-2 7-4v-2l3-1 2 1v2c2 3 5 0 6 1l6 6 5-5c3 0 4 2 5 4l3 8 1 3-4 2v2c0 2-2 5-4 5l-1 2-1 3-2-2v-6l-2-1-4-1c-2 0-3 2-3 3v2l-2 1-3 1-1 2c-1 1-3 2-4 0l-1-1c0-3-5-6-7-3-1 2 3 6 0 8l-4 2 1 1 6-3c1 2 0 4 2 5h5l1 2c1 2 1 8 5 7h1l2 4c-2 1-3 0-5-1-1 0-3 0-4 2l1 3-1 1 2 3c1 2-1 3-3 3-2 1-4 0-5 2l-1 1-4 2c-3 1 5 11 5 11 2 5-3 9-5 13l-3 6a140 140 0 0 1-108-94c3 0 9 1 12-1 3-3-1-9 3-11 1-1 1 1 2 2l2 1 1 1c1 1 3-1 3-2l4-3c3-1 6 0 9 1l8 2c-2 0-2 2-1 3l3 2 2 5c2 2 5 3 5 5 1 3-2 5-4 7 2 3 6 5 7 8v5l-2 8c-1 2-1 4 1 5l2 1 5 1h2l1-1c2-4 2-8 1-11l15 1c-2-3-1-6-2-9m95-36 2-5-1-2v-3h4l2 2 1 2c0 2 2 2 3 3l2 4-2 2c-1 2 2 4 1 6-1 3-4 2-7 2l-5-4c-5-4-3-3 0-7zm66 61c-19 25-48 42-78 48l-3 1c-5-4-8-12-1-15l-1-2c-1-1 0-2 1-3 3-3 8-3 6-8-2-6-4-2-7-4l-2-1h-6c1 1 0 3-1 4h-1c-1 1 0 3 1 3h3c1 0 3 1 2 2l-1 1-5-1c-1 2-2 2-3 2l-2-1c-1-2 0-4-2-4l4-2c2-5-2-13 7-13h4c1 0 3-1 3-3 2 2 7 1 9 3v4l-1 1 1 1v3l2 2 4 1v1l2 1 2-1v-1l-2-2-1-7c2-1 7-3 6-6l-2-4-5 3c-1-1 0-2 1-2l2-1v-2l-1-5c0-2-1-4 1-5h8c1-2 3-3 6-3 2 0 4 1 4 4l1 2 2 1-1 2v3c0 1 5 2 6 1 2-1 0-6 0-8l1-2h3l2 3 2-1 4-1v-2c1-1 3-2 4-1h13c2 0 3 2 2 3l-2 2 4 3 1 4 4 2zM161 201c-2 1-4 2-4 4 0 4 2 5 5 3h1v8l-9 2c-4-1-3-8-6-7l1 9h-4l2 6c-1 2-5 2-4 6 1 5 11 4 9-1l9-4v-3l2-1c2 3 3 6 1 9 2 2 1 4 0 6 4 2 4 9 1 11-4 2-10-1-10-6l-6-1c1 5-2 11-7 13l-7 4-1 4c-1 2-4 3-7 4l-5 1c1-32 13-63 35-87l3-1 3 4c2 7 3 11-2 16v1z" style="opacity:.4;fill:#407bff;enable-background:new"/><path class="st13" d="M281 165c3-1 3-4 3-7v-12c-5-1-6-7-4-11a139 139 0 0 1 119 122v1c-4 2-7 0-10-2l-10-1c0-4-1-7-3-11-1-1-1 0-1 1l-1 5-2 4-5 2c-2 0-3 2-4 4l-1 6c-3-4-7 0-11-3l-3-2-3 4-2-2-1-3h-3l-2 4c0 1-2 2-3 1-2-2-1-4 0-6l2-6-3 1v1h-11a547 547 0 0 0 0 14 119 119 0 0 0-13-8v-2l-5-1v-2l2-1v-2c-2-3-6-4-9-2v3c1 3-2 3-4 2-3 0-5-3-5-5-1-3-7-20-13-17l-1 2v5c0 2-2 4-4 4l-1-1h-7l-2-1h-3l1 4h-3v-5l-2-2-4-2 1-2 3-1c4-3 2-9 8-9 0 1 2 3 3 2h1c2-1 3-4 5-4l2 1c2 0 3-3 3-5 1-4-2-4-3-8l1-6-1-5c0-4 6-3 9-3-2-2-1-5 1-8 3-3 3-3 2-7l2-2h5l2-1c3 0 4 3 6 4s4 2 6 1l-1-3-4-2-4-2-1-1h-18l-9-4-1-1h1l1-1h4c-2-1 2-6 3-6l5-1c4 0 6-1 3-5-2-1-3-3-2-4l2-2v-3l-1-2h-1c-1-1 0-3 1-3m-89 201 4-2c1 0 2-2 3-1l1 4 1 1h1l3-1c0-1-2-1-2-3l1-1c4-3 0-7-2-10-3-2-4-6-5-10l1-4 3-2c3-1 4-4 6-5 6-5 13 2 11 8 0 4-1 3 1 7 0 1 0 3 2 3 1 1 3 0 3-1v-1l-1-6 7-1a3 3 0 0 1 4-4c0 1 0 3 1 2h1l3-3c2-1 7-2 7-4v-2l3-1 2 1v2c2 3 5 0 6 1l6 6 5-5c3 0 4 2 5 4l3 8 1 3-4 2v2c0 2-2 5-4 5l-1 2-1 3-2-2v-6l-2-1-4-1c-2 0-3 2-3 3v2l-2 1-3 1-1 2c-1 1-3 2-4 0l-1-1c0-3-5-6-7-3-1 2 3 6 0 8l-4 2 1 1 6-3c1 2 0 4 2 5h5l1 2c1 2 1 8 5 7h1l2 4c-2 1-3 0-5-1-1 0-3 0-4 2l1 3-1 1 2 3c1 2-1 3-3 3-2 1-4 0-5 2l-1 1-4 2c-3 1 5 11 5 11 2 5-3 9-5 13l-3 6a140 140 0 0 1-108-94c3 0 9 1 12-1 3-3-1-9 3-11 1-1 1 1 2 2l2 1 1 1c1 1 3-1 3-2l4-3c3-1 6 0 9 1l8 2c-2 0-2 2-1 3l3 2 2 5c2 2 5 3 5 5 1 3-2 5-4 7 2 3 6 5 7 8v5l-2 8c-1 2-1 4 1 5l2 1 5 1h2l1-1c2-4 2-8 1-11l15 1c-2-3-1-6-2-9m95-36 2-5-1-2v-3h4l2 2 1 2c0 2 2 2 3 3l2 4-2 2c-1 2 2 4 1 6-1 3-4 2-7 2l-5-4c-5-4-3-3 0-7zm66 61c-19 25-48 42-78 48l-3 1c-5-4-8-12-1-15l-1-2c-1-1 0-2 1-3 3-3 8-3 6-8-2-6-4-2-7-4l-2-1h-6c1 1 0 3-1 4h-1c-1 1 0 3 1 3h3c1 0 3 1 2 2l-1 1-5-1c-1 2-2 2-3 2l-2-1c-1-2 0-4-2-4l4-2c2-5-2-13 7-13h4c1 0 3-1 3-3 2 2 7 1 9 3v4l-1 1 1 1v3l2 2 4 1v1l2 1 2-1v-1l-2-2-1-7c2-1 7-3 6-6l-2-4-5 3c-1-1 0-2 1-2l2-1v-2l-1-5c0-2-1-4 1-5h8c1-2 3-3 6-3 2 0 4 1 4 4l1 2 2 1-1 2v3c0 1 5 2 6 1 2-1 0-6 0-8l1-2h3l2 3 2-1 4-1v-2c1-1 3-2 4-1h13c2 0 3 2 2 3l-2 2 4 3 1 4 4 2zM161 201c-2 1-4 2-4 4 0 4 2 5 5 3h1v8l-9 2c-4-1-3-8-6-7l1 9h-4l2 6c-1 2-5 2-4 6 1 5 11 4 9-1l9-4v-3l2-1c2 3 3 6 1 9 2 2 1 4 0 6 4 2 4 9 1 11-4 2-10-1-10-6l-6-1c1 5-2 11-7 13l-7 4-1 4c-1 2-4 3-7 4l-5 1c1-32 13-63 35-87l3-1 3 4c2 7 3 11-2 16v1z"/></g><g id="freepik--Lines--inject-22"><path class="st4" d="m190 231 3-3 1 1-3 3-1-1zm5-6 2-3 1 1-2 3-1-1zm5-6 3-2 1 1-3 2-1-1zm6-5 3-2 1 1-3 2-1-1zm7-4 3-2 1 1-4 2v-1zm7-2-1-2 4-1v1l-3 2zm7-3v-1l3-1v1l-3 1zm7-2v-1l4-1v2h-4zm8-1v-1h4v1h-4zm7 0v-1h4v1h-4zm8 0v-1h4v2l-4-1zm8 1v-1l3 1v1l-3-1zm7 2v-1l4 1v1l-4-1zm7 2 1-2 2 1 1 1v1h-1l-3-1zm8 2v-1l3 1v2l-3-2zm6 3 1-1 3 2v1l-4-2zm7 4 1-1 3 2-1 1-3-2zm6 4 1-1 3 2-1 1-2-2h-1zm33 69v-3l1-1v4h-1zm-27-64 1-1 3 2-1 1-3-2zm27 57-1-4h2v4h-1zm-21-52 1-1 2 3-1 1-2-3zm20 44-1-3 1-1 1 4h-1zm-16-38 1-1 3 3-2 1-2-3zm14 31-1-4h1l1 4h-1zm-2-7-1-4h1l1 3-1 1zm-8-18h1l2 3-1 1-1-4h-1zm6 11-2-4h1l2 3-1 1zm-74 130v-1h-1 4v2l-3-1zm7 1v-1h4v2l-4-1zm7 1v-1h4v1h-4zm8 0v-1h4v1h-4zm8 0-1-2h4v1l-3 1zm7-2v-1l4-1v1l-4 1zm8-2-1-1 4-1v1l-3 2v-1zm7-2v-2l3-1 1 1h-1l-3 2zm6-5 4-1v1l-3 1-1-1zm7-3 3-2 1 1-3 2-1-1zm6-4 3-3 1 1-3 2h-1zm6-5 3-3 1 1-3 3-1-1zm6-5 3-3v1l-2 3-1-1zm5-6 3-3 1 1-3 3-1-1zm5-6 2-3 1 1-2 3-1-1zm5-6 1-2 1-1 1 1-1 1-1 2-1-1zm4-6 1-4 2 1-2 3h-1zm3-7 2-3h1l-2 3h-1zm3-7 1-4 1 1-1 3h-1zm2-7v-4h2l-1 4h-1zm1-8v-4h1v4h-1zm-34-78 1-1 2 3-1 1-2-3zm34 71-1-4h2v3l-1 1zm-29-65 1-1 2 3-1 1-2-3zm5 6 1-1 2 3-1 1-2-3zm23 51-1-4h2v4h-1zm-19-45 1-1 3 3-2 1-2-3zm18 38-1-4h1l1 3-1 1zm-14-32 1-1 2 4h-1l-2-3zm12 24-2-3 2-1 1 4h-1zm-8-17 1-1 2 4h-1l-2-3zm5 10-1-3h-1l2-1v1l1 3h-1z"/><path class="st4" d="m149 227 1-1 2 4h-1l-2-3zm5 6h1l2 2-1 1-2-3zm5 6 1-1 2 3-1 1-2-3zm5 6 1-1 3 2-1 1-3-2zm6 4 1-1 3 2-1 1-3-2zm7 4v-1l4 2-1 1-3-2zm7 4v-2l4 2-1 1-3-1zm7 2v-1l4 1v1l-4-1zm8 2v-2l3 1v1h-3zm7 0v-1h4v1h-4zm8 0v-1h4v1h-4zm8-1-1-1 4-1v2h-3zm7-1v-2l3-1 1 2-4 1zm8-2-1-2 4-1v1l-3 2zm6-4 4-2v1l-3 2-1-1zm7-4 3-2 1 1-4 2v-1zm6-4 3-2 1 1-3 2-1-1zm6-5 3-2h1l-3 3-1-1zm5-5 3-3 1 1-3 3-1-1zm5-6 2-3h1l-2 4-1-1zm4-7 2-3 1 1-2 3-1-1zm3-6 2-4h1l-2 4h-1zm3-8 1-3h1l-1 4-1-1zm2-7 1-4 1 1-1 3h-1zm1-7 1-4h1v4h-2zm1-8 1-4h1v4h-2zm1-7v-4h1v4h-1zm0-8-1-4h2v4h-1zm-1-8v-3l1-1v4h-1z"/></g><path d="m190 237-2 5-4-2 1-5-5-1 2-5 5 2 2-5 5 2-2 5 5 1-2 5zm155 59-2 5-5-2 2-5-5-2 2-5 5 2 2-5 4 2-2 5 5 2-2 5zm-11-74-2 5-5-2 2-5-5-2 2-4 5 2 2-5 5 1-2 5 5 2-2 5zm-82 168-1 5-5-2 2-5-5-2 2-5 5 2 1-5 5 2-2 5 5 2-2 5zm34-231-2 5-4-1 2-5-5-2 1-5 5 2 2-5 5 2-2 5 5 2-2 4zm-135 70-2 5-5-2 2-5-5-2 2-4 5 2 2-5 4 1-2 5 5 2-1 5z" style="fill:#b91823" id="freepik--x-marks--inject-22"/><circle class="st11" cx="395.4" cy="97.2" r="12.8"/><circle class="st4" cx="118.6" cy="462.1" r="21.4"/><circle class="st4" cx="464.6" cy="386.5" r="10.9"/><circle transform="rotate(-33 175 73)" class="st4" cx="175.4" cy="72.7" r="7.4"/><circle class="st11" cx="92.1" cy="180.7" r="10.9"/><g id="freepik--Plane--inject-79"><g id="freepik--little-wing--inject-79"><path id="freepik--lttle-wing--inject-79" class="st15" d="M240 303c2 1 3 3 2 4l-2 3h-37l11-17 26 10z"/><path class="st16" d="m227 306 8-5-21-8-11 17h37s-17-2-13-4z"/><path class="st17" d="m240 310 2-3c1-1 0-3-2-4l-26-10 24 10c2 1 6 3 2 7z"/></g><g id="freepik--Wing--inject-79"><g id="freepik--wing--inject-79-2"><path id="freepik--wing--inject-79-3" class="st15" d="m360 242-64-24c-2-1-7 4-12 10l-8 8c-5 6-8 11-6 12l87 4 5-5c1-2 1-4-2-5z"/><path class="st16" d="m297 239 14-16-15-5c-2-1-7 4-12 10l-8 8c-5 6-8 11-6 12l87 4-58-9c-3 0-4-2-2-4z"/><path class="st17" d="m361 248 1-1c1-2 1-4-2-5l-64-24 61 24c3 1 7 2 4 6z"/></g><path class="st18" d="m307 238-10 10 1 1h3l7-10v-1h-1z"/><path class="st18" d="m307 238-10 10 1 1h3l7-10v-1h-1z"/><path class="st18" d="m307 238-10 10 1 1h3l7-10v-1h-1z"/><path class="st18" d="m307 238-10 10 1 1h3l7-10v-1h-1z"/><path class="st18" d="m307 238-10 10 1 1h3l7-10v-1h-1z"/><path class="st19" d="m307 238-10 10 1 1h3l7-10v-1h-1z"/><path class="st19" d="M299 248c0-2 8-10 9-10h-1l-10 10 1 1h3l-2-1z"/><path class="st18" d="m325 241-8 8 1 1h2l6-8v-1h-1z"/><path class="st19" d="m325 241-8 8 1 1h2l6-8v-1h-1z"/><path class="st19" d="m319 249 4-5 3-3h-1l-8 8 1 1h2s-2 0-1-1z"/><path class="st18" d="M343 245c0-1 0-1 0 0l-6 5 1 1h1l4-6z"/><path class="st19" d="M343 245c0-1 0-1 0 0l-6 5 1 1h1l4-6z"/><path class="st19" d="m338 250 4-4 1-1v-1 1l-6 5 1 1h1l-1-1z"/></g><g id="freepik--Tail--inject-79"><path id="freepik--tail--inject-79-2" class="st20" d="m220 280-39-24h-7l-2 3 27 45 21-24z"/><path class="st16" d="m220 280-8-4c-2 2-10 10-15 10-7 0-21-21-21-21l23 39 21-24z"/><path class="st18" d="m201 301 19-21c-8 5-15 5-22 2-8-4-26-23-26-23l27 44 2-2z"/><path class="st21" d="M220 280c-7 4-12 5-17 4l-7 2c-6 0-19-18-20-21l23 38 2-2 19-21z"/><path d="m181 258-7-1-2 2 2-2c1-2 4-2 6 0l40 23-39-22z" style="fill:#fff"/></g><g id="freepik--Turbine--inject-79"><path class="st16" d="M306 237c1 3 0 6-4 8-3 1-7-1-8-4-1-4 1-7 4-8 4-2 7 0 8 4z"/><path class="st21" d="M306 237c1 3 0 6-4 8-3 1-7-1-8-4-1-4 1-7 4-8 4-2 7 0 8 4z"/><path class="st21" d="M306 237a6 6 0 0 0-11-2c1 3 3 6 6 8 0 0-2 1-6-1 3 3 7 4 9 1 2-1 3-4 2-6z"/><path class="st16" d="M308 216c-6 2-12 15-13 16l1 3c1 4 4 7 8 8l3-1c1 0 13-8 15-14l-14-12z"/><path class="st21" d="m322 228-13-11c-2 0-3 1-3 2-1 2 0 6 3 8 2 3 2 4-3 8s-7 4-10 2c2 3 5 5 8 6l3-1c1 0 13-8 15-14z"/><path class="st17" d="M308 216c-6 2-12 15-13 16v3l3-6 7-10c1-1 0 3 3 5l1-8h-1z"/><path class="st23" d="M321 225c1 4-1 6-5 5s-8-4-10-8c-1-4 1-7 5-6 5 1 9 4 10 9z"/><path class="st24" d="m313 223 2-4-2 5v-1zm0 0 1-5-1 6v-1zm-1 0v-5 5zm0 0-2-4 2 5v-1zm5-3-4 4h1l3-4zm-3 7 3 3-4-4 1 1zm4-6-4 3 4-3zm-4 5 4 2-4-2zm-3-3-3-4 3 5v-1zm3 2 5-2-5 2zm0 1 5 1-5-1zm0-1h5-5zm-3 1-1 1 1-1zm1 1v1-2 1zm-1 0v-1 1zm0 0 1-1-1 1zm2 0 2 2-2-2zm-1 0 1 2-1-3v1zm-2-3h-2l2 1v-1zm0 2h1-1zm1-3-4-3 4 4v-1zm-1 1-3-1 4 1h-1zm0 1h-1 1zm0 0-1 1h1v-1z"/><path class="st13" d="m314 226 6 3-6-3s0-1 0 0l7 1-7-2h7-7l5-2h1-1l-6 2 5-4-5 3 4-4-4 4 3-5h-1l-2 5 1-6-2 6v-7 7l-2-7h-1l3 7-5-6 4 6-4-4v1l4 3-3-1h-1 1l3 2-3-1 1 1h2-2 2l-1 1h1-1 1-1v1l1-1-1 1h1v-1 1c0 1 0 0 0 0v-1 2h1v-2 2h1v1l-1-3 2 3h1l-2-3 4 4-4-4h1z"/><path class="st15" d="M315 222v-1l-5 2v2l3 2h1c2-1 2-5 2-5h-1z"/><path class="st21" d="M313 225h-2v-2h-1v2c0 1 1 2 3 2h1l1-5-2 3z"/><path class="st17" d="M315 222v-1l-5 2v1l2-2h3z"/></g><g id="freepik--Body--inject-79"><path id="freepik--body--inject-79-2" class="st20" d="M336 156s-4-4-11-1c-6 3-12 8-20 18l-56 63c-9 10-33 37-40 48l-19 30-1 5 2 2c2-1 14-6 33-17 20-11 27-19 38-31l76-86c7-8 12-20 11-27s-7-6-13-4z"/><path class="st18" d="M318 167c-3 6-3 12-9 18l-88 95c-13 13-16 15-16 9l-15 25-1 5c1 1 1 2 2 1 2 0 14-5 33-16 20-11 27-19 38-31l76-86c7-8 12-20 11-27s-7-7-13-5c-4 1-15 5-18 12z"/><path d="M318 167c-3 6-3 12-9 18l-88 95c-13 13-16 15-16 9l-15 25-1 5c1 1 1 2 2 1 2 0 14-5 33-16 20-11 27-19 38-31l76-86c7-8 12-20 11-27s-7-7-13-5c-4 1-15 5-18 12z" style="opacity:.4;fill:#fff;enable-background:new"/><path d="M344 156c3 0 5 3 5 5v-1c-1-7-7-7-13-5-4 1-15 5-18 12 9-8 21-12 26-11z" style="opacity:.5;fill:#fbfbfb;enable-background:new"/><path class="st21" d="m330 175-57 62v-12l-26 29v12l-15 16-25 23v-11l-13 16v4l-3 2c-1 1-1 0-1-2l-1 5c1 1 1 2 2 1 2 0 14-5 33-16 20-11 27-19 38-31l76-86c4-4 7-9 9-15 2-8 0-15-17 3z"/></g><path class="st23" d="m259 230-1-3-1 1v1l1 2 1-1zm2-3v-3l-1 1v3h1v-1zm3-3-1-2c0-1 0-1 0 0h-1v1l1 2v1l1-1v-1zm2-3v-2l-1 1v3h1v-2zm3-3-1-2-1 1v1l1 2 1-1v-1zm2-2v-3l-1 1v3h1v-1zm3-3-1-3-1 1v3h2v-1zm2-3v-2h-1l-1 1 1 2v1l1-1v-1zm3-3-1-2-1 1v3h1l1-1v-1zm2-3v-2h-1v1l-1 1 1 2 1-1v-1zm3-2-1-3-1 1v3h1l1-1zm2-3v-3h-1v1l-1 1 1 2s0 1 0 0h1v-1zm3-3-1-2s0-1 0 0h-1v3l1 1v-1l1-1zm2-3v-2h-1l-1 1 1 3 1-1v-1zm3-3-1-2-1 1v3h1v-1l1-1zm2-2-1-3-1 1v1l1 2 1-1zm2-3v-3l-1 1v3h1v-1zm-78 90-1-2-1 1v3h1l1-1v-1zm2-3v-2h-1v1l-1 1 1 2 1-1v-1zm3-3-1-2-1 1v3h1v-1l1-1zm2-2v-3h-1l-1 1v1l1 2 1-1zm2-3v-3l-1 1v3h1v-1s1 0 0 0zm3-3-1-3-1 1v1l1 2h1v-1zm2-3v-2c0-1 0-1 0 0h-1v3h1v-1zm3-3-1-2-1 1v3h1l1-1v-1zm2-3v-2h-1v1l-1 1 1 2 1-1v-1zm3-3-1-2-1 1v3h1v-1l1-1zm2-2v-3h-1v1l-1 1 1 2 1-1zm3-3-1-3-1 1v3h1v-1h1zm2-3v-2h-2v1l1 2c0 1 0 1 0 0h1v-1zm3-3-1-2c0-1 0-1 0 0h-1v4h1v-1l1-1zm2-3v-2h-1l-1 1v1l1 2 1-1v-1zm3-3-1-2-1 1v3h1v-1l1-1z" id="freepik--Windows--inject-79"/><g id="freepik--little-wign--inject-79"><path id="freepik--lttle-wing--inject-79-2" class="st27" d="m207 294-48 15-7 4-2 3 44-4 3-2 10-16z"/><path class="st16" d="m197 310 10-15c-3 3-9 11-13 13s-44 8-44 8l44-4 3-2z"/><path class="st17" d="m207 294-48 15-7 4-2 3c2-2 6-5 17-8l39-12 1-2z"/></g><g id="freepik--wing--inject-79-4"><g id="freepik--wing--inject-79-5"><path id="freepik--wing--inject-79-6" class="st27" d="M273 225h-1l-133 35c-3 0-5 3-6 5l-2 5 116-15 12-10 8-9c5-6 7-11 6-11z"/><path class="st16" d="m259 245 8-9 5-7c-4 7-26 19-38 21l-103 20 116-15 12-10z"/><path class="st17" d="M273 225h-1l-133 35c-3 0-5 3-6 5l-1 4c1-3 3-6 8-8l90-23a1602 1602 0 0 1 43-13z"/></g><path class="st18" d="m227 248-11 11 1 1h3l8-11-1-1z"/><path class="st21" d="m227 248-11 11 1 1h3l8-11-1-1z"/><path class="st19" d="M217 260h3l8-11-1-1c1 1 0 1-2 5s-5 6-7 6h-2l1 1z"/><path class="st18" d="m199 254-9 8 1 1h2l6-8v-1z"/><path class="st21" d="m199 254-9 8 1 1h2l6-8v-1z"/><path class="st19" d="M191 263h2l6-8v-1l-2 3-4 5h-3l1 1z"/><path class="st18" d="m171 260-6 6h2l4-6z"/><path class="st21" d="m171 260-6 6h2l4-6z"/><path class="st19" d="M166 266h1l4-6-1 2c-2 2-3 4-5 4h1z"/></g><path id="freepik--Window--inject-79" class="st23" d="m319 162-1 5c5-5 11-9 18-12l-3-1c-6 1-13 6-14 8z"/><g id="freepik--turbine--inject-79-2"><circle class="st16" cx="246.7" cy="243.6" r="6.9"/><path class="st21" d="M253 241c-1-3-5-5-8-4l-4 2c1 4 3 8 6 10 1 0-2 1-6-1 3 3 7 4 10 1 2-2 3-5 2-8z"/><path class="st15" d="M255 219c-6 2-13 16-14 17v4c2 4 5 7 10 8h3c1-1 15-10 16-16l-15-13z"/><path class="st21" d="m270 232-14-13-3 3c-1 3 1 7 3 10 3 2 3 3-3 8s-8 4-11 2c2 3 5 5 9 6h4c0-1 14-10 15-16z"/><path class="st17" d="M255 219c-6 2-13 16-14 17v3l3-6 7-10c1-1 1 2 4 5l1-8-1-1z"/><path class="st23" d="M270 228c1 5-1 8-6 7-5-2-9-5-11-10-1-4 1-7 6-6s9 5 11 9z"/><path class="st24" d="m261 227 2-5-2 5zm0 0v-6l-1 6h1zm-1-1-1-5 1 6v-1zm-1 0-2-4 2 5v-1zm6-3-4 4h1l3-4zm-4 8 4 3-4-4v1zm5-6-5 3h1l4-3zm-4 5 4 2-5-2h1zm-3-3-3-5 3 5zm3 1 5-1-6 1h1zm0 2h5l-6-1 1 1zm0-1h5-6 1zm-4 1zm1 1 1 1v-2l-1 1zm-1 0 1-1-1 1zm1 0v-1 1zm2 0 2 2-2-3v1zm-1 0 1 2-1-3v1zm-3-3h-2 3-1zm0 2 1-1v1h-1zm1-3-4-4 4 5v-1zm0 0-4-1 4 2v-1zm0 2h-2 2zm0 0h-1 1z"/><path class="st13" d="m261 230 7 3h1-1l-7-3 8 1-8-2h8v-1l-8 1 7-2v-1h-1l-6 2 5-3-5 3 4-5-4 4c-1 0-1 0 0 0l2-5-3 5 1-6v-1l-1 7-1-7v7l-2-8-1 1 3 7-5-6v-1 1l5 6c0 1 0 1 0 0l-5-4v1l4 4c1 0 0 0 0 0l-3-2 3 2h-2 2l-1 1s-1 0 0 0h1-1v1l1-1v1h-1 1v-1 1h1-1v1h1v-1 1-1 1h1v-1 2h1l-1-2 2 3h1l-2-4 4 4 1 1v-1l-5-4v1z"/><path class="st15" d="M263 225s-4 0-6 2v1l3 3h2l1-5v-1z"/><path class="st21" d="M261 229h-3v-3l-1 1v1c1 2 2 3 4 3h1l1-5v-1l-2 4z"/><path class="st17" d="M263 226v-1s-4 0-5 2l-1 1 2-2 4-1v1z"/></g></g></svg>