<svg viewBox="0 0 64 64" xmlns="http://www.w3.org/2000/svg" aria-hidden="true" class="iconify iconify--emojione"><path d="M32 2C19 2 8 10 4 22h56C56 10 45 2 32 2z" fill="#ed4c5c"/><path d="M32 62c13 0 24-8 28-20H4c4 12 15 20 28 20z" fill="#3e4347"/><path d="M4 22a30 30 0 0 0 0 20h56a30 30 0 0 0 0-20H4z" fill="#f9f9f9"/><g fill="#fff"><path d="M31 25v3h2v-3l-1-1v1h-1m6 3H27v9-9h1v8-8l1 1-1 6h1l1-3-1-3h5v3l1 3v-6l1-1v8-8l1 9v-9"/><path d="M31 30v4h1v1-1h1v-4h-2"/></g><path d="m36 38-1-1v1-3l3 4-1-11h-3l-1-3-1-1-1 1h-1v1h1l-1 2h-4v11l3-4v2h-1v1l-1 1h1l4 1 4-1v-1m-5-4v-4l1-1 1 1v3l-1 1h-1m0-7v-2c-1 0-1 0 0 0h2v3h-2v-1m-2 9v-7h-1v8-8l-1-1v9-9h2l1 1 2-1h5v10-1l-1-9v9-8h-1v7-1l-1-3v-2l-2-1h-3l1 3-1 3v1m3 2h-1l1-4v1-1l1 4h-1" fill="#c09300"/></svg>