<svg id="Layer_1" data-name="Layer 1" xmlns="http://www.w3.org/2000/svg" viewBox="0 0 24 24"><defs><style>.cls-3{fill:#fdca38}.cls-4{fill:#526481}</style></defs><circle cx="12" cy="12.2" r="10.5" fill="#ebf1fa"/><path fill="none" d="M0 0h24v24H0z"/><circle class="cls-3" cx="4.5" cy="3.8" r="1.1"/><circle class="cls-4" cx="21.6" cy="16.9" r=".9"/><circle class="cls-4" cx="4.2" cy="20.1" r=".4"/><circle class="cls-3" cx="6.5" cy="3.1" r=".4"/><path d="M19 10.1a10.4 10.4 0 0 1-.5 3 12 12 0 0 1-1 2 2.4 2.4 0 0 0-1.3-.3 6.7 6.7 0 0 0-3.2.9 3.4 3.4 0 0 0 .2-1s0-.1 0 0a5.2 5.2 0 0 1-3.5.9 2.8 2.8 0 0 1-2-.6 2 2 0 0 1-.5-1.5 5.4 5.4 0 0 1 .8-3 2.9 2.9 0 0 1 2.6-1.4 4 4 0 0 1 2.9 1.4 3.4 3.4 0 0 0-1-1.8 22.3 22.3 0 0 0 3.2-.5 3.2 3.2 0 0 1 .3 1 11.8 11.8 0 0 1 0 1.8 4.8 4.8 0 0 1-.5 2.6 1.9 1.9 0 0 1 1-.2 2 2 0 0 1 .7 0 6 6 0 0 0 .4-2 4.5 4.5 0 0 0-2-3.7 6.6 6.6 0 0 0-4-1.3A5.2 5.2 0 0 0 7.7 8 6.3 6.3 0 0 0 6 12.6a4.7 4.7 0 0 0 2 4.2 6 6 0 0 0 3.6 1 8.8 8.8 0 0 0 3.4-.6 14 14 0 0 0 2-1.3 5.2 5.2 0 0 1-1.6 2.3 6.3 6.3 0 0 1-4 1.3 5.9 5.9 0 0 1-4.5-2 7.2 7.2 0 0 1-2-5.2 7.2 7.2 0 0 1 1.9-4.9A7 7 0 0 1 12.4 5c2.3 0 4 .5 5.1 1.6A4.6 4.6 0 0 1 19 10Zm-5.2 2c0-.1-.2-.3-.6-.4a4.5 4.5 0 0 0-1.3-.2 5.5 5.5 0 0 0-2.1.5c-.7.3-1 .5-1 .8q0 .7 2.2.7a4.3 4.3 0 0 0 1.9-.5c.6-.3.9-.6.9-.9Z" fill="#46556e"/></svg>