<svg xmlns="http://www.w3.org/2000/svg" aria-hidden="true" class="iconify iconify--emojione" viewBox="0 0 64 64"><path fill="#2a5f9e" d="M22 60V47l-10 7c3 3 6 5 10 6m20 0c4-1 7-3 10-6l-10-8v14M4 42l1 3 4-3H4m51 0 4 3 1-3h-5"/><path fill="#fff" d="M24 38H3l1 4h5l-4 3 3 5 10-8h4v2l-12 9 2 1 10-7v13l4 1V38h-2m37 0H38v23l4-1V47l10 7 4-4-11-8h7l6 5 1-2-4-3h5l1-4"/><path fill="#ed4c5c" d="m8 50 2 3 12-9v-2h-4L8 50m38-8 10 8 1-2h1l1-2-7-4h-6"/><path fill="#2a5f9e" d="M42 4v14l10-8c-3-3-6-5-10-6M22 4c-4 1-7 3-10 6l10 8V4m38 18-1-3-4 3h5M9 22l-4-3-1 3h5"/><path fill="#fff" d="M41 26h20l-1-4h-5l4-3-3-5-10 8h-4v-2l12-9-2-1-10 8V4l-4-1v23h3M3 26h23V3l-4 1v14l-10-8-4 4 11 8h-7l-6-4-1 1 4 3H4l-1 4"/><g fill="#ed4c5c"><path d="m56 14-2-3-12 9v2h4l10-8m-37 8L8 14l-1 2-1 1 6 5h6"/><path d="M61 26H38V3l-6-1-6 1v23H3l-1 6 1 6h23v23l6 1 6-1V38h23l1-6-1-6"/></g></svg>