<svg id="Layer_1" data-name="Layer 1" xmlns="http://www.w3.org/2000/svg" viewBox="0 0 24 24"><defs><style>.cls-4{fill:#fdca38}.cls-5{fill:#526481}</style></defs><circle cx="12" cy="12.2" r="10.5" fill="#ebf1fa"/><path d="M17.8 5H6.2a1.4 1.4 0 0 0-1.4 1.4V18a1.4 1.4 0 0 0 1.4 1.4h11.6a1.4 1.4 0 0 0 1.4-1.4V6.4A1.4 1.4 0 0 0 17.8 5Zm-1.2 3.9h-1c-.6 0-.7.2-.7.7v1h1.5v1.6H15v5h-2.3v-5h-1v-1.7h1V9.4c0-1.5.5-2.3 2.2-2.3h1.7Z" fill="#46556e"/><path fill="none" d="M0 0h24v24H0z"/><circle class="cls-4" cx="4.5" cy="3.8" r="1.1"/><circle class="cls-5" cx="21.6" cy="16.9" r=".9"/><circle class="cls-5" cx="4.2" cy="20.1" r=".4"/><circle class="cls-4" cx="6.5" cy="3.1" r=".4"/></svg>