<svg xmlns="http://www.w3.org/2000/svg" xml:space="preserve" fill="#244b6b" viewBox="0 0 24 24"><path d="M12 24C5.4 24 0 18.6 0 12S5.4 0 12 0s12 5.4 12 12-5.4 12-12 12zm-2.5-7c.6 3.1 1.7 5 2.5 5s1.9-1.9 2.5-5h-5zm7.1 0a17 17 0 0 1-1.4 4.5c2.3-.8 4.3-2.4 5.5-4.5h-4.1zM3.3 17c1.2 2.1 3.2 3.7 5.5 4.5A17 17 0 0 1 7.4 17H3.3zm13.6-2h4.7a10 10 0 0 0-.1-6h-4.7c.2 1 .2 2 .2 3l-.1 3zm-7.7 0h5.7a26.6 26.6 0 0 0 0-6H9.2a26.6 26.6 0 0 0 0 6zm-6.7 0h4.7l-.1-3 .1-3H2.5c-.3.9-.5 2-.5 3s.2 2.1.5 3zm14.1-8h4.1a10.2 10.2 0 0 0-5.5-4.5A17 17 0 0 1 16.6 7zM9.5 7h5.1c-.6-3.1-1.7-5-2.5-5s-2 1.9-2.6 5zM3.3 7h4.1a17 17 0 0 1 1.4-4.5C6.5 3.3 4.6 4.9 3.3 7z"/></svg>