<svg xmlns="http://www.w3.org/2000/svg" id="Layer_6" data-name="Layer 6" viewBox="0 0 591 637"><defs><clipPath id="clip-path"><path d="M390 208v40h-4v-34h-25v34h-4v-34H218v34h-4v-34h-24v34h-4v-40h204z" class="cls-1"/></clipPath><clipPath id="clip-path-2"><path d="M384 199H191l-28 18h249l-28-18z" class="cls-1"/></clipPath><clipPath id="clip-path-3"><path d="M160 214h255v4H160z" class="cls-1"/></clipPath><clipPath id="clip-path-4"><path d="M247 567V199h81v366" class="cls-1"/></clipPath><clipPath id="clip-path-5"><path d="M247 208h81v17h-81z" class="cls-1"/></clipPath><clipPath id="clip-path-6"><path d="M338 200H237l14-17h73l14 17z" class="cls-1"/></clipPath><clipPath id="clip-path-7"><path d="M236 198h104v4H236z" class="cls-1"/></clipPath><style>.cls-1,.cls-5{fill:none}.cls-19,.cls-24,.cls-4{fill:#fecb39}.cls-16,.cls-19,.cls-5{stroke:#263339;stroke-linecap:round;stroke-linejoin:round;stroke-width:1.3px}.cls-10,.cls-12,.cls-7{fill:#010101}.cls-10,.cls-12,.cls-24,.cls-7{isolation:isolate}.cls-7{opacity:.5}.cls-9{fill:#536582}.cls-10{opacity:.1}.cls-12{opacity:.2}.cls-16,.cls-17{fill:#fff}.cls-18{fill:#263339}.cls-24{opacity:.4}</style></defs><path fill="#ecf2fb" d="M235 34C103 35 10 174 17 306c8 147 137 240 159 256 78 54 225 113 316 44 100-77 56-255 14-345-11-24-110-229-271-227Z"/><path id="freepik--background-simple--inject-71" d="M62 225c37-68 131-149 260-115s216 104 202 227-89 225-251 228S-20 376 62 225Z" class="cls-4" opacity=".4"/><path id="freepik--Clouds--inject-71" d="M57 210s3-12 25-13 35 22 35 22 9-9 20-3 11 10 11 10h29m343 4s-3-13-25-13-35 22-35 22-9-9-20-3-11 10-11 10h-29m67-39h-16s5-9-5-20-20-4-20-4-10-33-39-29-31 31-31 31-6-6-18-2-15 21-12 28c0 0-14 3-15 15 0 0-1-10-14-11s-16 16-16 16h-15m-161-48 75-3c8-28 39-16 39-16 12-29 39-15 39-15s14-27 41-22a43 43 0 0 1 33 30l19 1" class="cls-5"/><g id="freepik--Buildings--inject-71"><path d="M69 462v-79h12l11-10v-16h4v70" class="cls-5"/><path d="M84 473v-41h37v75m-16-80v-27h16v-22h5v-36h3v28h5v31l6 7v17h12" class="cls-5"/><path d="M132 512v-49h11v-24h13v-38h7m274 37v-11h-8v-22h-3v22h-14v9" class="cls-5"/><path d="M479 428v-27l-16-17h-6v21h-4v4h4v33h-35v86" class="cls-5"/><path d="M467 499v-67h35v17m-12-22v-49h3v49m-81 98v-48h-34v-62l-28-28v-29h-6v122" class="cls-5"/><path d="M354 538v-52h-37v-36h-4v-51h-5v-48h-6v-59h-5v56l-6 7v28h-13v67h-25v43h-16v45m-71-113h20v47h15v38" class="cls-5"/><path d="M189 441h12v-44h59v45m58-10h21m55 41v-82h-4v83" class="cls-5"/><path d="M390 208v40h-4v-34h-25v34h-4v-34H218v34h-4v-34h-24v34h-4v-40h204z" class="cls-4"/><g clip-path="url(#clip-path)"><path d="M390 208v17h-4v-11h-25v11h-4v-11H218v11h-4v-11h-24v11h-4v-17h204z" class="cls-7"/></g><path d="M390 208v40h-4v-34h-25v34h-4v-34H218v34h-4v-34h-24v34h-4v-40h204z" class="cls-5"/><path d="M384 199H191l-28 18h249l-28-18z" class="cls-4"/><g clip-path="url(#clip-path-2)"><path d="M384 199H191l-28 18h249l-28-18z" class="cls-9"/><path d="M334 199h-86v18h108l-22-18z" class="cls-10"/></g><path d="M384 199H191l-28 18h249l-28-18zm-153 4h148m-37 3H237m-24 5h120m14-5h4m11 0h14m9-3h3m-47 8h29m6 0h4m10 0h12m-222-5h27m14 0h3m-3-3h-28m-7 8h6" class="cls-5"/><path fill="#fecb39" stroke="#fecb39" stroke-miterlimit="10" stroke-width="1.3" d="M401 247v289c-35 18-77 28-128 29a211 211 0 0 1-99-23V247Z"/><path d="M401 247v289c-35 18-77 28-128 29a211 211 0 0 1-99-23V247Z" class="cls-9"/><path d="M324 248h10v310h-10zM223 542l-5 13V252l5 13v277zm137-19 9 10h32v-10h-41m0-57 9 10h32v-10h-41m0-57 9 10h32v-10h-41m0-58 9 10h32v-10h-41m0-57 9 10h32v-10h-41M174 523l10 10h34v-10h-44m0-57 10 10h34v-10h-44m0-57 10 10h34v-10h-44m0-58 10 10h34v-10h-44m0-57 10 10h34v-10h-44" class="cls-12"/><path d="M177 234h221m-221 3h221m-221 4h221m-221 3h221m-221-13h220v16H177z" class="cls-5"/><path d="M160 214h255v4H160z" class="cls-4"/><g clip-path="url(#clip-path-3)"><path d="M160 214h255v4H160z" class="cls-9"/><path d="M248 214h109v4H248z" class="cls-12"/></g><path d="M160 214h255v4H160zm14 328V247h227v289" class="cls-5"/><path fill="#959c9e" d="M247 567V199h81v366"/><g clip-path="url(#clip-path-4)"><path d="M247 203h81v10h-81z" class="cls-7"/></g><path d="M247 567V199h81v366" class="cls-5"/><path d="M253 257h22v17h-22z" class="cls-16"/><path d="M265 258h10v16h-10z" class="cls-17"/><path d="M274 259v14h-8v-14h8m2-2h-12v17h12Z" class="cls-18"/><path d="M178 257h35v33h-35z" class="cls-16"/><path d="M190 257v33" class="cls-5"/><path d="M211 259v30h-9v-30h9m2-2h-12v33h12Z" class="cls-18"/><path d="M166 290h49v4h-49z" class="cls-19"/><path d="M166 277h50m-50 4h50m-50 3h50m-50 3h50m-50-12h49v16h-49z" class="cls-5"/><path d="M229 257h7v17h-7zm70 0h22v17h-22z" class="cls-16"/><path d="M300 258h10v16h-10z" class="cls-17"/><path d="M309 259v14h-8v-14h8m2-2h-12v17h12Z" class="cls-18"/><path d="M362 257h35v33h-35z" class="cls-16"/><path d="M385 257v33" class="cls-5"/><path d="M373 259v30h-9v-30h9m1-2h-12v33h12Z" class="cls-18"/><path d="M360 290h49v4h-49z" class="cls-19"/><path d="M409 277h-49m49 4h-49m49 3h-49m49 3h-49m0-12h49v16h-49z" class="cls-5"/><path d="M339 257h7v17h-7zm-86 58h22v17h-22z" class="cls-16"/><path d="M265 315h10v16h-10z" class="cls-17"/><path d="M274 316v14h-8v-14h8m2-1h-12v17h12Z" class="cls-18"/><path d="M178 315h35v33h-35z" class="cls-16"/><path d="M190 315v32" class="cls-5"/><path d="M211 316v30h-9v-30h9m2-1h-12v32h12Z" class="cls-18"/><path d="M166 347h49v4h-49z" class="cls-19"/><path d="M166 335h50m-50 3h50m-50 3h50m-50 3h50m-50-12h49v16h-49z" class="cls-5"/><path d="M229 315h7v17h-7zm70 0h22v17h-22z" class="cls-16"/><path d="M300 315h10v16h-10z" class="cls-17"/><path d="M309 316v14h-8v-14h8m2-1h-12v17h12Z" class="cls-18"/><path d="M362 315h35v33h-35z" class="cls-16"/><path d="M385 315v32" class="cls-5"/><path d="M373 316v30h-9v-30h9m1-1h-12v32h12Z" class="cls-18"/><path d="M360 347h49v4h-49z" class="cls-19"/><path d="M409 335h-49m49 3h-49m49 3h-49m49 3h-49m0-12h49v16h-49z" class="cls-5"/><path d="M339 315h7v17h-7zm-86 57h22v17h-22z" class="cls-16"/><path d="M265 373h10v16h-10z" class="cls-17"/><path d="M274 373v15h-8v-15h8m2-1h-12v17h12Z" class="cls-18"/><path d="M178 372h35v33h-35z" class="cls-16"/><path d="M190 372v33" class="cls-5"/><path d="M211 373v30h-9v-30h9m2-1h-12v33h12Z" class="cls-18"/><path d="M166 405h49v4h-49z" class="cls-19"/><path d="M166 392h50m-50 3h50m-50 3h50m-50 4h50m-50-13h49v16h-49z" class="cls-5"/><path d="M229 372h7v17h-7zm70 0h22v17h-22z" class="cls-16"/><path d="M300 373h10v16h-10z" class="cls-17"/><path d="M309 373v15h-8v-15h8m2-1h-12v17h12Z" class="cls-18"/><path d="M362 372h35v33h-35z" class="cls-16"/><path d="M385 372v33" class="cls-5"/><path d="M373 373v30h-9v-30h9m1-1h-12v33h12Z" class="cls-18"/><path d="M360 405h49v4h-49z" class="cls-19"/><path d="M409 392h-49m49 3h-49m49 3h-49m49 4h-49m0-13h49v16h-49z" class="cls-5"/><path d="M339 372h7v17h-7zm-86 57h22v17h-22z" class="cls-16"/><path d="M265 430h10v16h-10z" class="cls-17"/><path d="M274 430v15h-8v-15h8m2-1h-12v17h12Z" class="cls-18"/><path d="M178 429h35v33h-35z" class="cls-16"/><path d="M190 429v33" class="cls-5"/><path d="M211 430v30h-9v-30h9m2-1h-12v33h12Z" class="cls-18"/><path d="M166 462h49v4h-49z" class="cls-19"/><path d="M166 449h50m-50 3h50m-50 4h50m-50 3h50m-50-13h49v16h-49z" class="cls-5"/><path d="M229 429h7v17h-7zm70 0h22v17h-22z" class="cls-16"/><path d="M300 430h10v16h-10z" class="cls-17"/><path d="M309 430v15h-8v-15h8m2-1h-12v17h12Z" class="cls-18"/><path d="M362 429h35v33h-35z" class="cls-16"/><path d="M385 429v33" class="cls-5"/><path d="M373 430v30h-9v-30h9m1-1h-12v33h12Z" class="cls-18"/><path d="M360 462h49v4h-49z" class="cls-19"/><path d="M409 449h-49m49 3h-49m49 4h-49m49 3h-49m0-13h49v16h-49z" class="cls-5"/><path d="M339 429h7v17h-7zm-86 57h22v17h-22z" class="cls-16"/><path d="M265 487h10v16h-10z" class="cls-17"/><path d="M274 488v14h-8v-14h8m2-2h-12v17h12Z" class="cls-18"/><path d="M178 486h35v33h-35z" class="cls-16"/><path d="M190 486v33" class="cls-5"/><path d="M211 488v30h-9v-30h9m2-2h-12v33h12Z" class="cls-18"/><path d="M166 519h49v4h-49z" class="cls-19"/><path d="M166 506h50m-50 4h50m-50 3h50m-50 3h50m-50-13h49v16h-49z" class="cls-5"/><path d="M229 486h7v17h-7zm70 0h22v17h-22z" class="cls-16"/><path d="M300 487h10v16h-10z" class="cls-17"/><path d="M309 488v14h-8v-14h8m2-2h-12v17h12Z" class="cls-18"/><path d="M362 486h35v33h-35z" class="cls-16"/><path d="M385 486v33" class="cls-5"/><path d="M373 488v30h-9v-30h9m1-2h-12v33h12Z" class="cls-18"/><path d="M360 519h49v4h-49z" class="cls-19"/><path d="M409 506h-49m49 4h-49m49 3h-49m49 3h-49m0-13h49v16h-49z" class="cls-5"/><path d="M339 486h7v17h-7z" class="cls-16"/><path d="M247 208h81v17h-81z" class="cls-17"/><g clip-path="url(#clip-path-5)"><path fill="#010101" d="M247 208h81v5h-81z" opacity=".3" style="isolation:isolate"/></g><path d="M247 208h81v17h-81zm9 0v17m11-17v17m10-17v17m11-17v17m10-17v17m10-17v17m11-17v17" class="cls-5"/><path d="M338 200H237l14-17h73l14 17z" class="cls-4"/><g clip-path="url(#clip-path-6)"><path d="M338 200H237l14-17h73l14 17z" class="cls-9"/></g><path d="M338 200H237l14-17h73l14 17z" class="cls-5"/><path d="M236 198h104v4H236z" class="cls-4"/><g clip-path="url(#clip-path-7)"><path d="M236 198h104v4H236z" class="cls-9"/></g><path d="M236 198h104v4H236z" class="cls-5"/><path d="M257 230h8v3h-8zm6 4h8v3h-8zm21 17h8v3h-8zm-3 4h8v3h-8zm-28 27h8v3h-8zm4 3h8v3h-8zm44 4h8v3h-8zm-4 4h8v3h-8zm-41 16h8v3h-8zm6-27h8v3h-8zm24 88h8v3h-8zm-34-4h8v3h-8zm10-19h8v3h-8zm4-4h8v3h-8zm23-25h8v3h-8zm-4-4h8v3h-8zm18-72h8v3h-8zm4-4h8v3h-8zm-2 68h8v3h-8zm-24 12h8v3h-8zm31 30h8v3h-8zm-6-3h8v3h-8zm-20 163h8v3h-8zm18 24h8v3h-8zm14-50h8v3h-8zm-4-4h8v3h-8zm-58 2h8v3h-8zm4-4h8v3h-8zm56-21h8v3h-8zm-6 27h8v3h-8zm-28 0h22m-35-92h8v3h-8zm6 4h8v3h-8zm18 19h8v3h-8zm-4 45h8v3h-8zm-24-21h8v3h-8zm5 3h8v3h-8zm-7 79h8v3h-8zm-4 4h8v3h-8zm-9-74h8v3h-8zm24-12h8v3h-8z" class="cls-12"/><path d="M248 509h8v3h-8zm6-3h8v3h-8zm58 7h8v3h-8zm-4-4h8v3h-8zm-2-42h8v3h-8zm4-3h8v3h-8zm-27 23h8v3h-8zm-4-4h8v3h-8zm9 42h8v3h-8zm26-58h8v3h-8zm-28-74h8v3h-8zm-34 3h8v3h-8zm7 16h8v3h-8zm4 4h8v3h-8zm8 42h8v3h-8zm-4 3h8v3h-8zm-18-36h8v3h-8zm13 33h8v3h-8zm50-44h8v3h-8zm-6 4h8v3h-8zm-51-176h8v3h-8zm56-11h8v3h-8zm4 48h8v3h-8zm-4 3h8v3h-8zm-31-46h8v3h-8zm4 4h8v3h-8zm32 68h8v3h-8zm-9-29h8v3h-8zm-47 21h8v3h-8zm6-4h8v3h-8zm12 62h8v3h-8zm11-53h8v3h-8z" class="cls-10"/><path d="M285 353h3v8h-3z" class="cls-10" transform="rotate(-88 287 357)"/><path d="M289 350h3v8h-3z" class="cls-10" transform="rotate(-88 290 354)"/><path d="M285 274h8v3h-8zm-4-4h8v3h-8z" class="cls-10"/><path d="M285 331h3v8h-3z" class="cls-10" transform="rotate(-88 287 335)"/><path d="M294 353h3v8h-3z" class="cls-10" transform="rotate(-88 295 357)"/><path d="M218 252v293m139-293v293m-42-358h5m-54 0h38m-56 0h13m14 3h-6m60 0h-37m34 5h3m-49 0h25m-52 0h23m-34 0h3m39-5h2" class="cls-5"/></g><g id="freepik--Stars--inject-71"><path d="m170 315-12-8v4h-56a6 6 0 0 1-6-6v-10h45a5 5 0 0 0 5-5v-22a5 5 0 0 0-5-5H43a5 5 0 0 0-5 5h0v22a5 5 0 0 0 5 5h45v12a12 12 0 0 0 13 12h57v5Z" class="cls-16"/><path d="m55 272 2 5h6l-4 4 1 5-5-2-5 2 1-5-3-4h5l2-5zm19 0 2 5h5l-4 4 1 5-4-2-5 2 1-5-4-4h5l3-5zm18 0 2 5h6l-4 4 1 5-5-2-5 2 1-5-4-4h6l2-5zm18 0 3 5h5l-4 4 1 5-5-2-4 2 1-5-4-4h5l2-5zm19 0 2 5h6l-4 4 1 5-5-2-5 2 1-5-4-4h6l2-5z" class="cls-19"/></g><g id="freepik--hand-2--inject-71"><path d="m590 347-15 46s-117 0-142 3-54 18-54 18c-11 5-41 2-37-5a29 29 0 0 0 3-8 40 40 0 0 0 1-7l-11 7-8 13-7 17c2 12-4 15-6 14s-4-6-4-6h-3s-6 6-9 6-4-6-4-6-2 2-6-1a6 6 0 0 1-1-3 529 529 0 0 1 10-46c0-3 21-19 27-25s13-13 19-15 12 4 30 8 34 7 43 6 13-4 25-2 148-14 149-14Z" class="cls-17"/><path d="M350 393a63 63 0 0 1-5 8 40 40 0 0 0 1-7l-11 7-8 13-7 17c2 12-4 15-6 14s-4-6-4-6h-3s-6 6-10 6-3-6-3-6-2 2-6-1a6 6 0 0 1-1-3c1 1 3 1 6-3a20 20 0 0 0 4-17s9-10 10-13v-8c1-1 4 3 7 1l15-13 4-2c1-1 3-6 5-5a36 36 0 0 1 3 3 15 15 0 0 0 1-3l6 8c2 1 5 4 2 10Z" class="cls-24"/><path d="M590 347c-1 0-136 15-149 14s-16 2-25 2-25-1-43-6-23-9-30-8-12 9-19 15-27 22-27 25l-8 27c-1 5-4 19-1 22s6 1 6 1 0 5 3 6 10-6 10-6h3s1 5 4 6 8-2 6-14l7-17 8-13s7-3 11-7c0 0 0 9-4 15s26 10 37 5" class="cls-5"/><path d="M294 439s9-11 7-20a22 22 0 0 0 4-5l6-13 2-3a41 41 0 0 0 7-4l10-9s3 0 7-3c0 0 4 0 6 2m6 3s0 6-3 10m0-3-1-7" class="cls-5"/><path d="M330 385s2 6 11 7m-7 1-11 10-4 7m-6-10a8 8 0 0 0 7 2m15-1s-6 2-7 1m8-27a9 9 0 0 1 1 7m5-10 2 10m-37 13a8 8 0 0 0 6 3m-15 19s3 2 4 0" class="cls-5"/><ellipse cx="298" cy="443.8" fill="none" stroke="#263339" stroke-linecap="round" stroke-linejoin="round" stroke-width="1.3" rx="12.9" ry="10.2" transform="rotate(-77 298 444)"/><path d="M296 456a11 11 0 0 0-20-6l-13 16a11 11 0 0 0 17 14l13-16a11 11 0 0 0 3-8Zm-8-3a2 2 0 1 1 2 0 2 2 0 0 1-2 0Z" class="cls-19"/><path d="m291 462-14 16a8 8 0 0 1-12-10l13-16a8 8 0 0 1 5-3 8 8 0 0 0 8 8 7 7 0 0 0 1 0 8 8 0 0 1-1 5Z" class="cls-16"/><path d="m278 458 2-3 2 1-1 1 6 5-1 1-6-5-1 1Z" class="cls-4"/><path fill="#536582" stroke="#263339" stroke-linecap="round" stroke-linejoin="round" stroke-width="1.3" d="m296 451-17 2a3 3 0 0 0-2 3s0 0 0 0l3 22a3 3 0 0 0 2 2h5l5 37a2 2 0 0 0 2 2h0l3-1a2 2 0 0 0 2-2h0l-5-37h5a3 3 0 0 0 3-3s0 0 0 0l-3-22a3 3 0 0 0-3-3Zm1 5a2 2 0 0 1-2 3h0a2 2 0 0 1-3-2v-1a2 2 0 0 1 2-2h1a2 2 0 0 1 2 2h0Z"/><path d="m295 516-4-37h2m15-33c-2 7-7 12-13 10" class="cls-5"/><path d="m586 357-17 53h-5l-122-7-21 2-29 14c-6 3-17 4-31 3s-27 4-31 6-26 17-29 14c-3-2-6-4-5-10a24 24 0 0 1 3-6c7-10 17-17 24-17s28-14 30-19Z" class="cls-17"/><path d="m564 410-122-7-21 2-29 14c-6 3-17 4-31 3s-27 4-31 6-26 17-29 14c-3-2-6-4-5-10 1 3 3 8 5 7 0 0-4-2 2-9s9-10 12-6 8 7 11 2 4-2 13-5 19-8 21-7 20 5 26 4 26-13 28-17 22-6 28-7 24 1 31 2-11 2-18 3 47 2 61 4l48 7Z" class="cls-24"/><path d="m569 410-127-7-22 2c-3 0-22 11-28 14s-17 4-31 3-27 4-31 6-26 17-29 14-8-5-2-16 17-17 24-17 28-14 30-19" class="cls-5"/></g><g id="freepik--hand-1--inject-71"><path d="M313 553c-8 5-32 7-41 10-6 2-28-2-35-2-5 0-12 3-18-1s-46-43-56-52-73-21-108-34l-7-2-43-14 38-59s30 12 74 36a734 734 0 0 0 69 32s20-8 31 8 11 28 11 28l17 18s9 1 13 5 14 0 18-1a67 67 0 0 1 23 1s14-1 22 5c0 0 8-1 14 1a11 11 0 0 1 4 2 10 10 0 0 1 3 5 42 42 0 0 1-1 5c0 4-8-1-28 9Z" class="cls-17"/><path d="M313 553c-8 5-32 7-41 10-6 2-28-2-35-2-5 0-12 3-18-1s-46-43-56-52-73-21-108-34l-7-2 38 9 71 18c7 2 54 50 60 55s10 7 15 5 23 1 23 1l-10-3 24 1c9 1 20-4 26-4s19-8 25-9 3-9 3-9 5 2 7 7c0 0 8 3 12-4a42 42 0 0 1-1 5c0 4-8-1-28 9Z" class="cls-24"/><path d="M339 534c-15-1-19 1-19 1-2-2-22 3-24 4l-4 4s-3-7-13-4-12 6-12 6l-2-5-18-5a21 21 0 0 1-8-7l-19-17c-2-1-3-5-3-5 1-14-9-33-18-35a33 33 0 0 0-16 1s-16-7-24-10-54-28-54-28l36 13c29 14 45 20 45 20s20-8 31 8 11 28 11 28l17 18s9 1 13 4 14 1 18 0a67 67 0 0 1 23 1s14-1 22 5c0 0 8-1 14 1a11 11 0 0 1 4 2Zm-152-28s-1 3-2 2 1 6 5 6 9 11 11 15 27 17 33 19 12-3 10-10c0 0-3 6-6 4 0 0 4 0 0-7s-10-11-12-11-11-7-11-7-4 14-12 11l-8-14c-1-3-8-8-8-8Z" class="cls-24"/><path d="M43 399s30 12 74 36 69 32 69 32 20-8 31 8 11 28 11 28l17 18s9 1 13 5 14 0 18-1a67 67 0 0 1 23 1s14-1 22 5c0 0 8-1 14 1a10 10 0 0 1 7 7 42 42 0 0 1-1 5c0 4-8-1-28 9-9 5-32 7-41 10-6 2-28-2-35-2-5 0-12 3-18-1s-46-43-56-52-73-21-108-34-50-16-50-16" class="cls-5"/><path d="m251 533 15 5h25s18-5 23-5 10 3 11 7a12 12 0 0 1 0 7s-17 4-22 6l-25 5c-11 2-28-2-35 0" class="cls-5"/><path d="M322 531s-18 0-28 6m-5-1-22-1m-6-8s-2 1-2 4m-73-27 7 8c2 3 4 12 8 15l18 11c8 4 19 10 24 3s-7-16-13-22a53 53 0 0 0-10-8s-2-5-3-6 1-8 1-12" class="cls-5"/><path d="m223 498-6 8m23 19a17 17 0 0 1 5-4m-62-14s6 4 9 4m31-6a10 10 0 0 1-4 3m-6 9s-1 7-8 9" class="cls-5"/></g><circle cx="386.9" cy="135.5" r="15.8" class="cls-4" transform="rotate(-81 387 135)"/><circle cx="92.7" cy="227.5" r="9.1" class="cls-9"/><circle cx="484.5" cy="299.4" r="20.5" class="cls-9" transform="rotate(-45 484 299)"/></svg>