<svg id="Layer_6" data-name="Layer 6" xmlns="http://www.w3.org/2000/svg" xmlns:xlink="http://www.w3.org/1999/xlink" viewBox="0 0 590.47 636.91"><defs><style>.cls-1,.cls-25,.cls-5{fill:none;}.cls-2{fill:#ecf2fb;}.cls-3{opacity:0.36;}.cls-11,.cls-19,.cls-24,.cls-4{fill:#fecb39;}.cls-16,.cls-19,.cls-25,.cls-26,.cls-5{stroke:#263339;stroke-linecap:round;stroke-linejoin:round;}.cls-11,.cls-16,.cls-19,.cls-26,.cls-5{stroke-width:1.3px;}.cls-6{clip-path:url(#clip-path);}.cls-10,.cls-12,.cls-21,.cls-7{fill:#010101;}.cls-10,.cls-12,.cls-21,.cls-24,.cls-7{isolation:isolate;}.cls-7{opacity:0.5;}.cls-8{clip-path:url(#clip-path-2);}.cls-26,.cls-9{fill:#536582;}.cls-10{opacity:0.1;}.cls-11{stroke:#fecb39;stroke-miterlimit:10;}.cls-12{opacity:0.2;}.cls-13{clip-path:url(#clip-path-3);}.cls-14{fill:#959c9e;}.cls-15{clip-path:url(#clip-path-4);}.cls-16,.cls-17{fill:#fff;}.cls-18{fill:#263339;}.cls-20{clip-path:url(#clip-path-5);}.cls-21{opacity:0.3;}.cls-22{clip-path:url(#clip-path-6);}.cls-23{clip-path:url(#clip-path-7);}.cls-24{opacity:0.4;}.cls-25{stroke-width:1.3px;}</style><clipPath id="clip-path"><polygon class="cls-1" points="389.81 207.93 389.81 248.09 385.77 248.09 385.77 214.15 361.2 214.15 361.2 248.09 357.17 248.09 357.17 214.15 218.18 214.15 218.18 248.09 214.15 248.09 214.15 214.15 189.58 214.15 189.58 248.09 185.55 248.09 185.55 207.93 389.81 207.93"/></clipPath><clipPath id="clip-path-2"><polygon class="cls-1" points="383.8 199.16 327.13 199.16 299.68 199.16 191.17 199.16 162.57 216.69 272.42 216.69 315.5 216.69 412.41 216.69 383.8 199.16"/></clipPath><clipPath id="clip-path-3"><rect class="cls-1" x="159.76" y="214.15" width="255.45" height="4.24"/></clipPath><clipPath id="clip-path-4"><polyline class="cls-1" points="247.12 567.46 247.12 199.16 327.84 199.16 327.84 564.86"/></clipPath><clipPath id="clip-path-5"><rect class="cls-1" x="247.12" y="207.93" width="80.72" height="17.06"/></clipPath><clipPath id="clip-path-6"><polygon class="cls-1" points="338.04 200.41 236.94 200.41 251.23 182.87 323.73 182.87 338.04 200.41"/></clipPath><clipPath id="clip-path-7"><rect class="cls-1" x="235.56" y="198.29" width="103.85" height="4.24"/></clipPath></defs><path class="cls-2" d="M235,33.64c-132.23.94-225,140.3-217.76,272.79,8.06,146.94,136.7,239.86,159,255.34,77.5,53.82,225,112.86,315.42,43.86,100.51-76.69,56.43-255,14.5-344.66C495.18,237.46,396.07,32.49,235,33.64Z"/><g id="freepik--background-simple--inject-71" class="cls-3"><path class="cls-4" d="M62.07,225.43c37.37-68.78,131.32-149,260.24-115.61S538.31,214,524,337.06,434.76,562.4,273.22,565.38-19.84,376.21,62.07,225.43Z"/></g><g id="freepik--Clouds--inject-71"><path class="cls-5" d="M57.07,210s3.25-12.48,25.17-12.55S117,219.35,117,219.35s9.19-9.55,20.3-3.18,11.08,10,11.08,10h28.51"/><path class="cls-5" d="M519.84,229.9s-3.26-12.5-25.17-12.56-34.76,21.88-34.76,21.88-9.19-9.55-20.3-3.18-11.08,10-11.08,10H400"/><path class="cls-5" d="M467.22,207.28H451.15s4.39-9.26-5.54-20.23-20-3.67-20-3.67-9.75-33.36-38.17-29.44S356,185.25,356,185.25s-6.07-6.73-18.45-2.31-14.26,21.36-11.19,28.52c0,0-14.09,2.73-15,14.76,0,0-.87-10.64-14.13-11s-16.57,16.14-16.57,16.14h-14.9"/><path class="cls-5" d="M105.43,183.41l74.34-3.71c8.17-27.33,39.1-15.9,39.1-15.9C230.57,135.44,258,149,258,149s13.89-27.32,41.32-21.61a42.66,42.66,0,0,1,33,29.9l18.93.8"/></g><g id="freepik--Buildings--inject-71"><polyline class="cls-5" points="68.84 461.77 68.84 383.31 81.15 383.31 91.91 372.54 91.91 356.99 95.5 356.99 95.5 426.87"/><polyline class="cls-5" points="84.47 473.18 84.47 432.25 121.38 432.25 121.38 507.06"/><polyline class="cls-5" points="105.42 426.87 105.42 400.37 121.38 400.37 121.38 378.18 125.58 378.18 125.58 342.49 128.95 342.49 128.95 369.64 133.78 369.64 133.78 401.04 140.26 407.52 140.26 425.1 152.24 425.1"/><polyline class="cls-5" points="132.31 511.83 132.31 462.89 142.66 462.89 142.66 439.3 156.33 439.3 156.33 401.04 162.57 401.04"/><polyline class="cls-5" points="437.31 438.11 437.31 426.87 429.11 426.87 429.11 405.05 425.69 405.05 425.69 426.61 412.41 426.61 412.41 435.72"/><polyline class="cls-5" points="479.44 428.13 479.44 400.54 463.29 384.39 457.13 384.39 457.13 405.05 453.04 405.05 453.04 408.74 457.13 408.74 457.13 441.89 421.58 441.89 421.58 497.38 421.58 527.78"/><polyline class="cls-5" points="467.22 498.93 467.22 432.25 501.58 432.25 501.58 449.02"/><polyline class="cls-5" points="489.95 426.87 489.95 378.18 493.37 378.18 493.37 426.87"/><polyline class="cls-5" points="412.41 524.75 412.41 477.26 378.1 477.26 378.1 415.13 350.27 387.29 350.27 358.3 344.35 358.3 344.35 479.82"/><polyline class="cls-5" points="353.97 538.46 353.97 486.26 317.46 486.26 317.46 450.49 312.7 450.49 312.7 399.29 308.32 399.29 308.32 350.56 302.48 350.56 302.48 292.06 297.34 292.06 297.34 348.33 290.57 355.1 290.57 383.31 278.25 383.31 278.25 450.44 253.45 450.44 253.45 493.19 236.94 493.19 236.94 538.46"/><polyline class="cls-5" points="166.44 425.1 185.78 425.1 185.78 471.92 201.13 471.92 201.13 510.31"/><polyline class="cls-5" points="188.8 440.96 201.13 440.96 201.13 396.74 259.9 396.74 259.9 441.89"/><line class="cls-5" x1="317.74" y1="432.25" x2="338.71" y2="432.25"/><polyline class="cls-5" points="394.25 473.18 394.25 390.83 389.81 390.83 389.81 474.27"/><polygon class="cls-4" points="389.81 207.93 389.81 248.09 385.77 248.09 385.77 214.15 361.2 214.15 361.2 248.09 357.17 248.09 357.17 214.15 218.18 214.15 218.18 248.09 214.15 248.09 214.15 214.15 189.58 214.15 189.58 248.09 185.55 248.09 185.55 207.93 389.81 207.93"/><g class="cls-6"><polygon class="cls-7" points="389.81 207.93 389.81 224.99 385.77 224.99 385.77 214.15 361.2 214.15 361.2 224.99 357.17 224.99 357.17 214.15 218.18 214.15 218.18 224.99 214.15 224.99 214.15 214.15 189.58 214.15 189.58 224.99 185.55 224.99 185.55 207.93 389.81 207.93"/></g><polygon class="cls-5" points="389.81 207.93 389.81 248.09 385.77 248.09 385.77 214.15 361.2 214.15 361.2 248.09 357.17 248.09 357.17 214.15 218.18 214.15 218.18 248.09 214.15 248.09 214.15 214.15 189.58 214.15 189.58 248.09 185.55 248.09 185.55 207.93 389.81 207.93"/><polygon class="cls-4" points="383.8 199.16 327.13 199.16 299.68 199.16 191.17 199.16 162.57 216.69 272.42 216.69 315.5 216.69 412.41 216.69 383.8 199.16"/><g class="cls-8"><polygon class="cls-9" points="383.8 199.16 327.13 199.16 299.68 199.16 191.17 199.16 162.57 216.69 272.42 216.69 315.5 216.69 412.41 216.69 383.8 199.16"/><polygon class="cls-10" points="333.81 199.16 248.12 199.16 248.12 216.69 355.96 216.69 333.81 199.16"/></g><polygon class="cls-5" points="383.8 199.16 327.13 199.16 299.68 199.16 191.17 199.16 162.57 216.69 272.42 216.69 315.5 216.69 412.41 216.69 383.8 199.16"/><line class="cls-5" x1="230.93" y1="202.53" x2="379.11" y2="202.53"/><line class="cls-5" x1="342.4" y1="206.26" x2="237.44" y2="206.26"/><line class="cls-5" x1="212.62" y1="210.57" x2="333.23" y2="210.57"/><line class="cls-5" x1="347.15" y1="206.26" x2="350.74" y2="206.26"/><line class="cls-5" x1="362.25" y1="206.26" x2="376.13" y2="206.26"/><line class="cls-5" x1="385.39" y1="202.53" x2="387.91" y2="202.53"/><line class="cls-5" x1="340.49" y1="210.57" x2="369.98" y2="210.57"/><line class="cls-5" x1="376.13" y1="210.57" x2="380.07" y2="210.57"/><line class="cls-5" x1="389.8" y1="210.57" x2="402.42" y2="210.57"/><line class="cls-5" x1="179.59" y1="206.26" x2="206.92" y2="206.26"/><line class="cls-5" x1="220.76" y1="206.26" x2="224.36" y2="206.26"/><line class="cls-5" x1="220.76" y1="202.53" x2="193.25" y2="202.53"/><line class="cls-5" x1="185.55" y1="210.57" x2="192.05" y2="210.57"/><path class="cls-11" d="M400.64,246.93V535.6c-34.46,18.14-76.67,28.84-127.42,29.81a210.71,210.71,0,0,1-98.9-23.14V246.93Z"/><path class="cls-9" d="M400.64,246.93V535.6c-34.46,18.14-76.67,28.84-127.42,29.81a210.71,210.71,0,0,1-98.9-23.14V246.93Z"/><rect class="cls-12" x="324.32" y="248.1" width="10.02" height="309.98"/><polygon class="cls-12" points="223.34 542.09 218.18 555.05 218.18 252.06 223.34 265.02 223.34 542.09"/><polyline class="cls-12" points="359.5 523.25 369.33 533.07 400.64 533.07 400.64 523.25 359.5 523.25"/><polyline class="cls-12" points="359.5 466 369.33 475.82 400.64 475.82 400.64 466 359.5 466"/><polyline class="cls-12" points="359.5 408.74 369.33 418.56 400.64 418.56 400.64 408.74 359.5 408.74"/><polyline class="cls-12" points="359.5 351.49 369.33 361.32 400.64 361.32 400.64 351.49 359.5 351.49"/><polyline class="cls-12" points="359.5 294.25 369.33 304.07 400.64 304.07 400.64 294.25 359.5 294.25"/><polyline class="cls-12" points="174.17 523.25 183.99 533.07 217.9 533.07 217.9 523.25 174.17 523.25"/><polyline class="cls-12" points="174.17 466 183.99 475.82 217.9 475.82 217.9 466 174.17 466"/><polyline class="cls-12" points="174.17 408.74 183.99 418.56 217.9 418.56 217.9 408.74 174.17 408.74"/><polyline class="cls-12" points="174.17 351.49 183.99 361.32 217.9 361.32 217.9 351.49 174.17 351.49"/><polyline class="cls-12" points="174.17 294.25 183.99 304.07 217.9 304.07 217.9 294.25 174.17 294.25"/><line class="cls-5" x1="177.43" y1="234.18" x2="397.53" y2="234.18"/><line class="cls-5" x1="177.43" y1="237.45" x2="397.53" y2="237.45"/><line class="cls-5" x1="177.43" y1="240.73" x2="397.53" y2="240.73"/><line class="cls-5" x1="177.43" y1="244.01" x2="397.53" y2="244.01"/><rect class="cls-5" x="177.43" y="231.26" width="220.1" height="15.67"/><rect class="cls-4" x="159.76" y="214.15" width="255.45" height="4.24"/><g class="cls-13"><rect class="cls-9" x="159.76" y="214.15" width="255.45" height="4.24"/><rect class="cls-12" x="248.12" y="214.15" width="109.05" height="4.24"/></g><rect class="cls-5" x="159.76" y="214.15" width="255.45" height="4.24"/><polyline class="cls-5" points="174.32 542.25 174.32 246.93 400.64 246.93 400.64 535.6"/><polyline class="cls-14" points="247.12 567.46 247.12 199.16 327.84 199.16 327.84 564.86"/><g class="cls-15"><rect class="cls-7" x="247.12" y="202.53" width="80.72" height="9.59"/></g><polyline class="cls-5" points="247.12 567.46 247.12 199.16 327.84 199.16 327.84 564.86"/><rect class="cls-16" x="253.14" y="257.43" width="22.38" height="17.06"/><rect class="cls-17" x="264.98" y="258.07" width="9.89" height="15.76"/><path class="cls-18" d="M274.22,258.72v14.47h-8.59V258.72h8.59m1.3-1.29H264.33v17.05h11.19Z"/><rect class="cls-16" x="178.16" y="257.43" width="34.55" height="32.73"/><line class="cls-5" x1="189.58" y1="257.43" x2="189.58" y2="290.15"/><path class="cls-18" d="M211.43,258.72v30.14h-9V258.72h9m1.3-1.29h-11.6v32.72h11.6Z"/><rect class="cls-19" x="166.44" y="290.15" width="49.02" height="4.26"/><line class="cls-5" x1="166.44" y1="277.4" x2="215.46" y2="277.4"/><line class="cls-5" x1="166.44" y1="280.68" x2="215.46" y2="280.68"/><line class="cls-5" x1="166.44" y1="283.96" x2="215.46" y2="283.96"/><line class="cls-5" x1="166.44" y1="287.24" x2="215.46" y2="287.24"/><rect class="cls-5" x="166.44" y="274.48" width="49.02" height="15.67"/><rect class="cls-16" x="228.9" y="257.43" width="7.36" height="17.06"/><rect class="cls-16" x="299.44" y="257.43" width="22.38" height="17.06"/><rect class="cls-17" x="300.09" y="258.07" width="9.89" height="15.76"/><path class="cls-18" d="M309.35,258.72v14.47h-8.62V258.72h8.6m1.3-1.29h-11.2v17.05h11.2Z"/><rect class="cls-16" x="362.25" y="257.43" width="34.55" height="32.73"/><line class="cls-5" x1="385.39" y1="257.43" x2="385.39" y2="290.15"/><path class="cls-18" d="M372.54,258.72v30.14h-9V258.72h9m1.3-1.29H362.25v32.72h11.59Z"/><rect class="cls-19" x="359.52" y="290.16" width="49.02" height="4.26"/><line class="cls-5" x1="408.52" y1="277.4" x2="359.5" y2="277.4"/><line class="cls-5" x1="408.52" y1="280.68" x2="359.5" y2="280.68"/><line class="cls-5" x1="408.52" y1="283.96" x2="359.5" y2="283.96"/><line class="cls-5" x1="408.52" y1="287.24" x2="359.5" y2="287.24"/><rect class="cls-5" x="359.52" y="274.5" width="49.02" height="15.67"/><rect class="cls-16" x="338.7" y="257.43" width="7.36" height="17.06"/><rect class="cls-16" x="253.14" y="314.63" width="22.38" height="17.06"/><rect class="cls-17" x="264.98" y="315.28" width="9.89" height="15.76"/><path class="cls-18" d="M274.22,315.93v14.48h-8.59V315.93h8.59m1.3-1.3H264.33V331.7h11.19Z"/><rect class="cls-16" x="178.16" y="314.63" width="34.55" height="32.73"/><line class="cls-5" x1="189.58" y1="314.63" x2="189.58" y2="347.36"/><path class="cls-18" d="M211.43,315.93v30.13h-9V315.93h9m1.3-1.3h-11.6v32.73h11.6Z"/><rect class="cls-19" x="166.44" y="347.36" width="49.02" height="4.26"/><line class="cls-5" x1="166.44" y1="334.61" x2="215.46" y2="334.61"/><line class="cls-5" x1="166.44" y1="337.89" x2="215.46" y2="337.89"/><line class="cls-5" x1="166.44" y1="341.16" x2="215.46" y2="341.16"/><line class="cls-5" x1="166.44" y1="344.44" x2="215.46" y2="344.44"/><rect class="cls-5" x="166.44" y="331.69" width="49.02" height="15.67"/><rect class="cls-16" x="228.9" y="314.63" width="7.36" height="17.06"/><rect class="cls-16" x="299.44" y="314.63" width="22.38" height="17.06"/><rect class="cls-17" x="300.09" y="315.28" width="9.89" height="15.76"/><path class="cls-18" d="M309.35,315.93v14.48h-8.62V315.93h8.6m1.3-1.3h-11.2V331.7h11.2Z"/><rect class="cls-16" x="362.25" y="314.63" width="34.55" height="32.73"/><line class="cls-5" x1="385.39" y1="314.63" x2="385.39" y2="347.36"/><path class="cls-18" d="M372.54,315.93v30.13h-9V315.93h9m1.3-1.3H362.25v32.73h11.59Z"/><rect class="cls-19" x="359.52" y="347.36" width="49.02" height="4.26"/><line class="cls-5" x1="408.52" y1="334.61" x2="359.5" y2="334.61"/><line class="cls-5" x1="408.52" y1="337.89" x2="359.5" y2="337.89"/><line class="cls-5" x1="408.52" y1="341.16" x2="359.5" y2="341.16"/><line class="cls-5" x1="408.52" y1="344.44" x2="359.5" y2="344.44"/><rect class="cls-5" x="359.52" y="331.69" width="49.02" height="15.67"/><rect class="cls-16" x="338.7" y="314.63" width="7.36" height="17.06"/><rect class="cls-16" x="253.14" y="371.84" width="22.38" height="17.06"/><rect class="cls-17" x="264.98" y="372.49" width="9.89" height="15.76"/><path class="cls-18" d="M274.22,373.18v14.46h-8.59V373.18h8.59m1.3-1.3H264.33v17.06h11.19Z"/><rect class="cls-16" x="178.16" y="371.84" width="34.55" height="32.73"/><line class="cls-5" x1="189.58" y1="371.84" x2="189.58" y2="404.57"/><path class="cls-18" d="M211.43,373.18v30.13h-9V373.18h9m1.3-1.3h-11.6v32.73h11.6Z"/><rect class="cls-19" x="166.44" y="404.57" width="49.02" height="4.26"/><line class="cls-5" x1="166.44" y1="391.81" x2="215.46" y2="391.81"/><line class="cls-5" x1="166.44" y1="395.09" x2="215.46" y2="395.09"/><line class="cls-5" x1="166.44" y1="398.37" x2="215.46" y2="398.37"/><line class="cls-5" x1="166.44" y1="401.65" x2="215.46" y2="401.65"/><rect class="cls-5" x="166.44" y="388.9" width="49.02" height="15.67"/><rect class="cls-16" x="228.9" y="371.84" width="7.36" height="17.06"/><rect class="cls-16" x="299.44" y="371.84" width="22.38" height="17.06"/><rect class="cls-17" x="300.09" y="372.49" width="9.89" height="15.76"/><path class="cls-18" d="M309.35,373.18v14.46h-8.62V373.18h8.6m1.3-1.3h-11.2v17.06h11.2Z"/><rect class="cls-16" x="362.25" y="371.84" width="34.55" height="32.73"/><line class="cls-5" x1="385.39" y1="371.84" x2="385.39" y2="404.57"/><path class="cls-18" d="M372.54,373.18v30.13h-9V373.18h9m1.3-1.3H362.25v32.73h11.59Z"/><rect class="cls-19" x="359.52" y="404.57" width="49.02" height="4.26"/><line class="cls-5" x1="408.52" y1="391.81" x2="359.5" y2="391.81"/><line class="cls-5" x1="408.52" y1="395.09" x2="359.5" y2="395.09"/><line class="cls-5" x1="408.52" y1="398.37" x2="359.5" y2="398.37"/><line class="cls-5" x1="408.52" y1="401.65" x2="359.5" y2="401.65"/><rect class="cls-5" x="359.52" y="388.9" width="49.02" height="15.67"/><rect class="cls-16" x="338.7" y="371.84" width="7.36" height="17.06"/><rect class="cls-16" x="253.14" y="429.05" width="22.38" height="17.06"/><rect class="cls-17" x="264.98" y="429.7" width="9.89" height="15.76"/><path class="cls-18" d="M274.22,430.35v14.46h-8.59V430.35h8.59m1.3-1.3H264.33v17.06h11.19Z"/><rect class="cls-16" x="178.16" y="429.05" width="34.55" height="32.73"/><line class="cls-5" x1="189.58" y1="429.05" x2="189.58" y2="461.78"/><path class="cls-18" d="M211.43,430.35v30.13h-9V430.35h9m1.3-1.3h-11.6v32.73h11.6Z"/><rect class="cls-19" x="166.44" y="461.78" width="49.02" height="4.26"/><line class="cls-5" x1="166.44" y1="449.02" x2="215.46" y2="449.02"/><line class="cls-5" x1="166.44" y1="452.3" x2="215.46" y2="452.3"/><line class="cls-5" x1="166.44" y1="455.58" x2="215.46" y2="455.58"/><line class="cls-5" x1="166.44" y1="458.86" x2="215.46" y2="458.86"/><rect class="cls-5" x="166.44" y="446.11" width="49.02" height="15.67"/><rect class="cls-16" x="228.9" y="429.05" width="7.36" height="17.06"/><rect class="cls-16" x="299.44" y="429.05" width="22.38" height="17.06"/><rect class="cls-17" x="300.09" y="429.7" width="9.89" height="15.76"/><path class="cls-18" d="M309.35,430.35v14.46h-8.62V430.35h8.6m1.3-1.3h-11.2v17.06h11.2Z"/><rect class="cls-16" x="362.25" y="429.05" width="34.55" height="32.73"/><line class="cls-5" x1="385.39" y1="429.05" x2="385.39" y2="461.78"/><path class="cls-18" d="M372.54,430.35v30.13h-9V430.35h9m1.3-1.3H362.25v32.73h11.59Z"/><rect class="cls-19" x="359.52" y="461.78" width="49.02" height="4.26"/><line class="cls-5" x1="408.52" y1="449.02" x2="359.5" y2="449.02"/><line class="cls-5" x1="408.52" y1="452.3" x2="359.5" y2="452.3"/><line class="cls-5" x1="408.52" y1="455.58" x2="359.5" y2="455.58"/><line class="cls-5" x1="408.52" y1="458.86" x2="359.5" y2="458.86"/><rect class="cls-5" x="359.52" y="446.11" width="49.02" height="15.67"/><rect class="cls-16" x="338.7" y="429.05" width="7.36" height="17.06"/><rect class="cls-16" x="253.14" y="486.26" width="22.38" height="17.06"/><rect class="cls-17" x="264.98" y="486.91" width="9.89" height="15.76"/><path class="cls-18" d="M274.22,487.55V502h-8.59V487.55h8.59m1.3-1.29H264.33v17.05h11.19Z"/><rect class="cls-16" x="178.16" y="486.26" width="34.55" height="32.73"/><line class="cls-5" x1="189.58" y1="486.26" x2="189.58" y2="518.98"/><path class="cls-18" d="M211.43,487.55v30.14h-9V487.55h9m1.3-1.29h-11.6V519h11.6Z"/><rect class="cls-19" x="166.44" y="518.98" width="49.02" height="4.26"/><line class="cls-5" x1="166.44" y1="506.23" x2="215.46" y2="506.23"/><line class="cls-5" x1="166.44" y1="509.51" x2="215.46" y2="509.51"/><line class="cls-5" x1="166.44" y1="512.79" x2="215.46" y2="512.79"/><line class="cls-5" x1="166.44" y1="516.07" x2="215.46" y2="516.07"/><rect class="cls-5" x="166.44" y="503.31" width="49.02" height="15.67"/><rect class="cls-16" x="228.9" y="486.26" width="7.36" height="17.06"/><rect class="cls-16" x="299.44" y="486.26" width="22.38" height="17.06"/><rect class="cls-17" x="300.09" y="486.91" width="9.89" height="15.76"/><path class="cls-18" d="M309.35,487.55V502h-8.62V487.55h8.6m1.3-1.29h-11.2v17.05h11.2Z"/><rect class="cls-16" x="362.25" y="486.26" width="34.55" height="32.73"/><line class="cls-5" x1="385.39" y1="486.26" x2="385.39" y2="518.98"/><path class="cls-18" d="M372.54,487.55v30.14h-9V487.55h9m1.3-1.29H362.25V519h11.59Z"/><rect class="cls-19" x="359.52" y="518.98" width="49.02" height="4.26"/><line class="cls-5" x1="408.52" y1="506.23" x2="359.5" y2="506.23"/><line class="cls-5" x1="408.52" y1="509.51" x2="359.5" y2="509.51"/><line class="cls-5" x1="408.52" y1="512.79" x2="359.5" y2="512.79"/><line class="cls-5" x1="408.52" y1="516.07" x2="359.5" y2="516.07"/><rect class="cls-5" x="359.52" y="503.31" width="49.02" height="15.67"/><rect class="cls-16" x="338.7" y="486.26" width="7.36" height="17.06"/><rect class="cls-17" x="247.12" y="207.93" width="80.72" height="17.06"/><g class="cls-20"><rect class="cls-21" x="247.12" y="207.93" width="80.73" height="4.89"/></g><rect class="cls-5" x="247.12" y="207.93" width="80.72" height="17.06"/><line class="cls-5" x1="256.22" y1="207.93" x2="256.22" y2="224.99"/><line class="cls-5" x1="266.64" y1="207.93" x2="266.64" y2="224.99"/><line class="cls-5" x1="277.06" y1="207.93" x2="277.06" y2="224.99"/><line class="cls-5" x1="287.48" y1="207.93" x2="287.48" y2="224.99"/><line class="cls-5" x1="297.9" y1="207.93" x2="297.9" y2="224.99"/><line class="cls-5" x1="308.32" y1="207.93" x2="308.32" y2="224.99"/><line class="cls-5" x1="318.76" y1="207.93" x2="318.76" y2="224.99"/><polygon class="cls-4" points="338.04 200.41 236.94 200.41 251.23 182.87 323.73 182.87 338.04 200.41"/><g class="cls-22"><polygon class="cls-9" points="338.04 200.41 236.94 200.41 251.23 182.87 323.73 182.87 338.04 200.41"/></g><polygon class="cls-5" points="338.04 200.41 236.94 200.41 251.23 182.87 323.73 182.87 338.04 200.41"/><rect class="cls-4" x="235.56" y="198.29" width="103.85" height="4.24"/><g class="cls-23"><rect class="cls-9" x="235.56" y="198.29" width="103.85" height="4.24"/></g><rect class="cls-5" x="235.56" y="198.29" width="103.85" height="4.24"/><rect class="cls-12" x="256.96" y="230" width="7.56" height="3.03"/><rect class="cls-12" x="263.01" y="233.46" width="7.56" height="3.03"/><rect class="cls-12" x="284.25" y="250.56" width="7.56" height="3.03"/><rect class="cls-12" x="280.47" y="254.56" width="7.56" height="3.03"/><rect class="cls-12" x="253.19" y="281.65" width="7.56" height="3.03"/><rect class="cls-12" x="257.32" y="285.42" width="7.56" height="3.03"/><rect class="cls-12" x="301.32" y="289.02" width="7.56" height="3.03"/><rect class="cls-12" x="297.33" y="293.07" width="7.56" height="3.03"/><rect class="cls-12" x="255.57" y="308.93" width="7.56" height="3.03"/><rect class="cls-12" x="261.65" y="281.65" width="7.56" height="3.03"/><rect class="cls-12" x="285.62" y="369.64" width="7.56" height="3.03"/><rect class="cls-12" x="252.35" y="366.17" width="7.56" height="3.03"/><rect class="cls-12" x="262.22" y="346.49" width="7.56" height="3.03"/><rect class="cls-12" x="265.99" y="342.49" width="7.56" height="3.03"/><rect class="cls-12" x="289.39" y="317.99" width="7.56" height="3.03"/><rect class="cls-12" x="285.25" y="314.21" width="7.56" height="3.03"/><rect class="cls-12" x="303.29" y="241.72" width="7.56" height="3.03"/><rect class="cls-12" x="307.29" y="237.67" width="7.56" height="3.03"/><rect class="cls-12" x="305.03" y="305.67" width="7.56" height="3.03"/><rect class="cls-12" x="280.92" y="317.99" width="7.56" height="3.03"/><rect class="cls-12" x="312" y="348.33" width="7.56" height="3.03"/><rect class="cls-12" x="305.95" y="344.86" width="7.56" height="3.03"/><rect class="cls-12" x="286.02" y="507.93" width="7.56" height="3.03"/><rect class="cls-12" x="304.05" y="532.42" width="7.56" height="3.03"/><rect class="cls-12" x="318.37" y="482.01" width="7.56" height="3.03"/><rect class="cls-12" x="314.23" y="478.23" width="7.56" height="3.03"/><rect class="cls-12" x="255.97" y="479.82" width="7.56" height="3.03"/><rect class="cls-12" x="259.97" y="475.77" width="7.56" height="3.03"/><rect class="cls-12" x="315.98" y="454.72" width="7.56" height="3.03"/><rect class="cls-12" x="309.9" y="482.01" width="7.56" height="3.03"/><path class="cls-12" d="M281.55,482.2c7.34-.08,14.91-.08,22,0"/><rect class="cls-12" x="269.1" y="390.13" width="7.56" height="3.03"/><rect class="cls-12" x="275.14" y="393.6" width="7.56" height="3.03"/><rect class="cls-12" x="292.5" y="413.28" width="7.56" height="3.03"/><rect class="cls-12" x="288.71" y="457.46" width="7.56" height="3.03"/><rect class="cls-12" x="265.32" y="436.61" width="7.56" height="3.03"/><rect class="cls-12" x="269.47" y="440.38" width="7.56" height="3.03"/><rect class="cls-12" x="263.08" y="519.35" width="7.56" height="3.03"/><rect class="cls-12" x="259.09" y="523.39" width="7.56" height="3.03"/><rect class="cls-12" x="249.68" y="448.91" width="7.56" height="3.03"/><rect class="cls-12" x="273.78" y="436.61" width="7.56" height="3.03"/><rect class="cls-10" x="248.07" y="509.02" width="7.56" height="3.03"/><rect class="cls-10" x="254.13" y="505.54" width="7.56" height="3.03"/><rect class="cls-10" x="311.52" y="512.8" width="7.56" height="3.03"/><rect class="cls-10" x="307.74" y="508.8" width="7.56" height="3.03"/><rect class="cls-10" x="305.5" y="467.22" width="7.56" height="3.03"/><rect class="cls-10" x="309.64" y="463.46" width="7.56" height="3.03"/><rect class="cls-10" x="282.76" y="486.57" width="7.56" height="3.03"/><rect class="cls-10" x="278.77" y="482.52" width="7.56" height="3.03"/><rect class="cls-10" x="287.7" y="524.75" width="7.56" height="3.03"/><rect class="cls-10" x="313.96" y="467.22" width="7.56" height="3.03"/><rect class="cls-10" x="285.62" y="392.79" width="7.56" height="3.03"/><rect class="cls-10" x="252.35" y="396.26" width="7.56" height="3.03"/><rect class="cls-10" x="259.21" y="412.08" width="7.56" height="3.03"/><rect class="cls-10" x="262.99" y="416.1" width="7.56" height="3.03"/><rect class="cls-10" x="270.83" y="457.6" width="7.56" height="3.03"/><rect class="cls-10" x="266.69" y="461.37" width="7.56" height="3.03"/><rect class="cls-10" x="249.36" y="425.1" width="7.56" height="3.03"/><rect class="cls-10" x="262.36" y="457.6" width="7.56" height="3.03"/><rect class="cls-10" x="312" y="414.09" width="7.56" height="3.03"/><rect class="cls-10" x="305.95" y="417.57" width="7.56" height="3.03"/><rect class="cls-10" x="254.67" y="241.72" width="7.56" height="3.03"/><rect class="cls-10" x="310.6" y="230.66" width="7.56" height="3.03"/><rect class="cls-10" x="315.29" y="278.53" width="7.56" height="3.03"/><rect class="cls-10" x="311.15" y="282.3" width="7.56" height="3.03"/><rect class="cls-10" x="279.73" y="236.16" width="7.56" height="3.03"/><rect class="cls-10" x="283.72" y="240.2" width="7.56" height="3.03"/><rect class="cls-10" x="315.98" y="307.69" width="7.56" height="3.03"/><rect class="cls-10" x="306.83" y="278.53" width="7.56" height="3.03"/><rect class="cls-10" x="259.9" y="299.5" width="7.56" height="3.03"/><rect class="cls-10" x="265.94" y="296.02" width="7.56" height="3.03"/><rect class="cls-10" x="277.75" y="358.3" width="7.56" height="3.03"/><rect class="cls-10" x="288.71" y="304.95" width="7.56" height="3.03"/><rect class="cls-10" x="285.39" y="352.87" width="3.03" height="7.56" transform="translate(-81.63 628.11) rotate(-87.56)"/><rect class="cls-10" x="288.53" y="349.82" width="3.04" height="7.56" transform="translate(-74.86 629.29) rotate(-87.71)"/><rect class="cls-10" x="284.92" y="274.3" width="7.56" height="3.03"/><rect class="cls-10" x="280.92" y="270.26" width="7.56" height="3.03"/><rect class="cls-10" x="285.02" y="330.73" width="3.03" height="7.56" transform="translate(-59.86 606.54) rotate(-87.56)"/><rect class="cls-10" x="293.84" y="353.22" width="3.03" height="7.56" transform="translate(-73.89 636.89) rotate(-87.56)"/><line class="cls-5" x1="218.18" y1="252.06" x2="218.18" y2="545.38"/><line class="cls-5" x1="357.17" y1="252.06" x2="357.17" y2="545.38"/><path class="cls-5" d="M315.42,186.61h4.35"/><path class="cls-5" d="M265.73,186.55H304"/><path class="cls-5" d="M248.19,186.61h13.25"/><line class="cls-5" x1="274.94" y1="190.34" x2="268.65" y2="190.34"/><path class="cls-5" d="M329.32,190.34q-18.44.07-36.86,0"/><line class="cls-5" x1="326.39" y1="194.65" x2="329.32" y2="194.65"/><line class="cls-5" x1="279.46" y1="194.65" x2="304.73" y2="194.65"/><line class="cls-5" x1="253.01" y1="194.65" x2="275.51" y2="194.65"/><line class="cls-5" x1="241.63" y1="194.65" x2="245.39" y2="194.65"/><line class="cls-5" x1="284.22" y1="190.34" x2="286.28" y2="190.34"/></g><g id="freepik--Stars--inject-71"><path class="cls-16" d="M169.74,315.06l-11.42-8.49v4.6H102.43A6.48,6.48,0,0,1,96,304.69v-9.28h45a4.94,4.94,0,0,0,4.93-5V267.92a5,5,0,0,0-4.93-4.95H43.16a4.94,4.94,0,0,0-4.94,4.94h0v22.5a4.94,4.94,0,0,0,4.89,5H88.17v11.21A12.37,12.37,0,0,0,100.53,319h57.81v4.61Z"/><polygon class="cls-19" points="55.13 271.98 57.46 276.71 62.68 277.48 58.91 281.16 59.8 286.37 55.13 283.92 50.45 286.37 51.34 281.16 47.56 277.48 52.78 276.71 55.13 271.98"/><polygon class="cls-19" points="73.58 271.98 75.91 276.71 81.15 277.48 77.37 281.16 78.26 286.37 73.58 283.92 68.9 286.37 69.8 281.16 66.01 277.48 71.23 276.71 73.58 271.98"/><polygon class="cls-19" points="92.04 271.98 94.37 276.71 99.61 277.48 95.82 281.16 96.72 286.37 92.04 283.92 87.36 286.37 88.25 281.16 84.47 277.48 89.69 276.71 92.04 271.98"/><polygon class="cls-19" points="110.49 271.98 112.84 276.71 118.06 277.48 114.28 281.16 115.17 286.37 110.49 283.92 105.81 286.37 106.71 281.16 102.92 277.48 108.16 276.71 110.49 271.98"/><polygon class="cls-19" points="128.95 271.98 131.29 276.71 136.52 277.48 132.73 281.16 133.63 286.37 128.95 283.92 124.27 286.37 125.16 281.16 121.38 277.48 126.62 276.71 128.95 271.98"/></g><g id="freepik--hand-2--inject-71"><path class="cls-17" d="M589.82,346.75l-15.2,46S458,393,433.29,396.36s-54.64,17.29-54.64,17.29C368.41,419,338.2,416.3,342,409.44a29.35,29.35,0,0,0,2.82-8,39.89,39.89,0,0,0,.88-7.78c-4,3.82-11.16,7.24-11.16,7.24-1.79,5.44-8,13.35-8,13.35l-7,17c2.25,11.93-4,14.38-6,13.41s-3.21-5.46-3.21-5.46l-3.3-.61s-6.42,6.63-9.52,5.92-3.33-5.63-3.33-5.63-2.57,2.46-5.79-.55A5.89,5.89,0,0,1,287,435c-.8-5.55,1-15.41,1.75-19,.88-4.54,7-24.87,7.81-27.32s21.35-18.89,27.78-24.66,12.3-13.45,18.72-14.65,11.63,3.23,29.69,8,34.48,6.26,43.49,5.9,12.29-3.78,24.92-2.68S588.91,346.77,589.82,346.75Z"/><path class="cls-24" d="M350,393.26a62.86,62.86,0,0,1-5.19,8.19,40,40,0,0,0,.88-7.78c-4,3.81-11.16,7.23-11.16,7.23-1.79,5.44-8,13.36-8,13.36l-7,17c2.26,11.92-4,14.37-6,13.4s-3.21-5.45-3.21-5.45l-3.31-.62s-6.42,6.63-9.51,5.92-3.33-5.63-3.33-5.63-2.58,2.47-5.8-.55A5.94,5.94,0,0,1,287,435c1.16,1.06,3,1,5.83-2.53a20.24,20.24,0,0,0,3.9-17.14s9.66-10.24,10.39-13.24-1.47-6.86.34-8.47,3.43,2.88,6.39,1.34,15.27-11.58,15.41-13.13,2.51-.67,4.12-1.37,3.1-6.17,4.55-5a35.66,35.66,0,0,1,2.92,2.79,14.54,14.54,0,0,0,1.22-3.69c-.12-.72,4,7.74,5.75,8.6S352.85,387,350,393.26Z"/><path class="cls-5" d="M589.82,346.75c-.91,0-136,15-148.64,13.86s-15.92,2.29-24.93,2.68-25.42-1.14-43.49-5.9-23.24-9.19-29.68-8-12.31,8.92-18.72,14.65-27,22.21-27.78,24.66-6.93,22.78-7.82,27.32-3.63,19.28-.42,22.32,5.8.55,5.8.55.25,4.91,3.33,5.63,9.51-5.92,9.51-5.92l3.31.61s1.17,4.48,3.21,5.46,8.29-1.48,6-13.41l7-17s6.23-7.91,8-13.35c0,0,7.16-3.38,11.15-7.24,0,0,.08,8.89-3.7,15.74s26.44,9.6,36.68,4.22"/><path class="cls-5" d="M294.12,439s8.58-10.82,6.57-19.89a22,22,0,0,0,3.89-5.05c1.71-3.06,6.18-11.78,6.24-13.35s2-2.72,2-2.72a40.9,40.9,0,0,0,7.14-4.47c3.94-3,10-9,10-9s2.92.06,7.47-2.75c0,0,3.81.13,5.32,1.76"/><path class="cls-5" d="M349,386.5s-.1,6.49-3.43,10.4"/><path class="cls-5" d="M345.68,393.69s.71-4.66-.46-6.64"/><path class="cls-5" d="M330,384.51s2.27,6.4,11.12,7.67"/><path class="cls-5" d="M334,393.06s-8.7,8.49-11.48,9.94L319,409.53"/><path class="cls-5" d="M313.32,400a8.14,8.14,0,0,0,6.53,2.16"/><path class="cls-5" d="M334.54,400.89s-5.37,2.32-6.85.81"/><path class="cls-5" d="M336.46,375.14a9.1,9.1,0,0,1,1,6.67"/><path class="cls-5" d="M342,372.38c-.44.53.94,6.65,2.45,9.64"/><path class="cls-5" d="M307,395a7.62,7.62,0,0,0,5.88,2.87"/><path class="cls-5" d="M297.83,417.38s3.36,1.39,4.58-.22"/><ellipse class="cls-25" cx="298.02" cy="443.78" rx="12.95" ry="10.21" transform="translate(-200.65 636.35) rotate(-77.23)"/><path class="cls-19" d="M295.51,455.91a11.15,11.15,0,0,0-19.77-5.86l-13.2,16.29a11.16,11.16,0,0,0,17.35,14l13.19-16.28A11.13,11.13,0,0,0,295.51,455.91Zm-7.94-2.75a1.89,1.89,0,1,1,2.67-.26,1.89,1.89,0,0,1-2.67.26Z"/><path class="cls-16" d="M290.58,462.07l-13.19,16.28a7.94,7.94,0,0,1-12.34-10l13.19-16.3a7.81,7.81,0,0,1,4.57-2.75,8.12,8.12,0,0,0,8.41,7.83,7.1,7.1,0,0,0,1.13-.12A7.94,7.94,0,0,1,290.58,462.07Z"/><path class="cls-4" d="M277.51,458.26l2.92-3.61,1.08.86-1,1.23,6.36,5.17-1,1.16-6.36-5.17-1,1.22Z"/><path class="cls-26" d="M296,451.41l-16.58,2a2.59,2.59,0,0,0-2.34,2.82s0,.07,0,.11l2.58,21.79a2.59,2.59,0,0,0,2.81,2.34h.12l4.83-.57L291.85,517a1.84,1.84,0,0,0,2,1.62h0l3.31-.39a1.84,1.84,0,0,0,1.62-2h0l-4.39-37.12,4.84-.57a2.59,2.59,0,0,0,2.35-2.82s0-.07,0-.11L299,453.75a2.6,2.6,0,0,0-2.79-2.37Zm1.14,4.81a2.22,2.22,0,0,1-1.93,2.47h0l-.52.06a2.22,2.22,0,0,1-2.46-1.94l-.06-.51a2.23,2.23,0,0,1,1.93-2.48l.53-.05a2.21,2.21,0,0,1,2.45,2h0Z"/><polyline class="cls-5" points="295.19 515.67 290.88 479.18 292.65 478.97"/><path class="cls-5" d="M308,446.06c-1.58,7-7.33,11.61-12.82,10.35"/><path class="cls-17" d="M586.31,357.38l-17.54,53.1-4.53-.3h0c-21.82-1.42-114.71-7.46-122.55-7.12-8.89.38-18.31,2.41-21.16,2.06s-22.37,11-28.07,13.69-17.86,3.76-31.2,3-27.65,4.16-31.54,5.89-26,17.36-29,14.59c-2.35-2.21-6.08-4.31-4.23-10.21a23.58,23.58,0,0,1,2.84-5.65C306.11,416,315.61,409.14,322.6,409s28.34-14.5,30.51-19.23Z"/><path class="cls-24" d="M564.2,410.17c-21.82-1.42-114.71-7.46-122.55-7.12-8.89.38-18.3,2.4-21.15,2.06s-22.37,11-28.08,13.69-17.86,3.76-31.19,3-27.65,4.16-31.54,5.89-26,17.36-29,14.58c-2.36-2.21-6.09-4.3-4.24-10.2.84,3.38,2.57,7.55,4.11,6.7,0,0-3.23-1.34,2.74-8.29s8.86-10.29,12-6,7.51,6.81,11.08,1.51,3.27-2.43,12.25-4.87,19.47-8,21.6-7.12,19.7,4.94,25.7,3.91,26-12.62,28-17.21,22.38-5.38,27.8-6.55,24.31,1.27,31.61,2.07-11.81,1.4-18.09,3.28,47.12,2,60.58,3.73C528.88,404.88,562.88,410,564.2,410.17Z"/><path class="cls-5" d="M568.77,410.48s-118.23-7.82-127.12-7.42-18.31,2.41-21.16,2.06-22.37,11-28.07,13.69-17.86,3.76-31.2,3-27.65,4.16-31.54,5.89-26,17.36-29,14.59-8.17-5.43-1.39-15.86,16.27-17.28,23.25-17.39,28.35-14.5,30.51-19.23"/></g><g id="freepik--hand-1--inject-71"><path class="cls-17" d="M313.36,553.07c-8.85,4.47-32.1,7.34-41,10.07-6.29,1.94-28.61-1.79-35.38-2-4.81-.15-12.32,2.94-17.61-.66s-46.26-43.05-56-52.74S90.22,487.24,54.59,474.16c-2.32-.85-4.55-1.67-6.69-2.43-30.73-11.06-43-14-43-14l37.69-58.53s30.23,11.62,74.26,35.35c8.89,4.79,17,9,24.29,12.58C170,461.48,186,467.1,186,467.1s20.05-8.39,30.82,8.07,11.39,27.51,11.39,27.51l16.59,18.44s8.77,1.27,13.39,4.43,13.43.65,17.77-.07a67,67,0,0,1,22.86.52s14.2-.7,22.66,4.75c0,0,7.78-.66,13.63,1.27a11.26,11.26,0,0,1,4.09,2.36,9.58,9.58,0,0,1,2.81,4.51,41.77,41.77,0,0,1-.72,5.44C340.71,547.93,333.13,543.06,313.36,553.07Z"/><path class="cls-24" d="M313.36,553.07c-8.85,4.47-32.1,7.34-41,10.07-6.29,1.94-28.61-1.79-35.38-2-4.81-.15-12.32,2.94-17.61-.66s-46.26-43.05-56-52.74S90.22,487.24,54.59,474.16c-2.32-.85-4.55-1.67-6.69-2.43,15.92,4.13,32.73,8.36,38.06,9.2,11,1.72,63.65,16.17,71.05,17.93s54.44,50.07,60,55.13,10,6.91,15.3,5,23.05.79,23.05.79l-10-2.32s14.39-.4,23.42.29,19.81-4.12,25.91-4,19.27-7.7,24.83-8.36,3-8.94,3-8.94,5.89,1.7,7,6.07c0,0,8.43,3.09,12.57-3.59a41.55,41.55,0,0,1-.72,5.44C340.71,547.93,333.13,543.06,313.36,553.07Z"/><path class="cls-24" d="M339.25,534.42c-15.29-1-19.06.4-19.06.4-2.3-1.6-22.39,3.39-24.09,3.77s-3.88,4.18-3.88,4.18-3.15-6.5-13.11-3.53-12,6.19-12,6.19l-1.87-5.23s-14.16-3.31-18.13-5.37a21.48,21.48,0,0,1-8.29-7c-2.5-3.21-17.21-16-18.8-17.13s-2.74-5.11-2.74-5.11c1-13.53-9.78-32.93-18.6-34.59a32.64,32.64,0,0,0-15.94,1s-15.27-6.84-23.27-9.84-54.34-28.39-54.34-28.39l36,13.25C170,461.37,186,467,186,467s20-8.39,30.82,8.07,11.38,27.51,11.38,27.51L244.78,521s8.77,1.27,13.39,4.43,13.44.65,17.77-.07a67.05,67.05,0,0,1,22.87.52s14.19-.7,22.65,4.75c0,0,7.79-.66,13.63,1.27A11.11,11.11,0,0,1,339.25,534.42Z"/><path class="cls-24" d="M187.28,505.76s-1.05,3.47-2.74,2.56,1.7,5.82,5.2,6.07,9,10.2,11.07,14.47,27.48,17.35,33.28,19.08,12.08-2.75,10-10.05c0,0-2.68,5.64-6.06,3.8,0,0,3.87-.16.33-6.72s-10.48-11.2-12.43-10.76-10.47-6.87-10.85-7.68-3.76,14.33-12.2,11c0,0-7.29-10.29-8.23-13.87S187.28,505.76,187.28,505.76Z"/><path class="cls-5" d="M42.56,399.24s30.28,11.61,74.31,35.34S186,467.1,186,467.1s20.05-8.39,30.82,8.07,11.39,27.51,11.39,27.51l16.59,18.44s8.77,1.27,13.39,4.43,13.43.65,17.77-.07a67,67,0,0,1,22.86.52s14.2-.7,22.66,4.75c0,0,7.78-.66,13.63,1.27a10.15,10.15,0,0,1,6.9,6.87,41.77,41.77,0,0,1-.72,5.44c-.63,3.57-8.19-1.34-28,8.71-8.85,4.47-32.1,7.34-41,10.07-6.29,1.94-28.6-1.79-35.38-2-4.81-.16-12.31,2.93-17.61-.66s-46.26-43-56-52.74S90.21,487.21,54.58,474.13,4.91,457.72,4.91,457.72"/><path class="cls-5" d="M251.25,532.69l15.08,5s14.53-.66,25.14-.06c0,0,17.17-4.59,22.28-4.52s10,3.3,11,6.61a12.28,12.28,0,0,1-.09,6.8s-16.58,4.42-21.58,6.51-14.35,2.56-25.29,5.43-27.43-2.24-34.85-.72"/><path class="cls-5" d="M321.53,530.79s-17.72.62-27.53,6.15"/><path class="cls-5" d="M289.09,536.23s-12.85-.73-22.18-1.11"/><path class="cls-5" d="M260.8,526.66s-1.57,1.1-1.49,4.5"/><path class="cls-5" d="M185.81,504.39s5,4.54,7.57,7.3,3.6,12.38,7.22,15.75,10,6.41,18.36,10.51,19.35,10.18,23.79,3.14S235.63,524.69,230,519a53.35,53.35,0,0,0-10-8.21s-2.33-4.3-3.14-5.92,1.26-8,1.11-11.65"/><path class="cls-5" d="M222.54,498.09s-2.12,5.37-5.23,7.6"/><path class="cls-5" d="M239.62,525.36a16.8,16.8,0,0,1,5.18-4.23"/><path class="cls-5" d="M182.9,507.41s6,3.61,9.37,3.09"/><path class="cls-5" d="M223.45,505.28a9.7,9.7,0,0,1-4.92,2.79"/><path class="cls-5" d="M213.35,517.47s-1.2,6.89-7.93,8.45"/></g><circle class="cls-4" cx="386.95" cy="135.46" r="15.77" transform="translate(191.25 495.72) rotate(-80.78)"/><circle class="cls-9" cx="92.72" cy="227.54" r="9.07"/><circle class="cls-9" cx="484.48" cy="299.45" r="20.53" transform="translate(-69.84 430.28) rotate(-45)"/></svg>