<svg id="Layer_1" data-name="Layer 1" xmlns="http://www.w3.org/2000/svg" viewBox="0 0 24 24"><defs><style>.cls-3{fill:#fdca38}.cls-4{fill:#526481}</style></defs><circle cx="12" cy="12.2" r="10.5" fill="#ebf1fa"/><path fill="none" d="M0 0h24v24H0z"/><circle class="cls-3" cx="4.5" cy="3.8" r="1.1"/><circle class="cls-4" cx="21.6" cy="16.9" r=".9"/><circle class="cls-4" cx="4.2" cy="20.1" r=".4"/><circle class="cls-3" cx="6.5" cy="3.1" r=".4"/><path d="M16.4 5H7.6a2.8 2.8 0 0 0-2.8 2.8v8.8a2.8 2.8 0 0 0 2.8 2.8h8.8a2.8 2.8 0 0 0 2.8-2.8V7.8A2.8 2.8 0 0 0 16.4 5Zm.8 1.7h.3V9h-2.4V6.7Zm-7.2 4a2.5 2.5 0 0 1 4.6 1.5 2.5 2.5 0 1 1-5 0 2.5 2.5 0 0 1 .4-1.5Zm7.8 6a1.4 1.4 0 0 1-1.4 1.3H7.6a1.4 1.4 0 0 1-1.4-1.4v-5.9h2.1a3.9 3.9 0 0 0-.2 1.5 4 4 0 1 0 7.8 0 3.9 3.9 0 0 0-.2-1.5h2.1Z" fill="#46556e"/></svg>