<svg id="Layer_5" data-name="Layer 5" xmlns="http://www.w3.org/2000/svg" viewBox="0 0 1189.34 831.86"><defs><style>.cls-1{fill:#ecf2fb;}.cls-2{fill:#43516a;}.cls-3{fill:#333e52;}.cls-4{fill:#536582;}.cls-5{fill:#fbfbfb;}.cls-6{fill:#37474f;}.cls-7{fill:#fecb39;}.cls-22,.cls-8{fill:#fff;}.cls-23,.cls-9{fill:#010101;}.cls-22,.cls-9{isolation:isolate;}.cls-27,.cls-9{opacity:0.2;}.cls-10{fill:#ebebeb;}.cls-11{fill:#cdcccc;}.cls-12{fill:#bababa;}.cls-13{fill:#f5f5f5;}.cls-14{fill:#e0e0e0;}.cls-15{fill:#b08d22;}.cls-16{fill:#222936;}.cls-17{fill:#b93c48;}.cls-18{fill:#ea4d5c;}.cls-19{fill:#f0f0f0;}.cls-20{fill:#263339;}.cls-21{fill:#465b65;}.cls-22{opacity:0.3;}.cls-24{fill:#f4a6a8;}.cls-25{fill:#f2908f;}.cls-26{opacity:0.1;}</style></defs><path class="cls-1" d="M12.11,404.45C30.74,529.81,175.66,601.1,300.64,578.28,439.25,553,510.35,419.74,522.07,396.75c40.78-80,77.13-227-.59-304.56C435.1,6,271.53,69.3,191.88,119.87,171,133.12-10.57,251.81,12.11,404.45Z"/><g id="freepik--Chronometer--inject-149"><g id="freepik--Clock--inject-149"><path class="cls-2" d="M470.44,68.12h0l.11,0h0l22-8.35h0l.16,0h0c13.69-4.35,30.31.16,46.59,15C572,104.24,591.15,163.1,582,206.2c-4.58,21.48-15.21,35-29,39.49h-.12l-22,8.34h0l-.14,0h0c-13.7,4.38-30.33-.16-46.64-14.93-32.74-29.5-51.86-88.34-42.7-131.43C446.07,86.13,456.81,72.63,470.44,68.12Z"/><path class="cls-3" d="M532,253.58l21-8h0l.14,0c13.65-4.53,24.37-18,29-39.5,4.07-19.21,2.53-41.55-3.33-63l-22,8.35c5.88,21.47,7.43,43.81,3.33,63C555.66,235.4,545.29,248.8,532,253.58Z"/><path class="cls-4" d="M484.23,239.06c-32.74-29.5-51.86-88.34-42.7-131.43S484.72,53.5,517.4,83s51.88,88.34,42.72,131.43S517,268.54,484.23,239.06Z"/><path class="cls-5" d="M515.37,241c21.4,4.54,28.84-19.15,31-29.52,8.08-38-9.5-92.09-38.38-118.1A49.32,49.32,0,0,0,486.17,81c-21.37-4.54-28.82,19.15-31,29.52-8.07,38,9.48,92.08,38.36,118.22a49.45,49.45,0,0,0,21.82,12.35Z"/><path class="cls-6" d="M495.43,167.51a2,2,0,0,0,.77,0,2.35,2.35,0,0,0,2-2.06l9-55.32a2.36,2.36,0,0,0-4.65-.76l-7.88,48.59-20.46-37.39a2.38,2.38,0,0,0-4.18,2.28l23.8,43.49A2.36,2.36,0,0,0,495.43,167.51Z"/><path class="cls-7" d="M502.12,210.61a1.13,1.13,0,0,0,.32,0,1,1,0,0,0,.87-1.1l-5.91-46a1,1,0,0,0-2,.25l5.89,46A1,1,0,0,0,502.12,210.61Z"/><path class="cls-7" d="M498.36,154.19c-3.87-3.46-7.87-2.16-8.93,2.91a17.9,17.9,0,0,0,5,15.45c3.84,3.48,7.84,2.17,8.93-2.89A18.05,18.05,0,0,0,498.36,154.19Z"/></g></g><g id="freepik--Plants--inject-149"><path class="cls-7" d="M44.51,428.08h5.25a123.52,123.52,0,0,0,4.72-24.68c1.14-15.49-6.36-39.2-20.1-47.15s-21.19,1.88-16.58,10.28S38,398.82,38.17,419.37Z"/><path class="cls-8" d="M43.25,428.08h1.46a108.84,108.84,0,0,0,0-30.59c-2.38-20.09-9-29.43-15.12-35.92a.74.74,0,1,0-1.07,1h0c6,6.3,12.41,15.4,14.68,35.08A107.64,107.64,0,0,1,43.25,428.08Z"/><path class="cls-7" d="M44.93,428.08c-2.7-12.75-15-27.9-26.56-30.51-13.43-2.94-20,4.15-18,10.28s12.54,9,22.85,13.77a33.62,33.62,0,0,1,9.38,6.46Z"/><path class="cls-8" d="M40,428.08h1.58C35.93,413.79,23,403.6,12.44,402.66a.73.73,0,0,0-.79.64v0a.7.7,0,0,0,.61.79h.05C22.29,405,34.49,414.58,40,428.08Z"/><path class="cls-7" d="M518.88,293.75l11,5.77.93-6.88c-5.45-15.36-1-32.77,4.92-40s4.75-12.58,2.62-15-10.2-4.18-18.19,5.16-9.82,20.67-8.48,32.11C512.52,282.07,516.28,289.41,518.88,293.75Z"/><path class="cls-9" d="M518.88,293.75l11,5.77.93-6.88c-5.45-15.36-1-32.77,4.92-40s4.75-12.58,2.62-15-10.2-4.18-18.19,5.16-9.82,20.67-8.48,32.11C512.52,282.07,516.28,289.41,518.88,293.75Z"/><path class="cls-8" d="M523.41,296.13l2.17,1.15a.75.75,0,0,0-.07-.12c-3.11-3.7-7.13-21.82-5.45-32.43,2.09-13.11,8.81-21.67,14.57-25.3a.62.62,0,0,0,.2-.85v0a.65.65,0,0,0-.88-.19c-5.87,3.78-13,12.63-15.14,26.17C517.25,274.42,520.36,290.07,523.41,296.13Z"/><path class="cls-7" d="M530.09,267.55c3.22,7.88,3.2,11.74-2,12.55-4.73.7-10.47,6.44-5.14,15.77l31.19,16.35a12.93,12.93,0,0,1,4.4-9.14c5.13-5.13,9.85-9,9.12-14.69s-5.68-11.18-6.51-16.15,1.71-7.79,7.1-13.36,10.27-14.19,3.08-18.13-15.43,2.81-18.87,7.34-6.57,6.54-13.34,6.15S526.88,259.66,530.09,267.55Z"/><path class="cls-8" d="M538.92,304.27c-.15-24.2,17.19-52.54,26.83-58.26a.65.65,0,0,0,.22-.88.63.63,0,0,0-.86-.22c-9.78,5.87-27.27,34.22-27.46,58.72Z"/><path class="cls-8" d="M543.56,279.12a.61.61,0,0,1-.68-.33,105.84,105.84,0,0,1-7-16.29.64.64,0,1,1,1.21-.39,105.5,105.5,0,0,0,7,16.08.66.66,0,0,1-.27.87Z"/><path class="cls-8" d="M539.39,293.94a.65.65,0,0,1-.65-.25.64.64,0,0,1,.16-.89,33.07,33.07,0,0,1,21.69-5.87.64.64,0,0,1,.55.71.65.65,0,0,1-.72.55h0a32.36,32.36,0,0,0-20.78,5.59A.76.76,0,0,1,539.39,293.94Z"/></g><g id="freepik--Boxes--inject-149"><polygon class="cls-10" points="399.23 138.14 359.33 115.11 319.45 138.14 359.33 161.18 399.23 138.14"/><polygon class="cls-11" points="359.33 207.27 399.23 184.23 399.23 138.14 359.33 161.18 359.33 207.27"/><path class="cls-8" d="M367,192a1.28,1.28,0,0,1-.61-.15,1.85,1.85,0,0,1-.75-1.64v-4.91h0v-.36h.24l3.83-2.24v5.45a4.4,4.4,0,0,1-1.88,3.57A1.79,1.79,0,0,1,367,192Zm-.74-6.34v4.52a1.25,1.25,0,0,0,.44,1.13.81.81,0,0,0,.82-.1,3.86,3.86,0,0,0,1.64-3v-.39h-1.43l-.28-1.92Zm2,1.51h.89v-3.36l-2.29,1.33,1.13.21Z"/><path class="cls-8" d="M367.71,195.87a.31.31,0,0,1-.31-.31h0v-4.09a.3.3,0,0,1,.28-.31h0a.31.31,0,0,1,.31.31h0v4a.32.32,0,0,1-.27.37Z"/><path class="cls-8" d="M365.93,196.9a.29.29,0,0,1-.26-.16.28.28,0,0,1,.07-.39l0,0,3.55-2.06a.31.31,0,0,1,.43.11h0a.33.33,0,0,1-.11.43l-3.57,2Z"/><path class="cls-8" d="M378.63,189.83a.65.65,0,0,1-.34,0,.82.82,0,0,1-.36-.74v-.83a.3.3,0,0,1,.28-.31h0a.3.3,0,0,1,.32.28v.91h.19a1.75,1.75,0,0,0,.58-1.37V182.4a.29.29,0,0,1,.29-.3h0a.29.29,0,0,1,.29.3v5.47a2.37,2.37,0,0,1-.87,1.91A1.13,1.13,0,0,1,378.63,189.83Z"/><path class="cls-8" d="M375.39,185.07v-.53a8.74,8.74,0,0,1,3.93-6.81,2.6,2.6,0,0,1,4.24,2.44v.18Zm5.77-7.27a3,3,0,0,0-1.53.47A8.2,8.2,0,0,0,376,184l6.91-4a2.27,2.27,0,0,0-.95-2,1.6,1.6,0,0,0-.83-.21Z"/><path class="cls-8" d="M389.59,183.54a.3.3,0,0,1-.31-.29V172.8a.31.31,0,0,1,.62,0v10.45A.32.32,0,0,1,389.59,183.54Z"/><path class="cls-8" d="M388.75,175.18h-.11a.32.32,0,0,1-.17-.41h0l1.1-2.52,1.21,1.4a.3.3,0,0,1,0,.43.31.31,0,0,1-.43,0h0l-.59-.66L389,175A.29.29,0,0,1,388.75,175.18Z"/><path class="cls-8" d="M392.48,181.94a.32.32,0,0,1-.29-.31V171.18a.31.31,0,0,1,.23-.37.31.31,0,0,1,.38.23.33.33,0,0,1,0,.14v10.45a.31.31,0,0,1-.32.31Z"/><path class="cls-8" d="M391.58,173.56h-.11a.31.31,0,0,1-.16-.41h0l1.09-2.52,1.21,1.4a.3.3,0,0,1,0,.43.33.33,0,0,1-.44,0l-.57-.67-.7,1.64A.33.33,0,0,1,391.58,173.56Z"/><polygon class="cls-12" points="359.33 207.27 319.43 184.23 319.45 138.14 359.33 161.18 359.33 207.27"/><polygon class="cls-7" points="341.55 150.91 381.42 127.86 376.92 125.26 337.03 148.31 341.55 150.91"/><path class="cls-7" d="M325.49,164.57l14.29,8.18a6.3,6.3,0,0,1,2.83,4.92v8.8c0,1.82-1.27,2.56-2.83,1.64l-14.29-8.18a6.3,6.3,0,0,1-2.83-4.92v-8.8C322.66,164.39,323.93,163.67,325.49,164.57Z"/><polygon class="cls-7" points="324.39 166.76 324.93 167.09 324.93 176.86 324.39 176.55 324.39 166.76"/><polygon class="cls-7" points="326.6 168.04 327.54 168.6 327.54 178.37 326.6 177.83 326.6 168.04"/><polygon class="cls-7" points="328.81 169.32 329.35 169.63 329.35 179.42 328.81 179.11 328.81 169.32"/><polygon class="cls-7" points="330.47 170.27 331.56 170.9 331.56 180.69 330.47 180.04 330.47 170.27"/><polygon class="cls-7" points="333.22 171.87 333.77 172.18 333.77 181.97 333.22 181.65 333.22 171.87"/><polygon class="cls-7" points="334.82 172.77 335.97 173.46 335.97 183.23 334.81 182.54 334.82 172.77"/><polygon class="cls-7" points="337.64 174.42 338.18 174.74 338.18 184.51 337.64 184.2 337.64 174.42"/><polygon class="cls-7" points="338.9 175.13 339.18 175.29 339.18 185.07 338.9 184.92 338.9 175.13"/><polygon class="cls-7" points="336.64 173.88 336.9 174.05 336.9 183.82 336.64 183.68 336.64 173.88"/><polygon class="cls-7" points="332.19 171.28 332.45 171.43 332.45 181.22 332.19 181.06 332.19 171.28"/><polygon class="cls-7" points="329.75 169.87 330.02 170.04 330.02 179.83 329.75 179.66 329.75 169.87"/><polygon class="cls-7" points="327.99 168.91 328.27 169.07 328.27 178.86 327.99 178.7 327.99 168.91"/><polygon class="cls-7" points="325.62 167.47 325.9 167.63 325.9 177.42 325.62 177.26 325.62 167.47"/><polygon class="cls-7" points="339.85 175.69 340.39 176 340.39 185.79 339.85 185.48 339.85 175.69"/><polygon class="cls-10" points="346.04 130.47 299.47 103.6 252.93 130.47 299.47 157.35 346.04 130.47"/><polygon class="cls-4" points="279.51 145.82 326.08 118.95 321.56 116.35 275.01 143.22 279.51 145.82"/><polygon class="cls-11" points="299.47 241.81 346.04 214.95 346.04 130.47 299.47 157.35 299.47 241.81"/><path class="cls-8" d="M307.17,226.6a1.09,1.09,0,0,1-.61-.16,1.81,1.81,0,0,1-.75-1.64v-4.91h0v-.36h.26l3.82-2.24v5.45a4.44,4.44,0,0,1-1.89,3.57A1.63,1.63,0,0,1,307.17,226.6Zm-.74-6.33v4.52a1.29,1.29,0,0,0,.44,1.13.81.81,0,0,0,.82-.1,3.84,3.84,0,0,0,1.64-3v-.39h-1.42l-.28-1.92Zm2,1.5h1v-3.35l-2.29,1.34,1.13.2Z"/><path class="cls-8" d="M307.86,230.43a.31.31,0,0,1-.32-.31h0V226a.3.3,0,0,1,.3-.29h0a.32.32,0,0,1,.31.29v4.11A.33.33,0,0,1,307.86,230.43Z"/><path class="cls-8" d="M306.09,231.51a.27.27,0,0,1-.26-.14.33.33,0,0,1,.11-.43l3.55-2a.31.31,0,0,1,.43.11h0a.29.29,0,0,1-.11.4h0l-3.56,2.06A.21.21,0,0,1,306.09,231.51Z"/><path class="cls-8" d="M318.78,224.39a.72.72,0,0,1-.35-.08.82.82,0,0,1-.36-.74v-.85a.29.29,0,0,1,.3-.29h0a.29.29,0,0,1,.3.29v1.05s.1,0,.19,0a1.8,1.8,0,0,0,.58-1.39v-5.45a.31.31,0,0,1,.31-.31h0a.32.32,0,0,1,.31.31v5.45a2.31,2.31,0,0,1-.88,1.91A.86.86,0,0,1,318.78,224.39Z"/><path class="cls-8" d="M315.53,219.63v-.54a8.75,8.75,0,0,1,3.93-6.8,2.61,2.61,0,0,1,3.67.32,2.56,2.56,0,0,1,.57,2.12v.18Zm5.77-7.29a3.13,3.13,0,0,0-1.52.48,8.17,8.17,0,0,0-3.61,5.73l6.91-4a2.3,2.3,0,0,0-.95-2,1.72,1.72,0,0,0-.83-.22Z"/><path class="cls-8" d="M329.79,218.11a.31.31,0,0,1-.31-.32h0V207.35a.32.32,0,0,1,.63,0v10.44a.32.32,0,0,1-.32.32Z"/><path class="cls-8" d="M328.89,209.74h-.11a.3.3,0,0,1-.17-.38h0l1.09-2.52,1.21,1.4a.3.3,0,0,1,0,.43.3.3,0,0,1-.42,0l-.59-.68-.71,1.64A.28.28,0,0,1,328.89,209.74Z"/><path class="cls-8" d="M332.63,216.48a.29.29,0,0,1-.3-.29V205.74a.3.3,0,0,1,.28-.31h0a.3.3,0,0,1,.31.28v10.48a.3.3,0,0,1-.3.3A0,0,0,0,1,332.63,216.48Z"/><path class="cls-8" d="M331.74,208.12h-.13a.33.33,0,0,1-.16-.41l1.1-2.52,1.22,1.41a.31.31,0,0,1,0,.42.31.31,0,0,1-.44,0h0l-.57-.67-.71,1.64A.31.31,0,0,1,331.74,208.12Z"/><polygon class="cls-12" points="299.47 241.81 252.93 214.95 252.93 130.47 299.47 157.35 299.47 241.81"/><path class="cls-13" d="M262.39,197.38l14.28,8.18a6.35,6.35,0,0,1,2.85,4.92v8.82c0,1.8-1.28,2.54-2.85,1.64l-14.28-8.19a6.24,6.24,0,0,1-2.83-4.91V199C259.56,197.13,260.83,196.48,262.39,197.38Z"/><polygon class="cls-14" points="261.29 199.57 261.83 199.9 261.83 209.67 261.29 209.36 261.29 199.57"/><polygon class="cls-14" points="263.5 200.85 264.44 201.41 264.44 211.2 263.5 210.64 263.5 200.85"/><polygon class="cls-14" points="265.7 202.13 266.25 202.44 266.24 212.23 265.7 211.92 265.7 202.13"/><polygon class="cls-14" points="267.37 203.08 268.45 203.72 268.45 213.5 267.37 212.85 267.37 203.08"/><polygon class="cls-14" points="270.12 204.68 270.66 204.99 270.66 214.78 270.12 214.46 270.12 204.68"/><polygon class="cls-14" points="271.71 205.58 272.87 206.27 272.87 216.04 271.71 215.35 271.71 205.58"/><polygon class="cls-14" points="274.54 207.22 275.08 207.55 275.08 217.32 274.54 217.01 274.54 207.22"/><polygon class="cls-14" points="275.8 207.94 276.08 208.1 276.08 217.89 275.8 217.73 275.8 207.94"/><polygon class="cls-14" points="273.54 206.69 273.8 206.86 273.8 216.63 273.54 216.49 273.54 206.69"/><polygon class="cls-14" points="269.09 204.09 269.35 204.24 269.35 214.03 269.09 213.87 269.09 204.09"/><polygon class="cls-14" points="266.65 202.68 266.91 202.85 266.91 212.64 266.65 212.47 266.65 202.68"/><polygon class="cls-14" points="264.89 201.72 265.17 201.88 265.17 211.67 264.89 211.51 264.89 201.72"/><polygon class="cls-14" points="262.52 200.28 262.8 200.44 262.8 210.23 262.52 210.07 262.52 200.28"/><polygon class="cls-14" points="276.75 208.5 277.29 208.81 277.29 218.6 276.75 218.29 276.75 208.5"/><polygon class="cls-2" points="275.01 154.12 279.51 156.73 279.51 145.82 275.01 143.22 275.01 154.12"/><polygon class="cls-10" points="206.36 218.78 173.11 199.59 126.56 226.46 159.82 245.66 206.36 218.78"/><polygon class="cls-11" points="159.82 322.45 206.36 295.58 206.36 218.78 159.82 245.66 159.82 322.45"/><path class="cls-8" d="M167.5,307.17a1,1,0,0,1-.59-.16,1.83,1.83,0,0,1-.76-1.64v-4.91h0v-.36h.25l3.83-2.24v5.45a4.45,4.45,0,0,1-1.88,3.57A1.76,1.76,0,0,1,167.5,307.17Zm-.72-6.33v4.51a1.2,1.2,0,0,0,.44,1.13.89.89,0,0,0,.82-.09,3.83,3.83,0,0,0,1.63-3V303h-1.42l-.28-1.91Zm2,1.5h.88V299l-2.29,1.34,1.13.2Z"/><path class="cls-8" d="M168.2,311.07a.31.31,0,0,1-.31-.31h0v-4.11a.29.29,0,0,1,.29-.3h0a.29.29,0,0,1,.29.3v4.11A.31.31,0,0,1,168.2,311.07Z"/><path class="cls-8" d="M166.42,312.08a.29.29,0,0,1-.27-.14.29.29,0,0,1,.08-.41l0,0,3.57-2.05a.32.32,0,0,1,.43.12h0a.29.29,0,0,1-.11.4h0l-3.57,2.06A.17.17,0,0,1,166.42,312.08Z"/><path class="cls-8" d="M179.12,305a.67.67,0,0,1-.34-.09.79.79,0,0,1-.36-.73v-.85a.29.29,0,0,1,.29-.3.3.3,0,0,1,.31.28v1.06s.1,0,.2,0a1.81,1.81,0,0,0,.57-1.39v-5.45a.31.31,0,0,1,.61-.14.33.33,0,0,1,0,.14V303a2.4,2.4,0,0,1-.87,1.92A1,1,0,0,1,179.12,305Z"/><path class="cls-8" d="M175.88,300.28v-.54a8.72,8.72,0,0,1,3.93-6.8,2.59,2.59,0,0,1,4.22,2.44v.18Zm5.76-7.29a3.16,3.16,0,0,0-1.52.48,8.16,8.16,0,0,0-3.6,5.73l6.91-4a2.31,2.31,0,0,0-1-2,1.59,1.59,0,0,0-.82-.23Z"/><path class="cls-8" d="M190.14,298.74a.31.31,0,0,1-.31-.31h0V288a.31.31,0,0,1,.62,0v10.45a.31.31,0,0,1-.31.31Z"/><path class="cls-8" d="M189.24,290.46h-.12a.31.31,0,0,1-.17-.39h0l1.1-2.52,1.21,1.41a.3.3,0,0,1,0,.42.3.3,0,0,1-.43,0l-.59-.67-.7,1.64A.32.32,0,0,1,189.24,290.46Z"/><path class="cls-8" d="M193,297.12a.32.32,0,0,1-.31-.3V286.38a.31.31,0,0,1,.31-.31h0a.29.29,0,0,1,.31.27v10.48a.29.29,0,0,1-.29.3Z"/><path class="cls-8" d="M192.07,288.82H192a.29.29,0,0,1-.17-.38h0l1.1-2.53,1.21,1.41a.32.32,0,0,1,0,.43.31.31,0,0,1-.44,0h0l-.57-.67-.71,1.63A.31.31,0,0,1,192.07,288.82Z"/><polygon class="cls-12" points="159.82 322.45 126.56 303.26 126.56 226.46 159.82 245.66 159.82 322.45"/><polygon class="cls-15" points="142 246.28 146.51 248.89 146.51 237.98 142 235.38 142 246.28"/><polygon class="cls-7" points="146.51 237.98 193.07 211.1 188.55 208.5 142 235.38 146.51 237.98"/><polygon class="cls-13" points="146.51 284.05 86.67 249.51 26.81 284.05 86.67 318.62 146.51 284.05"/><polygon class="cls-11" points="86.67 364.69 146.51 330.14 146.51 284.05 86.67 318.62 86.67 364.69"/><path class="cls-8" d="M94.34,349.4a1.26,1.26,0,0,1-.59-.17,1.84,1.84,0,0,1-.75-1.64v-4.91h0v-.36h.25l3.83-2.26v5.47a4.4,4.4,0,0,1-1.88,3.55A1.81,1.81,0,0,1,94.34,349.4Zm-.73-6.34v4.52a1.22,1.22,0,0,0,.44,1.11.8.8,0,0,0,.83-.08,3.87,3.87,0,0,0,1.64-3v-.41H95.05l-.28-1.91Zm2,1.51h1v-3.36l-2.27,1.34,1.13.2Z"/><path class="cls-8" d="M95,353.29a.29.29,0,0,1-.29-.29v-4.11a.31.31,0,0,1,.23-.38.32.32,0,0,1,.37.24.33.33,0,0,1,0,.14V353a.29.29,0,0,1-.29.29Z"/><path class="cls-8" d="M93.25,354.31A.31.31,0,0,1,93,354a.32.32,0,0,1,.14-.25l3.57-2a.28.28,0,0,1,.39.06l0,0a.29.29,0,0,1-.08.41h0l-3.57,2.1Z"/><path class="cls-8" d="M106,347.27a.91.91,0,0,1-.33,0,.81.81,0,0,1-.37-.76v-.83a.31.31,0,0,1,.62,0v.83a.41.41,0,0,0,0,.22h.21a1.83,1.83,0,0,0,.56-1.39v-5.46a.33.33,0,0,1,.31-.31.31.31,0,0,1,.31.31h0v5.46a2.34,2.34,0,0,1-.87,1.91A.93.93,0,0,1,106,347.27Z"/><path class="cls-8" d="M102.73,342.5V342a8.59,8.59,0,0,1,3.93-6.79,2.58,2.58,0,0,1,4.22,2.44v.18Zm5.76-7.28a3.38,3.38,0,0,0-1.54.47,8.21,8.21,0,0,0-3.58,5.73l6.89-4a2.28,2.28,0,0,0-.94-2A1.6,1.6,0,0,0,108.49,335.22Z"/><path class="cls-8" d="M117,341a.29.29,0,0,1-.31-.28V330.22a.31.31,0,0,1,.23-.37.3.3,0,0,1,.37.23.33.33,0,0,1,0,.14v10.45a.29.29,0,0,1-.28.31Z"/><path class="cls-8" d="M116.17,332.61H116a.29.29,0,0,1-.16-.38v0l1.08-2.52,1.23,1.41a.32.32,0,0,1-.48.41l-.57-.67-.7,1.64A.31.31,0,0,1,116.17,332.61Z"/><path class="cls-8" d="M119.82,339.36a.31.31,0,0,1-.31-.31h0V328.6a.31.31,0,1,1,.62,0v10.45A.31.31,0,0,1,119.82,339.36Z"/><path class="cls-8" d="M118.92,331h-.12a.29.29,0,0,1-.16-.38h0l1.1-2.54,1.21,1.41a.31.31,0,0,1,0,.44h0a.3.3,0,0,1-.42,0h0l-.59-.67-.7,1.64A.29.29,0,0,1,118.92,331Z"/><polygon class="cls-12" points="86.67 364.69 26.81 330.14 26.81 284.05 86.67 318.62 86.67 364.69"/><polygon class="cls-15" points="54.48 310.94 58.98 313.54 58.98 302.64 54.48 300.03 54.48 310.94"/><polygon class="cls-7" points="58.98 302.64 118.84 268.09 114.33 265.47 54.48 300.03 58.98 302.64"/><path class="cls-13" d="M36.29,312.57l14.27,8.19a6.28,6.28,0,0,1,2.85,4.91v8.83c0,1.8-1.27,2.53-2.85,1.63L36.29,328A6.23,6.23,0,0,1,33.46,323v-8.81C33.46,312.39,34.73,311.74,36.29,312.57Z"/><polygon class="cls-14" points="35.19 314.77 35.73 315.08 35.73 324.87 35.19 324.56 35.19 314.77"/><polygon class="cls-14" points="37.38 316.05 38.33 316.6 38.33 326.38 37.38 325.84 37.38 316.05"/><polygon class="cls-14" points="39.59 317.32 40.15 317.63 40.13 327.42 39.59 327.11 39.59 317.32"/><polygon class="cls-14" points="41.27 318.27 42.36 318.91 42.34 328.7 41.27 328.05 41.27 318.27"/><polygon class="cls-14" points="44.02 319.88 44.56 320.19 44.56 329.98 44.02 329.65 44.02 319.88"/><polygon class="cls-14" points="45.6 320.78 46.77 321.46 46.77 331.24 45.6 330.55 45.6 320.78"/><polygon class="cls-14" points="48.44 322.43 48.98 322.74 48.98 332.52 48.44 332.2 48.44 322.43"/><polygon class="cls-14" points="49.7 323.13 49.98 323.3 49.98 333.07 49.7 332.93 49.7 323.13"/><polygon class="cls-14" points="47.44 321.89 47.7 322.04 47.7 331.83 47.44 331.68 47.44 321.89"/><polygon class="cls-14" points="42.98 319.29 43.25 319.43 43.25 329.23 42.98 329.06 42.98 319.29"/><polygon class="cls-14" points="40.54 317.88 40.82 318.04 40.82 327.82 40.54 327.67 40.54 317.88"/><polygon class="cls-14" points="38.79 316.91 39.07 317.08 39.07 326.87 38.79 326.7 38.79 316.91"/><polygon class="cls-14" points="36.42 315.47 36.7 315.64 36.7 325.41 36.42 325.26 36.42 315.47"/><polygon class="cls-14" points="50.65 323.69 51.19 324.02 51.19 333.79 50.65 333.48 50.65 323.69"/><polygon class="cls-10" points="133.21 191.91 86.67 165.03 40.1 191.91 86.67 218.78 133.21 191.91"/><polygon class="cls-11" points="86.67 310.94 133.21 284.05 133.21 191.91 86.67 218.78 86.67 310.94"/><path class="cls-8" d="M94.34,295.65a1.26,1.26,0,0,1-.59-.15,1.85,1.85,0,0,1-.75-1.64V289h0v-.36h.25l3.83-2.24v5.45a4.45,4.45,0,0,1-1.88,3.57A1.86,1.86,0,0,1,94.34,295.65Zm-.73-6.34v4.53a1.22,1.22,0,0,0,.44,1.12.85.85,0,0,0,.83-.08,3.88,3.88,0,0,0,1.64-3.05v-.39H95.05l-.28-1.92Zm2,1.51h1v-3.36l-2.27,1.34,1.13.2Z"/><path class="cls-8" d="M95,299.54a.29.29,0,0,1-.29-.29v-4.11a.29.29,0,0,1,.27-.31h0a.29.29,0,0,1,.31.27v4.13a.29.29,0,0,1-.27.31Z"/><path class="cls-8" d="M93.25,300.57a.31.31,0,0,1-.29-.33.29.29,0,0,1,.14-.24l3.57-2.06a.3.3,0,0,1,.42.11.31.31,0,0,1-.11.43l-3.57,2A.24.24,0,0,1,93.25,300.57Z"/><path class="cls-8" d="M106,293.52a.67.67,0,0,1-.33-.1.79.79,0,0,1-.37-.74v-.83a.31.31,0,0,1,.62,0v.83a.15.15,0,0,0,.21.21,1.76,1.76,0,0,0,.56-1.37v-5.45a.31.31,0,0,1,.31-.31h0a.29.29,0,0,1,.31.27v5.49a2.35,2.35,0,0,1-.87,1.92A.93.93,0,0,1,106,293.52Z"/><path class="cls-8" d="M102.73,288.82v-.53a8.71,8.71,0,0,1,3.93-6.81,2.6,2.6,0,0,1,4.22,2.46v.16Zm5.76-7.27A3.38,3.38,0,0,0,107,282a8.17,8.17,0,0,0-3.58,5.72l6.89-4a2.26,2.26,0,0,0-.94-2,1.63,1.63,0,0,0-.83-.29Z"/><path class="cls-8" d="M117,287.18a.31.31,0,0,1-.31-.31h0V276.42a.31.31,0,1,1,.6-.14.33.33,0,0,1,0,.14v10.45A.31.31,0,0,1,117,287.18Z"/><path class="cls-8" d="M116.17,278.85H116a.31.31,0,0,1-.16-.39v0l1.08-2.52,1.23,1.4a.32.32,0,0,1,0,.43.33.33,0,0,1-.44,0l-.58-.67-.7,1.64A.31.31,0,0,1,116.17,278.85Z"/><path class="cls-8" d="M119.82,285.54a.32.32,0,0,1-.31-.31V274.79a.31.31,0,1,1,.62,0v10.44A.32.32,0,0,1,119.82,285.54Z"/><path class="cls-8" d="M118.92,277.24h-.12a.31.31,0,0,1-.16-.41h0l1.1-2.52,1.21,1.41a.31.31,0,0,1,0,.44h0a.32.32,0,0,1-.43,0l-.59-.67-.7,1.64A.3.3,0,0,1,118.92,277.24Z"/><polygon class="cls-12" points="86.67 310.94 40.1 284.05 40.1 191.91 86.67 218.78 86.67 310.94"/><polygon class="cls-2" points="62.19 215.55 66.71 218.16 66.71 207.27 62.19 204.65 62.19 215.55"/><polygon class="cls-4" points="66.71 207.27 113.25 180.38 108.75 177.78 62.19 204.65 66.71 207.27"/><path class="cls-13" d="M49.58,266.49l14.28,8.18a6.23,6.23,0,0,1,2.83,4.91v8.81c0,1.8-1.26,2.54-2.83,1.64l-14.28-8.19a6.25,6.25,0,0,1-2.85-4.91v-8.81C46.75,266.32,48,265.59,49.58,266.49Z"/><polygon class="cls-14" points="48.47 268.7 49.01 269.01 49.01 278.8 48.47 278.47 48.47 268.7"/><polygon class="cls-14" points="50.68 269.97 51.61 270.51 51.61 280.3 50.68 279.75 50.68 269.97"/><polygon class="cls-14" points="52.89 271.23 53.43 271.56 53.43 281.34 52.89 281.02 52.89 271.23"/><polygon class="cls-14" points="54.56 272.18 55.64 272.84 55.64 282.61 54.56 281.97 54.56 272.18"/><polygon class="cls-14" points="57.31 273.79 57.85 274.1 57.85 283.89 57.31 283.58 57.31 273.79"/><polygon class="cls-14" points="58.9 274.69 60.06 275.38 60.06 285.17 58.9 284.48 58.9 274.69"/><polygon class="cls-14" points="61.73 276.34 62.27 276.65 62.27 286.44 61.73 286.12 61.73 276.34"/><polygon class="cls-14" points="62.99 277.06 63.25 277.21 63.25 287 62.99 286.84 62.99 277.06"/><polygon class="cls-14" points="60.72 275.8 60.99 275.97 60.99 285.76 60.72 285.59 60.72 275.8"/><polygon class="cls-14" points="56.26 273.2 56.54 273.36 56.54 283.14 56.26 282.99 56.26 273.2"/><polygon class="cls-14" points="53.82 271.81 54.1 271.95 54.1 281.75 53.82 281.58 53.82 271.81"/><polygon class="cls-14" points="52.09 270.84 52.35 270.99 52.35 280.78 52.09 280.62 52.09 270.84"/><polygon class="cls-14" points="49.71 269.4 49.98 269.55 49.98 279.34 49.71 279.18 49.71 269.4"/><polygon class="cls-14" points="63.92 277.62 64.48 277.93 64.48 287.7 63.92 287.39 63.92 277.62"/></g><g id="freepik--Device--inject-149"><path class="cls-4" d="M33.48,421.84l160.24,92.49a14,14,0,0,0,12.71,0L557.52,311.72c3.51-2,3.51-5.31,0-7.34L397.28,211.89a14,14,0,0,0-12.71,0L33.48,414.5C30,416.52,30,419.81,33.48,421.84Z"/><path class="cls-2" d="M120.09,464.78a19.53,19.53,0,0,0,17.62,0c4.89-2.82,4.89-7.34,0-10.2a19.47,19.47,0,0,0-17.62,0C115.2,457.44,115.2,462,120.09,464.78Z"/><path class="cls-2" d="M196.73,514.33,36.49,421.84c-3.14-1.82-3.46-4.64-1-6.67a14.25,14.25,0,0,0-5.38,10.28v6a14.1,14.1,0,0,0,6.36,11l160.24,92.49a13,13,0,0,0,6.36,1.47V515.86A12.91,12.91,0,0,1,196.73,514.33Z"/><path class="cls-3" d="M557.5,332.31a14,14,0,0,0,6.37-11v-6A14.14,14.14,0,0,0,558.49,305c2.49,2,2.17,4.85-1,6.65L206.43,514.33a13,13,0,0,1-6.35,1.47v20.66a13.12,13.12,0,0,0,6.35-1.47Z"/><path class="cls-8" d="M220.12,495.17,66.75,406.58c-2.11-1.22-2.11-3.2,0-4.4L363.2,231a8.49,8.49,0,0,1,7.64,0l153.42,88.58c2.1,1.22,2.1,3.18,0,4.4L227.69,495.17A8.41,8.41,0,0,1,220.12,495.17Z"/><polygon class="cls-7" points="158.32 445.71 176.22 435.37 170.26 431.94 152.36 442.26 158.32 445.71"/><polygon class="cls-7" points="373.03 321.75 390.92 311.42 384.95 307.98 367.07 318.32 373.03 321.75"/><polygon class="cls-7" points="408.81 301.09 426.7 290.76 420.74 287.32 402.85 297.64 408.81 301.09"/><path class="cls-16" d="M466.24,264.9a5,5,0,0,0,4.48,0,1.36,1.36,0,0,0,0-2.58,4.92,4.92,0,0,0-4.48,0,1.36,1.36,0,0,0,0,2.58Z"/><path class="cls-16" d="M473.39,285.18a9.91,9.91,0,0,0,8.94,0c2.47-1.47,2.47-3.74,0-5.17a9.91,9.91,0,0,0-8.94,0C470.92,281.44,470.92,283.75,473.39,285.18Z"/><path class="cls-16" d="M467.08,276.19c1.64-.95,1.55-2.54-.19-3.55l-29.37-17a6.76,6.76,0,0,0-6.16-.11c-1.65,1-1.56,2.54.19,3.55l29.45,17A6.78,6.78,0,0,0,467.08,276.19Z"/></g><g id="freepik--Locator--inject-149"><path class="cls-17" d="M417,207.31l1-.59a28.14,28.14,0,0,0-1,7.69V218c0,12.86,15.44,45.71,21.12,57.34.58,1.22-7.21,9.52-7.21,9.52l9.26-5.35s23.16-19.08,23.16-34.76v-3.59c0-15.75-10.37-34.5-23.16-41.88-6.46-3.72-12.29-3.85-16.49-1h0l-8.8,5.05Zm11.59,12c0-7.34,5.18-10.38,11.58-6.68-.53,4.74,8.14,19.51,11.57,20.06,0,7.34-5.18,10.38-11.57,6.68a25.56,25.56,0,0,1-11.52-20.06Z"/><path class="cls-7" d="M407.43,223.74c.26,15.73,24.16,61.12,24.16,61.12s22.85-19.41,22.6-35.15v-3.58c-.27-15.74-10.94-34.33-23.86-41.5s-23.17-.23-22.9,15.52ZM419,224.88c-.11-7.34,5-10.47,11.47-6.88a25.6,25.6,0,0,1,11.91,19.86c.13,7.34-5,10.47-11.47,6.89A25.7,25.7,0,0,1,419,224.88Z"/><path class="cls-18" d="M407.43,223.74c.26,15.73,24.16,61.12,24.16,61.12s22.85-19.41,22.6-35.15v-3.58c-.27-15.74-10.94-34.33-23.86-41.5s-23.17-.23-22.9,15.52ZM419,224.88c-.11-7.34,5-10.47,11.47-6.88a25.6,25.6,0,0,1,11.91,19.86c.13,7.34-5,10.47-11.47,6.89A25.7,25.7,0,0,1,419,224.88Z"/></g><g id="freepik--Shadow--inject-149"><path class="cls-19" d="M183.51,433.64c14.85,8.55,49.64,2.34,77.73-13.89l77.15-44.53c28.09-16.22,38.81-36.28,23.93-44.81s-49.69-2.29-77.81,13.92l-77,44.47C179.43,405,168.69,425.14,183.51,433.64Z"/></g><g id="freepik--Character--inject-149"><polygon class="cls-7" points="194.12 425.05 212 414.72 206.04 411.28 188.15 421.6 194.12 425.05"/><polygon class="cls-7" points="229.89 404.39 247.79 394.06 241.82 390.62 223.93 400.94 229.89 404.39"/><path class="cls-20" d="M222.54,400.18c0,8.63-6,19.09-13.52,23.49-4,2.31-7.56,2.38-10,.65h0a8.9,8.9,0,0,1-3.39-6.51c.5-.23,1-.49,1.47-.77,7.47-4.31,13.52-14.8,13.52-23.49a13.8,13.8,0,0,0-.12-1.93,9.13,9.13,0,0,1,7.34-.53C220.75,392.33,222.54,395.51,222.54,400.18Z"/><path class="cls-6" d="M223.76,382.45l-.25-.15c-3.76-2-8.81-1.63-14.49,1.63-11.53,6.65-20.88,22.83-20.88,36.14,0,6.7,2.36,11.38,6.18,13.56s9,1.8,14.68-1.47c11.53-6.65,20.86-22.85,20.86-36.16C229.88,389.3,227.56,384.62,223.76,382.45Zm-14.68,41.19c-4,2.31-7.58,2.38-10.05.63-2.17-1.46-3.49-4.4-3.49-8.44,0-8.62,6.06-19.08,13.54-23.49,3.4-2,6.5-2.3,8.8-1.29,2.85,1.22,4.64,4.4,4.64,9.1,0,8.69-6,19.19-13.5,23.52Z"/><path class="cls-7" d="M218.57,391.45l-.16-.09c-2.43-1.31-5.74-1.06-9.39,1-7.48,4.32-13.54,14.81-13.54,23.49,0,4.41,1.47,7.34,4,8.81s5.87,1.17,9.53-1c7.47-4.32,13.52-14.81,13.52-23.49C222.54,395.89,221,392.84,218.57,391.45ZM209,420.59c-3.2,1.85-6.08,1.91-8.08.5-1.73-1.22-2.8-3.55-2.8-6.78A24,24,0,0,1,209,395.47a8,8,0,0,1,7.15-1c2.29,1,3.73,3.53,3.73,7.34A24,24,0,0,1,209,420.59Z"/><polygon class="cls-7" points="265.67 383.72 283.57 373.4 277.61 369.95 259.71 380.29 265.67 383.72"/><polygon class="cls-7" points="301.47 363.07 319.35 352.74 313.39 349.29 295.49 359.63 301.47 363.07"/><polygon class="cls-7" points="337.25 342.41 355.13 332.09 349.17 328.64 331.27 338.97 337.25 342.41"/><path class="cls-7" d="M248.2,246.35a1.47,1.47,0,0,1,2.06-.3,1.49,1.49,0,0,1,.59,1.22,5.33,5.33,0,0,1-1.61,4.58c-1.17,1-2.36.6-2.64-.92A5.35,5.35,0,0,1,248.2,246.35Z"/><polygon class="cls-7" points="261.97 252.84 250.01 245.92 247.38 252.25 259.39 259.18 261.97 252.84"/><path class="cls-7" d="M260.14,253.23c1.17-1,2.35-.59,2.64.94a5.38,5.38,0,0,1-1.61,4.57c-1.18,1-2.37.6-2.65-.93A5.45,5.45,0,0,1,260.14,253.23Z"/><path class="cls-21" d="M352.11,311.14v2.64c-2.38-1-5.48-.68-8.89,1.29-7.47,4.32-13.53,14.82-13.53,23.49,0,4,1.32,6.93,3.49,8.44a20.86,20.86,0,0,1-1.89,1.21l-.69.35-2.07,7.8-12-6.68c-3.79-2.19-6.13-6.86-6.13-13.53,0-13.31,9.34-29.49,20.87-36.16,5.69-3.29,10.85-3.62,14.68-1.47h0l11.74,6.58.25.15Z"/><path class="cls-6" d="M358,305.12l-.25-.15c-3.76-2-8.81-1.63-14.49,1.63-11.53,6.65-20.88,22.83-20.88,36.15,0,6.69,2.36,11.37,6.18,13.55s9,1.8,14.68-1.47c11.53-6.65,20.87-22.85,20.87-36.16C364.1,312,361.74,307.29,358,305.12Zm-14.68,41.19c-4,2.31-7.58,2.38-10,.64-2.17-1.47-3.49-4.41-3.49-8.45,0-8.62,6.06-19.08,13.54-23.49,3.4-2,6.5-2.3,8.88-1.29,2.85,1.22,4.64,4.4,4.64,9.1,0,8.69-6.11,19.19-13.58,23.49Z"/><path class="cls-20" d="M356.76,322.88c0,8.63-6.05,19.09-13.52,23.49-4,2.31-7.56,2.38-10,.65h0a8.9,8.9,0,0,1-3.39-6.51c.5-.23,1-.49,1.47-.77,7.47-4.31,13.52-14.8,13.52-23.49a12.43,12.43,0,0,0-.12-1.93,9.13,9.13,0,0,1,7.34-.53C354.94,315,356.76,318.18,356.76,322.88Z"/><path class="cls-7" d="M352.77,314.12l-.17-.11c-2.43-1.29-5.75-1.05-9.39,1.06-7.47,4.32-13.54,14.8-13.54,23.49,0,4.41,1.47,7.34,4,8.81s5.87,1.16,9.53-1c7.47-4.3,13.52-14.8,13.52-23.49C356.76,318.57,355.29,315.53,352.77,314.12Zm-9.56,29.13c-3.22,1.86-6.09,1.92-8.08.51-1.74-1.22-2.8-3.55-2.8-6.78a24.06,24.06,0,0,1,10.88-18.84c2.73-1.59,5.22-1.86,7.13-1,2.29,1,3.73,3.54,3.73,7.34A24,24,0,0,1,343.21,343.25Z"/><path class="cls-7" d="M331.27,327.27,365,307.77c3.92-2.27-8.81-15.56-18.28-16.45a36.65,36.65,0,0,0-15.5,1.46s7.21,9.24,6,14.48S331.27,327.27,331.27,327.27Z"/><path class="cls-7" d="M283.57,272.17s48.95,24.7,51.06,26.18,0,18.7-3.36,28.92-8.53,25.93-10.6,30.33-4.77,6-9.73,8.92L275.7,386.88,228,392.69l-18.94-10.27,4.93-31s50.7-27,57.64-31S299.12,297.63,283.57,272.17Z"/><path class="cls-9" d="M283.57,272.17s48.95,24.7,51.06,26.18,0,18.7-3.36,28.92-8.53,25.93-10.6,30.33-4.77,6-9.73,8.92L275.7,386.88,228,392.69l-18.94-10.27,4.93-31s50.7-27,57.64-31S299.12,297.63,283.57,272.17Z"/><path class="cls-7" d="M335.57,321.38c4.41-11.83,7.7-21.64,7.14-28.26-.68-7.85-3.61-14.27-16.56-17.5s-31-3.17-31-3.17l-5.51,3.19s37.23,21.58,41.46,23.93c2.59,1.47,5.35,7.94.28,27.72l.87.5C332.62,328.05,334.16,325.19,335.57,321.38Z"/><path class="cls-22" d="M335.57,321.38c4.41-11.83,7.7-21.64,7.14-28.26-.68-7.85-3.61-14.27-16.56-17.5s-31-3.17-31-3.17l-5.51,3.19s37.23,21.58,41.46,23.93c2.59,1.47,5.35,7.94.28,27.72l.87.5C332.62,328.05,334.16,325.19,335.57,321.38Z"/><path class="cls-7" d="M307.37,285.94l6-3.43s-.35-20.87-9.13-25.93S265.67,255,265.67,255l-6,3.44Z"/><path class="cls-19" d="M287.84,261.35c-2.86,1.66-2.86,4.33,0,6a11.48,11.48,0,0,0,10.37,0c2.85-1.65,2.85-4.34,0-6A11.54,11.54,0,0,0,287.84,261.35Z"/><path class="cls-19" d="M297,271.32c-2,1.17-2,3.07,0,4.23a8.07,8.07,0,0,0,7.35,0c2-1.16,2-3.06,0-4.23A8.13,8.13,0,0,0,297,271.32Z"/><path class="cls-19" d="M273.94,258.69c-2,1.16-2,3.06,0,4.23a8.11,8.11,0,0,0,7.34,0c2-1.17,2-3.07,0-4.23A8.05,8.05,0,0,0,273.94,258.69Z"/><path class="cls-7" d="M308.31,279.89c1.17-1,2.35-.6,2.64.93a5.39,5.39,0,0,1-1.61,4.58,1.47,1.47,0,0,1-2.65-.93A5.38,5.38,0,0,1,308.31,279.89Z"/><polygon class="cls-7" points="322.01 286.38 310.03 279.47 307.41 285.8 319.41 292.71 322.01 286.38"/><path class="cls-7" d="M320.16,286.78a1.47,1.47,0,0,1,2.64.92,5.35,5.35,0,0,1-1.61,4.59c-1.18,1-2.35.58-2.65-.93A5.37,5.37,0,0,1,320.16,286.78Z"/><path class="cls-23" d="M320.16,286.78a1.47,1.47,0,0,1,2.64.92,5.35,5.35,0,0,1-1.61,4.59c-1.18,1-2.35.58-2.65-.93A5.37,5.37,0,0,1,320.16,286.78Z"/><path class="cls-21" d="M217.91,388.44v2.64c-2.37-1-5.47-.68-8.81,1.29-7.47,4.32-13.53,14.81-13.53,23.49,0,4,1.32,6.93,3.49,8.44a20.86,20.86,0,0,1-1.89,1.21l-.69.35-2.07,7.8-12-6.68c-3.79-2.19-6.12-6.86-6.12-13.53,0-13.31,9.33-29.49,20.86-36.16,5.7-3.29,10.85-3.62,14.68-1.47h0l11.75,6.58.25.15Z"/><polygon class="cls-7" points="182.18 365.14 173.24 396.13 191.13 406.46 200.4 375.66 182.18 365.14"/><polygon class="cls-9" points="182.18 365.14 173.24 396.13 191.13 406.46 200.4 375.66 182.18 365.14"/><path class="cls-7" d="M182.18,365.14s10.14,8.61,18.22,10.52c10.6,2.57,27.45,2.85,33.43,3.26,9.13.63,16,.62,19.26-.54,4.19-1.47,15.43-8,18.54-9.79,6-3.44,8.51-17-7.92-20.66a165.9,165.9,0,0,0-33.77-3.45Z"/><path class="cls-6" d="M283.35,361.17a16.2,16.2,0,0,0-1,4,9,9,0,0,0-.32,4.41,8.83,8.83,0,0,0,4.95,3.86,11.12,11.12,0,0,0,8.7-1.69c3-1.82,5.33-4,9.65-5.26a21.69,21.69,0,0,0,8.52-3.86c2.39-1.92,5.59-7.24,1-8.47s-14.54,3.11-23.61,3.51Z"/><path class="cls-24" d="M283.35,355.5v6.79a4.54,4.54,0,0,0,5.79,2.63,6,6,0,0,0,3.87-5.38l.27-4Z"/><path class="cls-6" d="M296.27,313.56c0,8.44-2.38,44.94-2.38,44.94s-3.45,4.4-10.95,0l-2.53-40.79Z"/><path class="cls-7" d="M256.92,349.53,280.41,336a6,6,0,0,0,2.51-8.05,5.88,5.88,0,0,0-2.51-2.5l-17.5-10.1a7,7,0,0,0-6.35,0l-23.49,13.53a6,6,0,0,0,0,10.56l17.5,10.1A7,7,0,0,0,256.92,349.53Z"/><path class="cls-8" d="M256.92,349.53,280.41,336a6,6,0,0,0,2.51-8.05,5.88,5.88,0,0,0-2.51-2.5l-17.5-10.1a7,7,0,0,0-6.35,0l-23.49,13.53a6,6,0,0,0,0,10.56l17.5,10.1A7,7,0,0,0,256.92,349.53Z"/><path class="cls-7" d="M233.07,332.54l17.5,10.1a7,7,0,0,0,6.35,0l23.49-13.53a1.93,1.93,0,0,0,0-3.67l-17.5-10.1a7,7,0,0,0-6.35,0l-23.49,13.53a1.93,1.93,0,0,0,0,3.67Z"/><polygon class="cls-24" points="247.38 242.69 244.4 254.98 231.6 255.76 234.36 238.73 247.38 242.69"/><path class="cls-25" d="M259.86,233.44s1.47,5.2.87,5.49a9.32,9.32,0,0,1-2.79,0Z"/><path class="cls-24" d="M257.41,216.85c2,2.42,3.93,6.4,2.48,16.15-1.59,10.66-3.55,11.89-5.14,12.92-2.07,1.35-10.35.63-12.68-1.07-2.81-2-7.14-8.52-8.17-14.9-1.2-7.51,1.31-15.83,6.83-17.25C248.5,210.68,255.66,214.79,257.41,216.85Z"/><path class="cls-21" d="M233.07,242.18c2,2,6,2.61,8.6,3.08s10.41,1,12.73-4.61.73-9.62,3.58-11,5.7-2.23,6.45-2.93.76-9.91-6.89-14.69-19.37-5.87-27.07,3.81C224.62,223.34,227,235.86,233.07,242.18Z"/><path class="cls-6" d="M240.77,245.33c2,.18,8.25-.8,10.15-3.39s2.66-7.21,2.93-9.63a4.21,4.21,0,0,1,3.4-4c1.89-.6,6.07-2.66,6.07-2.66V224.5a30.56,30.56,0,0,1,4.06,0c.88.16.39,1.47-1.84,2.6s-8.35,3.32-9.29,4.06-1.38,3.91-2.13,7.27S251.05,246.82,240.77,245.33Z"/><path class="cls-25" d="M258.39,259.24l7.34-4.22c.71-2.13-.42-3.2-2.42-3.07s-1.38-1.8-2.6-2.34c-1.6-.74-2.51-.33-3.23-.67s-1-1.18-2-1.29c-4.2-.39-7.06,5.6-7.06,5.6Z"/><path class="cls-6" d="M208.56,313.15s32.43-16.08,38.09-18.68,14.52-6.37,19.23-6.37a7.68,7.68,0,0,1,7,7.19,54.61,54.61,0,0,1-.48,8.48,199.7,199.7,0,0,1-27.25,6.85C231.69,313,208.56,313.15,208.56,313.15Z"/><path class="cls-21" d="M212.09,303.85c0,6.67-.64,13.6,2.14,18.47s17.81,16.15,32,13.79c9.25-1.56,36.71-14.2,36.71-14.2s13.31-4.89,13.37-8.37c.09-5.12-.26-12.34-11.88-12-10.58.27-41.81,6.79-41.81,6.79Z"/><path class="cls-21" d="M221.14,251c5-5.24,8.42-5.68,10.82-5a84.08,84.08,0,0,1,16,6.4h0s-1.94,18.76,7.24,24.17v29.24s-.28,3.17-4.27,6.33c-3.53,2.77-11.5,5.58-21,4.79-11.31-.94-17.82-13.09-17.82-13.09s-.3-23.91,1.3-33.41C215.27,259.35,219.41,252.86,221.14,251Z"/><path class="cls-6" d="M255.19,278s-5.55-4.4-7.24-10.13c0,0,.66,9,7.24,13.54Z"/><path class="cls-24" d="M306.56,291.8a11.39,11.39,0,0,0,7.34-2.28s2.56-5,5.7-4.53c0,0,.56-2.12-.73-2.81s-1.85-.5-2.38-1.23-.59-2.1-2.94-2.1c-1,0-.84-.69-3.18-1S305.7,283,304,283Z"/><path class="cls-21" d="M248,252.41c8.06,1.25,11,3.64,13.92,6.36s20.91,20.74,20.91,20.74l21.76,3.13a7.27,7.27,0,0,1,2.4,3.58c.89,2.56.09,5.35-.74,6,0,0-21.59,1.29-25.83.48S255.12,278,255.12,278a18.79,18.79,0,0,1-7.34-12.67C246.41,256.43,248,252.41,248,252.41Z"/><path class="cls-7" d="M228.6,330l-33.34,40.7a10.36,10.36,0,0,1-1.12.07,8,8,0,0,1-3.8-.9l-28.16-16.26-1.91-1.1c-1-.61-1.91-3.07-1.91-5.51V340.1a40.14,40.14,0,0,1,20.06-34.75L212,285.94l35.78,20.66Z"/><g class="cls-26"><path class="cls-23" d="M228.6,330l-33.34,40.7a10.36,10.36,0,0,1-1.12.07,8,8,0,0,1-3.8-.9l-28.16-16.26-1.91-1.1c-1-.61-1.91-3.07-1.91-5.51V340.1a40.14,40.14,0,0,1,20.06-34.75L212,285.94l35.78,20.66Z"/></g><path class="cls-7" d="M217.11,344l30.67-37.38L212,286l-33.61,19.39a40,40,0,0,0-11.3,9.77Z"/><path class="cls-7" d="M247.78,336.62c0,2.44-.85,4.91-1.91,5.51l-1.91,1.1-46,26.59a7.39,7.39,0,0,1-2.7.84,10.52,10.52,0,0,1-1.12.07v-10A40.11,40.11,0,0,1,214.17,326l3.8-2.19,29.81-17.22Z"/><g class="cls-27"><path class="cls-23" d="M247.78,336.62c0,2.44-.85,4.91-1.91,5.51l-1.91,1.1-46,26.59a7.39,7.39,0,0,1-2.7.84,10.52,10.52,0,0,1-1.12.07v-10A40.11,40.11,0,0,1,214.17,326l3.8-2.19,29.81-17.22Z"/></g><polygon class="cls-14" points="257.66 386.98 275.67 386.92 301.45 372.04 301.45 372.04 276.2 390.29 257.19 390.55 257.66 386.98"/><path class="cls-14" d="M213.92,412.62s32.48-12.25,35.24-13.69a70.17,70.17,0,0,0,9.19-6.71,3.91,3.91,0,0,0-.49-5.24s-13.21-.6-16.6.44c-1.9.58-32.46,10.38-32.46,10.38Z"/><path class="cls-21" d="M212.47,398.93c-2.69-2.3-5.39-1.35-6.05,2.12a12.3,12.3,0,0,0,3.68,10.47c2.69,2.3,5.39,1.36,6.05-2.12A12.29,12.29,0,0,0,212.47,398.93Z"/></g><circle class="cls-7" cx="419.52" cy="66.24" r="17.14" transform="translate(286.93 469.74) rotate(-80.78)"/><circle class="cls-4" cx="506.95" cy="421.07" r="9.86"/><ellipse class="cls-7" cx="135.83" cy="534.27" rx="14.69" ry="14.54" transform="translate(-338 252.53) rotate(-45)"/><ellipse class="cls-4" cx="109.04" cy="107.61" rx="8.32" ry="8.23" transform="translate(-44.16 108.62) rotate(-45)"/></svg>