<svg xmlns="http://www.w3.org/2000/svg" xml:space="preserve" id="Layer_1" x="0" y="0" version="1.1" viewBox="3.66 163.27 584.57 536.03"><style>.st1{fill:#44516b}.st2{fill:#333e52}.st3{fill:#546683}.st5{fill:#37474f}.st6{fill:#fecb3c}.st7{fill:#fff}.st8{opacity:.2;fill:#020303;enable-background:new}.st9{fill:#ebebeb}.st10{fill:#cecccc}.st11{fill:#bababa}.st12{fill:#f5f5f5}.st13{fill:#e0e0e0}.st14{fill:#b08d21}.st18{fill:#f0f0f0}.st19{fill:#27343a}.st20{fill:#475c66}.st22{fill:#020303}.st23{fill:#f4a6a9}.st24{fill:#f29090}</style><path fill="#ecf2fb" d="M16 521c18 126 163 197 288 174 139-25 210-158 222-181 41-80 77-227-1-305-86-86-250-23-329 28C175 250-7 369 16 521z"/><g id="freepik--Chronometer--inject-149"><g id="freepik--Clock--inject-149"><path d="m474 185 22-8c14-5 31 0 47 15 33 29 52 88 43 131-5 22-15 35-29 40l-22 8c-14 4-31 0-47-15-33-29-52-88-43-131 5-22 16-35 29-40z" class="st1"/><path d="m536 371 21-8c14-5 24-18 29-40 4-19 2-42-3-63l-22 8c5 22 7 44 3 63-5 21-15 35-28 40z" class="st2"/><path d="M488 356c-33-29-52-88-43-131s43-55 76-25 52 88 43 131-43 55-76 25z" class="st3"/><path fill="#fcfcfc" d="M519 358c22 5 29-19 31-29 8-38-9-93-38-119-6-5-14-10-22-12-21-4-29 19-31 30-8 38 9 92 38 118 6 6 14 10 22 12z"/><path d="M499 285h1c1-1 2-1 2-3l9-55-2-3-3 2-8 49-20-38h-3c-1 0-2 2-1 3l24 43 1 2z" class="st5"/><path d="m506 328 1-1-6-46-1-1-1 1 6 46 1 1z" class="st6"/><path d="M502 271c-4-3-8-2-9 3-1 6 1 11 5 15s8 3 9-3c1-5-1-11-5-15z" class="st6"/></g></g><g id="freepik--Plants--inject-149"><path d="M48 545h5c3-8 4-16 5-25 1-15-6-39-20-47s-21 2-17 10 21 33 21 53l6 9z" class="st6"/><path d="M47 545h1c2-10 2-20 0-31-2-20-9-29-15-36h-1v2c6 6 13 15 15 35v30z" class="st7"/><path d="M49 545c-3-13-15-28-27-30-13-3-20 4-18 10s13 9 23 14l9 6h13z" class="st6"/><path d="M44 545h1c-5-14-18-24-29-25h-1l1 1c10 1 22 11 28 24z" class="st7"/><path d="m523 411 11 5 1-6c-6-16-1-33 4-40s5-13 3-15-10-5-18 5-10 21-9 32c1 7 5 14 8 19z" class="st6"/><path d="m523 411 11 5 1-6c-6-16-1-33 4-40s5-13 3-15-10-5-18 5-10 21-9 32c1 7 5 14 8 19z" class="st8"/><path d="m527 413 2 1c-3-4-7-22-5-32 2-13 9-22 14-26h1l-1-1c-6 4-13 13-15 27-2 9 1 25 4 31z" class="st7"/><path d="M534 385c3 7 3 11-2 12s-11 6-5 16l31 16c0-3 2-7 4-9 5-5 10-9 9-15s-5-11-6-16 2-8 7-13 10-14 3-18-15 3-19 7-6 7-13 6-12 6-9 14z" class="st6"/><path d="M543 421c-1-24 17-52 26-58l1-1h-1c-10 6-28 34-28 59h2z" class="st7"/><path d="M547 396c-3-5-6-11-7-16v-1h1c1 6 4 11 7 16l-1 1zm-4 15h-1l1-1c6-5 14-7 21-6l1 1h-1a32 32 0 0 0-21 6z" class="st7"/></g><g id="freepik--Boxes--inject-149"><path d="m403 255-40-23-40 23 40 23z" class="st9"/><path d="m363 324 40-23v-46l-40 23z" class="st10"/><path d="M371 309h-1l-1-2v-5l4-2v5c0 2 0 3-2 4zm-1-6v5h1l2-3h-2v-2h-1zm2 1h1v-3l-3 1h2v2z" class="st7"/><path d="M371 313v-5h1v4l-1 1z" class="st7"/><path d="M370 314h-1v-1l4-2v1l-3 2zm12-7v-2 1l1-1v-6h1v6l-1 2h-1z" class="st7"/><path d="M379 302c0-3 2-6 4-7h4v2l-8 5zm6-7h-2l-3 6 7-4-1-2h-1zm8 6v-12l1 1v10l-1 1z" class="st7"/><path d="m392 292 1-3 1 2-1-1v2h-1zm4 7v-11 11c1 0 0 0 0 0z" class="st7"/><path d="M395 291v-1l1-2 1 1h-1v1l-1 1z" class="st7"/><path d="m363 324-40-23v-46l40 23z" class="st11"/><path d="m345 268 40-23-4-3-40 23zm-16 14 14 8c2 1 3 3 3 5v8c0 2-1 3-2 2l-15-8c-2-1-3-3-3-5v-9c0-2 2-2 3-1z" class="st6"/><path d="M328 284h1v10h-1zm2 1 1 1v9h-1zm3 1v10zm1 1 1 1v10l-1-1zm3 2h1v10h-1zm2 1h1v10h-1zm2 1 1 1v10l-1-1zm2 1v10zm-3-1h1v10h-1zm-4-3v10zm-3-1h1v10h-1zm-1-1v10zm-3-2 1 1v9h-1zm15 9v10-1z" class="st6"/><path d="m350 247-47-26-46 26 46 27z" class="st9"/><path d="m283 263 47-27-5-3-46 27z" class="st3"/><path d="m303 359 47-27v-85l-47 27z" class="st10"/><path d="m311 344-1-1-1-1v-5h1l4-3v6l-2 3-1 1zm-1-7v5l1 1 2-3v-1h-1l-1-2h-1zm2 2h1v-4l-2 2h1v2z" class="st7"/><path d="M312 347h-1v-4h1v4z" class="st7"/><path d="M310 349v-1c-1 0 0 0 0 0l3-2h1l-1 1-3 2zm13-8h-1v-2 2h1v-7h1v5l-1 2z" class="st7"/><path d="M319 337v-1c0-3 2-5 4-7h4v3l-8 5zm6-8-1 1c-2 1-4 3-4 6l7-4-1-2-1-1zm9 6h-1v-11h1v11z" class="st7"/><path d="m333 327-1-1 1-2 2 1v1h-1v-1l-1 1v1zm3 6v-11l1 1v10h-1z" class="st7"/><path d="m335 325 1-3 1 2-1-1v2h-1z" class="st7"/><path d="m303 359-46-27v-85l46 27z" class="st11"/><path d="m266 314 14 9c2 1 3 2 3 4v9c0 2-1 3-3 2l-14-8c-2-1-3-3-3-5v-9c0-2 2-3 3-2z" class="st12"/><path d="M265 317h1v10l-1-1zm2 1h1v10h-1zm2 1h1v10h-1zm2 1 1 1v10l-1-1zm3 2v10-1zm1 1h2v10l-2-1zm3 1 1 1v9h-1zm2 1v10zm-3-1h1v10l-1-1zm-4-3v10zm-3-1h1v10l-1-1zm-1-1v10zm-3-2h1v10h-1zm14 9h1v10l-1-1z" class="st13"/><path d="m279 271 4 3v-11l-4-3z" class="st1"/><path d="m210 336-33-19-47 26 34 20z" class="st9"/><path d="m164 439 46-26v-77l-46 27z" class="st10"/><path d="m171 424-1-2v-5l4-2v5l-2 4h-1zm0-6v5h1l1-3h-1v-2h-1zm2 1v-3l-2 1 1 1 1 1zm-1 9v-5 5zm-2 1v-1 1l3-2h1l-4 2zm13-7-1-1v-1h1v1l1-1v-6 6l-1 2z" class="st7"/><path d="M180 417c0-3 1-6 3-7h4l1 2v1l-8 4zm5-7h-1l-4 6 7-4-1-2h-1zm9 6v-11 11zm-1-9 1-2 1 1h-1l-1 1zm4 7h-1v-11h1v11z" class="st7"/><path d="M196 406v-1l1-2 1 1v1l-1-1-1 2z" class="st7"/><path d="m164 439-34-19v-77l34 20z" class="st11"/><path d="m146 363 4 3v-11l-4-3z" class="st14"/><path d="m150 355 47-27-5-2-46 26z" class="st6"/><path d="m150 401-60-34-59 34 59 35z" class="st12"/><path d="m90 482 60-35v-46l-60 35z" class="st10"/><path d="M98 466h-1v-7l4-2v6l-2 3h-1zm-1-6v5l1 1h1l1-3v-1h-1l-1-2h-1zm2 2h1v-4l-2 1 1 1v2z" class="st7"/><path d="M99 470h-1v-4l1-1v5z" class="st7"/><path d="m97 471 3-2h1l-4 2zm13-7h-1v-2l1 1v1-7l1-1v6l-1 2z" class="st7"/><path d="M106 460v-1l4-7h4l1 3-9 5zm6-8-1 1c-2 1-4 3-4 5l7-4-1-2h-1zm9 6h-1v-11h1v11z" class="st7"/><path d="M120 450v-1l1-2 1 1v1h-1v-1l-1 1v1zm4 6h-1v-10l1-1v11z" class="st7"/><path d="M123 448h-1l1-3 2 2h-1v-1l-1 2z" class="st7"/><path d="m90 482-59-35v-46l59 35z" class="st11"/><path d="m58 428 5 3v-11l-5-3z" class="st14"/><path d="m63 420 60-35-5-3-60 35z" class="st6"/><path d="m40 430 14 8c2 1 3 3 3 5v8c0 2-1 3-3 2l-14-8c-2-1-3-3-3-5v-9c0-2 1-2 3-1z" class="st12"/><path d="M39 432v10zm2 1 1 1v9h-1zm2 1 1 1v9h-1zm2 1 1 1v10l-1-1zm3 2v10zm1 1h2v10h-2zm3 1 1 1v10l-1-1zm1 1h1v10h-1zm-2-1v10zm-4-3v10zm-3-1h1v10h-1zm-1-1v10zm-3-2v10zm14 9h1v10l-1-1z" class="st13"/><path d="m137 309-47-27-46 27 46 27z" class="st9"/><path d="m90 428 47-27v-92l-47 27z" class="st10"/><path d="M98 413h-1v-7l4-3v6l-2 4h-1zm-1-7v5l1 1h1l1-3v-1h-1l-1-1-1-1zm2 2h1v-4l-2 2h1v2z" class="st7"/><path d="m99 417-1-1v-4h1v5z" class="st7"/><path d="M97 418v-1l3-2h1l-4 2v1zm13-7-1-1v-1h1v1-7h1v6l-1 1v1z" class="st7"/><path d="M106 406v-1c1-2 2-5 4-6h4l1 2-9 5zm6-7h-1c-2 1-4 3-4 6l7-4-1-2-1-1v1zm9 5h-1v-11h1v11z" class="st7"/><path d="M120 396v-1l1-2 1 1v1h-1v-1l-1 2zm4 7-1-1v-10h1v11z" class="st7"/><path d="M123 394h-1l1-3 2 2h-1v-1l-1 2z" class="st7"/><path d="m90 428-46-27v-92l46 27z" class="st11"/><path d="m66 333 4 2v-11l-4-2z" class="st1"/><path d="m70 324 47-27-5-2-46 27z" class="st3"/><path d="m53 383 15 9 2 4v9c0 2-1 3-2 2l-15-8-3-5v-9c0-2 2-2 3-2z" class="st12"/><path d="M52 386h1v10l-1-1zm2 1 1 1v9h-1zm3 1v10zm1 1 1 1v10l-1-1zm3 2h1v10h-1zm2 1h1v10l-1-1zm2 1 1 1v9h-1zm2 1v10zm-3-1h1v10h-1zm-4-3v10zm-2-1v10zm-2-1v10zm-3-2 1 1v9h-1zm15 9v10-1z" class="st13"/></g><g id="freepik--Device--inject-149"><path d="m37 539 160 92c4 2 9 2 13 0l351-202c4-2 4-6 0-8l-160-92c-4-2-9-2-13 0L37 532c-3 2-3 5 0 7z" class="st3"/><path d="M124 582c5 3 12 3 17 0s5-8 0-10c-5-3-12-3-17 0-5 2-5 7 0 10zm76 49L40 539c-3-2-3-5-1-7-3 3-5 6-5 10v6c0 5 2 9 6 11l160 93 7 1v-20l-7-2z" class="st1"/><path d="M561 449c4-2 6-6 7-11v-6c-1-4-3-7-6-10 3 2 2 5-1 7L210 631l-6 2v20c2 1 4 0 6-1l351-203z" class="st2"/><path d="M224 612 70 524c-2-2-2-4 0-5l297-171h7l154 89c2 1 2 3 0 4L231 612h-7z" class="st7"/><path d="m162 563 18-11-6-3-18 10zm215-124 18-11-6-3-18 10zm36-21 17-10-6-4-17 11z" class="st6"/><path fill="#222936" d="M470 382h4l1-2-1-1h-4l-1 2 1 1zm7 20c3 2 6 2 9 0 3-1 3-4 0-5h-9c-2 1-2 4 0 5zm-6-9v-3l-30-17h-6c-2 1-2 2 0 3l30 17h6z"/></g><g id="freepik--Locator--inject-149"><path fill="#ba3d49" d="M421 324h1l-1 7v4c0 13 15 46 21 57 0 2-7 10-7 10l9-6s23-19 23-34v-4c0-16-10-34-23-42-7-4-12-4-17-1l-8 5 2 4zm11 12c0-7 6-10 12-6-1 4 8 19 12 20 0 7-6 10-12 6-7-4-11-12-12-20z"/><path d="M411 341c0 15 24 61 24 61s23-20 23-35v-4c0-16-11-34-24-41-13-8-23-1-23 15v4zm12 1c0-7 5-11 11-7 7 4 11 12 12 20 0 7-5 10-11 7-7-5-12-12-12-20z" class="st6"/><path fill="#ea4d5c" d="M411 341c0 15 24 61 24 61s23-20 23-35v-4c0-16-11-34-24-41-13-8-23-1-23 15v4zm12 1c0-7 5-11 11-7 7 4 11 12 12 20 0 7-5 10-11 7-7-5-12-12-12-20z"/></g><path id="freepik--Shadow--inject-149" d="M187 551c15 8 50 2 78-14l77-45c28-16 39-36 24-45s-50-2-78 14l-77 45c-28 16-39 36-24 45z" class="st18"/><g id="freepik--Character--inject-149"><path d="m198 542 18-10-6-4-18 11zm36-21 18-10-6-3-18 10z" class="st6"/><path d="M226 517c0 9-6 19-13 24-4 2-8 2-10 0-2-1-4-4-4-6l2-1c7-4 13-15 13-23v-2c2-2 5-2 7-1 3 1 5 5 5 9z" class="st19"/><path d="M227 499c-4-2-9-1-14 2-12 6-21 23-21 36 0 7 2 11 6 14s9 1 15-2c11-6 21-23 21-36 0-7-3-11-7-14zm-14 42c-4 2-8 2-10 0-2-1-4-4-4-8 0-9 6-19 14-24 3-2 6-2 9-1 2 1 4 4 4 9 0 9-6 19-13 24z" class="st5"/><path d="M222 508c-2-1-6-1-9 1-8 5-14 15-14 24 0 4 2 7 4 9 3 1 6 1 10-1 7-5 13-15 13-24 0-4-1-7-4-9zm-9 30h-8c-2-1-3-4-3-7 0-7 4-14 11-19l7-1c2 1 3 4 3 8 0 7-4 14-10 19zm56-37 18-11-6-3-18 10zm36-21 18-10-6-4-18 11zm36-21 18-10-6-3-18 10zm-89-96h2l1 1-2 5c-1 1-2 0-3-1l2-5z" class="st6"/><path d="m266 370-12-7-3 6 12 7z" class="st6"/><path d="M264 370c1-1 2 0 2 1 1 2 0 3-1 5-1 1-3 0-3-1l2-5z" class="st6"/><path d="M356 428v3c-3-1-6-1-9 1-8 4-14 15-14 24 0 4 2 6 4 8l-2 1-1 1-2 7-12-6c-4-3-6-7-6-14 0-13 9-29 21-36 6-3 11-4 15-2l11 7h1l-6 6z" class="st20"/><path d="M362 422h-1c-3-2-8-2-14 2-11 6-21 22-21 36 0 6 3 11 6 13s9 2 15-1c12-7 21-23 21-36 0-7-3-12-6-14zm-15 41c-4 3-8 3-10 1s-3-4-3-9c0-8 6-19 13-23 3-2 7-2 9-1 3 1 4 4 4 9 1 9-5 19-13 23z" class="st5"/><path d="M360 440c0 8-6 19-13 23-4 3-8 3-10 1l-4-7h2c8-5 14-15 14-24l-1-2h8c3 1 4 4 4 9z" class="st19"/><path d="M357 431h-1c-2-1-5-1-9 1-8 4-14 15-14 24 0 4 2 7 4 8s6 2 10-1c7-4 13-14 13-23 0-4-1-7-3-9zm-10 29c-3 2-6 2-8 1-2-2-3-4-3-7 0-8 4-15 11-19 3-2 5-2 7-1s4 4 4 7c-1 8-5 15-11 19z" class="st6"/><path d="m335 444 34-19c4-3-9-16-19-17-5 0-10 0-15 2 0 0 7 9 6 14l-6 20z" class="st6"/><path d="m287 389 51 26c2 1 0 19-3 29l-11 30c-3 5-4 7-9 9l-35 21-48 6-19-11 5-31 57-31c6-4 28-22 12-48z" class="st6"/><path d="m287 389 51 26c2 1 0 19-3 29l-11 30c-3 5-4 7-9 9l-35 21-48 6-19-11 5-31 57-31c6-4 28-22 12-48z" class="st8"/><path d="M339 438c5-11 8-21 7-28 0-8-3-14-16-17s-31-4-31-4l-6 4 42 23c2 2 5 8 0 28l1 1 3-7z" class="st6"/><path fill="#fff" d="M339 438c5-11 8-21 7-28 0-8-3-14-16-17s-31-4-31-4l-6 4 42 23c2 2 5 8 0 28l1 1 3-7z" opacity=".3"/><path d="m311 403 6-4c0 1 0-20-9-25s-39-2-39-2l-6 3 48 28z" class="st6"/><path d="M292 378c-3 2-3 5 0 6 3 2 7 2 10 0 3-1 3-4 0-6h-10zm9 10c-2 2-2 3 0 5h7c2-2 2-4 0-5h-7zm-23-12c-2 1-2 3 0 4h7c2-1 2-3 0-4h-7z" class="st18"/><path d="M312 397c1-1 2-1 3 1l-2 4-2 1-1-2 2-4z" class="st6"/><path d="m326 403-12-7-3 7 12 7z" class="st6"/><path d="m324 404 2-1 1 2-2 4c-1 1-2 1-3-1l2-4z" class="st6"/><path d="m324 404 2-1 1 2-2 4c-1 1-2 1-3-1l2-4z" class="st22"/><path d="M222 505v3c-3-1-6-1-9 1-8 5-14 15-14 24 0 4 2 7 4 8l-2 1-1 1-2 8-12-7c-4-2-6-7-6-14 0-13 9-29 21-36 6-3 11-3 15-1l11 6h1l-6 6z" class="st20"/><path d="m186 482-9 31 18 10 9-30z" class="st6"/><path d="m186 482-9 31 18 10 9-30z" class="st8"/><path d="M186 482s10 9 18 11l33 3c10 1 17 1 20-1l18-9c6-4 9-17-8-21-11-2-22-4-33-4l-48 21z" class="st6"/><path d="m287 478-1 4v5c1 1 3 3 5 3 3 1 6 0 8-1l10-6c3 0 6-2 9-4 2-1 5-7 1-8s-15 3-24 4l-8 3z" class="st5"/><path d="M287 473v6c1 3 4 4 6 3s4-3 4-5v-4h-10z" class="st23"/><path d="m300 431-2 44s-4 5-11 0l-3-40 16-4z" class="st5"/><path d="m261 467 23-14a6 6 0 0 0 0-10l-17-11h-7l-23 14a6 6 0 0 0 0 10l17 10c2 2 5 2 7 1z" class="st6"/><path d="m261 467 23-14a6 6 0 0 0 0-10l-17-11h-7l-23 14a6 6 0 0 0 0 10l17 10c2 2 5 2 7 1z" class="st7"/><path d="m237 450 17 10h7l23-14c1 0 2-1 1-2l-1-1-17-11h-7l-23 14c-1 0-2 1-1 2l1 2z" class="st6"/><path d="m251 360-3 12-13 1 3-17z" class="st23"/><path d="M264 350v6h-2l2-6z" class="st24"/><path d="M261 334c2 2 4 6 3 16-2 11-4 12-5 13-3 1-11 0-13-1-3-2-7-9-8-15-2-8 1-16 6-17 8-2 15 2 17 4z" class="st23"/><path d="M237 359c2 2 6 3 8 3 3 1 11 1 13-4 2-6 1-10 4-11l6-3c1 0 1-10-7-15s-19-6-27 4c-6 7-3 20 3 26z" class="st20"/><path d="M245 362c2 1 8 0 10-3l2-10 4-4 6-2v-1h4c1 0 1 1-2 2l-9 4-2 8c-1 3-3 8-13 6z" class="st5"/><path d="m262 376 7-4c1-2 0-3-2-3s-1-2-3-2l-3-1-2-1c-4-1-7 5-7 5l10 6z" class="st24"/><path d="m212 430 38-19c5-3 15-6 19-6s7 3 8 7l-1 9-27 7c-14 2-37 2-37 2z" class="st5"/><path d="M216 421c0 7-1 13 2 18s18 16 32 14c9-1 37-14 37-14s13-5 13-8c0-6 0-13-12-12-10 0-42 6-42 6l-30-4z" class="st20"/><path d="M225 368c5-5 8-6 11-5l16 6s-2 19 7 25v29s0 3-4 6-12 6-21 5c-12-1-18-13-18-13s-1-24 1-34c2-11 6-17 8-19z" class="st20"/><path d="M259 395s-6-4-7-10c0 0 0 9 7 13v-3z" class="st5"/><path d="m310 409 7-2c1 0 3-5 6-5 0 0 1-2-1-3l-2-1c-1-1 0-2-3-2l-3-1c-2 0-5 5-6 5l2 9z" class="st23"/><path d="M252 369c8 2 11 4 14 7l20 20 22 4 3 3c1 3 0 6-1 6l-26 1c-4 0-25-15-25-15-4-3-7-8-7-13-2-9 0-13 0-13z" class="st20"/><path d="m232 447-33 41h-1l-4-1-28-16-2-1-2-6v-7c0-14 8-27 20-35l34-19 36 21-20 23z" class="st6"/><path d="m232 447-33 41h-1l-4-1-28-16-2-1-2-6v-7c0-14 8-27 20-35l34-19 36 21-20 23z" class="st22" opacity=".1"/><path d="m221 461 31-37-36-21-34 19-11 10 50 29z" class="st6"/><path d="m252 454-2 5-2 1-46 27-3 1h-1v-10c0-15 8-28 20-35l4-2 30-17v30z" class="st6"/><path d="m252 454-2 5-2 1-46 27-3 1h-1v-10c0-15 8-28 20-35l4-2 30-17v30z" class="st22" opacity=".2"/><path d="M261 504h18l26-15-25 18-19 1z" class="st13"/><path d="m218 530 35-14 9-7v-5h-17l-33 11 6 15z" class="st13"/><path d="M216 516c-3-2-5-1-6 2 0 4 1 8 4 11 2 2 5 1 6-3 0-3-1-7-4-10z" class="st20"/></g><circle cx="423.2" cy="183.2" r="17.1" class="st6" transform="rotate(-81 423 183)"/><circle cx="510.6" cy="538" r="9.9" class="st3"/><ellipse cx="139.5" cy="651.2" class="st6" rx="14.7" ry="14.5" transform="rotate(-45 140 651)"/><ellipse cx="112.7" cy="224.6" class="st3" rx="8.3" ry="8.2" transform="rotate(-45 113 225)"/></svg>