<?xml version="1.0" encoding="utf-8"?>
<!-- Generator: Adobe Illustrator 26.2.1, SVG Export Plug-In . SVG Version: 6.00 Build 0)  -->
<svg version="1.1" id="Layer_1" xmlns="http://www.w3.org/2000/svg" xmlns:xlink="http://www.w3.org/1999/xlink" x="0px" y="0px"
	 viewBox="0 0 24 24" style="enable-background:new 0 0 24 24;" xml:space="preserve">
<style type="text/css">
	.st0{fill:#EBF1FA;}
	.st1{fill:none;}
	.st2{fill:#FDCA38;}
	.st3{fill:#526481;}
	.st4{fill:#46556E;}
</style>
<circle class="st0" cx="12" cy="12.2" r="10.5"/>
<rect class="st1" width="24" height="24"/>
<circle class="st2" cx="4.5" cy="3.8" r="1.2"/>
<circle class="st3" cx="21.6" cy="16.9" r="0.9"/>
<circle class="st3" cx="4.2" cy="20.1" r="0.4"/>
<circle class="st2" cx="6.5" cy="3.1" r="0.4"/>
<path class="st4" d="M10.4,6.6l0.5,1c0.5,0.9,0.3,2-0.5,2.8l0,0c0,0-0.9,0.9,0.8,2.6c1.7,1.7,2.6,0.8,2.6,0.8l0,0
	c0.8-0.8,1.9-1,2.8-0.5l1,0.5c1.3,0.7,1.5,2.6,0.3,3.8c-0.7,0.7-1.6,1.2-2.5,1.3c-1.6,0.1-4.3-0.3-7-3.1c-2.7-2.7-3.1-5.4-3.1-7
	c0-0.9,0.6-1.8,1.3-2.5C7.8,5.1,9.6,5.3,10.4,6.6z"/>
</svg>
