<svg id="Layer_1" data-name="Layer 1" xmlns="http://www.w3.org/2000/svg" viewBox="0 0 24 24"><defs><style>.cls-2{fill:none}.cls-3{fill:#fdca38}.cls-4{fill:#526481}</style></defs><circle cx="12" cy="12.2" r="10.5" fill="#ebf1fa"/><path class="cls-2" d="M0 0h24v24H0z"/><circle class="cls-3" cx="4.5" cy="3.8" r="1.1"/><circle class="cls-4" cx="21.6" cy="16.9" r=".9"/><circle class="cls-4" cx="4.2" cy="20.1" r=".4"/><circle class="cls-3" cx="6.5" cy="3.1" r=".4"/><path d="M12.5 11.7a1.9 1.9 0 1 0-1.9-1.8 1.9 1.9 0 0 0 1.9 1.8m0-7.1a5.3 5.3 0 0 1 5.3 5.3c0 3.9-5.3 9.8-5.3 9.8s-5.3-6-5.3-9.8a5.3 5.3 0 0 1 5.3-5.3M5.7 9.9c0 3.3 3.9 8 4.5 8.9l-.7.9s-5.3-6-5.3-9.8A5.3 5.3 0 0 1 8 4.8a6.8 6.8 0 0 0-2.3 5Z" fill="#46556e"/><path class="cls-2" d="M1.9 3H20v18.1H1.9z"/><path d="M16 19.8a3.3 3.3 0 0 0 3.2-2.2h-6.3a3.3 3.3 0 0 0 3.2 2.2Z" fill="#3e4347"/><path d="M16 13.2a3.3 3.3 0 0 0-3 2.2h6.2a3.3 3.3 0 0 0-3.1-2.2Z" fill="#ed4c5c"/><path d="M19.2 17.6a3.4 3.4 0 0 0 .2-1.1 3.4 3.4 0 0 0-.2-1.1h-6.3a3.4 3.4 0 0 0-.2 1 3.4 3.4 0 0 0 .2 1.2Z" fill="#f9f9f9"/><path d="m14.8 16.8.5.3-.2-.5.5-.3H15l-.2-.5-.2.5H14l.5.3-.2.5Zm2.5 0 .4.3-.1-.5.4-.3h-.5l-.2-.5-.2.5h-.6l.5.3-.2.5Z" fill="#75a843"/></svg>