<svg xmlns="http://www.w3.org/2000/svg" viewBox="0 0 474 474" xml:space="preserve"><path d="M237 0v474a237 237 0 1 0 0-474z" fill="#214391"/><path d="M237 0a237 237 0 0 0 0 474c131 0 131-474 0-474z" fill="#2b479d"/><path d="m236 41 6 18h19l-15 11 6 18-16-11-15 11 6-18-15-11h19zm0 336 6 17h19l-15 11 6 18-16-11-15 11 6-18-15-11h19zm93-306 5 18h19l-15 11 6 17-15-11-16 11 6-17-15-11h19zm62 62 6 18h19l-15 11 6 17-16-11-15 11 6-17-15-11h19zm2 156 6 18h18l-15 11 6 18-15-11-15 11 6-18-16-11h19zM84 133l6 18h18l-15 11 6 17-15-11-15 11 5-17-15-11h19zm322 75 6 17h18l-15 11 6 18-15-11-15 11 6-18-16-11h19zm-337 0 6 17h19l-15 11 6 18-16-11-15 11 6-18-15-11h19zm13 81 6 18h18l-15 11 6 18-15-11-15 11 5-18-15-11h19zm249 65 6 18h19l-15 11 5 18-15-11-15 11 6-18-15-11h18zM147 71l6 18h19l-15 11 5 17-15-11-15 11 6-17-15-11h19zm-7 282 6 18h19l-15 11 6 18-16-11-15 11 6-18-15-11h19z" fill="#f8d12e"/></svg>