<svg viewBox="0 0 32 32" fill="none" xmlns="http://www.w3.org/2000/svg"><path d="m23 8-1-2a1 1 0 0 0-1 0H11a1 1 0 0 0-1 0L9 8v8a7 7 0 0 0 6 7h2a7 7 0 0 0 7-7V9l-1-1Z" fill="#FFCC80"/><path d="m30 28-4-5a1 1 0 0 0-1 0l-9 2-9-2a1 1 0 0 0-1 0l-4 5a1 1 0 0 0 0 1 1 1 0 0 0 1 1h26a1 1 0 0 0 1-2ZM29 6 16 2 3 6a1 1 0 0 0-1 1 1 1 0 0 0 1 1l13 4 13-4a1 1 0 0 0 1-1 1 1 0 0 0-1-1Z" fill="#01579B"/><path d="M11 6a1 1 0 0 0-1 0L9 8v8a7 7 0 0 0 6 7h1V6h-5Z" fill="#FFE0B2"/><path d="M7 23a1 1 0 0 0-1 0l-4 5a1 1 0 0 0 0 1 1 1 0 0 0 1 1h13v-5l-9-2Zm9-21L3 6a1 1 0 0 0-1 1 1 1 0 0 0 1 1l13 4V2Z" fill="#0277BD"/></svg>