<svg xmlns="http://www.w3.org/2000/svg" id="Layer_3" data-name="Layer 3" viewBox="14.75 27.35 542.28 550.41"><defs><style>.cls-2{fill:#e0e0e0}.cls-3{fill:#fecb39}.cls-17,.cls-19,.cls-4{fill:#fff}.cls-10,.cls-14,.cls-16,.cls-17,.cls-4,.cls-6{isolation:isolate}.cls-16,.cls-4{opacity:.5}.cls-5{fill:#37474f}.cls-10,.cls-12,.cls-14,.cls-16,.cls-6{fill:#010101}.cls-6{opacity:.3}.cls-8{fill:#465b65}.cls-9{fill:#263339}.cls-10,.cls-11{opacity:.15}.cls-13{opacity:.2}.cls-14{opacity:.35}.cls-15{fill:#fbfbfb}.cls-17{opacity:.85}</style></defs><path fill="#ecf2fb" d="M181 31C57 56-8 204 22 328c32 138 169 203 193 213 82 37 231 66 305-16 82-91 10-251-45-329C461 176 333 0 181 31Z"/><g id="freepik--Shadows--inject-16"><path id="freepik--shadow--inject-16" d="m256 235 262 151c79 44-112 179-211 122L45 357c-19-11-19-30 0-41l139-81c20-11 52-11 72 0Z" class="cls-2"/></g><g id="freepik--Car--inject-16"><g id="freepik--car--inject-16-2" data-name="freepik--car--inject-16"><g id="freepik--Interiors--inject-16"><path d="M356 304c27 9 67-27 84-34a11 11 0 0 0 3-2s-38-17-94-47c-30-15-53-40-53-40l-44-25c-34-19-63-10-70-8 0 0 143 144 174 156Z" class="cls-3"/><path d="M337 224c-16-9-17-19-14-16a147 147 0 0 0 21 15c9 6 76 35 76 35s-61-22-83-34Z" class="cls-4"/><path d="m313 187-6 3 1 44 40 26 92 10 3-2s-77-22-110-42c-6-4-9-8-10-10-4-5-5-9-4-16v-12Z" class="cls-5"/><path d="m313 187 6 1v8a8 8 0 0 0 0 1c0 2-2 3-4 3a7 7 0 0 1-4-1c-2-1-3-4-4-6v-3Z" class="cls-3"/><path d="m313 187 6 1v8a8 8 0 0 0 0 1c0 2-2 3-4 3a7 7 0 0 1-4-1c-2-1-3-4-4-6v-3Z" class="cls-6"/><path d="m63 230 198 158 43-33 136-85c-5 0-57-19-67-23-25-10-25-5-34-11-5-3-14-7-17-11-8-8-10-10-11-26v-9c5 2 11-1 7-4-1-1-8-7-29-15-29-11-80-22-82-22-20-3-33-3-39 13Z" class="cls-3"/><path d="m311 271-126 73v-81l-21-12 131-72 16 11v81z" class="cls-3"/><path fill="#010101" d="m311 271-126 73-50-67-8-26 33-5 135-67 16 11v81z" opacity=".3" style="isolation:isolate"/><path d="M217 152c-10-2-6-3-4-2l44 10-25-12c-8-3-18-4-33-1-16 4-6 5 7 7s81 21 83 20-4-4-15-7l-57-15Z" class="cls-4"/><path d="m360 320 80-50-4-1-63-22c-23-9-21-4-31-9l4 76Z" class="cls-6"/></g><g id="freepik--codriver-seat--inject-16"><path d="M273 320a6 6 0 0 0 2 4l32 26a13 13 0 0 0 14 1l52-30c2-1 2-2 2-4v-11h-19l-29-13a18 18 0 0 0-15 1l-24 14h-15Z" class="cls-5"/><path d="m372 302-45-20a18 18 0 0 0-15 0l-36 21c-4 2-4 7-1 9l32 27a13 13 0 0 0 14 1l52-30c4-3 3-6-1-8Z" class="cls-8"/><path d="m275 312 32 27a12 12 0 0 0 7 2v11a12 12 0 0 1-7-2l-32-26a6 6 0 0 1-2-5v-11a6 6 0 0 0 2 4Z" class="cls-9"/><path d="M271 240a10 10 0 0 1 4-7l31-18a3 3 0 0 1 4-1l13 8a3 3 0 0 0-4 0l-31 18a10 10 0 0 0-4 8l-3 64a3 3 0 0 0 1 3l-13-8a3 3 0 0 1-1-2Z" class="cls-9"/><path d="M321 222a3 3 0 0 1 3 3l9 57a8 8 0 0 1-4 7l-44 26c-2 1-4 0-4-3l3-64a10 10 0 0 1 4-8l31-18a3 3 0 0 1 2 0Z" class="cls-5"/><path d="m275 233 31-18a3 3 0 0 1 3-1l14 8a3 3 0 0 0-4 0l-31 18a9 9 0 0 0-3 3l-13-7a9 9 0 0 1 3-3Z" class="cls-8"/><path d="m279 229 10 6 7-15 10-5a9 9 0 0 0 4-8v-14l5-8-10-6c-3-2-7-2-11 1-9 5-17 19-17 30v16a3 3 0 0 0 2 3Z" class="cls-9"/><path d="M310 196v-3l5-8-10-6c-3-2-7-2-11 1-5 3-10 9-13 15l13 8Z" class="cls-8"/><path d="m292 235 24-15a9 9 0 0 0 4-7v-16c0-12-7-17-16-11s-17 19-17 30v16c0 3 2 4 5 3Z" class="cls-5"/><path d="M318 235a4 4 0 0 0-5-2 98 98 0 0 0-19 11 12 12 0 0 0-4 7v48a3 3 0 0 0 1 2 3 3 0 0 0 4 1 124 124 0 0 0 25-14 11 11 0 0 0 4-8 160 160 0 0 0-6-44 3 3 0 0 0 0-1Z" class="cls-3"/><path d="M291 301a2 2 0 0 0 1 1c2 1 2-11 2-24s-1-33-2-31a11 11 0 0 0-2 4v48a5 5 0 0 0 1 1 8 8 0 0 0 0 1Z" class="cls-10"/><g class="cls-11"><path d="m320 279-2 3a44 44 0 0 1-3 2l-5 3-2 1-2 1-4 2a31 31 0 0 1-3 1h-2a8 8 0 0 1 1 0l3-2 9-4 8-5 2-2h1a6 6 0 0 1-1 0Zm0-8-2 3a38 38 0 0 1-3 2l-5 3-2 1-2 1a44 44 0 0 1-4 2l-3 1h-2a10 10 0 0 1 1-1l3-1 8-4 8-5 3-2 1-1a6 6 0 0 1-1 1Zm-1-6-2 2a36 36 0 0 1-4 2l-1 1-3 2-2 1-2 1a40 40 0 0 1-4 1l-2 1h-2l1-1 3-1 8-4 7-4 3-2c1-1 0 0 0 0a8 8 0 0 1 0 1Zm-1-8-2 2a34 34 0 0 1-3 2l-2 2a21 21 0 0 1-2 1l-2 1-2 1-4 1h-3l-1 1 1-1 3-1 7-4 7-4 3-1 1-1Zm-3-6a29 29 0 0 1-3 3l-2 1-2 1a38 38 0 0 1-7 3 34 34 0 0 1-4 1s1-1 4-2l7-3 6-4 3-2a24 24 0 0 1-2 2Zm-2-7a20 20 0 0 1-3 2l-1 1-2 1a32 32 0 0 1-7 3 22 22 0 0 1-3 0s1 0 3-1l6-3 6-3 3-2a18 18 0 0 1-2 2Z" class="cls-12"/></g><path d="M322 296a132 132 0 0 0-24 14 4 4 0 0 0-1 1 4 4 0 0 0 0 6 77 77 0 0 0 19 13 12 12 0 0 0 9 0 161 161 0 0 0 31-18 3 3 0 0 0 1-1 4 4 0 0 0-1-5c-8-6-16-10-24-11a20 20 0 0 0-10 1Z" class="cls-3"/><g class="cls-13"><path d="m351 310-4 2-10 5-10 6-4 3a52 52 0 0 1 4-4 70 70 0 0 1 9-6 77 77 0 0 1 11-5l3-1 2-1Zm-8-4-4 1-10 6-10 6-4 2a53 53 0 0 1 4-3 71 71 0 0 1 9-7 76 76 0 0 1 11-5l4-1h1Zm-7-4-3 2-10 5-10 6-5 3a49 49 0 0 1 4-4 70 70 0 0 1 10-6 77 77 0 0 1 10-5l4-2h1Zm-7-3-3 1-10 5-9 6-3 1-1 1a42 42 0 0 1 4-3 62 62 0 0 1 9-6 66 66 0 0 1 9-5l4-1h1l-1 1Z" class="cls-12"/></g></g><g id="freepik--codriver-seat--inject-16-2" data-name="freepik--codriver-seat--inject-16"><path d="M201 361a6 6 0 0 0 3 5l32 26a13 13 0 0 0 13 1l52-30c2-1 3-2 3-4v-11h-20l-29-13a18 18 0 0 0-14 1l-24 14h-16Z" class="cls-5"/><path d="m301 344-46-20a18 18 0 0 0-14 0l-37 21c-3 2-4 7 0 9l32 26a13 13 0 0 0 13 2l52-30c4-3 4-6 0-8Z" class="cls-8"/><path d="m204 354 32 26a12 12 0 0 0 6 3v11a12 12 0 0 1-6-2l-32-26a6 6 0 0 1-3-5v-11a6 6 0 0 0 3 4Z" class="cls-9"/><path d="M199 282a10 10 0 0 1 5-7l31-18a3 3 0 0 1 3-1l13 8a3 3 0 0 0-3 0l-31 18a10 10 0 0 0-5 8l-3 64a3 3 0 0 0 2 3l-14-8a3 3 0 0 1-1-2Z" class="cls-9"/><path d="M250 264a3 3 0 0 1 3 3l8 57a8 8 0 0 1-3 7l-45 25c-2 2-4 1-4-2l3-65a10 10 0 0 1 5-7l31-18a3 3 0 0 1 2 0Z" class="cls-5"/><path d="m204 275 31-18a3 3 0 0 1 3-1l13 8a3 3 0 0 0-3 0l-31 18a9 9 0 0 0-3 3l-14-7a9 9 0 0 1 4-3Z" class="cls-8"/><path d="m207 271 10 6 8-15 10-5a9 9 0 0 0 4-8v-14l4-8-10-6c-3-2-6-2-11 1-9 5-16 19-16 30v16a3 3 0 0 0 1 3Z" class="cls-9"/><path d="M239 238v-3l4-8-10-6c-3-2-6-2-11 1s-9 9-13 15l13 8Z" class="cls-8"/><path d="m220 277 25-15a9 9 0 0 0 4-7v-16c0-12-8-17-17-11s-16 18-16 30v16c0 3 2 4 4 3Z" class="cls-5"/><path d="M247 277a4 4 0 0 0-6-2 98 98 0 0 0-18 11 12 12 0 0 0-4 7v48a3 3 0 0 0 5 3 125 125 0 0 0 24-15 11 11 0 0 0 4-7 159 159 0 0 0-5-44 4 4 0 0 0 0-1Z" class="cls-3"/><path d="M220 343v1c2 1 2-11 2-24s0-33-2-31a11 11 0 0 0-1 4v48a4 4 0 0 0 0 1 8 8 0 0 0 1 1Z" class="cls-10"/><g class="cls-11"><path d="m249 321-3 3a42 42 0 0 1-3 2 50 50 0 0 1-4 3l-3 1-2 1a41 41 0 0 1-4 2 29 29 0 0 1-3 1h-1a9 9 0 0 1 1 0l3-2 8-4 8-5 3-2h1a7 7 0 0 1-1 0Zm0-8-3 3a42 42 0 0 1-3 2l-4 3-3 1-2 1a41 41 0 0 1-4 2l-3 1h-1a9 9 0 0 1 1-1l3-1 8-4 8-5 3-2 1-1a7 7 0 0 1-1 1Zm-2-7-2 2a36 36 0 0 1-3 3l-2 1-2 2-2 1-2 1a40 40 0 0 1-4 1l-3 1a4 4 0 0 1-1 0l1-1 2-1 8-4 7-4 3-2h1a6 6 0 0 1-1 0Zm-1-7-2 2a32 32 0 0 1-3 2l-2 2a18 18 0 0 1-2 1l-2 1-2 1-4 1h-2l-1 1 1-1 2-1 8-4 7-4 2-1 1-1-1 1Zm-3-6a29 29 0 0 1-2 3l-2 1-2 1a39 39 0 0 1-8 3 36 36 0 0 1-3 0s1 0 3-1l7-3a71 71 0 0 0 7-4l2-2h1a24 24 0 0 1-3 2Zm-2-7a22 22 0 0 1-2 2l-2 1-2 1a32 32 0 0 1-6 3 23 23 0 0 1-3 0s1 0 3-1l6-3 6-4 2-1a19 19 0 0 1-2 2Z" class="cls-12"/></g><path d="M251 338a132 132 0 0 0-25 14 4 4 0 0 0 0 1 4 4 0 0 0 0 6 78 78 0 0 0 18 13 12 12 0 0 0 9 0 161 161 0 0 0 32-18 4 4 0 0 0 1-1 4 4 0 0 0-1-5c-8-6-17-10-25-11a20 20 0 0 0-9 1Z" class="cls-3"/><g class="cls-13"><path d="m279 352-3 2-10 5-10 6-5 3 4-4a70 70 0 0 1 10-6 75 75 0 0 1 10-5l4-1 1-1-1 1Zm-8-4-3 1-10 6-10 6-5 2a53 53 0 0 1 4-3 70 70 0 0 1 10-7 75 75 0 0 1 10-5l4-1h1Zm-7-4-3 2-10 5-10 6-4 3a53 53 0 0 1 4-4 72 72 0 0 1 9-6 75 75 0 0 1 11-5l3-2h2l-2 1Zm-7-3-3 1-9 5-9 6-3 1-1 1a46 46 0 0 1 3-3 62 62 0 0 1 9-6 67 67 0 0 1 10-5l3-1h1l-1 1Z" class="cls-12"/></g></g><g id="freepik--back-car--inject-16"><path d="m38 275 29-18 29 17-53 31-5-30z" class="cls-3"/><path d="m38 275 29-18 29 17-53 31-5-30z" class="cls-14"/><path d="m93 353 8 16 19-11c7-4 11-12 11-24 0-23-15-50-33-60-9-5-16-6-22-2l-18 10 7 16c1 20 13 43 28 55Z" class="cls-5"/><path d="m93 353 8 16 19-11c7-4 11-12 11-24 0-23-15-50-33-60-9-5-16-6-22-2l-18 10 7 16c1 20 13 43 28 55Z" class="cls-9"/><path d="M79 285a53 53 0 0 1 12 10c12 13 21 33 21 50 0 23-15 33-33 22a50 50 0 0 1-7-5 78 78 0 0 1-26-55c0-23 15-33 33-22Z" class="cls-5"/><path d="M100 338c0 15-10 22-21 15s-21-24-21-39 9-22 21-16 21 25 21 40Z" class="cls-8"/><path d="M74 312a6 6 0 0 1 4 0c5 3 10 11 10 18 1 4 0 8-2 9a5 5 0 0 1-6 1c-5-3-10-11-10-18-1-6 1-10 4-10Z" class="cls-15"/><path d="M74 312a6 6 0 0 1 4 0c5 3 10 11 10 18 1 4 0 8-2 9a6 6 0 0 1-4 0c-5-3-10-11-11-18 0-4 1-8 3-9Z" class="cls-2"/><path d="M79 285a53 53 0 0 1 12 10c-4-5-19-15-30-10s-13 24-10 37c3 15 12 31 21 40a78 78 0 0 1-26-55c0-23 15-33 33-22Z" class="cls-8"/><path d="m39 303 4 2c0-26 17-38 38-26 20 12 38 41 41 66a58 58 0 0 1 0 6l136 78v-77l-21-10-40-23-11-8c-8-9-49-20-54-46l-3-8c0-1-1-5 4-7s25-1 25-1l-47-28-28-16c-11-6-39 10-46 26s-10 65 2 72Z" class="cls-3"/><path d="M105 254c3 2 17 17 21 19s0-4-2-11c-2-8-3-13-11-13-4 0-13-1-8 5Z" class="cls-12"/><path d="m173 153 50 23-94 55-18-11-27-15c-3-2-7-2-12-1 4-10 88-57 101-51Z" class="cls-3"/><path d="M181 320a6 6 0 0 1 2-5l73 42Z" class="cls-4"/><path d="M180 324a2 2 0 0 1-1-1v-2c0-2 3-2 6 0l4 3c3 1 5 4 5 5v3Z" class="cls-5"/><path d="M101 255c-10-13-24-25-28-41a4 4 0 0 0-1-2 3 3 0 0 0-1-1c-5-2-9 2-13 4-15 8-5 23 14 40s94 60 94 60a14 14 0 0 1 4-6l-28-18c-13-10-30-24-41-36Z" class="cls-4"/><path d="M263 195s-84-38-78-41 96 21 96 21Zm-88 177 72 45c3 2 6 4 7-12s3-40 0-50c0 0 1 22-1 36s-3 20-6 18Zm-1-62s-5 6-4 16l4 44v-43c0-10 4-15 4-15Zm-71-33c3-3 14-7 14-7s-14 2-16 5l-5 13 7-11Zm-66-13c-3-5-2-24-2-24s1 17 4 22 17 13 17 13-15-6-19-11Z" class="cls-10"/><path d="M88 238a13 13 0 0 0 6 2l42 9 38-1a40 40 0 0 1 16 5s36 19 45 26c5 4 7 8 11 14 0 0-5-10 3-14s43-17 68-30c21-11 52-39 56-41 5-2 16 7 16 7a183 183 0 0 0-11-15c-9-10-89-48-105-49a177 177 0 0 0-57 7h-1l-1 1a94 94 0 0 0-9 4 724 724 0 0 0-76 44c-14 8-28 16-40 28-1 1-2 2-1 3Z" class="cls-3"/><path d="M254 277c13-6 41-17 63-28l6-4c20-12 46-35 50-37a5 5 0 0 1 1 0l4-3v-5c-8-9-70-39-96-47-10-2-13 3-36 18-25 17-48 30-73 44l-28 15c-10 6-28 7-40 11a2 2 0 0 0-1 1 1 1 0 0 0 1 2 4 4 0 0 0 2 0h50c21 0 27 2 48 14a276 276 0 0 1 34 24s6-2 15-5Z" class="cls-4"/><path d="M98 240c-3 0-7 0-10-2-1-1 0-2 1-3 12-12 26-20 40-28l41-25 35-19a80 80 0 0 1 11-5c10-3 35-9 57-7a43 43 0 0 1 9 2c-10-2-13 3-36 18-25 17-48 30-73 44l-28 15c-6 4-14 5-21 7a189 189 0 0 1-20 3h-6Z" class="cls-10"/><path d="M116 234c19-3 34-11 44-16l74-44c17-9 22-15 14-16l-20 3c-11 2-19 5-27 10l-72 42c-48 28-33 25-13 21Z" class="cls-8"/><path d="M129 266c3 9 4 12 10 17 13 10 45 30 47 31l5 4 53 30s35 18 34 11-25-55-29-64-6-15-14-19l-44-26-1-1c-7-3-14-5-24-4-11 0-33 0-39 4-4 2-1 6 2 17Zm56 38v-45l1-3a2 2 0 0 1 0-1 2 2 0 0 1 2 0l44 24c4 3 7 8 11 16l26 60c0-1-29-14-49-26l-30-17a8 8 0 0 1-5-8Zm-11-54c5 1 6 3 6 9v39c0 4-1 7-4 5-8-6-32-20-36-24-5-4-9-21-10-26s38-4 44-3Z" class="cls-9"/><path d="M185 304v-45l1-3a2 2 0 0 1 0-1 2 2 0 0 1 2 0l44 24c4 3 7 8 11 16l26 60c0-1-29-14-49-26l-30-17a8 8 0 0 1-5-8Zm-11-54c5 1 6 3 6 9v39c0 4-1 7-4 5-8-6-32-20-36-24-5-4-9-21-10-26s38-4 44-3Z" class="cls-16"/></g><g id="freepik--front-car--inject-16"><path d="M282 357c6 7 40-7 74-25 7-4 25-14 45-28 8-5 16-10 22-16 9-7 16-14 17-18a465 465 0 0 0-156 86l-2 1Z" class="cls-8"/><path d="M359 306a430 430 0 0 1 81-36c-6 3-55 25-78 39l-80 48c14-10 46-32 77-51Z" class="cls-5"/><path d="M431 243a9 9 0 0 1 3-4 4 4 0 0 1 4-1c8 3 10 16 10 22a37 37 0 0 1 0 5c-1 4-2 6-4 7-2 0-8-6-11-11l-1-5c-1 0-2-9-1-13Z" class="cls-3"/><path d="M431 243a9 9 0 0 1 3-4 4 4 0 0 1 4-1c8 3 10 16 10 22a37 37 0 0 1 0 5c-1 4-2 6-4 7-2 0-8-6-11-11l-1-5c-1 0-2-9-1-13Z" class="cls-6"/><path d="M441 258c1-6-1-14-6-17l-1-2a4 4 0 0 1 4-1c8 3 10 16 10 22a37 37 0 0 1 0 5c-1 4-2 6-4 7-2 0-8-6-11-11 3 3 7 4 8-3Z" class="cls-3"/><path d="M441 258c1-6-1-14-6-17l-1-2a4 4 0 0 1 4-1c8 3 10 16 10 22a37 37 0 0 1 0 5c-1 4-2 6-4 7-2 0-8-6-11-11 3 3 7 4 8-3Z" class="cls-14"/><path d="M438 238c8 3 10 16 10 22a34 34 0 0 1 0 5c0-4-2-13-6-19s-9-5-11-3c1-3 4-6 7-5Z" class="cls-5"/><path d="m258 395 24-14 30 17-54 31v-34z" class="cls-3"/><path d="m258 395 24-14 30 17-54 31v-34z" class="cls-14"/><path d="m308 477 8 16 19-11c7-4 11-12 11-24 0-23-15-50-33-61-9-4-16-5-22-1l-18 10 7 15c1 21 13 44 28 56Z" class="cls-5"/><path d="m308 477 8 16 19-11c7-4 11-12 11-24 0-23-15-50-33-61-9-4-16-5-22-1l-18 10 7 15c1 21 13 44 28 56Z" class="cls-9"/><path d="M294 408a53 53 0 0 1 12 11c12 13 21 32 21 50 0 22-15 32-33 22a50 50 0 0 1-7-5 78 78 0 0 1-26-55c0-23 15-33 33-23Z" class="cls-5"/><path d="M315 462c0 15-10 22-21 15s-21-24-21-39 9-22 21-16 21 24 21 40Z" class="cls-8"/><path d="M289 436a6 6 0 0 1 4 0c5 2 10 10 10 18 1 4 0 7-2 9a5 5 0 0 1-6 0c-5-2-10-10-10-18-1-5 1-9 4-9Z" class="cls-15"/><path d="M289 436a6 6 0 0 1 4 0c5 2 10 10 10 18 1 4 0 7-2 9a6 6 0 0 1-4-1c-5-2-10-10-11-18 0-4 1-7 3-8Z" class="cls-2"/><path d="M294 408a53 53 0 0 1 12 11c-4-5-19-15-30-10s-13 23-10 36c3 15 12 31 21 41a78 78 0 0 1-26-55c0-23 15-33 33-23Z" class="cls-8"/><path d="M258 429v-5c3-23 19-32 39-21l4 3c9 6 17 16 23 27a97 97 0 0 1 9 24 79 79 0 0 1 2 9c1 7 28 19 59 20 28 1 56-7 77-19s22-12 37-23c17-11 24-32 26-45l2-12c7-54-29-74-96-121 1 3-1 6-2 8a104 104 0 0 1-15 14c-6 6-14 11-22 16-20 14-38 24-45 28-34 18-65 29-73 26l-22-9c0 2-3 3-3 3Z" class="cls-3"/><path d="M414 463a28 28 0 0 1 7-1c34 0 56-16 77-29l23-17c3-1 0 6-5 12a173 173 0 0 1-75 42c-13 4-35-5-27-7Zm-40 5c4 5 8 9 23 9s19-2 14-5l-12-9c-3-2-5-2-13-4l-15-4c-4 1 0 9 3 13Zm153-60c-1 6-3 11-1 11a5 5 0 0 0 3-2 91 91 0 0 0 5-18l1-8c-1 5-6 11-8 17Z" class="cls-8"/><path d="M505 374a46 46 0 0 1 2 16c0 4-3 8-6 11q-18 15-46 26c-3 1-9 2-12 0a37 37 0 0 1-11-10c-2-3-1-7 2-8a341 341 0 0 0 61-36c3-2 8-2 10 1Z" class="cls-17"/><path d="M445 424a34 34 0 0 1-10-9 1 1 0 0 1 0-1 3 3 0 0 1 1-2 346 346 0 0 0 62-35c0-1 2-2 3-1a42 42 0 0 1 2 14l-4 8c-12 10-27 19-45 25a16 16 0 0 1-6 1 8 8 0 0 1-3 0Z" class="cls-3"/><path d="M445 424a34 34 0 0 1-10-9 1 1 0 0 1 0-1 3 3 0 0 1 1-2 346 346 0 0 0 62-35c0-1 2-2 3-1a42 42 0 0 1 2 14l-4 8c-12 10-27 19-45 25a16 16 0 0 1-6 1 8 8 0 0 1-3 0Z" class="cls-14"/><path d="m469 393 4-2a95 95 0 0 1 9 22l-4 1a94 94 0 0 0-9-21Z" class="cls-3"/><path d="m469 393 4-2a95 95 0 0 1 9 22l-4 1a94 94 0 0 0-9-21Z" class="cls-17"/><path d="M433 415a314 314 0 0 0 40-20l29-20v1s-14 11-29 20a317 317 0 0 1-40 19Z" class="cls-3"/><path d="M435 417a307 307 0 0 0 39-20l28-19 1 1-29 19a307 307 0 0 1-39 19Z" class="cls-3"/><path d="M437 418a293 293 0 0 0 38-19l28-18-27 19a293 293 0 0 1-39 19Z" class="cls-3"/><path d="M439 420a273 273 0 0 0 38-19l26-17s-11 9-26 18a275 275 0 0 1-38 19Z" class="cls-3"/><path d="M441 422a263 263 0 0 0 37-18c15-9 25-17 25-18l1 1-26 17a264 264 0 0 1-37 18Z" class="cls-3"/><path d="M443 424a253 253 0 0 0 36-18 275 275 0 0 0 24-17l1 1a273 273 0 0 1-24 16 255 255 0 0 1-37 18Z" class="cls-3"/><path d="M445 425a242 242 0 0 0 36-17 237 237 0 0 0 23-16 238 238 0 0 1-23 16 243 243 0 0 1-36 18Z" class="cls-3"/><g opacity=".8"><path d="M433 415a314 314 0 0 0 40-20l29-20v1s-14 11-29 20a317 317 0 0 1-40 19Z" class="cls-19"/><path d="M435 417a307 307 0 0 0 39-20l28-19 1 1-29 19a307 307 0 0 1-39 19Z" class="cls-19"/><path d="M437 418a293 293 0 0 0 38-19l28-18-27 19a293 293 0 0 1-39 19Z" class="cls-19"/><path d="M439 420a273 273 0 0 0 38-19l26-17s-11 9-26 18a275 275 0 0 1-38 19Z" class="cls-19"/><path d="M441 422a263 263 0 0 0 37-18c15-9 25-17 25-18l1 1-26 17a264 264 0 0 1-37 18Z" class="cls-19"/><path d="M443 424a253 253 0 0 0 36-18 275 275 0 0 0 24-17l1 1a273 273 0 0 1-24 16 255 255 0 0 1-37 18Z" class="cls-19"/><path d="M445 425a242 242 0 0 0 36-17 237 237 0 0 0 23-16 238 238 0 0 1-23 16 243 243 0 0 1-36 18Z" class="cls-19"/></g><path d="M471 318c14 19 23 37 25 38 4 1-3-10 3-22 5-9 8-9 2-15s-51-40-54-39c-5 1 10 19 24 38Z" class="cls-4"/><path d="M379 431a38 38 0 0 0 17 8c9 1 27 0 29-12a10 10 0 0 0-3-8 20 20 0 0 0-6-5 44 44 0 0 0-33-3c-4 1-9 2-11 6s0 7 2 10a32 32 0 0 0 5 4Zm149-71a29 29 0 0 0-5-20c-3-4-9-8-14-7-15 3-4 26 0 35a19 19 0 0 0 4 5 8 8 0 0 0 6 2 7 7 0 0 0 2 0c5-3 7-11 7-15Z" class="cls-17"/><path d="M331 444a58 58 0 0 1 38-18 133 133 0 0 0-38 18Zm162-82c-26-48-59-77-59-77Zm-195 2c76 10 128 37 128 37Zm199 64c-21 13-44 29-81 29s-52-27-52-27 21 23 53 22 58-18 79-30 36-30 40-42c-3 15-16 34-39 48Z" class="cls-10"/><path d="M341 434c-7-22-23-35-36-36 12 5 26 19 33 38l3-2Zm-1 6a68 68 0 0 1 3 22 71 71 0 0 0-1-23Zm57-42c-2-2-51-16-80-25s-40-8-27-3c11 5 58 39 65 44s7 0 16-5c17-8 29-8 26-11Z" class="cls-4"/><path d="m240 280 37 80c7 12 84-27 130-59 22-16 37-30 33-36a455 455 0 0 0-62-65l-8 7a232 232 0 0 1-19 16c-29 22-67 41-111 57Zm10 9-1-1a6 6 0 0 1 4-8c42-16 75-33 101-53a239 239 0 0 0 20-16 6 6 0 0 1 8 0 445 445 0 0 1 54 56c-1 2-4 10-32 30-43 30-103 60-121 60a7 7 0 0 1-2 0Z" class="cls-5"/><path d="m250 289-1-1a6 6 0 0 1 4-8c42-16 75-33 101-53a239 239 0 0 0 20-16 6 6 0 0 1 8 0 445 445 0 0 1 54 57c-1 1-4 9-32 29-43 30-103 60-121 60a7 7 0 0 1-2 0Z" class="cls-16"/><path fill="#fff" d="M419 286c-9-15-30-47-53-68l-12 9-20 14c9 11 32 45 48 70a480 480 0 0 0 37-25Zm-53 35 10-6a758 758 0 0 0-48-71l-8 5c19 27 36 55 46 72Z" opacity=".2" style="isolation:isolate"/><path fill="#fff" d="M404 297c-43 30-103 60-121 60a7 7 0 0 1-2 0l-31-68-1-1a6 6 0 0 1 4-8c42-16 75-33 101-53 0 0-25 23-52 35s-43 19-46 23-2 5 3 18l22 49c2 5 25-2 46-13l77-42Z" opacity=".3" style="isolation:isolate"/><path d="M247 342c10 0 25 9 29 14 2 2 4 7 0 9l-11 2c-10 0-23-2-25-14-2-8 2-11 7-11Z" class="cls-3"/><path d="M247 342c10 0 25 9 29 14 2 2 4 7 0 9l-11 2c-10 0-23-2-25-14-2-8 2-11 7-11Z" class="cls-6"/><path d="M247 342c-4 6 3 13 12 16s19 1 17-2c2 2 4 7 0 9l-11 2c-10 0-23-2-25-14-2-8 2-11 7-11Z" class="cls-3"/><path d="M247 342c-4 6 3 13 12 16s19 1 17-2c2 2 4 7 0 9l-11 2c-10 0-23-2-25-14-2-8 2-11 7-11Z" class="cls-14"/><path d="M247 342c-3 1-5 7-2 13s10 12 20 12c-10 0-23-2-25-14-2-8 2-11 7-11Z" class="cls-5"/></g></g></g><circle cx="312" cy="124" r="15.1" class="cls-3" transform="rotate(-81 312 124)"/><circle cx="383.8" cy="539.7" r="8.7" fill="#536582"/><circle cx="56.2" cy="419.1" r="12.8" class="cls-3" transform="rotate(-45 56 419)"/></svg>