<svg id="Layer_3" data-name="Layer 3" xmlns="http://www.w3.org/2000/svg" viewBox="0 0 556.81 577.83"><defs><style>.cls-1{fill:#ecf2fb;}.cls-2{fill:#e0e0e0;}.cls-3{fill:#fecb39;}.cls-17,.cls-19,.cls-20,.cls-21,.cls-4{fill:#fff;}.cls-10,.cls-14,.cls-16,.cls-17,.cls-20,.cls-21,.cls-4,.cls-6,.cls-7{isolation:isolate;}.cls-16,.cls-4{opacity:0.5;}.cls-5{fill:#37474f;}.cls-10,.cls-12,.cls-14,.cls-16,.cls-6,.cls-7{fill:#010101;}.cls-21,.cls-6{opacity:0.3;}.cls-7{opacity:0.25;}.cls-8{fill:#465b65;}.cls-9{fill:#263339;}.cls-10,.cls-11{opacity:0.15;}.cls-13,.cls-20{opacity:0.2;}.cls-14{opacity:0.35;}.cls-15{fill:#fbfbfb;}.cls-17,.cls-18{opacity:0.85;}.cls-22{fill:#536582;}</style></defs><path class="cls-1" d="M181.22,30.61C56.56,55.57-7.58,204.36,21.56,328.44,53.89,466.05,191,530.58,214.58,541.17,296.8,578,445.94,607,519.7,525.27c82-90.88,10.37-251.58-44.3-328.85C461.07,176.17,333,.21,181.22,30.61Z"/><g id="freepik--Shadows--inject-16"><path id="freepik--shadow--inject-16" class="cls-2" d="M255.58,235.34l262.23,151c78.73,43.94-112.27,178.38-210.53,121.48L45.29,357c-19.62-11.33-19.63-29.72,0-41.09l139.16-80.51C204.09,224,235.94,224,255.58,235.34Z"/></g><g id="freepik--Car--inject-16"><g id="freepik--car--inject-16-2" data-name="freepik--car--inject-16"><g id="freepik--Interiors--inject-16"><path class="cls-3" d="M356.23,303.58c27.21,9.72,66.8-26.74,83.5-33.48a11,11,0,0,0,3.58-1.92s-38-17.54-94.16-46.91c-29.69-15.52-53.08-39.87-53.08-39.87-20.11-11.78-36.35-21.22-44.4-25.74-34-19.09-62.89-9.4-69.66-7.65C182,148,324.53,292.26,356.23,303.58Z"/><path class="cls-4" d="M337.22,223.78c-16.42-9.16-17.17-19.21-14-16.21a147.43,147.43,0,0,0,20.61,15.15c9.37,5.85,76,35.07,76,35.07S359.23,236.13,337.22,223.78Z"/><path class="cls-5" d="M313.38,187.1l-6.19,3.3.93,43.23,39.94,26.24L439.8,270.1l3.51-1.92s-76.85-22.12-109.84-42.4c-6-3.69-9.24-7.37-10.74-9.84-3.27-5.4-4.27-9-3.91-16,.26-5.22.52-9.21.52-12.09Z"/><path class="cls-3" d="M313.32,187.1l6,.71c0,2.05-.07,4.32-.27,7.74a8.46,8.46,0,0,0-.08,1.43c-.11,1.8-2,2.92-4.23,2.92a6.5,6.5,0,0,1-3.4-.94c-1.92-1.16-3.31-4.17-4.12-6.37V190.4Z"/><path class="cls-6" d="M313.32,187.1l6,.71c0,2.05-.07,4.32-.27,7.74a8.46,8.46,0,0,0-.08,1.43c-.11,1.8-2,2.92-4.23,2.92a6.5,6.5,0,0,1-3.4-.94c-1.92-1.16-3.31-4.17-4.12-6.37V190.4Z"/><path class="cls-3" d="M63.48,229.86,261.06,387.62,304,355.47l136.05-85.21c-5.47.05-56.59-19.12-67.23-23.24-24.82-9.6-24.36-5.49-33.71-10.73-5-2.82-14.17-7.45-17.24-10.89-7.43-8.35-10-10.74-10.52-26.25-.09-2.57,0-5.49,0-8.87,4.39,2.07,11-1.74,7-4.06-1.72-.95-8.09-7.23-29.72-15.51-28.63-11-79.78-21.66-82.11-22-20-2.85-32.2-2.88-38.82,12.8Z"/><polygon class="cls-3" points="311.1 271.17 184.82 344.1 184.85 263.16 163.92 251.09 295.18 179.46 311.1 190.17 311.1 271.17"/><polygon class="cls-7" points="311.1 271.17 184.82 344.1 135.44 277.43 126.79 250.76 160.22 246.35 295.18 179.46 311.1 190.17 311.1 271.17"/><path class="cls-4" d="M217.4,152.38c-9.91-2.8-5.93-3-4.34-2.8s43.76,10.59,43.76,10.59-16.43-9-25.13-12-18.06-4.08-32.67-.83c-16.37,3.7-6.17,4.77,7,7.16s80.66,20.82,83.3,19.4-4.45-3.43-15-6.66S227.31,155.18,217.4,152.38Z"/><path class="cls-6" d="M360,320.07l79.81-50-4.2-.85c-13.75-3.77-53.76-18.79-63-22.37-22.52-8.7-20.22-3.73-30.75-9.15,1.61,32.71,3.72,76.17,3.72,76.17Z"/></g><g id="freepik--codriver-seat--inject-16"><path class="cls-5" d="M272.85,319.51h0a5.73,5.73,0,0,0,2.38,4.43l32.21,26.17a12.69,12.69,0,0,0,13.34,1.06l51.89-30c1.88-1.09,2.8-2.42,2.8-3.72h0V305.91l-19.82.4-28.87-13.05a17.92,17.92,0,0,0-14.45.7l-23.86,13.66-15.67.31Z"/><path class="cls-8" d="M372.32,302.24l-45.53-20.55a17.88,17.88,0,0,0-14.45.7L276,303.22c-3.89,2.23-4.22,6.33-.74,9.15l32.21,26.17a12.69,12.69,0,0,0,13.34,1.06l51.89-30C376.55,307.39,376.39,304.08,372.32,302.24Z"/><path class="cls-9" d="M275.23,312.34l32.21,26.18a11.81,11.81,0,0,0,6.3,2.38v11.56a11.92,11.92,0,0,1-6.3-2.38l-32.21-26.16a5.71,5.71,0,0,1-2.38-4.44h-.06V307.94A5.77,5.77,0,0,0,275.23,312.34Z"/><path class="cls-9" d="M270.66,239.91a9.85,9.85,0,0,1,4.44-7.3l31.12-18a3.34,3.34,0,0,1,3.37-.22h0L322.71,222h0a3.34,3.34,0,0,0-3.28.27l-31.15,18a9.92,9.92,0,0,0-4.44,7.32L281,312.14a2.76,2.76,0,0,0,1.13,2.75h0l-13.21-7.63a2.92,2.92,0,0,1-1.11-2.75Z"/><path class="cls-5" d="M321.12,221.66a3.08,3.08,0,0,1,3.23,2.94l8.46,57.06a7.72,7.72,0,0,1-3.49,7.26L285,314.5c-2.34,1.4-4.13.31-4-2.38l2.86-64.58a9.92,9.92,0,0,1,4.44-7.29l31.14-18A3.06,3.06,0,0,1,321.12,221.66Z"/><path class="cls-8" d="M275,232.64l31.12-18a3.36,3.36,0,0,1,3.37-.22h0L322.65,222h0a3.34,3.34,0,0,0-3.28.26l-31.15,18a9.16,9.16,0,0,0-3.06,3.16L272,235.8A9.2,9.2,0,0,1,275,232.64Z"/><path class="cls-9" d="M278.69,229.16h0l9.94,5.78,7.55-14.45,10-5.79a9.33,9.33,0,0,0,4.21-7.31V193.2l4.46-8.53-10-5.84h0c-2.91-1.58-6.72-1.35-10.89,1-9.1,5.26-16.49,18.91-16.49,30.47v16.08A3,3,0,0,0,278.69,229.16Z"/><path class="cls-8" d="M310.43,196V193.2l4.46-8.53-10-5.84h0c-2.91-1.58-6.72-1.35-10.89,1-5.25,3-9.91,8.84-12.93,15.44L294,202.77Z"/><path class="cls-5" d="M291.59,234.59l24.53-14.16a9.36,9.36,0,0,0,4.23-7.31V197.05c0-11.57-7.4-16.69-16.5-11.43s-16.49,18.9-16.49,30.47v16.07C287.36,234.85,289.25,235.94,291.59,234.59Z"/><path class="cls-3" d="M318.19,235.14a4.21,4.21,0,0,0-5.61-2,98.31,98.31,0,0,0-18.11,10.46,12,12,0,0,0-4.24,7.83c-.9,13.57-.64,29.89.15,47.39a3.24,3.24,0,0,0,.42,1.85,3.17,3.17,0,0,0,4.35,1.15A124.47,124.47,0,0,0,320,287.52a11.28,11.28,0,0,0,4-7.86A160,160,0,0,0,318.48,236,3.41,3.41,0,0,0,318.19,235.14Z"/><path class="cls-10" d="M291.49,301.37a1.55,1.55,0,0,0,.24.19c2.06,1.43,2.17-11,2.23-23.62s-.6-33.28-2.33-30.82a11.35,11.35,0,0,0-1.36,4.29c-.89,13.58-.63,29.9.16,47.4a4.53,4.53,0,0,0,.33,1.49A7.77,7.77,0,0,0,291.49,301.37Z"/><g class="cls-11"><path class="cls-12" d="M320.3,279.46c-.54.53-1.28,1.33-2.26,2.19a43.65,43.65,0,0,1-3.44,2.79c-1.33,1-2.8,1.89-4.29,2.78-.76.38-1.51.79-2.27,1.2s-1.54.72-2.28,1.07c-1.49.63-2.93,1.14-4.15,1.56a30.72,30.72,0,0,1-3,.84c-.77.18-1.2.25-1.2.25a8,8,0,0,1,1.05-.55c.69-.31,1.6-.82,2.79-1.4,2.28-1.14,5.29-2.72,8.25-4.4s5.83-3.49,8-4.9c1.07-.71,2-1.28,2.61-1.7s1-.64,1-.64A6,6,0,0,1,320.3,279.46Z"/><path class="cls-12" d="M320.3,271.34c-.54.54-1.3,1.33-2.26,2.2a38.16,38.16,0,0,1-3.44,2.79c-1.33,1-2.8,1.89-4.29,2.77L308,280.29c-.77.41-1.54.73-2.28,1.08a44.18,44.18,0,0,1-4.15,1.57c-1.23.41-2.29.64-3,.83l-1.2.26a9.82,9.82,0,0,1,1.05-.55c.69-.33,1.6-.84,2.79-1.4,2.28-1.16,5.29-2.73,8.25-4.41s5.83-3.49,8-4.89c1.07-.71,2-1.28,2.61-1.7s1-.64,1-.64A5.7,5.7,0,0,1,320.3,271.34Z"/><path class="cls-12" d="M318.65,264.52c-.48.5-1.16,1.24-2,2a36.2,36.2,0,0,1-3.2,2.59c-.62.42-1.25.88-1.92,1.29s-1.35.82-2.06,1.19-1.44.72-2.15,1.07-1.43.63-2.12.92a40.31,40.31,0,0,1-3.88,1.33c-1.14.33-2.12.56-2.8.7s-1.08.2-1.08.2l1-.5,2.58-1.27c2.13-1,5-2.39,7.7-3.87s5.41-3.11,7.4-4.4c.95-.64,1.8-1.16,2.39-1.54s.93-.58.93-.58A7.76,7.76,0,0,1,318.65,264.52Z"/><path class="cls-12" d="M317.91,256.9c-.45.48-1.11,1.2-2,2a33.64,33.64,0,0,1-3.09,2.49c-.59.36-1.22.77-1.87,1.2a21.08,21.08,0,0,1-2,1.19l-2.09,1c-.68.33-1.4.58-2.06.86-1.38.48-2.65.88-3.76,1.19s-2.06.5-2.72.66l-1,.19s.34-.19.94-.49l2.5-1.19c2.06-1,4.8-2.28,7.48-3.67s5.23-3,7.15-4.19c1-.62,1.84-1.1,2.39-1.5l.91-.54Z"/><path class="cls-12" d="M314.94,251.41a29,29,0,0,1-2.9,2.39c-.57.4-1.14.82-1.76,1.19s-1.27.72-1.92,1.06a37.91,37.91,0,0,1-7.51,2.73,33.84,33.84,0,0,1-3.57.76s1.21-.7,3.23-1.63,4.64-2,7.16-3.31q3.46-1.77,6.75-3.88l2.2-1.4.86-.51A24,24,0,0,1,314.94,251.41Z"/><path class="cls-12" d="M312.69,244.18a20.09,20.09,0,0,1-2.51,2.1c-.49.35-1,.72-1.52,1s-1.1.63-1.66,1a31.7,31.7,0,0,1-6.52,2.47,21.94,21.94,0,0,1-3.11.62s1.1-.64,2.78-1.49,3.91-1.91,6.1-3,4.28-2.37,5.86-3.37,2.7-1.64,2.7-1.64A18.31,18.31,0,0,1,312.69,244.18Z"/></g><path class="cls-3" d="M322.4,295.91a131.54,131.54,0,0,0-24.52,14.37,4.38,4.38,0,0,0-.66.55,4.16,4.16,0,0,0,.07,5.89A77.32,77.32,0,0,0,316,330a11.65,11.65,0,0,0,8.85.24,160.91,160.91,0,0,0,31.26-17.9,3.4,3.4,0,0,0,1-1,3.58,3.58,0,0,0-1-5c-8-6-16.13-10.21-24.31-11.67A19.56,19.56,0,0,0,322.4,295.91Z"/><g class="cls-13"><path class="cls-12" d="M350.53,310l-3.36,1.79c-2.78,1.47-6.45,3.45-10.08,5.49s-7.18,4.2-9.84,5.86l-4.46,2.76a52.19,52.19,0,0,1,3.91-3.52,69.62,69.62,0,0,1,9.55-6.51A76.53,76.53,0,0,1,346.74,311c1.44-.52,2.71-.91,3.58-1.19s1.39-.4,1.39-.4Z"/><path class="cls-12" d="M342.72,305.59l-3.35,1.79c-2.78,1.47-6.45,3.45-10.08,5.49s-7.18,4.19-9.84,5.86L315,321.49a52.85,52.85,0,0,1,3.91-3.57,70.59,70.59,0,0,1,9.55-6.52,75.87,75.87,0,0,1,10.49-4.91c1.43-.52,2.71-.91,3.58-1.2l1.39-.4Z"/><path class="cls-12" d="M336,301.8l-3.35,1.79c-2.78,1.47-6.47,3.42-10.08,5.47s-7.17,4.19-9.84,5.86l-4.46,2.77a49.07,49.07,0,0,1,3.91-3.58,70.13,70.13,0,0,1,9.54-6.51,76.59,76.59,0,0,1,10.5-4.92c1.43-.52,2.69-.92,3.58-1.19s1.38-.41,1.38-.41Z"/><path class="cls-12" d="M328.79,298.58l-3.06,1.67c-2.55,1.36-5.91,3.17-9.24,5s-6.65,3.85-9,5.36c-1.23.75-2.21,1.36-3,1.81l-1.19.7a42.43,42.43,0,0,1,3.57-3.27,62.45,62.45,0,0,1,8.8-6,66,66,0,0,1,9.65-4.48c1.34-.52,2.5-.86,3.31-1.11s1.29-.37,1.29-.37S329.48,298.21,328.79,298.58Z"/></g></g><g id="freepik--codriver-seat--inject-16-2" data-name="freepik--codriver-seat--inject-16"><path class="cls-5" d="M201.26,361.47h0a5.76,5.76,0,0,0,2.39,4.43l32.2,26.16a12.67,12.67,0,0,0,13.34,1.07l51.89-30c1.89-1.08,2.8-2.42,2.8-3.72h0V347.87l-19.8.39-28.85-13a17.88,17.88,0,0,0-14.45.7l-23.86,13.65-15.67.31Z"/><path class="cls-8" d="M300.78,344.16l-45.55-20.51a17.92,17.92,0,0,0-14.45.69l-36.36,20.83c-3.89,2.23-4.22,6.34-.74,9.16l32.21,26.16a12.69,12.69,0,0,0,13.34,1.07l51.89-30C305,349.35,304.84,346,300.78,344.16Z"/><path class="cls-9" d="M203.62,354.24l32.21,26.24a11.93,11.93,0,0,0,6.3,2.39v11.56a12,12,0,0,1-6.3-2.39l-32.21-26.16a5.7,5.7,0,0,1-2.38-4.44h0V349.9A5.79,5.79,0,0,0,203.62,354.24Z"/><path class="cls-9" d="M199.1,281.91a9.82,9.82,0,0,1,4.44-7.3l31.12-18a3.34,3.34,0,0,1,3.37-.22h0L251.15,264h0a3.3,3.3,0,0,0-3.27.26l-31.2,18a9.91,9.91,0,0,0-4.43,7.31l-2.88,64.58a2.77,2.77,0,0,0,1.19,2.74h0l-13.21-7.62a2.87,2.87,0,0,1-1.11-2.75Z"/><path class="cls-5" d="M249.63,263.62a3.08,3.08,0,0,1,3.17,3l8.46,57a7.68,7.68,0,0,1-3.5,7.25l-44.33,25.59c-2.33,1.4-4.12.31-4-2.38l2.86-64.59a10,10,0,0,1,4.44-7.3l31.14-18A3,3,0,0,1,249.63,263.62Z"/><path class="cls-8" d="M203.54,274.61l31.12-18a3.34,3.34,0,0,1,3.37-.22h0L251.15,264h0a3.3,3.3,0,0,0-3.27.26l-31.11,18a9.13,9.13,0,0,0-3.07,3.17l-13.23-7.62A9.4,9.4,0,0,1,203.54,274.61Z"/><path class="cls-9" d="M207.15,271.09h0l9.94,5.78,7.55-14.45,10-5.8a9.27,9.27,0,0,0,4.23-7.3V235.19l4.46-8.54L233.3,220.8h0c-2.91-1.57-6.71-1.33-10.89,1-9.11,5.25-16.5,18.9-16.5,30.46v16.05A3,3,0,0,0,207.15,271.09Z"/><path class="cls-8" d="M238.9,237.94v-2.78l4.46-8.54-10.06-5.84h0c-2.91-1.58-6.71-1.34-10.89,1.05-5.25,3-9.91,8.84-12.93,15.42l12.93,7.47Z"/><path class="cls-5" d="M220,276.56l24.55-14.17a9.32,9.32,0,0,0,4.21-7.32V239c0-11.57-7.38-16.69-16.48-11.43S215.81,246.47,215.81,258v16.07C215.81,276.81,217.7,277.89,220,276.56Z"/><path class="cls-3" d="M246.65,277.12a4.22,4.22,0,0,0-5.61-2,97.91,97.91,0,0,0-18.1,10.46,12,12,0,0,0-4.25,7.83c-.91,13.57-.63,29.89.14,47.4a3.2,3.2,0,0,0,4.77,3,124.59,124.59,0,0,0,24.82-14.32,11.29,11.29,0,0,0,4-7.85,159.27,159.27,0,0,0-5.47-43.71A4.33,4.33,0,0,0,246.65,277.12Z"/><path class="cls-10" d="M219.93,343.32l.24.19c2.06,1.45,2.18-11,2.24-23.6s-.6-33.3-2.33-30.84a11,11,0,0,0-1.36,4.3c-.9,13.57-.63,29.89.15,47.4a4.2,4.2,0,0,0,.34,1.48A7.7,7.7,0,0,0,219.93,343.32Z"/><g class="cls-11"><path class="cls-12" d="M248.73,321.46c-.53.53-1.27,1.33-2.25,2.19a42.19,42.19,0,0,1-3.46,2.79,49.86,49.86,0,0,1-4.27,2.78c-.76.4-1.54.79-2.29,1.2s-1.52.72-2.26,1.07a40.77,40.77,0,0,1-4.16,1.56,28.61,28.61,0,0,1-3,.84c-.77.18-1.19.25-1.19.25a8.91,8.91,0,0,1,1.05-.55c.68-.31,1.59-.82,2.78-1.4,2.29-1.14,5.31-2.72,8.26-4.4s5.82-3.49,8-4.9c1.07-.7,2-1.27,2.6-1.69l1-.65A6.88,6.88,0,0,1,248.73,321.46Z"/><path class="cls-12" d="M248.73,313.31c-.53.54-1.28,1.32-2.25,2.2A42.13,42.13,0,0,1,243,318.3c-1.31.95-2.78,1.88-4.27,2.76-.76.39-1.54.79-2.29,1.2s-1.52.71-2.26,1.06a40.83,40.83,0,0,1-4.16,1.57c-1.22.41-2.29.65-3,.84l-1.19.25a8.91,8.91,0,0,1,1.05-.55c.68-.31,1.59-.82,2.78-1.4,2.29-1.15,5.31-2.73,8.26-4.41s5.82-3.48,8-4.89c1.07-.7,2-1.26,2.6-1.69l1-.65A6.51,6.51,0,0,1,248.73,313.31Z"/><path class="cls-12" d="M247.11,306.49c-.47.5-1.16,1.24-2.05,2a36.06,36.06,0,0,1-3.19,2.59c-.62.41-1.26.89-1.92,1.28s-1.35.84-2.07,1.2l-2.15,1.06c-.7.36-1.43.62-2.12.92a40.26,40.26,0,0,1-3.88,1.32c-1.14.35-2.12.5-2.8.7a4,4,0,0,1-1.07.21l1-.5L229.4,316c2.14-1,5-2.39,7.71-3.86s5.4-3.12,7.38-4.39c.95-.65,1.8-1.17,2.39-1.56s.93-.58.93-.58A6,6,0,0,1,247.11,306.49Z"/><path class="cls-12" d="M246.35,298.84c-.46.48-1.12,1.21-2,2a32.41,32.41,0,0,1-3.08,2.51c-.59.35-1.23.76-1.87,1.19a17.56,17.56,0,0,1-2,1.19c-.7.35-1.4.67-2.09,1s-1.4.59-2.06.86c-1.38.48-2.65.87-3.76,1.2s-2.07.5-2.72.65l-1,.19s.33-.19.93-.49l2.49-1.19c2.08-1,4.81-2.28,7.48-3.66s5.24-3,7.16-4.2c1-.62,1.81-1.11,2.39-1.48s.9-.56.9-.56S246.82,298.36,246.35,298.84Z"/><path class="cls-12" d="M243.45,293.37a28.89,28.89,0,0,1-2.9,2.38c-.57.41-1.14.82-1.76,1.19s-1.28.72-1.92,1.07a39.3,39.3,0,0,1-7.52,2.73,36.1,36.1,0,0,1-3.58.75s1.28-.7,3.24-1.62,4.58-2,7.09-3.31a71.42,71.42,0,0,0,6.74-3.89c.92-.57,1.69-1.05,2.21-1.39l.86-.51A24.12,24.12,0,0,1,243.45,293.37Z"/><path class="cls-12" d="M241.14,286.14a22,22,0,0,1-2.51,2.1c-.49.34-1,.7-1.52,1s-1.1.65-1.66,1a32.38,32.38,0,0,1-6.53,2.47,23.33,23.33,0,0,1-3.1.63s1.1-.66,2.78-1.5,3.91-1.92,6.1-3.05,4.29-2.37,5.87-3.37,2.69-1.64,2.69-1.64A19.09,19.09,0,0,1,241.14,286.14Z"/></g><path class="cls-3" d="M250.87,337.8a131.78,131.78,0,0,0-24.51,14.37,4.24,4.24,0,0,0-.69.58,4.15,4.15,0,0,0,.09,5.87A78.14,78.14,0,0,0,244.44,372a11.57,11.57,0,0,0,8.84.23,161.38,161.38,0,0,0,31.26-17.89,3.7,3.7,0,0,0,1-1,3.58,3.58,0,0,0-1-5c-8-6-16.13-10.2-24.32-11.66A19.61,19.61,0,0,0,250.87,337.8Z"/><g class="cls-13"><path class="cls-12" d="M279,352l-3.35,1.8c-2.76,1.47-6.44,3.44-10.07,5.48s-7.19,4.2-9.85,5.85l-4.46,2.77q1.88-1.86,3.92-3.52a69.62,69.62,0,0,1,9.55-6.51,75.2,75.2,0,0,1,10.48-4.92c1.45-.52,2.7-.91,3.58-1.19s1.4-.4,1.4-.4S279.7,351.6,279,352Z"/><path class="cls-12" d="M271.16,347.56l-3.36,1.79c-2.77,1.46-6.44,3.44-10.07,5.48s-7.18,4.2-9.84,5.86l-4.46,2.77a53,53,0,0,1,3.91-3.58,70.13,70.13,0,0,1,9.54-6.51,75.43,75.43,0,0,1,10.5-4.92c1.45-.52,2.71-.92,3.58-1.19l1.4-.42Z"/><path class="cls-12" d="M264.41,343.74l-3.35,1.79C258.28,347,254.61,349,251,351s-7.18,4.19-9.84,5.86l-4.4,2.77a53,53,0,0,1,3.91-3.58,72,72,0,0,1,9.54-6.51,75.37,75.37,0,0,1,10.5-4.91c1.43-.52,2.7-.91,3.58-1.2l1.38-.4S265.2,343.31,264.41,343.74Z"/><path class="cls-12" d="M257.17,340.53l-3.06,1.67c-2.55,1.36-5.9,3.16-9.23,5.05s-6.59,3.84-9,5.35l-3,1.83-1.13.68a46.26,46.26,0,0,1,3.58-3.27,61.72,61.72,0,0,1,8.79-6,67,67,0,0,1,9.64-4.49c1.36-.51,2.51-.86,3.32-1.11s1.29-.37,1.29-.37S257.93,340.16,257.17,340.53Z"/></g></g><g id="freepik--back-car--inject-16"><polygon class="cls-3" points="37.57 275.21 66.53 256.92 96.28 274.1 42.73 305.02 37.57 275.21"/><polygon class="cls-14" points="37.57 275.21 66.53 256.92 96.28 274.1 42.73 305.02 37.57 275.21"/><path class="cls-5" d="M93.14,352.87l8.11,16.1L120,358.14h0l.27-.16h0c6.43-3.86,10.45-12.21,10.45-24.14,0-22.77-14.66-49.68-32.74-60.12-8.5-4.92-16.26-5.29-22.08-2h0l-18.3,10.6,7.7,15.27C65.9,318,77.71,341.16,93.14,352.87Z"/><path class="cls-9" d="M93.14,352.87l8.11,16.1L120,358.14h0l.27-.16h0c6.43-3.86,10.45-12.21,10.45-24.14,0-22.77-14.66-49.68-32.74-60.12-8.5-4.92-16.26-5.29-22.08-2h0l-18.3,10.6,7.7,15.27C65.9,318,77.71,341.16,93.14,352.87Z"/><path class="cls-5" d="M78.91,284.75a53.11,53.11,0,0,1,12.31,10.14.48.48,0,0,0,.09.11c11.93,13,20.28,32.63,20.28,49.81,0,22.78-14.65,32.77-32.72,22.34A49.56,49.56,0,0,1,71.71,362a.06.06,0,0,0,0-.06c-14.59-12.52-25.48-35.23-25.48-54.87C46.23,284.31,60.88,274.32,78.91,284.75Z"/><path class="cls-8" d="M99.73,337.94c0,15.24-9.37,22.16-20.82,15.51s-20.83-24.33-20.83-39.51,9.33-22.09,20.83-15.45S99.73,322.71,99.73,337.94Z"/><path class="cls-15" d="M73.83,311.82h0a5.81,5.81,0,0,1,3.8.52c5.23,2.31,10,10.35,10.74,17.9.41,4.2-.55,7.43-2.39,9a5.07,5.07,0,0,1-5.67.44c-5.2-2.36-10-10.4-10.73-17.95C69,316.2,70.82,312.49,73.83,311.82Z"/><path class="cls-2" d="M73.81,311.77h0a5.78,5.78,0,0,1,3.81.53c5.22,2.3,10,10.34,10.73,17.89.42,4.2-.54,7.43-2.38,9a5.83,5.83,0,0,1-3.79-.52c-5.21-2.31-10-10.35-10.74-17.9C71,316.51,72,313.32,73.81,311.77Z"/><path class="cls-8" d="M78.91,284.75a53.22,53.22,0,0,1,12.43,10.14c-4.72-4.57-19.57-14.6-30.84-9.84S48.19,308.66,51,321.78c3.17,15,12.12,30.75,20.75,40.16-14.59-12.52-25.48-35.23-25.48-54.87C46.23,284.31,60.88,274.32,78.91,284.75Z"/><path class="cls-3" d="M39.22,303.09l3.46,2c0-26.55,17.32-38.08,38.67-25.74,19.68,11.35,38.08,40.39,40.46,65.44a58,58,0,0,1,.34,6.32l136.08,78v-77s-12.88-5.85-20.84-10.45C233,339.1,202,321.79,197,318.93s-7.49-4.09-10.55-7.54c-8.7-9.7-49.48-20.43-54.88-46.68L129.2,257c-.31-1.34-1.24-4.94,3.46-6.63s25.39-1.35,25.39-1.35c-4-2.27-47.31-28.51-47.31-28.51C97.58,213,87.13,206.62,83.45,204.79c-11.81-5.91-39.47,10.37-46.1,26S26.87,295.62,39.22,303.09Z"/><path class="cls-12" d="M105.13,253.59c2.58,2.57,16.49,17.39,20.54,19.44s.73-4-1.42-10.74c-2.73-8.61-3.08-13-11.43-13C109,249.32,99.78,248.32,105.13,253.59Z"/><path class="cls-3" d="M173.38,152.51c13,5,49.65,23.73,49.65,23.73l-94.48,54.43-17.72-10.21c-13.17-7.59-23.63-13.94-27.31-15.77-3-1.51-7-1.57-11.4-.59C75.79,194.36,160.38,147.49,173.38,152.51Z"/><path class="cls-4" d="M180.56,320.11a5.57,5.57,0,0,1,2.21-4.84L255.7,357Z"/><path class="cls-5" d="M180.4,324.27a2,2,0,0,1-1-1.73v-1.7c0-1.58,2.37-1.49,5.28.19l4.29,2.48c2.89,1.67,5.27,4.32,5.27,5.89v2.09a.46.46,0,0,1,0,.2.45.45,0,0,1-.61.18Z"/><path class="cls-4" d="M101.44,254.55c-10.75-12.3-24.07-24.49-28.27-40.77a3.82,3.82,0,0,0-.87-1.89,3.05,3.05,0,0,0-1-.58c-5.28-2-9.29,1.31-13.63,3.7-14.32,7.93-4.2,23.17,14.31,39.54s94.24,60.07,94.24,60.07a14.34,14.34,0,0,1,3.72-6.06c-3-1.89-24.29-14.6-28-17.4C128.64,281.26,112,266.62,101.44,254.55Z"/><path class="cls-10" d="M263.33,194.81S178.61,157.47,185,153.68s96.08,21.47,96.08,21.47Z"/><path class="cls-10" d="M174.83,372.47l72.27,44.37c3.12,2.31,6.05,3.77,7.34-11.82s2.21-39.93,0-50c0,0,.19,22.45-1.65,35.85s-2.48,20.27-5.69,18.57Z"/><path class="cls-10" d="M174.07,309.77s-5.32,6-3.92,16.5,3.78,44.13,3.78,44.13.13-30.23.13-42.94c0-10.64,4.18-15.51,4.18-15.51Z"/><path class="cls-10" d="M103.35,277.07c3-3.21,13.87-6.95,13.87-6.95s-13.86,1.69-16.47,5.09-4.47,12.47-4.47,12.47S100.34,280.28,103.35,277.07Z"/><path class="cls-10" d="M37.16,264.24c-3.5-4.78-2.31-24.7-2.31-24.7s1.26,17.34,4.23,22.55,16.78,13.12,16.78,13.12S40.65,269,37.16,264.24Z"/><path class="cls-3" d="M87.5,238.46a13.28,13.28,0,0,0,6.38,1.89l42.62,9.08,37.35-1.19a40.35,40.35,0,0,1,16,4.42c.56.29,36.41,18.94,45.33,26.44C240,283.18,242,286.71,245.9,293c0,0-5.31-10.33,3.23-14.19s42.88-16.87,67.74-30c20.83-11.08,51.75-39,56.07-40.56,5.36-1.94,16.28,6.49,16.28,6.49a183,183,0,0,0-11.63-14.55c-8.85-10.24-89-48.54-104.83-49.54-18.2-1.15-38.92,2.7-51.08,5.86-2.37.61-4.42,1.21-6.06,1.72h-.15l-1.25.44a94.46,94.46,0,0,0-9.68,4.36c-11.78,6-23.21,12.48-34.59,19.08-13.82,8-27.38,16.2-41.1,24.68s-28,16.6-39.74,27.8C88,235.61,86.92,237,87.5,238.46Z"/><path class="cls-4" d="M254.07,276.56C267,271.2,295.4,260,316.87,248.68c2-1.12,4.08-2.31,6.11-3.51,20.34-12.5,46.09-35.54,50-37a4.73,4.73,0,0,1,.92-.21c2.38-2,3.73-3.23,3.73-3.23l.1-4.5-.1-.12c-7.71-8.95-69.8-39.28-96-47.49-9.4-1.62-12.78,3.14-35.79,18.46-24.66,16.43-48.09,29.88-73,44.06-9.1,5.17-18.16,10.32-27.44,15-10.81,5.48-28.75,6.87-40.15,10.9a2.12,2.12,0,0,0-1.19.79,1.47,1.47,0,0,0,.7,1.9,4.42,4.42,0,0,0,2.18.37c16.52-.16,33.08-.67,49.59-.6,21.65.1,27.13,2.33,48.07,14.59A275.81,275.81,0,0,1,239.42,282S245.22,280,254.07,276.56Z"/><path class="cls-10" d="M98.47,240.29c-3.76.2-7.77.16-10.91-1.89-.55-1.4.57-2.77,1.63-3.78,11.71-11.2,26-19.32,39.75-27.8s27.28-16.65,41.09-24.68c11.38-6.65,22.81-13.23,34.59-19.08a80.33,80.33,0,0,1,11.09-4.86c10-3.17,35.37-8.95,57.14-7.59a42.77,42.77,0,0,1,8.85,2.06c-9.4-1.63-12.79,3.14-35.79,18.45-24.67,16.44-48.11,29.88-73,44.06-9.1,5.17-18.15,10.32-27.43,15-6.77,3.43-14.46,4.88-21.81,6.41a189,189,0,0,1-19.66,3.2C102.18,240,100.28,240.15,98.47,240.29Z"/><path class="cls-8" d="M115.55,234.4c19.66-3.15,34.76-11,44.71-16.7s56.79-34.23,74-44.14,22.16-14.78,13.59-15.1c-5.06-.08-14.41,1.58-20,2.46-10.84,1.69-18.56,5.18-26.77,10-22.52,13-43.18,25.84-72.2,42.54C81,241,95.89,237.55,115.55,234.4Z"/><path class="cls-9" d="M129.25,265.91c2.33,8.8,4.05,12.33,10.15,17.33,12.21,10,44.28,29.63,46.75,31.19s3,1.9,5.07,3.09l52.3,30.22s35.56,18.22,34.28,11.5-25-55.41-29.17-64.1-5.48-14.74-14.08-19.55-37.85-22.07-43.36-25.34c-.45-.27-.92-.52-1.38-.76-6.82-3.67-13.81-5.24-24-4.77-10.46.48-33.18.75-38.84,4.26C123.46,251.17,126.44,255.42,129.25,265.91Zm56.2,38.2V258.89c0-1,0-1.86.11-2.56a2,2,0,0,1,.27-.83,1.91,1.91,0,0,1,2.63-.66h0c5.54,3.29,34.21,19.4,43.47,24.58,4.2,2.32,7.36,7.71,10.58,15.51s20.68,44.41,26.85,59.64c-.2-.08-29.7-13.76-49.68-25.62-15.59-9.23-25.91-14.46-29.91-16.94A8.21,8.21,0,0,1,185.45,304.11Zm-11.36-54.17c4.7.82,6.16,3.11,6,8.89v39.56c0,3.65-.69,6.63-4.05,4.4-8.52-5.63-31.64-20-35.71-23.33-5.25-4.26-9.1-21.86-10.09-26.1C129,248,168.23,248.94,174.09,249.94Z"/><path class="cls-16" d="M185.45,304.11V258.89c0-1,0-1.86.11-2.56a2,2,0,0,1,.27-.83,1.91,1.91,0,0,1,2.63-.66h0c5.54,3.29,34.21,19.4,43.47,24.58,4.2,2.32,7.36,7.71,10.58,15.51s20.68,44.41,26.85,59.64c-.2-.08-29.7-13.76-49.68-25.62-15.59-9.23-25.91-14.46-29.91-16.94A8.21,8.21,0,0,1,185.45,304.11Z"/><path class="cls-16" d="M174.09,249.94c4.7.82,6.16,3.11,6,8.89v39.56c0,3.65-.69,6.63-4.05,4.4-8.52-5.63-31.64-20-35.71-23.33-5.25-4.26-9.1-21.86-10.09-26.1C129,248,168.23,248.94,174.09,249.94Z"/></g><g id="freepik--front-car--inject-16"><path class="cls-8" d="M282.39,357.44c5.66,6.73,40-7.5,73.75-25.79,6.74-4,25.34-13.48,45-27.18,8.3-5.58,15.49-10.89,21.86-16.09,9-7.31,15.7-14,16.82-18.28-.08,0-41.52,13.44-80.73,36.32-31.2,18.2-61.1,39.8-74.64,49.87C284.42,356.31,282.39,357.44,282.39,357.44Z"/><path class="cls-5" d="M359.07,306.42a430.47,430.47,0,0,1,80.72-36.32c-5.88,2.66-54.29,24.48-77.77,38.61-24.65,14.82-78,47.72-79.63,48.73C295.92,347.36,327.87,324.62,359.07,306.42Z"/><path class="cls-3" d="M431.36,242.7a9,9,0,0,1,2.23-3.68,4,4,0,0,1,4.56-1c7.71,3.45,10.18,16.39,10,21.95a36.55,36.55,0,0,1-.51,5.11h0c-.61,3.53-1.82,6.39-3.79,6.87-2.19.53-8.31-6-11.08-11.19l-1.19-5h0C431.39,255.52,430.08,246.55,431.36,242.7Z"/><path class="cls-6" d="M431.36,242.7a9,9,0,0,1,2.23-3.68,4,4,0,0,1,4.56-1c7.71,3.45,10.18,16.39,10,21.95a36.55,36.55,0,0,1-.51,5.11h0c-.61,3.53-1.82,6.39-3.79,6.87-2.19.53-8.31-6-11.08-11.19,0,0-.78-2.94-1.19-5h0C431.39,255.52,430.08,246.55,431.36,242.7Z"/><path class="cls-3" d="M441,258.34c.5-6.32-.95-14.65-6.34-16.94l-1-2.38a4,4,0,0,1,4.57-1c7.7,3.45,10.17,16.39,10,21.95a36.55,36.55,0,0,1-.51,5.11h0c-.61,3.53-1.82,6.39-3.78,6.87-2.2.53-8.32-6-11.09-11.19C435.86,264,440.49,264.66,441,258.34Z"/><path class="cls-14" d="M441,258.34c.5-6.32-.95-14.65-6.34-16.94l-1-2.38a4,4,0,0,1,4.57-1c7.7,3.45,10.17,16.39,10,21.95a36.55,36.55,0,0,1-.51,5.11h0c-.61,3.53-1.82,6.39-3.78,6.87-2.2.53-8.32-6-11.09-11.19C435.86,264,440.49,264.66,441,258.34Z"/><path class="cls-5" d="M438.18,237.94c7.7,3.45,10.17,16.39,10,21.95a33.64,33.64,0,0,1-.51,5.11c0-3.72-1.35-13.33-5.42-18.92s-8.91-5.49-10.85-3.42C432.3,239.81,435,236.51,438.18,237.94Z"/><polygon class="cls-3" points="258.29 394.76 282.09 380.97 311.84 398.14 258.29 429.07 258.29 394.76"/><polygon class="cls-14" points="258.29 394.76 282.09 380.97 311.84 398.14 258.29 429.07 258.29 394.76"/><path class="cls-5" d="M308.18,476.63l8.11,16.1L335,481.88h0l.26-.16h0c6.43-3.86,10.45-12.21,10.45-24.14,0-22.77-14.66-49.69-32.73-60.12-8.5-4.92-16.26-5.29-22.08-1.95h0l-18.3,10.59,7.7,15.27C280.93,441.69,292.79,464.87,308.18,476.63Z"/><path class="cls-9" d="M308.18,476.63l8.11,16.1L335,481.88h0l.26-.16h0c6.43-3.86,10.45-12.21,10.45-24.14,0-22.77-14.66-49.69-32.73-60.12-8.5-4.92-16.26-5.29-22.08-1.95h0l-18.3,10.59,7.7,15.27C280.93,441.69,292.79,464.87,308.18,476.63Z"/><path class="cls-5" d="M293.92,408.41a53,53,0,0,1,12.39,10.18.31.31,0,0,0,.09.11c11.93,13,20.28,32.63,20.28,49.82,0,22.77-14.65,32.76-32.72,22.33a49.71,49.71,0,0,1-7.16-5.14.09.09,0,0,0-.06-.06c-14.59-12.53-25.48-35.24-25.48-54.88C261.26,408,275.91,398,293.92,408.41Z"/><path class="cls-8" d="M314.81,461.65c0,15.23-9.33,22.15-20.83,15.5s-20.82-24.33-20.82-39.51,9.32-22.09,20.82-15.44S314.81,446.41,314.81,461.65Z"/><path class="cls-15" d="M288.75,435.5h0a5.81,5.81,0,0,1,3.8.5c5.2,2.38,10.06,10.35,10.84,17.89.45,4.22-.48,7.43-2.31,9a5.05,5.05,0,0,1-5.67.47c-5.18-2.38-10-10.34-10.84-17.89C284,440,285.74,436.25,288.75,435.5Z"/><path class="cls-2" d="M288.78,435.51h0a5.84,5.84,0,0,1,3.81.5c5.2,2.39,10.05,10.35,10.84,17.89.44,4.23-.49,7.43-2.31,9a6,6,0,0,1-3.81-.5c-5.19-2.39-10.05-10.36-10.84-17.9C286,440.27,286.92,437.08,288.78,435.51Z"/><path class="cls-8" d="M294,408.41a53,53,0,0,1,12.39,10.18c-4.72-4.56-19.58-14.6-30.84-9.84s-12.31,23.61-9.54,36.73c3.17,15,12.12,30.75,20.75,40.17-14.59-12.53-25.48-35.24-25.48-54.88C261.26,408,275.91,398,294,408.41Z"/><path class="cls-3" d="M258.18,429.1c0-1.79.08-3.5.23-5.16,2.11-22.85,18.53-32.1,38.45-20.6,1.27.76,2.47,1.54,3.66,2.38,9.22,6.4,17.49,16.27,23.68,27.55a96.93,96.93,0,0,1,9.16,23.35,79.32,79.32,0,0,1,1.73,9.55c.85,7.18,28,19,59,20,27.5.87,55.74-7.37,76.7-18.68s22-12.11,37.48-23c16.83-11.88,23.37-32.71,25.59-45,1.44-8,1.7-12,1.7-12,7.86-54.29-28.83-74-95.75-121.6,1.31,2.94-.92,6.56-2,7.87A104.28,104.28,0,0,1,423,288.38c-6.38,5.2-13.54,10.51-21.89,16.09-19.62,13.71-38.22,23.16-45,27.18C322.4,350,291,361.13,282.64,358.38c-3.83-1.27-22.07-9.62-22.07-9.62.73,2.71-2.39,3.3-2.39,3.3Z"/><path class="cls-8" d="M414.32,462.89a27.68,27.68,0,0,1,6.55-.51c34.08-.58,56.17-16.24,77-28.89,7-4.21,17.9-13.46,23-17.82,3-1.1,0,6.75-4.77,12.81-5.09,6.41-14,13.95-27.7,22s-27.71,15.71-47,20.49C428.24,474.25,406,465.37,414.32,462.89Z"/><path class="cls-8" d="M374.23,468.16c3.36,4.42,8.23,8.74,22.66,8.73s19.59-1.93,14.44-4.59c-3.26-1.68-10-7.17-12.52-8.91-3-2.06-4.94-2.27-13-4.58s-12.77-3.58-14.67-3.32C366.87,456.09,370.86,463.73,374.23,468.16Z"/><path class="cls-8" d="M527.37,408.13c-1.77,6.32-3.87,10.57-1.41,10.74a4.87,4.87,0,0,0,2.66-1.6,91,91,0,0,0,5.22-17.77c.66-3.76,1.07-6.54,1.33-8.53h0C533.56,395.67,529.14,401.81,527.37,408.13Z"/><path class="cls-17" d="M504.6,374.17a45.66,45.66,0,0,1,2.29,16.07c-.11,3.49-3.21,8.13-5.87,10.41q-18.39,15.78-45.95,26.25c-3.3,1.28-8.85,1.76-11.93.09a37.36,37.36,0,0,1-11.58-10.23c-2-2.82-.46-6.65,2.73-8.09a341,341,0,0,0,61.18-35.2C498.29,371.39,503.29,370.9,504.6,374.17Z"/><path class="cls-3" d="M445,423.68a33.52,33.52,0,0,1-10.33-9.14.91.91,0,0,1-.16-.87,2.51,2.51,0,0,1,1.37-1.52,345.8,345.8,0,0,0,61.88-35.63c.74-.55,2.74-2,3.34-.85a42.33,42.33,0,0,1,2,14.44c-.06,2-2.27,5.7-4.55,7.66-11.85,10.17-26.93,18.78-44.82,25.58a16.18,16.18,0,0,1-5.34.9A7.68,7.68,0,0,1,445,423.68Z"/><path class="cls-14" d="M445,423.68a33.52,33.52,0,0,1-10.33-9.14.91.91,0,0,1-.16-.87,2.51,2.51,0,0,1,1.37-1.52,345.8,345.8,0,0,0,61.88-35.63c.74-.55,2.74-2,3.34-.85a42.33,42.33,0,0,1,2,14.44c-.06,2-2.27,5.7-4.55,7.66-11.85,10.17-26.93,18.78-44.82,25.58a16.18,16.18,0,0,1-5.34.9A7.68,7.68,0,0,1,445,423.68Z"/><path class="cls-3" d="M469.49,392.85l3.29-1.88A94.76,94.76,0,0,1,481.56,413l-3.69.88A94,94,0,0,0,469.49,392.85Z"/><path class="cls-17" d="M469.49,392.85l3.29-1.88A94.76,94.76,0,0,1,481.56,413l-3.69.88A94,94,0,0,0,469.49,392.85Z"/><path class="cls-3" d="M433.19,414.69A314.41,314.41,0,0,0,472.82,395c14.65-9,29.15-19.43,29.3-19.52l.37.51c-.15.1-14.68,10.56-29.34,19.54a317.37,317.37,0,0,1-39.77,19.79Z"/><path class="cls-3" d="M435.08,416.53a307.34,307.34,0,0,0,39-19.37c14.65-9,28.14-18.81,28.27-18.92l.37.51c-.13.06-13.65,9.9-28.31,18.9a306.71,306.71,0,0,1-39.16,19.43Z"/><path class="cls-3" d="M437,418.26a292.53,292.53,0,0,0,38.43-19c14.64-9,27.12-18.22,27.24-18.32l.38.52c-.12.09-12.63,9.34-27.29,18.33a293.24,293.24,0,0,1-38.55,19.09Z"/><path class="cls-3" d="M438.81,420.05a273.4,273.4,0,0,0,37.83-18.68c14.66-9,26.13-17.61,26.24-17.69l.38.5c-.08.09-11.58,8.74-26.24,17.74a274.64,274.64,0,0,1-38,18.73Z"/><path class="cls-3" d="M440.77,421.83A262.67,262.67,0,0,0,478,403.5c14.64-9,25.1-17,25.2-17.08l.39.5c-.12.09-10.59,8.14-25.26,17.12A264,264,0,0,1,441,422.42Z"/><path class="cls-3" d="M442.65,423.63a252.94,252.94,0,0,0,36.61-18,275.09,275.09,0,0,0,24.17-16.47l.39.49a272.75,272.75,0,0,1-24.22,16.52,254.72,254.72,0,0,1-36.75,18Z"/><path class="cls-3" d="M444.56,425.39a242.41,242.41,0,0,0,36-17.62,236.81,236.81,0,0,0,23.15-15.86l.4.49a238.13,238.13,0,0,1-23.21,15.91A242.5,242.5,0,0,1,444.74,426Z"/><g class="cls-18"><path class="cls-19" d="M433.19,414.69A314.41,314.41,0,0,0,472.82,395c14.65-9,29.15-19.43,29.3-19.52l.37.51c-.15.1-14.68,10.56-29.34,19.54a317.37,317.37,0,0,1-39.77,19.79Z"/><path class="cls-19" d="M435.08,416.53a307.34,307.34,0,0,0,39-19.37c14.65-9,28.14-18.81,28.27-18.92l.37.51c-.13.06-13.65,9.9-28.31,18.9a306.71,306.71,0,0,1-39.16,19.43Z"/><path class="cls-19" d="M437,418.26a292.53,292.53,0,0,0,38.43-19c14.64-9,27.12-18.22,27.24-18.32l.38.52c-.12.09-12.63,9.34-27.29,18.33a293.24,293.24,0,0,1-38.55,19.09Z"/><path class="cls-19" d="M438.81,420.05a273.4,273.4,0,0,0,37.83-18.68c14.66-9,26.13-17.61,26.24-17.69l.38.5c-.08.09-11.58,8.74-26.24,17.74a274.64,274.64,0,0,1-38,18.73Z"/><path class="cls-19" d="M440.77,421.83A262.67,262.67,0,0,0,478,403.5c14.64-9,25.1-17,25.2-17.08l.39.5c-.12.09-10.59,8.14-25.26,17.12A264,264,0,0,1,441,422.42Z"/><path class="cls-19" d="M442.65,423.63a252.94,252.94,0,0,0,36.61-18,275.09,275.09,0,0,0,24.17-16.47l.39.49a272.75,272.75,0,0,1-24.22,16.52,254.72,254.72,0,0,1-36.75,18Z"/><path class="cls-19" d="M444.56,425.39a242.41,242.41,0,0,0,36-17.62,236.81,236.81,0,0,0,23.15-15.86l.4.49a238.13,238.13,0,0,1-23.21,15.91A242.5,242.5,0,0,1,444.74,426Z"/></g><path class="cls-4" d="M471.16,318.05c13.46,18.46,22.67,37.44,24.79,37.86,4.31.86-2.78-9.54,3.32-21.47,5-9.8,7.51-9.65,1.63-15.51s-51.17-39.45-54.18-38.79C441.54,281.25,457.41,299.17,471.16,318.05Z"/><path class="cls-17" d="M379.08,431.41a37.54,37.54,0,0,0,16.6,7.43c9.31,1.62,27.46,0,29-12.22a10,10,0,0,0-2.39-7.35,20.34,20.34,0,0,0-6.18-4.87,44,44,0,0,0-33.28-3.8c-3.59,1-8.67,2.9-10.82,6.17s-.37,7,2.2,10.05A31.92,31.92,0,0,0,379.08,431.41Z"/><path class="cls-17" d="M528.15,359.67a29.07,29.07,0,0,0-5.41-19.54c-2.81-3.84-8.3-8.62-13.36-7.42-15.8,3.75-4.66,26.67,0,35.15A19.19,19.19,0,0,0,513,373a7.5,7.5,0,0,0,5.7,2.2,7.12,7.12,0,0,0,2.27-.64C525.89,372.17,527.74,364.29,528.15,359.67Z"/><path class="cls-10" d="M331,444.21a58.31,58.31,0,0,1,37.71-18.12A133.26,133.26,0,0,0,331,444.21Z"/><path class="cls-10" d="M492.84,362.21C467.26,314.48,434.25,285,434.25,285Z"/><path class="cls-10" d="M298.29,364.15c75.94,10,127.64,36.67,127.64,36.67Z"/><path class="cls-10" d="M497.23,428.05c-21.71,13.17-44.26,29.34-80.74,28.54S364,430.25,364,430.25s21.43,23.08,52.53,22.07,58.51-18.12,79.66-30.54,35.4-30.09,39.44-41.69C533.08,394.88,519.83,414.36,497.23,428.05Z"/><path class="cls-4" d="M341,434.27c-6.53-21.77-23.33-34.79-36-35.79,11.7,4.08,25.71,18.83,33.11,37.6C339.06,435.41,341,434.28,341,434.27Z"/><path class="cls-4" d="M339.54,440.16a68.48,68.48,0,0,1,3.69,22,71,71,0,0,0-1.09-23.35Z"/><path class="cls-4" d="M397.41,398.48c-2.12-2.92-51.64-16.35-80.2-25.23s-40-8.16-27.44-2.76c11.17,4.78,58.33,38.54,64.85,43.75s7.54-.51,16.21-4.77C387.58,401.24,399.52,401.4,397.41,398.48Z"/><path class="cls-5" d="M240,279.59l36.7,79.92c7.23,12.55,84.06-26.36,130-58.7,22.1-15.58,37-29.64,33.54-35.69a455.09,455.09,0,0,0-62.55-65q-3.56,3.67-7.36,7.15A232.17,232.17,0,0,1,351.18,223C321.61,245.08,283.86,263.64,240,279.59Zm9.63,9-.15-.36a6.27,6.27,0,0,1,3.6-8.11c41.57-15.87,74.73-33.33,101.19-53.12a238.63,238.63,0,0,0,19.42-16.08h0a6.3,6.3,0,0,1,8.43-.09,444.62,444.62,0,0,1,53.41,56.59c-.44,1.61-4,9.6-31.84,29.25C360.58,327,300.79,356.85,282.9,356.85a7.4,7.4,0,0,1-2-.21Z"/><path class="cls-16" d="M249.62,288.58l-.15-.36a6.27,6.27,0,0,1,3.6-8.11c41.57-15.87,74.73-33.33,101.19-53.06A238.63,238.63,0,0,0,373.68,211h0a6.29,6.29,0,0,1,8.43-.09,444.62,444.62,0,0,1,53.41,56.59c-.44,1.61-4,9.6-31.84,29.25-43.1,30.37-102.89,60.19-120.78,60.19a7.4,7.4,0,0,1-2-.21Z"/><path class="cls-20" d="M418.51,285.59c-8.73-14.16-29.9-46.2-52.87-67.55-3.63,3.08-7.43,6.07-11.43,9.05q-9.36,7-19.87,13.57c8.89,11.67,31.94,45.33,47.45,70.57,7.58-4.74,14.95-9.62,21.89-14.51C409.69,292.48,414.56,288.8,418.51,285.59Z"/><path class="cls-20" d="M366.47,320.54q4.62-2.7,9.2-5.49a758.28,758.28,0,0,0-47.19-70.74q-4.07,2.38-8.29,4.78C339,276.16,356.42,304,366.47,320.54Z"/><path class="cls-21" d="M403.64,296.72c-43.09,30.37-102.88,60.19-120.77,60.19a7.43,7.43,0,0,1-2-.21l-31.25-68.12-.15-.36a6.27,6.27,0,0,1,3.6-8.11c41.57-15.87,74.73-33.33,101.14-53,0,0-25,22.68-51.76,35.31s-43.3,18.75-46.28,22.58-1.92,5.21,2.62,17.81,20.45,44.36,22.27,49.24,24.49-2.28,46.31-12.64S394.83,303.18,403.64,296.72Z"/><path class="cls-3" d="M247.45,342.15c9.65.3,25,9.21,28.46,13.65,2,2.63,3.77,7.15,0,9.33-1.29.75-5.55,1.71-10.74,1.85-9.81.32-22.84-2.2-25.32-14C238.12,344.71,241.83,342,247.45,342.15Z"/><path class="cls-6" d="M247.45,342.15c9.65.3,25,9.21,28.46,13.65,2,2.63,3.77,7.15,0,9.33-1.29.75-5.55,1.71-10.74,1.85-9.81.32-22.84-2.2-25.32-14C238.12,344.71,241.83,342,247.45,342.15Z"/><path class="cls-3" d="M247.45,342.15c-4.37,6.09,2.32,13,11.31,16.26s19.05,1,17.15-2.61c2,2.63,3.77,7.15,0,9.33-1.29.75-5.55,1.71-10.74,1.85-9.81.32-22.84-2.2-25.32-14C238.12,344.71,241.83,342,247.45,342.15Z"/><path class="cls-14" d="M247.45,342.15c-4.37,6.09,2.32,13,11.31,16.26s19.05,1,17.15-2.61c2,2.63,3.77,7.15,0,9.33-1.29.75-5.55,1.71-10.74,1.85-9.81.32-22.84-2.2-25.32-14C238.12,344.71,241.83,342,247.45,342.15Z"/><path class="cls-5" d="M247.48,342.15c-3.44.78-5.67,6.7-2.74,12.82s10.7,11.73,20.43,12c-9.81.32-22.84-2.2-25.32-14C238.12,344.71,241.83,342,247.48,342.15Z"/></g></g></g><circle class="cls-3" cx="312.03" cy="124.05" r="15.05" transform="translate(139.6 412.18) rotate(-80.78)"/><circle class="cls-22" cx="383.75" cy="539.72" r="8.65"/><circle class="cls-3" cx="56.24" cy="419.05" r="12.85" transform="translate(-279.84 162.5) rotate(-45)"/></svg>