<?xml version="1.0" encoding="utf-8"?>
<!-- Generator: Adobe Illustrator 26.2.1, SVG Export Plug-In . SVG Version: 6.00 Build 0)  -->
<svg version="1.1" id="Layer_1" xmlns="http://www.w3.org/2000/svg" xmlns:xlink="http://www.w3.org/1999/xlink" x="0px" y="0px"
	 viewBox="0 0 500 500" style="enable-background:new 0 0 500 500;" xml:space="preserve">
<style type="text/css">
	.st0{fill:#EBF1FA;}
	.st1{fill:#E0E0E0;}
	.st2{fill:#EBEBEB;}
	.st3{opacity:0.4;fill:#F5F5F5;enable-background:new    ;}
	.st4{fill:#FFFFFF;}
	.st5{fill:#F5F5F5;}
	.st6{fill:#FAFAFA;}
	.st7{fill:#263238;}
	.st8{fill:#526481;}
	.st9{fill:#407BFF;}
	.st10{fill:#D7AC30;}
	.st11{fill:#FEDA73;}
	.st12{fill:#FEEDBA;}
	.st13{fill:#46556E;}
	.st14{opacity:0.3;fill:#FFFFFF;enable-background:new    ;}
	.st15{opacity:0.2;}
	.st16{fill:#FDCA38;}
	.st17{opacity:0.2;enable-background:new    ;}
	.st18{opacity:0.9;fill:#FFFFFF;enable-background:new    ;}
	.st19{opacity:0.1;fill:#FFFFFF;enable-background:new    ;}
	.st20{opacity:0.2;fill:#FFFFFF;enable-background:new    ;}
</style>
<path class="st0" d="M24.3,271.8c1.4,99.9,107.2,170.8,207.3,166c111-5.3,180.4-101.9,192-118.7c40.2-58.3,84-169.3,31.4-238
	C396.5,4.8,262,37.1,194.5,68.3C176.8,76.4,22.5,150.2,24.3,271.8z"/>
<g id="freepik--background-complete--inject-122">
	<path class="st1" d="M351.7,317.5c-36.5,0-81.5-9.4-126.6-26.5s-85.1-39.9-112.5-64.2c-27.6-24.5-39.1-47.6-32.5-65.1
		c0-0.6,0.5-1,1.1-0.9s1,0.5,0.9,1.1c0,0.2-0.1,0.4-0.2,0.5c-13.2,34.8,51.3,91.7,143.9,126.8c44.9,17,89.6,26.4,125.9,26.4h0.1
		c36,0,59.4-9.2,65.7-26c0.2-0.5,0.7-0.7,1.2-0.5c0.5,0.2,0.7,0.7,0.5,1.2c-6.6,17.5-30.6,27.2-67.5,27.2L351.7,317.5z"/>
	<path class="st1" d="M161.3,382.5c-7.7,0-14.2-1.9-19.6-5.9c-0.3-0.4-0.2-1.1,0.2-1.4c0.3-0.2,0.6-0.3,0.9-0.1
		c14.4,10.6,39,5.8,69.3-13.7c30.6-19.6,63.2-51.7,91.8-90.4c58.9-79.5,82.4-162.3,52.5-184.4c-0.3-0.4-0.3-1.1,0.2-1.4
		c0.3-0.2,0.6-0.3,0.9-0.1c15,11.1,17.8,36.8,7.9,72.3c-9.9,35.2-31.2,76-59.9,114.8S244,343.3,213.2,363
		C193.1,375.9,175.4,382.5,161.3,382.5z"/>
	<path class="st2" d="M389.3,242.5c0-4.7-0.2-9.3-0.6-13.8c-6.6-71.9-66.7-127.2-138.9-127.7h-2.6c-17.1,0.2-34.1,3.5-50.1,9.8l0,0
		c-72.2,28.5-107.6,110.1-79.1,182.3s110.1,107.6,182.3,79.1C353.7,351.1,388.9,299.8,389.3,242.5z"/>
	<path class="st3" d="M291,343.8c2.6,0.2,3.8,3.5,4.4,6.1c0.8,4,1.6,7.9,2.4,11.9c-4.8,2.3-4.4,8.2-2.2,12.2
		c55.9-19.7,93.4-72.3,93.8-131.5c0-4.7-0.2-9.3-0.6-13.8c-0.1-0.1-0.2-0.1-0.4-0.2c-3.8-1.8-6.9,1.5-9.7,3.3
		c-0.6,0.4-9.1,4.5-9.2,3.4c0.4,3.7,0.2,7.4-0.6,11c0,0.3-0.2,0.5-0.4,0.7c-0.5,0.4-1.2-0.4-1.4-1c-0.5-1.6-0.7-3.3-1.3-4.9
		c-0.5-1.6-1.7-3-3.3-3.6c-1.6-0.5-3.4,0.1-5.1-0.1c-2.1-0.4-3.8-1.7-4.8-3.6c-0.9-1.8-1.6-3.7-2-5.7c-2,4.4-7,1.7-10,5.2
		c-1,1.1-2.1,2.8-3.5,2.2s-1.5-2.8-2.9-2.9c-1-0.1-1.7,0.9-1.9,1.9c0,1-0.1,2-0.4,2.9c-0.7,1.3-2.2,1.8-3.5,1.1c0,0,0,0-0.1,0
		c-1.1-0.6-1.5-2-2.1-3s-2.1-2-3.1-1.2c-0.2,0.2-0.4,0.4-0.5,0.7c-1,1.9,0.1,4.2,1.4,5.8s2.9,3.3,3,5.4c-0.8,0.5-1.9,0.3-2.4-0.5
		c-0.1-0.3-0.3-0.6-0.5-0.8c-0.5-0.5-1.3,0-1.9,0.4c-2.8,1.8-6.3,2.4-9.5,1.7L312,234c-1,0-1.5-0.1-1.9-1.1
		c-3.2,3.1-6.1,6.5-9.7,9.3c-0.5,0.3-0.8,0.7-1,1.2c-0.1,0.6-0.1,1.1,0,1.7c-0.1,1.9-2.6,2.4-4.5,2.3c-0.5,0.3-0.2,1.2,0.3,1.5
		s1.2,0.3,1.7,0.7c0.7,0.7,0.9,1.7,0.5,2.6c-1.1,3.2-4.5,4.9-7.7,3.9c-0.4-0.1-0.7-0.3-0.9-0.6c-0.5-0.7,0-1.6,0.1-2.5
		c0.3-3.3-3.2-2.6-4.9-1.6c-2.2,1.2-3.5,4.5-3.9,6.9c-0.5,2.8-2.6,21.1-8.7,18.5c-0.6-0.3-1-0.7-1.3-1.3c-0.9-1.7-0.8-3.7-1.5-5.4
		s-2.7-3.4-4.3-2.5c-0.7,0.4-1.1,1-1.7,1.5c-1.8,1.1-4.2-0.2-6.2,0.6c-0.8,0.5-1.6,1.1-2.3,1.8c-0.8,0.5-2,0.7-2.6-0.1
		s0.1-2.2-0.4-3.2s-2.2-0.8-2.8,0.2c-0.5,1.1-0.3,2.3,0.5,3.2c0.4,0.4,0.8,0.9,1,1.5c0.2,1-0.8,1.9-1.6,2.5l-4.1,2.9
		c0.2,1,1,1.7,2,1.9c0.9,0.3,1.9,0.2,2.9,0.6c4.5,1.5,4.4,8.1,10.3,6.8c-0.2-1.5,0.9-2.9,2.5-3.1c0.3,0,0.5,0,0.8,0
		c2.1,0.5,3.5,3.6,5.6,3c0.7-0.2,1.3-0.9,2-1c2.1-0.5,3.1,2.7,3.7,4c1.9,4.5-1.1,5-1,9c0,1.8,1.4,3.4,1.7,5.2s-0.3,3.4,0,5
		c0.6,4.6,6.7,1.8,9.4,1.3c-1.5,2.6,0.7,5.8,3.1,7.6c3.6,2.8,3,2.5,3.5,6.5c0.1,1.1,0.7,2,1.7,2.5c1.7,0.6,3.4-1.1,5.3-1.3
		c0.9-0.1,1.8,0.2,2.6,0c2.3-0.4,3.1-3.2,4.6-5c1.3-1.6,3.4-2.4,5.5-2.2c0.2,1.2,0.2,2.4,0,3.5l-3.9,2.4c-1.2,0.6-2.2,1.5-3,2.6
		c-0.3,0.7-0.7,1.3-1.2,1.9c-1.1,1-2.8,0.4-4.3,0.3c-3.6-0.2-9.5,2-12.9,3.1c-3.7,1.2-5,3.8-8.4,5c-0.5,0.3-0.7,0.9-0.5,1.5
		c0,0,0,0.1,0.1,0.1c0.4,0.5,1,0.8,1.6,0.9c1.5,0.3,3,0,4.3-0.7c-1.7,0.9,3.3,5,4.2,5.2c1.5,0.3,3.5-0.8,5-0.9
		c3.7-0.2,5.9,0.5,3.4,4.6c-0.9,1.5-2,3.5-1,5c1-0.3,2.2,0.1,2.7,1.1c0.5,1,0.7,2,0.5,3.1c0,0.7-0.3,1.4-0.8,2
		c-0.3,0.2-0.6,0.5-0.9,0.8c-0.7,1,0.7,2.2,1.9,2.6"/>
	<path class="st3" d="M168,182.9c1.1-0.9,2.8-0.2,4,0.6s2.6,1.7,4,1.2c0-1.7,0.1-3.4,0.1-5c0-0.3,0-0.6,0.2-0.9
		c0.3-0.2,0.6-0.3,0.9-0.2l3.2,0.1c0.9,1-1.6,2.2-1.2,3.5c0.2,0.6,0.8,0.8,1.3,1.1c4.4,2.4,1.6,7.3-0.4,10
		c-2.3,3.1-2.2,7.4-1.9,11.3c0.1,1.4,0.3,2.9,1.3,3.8s2.6,0.8,3.9,1.2c2.3,0.7,3.9,2.7,6.1,3.8c7.5,3.7,12.5-4.4,10-10.7
		c-1.3-3.3-1.8-2.7-1.1-6.2c0.3-1.5-0.2-3.2,1.3-4.2c1.3-0.8,2.9-0.4,3.7,0.9c0.2,0.3,0.3,0.7,0.4,1.1c0.1,1.9,0.6,3.8-0.2,5.6
		c2.2-0.8,4.9-0.3,7.3-0.3c-0.1,1.8,1.3,3.3,3,3.3c0.5,0,1-0.1,1.5-0.3c-0.1-1.1,0.2-2.6,1.3-2.6c0.3,0,0.6,0.1,0.9,0.3
		c1.1,0.7,2.2,1.6,3.4,2.1c1.9,0.9,7.2,0.5,8.1,3c0.1,0.4,0.1,0.9,0.3,1.4c0.5,0.9,1.5,1.4,2.5,1.1c1-0.3,1.6-1.2,1.8-2.2
		c0.1-0.6,0.1-1.3,0.2-2c0.9-3.4,4.4-0.7,6-1.6c0.8-0.4,3.8-6.2,3.9-6.9c1.5,1.8,3.7,3.4,6.2,3.3c2.7-0.1,3.9-2.3,4.5-4.9
		c0.6-2.8,0.7-6.1,1.3-8.1c0.3-1.1,0.6-2.4-0.1-3.2c-1-1-3-0.6-3.7-1.9c-0.2-0.4-0.3-0.8-0.3-1.3c-0.6-2.7-3.2-4.4-5.9-3.8
		c0,0,0,0,0,0c-0.8-0.5-0.9-1.7-0.9-2.7s-0.5-2.2-1.5-2.3s-1.6,1.4-1.6,2.6c0,1.2,0.2,2.3,0.5,3.4c0.4,0.8,0.5,1.7,0.3,2.5
		c-0.3,0.6-0.7,1.1-1.3,1.4c-1.2,1-2.7,1.6-4.3,1.8c-1.6,0-3.2-1.2-3.3-2.8c0-0.4,0-0.8,0-1.3c-0.2-1.1-1.6-1.4-2.7-1.3
		c-1,0.3-2.1,0.4-3.2,0.4c-1.1-0.2-2-1.6-1.2-2.4c-1.4-0.5-3.5-0.8-4.1,0.7c-0.1,0.5-0.2,1-0.1,1.4c-0.1,3-3.8,7.4-6.4,4.2
		c-1.7-2.1,1.2-5.9-1.8-7.6c-1.4-0.8-3.4-0.1-4.8-0.9c-0.4-0.5,0.3-1.2,1-1.4c2.1-0.5,4.4,0.1,6,1.6c0.9-1.8-0.5-4.3,1-5.6
		s4.3,0.2,5.4-1.4c0.3-0.5,0.4-1,0.4-1.6c0.2-2.7-0.6-7.7,3.2-8.2c0.5,0,0.9-0.1,1.4-0.2c1.3-0.5,1.3-2.4,1.1-3.8
		c-1.4-0.6-3,0.4-4.4,1.2s-3.6,0.9-4.1-0.6c-0.3-1.1,0.5-2.4-0.2-3.3c-0.3-0.4-0.9-0.6-1.2-1c-0.7-1.1,1-2.1,1.3-3.4
		c0.4-1.7-1.9-2.8-3.6-2.6s-3.7,0.7-5.1-0.3c-0.4-0.3-0.8-0.8-1.2-1.1c-1.3-1.1-3.1-1.2-4.8-1.3c-2.7-0.1,3.4-11.2,3.5-11.9
		c0.5-5.2-4.8-7.9-7.9-11.2c-1.5-1.8-2.8-3.8-3.9-5.8c-45.7,18.1-79.5,60-87.1,108.6c-0.4,2.2-0.7,4.4-0.8,6.6
		c3.2-0.9,8.2-3.3,11.4-1.4c4.1,2.5,1.1,8.6,5.9,10.4c1.2,0,0.8-2,1.5-2.9c0.5-0.5,1-0.8,1.7-1c0.6-0.3,1.1-0.9,0.9-1.5
		c1-0.8,2.4,0.2,3.4,1.1c1.1,1.1,2.4,1.9,3.9,2.3c3.1,0.7,6.1-1.6,8.9-3.1c2.4-1.2,4.9-2.1,7.4-2.8c-1.2,0.1-1.9-1.6-1.4-2.8
		c0.6-1.1,1.4-2,2.3-2.8c1.3-1.6,0.3-3.5,1.4-5.2c1.4-2.1,4-3.6,4.2-6.2c0.3-3.1-3.1-5-6-6.1c1.5-3.5,5.6-5.8,5.6-9.6
		c-0.1-1.5-0.6-2.9-1.3-4.1c-1.3-2.7-2.6-5.3-3.9-8c-0.7-1-0.9-2.3-0.8-3.5c0.4-1.4,1.8-2.2,3.1-2.9l4.2-2.1
		c0.6-0.3,1.2-0.5,1.8-0.5c0.7,0.2,1.2,0.6,1.6,1.2c2.3,3,3.4,6.8,3,10.5c5-0.7,9.9-2.1,14.5-4c-0.5,2.9,0.7,6-0.2,8.7"/>
	<path class="st3" d="M284.2,206.4c1.4,0.9,2.3,2.4,2.5,4.1c-0.1,1-0.2,2-0.3,3c-0.2,1,0.3,2.1,1.1,2.7c1.1,0.6,2.5-0.2,3.5-0.9
		c0.9-0.5,1.7-1.3,2-2.3c0-0.8,0-1.5,0-2.3c0.1-1.5,1.5-2.6,2.5-3.7s2-2.8,1.1-4c-0.5-0.8-1.7-1.1-2.3-1.9c-1.5-2,1.2-4.7,0-6.5
		c-1.4-2.1-5-1-6.9,0s-3.4,3.1-4.8,4.8C278.5,204,279.9,203.3,284.2,206.4z"/>
	<path class="st3" d="M337,132.1c-23.5-20.4-56.3-30.9-87.1-31.1h-2.6c-4.1,4.6-6.2,13.3,1.8,14.9c0,0.9-0.5,1.1-0.9,1.8
		c-0.7,1.1,0.5,2.5,1.7,3c3.9,1.6,8.7,1.5,8.1,6.9c-0.8,6.4-3.8,2.3-7.1,4.6c-0.4,0.4-0.8,0.8-1.1,1.3c-1.4,1.6-3.9,1.6-6,1.5
		c0.5-1.3-0.2-2.7-1.4-3.1c-0.1,0-0.1,0-0.2-0.1c-0.5,0-1-0.2-1.5-0.4c-0.9-0.6-0.2-2.2,0.8-2.6s2.2-0.2,3.3-0.6s2-1.6,1.4-2.5
		c-0.3-0.4-0.7-0.6-1.2-0.7c-1.9-0.4-3.9,0.1-5.4,1.5c-0.5-1.3-1.8-1.9-3.1-1.5c-0.8,0.3-1.4,1-1.6,1.9c-0.2,1.5,0.9,3.7-0.5,4.4
		c1.3-0.3,2.6,0.1,3.5,1.1c3.3,3.8,1.3,13.2,9.9,11.6c1.3-0.4,2.7-0.7,4.1-0.9c1.4-0.1,3,0.6,3.4,1.9c1.8-2.6,6.4-2.1,8-4.8
		c0.7-1.4,0.4-3-0.8-4.1c-0.2-0.1-0.4-0.3-0.5-0.5c-0.2-0.5,0.2-1,0.3-1.5c0.1-0.9-0.8-1.6-0.9-2.4c-0.2-1.2,1.2-2,2.4-2.3
		s2.6-0.8,2.9-2c0.1-0.4,0-0.8,0.1-1.2c0.2-0.8,1-1.4,1.9-1.5c0.8-0.1,1.7,0.1,2.5,0.4c0.5,0.5,0.3,1.4-0.2,1.9
		c-0.6,0.5-1.1,0.9-1.6,1.5c-0.2,0.3,0.9,7.6,0.3,7.4c2.6,0.9,8.2,1,7,4.9c-0.4,1.4-1.2,2.8-0.7,4.1c-1.8-0.5-3.7-1-5.5-1.5
		c-0.5,0.6,0.3,1.4,1,1.6s1.6,0.2,2.1,0.7c0.3,0.4,0.4,1,0.4,1.5c0.1,1.7,0.2,3.4,0.3,5.1c0.1,1.8,0.4,3.9,1.9,5
		c1.7,1.2,4.2,0.2,5.6-1.3c0.4-0.4,0.7-0.8,1.2-0.8c0.5,0.1,0.9,0.3,1.2,0.6c1.8,1.7,4.2,2.4,6.6,2c2.3-0.6,4.2-2.9,3.9-5.3
		c-0.1-0.9-0.5-2,0.2-2.6c0.4-0.4,1.1-0.4,1.3-0.9s-0.6-1.1-1.1-1.5c-1-0.8-1.3-2.2-0.8-3.3c0.3-0.6,5.4-2.6,6.1-2.3
		c1.8,0.9,1.5,5.7,1.7,7.6c0,0.7,0.3,1.5,0.8,2c0.9,0.7,2.2,0,2.9-0.9s1.2-2,2.2-2.5c0.6-0.2,1.3-0.4,1.9-0.3c1.3,0,2.8,0,3.8,0.9
		c0.5,0.4,0.7,1,1.1,1.5c1,1,2.7,1,4,0.5s2.5-1.3,3.9-1.7c2.9-0.8,6.3,0.6,9-0.8c1.3-0.7,2.2-2.5,1.2-3.6s-2.8-0.7-3.1-2
		s2.7-2.9,3.2-4c0.4-0.8-0.5-2.4,0.5-3.9C334.3,133.8,336.1,133.4,337,132.1z"/>
	<path class="st3" d="M164.4,333.3c-1.7-1.1-3.5-1.8-4.1-4.1c-0.8-3.1,0.9-4.5,4-3.3c0.3,0.1,0.6,0.2,0.9,0.1
		c0.9-0.3,0.3-1.6-0.3-2.4c-1.3-1.8-1.6-4-0.8-6.1c0.2-0.5-8.6-0.7-9.6-0.1c-3.4,1.9-1.2,9-5.1,7.8c-0.3-2.7-0.1-5.6-0.1-8.3l-4-0.2
		c1,0,0.4-5.1,0.1-5.6c-1.3-2.2-5.4-1.2-5-5.3c0.5-5.2,10.5-6.2,9.3-0.3c3.2,1.1,6.5,1.5,9.9,1.3c0.1,1.1,0.1,2.1,0.2,3.2
		c0.8,0.5,1.7,0.5,2.6,0.2c1.6-2.8,1.3-6.2-0.6-8.8c1.1-1.8-0.2-4-1.6-5.6c3.7-2.7,2.6-9.5-1.7-11s-9.3,3.4-8,7.7
		c-2.1,0.2-4.1,1.2-5.7,2.6c-0.3-5.7-4.3-10.5-9.7-12c-2.7-0.7-5.9-0.6-7.7-2.7c-0.8-0.9-1.2-2.1-2-3.1c-1.7-2.2-4.8-2.6-7.6-2.8
		c-1.8-0.1-3.7-0.1-5.6-0.1c7.7,31.8,26.2,60,52.5,79.6c1,0.1,2,0,2.9-0.4c1.6-0.9,2.1-2.8,2.4-4.6c1.3-6.9,0.6-11.1-5-15.4
		L164.4,333.3z"/>
	<path class="st4" d="M291,343.8c2.6,0.2,3.8,3.5,4.4,6.1c0.8,4,1.6,7.9,2.4,11.9c-4.8,2.3-4.4,8.2-2.2,12.2
		c55.9-19.7,93.4-72.3,93.8-131.5c0-4.7-0.2-9.3-0.6-13.8c-0.1-0.1-0.2-0.1-0.4-0.2c-3.8-1.8-6.9,1.5-9.7,3.3
		c-0.6,0.4-9.1,4.5-9.2,3.4c0.4,3.7,0.2,7.4-0.6,11c0,0.3-0.2,0.5-0.4,0.7c-0.5,0.4-1.2-0.4-1.4-1c-0.5-1.6-0.7-3.3-1.3-4.9
		c-0.5-1.6-1.7-3-3.3-3.6c-1.6-0.5-3.4,0.1-5.1-0.1c-2.1-0.4-3.8-1.7-4.8-3.6c-0.9-1.8-1.6-3.7-2-5.7c-2,4.4-7,1.7-10,5.2
		c-1,1.1-2.1,2.8-3.5,2.2s-1.5-2.8-2.9-2.9c-1-0.1-1.7,0.9-1.9,1.9c0,1-0.1,2-0.4,2.9c-0.7,1.3-2.2,1.8-3.5,1.1c0,0,0,0-0.1,0
		c-1.1-0.6-1.5-2-2.1-3s-2.1-2-3.1-1.2c-0.2,0.2-0.4,0.4-0.5,0.7c-1,1.9,0.1,4.2,1.4,5.8s2.9,3.3,3,5.4c-0.8,0.5-1.9,0.3-2.4-0.5
		c-0.1-0.3-0.3-0.6-0.5-0.8c-0.5-0.5-1.3,0-1.9,0.4c-2.8,1.8-6.3,2.4-9.5,1.7L312,234c-1,0-1.5-0.1-1.9-1.1
		c-3.2,3.1-6.1,6.5-9.7,9.3c-0.5,0.3-0.8,0.7-1,1.2c-0.1,0.6-0.1,1.1,0,1.7c-0.1,1.9-2.6,2.4-4.5,2.3c-0.5,0.3-0.2,1.2,0.3,1.5
		s1.2,0.3,1.7,0.7c0.7,0.7,0.9,1.7,0.5,2.6c-1.1,3.2-4.5,4.9-7.7,3.9c-0.4-0.1-0.7-0.3-0.9-0.6c-0.5-0.7,0-1.6,0.1-2.5
		c0.3-3.3-3.2-2.6-4.9-1.6c-2.2,1.2-3.5,4.5-3.9,6.9c-0.5,2.8-2.6,21.1-8.7,18.5c-0.6-0.3-1-0.7-1.3-1.3c-0.9-1.7-0.8-3.7-1.5-5.4
		s-2.7-3.4-4.3-2.5c-0.7,0.4-1.1,1-1.7,1.5c-1.8,1.1-4.2-0.2-6.2,0.6c-0.8,0.5-1.6,1.1-2.3,1.8c-0.8,0.5-2,0.7-2.6-0.1
		s0.1-2.2-0.4-3.2s-2.2-0.8-2.8,0.2c-0.5,1.1-0.3,2.3,0.5,3.2c0.4,0.4,0.8,0.9,1,1.5c0.2,1-0.8,1.9-1.6,2.5l-4.1,2.9
		c0.2,1,1,1.7,2,1.9c0.9,0.3,1.9,0.2,2.9,0.6c4.5,1.5,4.4,8.1,10.3,6.8c-0.2-1.5,0.9-2.9,2.5-3.1c0.3,0,0.5,0,0.8,0
		c2.1,0.5,3.5,3.6,5.6,3c0.7-0.2,1.3-0.9,2-1c2.1-0.5,3.1,2.7,3.7,4c1.9,4.5-1.1,5-1,9c0,1.8,1.4,3.4,1.7,5.2s-0.3,3.4,0,5
		c0.6,4.6,6.7,1.8,9.4,1.3c-1.5,2.6,0.7,5.8,3.1,7.6c3.6,2.8,3,2.5,3.5,6.5c0.1,1.1,0.7,2,1.7,2.5c1.7,0.6,3.4-1.1,5.3-1.3
		c0.9-0.1,1.8,0.2,2.6,0c2.3-0.4,3.1-3.2,4.6-5c1.3-1.6,3.4-2.4,5.5-2.2c0.2,1.2,0.2,2.4,0,3.5l-3.9,2.4c-1.2,0.6-2.2,1.5-3,2.6
		c-0.3,0.7-0.7,1.3-1.2,1.9c-1.1,1-2.8,0.4-4.3,0.3c-3.6-0.2-9.5,2-12.9,3.1c-3.7,1.2-5,3.8-8.4,5c-0.5,0.3-0.7,0.9-0.5,1.5
		c0,0,0,0.1,0.1,0.1c0.4,0.5,1,0.8,1.6,0.9c1.5,0.3,3,0,4.3-0.7c-1.7,0.9,3.3,5,4.2,5.2c1.5,0.3,3.5-0.8,5-0.9
		c3.7-0.2,5.9,0.5,3.4,4.6c-0.9,1.5-2,3.5-1,5c1-0.3,2.2,0.1,2.7,1.1c0.5,1,0.7,2,0.5,3.1c0,0.7-0.3,1.4-0.8,2
		c-0.3,0.2-0.6,0.5-0.9,0.8c-0.7,1,0.7,2.2,1.9,2.6"/>
	<path class="st4" d="M168,182.9c1.1-0.9,2.8-0.2,4,0.6s2.6,1.7,4,1.2c0-1.7,0.1-3.4,0.1-5c0-0.3,0-0.6,0.2-0.9
		c0.3-0.2,0.6-0.3,0.9-0.2l3.2,0.1c0.9,1-1.6,2.2-1.2,3.5c0.2,0.6,0.8,0.8,1.3,1.1c4.4,2.4,1.6,7.3-0.4,10
		c-2.3,3.1-2.2,7.4-1.9,11.3c0.1,1.4,0.3,2.9,1.3,3.8s2.6,0.8,3.9,1.2c2.3,0.7,3.9,2.7,6.1,3.8c7.5,3.7,12.5-4.4,10-10.7
		c-1.3-3.3-1.8-2.7-1.1-6.2c0.3-1.5-0.2-3.2,1.3-4.2c1.3-0.8,2.9-0.4,3.7,0.9c0.2,0.3,0.3,0.7,0.4,1.1c0.1,1.9,0.6,3.8-0.2,5.6
		c2.2-0.8,4.9-0.3,7.3-0.3c-0.1,1.8,1.3,3.3,3,3.3c0.5,0,1-0.1,1.5-0.3c-0.1-1.1,0.2-2.6,1.3-2.6c0.3,0,0.6,0.1,0.9,0.3
		c1.1,0.7,2.2,1.6,3.4,2.1c1.9,0.9,7.2,0.5,8.1,3c0.1,0.4,0.1,0.9,0.3,1.4c0.5,0.9,1.5,1.4,2.5,1.1c1-0.3,1.6-1.2,1.8-2.2
		c0.1-0.6,0.1-1.3,0.2-2c0.9-3.4,4.4-0.7,6-1.6c0.8-0.4,3.8-6.2,3.9-6.9c1.5,1.8,3.7,3.4,6.2,3.3c2.7-0.1,3.9-2.3,4.5-4.9
		c0.6-2.8,0.7-6.1,1.3-8.1c0.3-1.1,0.6-2.4-0.1-3.2c-1-1-3-0.6-3.7-1.9c-0.2-0.4-0.3-0.8-0.3-1.3c-0.6-2.7-3.2-4.4-5.9-3.8
		c0,0,0,0,0,0c-0.8-0.5-0.9-1.7-0.9-2.7s-0.5-2.2-1.5-2.3s-1.6,1.4-1.6,2.6c0,1.2,0.2,2.3,0.5,3.4c0.4,0.8,0.5,1.7,0.3,2.5
		c-0.3,0.6-0.7,1.1-1.3,1.4c-1.2,1-2.7,1.6-4.3,1.8c-1.6,0-3.2-1.2-3.3-2.8c0-0.4,0-0.8,0-1.3c-0.2-1.1-1.6-1.4-2.7-1.3
		c-1,0.3-2.1,0.4-3.2,0.4c-1.1-0.2-2-1.6-1.2-2.4c-1.4-0.5-3.5-0.8-4.1,0.7c-0.1,0.5-0.2,1-0.1,1.4c-0.1,3-3.8,7.4-6.4,4.2
		c-1.7-2.1,1.2-5.9-1.8-7.6c-1.4-0.8-3.4-0.1-4.8-0.9c-0.4-0.5,0.3-1.2,1-1.4c2.1-0.5,4.4,0.1,6,1.6c0.9-1.8-0.5-4.3,1-5.6
		s4.3,0.2,5.4-1.4c0.3-0.5,0.4-1,0.4-1.6c0.2-2.7-0.6-7.7,3.2-8.2c0.5,0,0.9-0.1,1.4-0.2c1.3-0.5,1.3-2.4,1.1-3.8
		c-1.4-0.6-3,0.4-4.4,1.2s-3.6,0.9-4.1-0.6c-0.3-1.1,0.5-2.4-0.2-3.3c-0.3-0.4-0.9-0.6-1.2-1c-0.7-1.1,1-2.1,1.3-3.4
		c0.4-1.7-1.9-2.8-3.6-2.6s-3.7,0.7-5.1-0.3c-0.4-0.3-0.8-0.8-1.2-1.1c-1.3-1.1-3.1-1.2-4.8-1.3c-2.7-0.1,3.4-11.2,3.5-11.9
		c0.5-5.2-4.8-7.9-7.9-11.2c-1.5-1.8-2.8-3.8-3.9-5.8c-45.7,18.1-79.5,60-87.1,108.6c-0.4,2.2-0.7,4.4-0.8,6.6
		c3.2-0.9,8.2-3.3,11.4-1.4c4.1,2.5,1.1,8.6,5.9,10.4c1.2,0,0.8-2,1.5-2.9c0.5-0.5,1-0.8,1.7-1c0.6-0.3,1.1-0.9,0.9-1.5
		c1-0.8,2.4,0.2,3.4,1.1c1.1,1.1,2.4,1.9,3.9,2.3c3.1,0.7,6.1-1.6,8.9-3.1c2.4-1.2,4.9-2.1,7.4-2.8c-1.2,0.1-1.9-1.6-1.4-2.8
		c0.6-1.1,1.4-2,2.3-2.8c1.3-1.6,0.3-3.5,1.4-5.2c1.4-2.1,4-3.6,4.2-6.2c0.3-3.1-3.1-5-6-6.1c1.5-3.5,5.6-5.8,5.6-9.6
		c-0.1-1.5-0.6-2.9-1.3-4.1c-1.3-2.7-2.6-5.3-3.9-8c-0.7-1-0.9-2.3-0.8-3.5c0.4-1.4,1.8-2.2,3.1-2.9l4.2-2.1
		c0.6-0.3,1.2-0.5,1.8-0.5c0.7,0.2,1.2,0.6,1.6,1.2c2.3,3,3.4,6.8,3,10.5c5-0.7,9.9-2.1,14.5-4c-0.5,2.9,0.7,6-0.2,8.7"/>
	<path class="st5" d="M284.2,206.4c1.4,0.9,2.3,2.4,2.5,4.1c-0.1,1-0.2,2-0.3,3c-0.2,1,0.3,2.1,1.1,2.7c1.1,0.6,2.5-0.2,3.5-0.9
		c0.9-0.5,1.7-1.3,2-2.3c0-0.8,0-1.5,0-2.3c0.1-1.5,1.5-2.6,2.5-3.7s2-2.8,1.1-4c-0.5-0.8-1.7-1.1-2.3-1.9c-1.5-2,1.2-4.7,0-6.5
		c-1.4-2.1-5-1-6.9,0s-3.4,3.1-4.8,4.8C278.5,204,279.9,203.3,284.2,206.4z"/>
	<path class="st4" d="M337,132.1c-23.5-20.4-56.3-30.9-87.1-31.1h-2.6c-4.1,4.6-6.2,13.3,1.8,14.9c0,0.9-0.5,1.1-0.9,1.8
		c-0.7,1.1,0.5,2.5,1.7,3c3.9,1.6,8.7,1.5,8.1,6.9c-0.8,6.4-3.8,2.3-7.1,4.6c-0.4,0.4-0.8,0.8-1.1,1.3c-1.4,1.6-3.9,1.6-6,1.5
		c0.5-1.3-0.2-2.7-1.4-3.1c-0.1,0-0.1,0-0.2-0.1c-0.5,0-1-0.2-1.5-0.4c-0.9-0.6-0.2-2.2,0.8-2.6s2.2-0.2,3.3-0.6s2-1.6,1.4-2.5
		c-0.3-0.4-0.7-0.6-1.2-0.7c-1.9-0.4-3.9,0.1-5.4,1.5c-0.5-1.3-1.8-1.9-3.1-1.5c-0.8,0.3-1.4,1-1.6,1.9c-0.2,1.5,0.9,3.7-0.5,4.4
		c1.3-0.3,2.6,0.1,3.5,1.1c3.3,3.8,1.3,13.2,9.9,11.6c1.3-0.4,2.7-0.7,4.1-0.9c1.4-0.1,3,0.6,3.4,1.9c1.8-2.6,6.4-2.1,8-4.8
		c0.7-1.4,0.4-3-0.8-4.1c-0.2-0.1-0.4-0.3-0.5-0.5c-0.2-0.5,0.2-1,0.3-1.5c0.1-0.9-0.8-1.6-0.9-2.4c-0.2-1.2,1.2-2,2.4-2.3
		s2.6-0.8,2.9-2c0.1-0.4,0-0.8,0.1-1.2c0.2-0.8,1-1.4,1.9-1.5c0.8-0.1,1.7,0.1,2.5,0.4c0.5,0.5,0.3,1.4-0.2,1.9
		c-0.6,0.5-1.1,0.9-1.6,1.5c-0.2,0.3,0.9,7.6,0.3,7.4c2.6,0.9,8.2,1,7,4.9c-0.4,1.4-1.2,2.8-0.7,4.1c-1.8-0.5-3.7-1-5.5-1.5
		c-0.5,0.6,0.3,1.4,1,1.6s1.6,0.2,2.1,0.7c0.3,0.4,0.4,1,0.4,1.5c0.1,1.7,0.2,3.4,0.3,5.1c0.1,1.8,0.4,3.9,1.9,5
		c1.7,1.2,4.2,0.2,5.6-1.3c0.4-0.4,0.7-0.8,1.2-0.8c0.5,0.1,0.9,0.3,1.2,0.6c1.8,1.7,4.2,2.4,6.6,2c2.3-0.6,4.2-2.9,3.9-5.3
		c-0.1-0.9-0.5-2,0.2-2.6c0.4-0.4,1.1-0.4,1.3-0.9s-0.6-1.1-1.1-1.5c-1-0.8-1.3-2.2-0.8-3.3c0.3-0.6,5.4-2.6,6.1-2.3
		c1.8,0.9,1.5,5.7,1.7,7.6c0,0.7,0.3,1.5,0.8,2c0.9,0.7,2.2,0,2.9-0.9s1.2-2,2.2-2.5c0.6-0.2,1.3-0.4,1.9-0.3c1.3,0,2.8,0,3.8,0.9
		c0.5,0.4,0.7,1,1.1,1.5c1,1,2.7,1,4,0.5s2.5-1.3,3.9-1.7c2.9-0.8,6.3,0.6,9-0.8c1.3-0.7,2.2-2.5,1.2-3.6s-2.8-0.7-3.1-2
		s2.7-2.9,3.2-4c0.4-0.8-0.5-2.4,0.5-3.9C334.3,133.8,336.1,133.4,337,132.1z"/>
	<path class="st4" d="M164.4,333.3c-1.7-1.1-3.5-1.8-4.1-4.1c-0.8-3.1,0.9-4.5,4-3.3c0.3,0.1,0.6,0.2,0.9,0.1
		c0.9-0.3,0.3-1.6-0.3-2.4c-1.3-1.8-1.6-4-0.8-6.1c0.2-0.5-8.6-0.7-9.6-0.1c-3.4,1.9-1.2,9-5.1,7.8c-0.3-2.7-0.1-5.6-0.1-8.3l-4-0.2
		c1,0,0.4-5.1,0.1-5.6c-1.3-2.2-5.4-1.2-5-5.3c0.5-5.2,10.5-6.2,9.3-0.3c3.2,1.1,6.5,1.5,9.9,1.3c0.1,1.1,0.1,2.1,0.2,3.2
		c0.8,0.5,1.7,0.5,2.6,0.2c1.6-2.8,1.3-6.2-0.6-8.8c1.1-1.8-0.2-4-1.6-5.6c3.7-2.7,2.6-9.5-1.7-11s-9.3,3.4-8,7.7
		c-2.1,0.2-4.1,1.2-5.7,2.6c-0.3-5.7-4.3-10.5-9.7-12c-2.7-0.7-5.9-0.6-7.7-2.7c-0.8-0.9-1.2-2.1-2-3.1c-1.7-2.2-4.8-2.6-7.6-2.8
		c-1.8-0.1-3.7-0.1-5.6-0.1c7.7,31.8,26.2,60,52.5,79.6c1,0.1,2,0,2.9-0.4c1.6-0.9,2.1-2.8,2.4-4.6c1.3-6.9,0.6-11.1-5-15.4
		L164.4,333.3z"/>
	<path class="st6" d="M83.2,166.8c0-4.5,3.6-8.1,8.1-8.1c0.8,0,1.6,0.1,2.4,0.3c-1.4-9.4,5.1-18.1,14.6-19.5
		c0.8-0.1,1.6-0.2,2.4-0.2c1.1,0,2.1,0.1,3.2,0.3c4.3-7.1,13.5-9.4,20.6-5.2c4.5,2.7,7.3,7.5,7.3,12.8h0.2
		c7.7,0.2,13.7,6.6,13.5,14.2c-0.2,7.4-6.1,13.3-13.5,13.5H91.1l0,0C86.7,174.8,83.2,171.2,83.2,166.8z"/>
	<path class="st6" d="M358.2,192.8c0-3.9,3.1-7,7-7c0.7,0,1.4,0.1,2,0.3c-0.1-0.7-0.2-1.4-0.2-2.1c0-8.1,6.6-14.8,14.8-14.8l0,0
		c0.9,0,1.8,0.1,2.7,0.2c3.7-6.1,11.6-8,17.7-4.3c3.8,2.3,6.1,6.4,6.2,10.8h0.2c6.6,0,11.9,5.3,11.9,11.9c0,6.6-5.3,11.9-11.9,11.9
		H365C361.2,199.7,358.2,196.6,358.2,192.8z"/>
	<path class="st6" d="M200.1,256.3c0-4.5,3.6-8.1,8.1-8.1c0.8,0,1.6,0.1,2.3,0.3c-0.1-0.8-0.2-1.7-0.2-2.5c0-9.5,7.7-17.2,17.2-17.2
		l0,0c1.1,0,2.1,0.1,3.2,0.3c4.3-7.1,13.5-9.4,20.6-5.2c4.5,2.7,7.3,7.5,7.3,12.8h0.2c7.6,0,13.9,6.2,13.9,13.9
		c0,7.6-6.2,13.9-13.9,13.9H208C203.6,264.3,200.1,260.7,200.1,256.3z"/>
	<path class="st6" d="M74.7,331.7c0-3.1,2.5-5.6,5.6-5.6c0.5,0,1.1,0.1,1.6,0.2c-0.1-0.6-0.1-1.2-0.1-1.7c0-6.6,5.3-11.9,11.9-11.9
		c0.7,0,1.5,0.1,2.2,0.2c3-4.9,9.4-6.5,14.3-3.5c3.1,1.9,4.9,5.2,5,8.7h0.2c5.3-0.2,9.7,4,9.9,9.3c0.2,5.3-4,9.7-9.3,9.9
		c-0.2,0-0.4,0-0.6,0H80.2C77.2,337.3,74.7,334.8,74.7,331.7z"/>
	<path class="st6" d="M378.2,335.8c0-2.9,2.4-5.3,5.3-5.3c0,0,0,0,0,0c0.5,0,1,0.1,1.5,0.2c-0.1-0.5-0.1-1.1-0.1-1.6
		c0-6.1,5-11.1,11.2-11.1c0.7,0,1.4,0.1,2,0.2c2.8-4.6,8.8-6.1,13.4-3.3c2.9,1.7,4.6,4.8,4.7,8.2h0.2c5,0,9,4,9,9s-4,9-9,9h-33
		C380.4,341,378.1,338.7,378.2,335.8z"/>
	<path class="st1" d="M418.4,291c-0.1,0-0.2,0-0.3-0.1c-0.5-0.2-0.7-0.7-0.6-1.2c6.3-16.7-5-39.1-32-63
		c-27.2-24.1-66.9-46.8-111.9-63.8c-92.5-35.1-178.6-35.3-191.8-0.4c-0.2,0.5-0.7,0.7-1.2,0.6c-0.5-0.2-0.7-0.7-0.6-1.2
		c6.6-17.5,30.6-27.2,67.5-27.2h0.1c36.5,0,81.5,9.4,126.6,26.5s85.1,39.9,112.5,64.1c27.6,24.5,39.1,47.6,32.5,65.1
		C419.1,290.7,418.8,291,418.4,291z"/>
	<path class="st1" d="M142.3,376.8c-0.2,0-0.4-0.1-0.6-0.2c-15-11.1-17.8-36.8-7.9-72.3c9.9-35.2,31.2-76,59.9-114.8
		s61.5-71.1,92.3-90.8c31-19.9,56.4-24.8,71.5-13.6c0.3,0.4,0.2,1.1-0.2,1.4c-0.3,0.2-0.6,0.3-0.9,0.1
		c-29.9-22.2-102.2,24.5-161.1,104.1S113,352.9,142.9,375.1c0.4,0.4,0.4,1,0.1,1.4C142.8,376.7,142.6,376.8,142.3,376.8L142.3,376.8
		z"/>
</g>
<g id="freepik--Book--inject-122">
	<path class="st7" d="M272.2,164.8c0,0-88.5-13.8-135.4-7v187c0,0,98.3-8.5,130.2,2.2l5.2-3.6V164.8z"/>
	<path class="st8" d="M272.2,164.8c0,0-88.5-13.8-135.4-7v187c0,0,98.3-8.5,130.2,2.2l5.2-3.6V164.8z"/>
	<path class="st7" d="M272.2,164.8c0,0,88.5-13.8,135.4-7v187c0,0-98.3-8.5-130.2,2.2l-5.2-3.6V164.8z"/>
	<path class="st8" d="M272.2,164.8c0,0,88.5-13.8,135.4-7v187c0,0-98.3-8.5-130.2,2.2l-5.2-3.6V164.8z"/>
	<path class="st9" d="M272.2,343.9V165.4c0,0-48-26.5-131.4-10.3v185.6C140.8,340.7,212.7,328.7,272.2,343.9z"/>
	<path class="st10" d="M272.2,343.9V165.4c0,0-48-26.5-131.4-10.3v185.6C140.8,340.7,212.7,328.7,272.2,343.9z"/>
	<path class="st9" d="M272.2,343.9V165.4c0,0-47.2-28.8-129.1-16.4v185.6C143.1,334.6,213.7,325.9,272.2,343.9z"/>
	<path class="st11" d="M272.2,343.9V165.4c0,0-47.2-28.8-129.1-16.4v185.6C143.1,334.6,213.7,325.9,272.2,343.9z"/>
	<path class="st9" d="M272.2,343.9V165.3c0,0-46.8-30.3-126.8-20.6v185.6C145.4,330.3,215.1,323.9,272.2,343.9z"/>
	<path class="st10" d="M272.2,343.9V165.3c0,0-46.8-30.3-126.8-20.6v185.6C145.4,330.3,215.1,323.9,272.2,343.9z"/>
	<path class="st12" d="M272.2,343.3V164.8c0,0-45.6-31.2-124.2-23.2v185.6C148,327.2,216.1,322.2,272.2,343.3z"/>
	<path class="st10" d="M272.2,343.9V165.4c0,0,48-26.5,131.3-10.3v185.6C403.5,340.7,331.7,328.7,272.2,343.9z"/>
	<path class="st9" d="M272.2,343.9V165.4c0,0,47.2-28.8,129.1-16.4v185.6C401.3,334.6,330.7,325.9,272.2,343.9z"/>
	<path class="st11" d="M272.2,343.9V165.4c0,0,47.2-28.8,129.1-16.4v185.6C401.3,334.6,330.7,325.9,272.2,343.9z"/>
	<path class="st10" d="M272.2,343.9V165.3c0,0,46.8-30.3,126.8-20.6v185.6C399,330.3,329.2,323.9,272.2,343.9z"/>
	<path class="st12" d="M272.2,343.3V164.8c0,0,45.6-31.2,124.2-23.2v185.6C396.4,327.2,328.3,322.2,272.2,343.3z"/>
	<path class="st13" d="M309.7,276.2c-6.4-6.4-16.8-6.4-23.2,0s-6.4,16.8,0,23.2l11.6,11.6l11.6-11.6
		C316.1,293,316.2,282.7,309.7,276.2C309.8,276.3,309.7,276.2,309.7,276.2z M303.5,293.1c-3,3-7.8,3-10.7,0c-3-3-3-7.8,0-10.7
		c3-3,7.8-3,10.7,0c0,0,0,0,0,0C306.5,285.4,306.5,290.2,303.5,293.1z"/>
	<path class="st14" d="M292.8,282.5c-3,3-3,7.8,0,10.7c1.4,1.4,3.3,2.2,5.4,2.2V311l-11.6-11.6c-6.4-6.4-6.5-16.7-0.1-23.2
		c3.1-3.1,7.3-4.8,11.7-4.8v8.8C296.1,280.2,294.2,281,292.8,282.5z"/>
	<path class="st13" d="M379.9,161.7c-6.7-6.8-17.7-6.9-24.5-0.2c-6.8,6.7-6.9,17.7-0.2,24.5c0.1,0.1,0.1,0.1,0.2,0.2l12.2,12.2
		l12.2-12.2C386.5,179.4,386.4,168.5,379.9,161.7z M373.3,179.6c-3.1,3.1-8.2,3.1-11.3,0c-3.1-3.1-3.1-8.2,0-11.3s8.2-3.1,11.3,0
		c0,0,0,0,0,0C376.4,171.4,376.4,176.5,373.3,179.6z"/>
	<path class="st14" d="M362,168.3c-3.1,3.1-3.1,8.2,0,11.3c1.5,1.5,3.5,2.3,5.6,2.3v16.5l-12.2-12.2c-6.8-6.8-6.7-17.7,0-24.5
		c3.2-3.2,7.6-5.1,12.2-5.1v9.3C365.5,165.9,363.5,166.8,362,168.3z"/>
	<path class="st13" d="M329.6,317.2h-0.9c-0.3,0-0.5-0.2-0.5-0.5s0.2-0.5,0.5-0.5h1.9c0.3,0,0.5,0.2,0.5,0.4c0,0,0,0,0,0.1
		c0,0.3-0.2,0.5-0.5,0.5c0,0,0,0,0,0L329.6,317.2z M323.8,317L323.8,317l-2-0.1c-0.3,0-0.5-0.3-0.5-0.5c0-0.3,0.3-0.5,0.5-0.5l0,0
		l1.9,0.1c0.3,0,0.5,0.2,0.5,0.5S324.1,317,323.8,317L323.8,317L323.8,317z M335.5,317c-0.3,0-0.5-0.2-0.5-0.5s0.2-0.5,0.5-0.5
		l1.9-0.2c0.3,0,0.5,0.2,0.6,0.4c0,0.3-0.2,0.5-0.5,0.6L335.5,317L335.5,317z M317,316.3L317,316.3l-2-0.3c-0.3,0-0.4-0.3-0.4-0.5
		c0-0.3,0.3-0.4,0.5-0.4c0.6,0.1,1.3,0.2,1.9,0.3c0.3,0,0.5,0.3,0.4,0.5c0,0,0,0,0,0C317.5,316.1,317.3,316.3,317,316.3z
		 M342.2,316.1c-0.3,0-0.5-0.2-0.5-0.5c0-0.3,0.2-0.5,0.5-0.5l0,0c0.6-0.1,1.3-0.2,1.9-0.4c0.3-0.1,0.5,0,0.6,0.3
		c0.1,0.3,0,0.5-0.3,0.6c0,0-0.1,0-0.1,0L342.2,316.1L342.2,316.1z M310.3,315.3L310.3,315.3l-2-0.4c-0.3,0-0.4-0.3-0.4-0.6
		c0,0,0,0,0,0c0.1-0.3,0.3-0.4,0.6-0.4c0.6,0.1,1.3,0.2,1.9,0.4c0.3,0,0.5,0.3,0.5,0.5C310.8,315.1,310.6,315.3,310.3,315.3
		L310.3,315.3L310.3,315.3z M348.8,314.4c-0.3,0-0.5-0.2-0.5-0.5c0-0.2,0.1-0.4,0.3-0.4c0.6-0.2,1.2-0.4,1.8-0.6
		c0.2-0.1,0.5,0,0.6,0.3c0,0,0,0,0,0c0.1,0.3,0,0.5-0.3,0.6l-1.9,0.6L348.8,314.4z M303.6,313.9h-0.1l-1.9-0.4
		c-0.3-0.1-0.4-0.3-0.4-0.6c0.1-0.3,0.3-0.4,0.6-0.4l1.9,0.4c0.3,0.1,0.4,0.3,0.4,0.6c0,0,0,0,0,0
		C304,313.8,303.8,313.9,303.6,313.9L303.6,313.9z M355.1,311.9c-0.2,0-0.4-0.1-0.4-0.3c-0.1-0.2,0-0.5,0.2-0.6c0,0,0,0,0,0
		c0.6-0.3,1.2-0.6,1.7-0.9c0.2-0.1,0.5,0,0.6,0.2c0,0,0,0,0,0c0.1,0.2,0,0.5-0.2,0.7c-0.6,0.3-1.2,0.6-1.8,0.9
		C355.3,311.9,355.2,312,355.1,311.9L355.1,311.9z M361,308.6c-0.2,0-0.3-0.1-0.4-0.2c-0.1-0.2-0.1-0.5,0.1-0.7c0,0,0,0,0,0
		c0.5-0.4,1.1-0.7,1.6-1.1c0.2-0.2,0.5-0.1,0.7,0.1c0.2,0.2,0.1,0.5-0.1,0.7l0,0c-0.5,0.4-1.1,0.8-1.6,1.1
		C361.3,308.6,361.2,308.6,361,308.6L361,308.6z M366.4,304.4c-0.3,0-0.5-0.2-0.5-0.5c0-0.1,0.1-0.3,0.2-0.4
		c0.5-0.4,0.9-0.9,1.4-1.3c0.2-0.2,0.5-0.2,0.7,0c0.2,0.2,0.2,0.5,0,0.7c-0.5,0.5-1,0.9-1.4,1.4
		C366.7,304.4,366.6,304.5,366.4,304.4L366.4,304.4z M371.1,299.5c-0.1,0-0.2,0-0.3-0.1c-0.2-0.2-0.2-0.5-0.1-0.7c0,0,0,0,0,0
		c0.4-0.5,0.8-1,1.2-1.5c0.2-0.2,0.5-0.2,0.7-0.1c0,0,0,0,0,0c0.2,0.2,0.2,0.5,0.1,0.7c0,0,0,0,0,0c-0.4,0.5-0.8,1-1.2,1.5
		C371.4,299.5,371.3,299.5,371.1,299.5L371.1,299.5z M375.1,294c-0.1,0-0.2,0-0.3-0.1c-0.2-0.1-0.3-0.4-0.1-0.7
		c0.3-0.5,0.7-1.1,1-1.6c0.1-0.2,0.4-0.3,0.7-0.2c0.2,0.1,0.3,0.4,0.2,0.7c-0.3,0.6-0.7,1.1-1,1.7C375.5,293.9,375.3,294,375.1,294
		L375.1,294z M378.4,288c-0.1,0-0.1,0-0.2,0c-0.2-0.1-0.3-0.4-0.2-0.6l0.3-0.6l0.5-1.2c0.1-0.2,0.4-0.4,0.6-0.3s0.4,0.4,0.3,0.6
		l-0.5,1.2l-0.3,0.6C378.8,288,378.6,288.1,378.4,288L378.4,288z M380.9,281.7h-0.1c-0.3-0.1-0.4-0.4-0.3-0.6
		c0.2-0.6,0.4-1.2,0.5-1.9c0-0.3,0.3-0.4,0.6-0.4c0.3,0,0.4,0.3,0.4,0.6c0,0,0,0.1,0,0.1c-0.2,0.6-0.4,1.3-0.6,1.9
		C381.3,281.6,381.1,281.7,380.9,281.7L380.9,281.7z M382.5,275.1L382.5,275.1c-0.3,0-0.5-0.3-0.5-0.6c0.1-0.6,0.2-1.3,0.3-1.9
		c0-0.3,0.3-0.5,0.5-0.4c0.3,0,0.4,0.3,0.4,0.5c-0.1,0.6-0.2,1.3-0.3,2C383,274.9,382.8,275.1,382.5,275.1L382.5,275.1z
		 M383.1,268.3L383.1,268.3c-0.3,0-0.5-0.2-0.5-0.5c0,0,0,0,0,0v-0.4c0-0.5,0-1,0-1.5c0-0.3,0.2-0.5,0.4-0.5c0,0,0,0,0,0
		c0.3,0,0.5,0.2,0.5,0.5c0,0.5,0,1,0,1.5v0.4C383.6,268.1,383.5,268.3,383.1,268.3C383.2,268.4,383.1,268.4,383.1,268.3L383.1,268.3
		z M382.6,261.5c-0.2,0-0.4-0.2-0.5-0.4c-0.1-0.7-0.2-1.3-0.4-1.9c-0.1-0.3,0.1-0.5,0.4-0.6c0,0,0,0,0,0c0.3-0.1,0.5,0.1,0.6,0.4
		c0.1,0.6,0.3,1.3,0.4,1.9C383.1,261.2,382.9,261.5,382.6,261.5C382.7,261.5,382.7,261.5,382.6,261.5L382.6,261.5z M380.9,255
		c-0.2,0-0.4-0.1-0.5-0.3c-0.2-0.6-0.5-1.2-0.7-1.8c-0.1-0.2,0-0.5,0.2-0.6c0.2-0.1,0.5,0,0.6,0.2c0,0,0,0,0,0
		c0.3,0.6,0.5,1.2,0.8,1.8c0.1,0.3,0,0.5-0.3,0.6C381,255,380.9,255,380.9,255z M377.8,249c-0.2,0-0.3-0.1-0.4-0.2
		c-0.4-0.5-0.7-1.1-1.1-1.6c-0.2-0.2-0.1-0.5,0.1-0.7c0.2-0.2,0.5-0.1,0.7,0.1c0,0,0,0,0,0c0.4,0.5,0.8,1.1,1.2,1.6
		c0.1,0.2,0.1,0.5-0.1,0.7c0,0,0,0,0,0C377.9,249,377.8,249,377.8,249z M315,248.6h-1c-0.3,0-0.5-0.2-0.5-0.5s0.2-0.5,0.5-0.5
		c0.6,0,1.3,0,1.9,0c0.3,0,0.5,0.2,0.5,0.5c0,0.3-0.2,0.5-0.5,0.5c0,0,0,0,0,0L315,248.6z M320.8,248c-0.3,0-0.5-0.2-0.5-0.5
		c0-0.3,0.2-0.5,0.5-0.5c0.6-0.1,1.2-0.3,1.9-0.4c0.3-0.1,0.5,0.1,0.6,0.4c0.1,0.3-0.1,0.5-0.3,0.6c0,0,0,0,0,0
		C322.1,247.7,321.5,247.8,320.8,248L320.8,248z M309.2,248h-0.1c-0.6-0.1-1.3-0.3-1.9-0.5c-0.3-0.1-0.4-0.4-0.3-0.6
		c0.1-0.2,0.3-0.3,0.5-0.3c0.6,0.2,1.2,0.3,1.9,0.4c0.3,0,0.4,0.3,0.4,0.5c0,0,0,0,0,0C309.6,247.8,309.4,248,309.2,248L309.2,248z
		 M327.2,246c-0.2,0-0.4-0.1-0.5-0.3c-0.1-0.3,0-0.5,0.3-0.6c0,0,0,0,0,0c0.6-0.2,1.2-0.5,1.8-0.8c0.2-0.1,0.5,0,0.6,0.2
		c0.1,0.2,0,0.5-0.2,0.6c0,0,0,0,0,0c-0.6,0.3-1.2,0.5-1.8,0.8C327.4,246,327.3,246,327.2,246L327.2,246z M302.7,245.9
		c-0.1,0-0.1,0-0.2-0.1c-0.6-0.3-1.2-0.6-1.8-0.9c-0.2-0.1-0.3-0.4-0.2-0.7c0.1-0.2,0.4-0.3,0.7-0.2c0,0,0,0,0,0
		c0.5,0.3,1.1,0.6,1.7,0.9c0.2,0.1,0.3,0.4,0.2,0.6C303.1,245.8,302.9,245.9,302.7,245.9L302.7,245.9z M373.3,243.9
		c-0.1,0-0.2,0-0.3-0.1c-0.5-0.4-1-0.8-1.5-1.2c-0.2-0.2-0.3-0.5-0.1-0.7c0,0,0,0,0,0c0.2-0.2,0.5-0.3,0.7-0.1
		c0.5,0.4,1,0.8,1.5,1.3c0.2,0.2,0.2,0.5,0,0.7C373.5,243.8,373.4,243.8,373.3,243.9L373.3,243.9z M333.4,243.2
		c-0.3,0-0.5-0.2-0.5-0.5c0-0.2,0.1-0.4,0.3-0.4l1.7-0.9c0.2-0.1,0.5-0.1,0.7,0.1c0.1,0.2,0.1,0.5-0.1,0.7c0,0-0.1,0-0.1,0l-1.7,0.9
		C333.6,243.2,333.5,243.2,333.4,243.2L333.4,243.2z M297,242.2c-0.1,0-0.2,0-0.3-0.1c-0.5-0.4-1-0.9-1.5-1.3
		c-0.2-0.2-0.2-0.5,0-0.7c0.2-0.2,0.5-0.2,0.7,0c0,0,0,0,0,0c0.5,0.4,0.9,0.9,1.4,1.3c0.2,0.2,0.2,0.5,0.1,0.7c0,0,0,0,0,0
		C297.3,242.2,297.1,242.3,297,242.2z M339.6,240.1c-0.2,0-0.4-0.1-0.5-0.3c-0.1-0.2,0-0.5,0.2-0.6c0.6-0.3,1.2-0.5,1.8-0.8
		c0.2-0.1,0.5,0,0.6,0.3c0,0,0,0,0,0c0.1,0.3,0,0.5-0.3,0.6c0,0,0,0,0,0c-0.6,0.2-1.2,0.5-1.8,0.8
		C339.7,240.1,339.6,240.1,339.6,240.1L339.6,240.1z M367.7,240c-0.1,0-0.2,0-0.2-0.1c-0.6-0.3-1.1-0.6-1.7-0.8
		c-0.2-0.1-0.4-0.4-0.3-0.6c0,0,0,0,0,0c0.1-0.2,0.4-0.4,0.6-0.3c0,0,0,0,0,0c0.6,0.3,1.2,0.5,1.8,0.9c0.2,0.1,0.3,0.4,0.2,0.6
		C368.1,239.9,367.9,240,367.7,240z M346,237.9c-0.3,0-0.5-0.2-0.6-0.4s0.2-0.5,0.4-0.6c0.6-0.2,1.3-0.3,1.9-0.4
		c0.3-0.1,0.5,0.1,0.6,0.4c0,0,0,0,0,0c0,0.3-0.1,0.5-0.4,0.6c-0.6,0.1-1.2,0.3-1.9,0.4C346.1,237.8,346,237.9,346,237.9z
		 M361.4,237.6h-0.1c-0.6-0.1-1.2-0.3-1.9-0.4c-0.3,0-0.4-0.3-0.4-0.5c0,0,0,0,0,0c0-0.3,0.3-0.4,0.6-0.4c0.6,0.1,1.3,0.2,1.9,0.4
		c0.3,0.1,0.4,0.3,0.4,0.6C361.8,237.5,361.6,237.6,361.4,237.6L361.4,237.6z M292.4,237.3c-0.2,0-0.3-0.1-0.4-0.2
		c-0.4-0.5-0.8-1.1-1.1-1.6c-0.1-0.2-0.1-0.5,0.2-0.7c0.2-0.1,0.5-0.1,0.7,0.1c0.3,0.5,0.7,1.1,1.1,1.6c0.1,0.2,0.1,0.5-0.1,0.7
		C292.6,237.3,292.5,237.3,292.4,237.3L292.4,237.3z M352.7,236.8c-0.3,0-0.5-0.2-0.5-0.5s0.2-0.5,0.5-0.5c0.5,0,1.1,0,1.6,0h0.3
		c0.3,0,0.5,0.2,0.5,0.5c0,0.3-0.2,0.5-0.5,0.5h-0.3C353.8,236.8,353.3,236.8,352.7,236.8L352.7,236.8z M289.1,231.3
		c-0.2,0-0.4-0.1-0.5-0.3c-0.3-0.6-0.5-1.2-0.7-1.8c-0.1-0.3,0-0.5,0.3-0.6c0.3-0.1,0.5,0,0.6,0.3c0.2,0.6,0.5,1.2,0.7,1.8
		c0.1,0.2,0,0.5-0.3,0.6C289.2,231.3,289.2,231.4,289.1,231.3L289.1,231.3z M287.1,224.8c-0.2,0-0.4-0.2-0.5-0.4
		c-0.1-0.6-0.2-1.3-0.3-1.9c0-0.3,0.1-0.5,0.4-0.6c0.3,0,0.5,0.1,0.5,0.4c0,0,0,0,0,0c0.1,0.6,0.2,1.3,0.3,1.9
		C287.6,224.5,287.5,224.8,287.1,224.8L287.1,224.8z M286.4,218.1c-0.3,0-0.5-0.2-0.5-0.5v-0.7c0-0.4,0-0.8,0-1.2
		c0-0.3,0.2-0.5,0.5-0.5s0.5,0.2,0.5,0.5c0,0.4,0,0.8,0,1.2c0,0.2,0,0.5,0,0.7C286.9,217.8,286.7,218.1,286.4,218.1L286.4,218.1z
		 M353.3,218c-0.3,0-0.5-0.2-0.5-0.5c0-0.2,0.2-0.5,0.4-0.5c0,0,0,0,0,0h0.1c0.6,0,1.2,0,1.8-0.1c0.3,0,0.5,0.2,0.5,0.4c0,0,0,0,0,0
		c0,0.3-0.2,0.5-0.5,0.5C354.5,218,353.9,218,353.3,218L353.3,218z M348.3,217.5h-0.1H348c-0.6-0.1-1.2-0.3-1.7-0.5
		c-0.3,0-0.4-0.3-0.4-0.6s0.3-0.4,0.6-0.4c0,0,0.1,0,0.1,0c0.5,0.2,1.1,0.3,1.7,0.4h0.2c0.3,0,0.5,0.3,0.5,0.6
		C348.9,217.4,348.6,217.6,348.3,217.5L348.3,217.5z M359.9,217c-0.3,0-0.5-0.1-0.5-0.4c0-0.3,0.1-0.5,0.4-0.5
		c0.6-0.2,1.2-0.4,1.8-0.6c0.2-0.1,0.5,0,0.7,0.2c0.1,0.2,0,0.5-0.2,0.7c0,0,0,0-0.1,0c-0.6,0.3-1.3,0.5-1.9,0.7
		C360,217,359.9,217,359.9,217L359.9,217z M342,215.1c-0.1,0-0.2,0-0.2-0.1c-0.6-0.3-1.1-0.7-1.7-1.1c-0.2-0.1-0.3-0.4-0.2-0.7
		c0.1-0.2,0.4-0.3,0.7-0.2c0,0,0,0,0.1,0c0.5,0.4,1.1,0.7,1.6,1c0.2,0.1,0.3,0.4,0.2,0.7C342.3,215,342.2,215.1,342,215.1z
		 M365.9,213.9c-0.1,0-0.3-0.1-0.4-0.2c-0.2-0.2-0.2-0.5,0-0.7c0.5-0.4,0.9-0.9,1.3-1.3c0.2-0.2,0.5-0.2,0.7,0
		c0.1,0.2,0.2,0.4,0,0.6c-0.4,0.5-0.9,1-1.4,1.4C366.1,213.8,366,213.9,365.9,213.9L365.9,213.9z M286.8,211.3L286.8,211.3
		c-0.3,0-0.5-0.3-0.5-0.6c0.1-0.6,0.2-1.3,0.3-1.9c0-0.3,0.3-0.4,0.6-0.4c0,0,0,0,0,0c0.3,0.1,0.4,0.3,0.4,0.6
		c-0.1,0.6-0.2,1.3-0.3,1.9C287.3,211.1,287,211.3,286.8,211.3L286.8,211.3z M336.8,210.8c-0.1,0-0.3-0.1-0.4-0.2
		c-0.4-0.5-0.8-1-1.2-1.6c-0.1-0.2,0-0.5,0.2-0.7c0.2-0.1,0.5-0.1,0.6,0.1c0.3,0.5,0.7,1,1.1,1.5c0.2,0.2,0.1,0.5-0.1,0.7
		c0,0,0,0,0,0C337,210.8,336.9,210.8,336.8,210.8L336.8,210.8z M369.5,208.2c0,0-0.1,0-0.1,0c-0.3-0.1-0.4-0.3-0.4-0.6c0,0,0,0,0,0
		c0.2-0.6,0.3-1.2,0.3-1.8c0-0.3,0.2-0.5,0.5-0.4c0,0,0,0,0,0c0.3,0,0.5,0.3,0.4,0.5c0,0,0,0,0,0c-0.1,0.7-0.2,1.3-0.3,2
		C369.9,208.1,369.7,208.2,369.5,208.2L369.5,208.2z M333.5,204.9c-0.2,0-0.4-0.1-0.5-0.3c-0.2-0.6-0.4-1.2-0.6-1.9
		c-0.1-0.3,0.1-0.5,0.3-0.6c0,0,0,0,0,0c0.3-0.1,0.5,0.1,0.6,0.3c0,0,0,0,0,0c0.2,0.6,0.4,1.2,0.6,1.8c0.1,0.3,0,0.5-0.3,0.6
		C333.6,204.9,333.5,204.9,333.5,204.9L333.5,204.9z M288.2,204.7h-0.1c-0.3-0.1-0.4-0.3-0.3-0.6c0,0,0,0,0,0
		c0.2-0.6,0.4-1.2,0.6-1.9c0.1-0.3,0.4-0.4,0.6-0.3c0,0,0,0,0,0c0.3,0.1,0.4,0.4,0.3,0.6c0,0,0,0,0,0c-0.2,0.6-0.4,1.2-0.6,1.8
		C288.6,204.5,288.4,204.7,288.2,204.7L288.2,204.7z M331.6,198.3c-0.2,0-0.4-0.1-0.5-0.4c-0.2-0.6-0.3-1.2-0.5-1.9
		c-0.1-0.3,0.1-0.5,0.3-0.6c0,0,0,0,0,0c0.3-0.1,0.5,0.1,0.6,0.3c0.2,0.6,0.3,1.3,0.5,1.9c0.1,0.3-0.1,0.5-0.3,0.6c0,0,0,0,0,0
		L331.6,198.3z M290.7,198.3c-0.1,0-0.1,0-0.2,0c-0.2-0.1-0.3-0.4-0.2-0.6c0,0,0,0,0,0c0.3-0.6,0.6-1.2,0.9-1.8
		c0.1-0.2,0.4-0.3,0.7-0.2c0.2,0.1,0.3,0.4,0.2,0.7c-0.3,0.6-0.6,1.1-0.9,1.7C291,198.3,290.9,198.3,290.7,198.3L290.7,198.3z
		 M294.2,192.5c-0.1,0-0.2,0-0.3-0.1c-0.2-0.2-0.3-0.5-0.1-0.7c0,0,0,0,0,0c0.4-0.5,0.8-1,1.2-1.5c0.2-0.2,0.5-0.2,0.7,0
		c0.2,0.2,0.2,0.5,0,0.7c-0.4,0.5-0.8,1-1.2,1.5C294.5,192.5,294.4,192.5,294.2,192.5L294.2,192.5z M329.6,191.8
		c-0.2,0-0.4-0.1-0.5-0.3c-0.2-0.6-0.5-1.1-0.8-1.7c-0.1-0.2,0-0.5,0.2-0.7c0.2-0.1,0.5-0.1,0.7,0.2c0,0,0,0,0,0
		c0.3,0.6,0.6,1.2,0.9,1.8c0.1,0.2,0,0.5-0.3,0.6C329.7,191.8,329.6,191.8,329.6,191.8L329.6,191.8z M299,187.6
		c-0.3,0-0.5-0.2-0.5-0.5c0-0.2,0.1-0.3,0.2-0.4c0.5-0.4,1-0.8,1.6-1.2c0.2-0.2,0.5-0.1,0.7,0.1c0.2,0.2,0.1,0.5-0.1,0.7
		c-0.5,0.4-1,0.7-1.5,1.1C299.2,187.6,299.1,187.6,299,187.6L299,187.6z M325.8,186.3c-0.1,0-0.2,0-0.3-0.1
		c-0.5-0.4-0.9-0.8-1.4-1.1c-0.2-0.1-0.3-0.4-0.2-0.7c0.1-0.2,0.4-0.3,0.7-0.2c0,0,0,0,0.1,0c0.6,0.4,1.1,0.8,1.6,1.2
		c0.2,0.2,0.2,0.5,0,0.7C326,186.2,325.9,186.3,325.8,186.3L325.8,186.3z M304.7,184.1c-0.3,0-0.5-0.2-0.5-0.5
		c0-0.2,0.1-0.3,0.3-0.4c0.6-0.3,1.2-0.5,1.8-0.8c0.3-0.1,0.5,0,0.6,0.3c0.1,0.3,0,0.5-0.3,0.6l0,0c-0.6,0.2-1.2,0.5-1.8,0.7
		C304.9,184.1,304.8,184.1,304.7,184.1L304.7,184.1z M319.9,182.9h-0.1c-0.6-0.2-1.2-0.4-1.8-0.5c-0.3-0.1-0.4-0.3-0.4-0.6
		c0.1-0.3,0.3-0.4,0.6-0.4c0.7,0.1,1.3,0.3,1.9,0.5c0.3,0.1,0.4,0.4,0.3,0.6C320.3,182.8,320.1,183,319.9,182.9L319.9,182.9z
		 M311.2,182.2c-0.2,0-0.5-0.2-0.5-0.4c0-0.3,0.1-0.5,0.4-0.5c0,0,0,0,0,0c0.7-0.1,1.3-0.1,2-0.1c0.3,0,0.5,0.2,0.5,0.5c0,0,0,0,0,0
		c0,0.3-0.2,0.5-0.5,0.5C312.6,182.1,312,182.1,311.2,182.2L311.2,182.2z"/>
	<g class="st15">
		<path d="M260.1,181.8c-0.1,0-0.1,0-0.2,0c-45.6-19.7-95-17.3-95.5-17.2c-0.3,0-0.5-0.2-0.5-0.5c0-0.3,0.2-0.5,0.4-0.5c0,0,0,0,0,0
			c0.5,0,50.1-2.5,96,17.3c0.2,0.1,0.3,0.4,0.2,0.7C260.5,181.7,260.3,181.8,260.1,181.8L260.1,181.8z"/>
		<path d="M260.1,201.1c-0.1,0-0.1,0-0.2,0c-45.9-18.9-95-16.2-95.5-16.1c-0.3,0-0.5-0.2-0.5-0.4c0-0.3,0.2-0.5,0.5-0.5
			c0.5,0,49.8-2.8,96,16.2c0.2,0.1,0.4,0.4,0.3,0.6C260.6,201,260.4,201.1,260.1,201.1L260.1,201.1z"/>
		<path d="M260.1,220.3c-0.1,0-0.1,0-0.2,0c-46.2-18.2-95-15.1-95.5-15c-0.3,0-0.5-0.2-0.5-0.5s0.2-0.5,0.5-0.5l0,0
			c0.5,0,49.6-3.1,96,15.1c0.3,0.1,0.4,0.4,0.3,0.6C260.5,220.2,260.3,220.4,260.1,220.3z"/>
		<path d="M260.1,239.6c-0.1,0-0.1,0-0.2,0c-46.5-17.4-95-14-95.5-13.9c-0.3,0-0.5-0.2-0.5-0.4c0-0.3,0.2-0.5,0.4-0.5c0,0,0,0,0,0
			c0.5,0,49.3-3.5,96,14c0.2,0.1,0.4,0.4,0.3,0.6c0,0,0,0,0,0C260.5,239.5,260.3,239.6,260.1,239.6z"/>
		<path d="M260.1,258.9c-0.1,0-0.1,0-0.2,0c-46.7-16.6-95-12.9-95.5-12.9c-0.3,0-0.5-0.2-0.5-0.4c0-0.3,0.2-0.5,0.4-0.5c0,0,0,0,0,0
			c0.5,0,49-3.8,95.9,12.9c0.3,0.1,0.4,0.4,0.3,0.6C260.5,258.7,260.3,258.9,260.1,258.9z"/>
		<path d="M260.1,278.1c-0.1,0-0.1,0-0.2,0c-47-15.8-95.1-11.8-95.5-11.7c-0.3,0-0.5-0.2-0.5-0.4c0-0.3,0.2-0.5,0.4-0.5
			c0.5,0,48.7-4.1,95.9,11.8c0.3,0.1,0.4,0.4,0.3,0.6C260.5,278,260.3,278.1,260.1,278.1L260.1,278.1z"/>
		<path d="M260.1,297.4c0,0-0.1,0-0.1,0c-47.3-15.1-95.1-10.6-95.6-10.6c-0.3,0-0.5-0.2-0.5-0.5c0-0.3,0.2-0.5,0.5-0.5l0,0
			c0.5,0,48.4-4.5,95.9,10.6c0.3,0.1,0.4,0.4,0.3,0.6C260.5,297.2,260.3,297.4,260.1,297.4L260.1,297.4z"/>
		<path d="M260.1,316.6H260c-47.6-14.3-95.1-9.5-95.6-9.5c-0.3,0-0.5-0.2-0.5-0.4c0-0.3,0.2-0.5,0.4-0.5c0.5,0,48.1-4.8,95.9,9.5
			c0.3,0.1,0.4,0.4,0.3,0.6C260.5,316.5,260.3,316.7,260.1,316.6L260.1,316.6z"/>
	</g>
	<path class="st4" d="M189.7,218.6c0-2.7-2.2-4.8-4.8-4.8h0c-0.5,0-0.9,0.1-1.4,0.2c0.1-0.5,0.1-1,0.1-1.5c0-5.6-4.6-10.2-10.2-10.2
		c-0.6,0-1.3,0.1-1.9,0.2c-2.6-4.2-8.1-5.5-12.3-2.9c-2.6,1.6-4.2,4.4-4.2,7.4h-0.1c-4.5,0-8.2,3.7-8.2,8.2c0,4.5,3.7,8.2,8.2,8.2
		H185C187.6,223.4,189.7,221.3,189.7,218.6z"/>
	<path class="st4" d="M279.9,206c0-2.7-2.2-4.8-4.8-4.8l0,0c-0.5,0-0.9,0.1-1.4,0.2c0.8-5.6-3-10.8-8.6-11.6c-0.5-0.1-1-0.1-1.5-0.1
		c-0.6,0-1.3,0.1-1.9,0.2c-2.6-4.2-8-5.6-12.3-3c-2.6,1.6-4.3,4.4-4.3,7.5H245c-4.5-0.2-8.4,3.4-8.5,7.9s3.4,8.4,7.9,8.5
		c0.2,0,0.4,0,0.6,0h30.2C277.8,210.8,279.9,208.6,279.9,206z"/>
	<path class="st4" d="M252.6,276.9c0-2.7-2.2-4.8-4.8-4.8h0c-0.5,0-0.9,0.1-1.4,0.2c0.8-5.6-3-10.8-8.6-11.6c-0.5-0.1-1-0.1-1.5-0.1
		c-0.6,0-1.3,0.1-1.9,0.2c-2.6-4.2-8-5.6-12.3-3c-2.6,1.6-4.3,4.4-4.3,7.5h-0.1c-4.5,0-8.2,3.7-8.2,8.2c0,4.5,3.7,8.2,8.2,8.2H248
		C250.6,281.6,252.7,279.5,252.6,276.9z"/>
	<path d="M266.9,347c0,0,3.7,1.8,10.5,0c-1.1-2.9-4.3-4.4-7.2-3.3C268.7,344.3,267.5,345.5,266.9,347z"/>
	<path class="st13" d="M266.9,347c0,0,3.7,1.8,10.5,0c-1.1-2.9-4.3-4.4-7.2-3.3C268.7,344.3,267.5,345.5,266.9,347z"/>
</g>
<g id="freepik--Airplane--inject-122">
	<path class="st16" d="M214.6,188.1l-0.5,0.3l-0.8,0.5l-18.5-1.7l0,0l6.6-5.2l13.2,4.6c0.4,0.2,0.6,0.6,0.5,1.1
		C214.9,187.9,214.8,188,214.6,188.1z"/>
	<path class="st17" d="M214.1,188.4l-0.8,0.5l-18.5-1.7l5.7-4.6l13.2,4.6C214.1,187.5,214.3,187.9,214.1,188.4
		C214.1,188.4,214.1,188.4,214.1,188.4z"/>
	<path class="st16" d="M198.5,179.6l-10.9,7.1l-0.1-0.2l-6-15l2.9-1.4h0.1c1.3-0.6,2.9-0.4,4,0.6L198.5,179.6z"/>
	<path class="st17" d="M197.6,179.8l-10.1,6.6l-6-15l2.9-1.4h0.1c1.1-0.2,2.3,0.1,3.1,0.9L197.6,179.8z"/>
	<path class="st16" d="M323.5,158L323.5,158l-4.6,3.7h-63.2l8-8l6.5-6.5l6.2,0.9l46.1,6.5c1.1,0.2,1.8,1.2,1.6,2.3
		C324,157.3,323.8,157.7,323.5,158z"/>
	<path class="st18" d="M298,161.7h-42.3l8-8l6.5-6.5l6.2,0.9c2.1,0.8,4.2,1.7,6.2,2.7C284.4,151.8,293.1,158.1,298,161.7z"/>
	<path class="st17" d="M323.5,158L323.5,158l-4.6,3.7h-62.6l13.2-13.2l52.3,7.4C322.8,156,323.6,157,323.5,158z"/>
	<path class="st9" d="M292.2,155.4c0.5-0.7,0.8-1.6,0.8-2.4c0.1-2.1-1.3-3.9-3.3-4.5c-0.7-0.1-1.5,0.1-2.1,0.6
		c-3.4,2.2-15,10.4-16.8,14.7c-1.2,2.7,2.9,1.2,5.7,0.7s10.7-5.3,15.1-8.5l0.3-0.2l0,0C292,155.7,292.1,155.6,292.2,155.4z"/>
	<path class="st18" d="M293,153c0,0.9-0.2,1.7-0.8,2.4c-0.1,0.1-0.2,0.3-0.4,0.4c-0.1,0.1-0.2,0.1-0.3,0.2c-0.6,0.4-1.2,0.9-2,1.4
		c-4.5,3-10.7,6.6-13.1,7.1c-2.8,0.6-6.9,2-5.7-0.7c1.5-3.5,9.5-9.6,14.2-12.9c1.1-0.8,2-1.4,2.6-1.8c0.6-0.5,1.3-0.7,2.1-0.6
		C291.5,148.8,293,150.8,293,153z"/>
	<path class="st8" d="M293,153c0,0.9-0.2,1.7-0.8,2.4c-0.1,0.1-0.2,0.3-0.4,0.4c-0.1,0.1-0.2,0.1-0.3,0.2c-0.6,0.4-1.2,0.9-2,1.4
		c-0.8,0-1.7-0.2-2.4-0.6c-2-1.2-2.9-3.7-2.2-5.9c1.1-0.8,2-1.4,2.6-1.8c0.6-0.5,1.3-0.7,2.1-0.6C291.5,148.8,293,150.8,293,153z"/>
	<path class="st17" d="M292.8,152.3c0,1.6-1.1,2.8-2.4,2.5c-1.5-0.4-2.5-1.8-2.5-3.3c0-1.6,1.1-2.8,2.4-2.5
		C291.8,149.4,292.8,150.8,292.8,152.3z"/>
	<path class="st16" d="M289.6,151.1c0.2-0.3,1.8-0.4,1.8,0c0.1,1.2-0.6,2-1.2,1.9c-0.7-0.2-1-0.9-0.8-1.6
		C289.5,151.3,289.5,151.2,289.6,151.1z"/>
	<path class="st17" d="M271.7,165.4c-1.8,0.4,16.1-11.8,16.1-11.8c0.6,1.4,2.2,2.1,3.7,1.6C291.4,155.2,282.6,163.2,271.7,165.4z"/>
	<path class="st9" d="M309,157c0.4-0.5,0.6-1.2,0.6-1.8c0-1.5-1-2.9-2.5-3.3c-0.5-0.1-1.1,0-1.5,0.4c-2.5,1.6-11.1,7.7-12.4,10.9
		c-0.9,2,2.2,0.9,4.2,0.5s7.9-3.9,11.1-6.2l0.2-0.1l0,0C308.8,157.2,308.9,157.1,309,157z"/>
	<path class="st18" d="M309.5,155.2c0,0.6-0.2,1.3-0.5,1.8c-0.1,0.1-0.2,0.2-0.3,0.3l-0.2,0.1l-1.4,1c-3.3,2.2-7.9,4.9-9.7,5.2
		c-2.1,0.4-5.1,1.5-4.2-0.5c1.1-2.6,7-7.1,10.5-9.5c0.8-0.6,1.5-1,2-1.3c0.4-0.4,1-0.5,1.5-0.4C308.6,152.3,309.6,153.7,309.5,155.2
		z"/>
	<path class="st9" d="M309.5,155.2c0,0.6-0.2,1.3-0.5,1.8c-0.1,0.1-0.2,0.2-0.3,0.3l-0.2,0.1l-1.4,1c-0.6,0-1.2-0.1-1.8-0.4
		c-1.5-0.9-2.1-2.7-1.6-4.4c0.8-0.6,1.5-1,2-1.3c0.4-0.4,1-0.5,1.5-0.4C308.6,152.3,309.6,153.7,309.5,155.2z"/>
	<path class="st8" d="M309.4,154.7c0,1.2-0.8,2-1.8,1.9c-1.1-0.3-1.9-1.3-1.8-2.4c0-1.2,0.8-2,1.8-1.9
		C308.6,152.6,309.4,153.6,309.4,154.7z"/>
	<path class="st16" d="M307,153.8c0.2-0.2,1.3-0.3,1.3,0c0.1,0.9-0.5,1.5-0.9,1.4c-0.5-0.2-0.7-0.7-0.6-1.2
		C306.9,154,306.9,153.9,307,153.8z"/>
	<path class="st17" d="M294.2,164.2c-1.3,0.2,11.6-8.5,11.6-8.5c0.5,1,1.6,1.5,2.6,1.2C308.4,156.9,302.1,162.6,294.2,164.2z"/>
	<path class="st9" d="M304.2,127.9c-0.3,0.9-0.7,1.8-1.2,2.5c-1.3,1.8-2.9,3.3-4.8,4.5l-1.1,0.7l0,0c-2,1.3-3.9,2.5-5.1,3.2
		l-50.5,32.1c-8.7,5.5-18.2,9.7-28.2,12.2L210,184l-17.2,4.4c-1.3,0.3-2.6,0.1-3.7-0.7l0,0l-2.5-1.7l13.6-9.6
		c2.6-1.9,5.3-3.6,8.1-5.3l67.7-41c10.1-5.7,12.9-5.4,18.7-4.5c2.5-0.5,5.1-0.6,7.6-0.4c0.8,0.1,1.4,0.5,1.8,1.2
		C304.3,126.9,304.4,127.4,304.2,127.9z"/>
	<path class="st18" d="M304.2,127.9c-0.3,0.9-0.7,1.8-1.2,2.5c-1.3,1.8-2.9,3.3-4.8,4.5l-1.1,0.7l0,0l-0.1,0.1l0,0
		c-1.9,1.3-3.8,2.4-5,3.1l-15.1,9.6l-35.4,22.4l-0.9,0.6c-8.5,5.3-17.7,9.2-27.4,11.7L210,184l-17.2,4.4c-1.3,0.3-2.6,0.1-3.7-0.7
		l-2.5-1.7l13.6-9.6c2.6-1.9,5.3-3.6,8.1-5.3l8-4.8l36.1-21.8l23.6-14.4c10.1-5.7,12.9-5.4,18.7-4.5l0.6-0.1c2.3-0.4,4.7-0.5,7-0.3
		c0.8,0.1,1.4,0.5,1.8,1.2C304.3,126.9,304.4,127.4,304.2,127.9z"/>
	<path class="st16" d="M304.2,127.9c-0.3,0.9-0.7,1.8-1.2,2.5c-1.3,1.8-2.9,3.3-4.8,4.5l-1.1,0.7l0,0l-0.1,0.1l0,0
		c-2.3-0.7-3.9-2.8-4-5.2c-0.1-1.9,0.8-3.8,2.3-5c2.3-0.4,4.7-0.5,7-0.3c0.8,0.1,1.4,0.5,1.8,1.2
		C304.3,126.9,304.4,127.4,304.2,127.9z"/>
	<path class="st7" d="M205.6,176.2c-0.3,0-0.6-0.2-0.8-0.5c-0.3-0.5-0.1-1,0.3-1.3l0.6-0.3c0.5-0.2,1.1,0.2,1.2,0.7
		c0.1,0.3,0,0.7-0.2,1l-0.5,0.3C206,176.1,205.8,176.2,205.6,176.2z"/>
	<path class="st7" d="M208.9,174.2c-0.3,0-0.6-0.2-0.8-0.5c-0.3-0.5-0.1-1,0.3-1.3l1.1-0.6c0.5-0.3,1-0.1,1.3,0.3
		c0.3,0.5,0.1,1-0.3,1.3l-1.1,0.6C209.2,174.2,209,174.2,208.9,174.2z M212.7,171.9c-0.3,0-0.6-0.2-0.8-0.5c-0.3-0.5-0.1-1,0.3-1.3
		l1.1-0.7c0.4-0.4,1-0.4,1.4,0c0.4,0.4,0.4,1,0,1.4c-0.1,0.1-0.3,0.2-0.5,0.3l-1.1,0.6C213,171.9,212.8,171.9,212.7,171.9z
		 M216.5,169.6c-0.5-0.1-0.9-0.6-0.9-1.1c0-0.3,0.2-0.5,0.4-0.7l1.1-0.7c0.5-0.2,1.1,0.2,1.2,0.7c0.1,0.3,0,0.7-0.2,1l-1.1,0.6
		C216.8,169.6,216.6,169.6,216.5,169.6z M220.2,167.3c-0.5-0.1-0.9-0.6-0.9-1.1c0-0.3,0.2-0.5,0.4-0.7l1.1-0.7
		c0.5-0.3,1-0.1,1.3,0.3c0.3,0.5,0.1,1-0.3,1.3l-1.1,0.7C220.6,167.3,220.4,167.3,220.2,167.3z M224.1,165c-0.5-0.1-1-0.5-0.9-1.1
		c0-0.3,0.2-0.5,0.4-0.7l1.1-0.6c0.4-0.4,1-0.4,1.4-0.1s0.4,1,0.1,1.4c-0.1,0.1-0.3,0.2-0.5,0.3l-1.1,0.7
		C224.4,165,224.2,165,224.1,165L224.1,165z M227.8,162.7c-0.3,0-0.6-0.2-0.8-0.5c-0.3-0.5-0.1-1,0.3-1.3l1.1-0.6
		c0.4-0.4,1-0.4,1.4,0c0.4,0.4,0.4,1,0,1.4c-0.1,0.1-0.3,0.2-0.5,0.3l-1.1,0.6C228.2,162.7,228,162.7,227.8,162.7z M231.6,160.4
		c-0.5-0.1-0.9-0.6-0.9-1.1c0-0.3,0.2-0.5,0.4-0.7l1.1-0.7c0.4-0.4,1-0.4,1.4,0c0.4,0.4,0.4,1,0,1.4c-0.1,0.1-0.3,0.2-0.5,0.3
		l-1.1,0.6C232,160.4,231.8,160.4,231.6,160.4z M235.4,158.1c-0.5-0.1-0.9-0.6-0.9-1.1c0-0.3,0.2-0.5,0.4-0.7l1.1-0.6
		c0.5-0.1,1.1,0.2,1.2,0.7c0.1,0.3,0,0.7-0.2,0.9l-1.1,0.7C235.8,158.1,235.6,158.1,235.4,158.1z M239.2,155.8
		c-0.3,0-0.6-0.2-0.8-0.5c-0.3-0.5-0.1-1,0.3-1.3l1.1-0.6c0.5-0.1,1.1,0.2,1.2,0.7c0.1,0.3,0,0.7-0.2,0.9l-1.1,0.7
		C239.6,155.8,239.4,155.8,239.2,155.8z M243,153.5c-0.3,0-0.6-0.2-0.8-0.5c-0.3-0.5-0.1-1,0.3-1.3l1.1-0.6c0.5-0.3,1-0.1,1.3,0.3
		c0.3,0.5,0.1,1-0.3,1.3l-1.1,0.6C243.4,153.5,243.2,153.5,243,153.5L243,153.5z M246.8,151.2c-0.5-0.1-0.9-0.6-0.9-1.1
		c0-0.3,0.2-0.5,0.4-0.7l1.1-0.7c0.5-0.2,1.1,0.2,1.2,0.7c0.1,0.3,0,0.7-0.2,1l-1.1,0.6C247.2,151.2,247,151.2,246.8,151.2z
		 M250.6,148.9c-0.5-0.1-0.9-0.6-0.9-1.1c0-0.3,0.2-0.5,0.4-0.7l1.1-0.7c0.4-0.4,1-0.4,1.4,0c0.4,0.4,0.4,1,0,1.4
		c-0.1,0.1-0.3,0.2-0.5,0.3l-1.1,0.7C251,148.9,250.8,148.9,250.6,148.9z M254.4,146.6c-0.5-0.1-0.9-0.6-0.9-1.1
		c0-0.3,0.2-0.5,0.4-0.7l1.1-0.7c0.5-0.2,1.1,0.2,1.2,0.7c0.1,0.3,0,0.7-0.2,1l-1.1,0.7C254.7,146.6,254.6,146.6,254.4,146.6z
		 M258.2,144.3c-0.3,0-0.7-0.2-0.8-0.5c-0.3-0.5-0.1-1,0.3-1.3l1.1-0.6c0.4-0.4,1-0.4,1.4-0.1s0.4,1,0.1,1.4
		c-0.1,0.1-0.3,0.2-0.5,0.3l-1.1,0.7C258.5,144.3,258.4,144.3,258.2,144.3L258.2,144.3z M262,142c-0.3,0-0.6-0.2-0.8-0.5
		c-0.3-0.5-0.1-1,0.3-1.3l1-0.6c0.5-0.3,1.1-0.2,1.4,0.3c0.3,0.4,0.2,1-0.2,1.3c0,0,0,0,0,0l-1.1,0.7C262.3,142,262.2,142,262,142z
		 M265.8,139.7c-0.3,0-0.6-0.2-0.8-0.5c-0.3-0.5-0.1-1,0.3-1.3l1.1-0.7c0.4-0.4,1-0.4,1.4,0s0.4,1,0,1.4c-0.1,0.1-0.3,0.2-0.5,0.3
		l-1.1,0.6C266.2,139.7,266,139.7,265.8,139.7L265.8,139.7z M269.6,137.4c-0.5-0.1-0.9-0.6-0.9-1.1c0-0.3,0.2-0.5,0.4-0.7l1.1-0.7
		c0.5-0.3,1-0.1,1.3,0.3c0.3,0.5,0.1,1-0.3,1.3l-1.1,0.6C269.9,137.4,269.8,137.4,269.6,137.4L269.6,137.4z M273.4,135.1
		c-0.5-0.1-0.9-0.6-0.9-1.1c0-0.3,0.2-0.5,0.4-0.7l1.1-0.7c0.4-0.4,1-0.4,1.4,0s0.4,1,0,1.4c-0.1,0.1-0.3,0.2-0.5,0.3l-1.1,0.7
		C273.7,135.1,273.6,135.1,273.4,135.1L273.4,135.1z"/>
	<path class="st7" d="M277.1,132.9c-0.5-0.1-0.9-0.6-0.9-1.1c0-0.3,0.2-0.5,0.4-0.7l0.5-0.3c0.5-0.3,1-0.1,1.3,0.3
		c0.3,0.5,0.1,1-0.3,1.3l-0.5,0.3C277.5,132.8,277.3,132.9,277.1,132.9z"/>
	<path class="st7" d="M282.6,129.7v-2.2c2.1-1,5-2.8,9.6-2.3l2.5,0.4c-3.9-0.3-7.8,1.5-11.1,3.6L282.6,129.7z"/>
	<path class="st17" d="M304.2,127.9c-0.3,0.9-0.7,1.8-1.2,2.5c-1.4,1-3.2,2.2-5.2,3.6c-6.4,4.1-52.6,33.1-58.8,37.4
		c-4.4,3.2-13.9,8-29,12.6c-5.1,1.6-10.9,3.1-17.3,4.5c-1.2,0.3-2.5,0-3.5-0.7h-0.1c0,0,20.3-6.8,24.9-9.4s70.3-43.1,76.9-46.8
		c5.3-2.9,10.3-4.8,13.2-5.2C304.3,126.9,304.4,127.4,304.2,127.9z"/>
	<path class="st16" d="M257.9,148.9l-0.3,0.2l-3.4,2.2l-14.9,9.6c-0.9,0.6-1.9,0.9-3,0.9h-70.7l2.6-2.9c2.2-2.4,5.3-4,8.6-4.3
		l61.3-5.6l19.3-1.8c0.5,0,0.9,0.4,0.9,0.9C258.3,148.4,258.2,148.7,257.9,148.9z"/>
	<path class="st18" d="M257.9,148.9l-0.3,0.2l-3.4,2.2l-14.9,9.6c-0.9,0.6-1.9,0.9-3,0.9h-48.6c16.6-3.1,42.4-8.5,50.5-12.8
		l19.3-1.8c0.5,0,0.9,0.3,1,0.8C258.3,148.4,258.2,148.7,257.9,148.9z"/>
	<path class="st17" d="M257.6,149.1l-18.4,11.8c-0.9,0.6-1.9,0.9-3,0.9H166l1.5-1.6c2.2-2.5,5.3-4,8.6-4.3l80.6-7.4
		C257.1,148.4,257.5,148.7,257.6,149.1z"/>
	<path class="st9" d="M234.4,155.4c0.5-0.7,0.8-1.6,0.8-2.4c0-2.1-1.3-3.9-3.3-4.4c-0.7-0.1-1.5,0.1-2.1,0.6
		c-3.4,2.2-15,10.4-16.8,14.7c-1.1,2.7,2.9,1.2,5.7,0.7s10.8-5.3,15.1-8.5c0.1-0.1,0.2-0.1,0.3-0.2l0,0
		C234.2,155.7,234.3,155.6,234.4,155.4z"/>
	<path class="st18" d="M235.2,153c0,0.9-0.2,1.7-0.8,2.4c-0.1,0.1-0.2,0.3-0.4,0.4c-0.1,0.1-0.2,0.1-0.3,0.2
		c-0.6,0.4-1.2,0.9-1.9,1.4c-4.5,3-10.7,6.6-13.1,7.1c-2.8,0.6-6.9,2-5.7-0.7c1.5-3.5,9.4-9.6,14.2-12.9c1.1-0.8,2-1.4,2.6-1.8
		c0.6-0.5,1.3-0.7,2.1-0.6C233.7,148.8,235.2,150.8,235.2,153z"/>
	<path class="st8" d="M235.2,153c0,0.9-0.2,1.7-0.8,2.4c-0.1,0.1-0.2,0.3-0.4,0.4c-0.1,0.1-0.2,0.1-0.3,0.2
		c-0.6,0.4-1.2,0.9-1.9,1.4c-0.9,0-1.7-0.2-2.4-0.6c-2-1.3-2.9-3.7-2.2-5.9c1.1-0.8,2-1.4,2.6-1.8c0.6-0.5,1.3-0.7,2.1-0.6
		C233.7,148.8,235.2,150.8,235.2,153z"/>
	<ellipse transform="matrix(0.9441 -0.3297 0.3297 0.9441 -37.0783 85.1469)" class="st17" cx="232.5" cy="151.9" rx="2.4" ry="3"/>
	<path class="st16" d="M231.8,151.1c0.2-0.3,1.8-0.4,1.8,0c0.1,1.2-0.6,2-1.2,1.9c-0.7-0.2-1-0.9-0.8-1.6
		C231.7,151.3,231.7,151.2,231.8,151.1z"/>
	<path class="st17" d="M213.9,165.4c-1.8,0.4,16.1-11.8,16.1-11.8c0.6,1.4,2.2,2.1,3.7,1.6C233.6,155.2,224.8,163.2,213.9,165.4z"/>
	<path class="st9" d="M206.2,157c0.4-0.5,0.6-1.2,0.6-1.8c0-1.5-1-2.9-2.4-3.3c-0.5-0.1-1.1,0-1.5,0.4c-2.5,1.6-11.1,7.7-12.4,10.9
		c-0.9,2,2.1,0.9,4.2,0.5s7.9-3.9,11.1-6.2l0.2-0.1l0,0C206,157.2,206.1,157.1,206.2,157z"/>
	<path class="st18" d="M206.8,155.2c0,0.6-0.2,1.3-0.6,1.8c-0.1,0.1-0.2,0.2-0.3,0.3l-0.2,0.1l-1.4,1c-3.3,2.2-7.9,4.9-9.7,5.2
		c-2.1,0.4-5.1,1.5-4.2-0.5c1.1-2.6,7-7.1,10.5-9.5c0.8-0.6,1.5-1,1.9-1.3c0.4-0.4,1-0.5,1.5-0.4
		C205.8,152.3,206.8,153.7,206.8,155.2z"/>
	<path class="st8" d="M206.8,155.2c0,0.6-0.2,1.3-0.6,1.8c-0.1,0.1-0.2,0.2-0.3,0.3l-0.2,0.1l-1.4,1c-0.6,0-1.2-0.1-1.8-0.4
		c-1.5-0.9-2.1-2.7-1.6-4.4c0.8-0.6,1.5-1,1.9-1.3c0.4-0.4,1-0.5,1.5-0.4C205.8,152.3,206.8,153.7,206.8,155.2z"/>
	<path class="st17" d="M206.6,154.7c0,1.2-0.8,2-1.8,1.9c-1.1-0.3-1.9-1.3-1.8-2.4c0-1.2,0.8-2,1.8-1.9
		C205.9,152.6,206.6,153.6,206.6,154.7z"/>
	<path class="st16" d="M204.3,153.8c0.2-0.2,1.3-0.3,1.3,0c0.1,0.9-0.5,1.5-0.9,1.4c-0.5-0.2-0.7-0.7-0.6-1.2
		C204.2,154,204.2,153.9,204.3,153.8z"/>
	<path class="st17" d="M191.4,164.2c-1.3,0.2,11.6-8.5,11.6-8.5c0.5,1,1.6,1.5,2.6,1.2C205.6,156.9,199.3,162.6,191.4,164.2z"/>
	<path class="st16" d="M167.1,189l23.1-1.7l11.1-5.3l-29.2,3.6c-1,0.1-2,0.6-2.7,1.3L167.1,189z"/>
	<path class="st16" d="M198.2,183.5c0,0-0.1,0.1-0.1,0.1l-7.9,3.8l-22.1,1.6l-1,0.1l2.3-2.2c0.7-0.7,1.7-1.2,2.7-1.3l25.7-3.1
		c0.3,0,0.6,0.2,0.6,0.6C198.4,183.2,198.3,183.4,198.2,183.5z"/>
	<path class="st17" d="M198.2,183.5c0,0-0.1,0.1-0.1,0.1l-7.9,3.8l-22.1,1.6l1.2-1.2c0.7-0.7,1.7-1.2,2.7-1.3l25.7-3.1
		C197.9,183.4,198.1,183.4,198.2,183.5z"/>
</g>
<g id="freepik--Character--inject-122">
	<path class="st7" d="M161.3,205.9l17.3,2.6l-10,66.5l-17.3-2.6L161.3,205.9z M174.8,211.3l-10.7-1.6l-9,59.8l10.7,1.6L174.8,211.3z
		"/>
	<path class="st7" d="M149.9,368.7c-2.5-0.4-4.8,1.3-5.1,3.8c-0.4,2.5,1.3,4.8,3.8,5.1l2.2,0.3c0,0,0,0,0,0c2.5,0.4,4.8-1.3,5.1-3.8
		c0.4-2.5-1.3-4.8-3.8-5.1L149.9,368.7C149.9,368.7,149.9,368.7,149.9,368.7z"/>
	<path class="st19" d="M150,368.5c2.5,0.4,4.3,2.7,3.9,5.3c-0.4,2.5-2.7,4.3-5.3,3.9c-2.5-0.4-4.3-2.7-3.9-5.3
		C145.1,369.9,147.4,368.2,150,368.5z"/>
	<path class="st7" d="M137.6,366.9c-2.5-0.4-4.8,1.3-5.1,3.8c-0.4,2.5,1.3,4.8,3.8,5.1l2.2,0.3c0,0,0,0,0,0c2.5,0.4,4.8-1.3,5.1-3.8
		c0.4-2.5-1.3-4.8-3.8-5.1L137.6,366.9C137.6,366.9,137.6,366.9,137.6,366.9z"/>
	<path class="st20" d="M137.7,366.7c2.5,0.4,4.3,2.7,3.9,5.3s-2.7,4.3-5.3,3.9c-2.5-0.4-4.3-2.7-3.9-5.3S135.2,366.3,137.7,366.7z"
		/>
	<path class="st8" d="M110.9,267.1c1.2-7.9,8.5-13.3,16.3-12.2l39.2,5.9l-16.2,107.9l-39.2-5.9c-7.8-1.2-13.1-9.2-12-17L110.9,267.1
		C110.9,267.1,110.9,267.1,110.9,267.1z"/>
	<path class="st7" d="M172.2,262.7l-15.9,105.5c-0.2,1.7-1.8,2.8-3.4,2.5l-17.4-2.6c-1.7-0.2-2.8-1.8-2.5-3.4l15.9-105.5
		c0.2-1.7,1.8-2.8,3.4-2.5l17.4,2.6C171.3,259.5,172.4,261.1,172.2,262.7z"/>
	<path class="st20" d="M172.2,262.7l-15.9,105.5c-0.2,1.7-1.8,2.8-3.4,2.5l-8.7-1.3c-1.7-0.2-2.8-1.8-2.5-3.4l15.9-105.5
		c0.2-1.7,1.8-2.8,3.4-2.5l8.7,1.3C171.3,259.5,172.4,261.1,172.2,262.7z"/>
	<path class="st13" d="M113.6,260.9l21.3,3.2c4.4,0.6,7.5,4.6,7,9L128.7,361c-0.3,1.5-1,3-1.9,4.3l-15.7-2.4
		c-7.8-1.2-13.1-9.2-12-17l11.8-78.7C111.3,264.9,112.2,262.7,113.6,260.9z"/>
	<path class="st17" d="M170.2,264.5L154.9,366c-0.2,1.2-1.2,1.9-2.4,1.8l-5.9-0.9c-1.2-0.2-1.9-1.2-1.8-2.4L160.2,263
		c0.2-1.2,1.2-1.9,2.4-1.8l5.9,0.9C169.6,262.3,170.4,263.4,170.2,264.5z"/>
	<path class="st7" d="M179.6,208.7l-0.2,1.4c-0.2,1.2-1.3,2.1-2.6,1.9l-14.6-2.2c-1.2-0.2-2.1-1.3-1.9-2.6l0.2-1.4
		c0.2-1.2,1.3-2.1,2.6-1.9l14.6,2.2C179,206.4,179.8,207.5,179.6,208.7z"/>
	<path class="st20" d="M179.6,208.7l-0.2,1.4c-0.2,1.2-1.3,2.1-2.6,1.9l-14.6-2.2c-1.2-0.2-2.1-1.3-1.9-2.6l0.2-1.4
		c0.2-1.2,1.3-2.1,2.6-1.9l14.6,2.2C179,206.4,179.8,207.5,179.6,208.7z"/>
	<path class="st17" d="M166.3,206.7l-0.2,1.4c-0.2,1.2-1.3,2.1-2.6,1.9l-1.3-0.2c-1.2-0.2-2.1-1.3-1.9-2.6l0.2-1.4
		c0.2-1.2,1.3-2.1,2.6-1.9l1.3,0.2C165.6,204.4,166.4,205.5,166.3,206.7z"/>
</g>
<ellipse transform="matrix(0.7071 -0.7071 0.7071 0.7071 6.015 379.2402)" class="st8" cx="460.8" cy="182.4" rx="18.3" ry="18.3"/>
<circle class="st8" cx="167.1" cy="104" r="5.8"/>
<ellipse transform="matrix(0.7071 -0.7071 0.7071 0.7071 -250.4305 176.264)" class="st16" cx="87.6" cy="390.4" rx="11" ry="11"/>
<ellipse transform="matrix(0.7071 -0.7071 0.7071 0.7071 -25.3331 124.0109)" class="st16" cx="137" cy="92.6" rx="18.2" ry="18.2"/>
</svg>
