<svg version="1.1" id="Layer_1" xmlns="http://www.w3.org/2000/svg" x="0" y="0" viewBox="0 0 1170 1253" xml:space="preserve"><style>.st0{fill:#ecf2fb}.st1{opacity:.2;fill:#3a7ec1;enable-background:new}.st2{fill:#536582}.st3{fill:#fff}.st4{fill:#f5b646}.st5{fill:#313030}.st6{fill:#f5b799}.st7{opacity:.28;fill:#010101;enable-background:new}.st8{fill:#e29586}.st9{fill:#e59f84}.st10{fill:#5b5a5a}.st13{fill:#efeeee}.st14{fill:#c9d7dd}.st16{fill:#fedca5}</style><g id="Layer_4"><path class="st0" d="M750 1246c280-53 454-388 416-670-41-313-329-463-379-488C613 2 291-68 110 115c-200 204-77 570 27 747 27 46 271 449 613 384z"/><path class="st1" d="m557 1008 73-549c2-16-9-30-25-32l-438-58c-16-2-30 9-33 25L62 943c-2 15 9 30 25 32l438 58c16 2 30-9 32-25z"/><path class="st2" d="m49 928 73-549c2-16 16-27 32-25l438 58c16 2 27 17 25 33l-72 549c-3 15-17 26-33 24L74 961c-16-3-27-17-25-33z"/><path class="st3" d="M62 930c-1 8 5 16 14 18l438 58c8 1 16-5 17-14l37-275-470-62-36 275z"/><path class="st0" d="m604 443-36 274-470-62 37-274c1-9 9-15 17-14l439 58c8 1 14 9 13 18z"/><path class="st1" d="m585 590-16 117-463-61 10-123 4-121c2-8 9-14 18-13l446 50c9 1 15 9 14 18l-13 133z"/><path class="st3" d="m574 446-438-54c-8-2-16 4-18 13L99 651l470 62 19-249c1-9-5-17-14-18z"/><path transform="rotate(-82 175 785)" class="st0" d="M91 718h169v135H91z"/><path class="st4" d="m210 870-91-12c4-15 17-27 32-29a33 33 0 0 1 11 0l14 2a46 46 0 0 1 10 3c15 6 24 20 24 36z"/><path class="st5" d="M139 770s2-48 28-45c26 2 38-3 44 0s5 47 2 55-74-10-74-10z"/><path class="st6" d="m182 825-2 13c-1 6-7 10-13 9-7-1-12-7-11-12l2-13c0-3 1-5 3-6l1-1 3-1a14 14 0 0 1 12 1l2 2 1 1c2 2 2 5 2 7z"/><path class="st7" d="m209 781-3 20c-2 13-12 24-25 26v6h-14l-11-4 1-5c-12-6-18-19-17-32l3-19c2-17 18-30 36-27h2c7 1 14 4 19 10 7 6 10 16 9 25z"/><path class="st6" d="m209 776-3 25c-1 6-3 11-7 16l-2 2-2 2a32 32 0 0 1-25 7h-2c-18-3-30-19-28-36l4-25a31 31 0 0 1 17-24c6-3 12-4 18-3l3 1a30 30 0 0 1 16 6l2 3c7 7 11 17 9 26z"/><path class="st6" d="M220 791c-1 7-7 12-14 11l3-25 5 1c5 3 7 8 6 13z"/><path class="st8" d="M216 790c-1 5-5 8-9 7l2-16c4 1 7 5 7 9z"/><path class="st6" d="m144 768-4 25a13 13 0 0 1 1-25h3z"/><path class="st8" d="M134 780c-1 4 2 8 7 8l2-15c-4-1-8 2-9 7 0-1 0-1 0 0z"/><path class="st9" d="m209 776-3 25c-1 6-3 11-7 16l-2 2c13-45 6-53-5-54-12-2-12-16-12-16l18-2 2 3c7 7 11 17 9 26z"/><path class="st10" d="m179 847 2 6-13 12-3-1 15-25 1-6 5 12z"/><path class="st3" d="m182 843-4 2v4l-10 13-2 2h-3l-2-5-6-12 1-4-3-3 2-6 1 2c1 3 4 6 7 9l4 2 3-1a27 27 0 0 0 11-8l1 5z"/><path class="st2" d="m179 846 2 7-15 11h-1l15-26 1-6 5 13z"/><path class="st10" d="M163 864h-2l-10-15 4-5-7-4 9-10-1 6z"/><path class="st2" d="M164 864h-1l-12-15 4-6-7-3 9-11-1 6z"/><path class="st5" d="M200 743s-15-7-18-7h-13c-6 1-16 6-16 6l-2 3-3 2v2l-2 3 1-1 1 3c2-3 6-5 9-6 7-2 17-1 23 4 10 11 33 9 33 9l-13-18z"/><path transform="rotate(-82 333 686)" fill="#d9e4f4" d="M328 450h9v474h-9z"/><path class="st4" d="m448 755-165-21c-5-1-9-6-8-11 0-5 5-9 11-8l165 21c5 1 9 6 8 11s-6 9-11 8z"/><path class="st0" d="m360 779-82-11c-5 0-9-5-8-10 1-6 5-9 11-9l82 11c5 1 9 6 8 11s-6 9-11 8zm153 55-239-31c-6-1-9-6-9-11 1-5 6-9 11-8l239 31c5 1 9 6 9 11-1 5-6 9-11 8zm-5 37-239-31c-5-1-9-6-9-11 1-5 6-9 11-8l239 31c5 1 9 6 8 11 0 5-5 9-10 8zm-5 37-239-31c-5-1-9-6-8-11 0-5 5-9 10-8l239 31c5 1 9 6 9 11-1 5-6 9-11 8z"/><path d="M391 954c6-1 23-5 20-15-3-9-14 6-13 12 3 10 19 3 24-1 12-7 21-18 26-31 1-1 0-2-1-2h-1c-8 4-14 10-19 17l-2 9 1 3c1 4 2 3-2 5l-1 2 1 1 9 3c3 0 7-2 10-4l-3-3-4 6 1 2c6 5 15 0 20-4l-3-1c-1 7-4 14-10 18-8 5-16 3-24 1-3-1-4 2-2 3 9 2 18 5 27 0 7-5 12-13 12-22 1-1 0-2-1-2h-1l-6 4-3 1c-2 0-3 0-3-3v-3h-3c-2 2-5 4-8 3l-6-3v4l5-4v-1c-1-4-3-5-2-10 2-3 3-6 6-8l13-11-3-2c-5 12-14 22-26 29-3 2-6 4-9 4-3 1-8 2-8-4l3-5c3-2 1 2 0 3l-4 2c-3 2-7 3-10 3l-2 3 2 1z" fill="#64bfb4"/><path transform="rotate(-83 112 905)" class="st0" d="M84 897h56v15H84z"/><path transform="rotate(-82 148 911)" class="st0" d="M120 903h56v15h-56z"/><path transform="rotate(-82 128 908)" class="st0" d="M100 904h56v7h-56z"/><path transform="rotate(-82 136 909)" class="st0" d="M108 907h56v4h-56z"/><path transform="rotate(-82 209 919)" class="st0" d="M181 911h56v15h-56z"/><path transform="rotate(-83 246 922)" class="st0" d="M218 915h56v15h-56z"/><path transform="rotate(-82 226 921)" class="st0" d="M198 917h56v7h-56z"/><path transform="rotate(-82 234 922)" class="st0" d="M206 920h56v4h-56z"/><path transform="rotate(-82 189 916)" class="st0" d="M161 909h56v15h-56z"/><path transform="rotate(-82 318 933)" class="st0" d="M290 926h56v15h-56z"/><path transform="rotate(-82 298 931)" class="st0" d="M270 923h56v15h-56z"/><path transform="rotate(-82 169 914)" class="st0" d="M141 910h56v7h-56z"/><path transform="rotate(-82 177 915)" class="st0" d="M149 913h56v4h-56z"/><path transform="rotate(-82 333 935)" class="st0" d="M305 932h56v7h-56z"/><path transform="rotate(-82 341 936)" class="st0" d="M313 934h56v4h-56z"/><path transform="rotate(-82 279 928)" class="st0" d="M252 921h56v15h-56z"/><path transform="rotate(-82 260 925)" class="st0" d="M232 922h56v7h-56z"/><path transform="rotate(-82 268 926)" class="st0" d="M240 925h56v4h-56z"/><path class="st1" d="M976 292 793 174l-8-5c-17-11-39-6-49 10L393 713c-11 17-6 39 10 49l9 6 182 117c17 11 39 6 50-11l216-336 6-9 121-188c10-17 5-39-11-49z"/><path class="st3" d="m781 148 191 123c17 11 21 33 11 49L640 854a36 36 0 0 1-49 11L399 742a36 36 0 0 1-10-49l343-534c10-17 32-21 49-11z"/><path class="st4" d="m781 148 8 5-381 594-9-5a36 36 0 0 1-10-49l343-534c10-17 32-21 49-11z"/><circle transform="rotate(-45 822 334)" class="st0" cx="821.9" cy="333.8" r="94.3"/><path transform="rotate(-57 752 444)" class="st0" d="M747 318h11v253h-11z"/><path class="st4" d="M608 521 473 730c-4 6-12 8-18 4-7-4-9-12-5-18l135-210c4-6 13-8 19-4s8 12 4 19z"/><path class="st0" d="m609 614-93 144c-4 6-12 8-19 4-6-4-8-13-4-19l93-144c4-6 12-8 18-4h1c6 4 8 13 4 19z"/><path transform="rotate(-57 627 630)" class="st0" d="M429 625h396v10H429z"/><path transform="rotate(-57 622 758)" class="st0" d="M611 724h23v67h-23z"/><path transform="rotate(-57 653 709)" class="st0" d="M637 676h32v67h-32z"/><path transform="rotate(-57 633 741)" class="st0" d="M627 707h11v67h-11z"/><path transform="rotate(-57 640 730)" class="st0" d="M636 696h8v67h-8z"/><path transform="rotate(-57 675 675)" class="st0" d="M664 642h23v67h-23z"/><path transform="rotate(-57 686 658)" class="st0" d="M680 624h11v67h-11z"/><path transform="rotate(-57 711 619)" class="st0" d="M695 586h32v67h-32z"/><path transform="rotate(-57 733 585)" class="st0" d="M722 552h23v67h-23z"/><path transform="rotate(-57 744 568)" class="st0" d="M738 534h11v67h-11z"/><path transform="rotate(-57 693 647)" class="st0" d="M689 614h8v67h-8z"/><path class="st4" d="m831 328 61-4-2-12-64-13-6-30c-1-6-7-9-12-8h-2c-5 2-9 7-7 13l7 29-53 39 3 12 57-22 12 51 1 3-9 9 1 4 18-7 19-1-1-5-12-3v-4l-11-51zm4 63z"/><path class="st1" d="M901 490 539 341c-22-9-46 1-55 22L267 892c-9 21 2 45 23 54l362 149c21 9 45-1 54-23l217-528c9-21-1-45-22-54z"/><path class="st2" d="M646 1064 284 915c-22-9-32-33-23-54l217-528c9-22 33-32 55-23l362 149c21 9 31 33 22 54l-217 529c-9 21-33 31-54 22z"/><path class="st3" d="M639 565a137 137 0 1 0 75 179c29-70-5-150-75-179zm76 140c-4-14-11-28-21-39 0-24-5-47-15-65 27 27 40 66 36 104zm-33 21 5-17c13 11 20 21 20 28l-25-11zm-8-3-33-14 9-26 30 20c-1 7-4 14-6 20zm-41-17-41-16 12-30 39 19-10 27zm-25-53 12-30c11 5 21 10 31 17l-6 31c-12-7-25-13-37-18zm15-38 17-40c11 8 15 29 12 56l-29-16zm-8-3c-10-4-21-7-31-9 17-22 35-34 48-32l-17 41zm-3 8-12 30c-13-6-26-10-39-14l17-26c12 2 23 6 34 10zm-15 37-12 29-41-16 13-27 40 14zm-60 10-34-14 10-19 36 7c-4 8-9 17-12 26zm-41-17-26-11c6-4 17-6 34-5l-8 16zm-29-3 26 10-6 18c-13-11-19-21-20-28zm33 14 33 13-9 27-30-20 6-21v1zm41 17 41 16-12 30-38-19 9-28v1zm26 53-13 30-31-17 6-31c12 6 25 13 38 18zm-16 37-17 41c-11-8-15-29-12-56 9 6 19 11 29 15zm8 4c10 4 21 7 31 9-17 21-35 33-48 31l17-40zm3-8 12-30 39 14-17 26-34-10zm15-37 12-30 41 17-13 26c-13-4-27-8-40-14v1zm61-10 33 14-10 19-36-7c5-9 9-17 12-26h1zm40 17 26 10c-5 5-17 7-34 6l8-16zm12-34 3-22c10 15 17 30 17 44-6-9-13-16-20-22zm-8-6c-9-7-19-13-30-19l7-30c9 7 18 15 26 24 0 8-1 17-3 25zm-22-58c2-20 1-38-3-50 17 16 27 42 28 71-7-8-16-15-25-21zm-85-35-33-3c21-20 46-31 70-31-12 6-25 18-37 34zm-6 7-16 26-35-8 15-20c12 0 24 0 36 2zm-60 18c-10-2-20-1-30 1 10-10 25-16 42-19-4 5-9 11-12 18zm-24 58-4 21a80 80 0 0 1-17-43c6 8 13 16 21 22zm7 5c9 7 19 14 30 20l-7 30c-9-7-18-15-26-24 0-9 1-17 3-26zm22 59c-2 20-1 37 3 50-17-16-27-42-28-71 8 7 16 15 25 21zm85 35 33 3a98 98 0 0 1-70 30c12-6 25-17 37-33zm6-7 16-26c12 3 23 6 35 7l-15 20c-12 1-24 0-36-1zm61-18c9 1 19 1 29-1a79 79 0 0 1-42 19l13-18zm-80-195c-20 5-40 18-57 36-15 1-29 5-43 12 25-30 61-48 100-48zM459 679c4 14 11 27 21 39 0 24 5 47 15 65-27-28-40-66-36-104zm129 142c20-6 40-18 57-36 15-1 29-5 43-12-25 30-61 47-100 48zm-61-432 7 3-20 48-7-2 20-49zm-6 25 15 6 4 1 4-2c2-2 4-6 4-9a7 7 0 0 0-5-6l-15-7 2-6 15 6 7 5c2 2 3 5 3 8 1 5-2 11-6 15-2 2-5 3-7 3l-9-1-15-6 3-7zm58-3 6 2-2 56-7-3 2-45-29 34-7-3 37-41zm-22 27 25 11-3 6-25-10 3-7zm43 38-3-2c-3-2-6-5-8-9l6-4 4 6 7 5 9 1c3 0 5-2 5-4l1-5-3-3-5-4h-1l-7-6c-1-1-3-3-3-6-1-3 0-6 1-8l5-7c2-2 5-3 8-3s7 1 10 3a23 23 0 0 1 9 6l4 5-6 4-5-6-5-3c-2-1-5-2-8-1-3 0-4 2-5 4l-1 5 3 3a47 47 0 0 0 6 4v1l7 5 3 6c1 3 0 6-1 8l-5 7c-2 2-5 2-8 2l-10-2-4-2zm42 18-3-2a26 26 0 0 1-8-10l6-3 4 6 7 4c3 1 6 2 9 1 2 0 4-2 5-4v-4l-2-4-5-3v-1h-1l-7-5-3-6c-1-3-1-6 1-9 1-3 2-5 5-7l8-2 10 2a23 23 0 0 1 9 6l3 5-6 4-4-5-5-4-8-1c-3 1-5 2-6 5v4l3 4 5 4h1l7 5 3 6c1 3 0 6-1 9l-5 7-8 2-11-2-3-2zm51-36 7 2-20 49-7-3 20-48zm-6 24 16 6 4 1 4-2 2-4 1-5a7 7 0 0 0-5-6l-15-7 3-6 15 6 7 5 3 8-2 8-5 7c-2 2-4 3-7 3-3 1-6 0-8-1l-16-6 3-7zm36 42-4-8 2-11 6-13c1-4 3-7 6-9l8-4c7 0 14 2 18 8 2 2 3 5 3 8 1 4 0 7-1 11l-6 13c-1 4-3 6-6 9l-9 4c-6 0-13-2-17-8zm16 0 5-2 4-5 6-15 1-6-2-5-5-4h-6l-5 2-3 5-6 14-1 7 2 5c2 3 6 5 10 4zm40-31 6 3-19 48-7-3 20-48zm-6 23 16 6 4 1 3-2c3-2 4-5 4-8 0-2-2-5-5-6l-16-7 3-6 16 7c2 1 5 2 6 4 2 2 3 5 3 7 1 3 0 6-1 8-1 3-2 5-5 7-2 2-4 3-7 3l-8-1-16-7 3-6zm11 10 7 1 3 29-8-4-2-26zm32-18 34 14-2 7-34-14 2-7zm12 10 7 3-18 44-7-3 18-44z"/><path transform="rotate(-68 490 928)" class="st3" d="M461 880h58v96h-58z"/><path transform="rotate(-68 490 928)" class="st2" d="M486 880h8v96h-8z"/><path class="st2" d="M502 934c-2 5-9 7-17 4-7-2-10-9-8-15 2-5 10-7 17-4s11 9 8 15z"/><path class="st1" d="m970 1080 27-441c1-11-7-20-17-20l-226-14c-11-1-20 7-21 18l-27 440c0 11 8 20 18 20l19 2 188 11 19 1c10 1 20-7 20-17z"/><path class="st3" d="m938 1084-226-14c-11-1-19-10-18-20l27-441c1-11 10-19 20-18l226 14c11 1 19 10 18 20l-27 441c-1 10-10 18-20 18z"/><path transform="rotate(-87 851 679) scale(1.00002)" class="st0" d="M796 610h110v138H796z"/><path class="st2" d="m783 713 5-75c12 2 23 12 25 25a33 33 0 0 1 1 8l-1 12v4l-1 4c-5 13-16 21-29 22z"/><path class="st5" d="M861 650s39-2 38 20c0 21 5 30 3 35s-38 7-45 5 4-60 4-60z"/><path class="st6" d="M819 687h-11c-5-1-8-5-8-11 0-5 4-9 9-9h11c2 1 4 1 5 3a11 11 0 0 1 3 8 11 11 0 0 1-3 7h-1c-2 2-3 2-5 2z"/><path class="st7" d="m856 707-16-1c-11-1-20-8-24-19h-4l-1-9v-2l2-9h5c4-10 14-16 25-15l16 1c14 1 25 13 24 27v2c0 6-3 12-7 16-5 6-12 9-20 9z"/><path class="st6" d="m860 707-20-1a26 26 0 0 1-25-28l1-2c0-3 0-6 2-9 4-10 14-16 25-15l21 1a26 26 0 0 1 23 27v2a26 26 0 0 1-4 13l-2 3c-5 6-13 9-21 9z"/><path class="st6" d="M849 717c-6-1-11-6-10-11l21 1-2 4c-1 4-5 6-9 6z"/><path class="st8" d="M849 713c-4-1-7-4-6-7l13 1c-1 3-4 6-7 6z"/><path class="st6" d="m863 653-21-2a10 10 0 0 1 21-1v3z"/><path class="st8" d="M853 646c-4 0-7 2-7 6l13 1c0-4-3-7-6-7z"/><path class="st9" d="m860 707-20-1a26 26 0 0 1-15-7c37 8 43 2 43-7 1-10 13-11 13-11l2 14-2 3c-5 6-13 9-21 9z"/><path class="st10" d="m800 686-4 2-11-10 1-2 21 11h5l-10 5z"/><path class="st4" d="m804 688-2-2h-4l-11-8-2-1v-3l4-2 10-5h3l3-2 4 1-1 1-7 6-1 3 1 3a22 22 0 0 0 7 8l-4 1z"/><path class="st13" d="m801 686-5 2-10-11v-1l21 11h6l-11 5z"/><path class="st10" d="M786 674v-1l11-9 5 2 2-5 9 6h-5z"/><path class="st13" d="M786 675v-1l11-10 5 2 2-5 10 6h-5z"/><path class="st5" d="m886 698 5-16-1-10c-1-5-6-13-6-13l-2-2-2-2h-2l-2-1v1h-2l6 7c2 6 2 14-3 19-7 9-4 28-4 28l13-11z"/><path class="st14" d="m938 1084-19-2 29-478 19 1c11 1 19 10 18 20l-27 441c-1 10-10 18-20 18zm-207-13-19-1c-11-1-19-10-18-21l27-440c1-11 10-19 20-18l19 1-29 479z"/><path class="st2" d="M967 758v5l-2 4-4 2-4-2-1-5v-2l-7-1v-2l18 1zm-9 2v2c0 2 1 4 3 4s4-1 4-4v-2h-7zm-1 11h4v2h-2l2 4v1h-2v-1c0-2-1-3-3-4h-8v-2h9zm7 12-1-2 1-1 2 1-2 2zm-16-4 13 1-1 2-12-1v-2zm12 8-7 2-3 1 3 1 7 3v3l-13-6v-2l13-5v3zm-14 18h2l-2-4c0-2 2-4 4-4 3 1 5 3 4 8h1c1 1 2 0 3-2l-1-4h1l1 4c0 4-3 5-5 5l-5-1h-3v-2zm7 0c0-2 0-5-3-5-1-1-2 0-2 1v1l2 3h3zm9 9h-3l-1 3h-2l1-3h-7l-3 1v2h-2v-2l1-3 4-1 7 1v-2h2v2h3v2zm-11 7c-2 0-4 1-4 3v5h-2v-4c0-4 2-6 6-6s7 3 7 6-3 5-6 5h-1v-9zm1 7c2 0 4-1 4-3s-1-4-3-4l-1 7zm-8 23-1-5a8 8 0 0 1 10-8c5 0 9 4 9 9v1l-1 4-2-1 1-3c0-4-2-7-6-8h-1c-3 0-7 2-7 5l-1 1 1 4-2 1zm-1 9h1l-1-4c0-2 1-3 3-3h1c3 0 4 3 4 8 1 0 3-1 3-3l-1-4h2l1 4c0 4-3 5-6 5l-4-1h-3v-2zm6 0c0-2 0-5-2-5-1-1-2 0-3 1l1 1c-1 1 0 2 1 3h3zm2 6h4v3h-2l2 3v1h-2v-1c0-1-1-3-3-3h-1l-7-1v-2h9zm8 15v5c0 3-1 5-3 7-1 2-4 3-6 2-3 0-5-1-7-3s-2-5-2-8l1-4 17 1zm-16 2v2c-1 4 2 7 6 8h1c4 0 7-2 7-7v-3h-14zm6 15h4v2h-2v1l2 3v1h-2v-1c0-2-1-3-3-3h-1l-7-1 1-2h8zm7 12-1-1v-1l1-1 2 2-2 1zm-16-4 13 1v2h-13v-3zm12 8-7 2-3 1 3 1 7 4v2l-13-6v-2l13-4v2zm3 15-2-2h1l1-1 1 2-1 1zm-16-4 13 1-1 2h-12v-3zm9 7h3v2h-2l2 5c0 1-1 4-6 4l-7-1v-2l7 1c2 0 4-1 4-3s-1-4-3-4h-8v-2h10zm2 26h-4l-7-1c-2 0-4 0-6-2l-1-5 1-4 2 1-1 3c-1 3 1 5 4 5h1l-2-4c1-3 3-6 7-5 4 0 6 3 6 6l-2 4h2v2zm-5-3h1l3-3c0-2-2-4-5-4-2 0-5 1-5 3l2 4h4zm9 13v2l-16-1v8h-2v-10l18 1zm-2 15-2-2c0-1 1-2 2-1l1 1-1 1v1zm-16-4 12 1v2l-13-1 1-2zm-1 15v-3c0-4 2-6 6-6s7 3 7 6v1l-1 3-2-1 1-2c0-3-2-5-5-5-2 0-4 2-5 4l1 3h-2zm5 4c-2 0-4 2-4 4v4l-2 1v-5c0-3 2-6 6-6 4 1 7 3 7 7 0 3-3 5-6 5h-1v-10zm2 7c1 1 3-1 3-2v-1c1-2-1-3-3-4v7zm1 6h3v2h-2l2 4c0 2-1 5-6 4h-7v-2h7c2 0 4 0 4-3l-2-3h-1l-8-1v-2l10 1zm-10 23-1-4c0-3 3-6 6-6h1c4 0 6 3 6 7l-1 4-1-1v-3c0-2-2-4-5-4-2 0-4 1-4 4v3h-1zm5 4c-3 0-5 1-5 4v4h-1l-1-4c0-3 3-6 6-6h1c4 0 7 3 7 6-1 3-3 6-6 5h-2l1-9zm1 7c2 0 4-1 4-3s-2-4-4-4v7z"/><path class="st14" d="m883 888 7-120c1-6 5-10 11-10s10 5 9 11l-7 120c0 6-5 10-11 10-5 0-10-5-9-11z"/><path class="st0" d="m836 1045 17-280c1-5 5-10 11-9 6 0 10 5 9 11l-17 279c0 6-5 10-11 10-5 0-9-5-9-11zm-31-95 11-187c1-6 5-10 11-10 6 1 10 6 10 11l-12 187c-1 6-5 10-11 10-5 0-10-5-9-11zm-40 45 14-234c1-6 5-10 11-10 5 1 10 5 9 11l-14 234c0 6-5 10-11 10-5-1-10-6-9-11z"/><path class="st1" d="m864 1068-79-346c-1-6-8-10-14-9l-183 42c-7 1-11 7-9 14l78 346c2 6 8 10 14 9l124-29 44-9 16-4c6-1 10-8 9-14z"/><path class="st4" d="m841 1072-183 41c-7 2-13-2-15-9l-78-345c-1-7 3-13 9-15l183-41c7-1 13 3 14 9l79 346c1 6-3 12-9 14z"/><path transform="rotate(-13 761 896)" fill="#8f5f18" d="M739 707h45v378h-45z"/><path transform="rotate(-13 684 806)" class="st16" d="M674 750h21v111h-21z"/><path transform="rotate(-13 610 839)" class="st16" d="M602 759h16v160h-16z"/><path transform="rotate(-13 712 927)" class="st16" d="M701 872h21v111h-21z"/><path transform="rotate(-13 734 1028)" class="st16" d="M724 990h21v76h-21z"/><path transform="rotate(-13 659 831)" class="st16" d="M649 756h21v149h-21z"/><path transform="rotate(-13 685 945)" class="st16" d="M675 913h21v63h-21z"/><path transform="rotate(-13 704 1027)" class="st16" d="M693 982h21v91h-21z"/><circle class="st2" cx="514.1" cy="1155.7" r="26.2"/><circle class="st2" cx="1085.7" cy="528.1" r="28.4"/><circle transform="rotate(-62 330 168)" class="st4" cx="330.3" cy="167.7" r="40.5"/></g></svg>