<svg xmlns="http://www.w3.org/2000/svg" viewBox="0 0 1170.14 1252.97"><defs><style>.cls-1{isolation:isolate;}.cls-2{fill:#ecf2fb;}.cls-3{fill:#3a7ec1;mix-blend-mode:multiply;opacity:0.2;}.cls-4{fill:#536582;}.cls-5{fill:#fff;}.cls-6{fill:#f5b646;}.cls-7{fill:#313030;}.cls-8{fill:#f5b799;}.cls-9{fill:#010101;opacity:0.28;}.cls-10{fill:#e29586;}.cls-11{fill:#e59f84;}.cls-12{fill:#5b5a5a;}.cls-13{fill:#d9e4f4;}.cls-14{fill:#64bfb4;}.cls-15{fill:#efeeee;}.cls-16{fill:#c9d7dd;}.cls-17{fill:#8f5f18;}.cls-18{fill:#fedca5;}</style></defs><g class="cls-1"><g id="Layer_4" data-name="Layer 4"><path class="cls-2" d="M360.32,596.24c134.17-25.39,217.31-185.9,199.41-320.87C539.88,125.68,401.89,53.83,378.05,42,295.08,1,140.67-32.55,54.33,55.14c-95.95,97.45-37,272.73,12.66,357.27C80,434.57,196.93,627.15,360.32,596.24Z"/><path class="cls-3" d="M268.09,482.43l34.69-262.77A13.75,13.75,0,0,0,291,204.28L81.26,176.59a13.76,13.76,0,0,0-15.39,11.8L31.19,451.16A13.75,13.75,0,0,0,43,466.54l209.72,27.68A13.74,13.74,0,0,0,268.09,482.43Z"/><rect class="cls-4" x="14.73" y="209.01" width="292.46" height="238.96" rx="13.71" transform="translate(-185.77 445.08) rotate(-82.48)"/><path class="cls-5" d="M31.3,445a7.53,7.53,0,0,0,6.47,8.45L247.5,481.17a7.52,7.52,0,0,0,8.44-6.47l17.35-131.39L48.64,313.66Z"/><path class="cls-2" d="M290.63,211.94,273.29,343.31,48.63,313.66,66,182.28a7.55,7.55,0,0,1,8.46-6.47l209.72,27.68A7.54,7.54,0,0,1,290.63,211.94Z"/><path class="cls-3" d="M281.36,282.19l-7.42,56.17L52.35,309.11,57,250.28l2.15-57.91a7.56,7.56,0,0,1,8.45-6.48l213.45,24.24a7.54,7.54,0,0,1,6.47,8.45Z"/><path class="cls-5" d="M276.28,213.41,66.67,187.33a7.54,7.54,0,0,0-8.45,6.48L48.93,311.46l224.65,29.65,9.17-119.25A7.53,7.53,0,0,0,276.28,213.41Z"/><rect class="cls-2" x="53.01" y="335.31" width="64.37" height="80.61" transform="translate(49.89 -7.92) rotate(7.52)"/><path class="cls-6" d="M101.85,416.38l-43.32-5.71A18.67,18.67,0,0,1,73.9,396.75h0a17.34,17.34,0,0,1,2.61-.2,18.84,18.84,0,0,1,2.47.16l6.7.88a19.36,19.36,0,0,1,2.43.49,17.76,17.76,0,0,1,2.48.87,18.66,18.66,0,0,1,11.24,17.43Z"/><path class="cls-7" d="M68.21,368.64s.89-23,13.35-21.78,18-1.28,20.78.16,2.38,22.35,1.06,26.26S68.21,368.64,68.21,368.64Z"/><path class="cls-8" d="M88.56,394.74l-.84,6.35c-.35,2.69-3.25,4.54-6.43,4.12s-5.51-3-5.15-5.65l.84-6.35a4.36,4.36,0,0,1,1.58-2.8,5,5,0,0,1,.64-.47,5.62,5.62,0,0,1,1.43-.64,6.63,6.63,0,0,1,2.79-.22,6.71,6.71,0,0,1,2.63.93,6.22,6.22,0,0,1,1.21,1l.06.06a5.68,5.68,0,0,1,.44.56A4.41,4.41,0,0,1,88.56,394.74Z"/><path class="cls-9" d="M101.41,373.92l-1.22,9.24A15.28,15.28,0,0,1,88.39,396l-.32,2.44a15.13,15.13,0,0,1-5.3.23l-1.23-.16a15.07,15.07,0,0,1-5.06-1.6l.33-2.44A15.29,15.29,0,0,1,68.75,379L70,369.77a15.28,15.28,0,0,1,17.09-13l1.23.17a15.09,15.09,0,0,1,9,4.53h0A15.22,15.22,0,0,1,101.41,373.92Z"/><path class="cls-8" d="M101.72,371.56l-1.53,11.61a15.17,15.17,0,0,1-3.31,7.64c-.28.33-.57.65-.87.95a12.55,12.55,0,0,1-1.13,1.06A15.46,15.46,0,0,1,88.4,396a15.19,15.19,0,0,1-5.31.24l-1.23-.16A15.28,15.28,0,0,1,68.75,379l1.59-12a15.18,15.18,0,0,1,6.74-10.33,13.28,13.28,0,0,1,1.72-1,15.09,15.09,0,0,1,8.58-1.38l1.23.16a14.72,14.72,0,0,1,6.4,2.42,10.82,10.82,0,0,1,1.09.79,14,14,0,0,1,1.23,1.08A15.24,15.24,0,0,1,101.72,371.56Z"/><path class="cls-8" d="M107,378.47a6.1,6.1,0,0,1-6.85,5.25l1.6-12.1a6.16,6.16,0,0,1,2.3.79h0A6.09,6.09,0,0,1,107,378.47Z"/><path class="cls-10" d="M104.67,378.16a3.8,3.8,0,0,1-4.25,3.26l1-7.5A3.79,3.79,0,0,1,104.67,378.16Z"/><path class="cls-8" d="M70.27,367.47l-1.6,12.1a6.11,6.11,0,0,1,.22-12.13l.29,0h.16A5.93,5.93,0,0,1,70.27,367.47Z"/><path class="cls-10" d="M65.73,373A3.78,3.78,0,0,0,69,377.27l1-7.5A3.78,3.78,0,0,0,65.73,373Z"/><path class="cls-11" d="M101.72,371.56l-1.53,11.61a15.17,15.17,0,0,1-3.31,7.64c-.28.33-.57.65-.87.95,5.9-21.5,2.64-25.16-2.56-25.8-5.6-.71-6-7.75-6-7.75l8.61-.54a14,14,0,0,1,1.23,1.08A15.24,15.24,0,0,1,101.72,371.56Z"/><polygon class="cls-12" points="87.17 405.36 88.3 408.07 81.91 413.75 80.7 413.59 87.66 401.6 88.07 398.47 90.57 404.35 87.17 405.36"/><path class="cls-5" d="M88.49,403.42l-1.58,1.17-.25,1.93-4.83,6-.93,1.13-1.44-.19-1-2.31-2.68-6,.25-1.93-1.22-1.54,1-2.53a5.44,5.44,0,0,0,.28.6v0a12.56,12.56,0,0,0,3.25,4.3,8,8,0,0,0,1.9,1.16,8,8,0,0,0,1.57-.39,12.39,12.39,0,0,0,4.86-3.57c.29-.32.43-.51.43-.51Z"/><polygon class="cls-4" points="87.22 404.97 88.3 408.07 81.03 413.64 80.54 413.57 87.71 401.21 88.13 398.08 90.57 404.35 87.22 404.97"/><polygon class="cls-12" points="79.67 413.46 78.71 413.33 73.77 406.15 75.57 403.83 72.54 401.97 76.48 396.94 76.06 400.07 76.07 400.1 79.67 413.46"/><polygon class="cls-4" points="79.84 413.48 79.35 413.42 73.77 406.15 75.62 403.44 72.54 401.97 76.53 396.55 76.11 399.68 76.13 399.71 79.84 413.48"/><path class="cls-7" d="M97.47,355.63s-7.25-3.28-8.72-3.47a26.17,26.17,0,0,0-6.36,0c-3,.32-7.77,2.89-7.77,2.89l-1,1.45a5.08,5.08,0,0,0-1.1,1c0,.14-.21.61-.36,1l-.85,1.2c.1,0,.34-.06.63-.13l.22,1.29a13.11,13.11,0,0,1,4.59-3.06c3.46-.75,7.94-.46,10.78,2.26,5.16,4.95,16.14,3.91,16.14,3.91Z"/><rect class="cls-13" x="158.74" y="215.19" width="4.44" height="226.6" transform="translate(-185.77 445.08) rotate(-82.48)"/><path class="cls-6" d="M216,361.49l-79.06-10.44A4.59,4.59,0,0,1,133,345.9h0a4.61,4.61,0,0,1,5.15-3.95l79.06,10.43a4.61,4.61,0,0,1,4,5.16h0A4.61,4.61,0,0,1,216,361.49Z"/><path class="cls-2" d="M173.86,372.82l-39.11-5.16a4.61,4.61,0,0,1-4-5.16h0a4.61,4.61,0,0,1,5.16-3.95l39.12,5.17a4.61,4.61,0,0,1,4,5.15h0A4.61,4.61,0,0,1,173.86,372.82Z"/><path class="cls-2" d="M246.87,399.25l-114.3-15.08a4.6,4.6,0,0,1-3.95-5.16h0a4.61,4.61,0,0,1,5.15-3.95l114.3,15.09a4.6,4.6,0,0,1,4,5.15h0A4.61,4.61,0,0,1,246.87,399.25Z"/><path class="cls-2" d="M244.53,417l-114.3-15.09a4.61,4.61,0,0,1-3.95-5.15h0a4.61,4.61,0,0,1,5.15-4l114.31,15.09a4.61,4.61,0,0,1,3.95,5.15h0A4.61,4.61,0,0,1,244.53,417Z"/><path class="cls-2" d="M242.2,434.64,127.9,419.55a4.61,4.61,0,0,1-4-5.15h0a4.61,4.61,0,0,1,5.16-3.95l114.3,15.08a4.62,4.62,0,0,1,3.95,5.16h0A4.61,4.61,0,0,1,242.2,434.64Z"/><path class="cls-14" d="M188.57,456.6c2.82-.47,11.11-2.69,9.53-7.24-1.47-4.23-6.61,2.88-5.93,5.52,1.26,4.93,8.79,1.37,11.26-.21a34.27,34.27,0,0,0,12.68-14.89.88.88,0,0,0-1.34-1,27.44,27.44,0,0,0-8.65,8.27,6.47,6.47,0,0,0-1.3,4,6,6,0,0,0,.46,1.7c.62,1.54.92,1.19-.61,2.07a.89.89,0,0,0,0,1.62c1.33.67,2.66,1.65,4.2,1.59s3.18-1.11,4.48-2l-1.08-1.4a4.62,4.62,0,0,0-2,2.93.88.88,0,0,0,.33.81c2.86,2.19,7.06,0,9.54-1.75l-1.41-.82a11.53,11.53,0,0,1-4.8,8.71c-3.52,2.47-7.72,1.49-11.55.43-1.08-.3-1.78,1.32-.69,1.62,4.18,1.15,8.66,2.2,12.6-.19A13.14,13.14,0,0,0,220.44,456a.89.89,0,0,0-1.4-.81,14.82,14.82,0,0,1-2.8,1.63l-1.44.45c-1,.42-1.44,0-1.45-1.27a.88.88,0,0,0-1.08-1.4c-1.14.8-2.66,1.88-4.16,1.58a13.61,13.61,0,0,1-2.75-1.38c0,.54,0,1.08,0,1.62a9.6,9.6,0,0,0,2.32-1.58.88.88,0,0,0,.12-.88c-.5-1.8-1.68-2.3-.91-4.67a12.75,12.75,0,0,1,2.65-3.81,28.12,28.12,0,0,1,6.31-5.3l-1.35-1A32.49,32.49,0,0,1,202,453.46a14.28,14.28,0,0,1-4.31,1.84c-1.5.35-4,1-3.69-2.27a4.68,4.68,0,0,1,1.24-2.19c1.44-.95.36,1-.15,1.43a8.23,8.23,0,0,1-1.84,1.12,18.47,18.47,0,0,1-4.95,1.47.88.88,0,0,0,.24,1.74Z"/><rect class="cls-2" x="51.41" y="420.11" width="7.03" height="26.78" transform="matrix(0.99, 0.13, -0.13, 0.99, 57.2, -3.46)"/><rect class="cls-2" x="68.97" y="422.42" width="7.03" height="26.78" transform="translate(57.65 -5.74) rotate(7.52)"/><rect class="cls-2" x="61.16" y="421.16" width="3.52" height="26.78" transform="translate(57.41 -4.5) rotate(7.52)"/><rect class="cls-2" x="65.97" y="421.68" width="1.76" height="26.78" transform="translate(57.51 -5.01) rotate(7.52)"/><rect class="cls-2" x="97.99" y="426.26" width="7.03" height="26.78" transform="translate(58.41 -9.5) rotate(7.52)"/><rect class="cls-2" x="115.55" y="428.57" width="7.03" height="26.78" transform="matrix(0.99, 0.13, -0.13, 0.99, 58.86, -11.78)"/><rect class="cls-2" x="107.74" y="427.31" width="3.52" height="26.78" transform="translate(58.61 -10.54) rotate(7.52)"/><rect class="cls-2" x="112.55" y="427.83" width="1.76" height="26.78" transform="translate(58.71 -11.05) rotate(7.52)"/><rect class="cls-2" x="88.58" y="425.01" width="7.03" height="26.78" transform="translate(58.16 -8.28) rotate(7.52)"/><rect class="cls-2" x="150.11" y="433.13" width="7.03" height="26.78" transform="translate(59.75 -16.26) rotate(7.52)"/><rect class="cls-2" x="140.69" y="431.89" width="7.03" height="26.78" transform="translate(59.51 -15.04) rotate(7.52)"/><rect class="cls-2" x="80.78" y="423.75" width="3.52" height="26.78" transform="translate(57.91 -7.04) rotate(7.52)"/><rect class="cls-2" x="85.58" y="424.27" width="1.76" height="26.78" transform="translate(58.01 -7.55) rotate(7.52)"/><rect class="cls-2" x="159.23" y="434.11" width="3.52" height="26.78" transform="translate(59.94 -17.22) rotate(7.52)"/><rect class="cls-2" x="164.04" y="434.62" width="1.76" height="26.78" transform="translate(60.04 -17.73) rotate(7.52)"/><rect class="cls-2" x="131.79" y="430.72" width="7.03" height="26.78" transform="translate(59.28 -13.89) rotate(7.52)"/><rect class="cls-2" x="123.99" y="429.45" width="3.52" height="26.78" transform="translate(59.03 -12.65) rotate(7.52)"/><rect class="cls-2" x="128.79" y="429.97" width="1.76" height="26.78" transform="translate(59.14 -13.16) rotate(7.52)"/><path class="cls-3" d="M468.59,139.55,381.05,83.27h0l-4-2.56a17.06,17.06,0,0,0-23.49,5.11L189.38,341.23a17,17,0,0,0,5.1,23.48l4,2.56h0L286,423.55a17,17,0,0,0,23.48-5.1L412.92,257.56h0l3-4.6h0L473.69,163A17,17,0,0,0,468.59,139.55Z"/><path class="cls-5" d="M375.22,70.88l91.51,58.84a17,17,0,0,1,5.1,23.48L307.62,408.61a17,17,0,0,1-23.48,5.11l-91.52-58.84a17,17,0,0,1-5.1-23.48L351.73,76A17,17,0,0,1,375.22,70.88Z"/><path class="cls-6" d="M375.22,70.88l4,2.55-182.59,284-4-2.55a17,17,0,0,1-5.1-23.48L351.73,76A17,17,0,0,1,375.22,70.88Z"/><circle class="cls-2" cx="394.87" cy="159.72" r="45.14" transform="translate(-24.91 87.5) rotate(-12.26)"/><rect class="cls-2" x="358.89" y="152.15" width="5.47" height="121.06" transform="translate(-12.85 401.84) rotate(-57.26)"/><path class="cls-6" d="M292.46,249.18,228,349.45a6.46,6.46,0,0,1-8.91,1.94h0a6.46,6.46,0,0,1-1.94-8.91l64.47-100.27a6.46,6.46,0,0,1,8.91-1.94h0A6.47,6.47,0,0,1,292.46,249.18Z"/><path class="cls-2" d="M292.77,293.76l-44.28,68.87a6.48,6.48,0,0,1-8.92,1.94h0a6.47,6.47,0,0,1-1.93-8.91l44.28-68.88a6.48,6.48,0,0,1,8.91-1.94h0A6.48,6.48,0,0,1,292.77,293.76Z"/><rect class="cls-2" x="206.75" y="299.13" width="189.66" height="4.88" transform="translate(-115.18 392.15) rotate(-57.26)"/><rect class="cls-2" x="293.69" y="346.54" width="10.75" height="32.05" transform="translate(-167.64 418.05) rotate(-57.26)"/><rect class="cls-2" x="306.46" y="323.22" width="15.19" height="32.05" transform="translate(-141.14 419.95) rotate(-57.26)"/><rect class="cls-2" x="301.66" y="338.32" width="5.37" height="32.05" transform="translate(-158.3 418.72) rotate(-57.26)"/><rect class="cls-2" x="305.73" y="333.15" width="3.91" height="32.05" transform="translate(-152.42 419.14) rotate(-57.26)"/><rect class="cls-2" x="319.14" y="306.97" width="10.75" height="32.05" transform="translate(-122.67 421.28) rotate(-57.26)"/><rect class="cls-2" x="327.11" y="298.75" width="5.37" height="32.05" transform="translate(-113.33 421.95) rotate(-57.26)"/><rect class="cls-2" x="334.15" y="280.15" width="15.19" height="32.05" transform="translate(-92.2 423.47) rotate(-57.26)"/><rect class="cls-2" x="346.83" y="263.9" width="10.75" height="32.05" transform="translate(-73.73 424.79) rotate(-57.26)"/><rect class="cls-2" x="354.8" y="255.68" width="5.37" height="32.05" transform="translate(-64.39 425.46) rotate(-57.26)"/><rect class="cls-2" x="331.17" y="293.57" width="3.91" height="32.05" transform="translate(-107.45 422.37) rotate(-57.26)"/><path class="cls-6" d="M399.42,156.86l29.22-1.62-1.25-5.76-30.73-6.61-2.81-14.23A4.91,4.91,0,0,0,388,124.9l-.51.11a4.91,4.91,0,0,0-3.74,5.82l3.38,14.1L362,163.74l1.25,5.75,27.28-10.69,5.82,24.32a8.44,8.44,0,0,0,.52,1.61l-4.47,4,.7,1.92,8.41-3.06,8.92-.72-.16-2L404.45,183a8.12,8.12,0,0,0-.19-1.65Zm1.92,30.1,0,.17-.05-.16Z"/><path class="cls-3" d="M432.54,234.32,259.38,163.06a20,20,0,0,0-26,10.83l-104,252.85a20,20,0,0,0,10.82,26L313.36,524a20,20,0,0,0,26-10.82L443.37,260.28A20,20,0,0,0,432.54,234.32Z"/><path class="cls-4" d="M310.44,509.17,137.27,437.91a19.93,19.93,0,0,1-10.82-26L230.5,159.1a19.94,19.94,0,0,1,25.95-10.82l173.17,71.26a19.92,19.92,0,0,1,10.82,26l-104,252.86A19.94,19.94,0,0,1,310.44,509.17Z"/><path class="cls-5" d="M307.49,270.28A65.69,65.69,0,1,0,343.25,356,65.76,65.76,0,0,0,307.49,270.28Zm36.42,67.11a51.3,51.3,0,0,0-10.41-18.65c.22-11.68-2.27-22.51-7.15-31.18A62.05,62.05,0,0,1,343.91,337.39Zm-16.2,10.11q1.59-4.12,2.75-8.27c5.91,5.22,9.22,9.9,9.43,13.28Zm-3.64-1.5-15.93-6.55c1.71-4.32,3.2-8.58,4.47-12.74a124,124,0,0,1,14.52,9.75A88.62,88.62,0,0,1,324.07,346ZM304.49,338l-19.42-8,5.77-14a198.59,198.59,0,0,1,18.24,8.78C307.79,329,306.26,333.48,304.49,338Zm-12.15-25.67,5.84-14.19a100.32,100.32,0,0,1,15,8,123,123,0,0,1-3,14.72C304.49,317.75,298.45,314.86,292.34,312.28Zm7.34-17.83,8-19.54c5.21,3.77,7.16,13.81,5.95,26.88A104.34,104.34,0,0,0,299.68,294.45ZM296,293a103.48,103.48,0,0,0-15.11-4.63c8.34-10.13,16.79-15.9,23.15-14.91Zm-1.5,3.64-5.84,14.19c-6.16-2.47-12.48-4.66-18.68-6.46a122.11,122.11,0,0,1,8.23-12.57A99.73,99.73,0,0,1,294.54,296.59Zm-7.34,17.83-5.78,14-19.42-8c1.89-4.42,3.92-8.65,6.07-12.63A196.12,196.12,0,0,1,287.2,314.42ZM258.36,319l-15.93-6.55a84.1,84.1,0,0,1,4.54-8.94,126.11,126.11,0,0,1,17.17,3.29C262.11,310.61,260.18,314.69,258.36,319Zm-19.58-8-12.17-5c2.53-2.26,8.17-3.26,16-2.8C241.26,305.6,240,308.2,238.78,310.91Zm-13.67-1.37,12.17,5c-1.06,2.76-2,5.52-2.74,8.28C228.62,317.61,225.32,312.93,225.11,309.54Zm15.82,6.51,15.93,6.56c-1.72,4.31-3.21,8.58-4.48,12.74a125.94,125.94,0,0,1-14.51-9.75A83.88,83.88,0,0,1,240.93,316.05Zm19.57,8.06,19.42,8-5.77,14a197.11,197.11,0,0,1-18.23-8.78C257.2,333,258.73,328.58,260.5,324.11Zm12.15,25.67L266.81,364a101.35,101.35,0,0,1-15-8,123.79,123.79,0,0,1,3-14.72C260.51,344.3,266.54,347.2,272.65,349.78Zm-7.34,17.83-8,19.54c-5.2-3.77-7.15-13.82-5.94-26.89A103.11,103.11,0,0,0,265.31,367.61Zm3.65,1.5a104.22,104.22,0,0,0,15.1,4.63c-8.34,10.13-16.79,15.89-23.14,14.91Zm1.5-3.64,5.83-14.19c6.16,2.47,12.48,4.66,18.68,6.46a123.77,123.77,0,0,1-8.22,12.57A101.44,101.44,0,0,1,270.46,365.47Zm7.33-17.83,5.78-14,19.42,8c-1.88,4.42-3.92,8.66-6.07,12.64A199.77,199.77,0,0,1,277.79,347.64Zm28.85-4.55,15.93,6.56a86.07,86.07,0,0,1-4.55,8.94,124.74,124.74,0,0,1-17.17-3.3C302.88,351.44,304.82,347.37,306.64,343.09Zm19.57,8.06,12.18,5c-2.54,2.26-8.18,3.25-16.05,2.8C323.74,356.46,325,353.85,326.21,351.15Zm5.33-16.25a84.87,84.87,0,0,0,1.65-10.37c5,6.88,7.9,14,8.07,20.76A47.8,47.8,0,0,0,331.54,334.9Zm-3.45-2.72a137.66,137.66,0,0,0-14.35-9.35,126.46,126.46,0,0,0,3.07-14.2A78.45,78.45,0,0,1,329.55,320,76.18,76.18,0,0,1,328.09,332.18ZM317.4,304.25c1.07-9.62.54-17.9-1.59-24,8.37,7.82,13.17,20.11,13.74,34.13A87.32,87.32,0,0,0,317.4,304.25Zm-40.85-16.81a86.88,86.88,0,0,0-15.77-1.34c10.27-9.55,22.33-14.92,33.78-14.58C288.76,274.35,282.56,279.86,276.55,287.44ZM273.89,291a125.77,125.77,0,0,0-7.82,12.26,138.43,138.43,0,0,0-16.78-3.47,78.93,78.93,0,0,1,7.53-9.66A78.27,78.27,0,0,1,273.89,291Zm-29,8.31a47.53,47.53,0,0,0-14.22.53c4.86-4.66,11.94-7.72,20.35-9.06A83.47,83.47,0,0,0,244.93,299.27Zm-11.47,27.88a83.14,83.14,0,0,0-1.65,10.38c-5-6.88-7.91-14-8.07-20.76A47.29,47.29,0,0,0,233.46,327.15Zm3.44,2.73a139.3,139.3,0,0,0,14.35,9.35,127.74,127.74,0,0,0-3.07,14.2A78.87,78.87,0,0,1,235.44,342,78.55,78.55,0,0,1,236.9,329.88Zm10.7,27.93c-1.07,9.61-.55,17.9,1.58,24-8.37-7.82-13.16-20.12-13.73-34.13A86.17,86.17,0,0,0,247.6,357.81Zm40.84,16.8A85.23,85.23,0,0,0,304.22,376c-10.27,9.56-22.33,14.93-33.78,14.58C276.23,387.71,282.43,382.2,288.44,374.61Zm2.67-3.51a128.92,128.92,0,0,0,7.81-12.26,138.31,138.31,0,0,0,16.78,3.46,77.34,77.34,0,0,1-7.53,9.67A79.44,79.44,0,0,1,291.11,371.1Zm28.95-8.31a47.5,47.5,0,0,0,14.22-.54c-4.85,4.67-11.94,7.72-20.35,9.07A82,82,0,0,0,320.06,362.79Zm-38.12-93.51c-9.57,2.73-19,8.67-27,17.12a51.27,51.27,0,0,0-20.52,5.92A62.06,62.06,0,0,1,281.94,269.28Zm-60.86,55.39a51.27,51.27,0,0,0,10.41,18.64c-.22,11.69,2.28,22.52,7.15,31.19A62.05,62.05,0,0,1,221.08,324.67Zm62,68.11c9.56-2.74,18.95-8.67,27-17.12a51.18,51.18,0,0,0,20.51-5.93A62.08,62.08,0,0,1,283.06,392.78Z"/><path class="cls-5" d="M253.63,186.28l3.25,1.33-9.52,23.12-3.24-1.33ZM250.75,198l7.39,3a3.7,3.7,0,0,0,2.05.27,3.59,3.59,0,0,0,1.81-.89,5.71,5.71,0,0,0,1.72-4.18,3.6,3.6,0,0,0-.66-1.92,3.65,3.65,0,0,0-1.63-1.26l-7.4-3L255.3,187l7.28,3a7.89,7.89,0,0,1,3.28,2.38,6.62,6.62,0,0,1,1.42,3.49,9.14,9.14,0,0,1-3.06,7.44,6.58,6.58,0,0,1-3.46,1.47,8,8,0,0,1-4-.63l-7.28-3Z"/><path class="cls-5" d="M278.77,196.62l2.77,1.14-1,26.63-3.5-1.44,1.27-21.29-14.09,16-3.5-1.44ZM268,209.69l12.16,5-1.27,3.08-12.16-5Z"/><path class="cls-5" d="M288.75,228l-1.36-.93a12.56,12.56,0,0,1-4.17-4.69l3-1.65a9.77,9.77,0,0,0,2.2,2.91,10.84,10.84,0,0,0,3.21,2,7.54,7.54,0,0,0,4.29.67,3.24,3.24,0,0,0,2.46-2.06v0a3,3,0,0,0,.16-2.17,4.06,4.06,0,0,0-1.19-1.72,20.6,20.6,0,0,0-2.31-1.69l-.1-.05-.1-.06-.21-.15a26.71,26.71,0,0,1-3.41-2.45,5.83,5.83,0,0,1-1.74-2.85,6.59,6.59,0,0,1,.52-4.21h0a7.26,7.26,0,0,1,2.47-3.27,6.57,6.57,0,0,1,3.76-1.16,12.16,12.16,0,0,1,4.76,1,11.7,11.7,0,0,1,2.33,1.28,12.57,12.57,0,0,1,2,1.77,15.87,15.87,0,0,1,1.75,2.29l-2.91,1.82a11.73,11.73,0,0,0-2-2.54,8.36,8.36,0,0,0-2.43-1.57,6.64,6.64,0,0,0-4.07-.56,3.36,3.36,0,0,0-2.42,2.14h0a2.77,2.77,0,0,0-.09,2.16,4.37,4.37,0,0,0,1.27,1.7,27.48,27.48,0,0,0,2.53,1.83.41.41,0,0,0,.11.07l.11.07a1.11,1.11,0,0,0,.16.11l.16.1a21.47,21.47,0,0,1,3.09,2.46,6,6,0,0,1,1.57,2.87,6.56,6.56,0,0,1-.53,4v0a6.84,6.84,0,0,1-2.49,3.2,6.75,6.75,0,0,1-3.85,1.1,13,13,0,0,1-4.91-1.1Z"/><path class="cls-5" d="M308.8,236.29l-1.36-.93a12.83,12.83,0,0,1-2.4-2.1,12.61,12.61,0,0,1-1.77-2.59l3-1.65a9.77,9.77,0,0,0,2.2,2.91,10.89,10.89,0,0,0,3.22,2,7.49,7.49,0,0,0,4.28.67,3.24,3.24,0,0,0,2.46-2.06v0a3,3,0,0,0,.16-2.17,4.06,4.06,0,0,0-1.19-1.72,19.49,19.49,0,0,0-2.31-1.68.21.21,0,0,0-.1-.06l-.1-.06-.21-.15a26.71,26.71,0,0,1-3.41-2.45,5.78,5.78,0,0,1-1.74-2.85,6.56,6.56,0,0,1,.52-4.2v0a7.26,7.26,0,0,1,2.47-3.27,6.57,6.57,0,0,1,3.76-1.16,12.16,12.16,0,0,1,4.76,1,11.7,11.7,0,0,1,2.33,1.28,13.08,13.08,0,0,1,2,1.77,15.19,15.19,0,0,1,1.75,2.29l-2.91,1.82a11.73,11.73,0,0,0-2-2.54,8.12,8.12,0,0,0-2.43-1.56,6.65,6.65,0,0,0-4.07-.57,3.36,3.36,0,0,0-2.42,2.14h0a2.78,2.78,0,0,0-.1,2.16,4.3,4.3,0,0,0,1.27,1.7,29,29,0,0,0,2.53,1.83l.11.07.11.08.16.1.16.1a22.18,22.18,0,0,1,3.09,2.46,6,6,0,0,1,1.57,2.87,6.56,6.56,0,0,1-.53,4v0a6.84,6.84,0,0,1-2.49,3.2,6.73,6.73,0,0,1-3.85,1.1,13,13,0,0,1-4.91-1.1Z"/><path class="cls-5" d="M333.19,219l3.24,1.34-9.51,23.12-3.25-1.34Zm-2.89,11.76,7.4,3a3.67,3.67,0,0,0,2,.27,3.49,3.49,0,0,0,1.81-.9,5,5,0,0,0,1.29-1.9,5.15,5.15,0,0,0,.43-2.28,3.59,3.59,0,0,0-.65-1.91,3.68,3.68,0,0,0-1.64-1.26l-7.39-3.05,1.26-3.08,7.29,3a7.87,7.87,0,0,1,3.28,2.38,6.61,6.61,0,0,1,1.41,3.49,8.31,8.31,0,0,1-.66,4.08,8.19,8.19,0,0,1-2.4,3.35,6.55,6.55,0,0,1-3.45,1.47,8,8,0,0,1-4-.62l-7.28-3Z"/><path class="cls-5" d="M347.35,250.92a7.78,7.78,0,0,1-1.62-4.16,10.22,10.22,0,0,1,.83-4.9l2.7-6.55a10.19,10.19,0,0,1,2.85-4.06,7.79,7.79,0,0,1,4.08-1.81,9.82,9.82,0,0,1,8.53,3.51,7.91,7.91,0,0,1,1.62,4.16,10.45,10.45,0,0,1-.83,4.89l-2.7,6.55a10.31,10.31,0,0,1-2.85,4.06,7.88,7.88,0,0,1-4.08,1.82,9.89,9.89,0,0,1-8.53-3.51Zm7.93,0a4.7,4.7,0,0,0,2.44-1.14,6.55,6.55,0,0,0,1.72-2.49l2.79-6.78a6.5,6.5,0,0,0,.53-3,4.67,4.67,0,0,0-.93-2.52,5.2,5.2,0,0,0-2.26-1.68,5.26,5.26,0,0,0-2.78-.39,4.73,4.73,0,0,0-2.44,1.13,6.48,6.48,0,0,0-1.72,2.5l-2.79,6.77a6.4,6.4,0,0,0-.53,3,4.64,4.64,0,0,0,.93,2.52,5.63,5.63,0,0,0,5,2.08Z"/><path class="cls-5" d="M374.17,235.86l3.24,1.33-9.52,23.14L364.65,259Zm-2.81,10.85,7.88,3.25a3.33,3.33,0,0,0,1.82.23,3.19,3.19,0,0,0,1.63-.81,5.21,5.21,0,0,0,1.55-3.77,3.14,3.14,0,0,0-2-2.84l-7.89-3.24,1.27-3.09,7.76,3.19a7.76,7.76,0,0,1,3.18,2.28,6.24,6.24,0,0,1,1.39,3.31,7.67,7.67,0,0,1-.61,3.85,7.58,7.58,0,0,1-2.28,3.16,6.4,6.4,0,0,1-3.33,1.38,7.77,7.77,0,0,1-3.84-.62l-7.76-3.19Zm5.32,5,3.53.6,1.29,13.66-3.85-1.58Z"/><path class="cls-5" d="M392.21,243.3,408.52,250l-1.26,3.09-16.32-6.71Zm5.76,4.58,3.24,1.34-8.74,21.23-3.24-1.34Z"/><rect class="cls-5" x="222.09" y="421.28" width="27.62" height="45.95" transform="translate(-264.7 493.35) rotate(-67.63)"/><rect class="cls-4" x="234.1" y="421.29" width="3.61" height="45.95" transform="translate(-264.71 493.36) rotate(-67.63)"/><path class="cls-4" d="M242,446.79c-1.08,2.63-4.7,3.63-8.09,2.24s-5.25-4.66-4.17-7.29,4.7-3.63,8.09-2.24S243.11,444.16,242,446.79Z"/><path class="cls-3" d="M465.81,516.6l13-210.87a9.09,9.09,0,0,0-8.52-9.63l-108.13-6.67a9.09,9.09,0,0,0-9.64,8.5l-13,210.88a9.09,9.09,0,0,0,8.51,9.64l9.14.56h0L447,524.55h0l9.15.57A9.1,9.1,0,0,0,465.81,516.6Z"/><path class="cls-5" d="M450.28,518.53l-108.13-6.67a9.1,9.1,0,0,1-8.52-9.64l13-210.88a9.08,9.08,0,0,1,9.63-8.5l108.13,6.67a9.09,9.09,0,0,1,8.52,9.63L459.91,510A9.08,9.08,0,0,1,450.28,518.53Z"/><rect class="cls-2" x="382.38" y="292.12" width="52.55" height="65.82" transform="translate(757.73 -63.28) rotate(93.46)"/><path class="cls-4" d="M376.41,341l2.15-35.61a15.25,15.25,0,0,1,12.23,11.71h0a14.83,14.83,0,0,1,.31,2.12,15.1,15.1,0,0,1,0,2l-.34,5.51a13.18,13.18,0,0,1-.26,2,13.59,13.59,0,0,1-.56,2.08A15.24,15.24,0,0,1,376.41,341Z"/><path class="cls-7" d="M413.36,310.79s18.75-.6,18.5,9.62,2.09,14.53,1.08,16.92-18.07,3.24-21.33,2.39S413.36,310.79,413.36,310.79Z"/><path class="cls-8" d="M393.27,328.87l-5.22-.31c-2.21-.13-3.89-2.39-3.73-5s2.1-4.65,4.31-4.51l5.22.31a3.62,3.62,0,0,1,2.37,1.13,4.53,4.53,0,0,1,1,1.62,5.4,5.4,0,0,1,.33,2.26,5.49,5.49,0,0,1-.6,2.2,4.89,4.89,0,0,1-.74,1l0,0a5.22,5.22,0,0,1-.43.39A3.59,3.59,0,0,1,393.27,328.87Z"/><path class="cls-9" d="M411,338.14l-7.6-.46a12.48,12.48,0,0,1-11.17-8.87l-2-.12a12.3,12.3,0,0,1-.5-4.3l.06-1a12.44,12.44,0,0,1,1-4.2l2,.12a12.47,12.47,0,0,1,12.15-7.46l7.6.46a12.48,12.48,0,0,1,11.61,13.16l-.06,1A12.34,12.34,0,0,1,420.9,334h0A12.43,12.43,0,0,1,411,338.14Z"/><path class="cls-8" d="M412.91,338.25l-9.54-.58a12.22,12.22,0,0,1-6.41-2.25c-.29-.2-.57-.43-.83-.65a10.88,10.88,0,0,1-.93-.86,12.41,12.41,0,0,1-3.5-9.4l.06-1a12.22,12.22,0,0,1,1-4.21,12.48,12.48,0,0,1,12.15-7.46l9.9.6a12.42,12.42,0,0,1,8.8,4.89,11.53,11.53,0,0,1,.89,1.34,12.32,12.32,0,0,1,1.62,6.91l-.06,1a12.15,12.15,0,0,1-1.6,5.36,8,8,0,0,1-.58.93,10.25,10.25,0,0,1-.81,1.06A12.45,12.45,0,0,1,412.91,338.25Z"/><path class="cls-8" d="M407.59,342.93a5,5,0,0,1-4.67-5.28l9.94.6a4.92,4.92,0,0,1-.51,1.92h0A5,5,0,0,1,407.59,342.93Z"/><path class="cls-10" d="M407.7,341a3.08,3.08,0,0,1-2.89-3.26l6.16.37A3.09,3.09,0,0,1,407.7,341Z"/><path class="cls-8" d="M414.43,312.4l-9.95-.6a5,5,0,0,1,9.89-.52l0,.23s0,.08,0,.13A6.37,6.37,0,0,1,414.43,312.4Z"/><path class="cls-10" d="M409.64,309a3.09,3.09,0,0,0-3.27,2.89l6.16.38A3.09,3.09,0,0,0,409.64,309Z"/><path class="cls-11" d="M412.91,338.25l-9.54-.58a12.22,12.22,0,0,1-6.41-2.25c-.29-.2-.57-.43-.83-.65,17.85,3.56,20.64.69,20.86-3.58.26-4.6,6-5.3,6-5.3l.94,7a10.25,10.25,0,0,1-.81,1.06A12.45,12.45,0,0,1,412.91,338.25Z"/><polygon class="cls-12" points="384.54 328.35 382.4 329.43 377.4 324.55 377.46 323.57 387.63 328.54 390.2 328.69 385.56 331.06 384.54 328.35"/><path class="cls-6" d="M386.2,329.32l-1.05-1.22-1.58-.1-5.15-3.58-1-.69.07-1.19,1.83-1,4.76-2.54,1.59.1,1.18-1.08,2.12.7-.47.26h0a10.4,10.4,0,0,0-3.31,2.9,6.62,6.62,0,0,0-.83,1.61,5.17,5.17,0,0,0,.41,1.26,10.17,10.17,0,0,0,3.18,3.76c.28.21.44.31.44.31Z"/><polygon class="cls-15" points="384.86 328.37 382.4 329.43 377.44 323.83 377.47 323.43 387.95 328.56 390.52 328.71 385.56 331.06 384.86 328.37"/><polygon class="cls-12" points="377.51 322.72 377.56 321.92 383.12 317.49 385.12 318.82 386.46 316.25 390.78 319.16 388.2 319 388.18 319.01 377.51 322.72"/><polygon class="cls-15" points="377.5 322.85 377.53 322.45 383.12 317.49 385.44 318.84 386.46 316.25 391.1 319.18 388.53 319.02 388.5 319.03 377.5 322.85"/><path class="cls-7" d="M425.64,333.87s2.25-6.1,2.33-7.3a21.69,21.69,0,0,0-.41-5.18c-.43-2.42-2.8-6.17-2.8-6.17l-1.24-.75a4.67,4.67,0,0,0-.91-.84c-.12,0-.51-.13-.86-.23l-1-.62c0,.08.07.27.14.5l-1,.26a10.87,10.87,0,0,1,2.75,3.56c.81,2.77.83,6.44-1.22,8.91-3.73,4.49-2.25,13.37-2.25,13.37Z"/><path class="cls-16" d="M450.28,518.53l-9.15-.56,14.13-229,9.15.56a9.09,9.09,0,0,1,8.52,9.63L459.91,510A9.08,9.08,0,0,1,450.28,518.53Z"/><path class="cls-16" d="M351.28,512.42l-9.13-.56a9.1,9.1,0,0,1-8.52-9.64l13-210.88a9.08,9.08,0,0,1,9.63-8.5l9.14.56Z"/><path class="cls-4" d="M464.17,362.76a11.81,11.81,0,0,1,0,2.12,3.46,3.46,0,0,1-.85,2.34,2.29,2.29,0,0,1-1.83.63,2.46,2.46,0,0,1-1.77-.77,3.5,3.5,0,0,1-.77-2.65,3.71,3.71,0,0,1,.13-.88l-3.41-.21.06-1.1Zm-4.17.84a3.55,3.55,0,0,0-.14.91c-.08,1.32.51,2.17,1.68,2.24s1.72-.69,1.79-1.9a4.58,4.58,0,0,0,0-1Z"/><path class="cls-4" d="M459.57,369c.72,0,1.34.07,1.91.07l-.06,1-1.2,0v0a1.85,1.85,0,0,1,1.24,1.78,1.42,1.42,0,0,1-.06.31l-1.05-.07a1.79,1.79,0,0,0,.06-.37,1.56,1.56,0,0,0-1.33-1.58,3.56,3.56,0,0,0-.52-.08l-3.25-.2.06-1.1Z"/><path class="cls-4" d="M462.86,374.62a.69.69,0,0,1,.08-1.38.68.68,0,0,1,.65.74A.65.65,0,0,1,462.86,374.62Zm-7.75-1.72,6.11.38-.07,1.11L455,374Z"/><path class="cls-4" d="M461,376.66l-3.51,1a16.25,16.25,0,0,1-1.6.4v0c.5.17,1,.38,1.54.62l3.35,1.4-.07,1.16-6-2.78.07-1.06,6.25-1.94Z"/><path class="cls-4" d="M454.34,385.27l.78,0v0a2.27,2.27,0,0,1-.79-1.93,1.74,1.74,0,0,1,1.87-1.76c1.47.09,2.2,1.46,2,3.82h.13a1.26,1.26,0,0,0,1.5-1.3,3.12,3.12,0,0,0-.36-1.62l.75-.2a3.74,3.74,0,0,1,.42,2c-.12,1.86-1.42,2.24-2.64,2.17l-2.29-.15a10.16,10.16,0,0,0-1.47,0Zm3.13,0c.1-1.21,0-2.6-1.21-2.67a1,1,0,0,0-1.13,1,1.53,1.53,0,0,0,.93,1.54,1.13,1.13,0,0,0,.35.09Z"/><path class="cls-4" d="M462,389.74l-1.75-.11-.1,1.59-.85-.05.1-1.59-3.29-.2c-.76-.05-1.2.14-1.24.76a2.93,2.93,0,0,0,0,.65H454a2.58,2.58,0,0,1-.09-1,1.53,1.53,0,0,1,.54-1.17,2.33,2.33,0,0,1,1.62-.33l3.33.21.06-.95.84.05-.06.95,1.47.09Z"/><path class="cls-4" d="M456.74,392.82a2,2,0,0,0-2.25,2,4,4,0,0,0,.21,1.71l-.8.14a4.78,4.78,0,0,1-.26-2.05,2.86,2.86,0,0,1,3.27-2.82c1.84.12,3.22,1.29,3.11,3.07a2.59,2.59,0,0,1-3,2.35,3.27,3.27,0,0,1-.51-.07Zm.59,3.3a1.58,1.58,0,0,0,1.9-1.42,1.84,1.84,0,0,0-1.7-1.82Z"/><path class="cls-4" d="M453.28,407a5.47,5.47,0,0,1-.27-2.27,4,4,0,0,1,4.57-3.94,4.24,4.24,0,0,1,4.19,4.72,4.46,4.46,0,0,1-.5,2l-.88-.31a4.11,4.11,0,0,0,.46-1.7,3.18,3.18,0,0,0-3.31-3.54,3.1,3.1,0,0,0-3.62,3.06,4.6,4.6,0,0,0,.24,1.82Z"/><path class="cls-4" d="M452.72,411.65l.77,0v0a2.28,2.28,0,0,1-.79-1.92,1.74,1.74,0,0,1,1.87-1.76c1.48.09,2.2,1.45,2,3.81h.13a1.26,1.26,0,0,0,1.5-1.3,3.12,3.12,0,0,0-.36-1.62l.75-.21a3.76,3.76,0,0,1,.42,2c-.12,1.87-1.42,2.25-2.64,2.17l-2.29-.14a8.91,8.91,0,0,0-1.47,0Zm3.12,0c.1-1.21,0-2.6-1.21-2.67a1,1,0,0,0-1.13,1,1.54,1.54,0,0,0,.93,1.54,1.11,1.11,0,0,0,.35.08Z"/><path class="cls-4" d="M456.75,414.62c.72,0,1.34.07,1.91.06l-.06,1-1.2,0v.05a1.83,1.83,0,0,1,1.23,1.77,1.4,1.4,0,0,1-.06.32l-1.05-.07a1.28,1.28,0,0,0,.07-.37,1.57,1.57,0,0,0-1.34-1.58,2.48,2.48,0,0,0-.51-.08l-3.26-.21.07-1.09Z"/><path class="cls-4" d="M460.52,421.72a15,15,0,0,1,0,2.35,4.9,4.9,0,0,1-1.27,3.38,4,4,0,0,1-3.13,1,4.53,4.53,0,0,1-3.23-1.43,5.19,5.19,0,0,1-1-3.84,15.86,15.86,0,0,1,.22-2Zm-7.59.63a6.16,6.16,0,0,0-.13,1.11,3.28,3.28,0,0,0,3.38,3.85c2,.13,3.35-.92,3.5-3.25a6.15,6.15,0,0,0,0-1.29Z"/><path class="cls-4" d="M455.81,429.84c.72,0,1.34.07,1.91.06l-.06,1-1.2,0v.05a1.83,1.83,0,0,1,1.23,1.77,1.4,1.4,0,0,1-.06.32l-1-.07a1.79,1.79,0,0,0,.06-.37,1.55,1.55,0,0,0-1.34-1.58,2.48,2.48,0,0,0-.51-.08l-3.26-.21.07-1.09Z"/><path class="cls-4" d="M459.1,435.48a.66.66,0,0,1-.64-.75.67.67,0,0,1,.72-.63.68.68,0,0,1,.66.74A.67.67,0,0,1,459.1,435.48Zm-7.75-1.72,6.11.37-.07,1.11-6.11-.37Z"/><path class="cls-4" d="M457.25,437.52l-3.51,1a15.93,15.93,0,0,1-1.59.39v0c.49.17,1,.38,1.53.61L457,441l-.07,1.16-6-2.77.06-1.06,6.25-1.95Z"/><path class="cls-4" d="M458.54,444.51a.66.66,0,0,1-.64-.75.68.68,0,0,1,.73-.63.69.69,0,0,1,.65.74A.67.67,0,0,1,458.54,444.51Zm-7.75-1.72,6.11.38-.07,1.11-6.11-.38Z"/><path class="cls-4" d="M455.07,446c.63,0,1.15.06,1.65.05l-.06,1h-1v0a2.26,2.26,0,0,1,1,2.09c-.05.85-.64,2.13-2.73,2l-3.65-.23.07-1.11,3.52.22c1,.06,1.83-.25,1.89-1.3a1.63,1.63,0,0,0-1.56-1.67l-3.67-.23.07-1.11Z"/><path class="cls-4" d="M456,458.39c-.44-.05-.93-.1-1.67-.15l-3.55-.22a3.54,3.54,0,0,1-2.74-1,3.28,3.28,0,0,1-.59-2.27,3.88,3.88,0,0,1,.63-2l.83.33a3.39,3.39,0,0,0-.59,1.76c-.07,1.14.47,2,2,2.1l.68.05v0a2.17,2.17,0,0,1-.9-2,2.73,2.73,0,0,1,3.14-2.41c2.07.13,3.16,1.55,3.07,2.95a2,2,0,0,1-1.17,1.84v0l.92.1Zm-2.34-1.29a1.67,1.67,0,0,0,.51,0,1.61,1.61,0,0,0,1.27-1.48c.07-1.06-.78-1.88-2.2-2-1.2-.08-2.23.47-2.3,1.67a1.61,1.61,0,0,0,1,1.61,1.94,1.94,0,0,0,.58.12Z"/><path class="cls-4" d="M458.08,463.06l-.07,1.09-7.58-.46-.23,3.63-.92-.06.29-4.73Z"/><path class="cls-4" d="M457,470.17a.65.65,0,0,1-.64-.74.66.66,0,0,1,.72-.63.67.67,0,0,1,.65.74A.65.65,0,0,1,457,470.17Zm-7.75-1.72,6.11.38-.07,1.11-6.11-.38Z"/><path class="cls-4" d="M449,475.78a4,4,0,0,1-.25-1.78,2.91,2.91,0,0,1,3.3-2.85,3.12,3.12,0,0,1,3,3.48,3.78,3.78,0,0,1-.41,1.53l-.85-.31a2.49,2.49,0,0,0,.37-1.27,2.31,2.31,0,0,0-4.59-.32,3.12,3.12,0,0,0,.22,1.38Z"/><path class="cls-4" d="M451.5,477.79a2,2,0,0,0-2.25,2,4,4,0,0,0,.21,1.71l-.81.14a5,5,0,0,1-.25-2.05,2.84,2.84,0,0,1,3.26-2.82c1.85.12,3.23,1.29,3.12,3.07a2.59,2.59,0,0,1-3,2.35,3.45,3.45,0,0,1-.52-.07Zm.59,3.3a1.58,1.58,0,0,0,1.9-1.42,1.84,1.84,0,0,0-1.7-1.82Z"/><path class="cls-4" d="M452.75,483.6c.63,0,1.15.06,1.65,0l-.06,1h-1v0a2.26,2.26,0,0,1,1,2.09c-.05.85-.64,2.13-2.73,2l-3.65-.23.07-1.11,3.52.22c1,.06,1.83-.26,1.89-1.3a1.56,1.56,0,0,0-1-1.56,1.59,1.59,0,0,0-.51-.11l-3.68-.23.07-1.11Z"/><path class="cls-4" d="M447.82,494.7a4,4,0,0,1-.25-1.78,2.92,2.92,0,0,1,3.31-2.85,3.12,3.12,0,0,1,3,3.49,3.78,3.78,0,0,1-.41,1.52l-.84-.31a2.57,2.57,0,0,0,.36-1.27,2.31,2.31,0,0,0-4.59-.32,3.12,3.12,0,0,0,.22,1.38Z"/><path class="cls-4" d="M450.33,496.71a2,2,0,0,0-2.25,2,4,4,0,0,0,.21,1.71l-.81.14a5,5,0,0,1-.25-2,2.85,2.85,0,0,1,3.26-2.82c1.85.12,3.23,1.29,3.12,3.07a2.59,2.59,0,0,1-3,2.35,3.65,3.65,0,0,1-.52-.07Zm.59,3.3a1.57,1.57,0,0,0,1.9-1.42,1.84,1.84,0,0,0-1.7-1.82Z"/><path class="cls-16" d="M424,425l3.56-57.73a4.88,4.88,0,0,1,5.16-4.55h0a4.86,4.86,0,0,1,4.55,5.15l-3.56,57.73a4.88,4.88,0,0,1-5.15,4.56h0A4.89,4.89,0,0,1,424,425Z"/><path class="cls-2" d="M401.58,500.1l8.26-133.9a4.89,4.89,0,0,1,5.16-4.56h0a4.88,4.88,0,0,1,4.55,5.16l-8.26,133.9a4.88,4.88,0,0,1-5.16,4.55h0A4.86,4.86,0,0,1,401.58,500.1Z"/><path class="cls-2" d="M386.58,454.71l5.53-89.61a4.88,4.88,0,0,1,5.16-4.55h0a4.86,4.86,0,0,1,4.55,5.15l-5.53,89.6a4.88,4.88,0,0,1-5.15,4.56h0A4.88,4.88,0,0,1,386.58,454.71Z"/><path class="cls-2" d="M367.46,476l6.92-112a4.88,4.88,0,0,1,5.15-4.56h0a4.88,4.88,0,0,1,4.56,5.16l-6.91,112A4.89,4.89,0,0,1,372,481.2h0A4.89,4.89,0,0,1,367.46,476Z"/><path class="cls-3" d="M414.85,511,377.31,345.54a5.65,5.65,0,0,0-6.74-4.24L282.8,361.21a5.64,5.64,0,0,0-4.26,6.74l37.54,165.47a5.66,5.66,0,0,0,6.75,4.26l59.3-13.46h0l20.79-4.71h0l7.69-1.75A5.65,5.65,0,0,0,414.85,511Z"/><path class="cls-6" d="M404,512.87,316.2,532.78a5.65,5.65,0,0,1-6.75-4.25L271.91,363.05a5.66,5.66,0,0,1,4.26-6.74L364,336.4a5.64,5.64,0,0,1,6.73,4.25l37.54,165.47A5.65,5.65,0,0,1,404,512.87Z"/><rect class="cls-17" x="355.23" y="338.26" width="21.31" height="180.95" transform="translate(-85.78 91.57) rotate(-12.78)"/><rect class="cls-18" x="302.45" y="380.58" width="53" height="9.98" transform="translate(632.2 -20.53) rotate(77.22)"/><rect class="cls-18" x="255.36" y="397.72" width="76.32" height="7.59" transform="translate(620.15 26.44) rotate(77.22)"/><rect class="cls-18" x="315.6" y="438.56" width="53" height="9.98" transform="translate(698.97 11.8) rotate(77.22)"/><rect class="cls-18" x="334.88" y="486.75" width="36.31" height="9.98" transform="translate(754.49 38.67) rotate(77.22)"/><rect class="cls-18" x="281.48" y="392.64" width="71.27" height="9.98" transform="translate(634.74 0.4) rotate(77.22)"/><rect class="cls-18" x="314.4" y="446.99" width="30.1" height="9.98" transform="translate(697.34 30.7) rotate(77.22)"/><rect class="cls-18" x="316.71" y="486.45" width="43.37" height="9.98" transform="translate(742.8 52.71) rotate(77.22)"/><circle class="cls-4" cx="247.59" cy="553.05" r="12.53"/><circle class="cls-4" cx="521.12" cy="252.75" r="13.57" transform="translate(51.27 591.41) rotate(-61.66)"/><circle class="cls-6" cx="159.62" cy="80.28" r="19.38" transform="translate(13.19 182.65) rotate(-61.66)"/></g></g></svg>