<svg id="Layer_1" data-name="Layer 1" xmlns="http://www.w3.org/2000/svg" viewBox="0 0 24 24"><defs><style>.cls-1{fill:#ebf1fa;}.cls-2{fill:none;}.cls-3{fill:#fdca38;}.cls-4{fill:#526481;}.cls-5{fill:#46556e;}.cls-6{fill:#3e4347;}.cls-7{fill:#ed4c5c;}.cls-8{fill:#f9f9f9;}.cls-9{fill:#75a843;}.cls-10{fill:#699635;}</style></defs><circle class="cls-1" cx="12" cy="12.19" r="10.53"/><rect class="cls-2" width="24" height="24"/><circle class="cls-3" cx="4.53" cy="3.83" r="1.15"/><circle class="cls-4" cx="21.6" cy="16.93" r="0.93"/><circle class="cls-4" cx="4.24" cy="20.06" r="0.39"/><circle class="cls-3" cx="6.51" cy="3.13" r="0.41"/><path class="cls-5" d="M12.49,11.74A1.89,1.89,0,1,0,10.6,9.85a1.87,1.87,0,0,0,1.89,1.89m0-7.18a5.25,5.25,0,0,1,5.29,5.29c0,3.92-5.29,9.81-5.29,9.81S7.21,13.77,7.21,9.85a5.25,5.25,0,0,1,5.28-5.29M5.7,9.85c0,3.4,3.85,8.08,4.53,8.91l-.76.9S4.19,13.77,4.19,9.85A5.27,5.27,0,0,1,8,4.79,6.77,6.77,0,0,0,5.7,9.85Z"/><rect class="cls-2" x="1.92" y="3.05" width="18.12" height="18.12"/><path class="cls-6" d="M16.05,19.81a3.32,3.32,0,0,0,3.14-2.22H12.91A3.32,3.32,0,0,0,16.05,19.81Z"/><path class="cls-7" d="M16.05,13.16a3.34,3.34,0,0,0-3.14,2.21h6.28A3.34,3.34,0,0,0,16.05,13.16Z"/><path class="cls-8" d="M19.19,17.59a3.36,3.36,0,0,0,.19-1.11,3.4,3.4,0,0,0-.19-1.11H12.91a3.4,3.4,0,0,0-.19,1.11,3.36,3.36,0,0,0,.19,1.11Z"/><path class="cls-9" d="M14.83,16.84l.48.31-.18-.51.48-.32H15l-.19-.5-.18.5h-.6l.48.32-.18.51Z"/><path class="cls-9" d="M17.27,16.84l.48.31-.18-.51.48-.32h-.59l-.19-.5-.18.5h-.6l.48.32-.18.51Z"/><path class="cls-7" d="M12.72,16.48a3.32,3.32,0,0,0,2.22,3.14V13.35A3.32,3.32,0,0,0,12.72,16.48Z"/><path class="cls-10" d="M16.05,13.16a3.12,3.12,0,0,0-1.11.19v2h4.25A3.34,3.34,0,0,0,16.05,13.16Z"/><path class="cls-8" d="M19.19,15.37H14.94v2.22h4.25a3.36,3.36,0,0,0,.19-1.11,3.4,3.4,0,0,0-.19-1.11"/><path class="cls-6" d="M14.94,17.59v2a3.36,3.36,0,0,0,1.11.19,3.32,3.32,0,0,0,3.14-2.22Z"/></svg>