<svg xmlns="http://www.w3.org/2000/svg" viewBox="0 0 556.81 577.83"><defs><style>.cls-1{isolation:isolate;}.cls-2{fill:#ecf2fb;}.cls-3{fill:#3a7ec1;mix-blend-mode:multiply;opacity:0.2;}.cls-4{fill:#fecb39;}.cls-5{fill:#dcb02d;}.cls-6{fill:#ffe592;}.cls-7{fill:#e19d2e;}.cls-8{fill:#fedca5;}.cls-9{fill:#fff;}.cls-10{fill:#536582;}.cls-11{fill:#313030;}.cls-12{fill:#f5b799;}.cls-13{fill:#010101;opacity:0.28;}.cls-14{fill:#e29586;}.cls-15{fill:#e59f84;}.cls-16{fill:#5b5a5a;}.cls-17{fill:#293241;}.cls-18{fill:#efeeee;}.cls-19{fill:#64bfb4;}.cls-20{fill:#4b78bc;}.cls-21,.cls-24{fill:#484848;}.cls-22{fill:#ea4d5c;}.cls-23{fill:#5f5f5f;}.cls-24{opacity:0.5;}</style></defs><g class="cls-1"><g id="Layer_1" data-name="Layer 1"><path class="cls-2" d="M254.35,562.36c117.47,20.92,224.52-87.1,241.58-205.5,18.92-131.31-78.71-234.67-95.73-252C341,44.47,220.63-32,128.16,14.15c-102.77,51.3-95.3,216.26-74,302.5C59.73,339.26,111.29,536.89,254.35,562.36Z"/><path class="cls-3" d="M472.57,139.31l-74.22-38A13.06,13.06,0,0,0,380.82,107L274.72,314.07a13.07,13.07,0,0,0,5.66,17.53l74.21,38A13.05,13.05,0,0,0,372.12,364l106.1-207.12A13.07,13.07,0,0,0,472.57,139.31Z"/><path class="cls-4" d="M396.61,90.54l74.22,38a13.06,13.06,0,0,1,5.64,17.53L370.37,353.21a13.05,13.05,0,0,1-17.52,5.66l-74.22-38A13.07,13.07,0,0,1,273,303.32L379.08,96.2A13.07,13.07,0,0,1,396.61,90.54Z"/><path class="cls-5" d="M396.61,90.54l3.22,1.65-118,230.31-3.23-1.65A13.07,13.07,0,0,1,273,303.32L379.08,96.2A13.07,13.07,0,0,1,396.61,90.54Z"/><circle class="cls-6" cx="418.26" cy="156.83" r="34.6" transform="translate(-18.57 63.49) rotate(-8.49)"/><rect class="cls-6" x="394.78" y="153.33" width="4.19" height="92.79" transform="translate(38.18 461.89) rotate(-62.88)"/><path class="cls-7" d="M346.86,232.75,305.2,314.06a5,5,0,0,1-6.65,2.15h0a5,5,0,0,1-2.15-6.66l41.66-81.31a5,5,0,0,1,6.65-2.15h0A5,5,0,0,1,346.86,232.75Z"/><path class="cls-8" d="M350.44,266.72l-28.62,55.86a5,5,0,0,1-6.65,2.14h0a5,5,0,0,1-2.14-6.65l28.61-55.85a5,5,0,0,1,6.65-2.15h0A5,5,0,0,1,350.44,266.72Z"/><rect class="cls-6" x="285.06" y="270.15" width="145.36" height="3.74" transform="translate(-47.46 466.4) rotate(-62.88)"/><rect class="cls-8" x="356.28" y="306.45" width="8.24" height="24.56" transform="translate(-87.59 494.18) rotate(-62.88)"/><rect class="cls-8" x="364.27" y="287.54" width="11.64" height="24.56" transform="translate(-65.49 492.51) rotate(-62.88)"/><rect class="cls-8" x="361.76" y="299.79" width="4.12" height="24.56" transform="translate(-79.8 493.59) rotate(-62.88)"/><rect class="cls-8" x="364.47" y="295.59" width="3" height="24.56" transform="translate(-74.9 493.22) rotate(-62.88)"/><rect class="cls-6" x="372.72" y="274.36" width="8.24" height="24.56" transform="translate(-50.08 491.36) rotate(-62.88)"/><rect class="cls-6" x="378.2" y="267.7" width="4.12" height="24.56" transform="translate(-42.3 490.77) rotate(-62.88)"/><rect class="cls-6" x="382.16" y="252.62" width="11.64" height="24.56" transform="translate(-24.67 489.44) rotate(-62.88)"/><rect class="cls-6" x="390.61" y="239.44" width="8.24" height="24.56" transform="translate(-9.27 488.27) rotate(-62.88)"/><rect class="cls-6" x="396.09" y="232.77" width="4.12" height="24.56" transform="translate(-1.48 487.69) rotate(-62.88)"/><rect class="cls-6" x="380.91" y="263.5" width="3" height="24.56" transform="translate(-37.39 490.39) rotate(-62.88)"/><path class="cls-5" d="M421.52,154.31l22.16-3.43-1.38-4.29-23.94-2.75-3.21-10.64a3.74,3.74,0,0,0-4.71-2.41l-.39.12a3.76,3.76,0,0,0-2.41,4.72l3.63,10.5-17.82,16.23,1.39,4.3,20-10.2,6.27,18.11a5.86,5.86,0,0,0,.52,1.19l-3.11,3.4.67,1.4,6.19-3,6.75-1.22-.27-1.53-4.54-.95a5.76,5.76,0,0,0-.27-1.24Zm3.72,22.81,0,.13-.06-.12Z"/><path class="cls-3" d="M507.08,276.57,392.46,226.24a13.34,13.34,0,0,0-17.52,6.83l-2.22,5.07c-.09.18-.19.35-.27.54L299,406.05a13.33,13.33,0,0,0,6.82,17.51L420.4,473.89a13.33,13.33,0,0,0,17.52-6.83l2.23-5.06c.09-.19.19-.36.27-.55l73.49-167.36A13.34,13.34,0,0,0,507.08,276.57Z"/><path class="cls-9" d="M504,273.5,389.38,223.17A13.32,13.32,0,0,0,371.87,230L298.38,397.36a13.33,13.33,0,0,0,6.83,17.52l114.61,50.33a13.34,13.34,0,0,0,17.52-6.83L510.83,291A13.33,13.33,0,0,0,504,273.5Z"/><rect class="cls-10" x="302.41" y="262.69" width="209.37" height="151.77" rx="13.29" transform="translate(-66.58 575.2) rotate(-66.29)"/><path class="cls-9" d="M424.09,299.89a43.92,43.92,0,1,0,22.55,57.87A44,44,0,0,0,424.09,299.89Zm23.29,45.42a34.31,34.31,0,0,0-6.67-12.62,41.14,41.14,0,0,0-4.29-21A41.52,41.52,0,0,1,447.38,345.31Zm-11,6.51c.76-1.83,1.41-3.66,2-5.49,3.87,3.58,6,6.76,6.09,9ZM434,350.76l-10.54-4.63q1.81-4.29,3.19-8.45a84.51,84.51,0,0,1,9.54,6.74A56,56,0,0,1,434,350.76Zm-13-5.69-12.85-5.65,4.08-9.28a129.34,129.34,0,0,1,12,6.15C423.37,339.17,422.28,342.11,421,345.07Zm-7.71-17.35,4.12-9.39a68.15,68.15,0,0,1,9.89,5.6,82.75,82.75,0,0,1-2.24,9.79C421.34,331.57,417.35,329.54,413.31,327.72Zm5.18-11.8L424.17,303c3.42,2.6,4.56,9.34,3.55,18.06A69.15,69.15,0,0,0,418.49,315.92Zm-2.41-1.06a71,71,0,0,0-10-3.33c5.73-6.64,11.47-10.36,15.7-9.6ZM415,317.27l-4.13,9.39c-4.07-1.74-8.26-3.3-12.38-4.61a82.86,82.86,0,0,1,5.7-8.27A68.15,68.15,0,0,1,415,317.27Zm-5.19,11.81-4.07,9.28-12.86-5.64c1.33-2.93,2.76-5.72,4.25-8.35A130.26,130.26,0,0,1,409.83,329.08Zm-19.34,2.58L379.94,327a59.15,59.15,0,0,1,3.18-5.9,82.65,82.65,0,0,1,11.43,2.47Q392.42,327.41,390.49,331.66Zm-13-5.69-8.06-3.54c1.73-1.47,5.52-2.05,10.77-1.62C379.27,322.46,378.36,324.18,377.53,326Zm-9.12-1.12,8.06,3.53c-.75,1.83-1.41,3.66-2,5.49C370.64,330.29,368.5,327.11,368.41,324.85Zm10.47,4.59,10.55,4.63c-1.22,2.86-2.28,5.69-3.19,8.45a84.71,84.71,0,0,1-9.55-6.74A58.81,58.81,0,0,1,378.88,329.44Zm13,5.69,12.86,5.65-4.08,9.29a129.54,129.54,0,0,1-12.05-6.16C389.49,341,390.59,338.09,391.84,335.13Zm7.72,17.35-4.13,9.39a68,68,0,0,1-9.88-5.6,82.75,82.75,0,0,1,2.24-9.79C391.53,348.63,395.52,350.66,399.56,352.48Zm-5.18,11.8-5.68,12.93c-3.42-2.6-4.57-9.34-3.56-18.06A69.91,69.91,0,0,0,394.38,364.28Zm2.41,1.06a69.19,69.19,0,0,0,10,3.33c-5.73,6.64-11.47,10.36-15.7,9.6Zm1.06-2.41,4.12-9.39c4.08,1.74,8.27,3.31,12.38,4.61a82.84,82.84,0,0,1-5.69,8.27A67.82,67.82,0,0,1,397.85,362.93Zm5.18-11.8,4.08-9.29L420,347.48c-1.32,2.93-2.75,5.72-4.25,8.35A132.72,132.72,0,0,1,403,351.13Zm19.35-2.59,10.54,4.63a54.36,54.36,0,0,1-3.18,5.9,82.85,82.85,0,0,1-11.42-2.47Q420.45,352.79,422.38,348.54Zm12.95,5.69,8.06,3.54c-1.73,1.47-5.51,2.05-10.77,1.62A57.25,57.25,0,0,0,435.33,354.23Zm3.82-10.77a57.16,57.16,0,0,0,1.26-6.91c3.25,4.67,5.07,9.5,5.07,14A31.85,31.85,0,0,0,439.15,343.46Zm-2.26-1.88a93.06,93.06,0,0,0-9.45-6.47,86.29,86.29,0,0,0,2.28-9.44,52.2,52.2,0,0,1,8.33,7.81A51.65,51.65,0,0,1,436.89,341.58Zm-6.72-18.83c.87-6.41.65-11.95-.68-16.05,5.47,5.35,8.48,13.65,8.65,23A58.09,58.09,0,0,0,430.17,322.75Zm-27-11.87a57.59,57.59,0,0,0-10.52-1.14c7-6.23,15.15-9.63,22.8-9.22C411.51,302.32,407.27,305.9,403.14,310.88Zm-1.84,2.31a85.72,85.72,0,0,0-5.41,8.07,92.05,92.05,0,0,0-11.16-2.58,51.72,51.72,0,0,1,5.18-6.34A52,52,0,0,1,401.3,313.19Zm-19.48,5.1a31.91,31.91,0,0,0-9.51.13c3.32-3,8.1-5,13.74-5.74A56.35,56.35,0,0,0,381.82,318.29Zm-8.1,18.46a55.18,55.18,0,0,0-1.27,6.9c-3.25-4.67-5.06-9.5-5.07-14A31.73,31.73,0,0,0,373.72,336.75Zm2.26,1.87a92.37,92.37,0,0,0,9.44,6.47,83.56,83.56,0,0,0-2.27,9.45,53.2,53.2,0,0,1-8.34-7.81A51.64,51.64,0,0,1,376,338.62Zm6.71,18.83c-.87,6.41-.64,12,.68,16.06-5.47-5.36-8.48-13.65-8.64-23A57.32,57.32,0,0,0,382.69,357.45Zm27,11.87a57.73,57.73,0,0,0,10.53,1.15c-7,6.22-15.16,9.62-22.81,9.21C401.36,377.89,405.59,374.3,409.72,369.32Zm1.84-2.31A84.9,84.9,0,0,0,417,359a93.85,93.85,0,0,0,11.16,2.57,51,51,0,0,1-5.18,6.34A52,52,0,0,1,411.56,367ZM431,361.92a31.85,31.85,0,0,0,9.51-.14c-3.31,3-8.1,5-13.74,5.74A55.83,55.83,0,0,0,431,361.92Zm-24-63.09a41.13,41.13,0,0,0-18.33,11,34.35,34.35,0,0,0-13.8,3.64A41.46,41.46,0,0,1,407,298.83Zm-41.53,36.06a34.13,34.13,0,0,0,6.66,12.62,41.12,41.12,0,0,0,4.29,21A41.48,41.48,0,0,1,365.49,334.89Zm40.35,46.49a41.14,41.14,0,0,0,18.33-11A34.4,34.4,0,0,0,438,366.72,41.48,41.48,0,0,1,405.84,381.38Z"/><rect class="cls-9" x="364.29" y="399.69" width="18.47" height="30.72" transform="translate(-156.67 590.19) rotate(-66.29)"/><rect class="cls-10" x="372.32" y="399.69" width="2.41" height="30.72" transform="translate(-156.68 590.19) rotate(-66.29)"/><path class="cls-10" d="M377.58,416.83c-.77,1.74-3.2,2.36-5.44,1.37s-3.44-3.19-2.68-4.93,3.2-2.35,5.45-1.37S378.34,415.09,377.58,416.83Z"/><path class="cls-9" d="M400.54,277.43l3-30.85a.48.48,0,0,1,.06-.18.56.56,0,0,1,.23-.27.59.59,0,0,1,.53,0l2,.89a.55.55,0,0,1,.32.59l-2.54,25.52,17.51-18.74a.56.56,0,0,1,.67-.14l2,.9a.6.6,0,0,1,.34.43.53.53,0,0,1,0,.33.46.46,0,0,1-.13.18l-21.21,22.62a1.58,1.58,0,0,1-2.73-1.24Z"/><path class="cls-9" d="M419.75,286.69a.49.49,0,0,1-.73.3l-1.87-.85a.49.49,0,0,1-.28-.75L429.27,258a.51.51,0,0,1,.76-.28l1.86.84a.5.5,0,0,1,.27.75Z"/><path class="cls-9" d="M428,288.18a8.58,8.58,0,0,1,.22-6.83l0,0a.51.51,0,0,1,.76-.3l1.85.84a.5.5,0,0,1,.27.77l0,0a5.78,5.78,0,0,0,2.87,7.63,5.78,5.78,0,0,0,7.61-2.88l.44-1a4,4,0,0,0-2-5.34l-3.14-1.42a7.2,7.2,0,0,1-3.58-9.52l.43-1A8.92,8.92,0,1,1,450,276.56v0a.5.5,0,0,1-.75.28l-1.85-.84a.5.5,0,0,1-.28-.75v0a5.68,5.68,0,0,0,.15-4.43,5.75,5.75,0,0,0-10.63-.32l-.44,1a4,4,0,0,0,2,5.34l3.13,1.42a7.2,7.2,0,0,1,3.59,9.53l-.44,1a8.91,8.91,0,0,1-16.46-.53Z"/><path class="cls-9" d="M466.77,274.38a8.92,8.92,0,0,1,4.45,11.79l-9,19.79a.52.52,0,0,1-.78.27l-1.82-.82a.53.53,0,0,1-.31-.77l4.86-10.71-10.48-4.75-4.85,10.71a.51.51,0,0,1-.76.29l-1.84-.84a.51.51,0,0,1-.29-.75l9-19.79a8.47,8.47,0,0,1,5-4.64A8.59,8.59,0,0,1,466.77,274.38ZM465.52,291l2.8-6.17a5.75,5.75,0,0,0-10.48-4.75l-2.8,6.17Z"/><path class="cls-3" d="M362.42,376.63l-79.27-258.1a8.63,8.63,0,0,0-10.8-5.71L68.44,175.44a8.63,8.63,0,0,0-5.72,10.79L142,444.32a8.65,8.65,0,0,0,10.8,5.73l203.91-62.63A8.64,8.64,0,0,0,362.42,376.63Z"/><path class="cls-9" d="M288.07,109.18l79.26,258.09a8.65,8.65,0,0,1-5.73,10.8L157.69,440.7a8.65,8.65,0,0,1-10.8-5.73L67.63,176.88a8.62,8.62,0,0,1,5.72-10.79l203.91-62.63A8.66,8.66,0,0,1,288.07,109.18Z"/><rect class="cls-2" x="100.56" y="182.71" width="58" height="72.63" transform="translate(-58.59 47.69) rotate(-17.07)"/><path class="cls-10" d="M158.48,246.19l-37.63,11.56a16.85,16.85,0,0,1,7.37-17.17h0a16.42,16.42,0,0,1,2.06-1.14,18.56,18.56,0,0,1,2.08-.79l5.83-1.79a16.74,16.74,0,0,1,13.9,1.89A16.71,16.71,0,0,1,158.48,246.19Z"/><path class="cls-11" d="M113,219.68s-7.88-19.15,2.78-22.84,14.22-7.78,17.08-7.67,10.33,17.42,10.72,21.12S113,219.68,113,219.68Z"/><path class="cls-12" d="M139.48,233.44l1.7,5.51c.72,2.34-1,5-3.73,5.8s-5.62-.37-6.34-2.71l-1.69-5.51a3.92,3.92,0,0,1,.25-2.89A3.74,3.74,0,0,1,130,233a5.54,5.54,0,0,1,.93-1.07,6.09,6.09,0,0,1,2.21-1.22,5.83,5.83,0,0,1,2.5-.22,5.62,5.62,0,0,1,1.37.35l.06,0a5.23,5.23,0,0,1,.58.29A4,4,0,0,1,139.48,233.44Z"/><path class="cls-13" d="M142.21,211.56l2.46,8a13.77,13.77,0,0,1-4.84,15l.65,2.12a13.55,13.55,0,0,1-4.25,2.17l-1.07.33a13.61,13.61,0,0,1-4.74.59l-.65-2.12A13.79,13.79,0,0,1,117.35,228l-2.46-8A13.76,13.76,0,0,1,124,202.86l1.07-.33a13.69,13.69,0,0,1,9,.36h0A13.73,13.73,0,0,1,142.21,211.56Z"/><path class="cls-12" d="M141.57,209.51l3.1,10.09a13.5,13.5,0,0,1,.15,7.5c-.1.37-.22.74-.35,1.1a12.21,12.21,0,0,1-.53,1.3,13.64,13.64,0,0,1-8.36,7.25l-1.07.33a13.6,13.6,0,0,1-4.74.58A13.78,13.78,0,0,1,117.36,228l-3.22-10.47a13.73,13.73,0,0,1,1.65-11,12.64,12.64,0,0,1,1-1.44,13.58,13.58,0,0,1,6.51-4.35l1.07-.33a13.35,13.35,0,0,1,6.16-.42,9.49,9.49,0,0,1,1.18.24,12,12,0,0,1,1.41.43A13.67,13.67,0,0,1,141.57,209.51Z"/><path class="cls-12" d="M148.47,213.2a5.52,5.52,0,0,1-3.65,6.88l-3.23-10.52a5.47,5.47,0,0,1,2.19-.21h0A5.5,5.5,0,0,1,148.47,213.2Z"/><path class="cls-14" d="M146.46,213.82a3.39,3.39,0,0,1-2.25,4.25l-2-6.51A3.4,3.4,0,0,1,146.46,213.82Z"/><path class="cls-12" d="M114.27,218l3.23,10.52a5.5,5.5,0,0,1-4.37-10l.23-.13.13,0A5.32,5.32,0,0,1,114.27,218Z"/><path class="cls-14" d="M112.63,224.21a3.4,3.4,0,0,0,4.26,2.25l-2-6.51A3.42,3.42,0,0,0,112.63,224.21Z"/><path class="cls-15" d="M141.57,209.51l3.1,10.09a13.5,13.5,0,0,1,.15,7.5c-.1.37-.22.74-.35,1.1-3.23-19.82-7.27-21.6-11.78-20.17-4.84,1.51-7.78-4.12-7.78-4.12l6.85-3.67a12,12,0,0,1,1.41.43A13.67,13.67,0,0,1,141.57,209.51Z"/><polygon class="cls-16" points="142.32 242.66 144.27 244.46 141.16 251.51 140.12 251.83 141.32 239.4 140.49 236.68 144.73 240.56 142.32 242.66"/><path class="cls-17" d="M142.68,240.58l-.85,1.55.51,1.67-1.71,6.71-.34,1.27-1.25.38-1.7-1.51-4.47-3.94-.51-1.67-1.58-.81-.09-2.47s.15.15.45.39l0,0a11.17,11.17,0,0,0,4.28,2.3,6.79,6.79,0,0,0,2,.24,6.75,6.75,0,0,0,1.14-.9,11.27,11.27,0,0,0,2.65-4.75c.11-.37.15-.58.15-.58Z"/><polygon class="cls-18" points="142.22 242.32 144.27 244.46 140.4 251.75 139.97 251.88 141.22 239.06 140.38 236.34 144.73 240.56 142.22 242.32"/><polygon class="cls-16" points="139.22 252.11 138.38 252.37 131.64 248.34 132.25 245.76 129.07 245.37 130.41 239.78 131.24 242.49 131.26 242.51 139.22 252.11"/><polygon class="cls-18" points="139.36 252.06 138.94 252.19 131.64 248.34 132.14 245.42 129.07 245.37 130.31 239.44 131.14 242.15 131.16 242.18 139.36 252.06"/><path class="cls-11" d="M132.12,198.05s-7.18,0-8.45.43a23.62,23.62,0,0,0-5.19,2.42c-2.34,1.38-5.29,5.28-5.29,5.28l-.3,1.58a4.72,4.72,0,0,0-.51,1.26c0,.13.06.57.09,1l-.24,1.3.46-.34.66,1a12,12,0,0,1,2.62-4.23c2.55-1.9,6.33-3.35,9.68-2.18,6.08,2.11,14.69-2.85,14.69-2.85Z"/><path class="cls-2" d="M150.63,286.12,138.11,290a2.92,2.92,0,0,1-3.64-1.93l-3.84-12.52a2.91,2.91,0,0,1,1.92-3.64L145.08,268a2.91,2.91,0,0,1,3.63,1.93l3.85,12.53A2.91,2.91,0,0,1,150.63,286.12Zm-17.36-11.9a.47.47,0,0,0-.31.58l3.85,12.52a.46.46,0,0,0,.58.31l12.53-3.85a.46.46,0,0,0,.3-.58l-3.84-12.52a.46.46,0,0,0-.58-.31Z"/><path class="cls-2" d="M160.43,318l-12.52,3.85a2.92,2.92,0,0,1-3.64-1.93l-3.84-12.53a2.91,2.91,0,0,1,1.92-3.63l12.53-3.85a2.91,2.91,0,0,1,3.63,1.93l3.85,12.52A2.91,2.91,0,0,1,160.43,318Zm-17.36-11.9a.47.47,0,0,0-.31.58l3.85,12.52a.46.46,0,0,0,.58.31l12.53-3.85a.46.46,0,0,0,.3-.58l-3.84-12.52a.46.46,0,0,0-.58-.31Z"/><path class="cls-2" d="M170.23,349.94l-12.52,3.84a2.91,2.91,0,0,1-3.64-1.92l-3.84-12.53a2.91,2.91,0,0,1,1.92-3.63l12.53-3.85a2.91,2.91,0,0,1,3.63,1.93l3.85,12.52A2.91,2.91,0,0,1,170.23,349.94ZM152.87,338a.48.48,0,0,0-.31.59l3.85,12.52a.46.46,0,0,0,.58.31l12.53-3.85a.46.46,0,0,0,.3-.58L166,334.5a.46.46,0,0,0-.58-.31Z"/><path class="cls-2" d="M180,381.85l-12.52,3.84a2.91,2.91,0,0,1-3.64-1.92L160,371.24a2.91,2.91,0,0,1,1.92-3.63l12.53-3.85a2.91,2.91,0,0,1,3.63,1.93L182,378.21A2.91,2.91,0,0,1,180,381.85Zm-17.36-11.91a.47.47,0,0,0-.31.58l3.85,12.53a.47.47,0,0,0,.58.31l12.52-3.85a.46.46,0,0,0,.31-.58l-3.84-12.53a.46.46,0,0,0-.58-.3Z"/><path class="cls-4" d="M151.24,267.43l-.06,0a15.22,15.22,0,0,0-1.83,1.52l-.83.8-.76.84a30.4,30.4,0,0,0-2.73,3.54,31.57,31.57,0,0,0-2.26,3.79c-.38.72-.73,1.47-1.06,2.23-.47-.14-.94-.27-1.42-.38-.66-.17-1.36-.28-2-.4a16.85,16.85,0,0,0-2.16-.18H136a.16.16,0,0,0-.13.08.15.15,0,0,0,.06.19c2.31,1.31,4.65,2.57,7,3.83a.26.26,0,0,0,.35-.1c1.4-2.58,2.79-5.17,4.13-7.78l2-3.91c.69-1.29,1.32-2.62,2-3.92a.16.16,0,0,0,0-.15A.14.14,0,0,0,151.24,267.43Z"/><path class="cls-19" d="M170.7,330.8l0,0a15.33,15.33,0,0,0-1.84,1.52l-.83.8-.76.84a30.4,30.4,0,0,0-2.73,3.54,34.44,34.44,0,0,0-2.26,3.79c-.38.72-.73,1.47-1.06,2.23-.46-.14-.94-.27-1.42-.37-.66-.18-1.35-.29-2-.41a16.7,16.7,0,0,0-2.16-.18h-.07a.12.12,0,0,0-.12.07.13.13,0,0,0,0,.19c2.31,1.31,4.66,2.58,7,3.84a.26.26,0,0,0,.35-.11c1.4-2.58,2.79-5.17,4.13-7.78l2-3.9c.69-1.3,1.33-2.62,2-3.93a.16.16,0,0,0,0-.15A.14.14,0,0,0,170.7,330.8Z"/><path class="cls-19" d="M180.5,362.71l-.05,0a14.58,14.58,0,0,0-1.84,1.52l-.83.8-.76.84a30.4,30.4,0,0,0-2.73,3.54,34.44,34.44,0,0,0-2.26,3.79c-.38.72-.73,1.47-1.06,2.23-.46-.14-.94-.27-1.42-.38-.66-.17-1.35-.28-2-.4a16.7,16.7,0,0,0-2.16-.18h-.07a.12.12,0,0,0-.12.07.14.14,0,0,0,.05.19c2.31,1.31,4.66,2.57,7,3.84a.27.27,0,0,0,.35-.11c1.4-2.58,2.79-5.17,4.13-7.78l2-3.9c.69-1.3,1.33-2.62,2-3.93a.16.16,0,0,0,0-.15A.14.14,0,0,0,180.5,362.71Z"/><path class="cls-2" d="M296.74,229,167.56,268.64a4.08,4.08,0,0,1-5.09-2.7h0a4.08,4.08,0,0,1,2.7-5.1l129.17-39.67a4.08,4.08,0,0,1,5.1,2.7h0A4.09,4.09,0,0,1,296.74,229Z"/><path class="cls-20" d="M219.49,162.37l-55.36,17a4.09,4.09,0,0,1-5.1-2.7h0a4.07,4.07,0,0,1,2.71-5.09l55.36-17a4.07,4.07,0,0,1,5.09,2.71h0A4.08,4.08,0,0,1,219.49,162.37Z"/><path class="cls-2" d="M275.9,161.13,168.64,194.07a4.08,4.08,0,0,1-5.09-2.7h0a4.08,4.08,0,0,1,2.7-5.1l107.26-32.94a4.08,4.08,0,0,1,5.09,2.7h0A4.07,4.07,0,0,1,275.9,161.13Z"/><path class="cls-2" d="M280.12,174.87,172.86,207.81a4.07,4.07,0,0,1-5.09-2.7h0a4.08,4.08,0,0,1,2.7-5.09l107.26-32.94a4.07,4.07,0,0,1,5.1,2.7h0A4.07,4.07,0,0,1,280.12,174.87Z"/><path class="cls-2" d="M251.67,198.65l-74.58,22.91a4.08,4.08,0,0,1-5.1-2.7h0a4.09,4.09,0,0,1,2.7-5.1l74.58-22.9a4.08,4.08,0,0,1,5.1,2.7h0A4.08,4.08,0,0,1,251.67,198.65Z"/><path class="cls-2" d="M300.47,241.12,171.3,280.8a4.08,4.08,0,0,1-5.1-2.71h0a4.08,4.08,0,0,1,2.7-5.09l129.18-39.67a4.08,4.08,0,0,1,5.09,2.7h0A4.08,4.08,0,0,1,300.47,241.12Z"/><path class="cls-2" d="M306.54,260.87,177.36,300.55a4.08,4.08,0,0,1-5.09-2.7h0a4.08,4.08,0,0,1,2.7-5.09l129.17-39.67a4.08,4.08,0,0,1,5.1,2.7h0A4.08,4.08,0,0,1,306.54,260.87Z"/><path class="cls-2" d="M310.27,273,181.1,312.7A4.07,4.07,0,0,1,176,310h0a4.08,4.08,0,0,1,2.7-5.09l129.18-39.67a4.08,4.08,0,0,1,5.09,2.7h0A4.08,4.08,0,0,1,310.27,273Z"/><path class="cls-2" d="M316.34,292.78,187.16,332.45a4.06,4.06,0,0,1-5.09-2.7h0a4.08,4.08,0,0,1,2.7-5.09L313.94,285a4.08,4.08,0,0,1,5.1,2.7h0A4.08,4.08,0,0,1,316.34,292.78Z"/><path class="cls-2" d="M320.07,304.94,190.9,344.61a4.08,4.08,0,0,1-5.1-2.7h0a4.08,4.08,0,0,1,2.7-5.09l129.18-39.67a4.06,4.06,0,0,1,5.09,2.7h0A4.08,4.08,0,0,1,320.07,304.94Z"/><path class="cls-2" d="M326.14,324.69,197,364.36a4.07,4.07,0,0,1-5.09-2.7h0a4.08,4.08,0,0,1,2.7-5.09L323.74,316.9a4.07,4.07,0,0,1,5.1,2.7h0A4.08,4.08,0,0,1,326.14,324.69Z"/><path class="cls-2" d="M329.87,336.85,200.7,376.52a4.08,4.08,0,0,1-5.1-2.7h0a4.08,4.08,0,0,1,2.7-5.09l129.18-39.68a4.07,4.07,0,0,1,5.09,2.71h0A4.08,4.08,0,0,1,329.87,336.85Z"/><path class="cls-3" d="M384.47,367.5,346.59,100.18a8.64,8.64,0,0,0-9.78-7.34l-211.2,29.93a8.62,8.62,0,0,0-7.34,9.76l37.88,267.32a8.64,8.64,0,0,0,9.77,7.34l211.2-29.93A8.64,8.64,0,0,0,384.47,367.5Z"/><path class="cls-9" d="M353.19,90.23l37.89,267.31a8.66,8.66,0,0,1-7.36,9.77l-211.2,29.93a8.63,8.63,0,0,1-9.76-7.34L124.88,122.58a8.62,8.62,0,0,1,7.34-9.76l211.2-29.93A8.63,8.63,0,0,1,353.19,90.23Z"/><rect class="cls-2" x="150.44" y="137.59" width="58" height="72.63" transform="translate(-22.63 26.9) rotate(-8.07)"/><path class="cls-10" d="M203.76,205.26l-39,5.52a16.82,16.82,0,0,1,10-15.8h0a15,15,0,0,1,2.22-.81,16.84,16.84,0,0,1,2.18-.46l6-.85a16.72,16.72,0,0,1,2.22-.17,15.56,15.56,0,0,1,2.37.16,16.77,16.77,0,0,1,14,12.41Z"/><path class="cls-11" d="M163,172s-4.79-20.15,6.32-22.13,15.26-5.46,18.06-4.9,7.49,18.82,7.29,22.54S163,172,163,172Z"/><path class="cls-12" d="M187,189.69l.81,5.71c.34,2.42-1.72,4.73-4.59,5.14s-5.49-1.24-5.83-3.66l-.81-5.71a4.31,4.31,0,0,1,1.13-3.38,5.38,5.38,0,0,1,1.09-.91,6.1,6.1,0,0,1,4.88-.69,5.56,5.56,0,0,1,1.29.57l.06,0a3.85,3.85,0,0,1,.52.38A4,4,0,0,1,187,189.69Z"/><path class="cls-13" d="M193.11,168.51l1.18,8.32a13.79,13.79,0,0,1-7.13,14l.31,2.19a13.63,13.63,0,0,1-4.54,1.49l-1.11.16a13.63,13.63,0,0,1-4.78-.17l-.31-2.2A13.75,13.75,0,0,1,166,180.84l-1.18-8.32a13.78,13.78,0,0,1,11.67-15.46l1.12-.15a13.63,13.63,0,0,1,8.87,1.76h0A13.78,13.78,0,0,1,193.11,168.51Z"/><path class="cls-12" d="M192.8,166.38l1.48,10.45a13.59,13.59,0,0,1-1,7.43c-.16.36-.34.7-.52,1s-.47.81-.73,1.19a13.69,13.69,0,0,1-9.39,5.86l-1.11.16A13.76,13.76,0,0,1,166,180.84L164.45,170a13.76,13.76,0,0,1,3.35-10.59,12.49,12.49,0,0,1,1.26-1.26,13.6,13.6,0,0,1,7.12-3.28l1.1-.15a13.36,13.36,0,0,1,6.15.55,9,9,0,0,1,1.13.42,14.71,14.71,0,0,1,1.33.64A13.71,13.71,0,0,1,192.8,166.38Z"/><path class="cls-12" d="M199,171.11a5.5,5.5,0,0,1-4.67,6.22l-1.55-10.89a5.34,5.34,0,0,1,2.19.13h0A5.5,5.5,0,0,1,199,171.11Z"/><path class="cls-14" d="M197,171.4a3.41,3.41,0,0,1-2.9,3.85l-.95-6.74A3.41,3.41,0,0,1,197,171.4Z"/><path class="cls-12" d="M164.51,170.45l1.55,10.89a5.5,5.5,0,0,1-2.75-10.58l.25-.09.13,0A5.71,5.71,0,0,1,164.51,170.45Z"/><path class="cls-14" d="M161.92,176.37a3.39,3.39,0,0,0,3.84,2.89l-.95-6.74A3.4,3.4,0,0,0,161.92,176.37Z"/><path class="cls-15" d="M192.8,166.38l1.48,10.45a13.59,13.59,0,0,1-1,7.43c-.16.36-.34.7-.52,1-.09-20.09-3.8-22.47-8.48-21.77-5,.73-7-5.29-7-5.29l7.34-2.55a14.71,14.71,0,0,1,1.33.64A13.71,13.71,0,0,1,192.8,166.38Z"/><polygon class="cls-16" points="188.35 199.25 189.99 201.32 185.82 207.8 184.74 207.95 187.87 195.86 187.47 193.05 191.06 197.54 188.35 199.25"/><path class="cls-17" d="M189,197.24l-1.09,1.4.25,1.73-2.74,6.35-.54,1.21-1.29.18-1.44-1.76-3.8-4.59-.24-1.73L176.71,199l.29-2.45a5.45,5.45,0,0,0,.39.46v0a11.24,11.24,0,0,0,3.87,2.94,6.66,6.66,0,0,0,1.92.55,5.81,5.81,0,0,0,1.27-.72,11.09,11.09,0,0,0,3.36-4.27,4.7,4.7,0,0,0,.24-.55Z"/><polygon class="cls-18" points="188.3 198.89 189.99 201.32 185.03 207.91 184.59 207.97 187.82 195.51 187.42 192.69 191.06 197.54 188.3 198.89"/><polygon class="cls-16" points="183.81 208.09 182.94 208.21 176.91 203.18 177.91 200.72 174.84 199.84 177.04 194.53 177.44 197.34 177.45 197.37 183.81 208.09"/><polygon class="cls-18" points="183.96 208.06 183.52 208.13 176.91 203.18 177.87 200.37 174.84 199.84 176.99 194.17 177.39 196.99 177.4 197.01 183.96 208.06"/><path class="cls-11" d="M185.25,153.58s-7.09-1.08-8.4-.9a24.27,24.27,0,0,0-5.51,1.58c-2.52,1-6.05,4.39-6.05,4.39l-.54,1.51a4.62,4.62,0,0,0-.7,1.17c0,.13,0,.57-.07,1l-.44,1.25.51-.27.5,1.06a11.89,11.89,0,0,1,3.25-3.76c2.82-1.48,6.78-2.32,9.9-.64,5.68,3,15-.52,15-.52Z"/><path class="cls-2" d="M189.76,243.47l-13,1.83a2.91,2.91,0,0,1-3.29-2.47l-1.83-13a2.91,2.91,0,0,1,2.47-3.29l13-1.84a2.92,2.92,0,0,1,3.29,2.48l1.84,13A2.92,2.92,0,0,1,189.76,243.47ZM174.47,229a.46.46,0,0,0-.39.53l1.83,13a.47.47,0,0,0,.53.39l13-1.83a.48.48,0,0,0,.4-.53l-1.84-13a.47.47,0,0,0-.53-.4Z"/><path class="cls-2" d="M194.44,276.51l-13,1.84a2.9,2.9,0,0,1-3.29-2.47l-1.84-13a2.91,2.91,0,0,1,2.47-3.29l13-1.84a2.92,2.92,0,0,1,3.29,2.47l1.84,13A2.89,2.89,0,0,1,194.44,276.51ZM179.15,262a.46.46,0,0,0-.39.53l1.84,13a.46.46,0,0,0,.52.39l13-1.83a.47.47,0,0,0,.39-.53l-1.84-13a.46.46,0,0,0-.52-.4Z"/><path class="cls-2" d="M199.12,309.56l-13,1.84a2.91,2.91,0,0,1-3.29-2.47L181,296a2.92,2.92,0,0,1,2.48-3.29l13-1.84a2.92,2.92,0,0,1,3.29,2.47l1.83,13A2.9,2.9,0,0,1,199.12,309.56Zm-15.28-14.47a.47.47,0,0,0-.4.53l1.84,13a.46.46,0,0,0,.53.39l13-1.84a.46.46,0,0,0,.39-.52l-1.83-13a.48.48,0,0,0-.53-.4Z"/><path class="cls-2" d="M203.81,342.61l-13,1.84a2.91,2.91,0,0,1-3.29-2.47l-1.83-13a2.9,2.9,0,0,1,2.47-3.29l13-1.84a2.92,2.92,0,0,1,3.29,2.47l1.84,13A2.91,2.91,0,0,1,203.81,342.61Zm-15.29-14.47a.46.46,0,0,0-.39.53l1.83,13a.47.47,0,0,0,.53.39l13-1.84a.46.46,0,0,0,.4-.52l-1.84-13a.46.46,0,0,0-.53-.4Z"/><path class="cls-4" d="M193.28,225.1l-.06,0a15.8,15.8,0,0,0-2.05,1.21l-.95.67-.88.71a29.6,29.6,0,0,0-3.25,3.07,33.67,33.67,0,0,0-2.82,3.38c-.49.66-1,1.34-1.4,2-.44-.21-.88-.41-1.34-.59-.62-.28-1.3-.49-2-.72a17,17,0,0,0-2.1-.52h-.07a.13.13,0,0,0-.13,0,.14.14,0,0,0,0,.2c2.08,1.66,4.2,3.27,6.31,4.88a.27.27,0,0,0,.37-.05c1.79-2.33,3.56-4.66,5.29-7l2.62-3.54c.88-1.18,1.72-2.38,2.58-3.57a.16.16,0,0,0,0-.15A.14.14,0,0,0,193.28,225.1Z"/><path class="cls-4" d="M207.27,323.79l-.06,0a15.15,15.15,0,0,0-2.05,1.21l-.95.66-.89.71a30.48,30.48,0,0,0-3.24,3.07,32.58,32.58,0,0,0-2.83,3.39c-.49.66-.95,1.34-1.39,2-.44-.2-.89-.4-1.35-.59-.62-.27-1.29-.49-1.95-.71a15.49,15.49,0,0,0-2.11-.52l-.07,0a.15.15,0,0,0-.13.06.13.13,0,0,0,0,.19c2.08,1.66,4.2,3.28,6.32,4.89a.27.27,0,0,0,.36-.05q2.69-3.5,5.3-7l2.61-3.54c.89-1.17,1.72-2.38,2.58-3.57a.14.14,0,0,0,0-.14A.14.14,0,0,0,207.27,323.79Z"/><path class="cls-4" d="M202.92,290.11l-.06,0a15.15,15.15,0,0,0-2.05,1.21l-.95.67-.89.71a30.48,30.48,0,0,0-3.24,3.07,31.18,31.18,0,0,0-2.82,3.38c-.5.66-1,1.34-1.4,2-.44-.21-.89-.41-1.35-.59-.62-.28-1.29-.49-1.95-.72a17.12,17.12,0,0,0-2.11-.52H186a.14.14,0,0,0-.13.05.14.14,0,0,0,0,.2c2.08,1.66,4.2,3.27,6.32,4.88a.25.25,0,0,0,.36-.05c1.79-2.33,3.56-4.66,5.3-7l2.61-3.54c.89-1.18,1.72-2.38,2.58-3.57a.16.16,0,0,0,0-.15A.15.15,0,0,0,202.92,290.11Z"/><path class="cls-2" d="M343,209.89l-133.79,19a4.08,4.08,0,0,1-4.61-3.47h0a4.07,4.07,0,0,1,3.46-4.61l133.79-19a4.08,4.08,0,0,1,4.61,3.47h0A4.07,4.07,0,0,1,343,209.89Z"/><path class="cls-10" d="M277.14,132l-57.34,8.13a4.08,4.08,0,0,1-4.61-3.47h0a4.07,4.07,0,0,1,3.46-4.61L276,124a4.07,4.07,0,0,1,4.61,3.46h0A4.07,4.07,0,0,1,277.14,132Z"/><path class="cls-2" d="M333.05,139.63,222,155.37a4.09,4.09,0,0,1-4.61-3.47h0a4.09,4.09,0,0,1,3.47-4.61L331.9,131.55a4.08,4.08,0,0,1,4.61,3.47h0A4.07,4.07,0,0,1,333.05,139.63Z"/><path class="cls-2" d="M335.07,153.86,224,169.61a4.09,4.09,0,0,1-4.61-3.47h0a4.09,4.09,0,0,1,3.47-4.61l111.09-15.74a4.07,4.07,0,0,1,4.61,3.46h0A4.07,4.07,0,0,1,335.07,153.86Z"/><path class="cls-2" d="M303.24,172.9,226,183.84a4.07,4.07,0,0,1-4.61-3.46h0a4.08,4.08,0,0,1,3.47-4.61l77.24-11a4.08,4.08,0,0,1,4.61,3.47h0A4.07,4.07,0,0,1,303.24,172.9Z"/><path class="cls-2" d="M344.79,222.48,211,241.44a4.07,4.07,0,0,1-4.61-3.46h0a4.08,4.08,0,0,1,3.47-4.61l133.79-19a4.07,4.07,0,0,1,4.61,3.46h0A4.08,4.08,0,0,1,344.79,222.48Z"/><path class="cls-2" d="M347.69,242.94l-133.79,19a4.08,4.08,0,0,1-4.61-3.47h0a4.07,4.07,0,0,1,3.46-4.61l133.8-19a4.07,4.07,0,0,1,4.6,3.47h0A4.07,4.07,0,0,1,347.69,242.94Z"/><path class="cls-2" d="M349.47,255.53l-133.79,19a4.07,4.07,0,0,1-4.61-3.46h0a4.08,4.08,0,0,1,3.47-4.61l133.79-19a4.07,4.07,0,0,1,4.61,3.46h0A4.08,4.08,0,0,1,349.47,255.53Z"/><path class="cls-2" d="M352.37,276,218.58,295a4.09,4.09,0,0,1-4.61-3.47h0a4.09,4.09,0,0,1,3.47-4.61l133.79-19a4.09,4.09,0,0,1,4.61,3.47h0A4.09,4.09,0,0,1,352.37,276Z"/><path class="cls-2" d="M354.16,288.58l-133.79,19a4.07,4.07,0,0,1-4.61-3.46h0a4.07,4.07,0,0,1,3.46-4.61l133.79-19a4.07,4.07,0,0,1,4.61,3.46h0A4.07,4.07,0,0,1,354.16,288.58Z"/><path class="cls-2" d="M357.06,309,223.27,328a4.08,4.08,0,0,1-4.61-3.47h0a4.07,4.07,0,0,1,3.46-4.61l133.79-19a4.08,4.08,0,0,1,4.61,3.47h0A4.07,4.07,0,0,1,357.06,309Z"/><path class="cls-2" d="M358.84,321.63l-133.79,19a4.07,4.07,0,0,1-4.61-3.46h0a4.08,4.08,0,0,1,3.47-4.61l133.79-19a4.07,4.07,0,0,1,4.61,3.46h0A4.08,4.08,0,0,1,358.84,321.63Z"/><path class="cls-21" d="M177.59,122.66l-5.81-19.49a6.4,6.4,0,0,0-12.27,3.67l.6,2,1.11-.16-.65-2.18a5.31,5.31,0,0,1,3.56-6.59,5.33,5.33,0,0,1,6.59,3.56L176.53,123a5.29,5.29,0,0,1-10.15,3l-3.23-10.85-.92.13-.19,0,3.28,11a6.41,6.41,0,0,0,7,4.51,6.3,6.3,0,0,0,.94-.2A6.41,6.41,0,0,0,177.59,122.66Z"/><path class="cls-22" d="M208.5,296.39l-4.06,1.67-3.74-4.32-8.11,3.32.41,5.7-3.24,1.33-1.66-23.94,4.68-1.92Zm-10.07-5.28L191.5,283l.79,10.67Z"/><path class="cls-22" d="M214.83,293.79l-3.8,1.56-8.65-21.06,8.63-3.55c2.46-1,4.53-1.14,6.23-.38a7,7,0,0,1,3.58,9.12,7.44,7.44,0,0,1-4.16,3.8l-5.26,2.16Zm-4.77-11.6,4.49-1.85a4.09,4.09,0,0,0,2.33-2,3.22,3.22,0,0,0,0-2.68,3.37,3.37,0,0,0-1.76-1.87,4.45,4.45,0,0,0-3.48.34l-4.15,1.71Z"/><path class="cls-22" d="M233.76,286,230,287.58l-8.65-21.07,8.62-3.54q3.69-1.52,6.24-.39a7,7,0,0,1,3.58,9.13,7.51,7.51,0,0,1-4.16,3.8l-5.26,2.16ZM229,274.41l4.49-1.84a4.11,4.11,0,0,0,2.33-2,3.25,3.25,0,0,0,0-2.68,3.38,3.38,0,0,0-1.77-1.87,4.47,4.47,0,0,0-3.47.34l-4.15,1.71Z"/><path class="cls-22" d="M265.33,273.06l-4,1.64-6.82-7.31-5.34,2.19,3.55,8.66-3.8,1.56-8.65-21.07,9.14-3.75c2.54-1,4.65-1.24,6.31-.58a6.42,6.42,0,0,1,3.62,3.72,6,6,0,0,1-1.5,7.14Zm-17.43-6.52,4.72-1.94a4.94,4.94,0,0,0,2.7-2.12,3.24,3.24,0,0,0,0-2.79,3.1,3.1,0,0,0-1.91-1.84,4.47,4.47,0,0,0-3.12.28l-5,2.07Z"/><path class="cls-22" d="M276.83,268.71a8.3,8.3,0,0,1-7.82-.46,13.73,13.73,0,0,1-5.54-6.82,12.86,12.86,0,0,1-.67-8.72,8.66,8.66,0,0,1,5.29-5.79,8.4,8.4,0,0,1,7.76.43,13.35,13.35,0,0,1,5.56,6.76,12.94,12.94,0,0,1,.76,8.9A8.75,8.75,0,0,1,276.83,268.71Zm-1.22-3.07a4.73,4.73,0,0,0,2.78-3.12q.72-2.28-1.11-6.74a12.6,12.6,0,0,0-3.51-5.21,4.22,4.22,0,0,0-4.49-.56q-4.87,2-1.65,9.85a11.78,11.78,0,0,0,3.61,5.27A4.27,4.27,0,0,0,275.61,265.64Z"/><path class="cls-22" d="M296.84,260.11,293,261.7l-15.15-18.4,4-1.65,11.46,14.16-1.69-18.17,3.16-1.3Z"/><path class="cls-22" d="M319.52,250.8l-13.69,5.63-8.66-21.07,13.56-5.57,1.28,3.14-9.75,4,2.34,5.71,7.84-3.22,1.26,3.06-7.84,3.22,2.42,5.9,9.89-4.07Z"/><path class="cls-22" d="M322.68,249.5,314,228.44l7.76-3.19a9.35,9.35,0,0,1,8.17.21,12.13,12.13,0,0,1,5.7,6.45,11.72,11.72,0,0,1,.38,8.59q-1.44,4.11-6.45,6.17Zm2.63-4.7,3.17-1.3a6.16,6.16,0,0,0,3.53-3.69q1-2.64-.56-6.42a9.38,9.38,0,0,0-3.7-4.59,5.23,5.23,0,0,0-5-.46l-3.62,1.49Z"/><path class="cls-22" d="M343.88,253.89,194.72,315.14A9.49,9.49,0,0,1,182.34,310l-10.69-26a9.49,9.49,0,0,1,5.17-12.38L326,210.31a9.49,9.49,0,0,1,12.38,5.17l10.69,26A9.51,9.51,0,0,1,343.88,253.89ZM178.26,275.08a5.69,5.69,0,0,0-3.1,7.42l10.69,26a5.69,5.69,0,0,0,7.42,3.1l149.17-61.25a5.7,5.7,0,0,0,3.11-7.43l-10.69-26a5.7,5.7,0,0,0-7.43-3.1Z"/><rect class="cls-3" x="262.31" y="389.36" width="113.07" height="56.12" rx="10.28"/><rect class="cls-21" x="266.1" y="385.71" width="113.07" height="56.12" rx="10.28"/><path class="cls-23" d="M379.18,387.38v35.55a10.32,10.32,0,0,1-10.29,10.28h-92.5a10.31,10.31,0,0,1-10.28-10.28V387.38a10.31,10.31,0,0,1,10.28-10.29h92.5A10.33,10.33,0,0,1,379.18,387.38Z"/><path class="cls-21" d="M310.27,357.45V403.3c0,5.78,5.54,10.47,12.37,10.47S335,409.08,335,403.3V357.45Z"/><ellipse class="cls-23" cx="322.64" cy="357.45" rx="12.37" ry="10.62"/><polygon class="cls-24" points="332.77 409.3 308.87 433.21 280.21 433.21 318.46 394.98 332.77 409.3"/><circle class="cls-10" cx="179.32" cy="47.16" r="14.12" transform="translate(104.04 216.62) rotate(-80.78)"/><circle class="cls-4" cx="499.03" cy="199.22" r="8.12"/><circle class="cls-4" cx="254.29" cy="497.67" r="12.06" transform="translate(-277.43 325.57) rotate(-45)"/></g></g></svg>