<svg xmlns="http://www.w3.org/2000/svg" viewBox="40.93 -0.11 477.78 564.75"><defs><style>.cls-2{fill:#ecf2fb}.cls-3{fill:#3a7ec1;mix-blend-mode:multiply;opacity:.2}.cls-4{fill:#fecb39}.cls-5{fill:#dcb02d}.cls-6{fill:#ffe592}.cls-8{fill:#fedca5}.cls-9{fill:#fff}.cls-10{fill:#536582}.cls-11{fill:#313030}.cls-12{fill:#f5b799}.cls-13{fill:#010101;opacity:.28}.cls-14{fill:#e29586}.cls-15{fill:#e59f84}.cls-16{fill:#5b5a5a}.cls-17{fill:#293241}.cls-18{fill:#efeeee}.cls-21{fill:#484848}.cls-22{fill:#ea4d5c}.cls-23{fill:#5f5f5f}</style></defs><g style="isolation:isolate"><g id="Layer_1" data-name="Layer 1"><path d="M254 562c118 21 225-87 242-205 19-131-79-235-96-252-59-61-179-137-272-91C25 65 33 230 54 317c6 22 57 220 200 245Z" class="cls-2"/><path d="m473 139-75-38a13 13 0 0 0-17 6L275 314a13 13 0 0 0 5 18l75 38a13 13 0 0 0 17-6l106-207a13 13 0 0 0-5-18Z" class="cls-3"/><path d="m397 91 74 38a13 13 0 0 1 5 17L370 353a13 13 0 0 1-17 6l-74-38a13 13 0 0 1-6-18L379 96a13 13 0 0 1 18-5Z" class="cls-4"/><path d="m397 91 3 1-118 231-3-2a13 13 0 0 1-6-18L379 96a13 13 0 0 1 18-5Z" class="cls-5"/><circle cx="418.3" cy="156.8" r="34.6" class="cls-6" transform="rotate(-8 418 157)"/><path d="M395 153h4v93h-4z" class="cls-6" transform="rotate(-63 397 200)"/><path fill="#e19d2e" d="m347 233-42 81a5 5 0 0 1-6 2 5 5 0 0 1-3-6l42-82a5 5 0 0 1 7-2 5 5 0 0 1 2 7Z"/><path d="m350 267-28 56a5 5 0 0 1-7 2 5 5 0 0 1-2-7l29-56a5 5 0 0 1 6-2 5 5 0 0 1 2 7Z" class="cls-8"/><path d="M285 270h145v4H285z" class="cls-6" transform="rotate(-63 358 272)"/><path d="M356 306h8v25h-8z" class="cls-8" transform="rotate(-63 360 319)"/><path d="M364 288h12v25h-12z" class="cls-8" transform="rotate(-63 370 300)"/><path d="M362 300h4v25h-4z" class="cls-8" transform="rotate(-63 364 312)"/><path d="M365 296h3v25h-3z" class="cls-8" transform="rotate(-63 366 308)"/><path d="M373 274h8v25h-8z" class="cls-6" transform="rotate(-63 377 287)"/><path d="M378 268h4v25h-4z" class="cls-6" transform="rotate(-63 380 280)"/><path d="M382 253h12v25h-12z" class="cls-6" transform="rotate(-63 388 265)"/><path d="M391 239h8v25h-8z" class="cls-6" transform="rotate(-63 395 252)"/><path d="M396 233h4v25h-4z" class="cls-6" transform="rotate(-63 398 245)"/><path d="M381 264h3v25h-3z" class="cls-6" transform="rotate(-63 382 276)"/><path d="m422 154 22-3-2-4-24-3-3-11a4 4 0 0 0-5-2 4 4 0 0 0-2 5l3 10-18 16 2 5 20-11 6 19a6 6 0 0 0 1 1l-3 3v2l6-3 7-2v-1l-5-1a6 6 0 0 0 0-1Zm3 23Z" class="cls-5"/><path d="m507 277-115-51a13 13 0 0 0-17 7l-2 5-1 1-73 167a13 13 0 0 0 7 18l114 50a13 13 0 0 0 18-7l2-5v-1l74-167a13 13 0 0 0-7-17Z" class="cls-3"/><path d="m504 274-115-51a13 13 0 0 0-17 7l-74 167a13 13 0 0 0 7 18l115 50a13 13 0 0 0 17-7l74-167a13 13 0 0 0-7-17Z" class="cls-9"/><rect width="209.4" height="151.8" x="302" y="263" class="cls-10" rx="13.3" transform="rotate(-66 407 339)"/><path d="M424 300a44 44 0 1 0 23 58 44 44 0 0 0-23-58Zm23 45a34 34 0 0 0-6-12 41 41 0 0 0-5-21 42 42 0 0 1 11 33Zm-11 7 2-6c4 4 6 7 6 9Zm-2-1-11-5 4-8a85 85 0 0 1 9 6 56 56 0 0 1-2 7Zm-13-6-13-6 4-9a129 129 0 0 1 12 6l-3 9Zm-8-17 4-10a68 68 0 0 1 10 6 83 83 0 0 1-2 10l-12-6Zm5-12 6-13c4 3 5 9 4 18a69 69 0 0 0-10-5Zm-2-1a71 71 0 0 0-10-3c6-7 12-11 16-10Zm-1 2-4 10-13-5a83 83 0 0 1 6-8 68 68 0 0 1 11 3Zm-5 12-4 9-13-5 4-9a130 130 0 0 1 13 5Zm-20 3-10-5a59 59 0 0 1 3-6 83 83 0 0 1 12 3l-5 8Zm-13-6-8-4c2-1 6-2 11-1l-2 5Zm-9-1 8 3-2 6-6-9Zm11 4 10 5-3 9a85 85 0 0 1-9-7 59 59 0 0 1 2-7Zm13 6 13 6-4 9a130 130 0 0 1-12-6l3-9Zm8 17-5 10a68 68 0 0 1-9-6 83 83 0 0 1 2-10l12 6Zm-6 12-5 13c-4-2-5-9-4-18a70 70 0 0 0 9 5Zm3 1a69 69 0 0 0 10 4c-6 6-12 10-16 9Zm1-2 4-9 12 4a83 83 0 0 1-5 8 68 68 0 0 1-11-3Zm5-12 4-9 13 5-4 9a133 133 0 0 1-13-5Zm19-2 11 4a54 54 0 0 1-3 6 83 83 0 0 1-12-2l4-8Zm13 5 8 4c-1 1-5 2-10 1a57 57 0 0 0 2-5Zm4-11a57 57 0 0 0 1-6c4 4 5 9 5 14a32 32 0 0 0-6-8Zm-2-1a93 93 0 0 0-10-7 86 86 0 0 0 3-9 52 52 0 0 1 8 7 52 52 0 0 1-1 9Zm-7-19c1-7 1-12-1-16 6 5 9 13 9 23a58 58 0 0 0-8-7Zm-27-12a58 58 0 0 0-10-1c7-6 15-10 22-9-3 1-8 5-12 10Zm-2 2a86 86 0 0 0-5 8 92 92 0 0 0-11-2 52 52 0 0 1 5-7 52 52 0 0 1 11 1Zm-19 5a32 32 0 0 0-10 0c4-3 8-5 14-5a56 56 0 0 0-4 5Zm-8 19a55 55 0 0 0-2 7c-3-5-5-10-5-14a32 32 0 0 0 7 7Zm2 2a92 92 0 0 0 9 6 84 84 0 0 0-2 10 53 53 0 0 1-8-8 52 52 0 0 1 1-8Zm7 18v17c-5-6-8-14-8-23a57 57 0 0 0 8 6Zm27 12a58 58 0 0 0 10 1c-7 7-15 10-23 10 4-2 9-6 13-11Zm2-2a85 85 0 0 0 5-8 94 94 0 0 0 11 3 51 51 0 0 1-5 6 52 52 0 0 1-11-1Zm19-5a32 32 0 0 0 10 0c-4 3-9 5-14 6a56 56 0 0 0 4-6Zm-24-63a41 41 0 0 0-18 11 34 34 0 0 0-14 3 41 41 0 0 1 32-14Zm-42 36a34 34 0 0 0 7 13 41 41 0 0 0 4 21 41 41 0 0 1-11-34Zm41 46a41 41 0 0 0 18-11 34 34 0 0 0 14-3 41 41 0 0 1-32 14Z" class="cls-9"/><path d="M364 400h19v31h-19z" class="cls-9" transform="rotate(-66 374 415)"/><path d="M372 400h2v31h-2z" class="cls-10" transform="rotate(-66 374 415)"/><path d="M378 417c-1 2-4 2-6 1s-3-3-3-5 4-2 6-1 3 3 3 5Z" class="cls-10"/><path d="m401 277 3-30v-1l2 1a1 1 0 0 1 1 1l-3 25 18-19 2 1a1 1 0 0 1 1 1l-22 23a2 2 0 0 1-2-2Zm19 10h-1l-2-1v-1l12-27a1 1 0 0 1 1 0l2 1Zm8 1a9 9 0 0 1 0-7 1 1 0 0 1 1 0l2 1a1 1 0 0 1 0 1 6 6 0 0 0 3 7 6 6 0 0 0 8-3v-1a4 4 0 0 0-2-5l-3-1a7 7 0 0 1-4-10l1-1a9 9 0 1 1 16 8 1 1 0 0 1-1 0l-2-1a1 1 0 0 1 0-1 6 6 0 0 0 0-4 6 6 0 0 0-10-1l-1 2a4 4 0 0 0 2 5l3 1a7 7 0 0 1 4 10l-1 1a9 9 0 0 1-16-1Zm39-14a9 9 0 0 1 4 12l-9 20a1 1 0 0 1-1 0l-1-1a1 1 0 0 1-1 0l5-11-10-5-5 11a1 1 0 0 1-1 0l-2-1 9-20a8 8 0 0 1 5-5 9 9 0 0 1 7 0Zm-1 17 2-6a6 6 0 0 0-10-5l-3 6Z" class="cls-9"/><path d="m362 377-79-258a9 9 0 0 0-11-6L68 175a9 9 0 0 0-5 11l79 258a9 9 0 0 0 11 6l204-63a9 9 0 0 0 5-10Z" class="cls-3"/><path d="m288 109 79 258a9 9 0 0 1-5 11l-204 63a9 9 0 0 1-11-6L68 177a9 9 0 0 1 5-11l204-63a9 9 0 0 1 11 6Z" class="cls-9"/><path d="M101 183h58v73h-58z" class="cls-2" transform="rotate(-17 130 219)"/><path d="m158 246-37 12a17 17 0 0 1 7-17 16 16 0 0 1 2-2 19 19 0 0 1 2 0l6-2a17 17 0 0 1 14 2 17 17 0 0 1 6 7Z" class="cls-10"/><path d="M113 220s-8-19 3-23 14-8 17-8 10 18 11 21-31 10-31 10Z" class="cls-11"/><path d="m139 233 2 6c1 2-1 5-4 6s-5-1-6-3l-2-5a4 4 0 0 1 1-3 4 4 0 0 1 0-1 6 6 0 0 1 1-1 6 6 0 0 1 2-1 6 6 0 0 1 3-1 6 6 0 0 1 1 1 5 5 0 0 1 1 0 4 4 0 0 1 1 2Z" class="cls-12"/><path d="m142 212 3 8a14 14 0 0 1-5 15v2a14 14 0 0 1-4 2h-1a14 14 0 0 1-5 1v-2a14 14 0 0 1-13-10l-2-8a14 14 0 0 1 9-17h1a14 14 0 0 1 9 0 14 14 0 0 1 8 9Z" class="cls-13"/><path d="m142 210 3 10a14 14 0 0 1 0 7l-1 1a12 12 0 0 1 0 1 14 14 0 0 1-8 8h-1a14 14 0 0 1-5 1 14 14 0 0 1-13-10l-3-10a14 14 0 0 1 2-11 13 13 0 0 1 1-2 14 14 0 0 1 6-4l1-1a13 13 0 0 1 7 0 9 9 0 0 1 1 0 12 12 0 0 1 1 1 14 14 0 0 1 9 9Z" class="cls-12"/><path d="M148 213a6 6 0 0 1-3 7l-3-10a5 5 0 0 1 2-1 6 6 0 0 1 4 4Z" class="cls-12"/><path d="M146 214a3 3 0 0 1-2 4l-2-6a3 3 0 0 1 4 2Z" class="cls-14"/><path d="m114 218 3 11a6 6 0 0 1-4-10v-1a5 5 0 0 1 1 0Z" class="cls-12"/><path d="M113 224a3 3 0 0 0 4 2l-2-6a3 3 0 0 0-2 4Z" class="cls-14"/><path d="m142 210 3 10a14 14 0 0 1 0 7l-1 1c-3-20-7-21-11-20-5 2-8-4-8-4l7-4a12 12 0 0 1 1 1 14 14 0 0 1 9 9Z" class="cls-15"/><path d="m142 243 2 1-3 8h-1l1-13-1-2 5 4-3 2z" class="cls-16"/><path d="m143 241-1 1v2l-1 7-1 1h-1l-2-1-4-4-1-2-1-1v-2a11 11 0 0 0 4 2 7 7 0 0 0 2 1 7 7 0 0 0 2-1 11 11 0 0 0 2-5v-1Z" class="cls-17"/><path d="m142 242 2 2-4 8 1-13-1-3 5 5-3 1z" class="cls-18"/><path d="M139 252h-1l-6-4v-2l-3-1 1-5 1 2v1l8 9z" class="cls-16"/><path d="m139 252-7-4v-3h-3l1-6 1 3 8 10z" class="cls-18"/><path d="M132 198h-8a24 24 0 0 0-6 3l-5 5v2a5 5 0 0 0-1 1v2h1v1a12 12 0 0 1 3-4c3-2 6-4 10-2 6 2 14-3 14-3Z" class="cls-11"/><path d="m151 286-13 4a3 3 0 0 1-4-2l-3-12a3 3 0 0 1 2-4l12-4a3 3 0 0 1 4 2l4 12a3 3 0 0 1-2 4Zm-18-12v1l4 12v1l13-4v-1l-4-12v-1Zm27 44-12 4a3 3 0 0 1-4-2l-4-13a3 3 0 0 1 2-3l13-4a3 3 0 0 1 4 2l3 12a3 3 0 0 1-2 4Zm-17-12v1l4 12v1l13-4v-1l-4-12v-1Zm27 44-12 4a3 3 0 0 1-4-2l-4-13a3 3 0 0 1 2-3l13-4a3 3 0 0 1 3 2l4 12a3 3 0 0 1-2 4Zm-17-12v1l3 12h1l13-3v-1l-4-12-1-1Zm27 44-13 4a3 3 0 0 1-3-2l-4-13a3 3 0 0 1 2-3l12-4a3 3 0 0 1 4 2l4 12a3 3 0 0 1-2 4Zm-17-12-1 1 4 12h1l12-3 1-1-4-13h-1Z" class="cls-2"/><path d="M151 267a15 15 0 0 0-2 2v1l-1 1a30 30 0 0 0-3 3 32 32 0 0 0-2 4l-1 2h-2l-2-1a17 17 0 0 0-2 0l7 4 4-8 2-3 2-4v-1Z" class="cls-4"/><path fill="#64bfb4" d="M171 331a15 15 0 0 0-2 1l-1 1-1 1a30 30 0 0 0-2 3 34 34 0 0 0-3 4l-1 3-1-1h-2a17 17 0 0 0-2 0h-1l7 4h1l4-8 2-4 2-4Zm10 32h-1a15 15 0 0 0-1 1l-1 1-1 1a30 30 0 0 0-3 3 34 34 0 0 0-2 4l-1 2h-3a17 17 0 0 0-3-1v1l7 4 1-1 4-7 2-4 2-4Z"/><path d="m297 229-129 40a4 4 0 0 1-6-3 4 4 0 0 1 3-5l129-40a4 4 0 0 1 5 3 4 4 0 0 1-2 5Z" class="cls-2"/><path fill="#4b78bc" d="m219 162-55 17a4 4 0 0 1-5-2 4 4 0 0 1 3-5l55-17a4 4 0 0 1 5 2 4 4 0 0 1-3 5Z"/><path d="m276 161-107 33a4 4 0 0 1-5-3 4 4 0 0 1 2-5l108-33a4 4 0 0 1 5 3 4 4 0 0 1-3 5Zm4 14-107 33a4 4 0 0 1-5-3 4 4 0 0 1 2-5l108-33a4 4 0 0 1 5 3 4 4 0 0 1-3 5Zm-28 24-75 23a4 4 0 0 1-5-3 4 4 0 0 1 3-5l74-23a4 4 0 0 1 5 3 4 4 0 0 1-2 5Zm48 42-129 40a4 4 0 0 1-5-3 4 4 0 0 1 3-5l129-40a4 4 0 0 1 5 3 4 4 0 0 1-3 5Zm7 20-130 40a4 4 0 0 1-5-3 4 4 0 0 1 3-5l129-40a4 4 0 0 1 5 3 4 4 0 0 1-2 5Zm3 12-129 40a4 4 0 0 1-5-3 4 4 0 0 1 3-5l129-40a4 4 0 0 1 5 3 4 4 0 0 1-3 5Zm6 20-129 39a4 4 0 0 1-5-2 4 4 0 0 1 3-5l129-40a4 4 0 0 1 5 3 4 4 0 0 1-3 5Zm4 12-129 40a4 4 0 0 1-5-3 4 4 0 0 1 3-5l129-40a4 4 0 0 1 5 3 4 4 0 0 1-3 5Zm6 20-129 39a4 4 0 0 1-5-2 4 4 0 0 1 3-5l129-40a4 4 0 0 1 5 3 4 4 0 0 1-3 5Zm4 12-129 40a4 4 0 0 1-5-3 4 4 0 0 1 2-5l129-40a4 4 0 0 1 6 3 4 4 0 0 1-3 5Z" class="cls-2"/><path d="m384 368-37-268a9 9 0 0 0-10-7l-211 30a9 9 0 0 0-8 10l38 267a9 9 0 0 0 10 7l211-30a9 9 0 0 0 7-9Z" class="cls-3"/><path d="m353 90 38 268a9 9 0 0 1-7 9l-211 30a9 9 0 0 1-10-7l-38-267a9 9 0 0 1 7-10l211-30a9 9 0 0 1 10 7Z" class="cls-9"/><path d="M150 138h58v73h-58z" class="cls-2" transform="rotate(-8 179 174)"/><path d="m204 205-39 6a17 17 0 0 1 10-16 15 15 0 0 1 2-1 17 17 0 0 1 2 0l6-1a17 17 0 0 1 2 0 16 16 0 0 1 3 0 17 17 0 0 1 14 12Z" class="cls-10"/><path d="M163 172s-5-20 6-22 16-6 18-5 8 19 8 23-32 4-32 4Z" class="cls-11"/><path d="m187 190 1 5c0 3-2 5-5 6s-5-2-6-4v-6a4 4 0 0 1 1-3 5 5 0 0 1 1-1 6 6 0 0 1 5-1 6 6 0 0 1 1 1 4 4 0 0 1 1 0 4 4 0 0 1 1 3Z" class="cls-12"/><path d="m193 169 1 8a14 14 0 0 1-7 14v2a14 14 0 0 1-4 2h-1a14 14 0 0 1-5-1v-2a14 14 0 0 1-11-11l-1-8a14 14 0 0 1 11-16h2a14 14 0 0 1 8 2 14 14 0 0 1 7 10Z" class="cls-13"/><path d="m193 166 1 11a14 14 0 0 1-1 7v1l-1 1a14 14 0 0 1-9 6h-1a14 14 0 0 1-16-11l-2-11a14 14 0 0 1 4-11 12 12 0 0 1 1-1 14 14 0 0 1 7-3h1a13 13 0 0 1 6 0 9 9 0 0 1 2 1 15 15 0 0 1 1 0 14 14 0 0 1 7 10Z" class="cls-12"/><path d="M199 171a6 6 0 0 1-5 6l-1-11a5 5 0 0 1 2 1 6 6 0 0 1 4 4Z" class="cls-12"/><path d="M197 171a3 3 0 0 1-3 4l-1-6a3 3 0 0 1 4 2Z" class="cls-14"/><path d="m165 170 1 11a6 6 0 0 1-3-10h1a6 6 0 0 1 1-1Z" class="cls-12"/><path d="M162 176a3 3 0 0 0 4 3l-1-6a3 3 0 0 0-3 3Z" class="cls-14"/><path d="m193 166 1 11a14 14 0 0 1-1 7v1c0-20-4-22-9-22-5 1-7-5-7-5l8-2a15 15 0 0 1 1 0 14 14 0 0 1 7 10Z" class="cls-15"/><path d="m188 199 2 2-4 7h-1l3-12-1-3 4 5-3 1z" class="cls-16"/><path d="m189 197-1 2v1l-3 7v1h-1l-2-2-4-4v-2l-1-1v-2a11 11 0 0 0 4 3 7 7 0 0 0 2 1 6 6 0 0 0 1-1 11 11 0 0 0 4-4 5 5 0 0 0 0-1Z" class="cls-17"/><path d="m188 199 2 2-5 7 3-12-1-3 4 5-3 1z" class="cls-18"/><path d="M184 208h-1l-6-5 1-2-3-1 2-5v2l7 11z" class="cls-16"/><path d="m184 208-7-5 1-3h-3l2-6v3l7 11z" class="cls-18"/><path d="m185 154-8-1a24 24 0 0 0-6 1l-6 5v1a5 5 0 0 0-1 1v3-1l1 1a12 12 0 0 1 3-3c3-2 7-3 10-1 5 3 15-1 15-1Z" class="cls-11"/><path d="m190 243-13 2a3 3 0 0 1-4-2l-1-13a3 3 0 0 1 2-3l13-2a3 3 0 0 1 3 2l2 13a3 3 0 0 1-2 3Zm-16-14v1l2 13 13-2h1l-2-13-1-1Zm20 48-13 1a3 3 0 0 1-3-2l-2-13a3 3 0 0 1 3-3l13-2a3 3 0 0 1 3 2l2 13a3 3 0 0 1-3 4Zm-15-15v1l2 13 13-2h1l-2-13-1-1Zm20 48-13 1a3 3 0 0 1-3-2l-2-13a3 3 0 0 1 2-3l13-2a3 3 0 0 1 4 2l2 13a3 3 0 0 1-3 4Zm-15-15-1 1 2 13h1l13-2-2-13v-1Zm20 48-13 1a3 3 0 0 1-3-2l-2-13a3 3 0 0 1 2-3l13-2a3 3 0 0 1 3 2l2 13a3 3 0 0 1-2 4Zm-15-15-1 1 2 13 13-2h1l-2-13v-1Z" class="cls-2"/><path d="M193 225a16 16 0 0 0-2 1l-1 1-1 1a30 30 0 0 0-3 3 34 34 0 0 0-3 3l-1 2h-1l-2-1a17 17 0 0 0-3-1v1l7 4 5-7 3-3 2-4Zm14 99a15 15 0 0 0-2 1l-1 1h-1a30 30 0 0 0-3 3 33 33 0 0 0-3 4l-1 2-1-1h-2a15 15 0 0 0-3-1l7 5 5-7 3-3 2-4Zm-4-34a15 15 0 0 0-2 1l-1 1-1 1a30 30 0 0 0-3 3 31 31 0 0 0-3 3l-1 2h-2l-2-1a17 17 0 0 0-2-1v1l6 4h1l5-7 2-3 3-4Z" class="cls-4"/><path d="m343 210-134 19a4 4 0 0 1-4-4 4 4 0 0 1 3-4l134-19a4 4 0 0 1 4 3 4 4 0 0 1-3 5Z" class="cls-2"/><path d="m277 132-57 8a4 4 0 0 1-5-3 4 4 0 0 1 4-5l57-8a4 4 0 0 1 5 3 4 4 0 0 1-4 5Z" class="cls-10"/><path d="m333 140-111 15a4 4 0 0 1-5-3 4 4 0 0 1 4-5l111-15a4 4 0 0 1 5 3 4 4 0 0 1-4 5Zm2 14-111 16a4 4 0 0 1-5-4 4 4 0 0 1 4-4l111-16a4 4 0 0 1 5 3 4 4 0 0 1-4 5Zm-32 19-77 11a4 4 0 0 1-5-4 4 4 0 0 1 4-4l77-11a4 4 0 0 1 5 3 4 4 0 0 1-4 5Zm42 49-134 19a4 4 0 0 1-5-3 4 4 0 0 1 4-5l134-19a4 4 0 0 1 4 4 4 4 0 0 1-3 4Zm3 21-134 19a4 4 0 0 1-5-4 4 4 0 0 1 4-4l134-19a4 4 0 0 1 4 3 4 4 0 0 1-3 5Zm1 13-133 19a4 4 0 0 1-5-4 4 4 0 0 1 4-5l133-19a4 4 0 0 1 5 4 4 4 0 0 1-4 5Zm3 20-133 19a4 4 0 0 1-5-3 4 4 0 0 1 3-5l134-19a4 4 0 0 1 5 3 4 4 0 0 1-4 5Zm2 13-134 19a4 4 0 0 1-4-4 4 4 0 0 1 3-4l134-19a4 4 0 0 1 5 3 4 4 0 0 1-4 5Zm3 20-134 19a4 4 0 0 1-4-3 4 4 0 0 1 3-5l134-19a4 4 0 0 1 5 3 4 4 0 0 1-4 5Zm2 13-134 19a4 4 0 0 1-5-4 4 4 0 0 1 4-4l134-19a4 4 0 0 1 4 3 4 4 0 0 1-3 5Z" class="cls-2"/><path d="m178 123-6-20a6 6 0 0 0-12 4v2h1v-2a5 5 0 0 1 3-7 5 5 0 0 1 7 3l6 20a5 5 0 0 1-11 3l-3-11h-1l3 11a6 6 0 0 0 7 5 6 6 0 0 0 1 0 6 6 0 0 0 5-8Z" class="cls-21"/><path d="m209 296-5 2-3-4-8 3v6l-3 1-2-24 5-2Zm-11-5-6-8v11Zm17 3-4 1-9-21 9-3 6-1a7 7 0 0 1 4 9 7 7 0 0 1-4 4l-6 2Zm-5-12 5-2a4 4 0 0 0 2-2 3 3 0 0 0 0-2 3 3 0 0 0-2-2 4 4 0 0 0-3 0l-5 2Zm24 4-4 2-9-21 9-4q4-2 6 0a7 7 0 0 1 4 9 8 8 0 0 1-4 4l-6 2Zm-5-12 4-1a4 4 0 0 0 3-2 3 3 0 0 0 0-3 3 3 0 0 0-2-2 4 4 0 0 0-3 0l-5 2Zm36-1-4 2-6-8-6 3 4 8-4 2-9-21 9-4 7-1a6 6 0 0 1 3 4 6 6 0 0 1-1 7Zm-17-6 5-2a5 5 0 0 0 2-3 3 3 0 0 0 0-2 3 3 0 0 0-2-2 4 4 0 0 0-3 0l-5 2Zm29 2a8 8 0 0 1-8-1 14 14 0 0 1-6-7 13 13 0 0 1 0-8 9 9 0 0 1 5-6 8 8 0 0 1 8 0 13 13 0 0 1 5 7 13 13 0 0 1 1 9 9 9 0 0 1-5 6Zm-1-3a5 5 0 0 0 2-3q1-3-1-7a13 13 0 0 0-3-5 4 4 0 0 0-5-1q-5 2-1 10a12 12 0 0 0 3 5 4 4 0 0 0 5 1Zm21-6-4 2-15-19 4-1 11 14-1-18 3-2Zm23-9-14 5-9-21 14-5 1 3-10 4 3 6 7-4 2 3-8 4 2 6 10-4Zm3-1-9-22 8-3a9 9 0 0 1 8 0 12 12 0 0 1 6 7 12 12 0 0 1 0 8q-1 5-6 7Zm2-5 3-1a6 6 0 0 0 4-4q1-3-1-7a9 9 0 0 0-3-4 5 5 0 0 0-5-1l-4 2Z" class="cls-22"/><path d="m344 254-149 61a9 9 0 0 1-13-5l-10-26a9 9 0 0 1 5-12l149-62a9 9 0 0 1 12 5l11 26a10 10 0 0 1-5 13Zm-166 21a6 6 0 0 0-3 7l11 27a6 6 0 0 0 7 3l149-62a6 6 0 0 0 4-7l-11-26a6 6 0 0 0-8-3Z" class="cls-22"/><rect width="113.1" height="56.1" x="262" y="389" class="cls-3" rx="10.3"/><rect width="113.1" height="56.1" x="266" y="386" class="cls-21" rx="10.3"/><path d="M379 387v36a10 10 0 0 1-10 10h-93a10 10 0 0 1-10-10v-36a10 10 0 0 1 10-10h93a10 10 0 0 1 10 10Z" class="cls-23"/><path d="M310 357v46c0 6 6 11 13 11s12-5 12-11v-46Z" class="cls-21"/><ellipse cx="322.6" cy="357.4" class="cls-23" rx="12.4" ry="10.6"/><path fill="#484848" d="m333 409-24 24h-29l38-38 15 14z" opacity=".5"/><circle cx="179.3" cy="47.2" r="14.1" class="cls-10" transform="rotate(-81 179 47)"/><circle cx="499" cy="199.2" r="8.1" class="cls-4"/><circle cx="254.3" cy="497.7" r="12.1" class="cls-4" transform="rotate(-45 254 498)"/></g></g></svg>